;TYPE=PLATED
;Layer: PTH_Through
;EasyEDA Pro v2.2.47.7, 2026-05-22 18:14:44
;Gerber Generator version 0.3
M48
METRIC,LZ,0000.00000
;Hole size 1 = 0.35000 METRIC
T01C0.35000
;Hole size 2 = 0.40000 METRIC
T02C0.40000
;Hole size 3 = 0.70002 METRIC
T03C0.70002
;Hole size 4 = 0.80000 METRIC
T04C0.80000
;Hole size 5 = 0.81280 METRIC
T05C0.81280
;Hole size 6 = 0.90002 METRIC
T06C0.90002
;Hole size 7 = 0.91440 METRIC
T07C0.91440
;Hole size 8 = 1.02001 METRIC
T08C1.02001
;Hole size 9 = 1.10002 METRIC
T09C1.10002
;Hole size 10 = 1.20000 METRIC
T10C1.20000
;Hole size 11 = 1.40000 METRIC
T11C1.40000
;Hole size 12 = 1.64998 METRIC
T12C1.64998
%
G05
G90
T01
X205.38014Y-126.09286
X118.2106Y-236.7544
X118.2106Y-228.7544
X118.2106Y-220.7544
X118.2106Y-212.7544
X118.2106Y-204.7544
X118.2106Y-196.7544
X118.2106Y-188.75441
X118.2106Y-180.75441
X118.2106Y-172.75441
X118.2106Y-164.75441
X118.2106Y-156.75441
X118.2106Y-148.75441
X118.2106Y-140.75441
X118.2106Y-132.75441
X118.2106Y-124.75441
X118.2106Y-116.75441
X118.2106Y-108.75441
X121.6386Y-240.8184
X122.0196Y-229.3894
X129.3856Y-212.8814
X126.2106Y-196.7544
X126.2106Y-180.75441
X126.2106Y-172.75441
X126.2106Y-164.75441
X126.2106Y-156.75441
X126.2106Y-148.75441
X126.2106Y-140.75441
X126.2106Y-132.75441
X123.4166Y-126.78641
X126.2106Y-116.75441
X126.2106Y-108.75441
X134.2106Y-228.7544
X134.2106Y-220.7544
X134.2106Y-188.75441
X133.3216Y-180.75441
X134.2106Y-172.75441
X134.2106Y-164.75441
X136.8776Y-146.59541
X134.2106Y-140.75441
X134.2106Y-132.75441
X134.2106Y-116.75441
X134.2106Y-108.75441
X142.2106Y-236.7544
X142.2106Y-196.7544
X142.0836Y-187.61141
X142.2106Y-180.75441
X142.2106Y-172.75441
X142.2106Y-156.75441
X142.2106Y-148.75441
X142.2106Y-140.75441
X142.2106Y-132.75441
X154.9106Y-112.30841
X142.2106Y-116.75441
X142.2106Y-108.75441
X150.2106Y-236.7544
X152.8776Y-229.1354
X151.0996Y-221.0084
X150.2106Y-212.7544
X154.1476Y-191.42141
X150.2106Y-180.75441
X150.0836Y-171.48441
X150.2106Y-156.75441
X149.4486Y-148.75441
X150.2106Y-140.75441
X150.2106Y-132.75441
X147.2896Y-119.80141
X146.7816Y-112.30941
X150.2106Y-108.75441
X158.2106Y-236.7544
X158.2106Y-228.7544
X158.2106Y-220.7544
X158.2106Y-212.7544
X158.2106Y-196.7544
X158.2106Y-188.75441
X158.2106Y-180.75441
X157.4486Y-171.23041
X159.4806Y-148.75441
X158.2106Y-140.75441
X158.2106Y-124.75441
X158.2106Y-108.75441
X166.21059Y-236.7544
X166.21059Y-228.7544
X166.21059Y-220.7544
X166.21059Y-212.7544
X166.21059Y-196.7544
X166.21059Y-188.75441
X166.21059Y-180.75441
X166.21059Y-172.75441
X166.21059Y-156.75441
X166.21059Y-148.75441
X166.21059Y-132.75441
X166.21059Y-124.75441
X166.21059Y-108.75441
X174.21059Y-236.7544
X174.21059Y-228.7544
X174.21059Y-180.75441
X174.21059Y-156.75441
X174.21059Y-140.75441
X171.79759Y-130.21441
X174.21059Y-124.75441
X174.21059Y-116.75441
X174.21059Y-108.75441
X182.21059Y-228.7544
X182.21059Y-220.7544
X182.21059Y-204.7544
X182.21059Y-196.7544
X182.21059Y-190.15141
X182.21059Y-116.75441
X182.21059Y-108.75441
X190.59159Y-240.0564
X189.57559Y-218.2144
X190.21059Y-204.7544
X190.21059Y-196.7544
X190.21059Y-124.75441
X190.21059Y-116.75441
X190.21059Y-108.75441
X198.21059Y-236.7544
X198.46459Y-232.3104
X197.70259Y-221.6434
X198.21059Y-204.7544
X198.21059Y-188.75441
X198.21059Y-180.75441
X198.21059Y-172.75441
X198.21059Y-164.75441
X198.21059Y-124.75441
X198.21059Y-116.75441
X198.21059Y-108.75441
X206.21059Y-236.7544
X206.21059Y-196.7544
X206.21059Y-188.75441
X206.21059Y-180.75441
X206.21059Y-172.75441
X206.21059Y-116.75441
X206.21059Y-108.75441
X214.21059Y-236.7544
X213.70259Y-226.2144
X214.21059Y-204.7544
X214.21059Y-196.7544
X220.17959Y-184.56341
X220.05259Y-175.80141
X214.21059Y-116.75441
X214.21059Y-108.75441
X222.21059Y-236.7544
X219.28959Y-227.7384
X222.21059Y-204.7544
X222.21059Y-196.7544
X222.21059Y-188.75441
X222.21059Y-180.75441
X222.21059Y-172.75441
X222.21059Y-156.75441
X222.08359Y-149.51641
X222.21059Y-140.75441
X222.21059Y-132.75441
X222.21059Y-116.75441
X222.21059Y-108.75441
X230.21059Y-236.7544
X232.36959Y-228.6274
X230.21059Y-204.7544
X230.21059Y-196.7544
X230.21059Y-188.75441
X230.21059Y-180.75441
X230.21059Y-172.75441
X230.21059Y-164.75441
X230.08359Y-149.00841
X230.21059Y-140.75441
X230.21059Y-132.75441
X230.21059Y-124.75441
X230.21059Y-116.75441
X230.21059Y-108.75441
X238.21059Y-236.7544
X238.21059Y-228.7544
X238.21059Y-220.7544
X238.21059Y-204.7544
X238.21059Y-196.7544
X238.21059Y-188.75441
X238.21059Y-180.75441
X238.21059Y-172.75441
X238.21059Y-164.75441
X238.21059Y-156.75441
X238.33759Y-149.51641
X238.21059Y-140.75441
X238.21059Y-132.75441
X238.21059Y-124.75441
X238.21059Y-116.75441
X238.21059Y-108.75441
X246.21059Y-236.7544
X246.21059Y-228.7544
X246.21059Y-220.7544
X246.21059Y-204.7544
X246.21059Y-196.7544
X246.21059Y-188.75441
X246.21059Y-180.75441
X246.21059Y-172.75441
X246.21059Y-164.75441
X246.21059Y-156.75441
X246.21059Y-148.75441
X246.21059Y-140.75441
X246.21059Y-132.75441
X246.21059Y-124.75441
X246.21059Y-116.75441
X246.21059Y-108.75441
X254.21059Y-236.7544
X250.27359Y-232.9454
X254.21059Y-220.7544
X254.21059Y-204.7544
X254.21059Y-196.7544
X254.21059Y-188.75441
X254.21059Y-180.75441
X254.21059Y-172.75441
X254.21059Y-164.75441
X254.21059Y-156.75441
X254.21059Y-148.75441
X254.21059Y-140.75441
X254.21059Y-132.75441
X254.21059Y-124.75441
X254.21059Y-116.75441
X254.21059Y-108.75441
X262.21059Y-236.7544
X262.21059Y-220.7544
X262.21059Y-204.7544
X262.21059Y-196.7544
X262.21059Y-188.75441
X262.21059Y-180.75441
X262.21059Y-172.75441
X262.21059Y-156.75441
X262.21059Y-148.75441
X262.21059Y-140.75441
X262.21059Y-132.75441
X262.21059Y-124.75441
X262.21059Y-116.75441
X262.21059Y-108.75441
X270.21058Y-236.7544
X270.21058Y-220.7544
X270.21058Y-204.7544
X270.21058Y-196.7544
X270.21058Y-188.75441
X269.57558Y-171.48441
X270.21058Y-148.75441
X270.21058Y-140.75441
X270.21058Y-132.75441
X270.21058Y-116.75441
X270.21058Y-108.75441
X278.21058Y-236.7544
X270.46358Y-224.8184
X278.21058Y-196.7544
X278.21058Y-188.75441
X278.21058Y-172.75441
X278.21058Y-156.75441
X276.55958Y-145.19841
X278.21058Y-140.75441
X278.21058Y-132.75441
X278.21058Y-126.15141
X278.21058Y-116.75441
X278.21058Y-108.75441
X286.21058Y-236.7544
X285.44858Y-232.6914
X286.97258Y-213.2624
X286.21058Y-172.75441
X286.21058Y-156.75441
X286.21058Y-140.75441
X286.08358Y-126.27841
X286.21058Y-116.75441
X286.21058Y-108.75441
X294.21058Y-236.7544
X294.21058Y-228.7544
X294.21058Y-220.7544
X294.21058Y-196.7544
X294.21058Y-116.75441
X294.21058Y-108.75441
X302.21058Y-236.7544
X298.52758Y-229.6434
X304.62358Y-202.4684
X302.21058Y-196.7544
X302.21058Y-188.75441
X302.21058Y-180.75441
X302.21058Y-172.75441
X302.21058Y-164.75441
X302.21058Y-156.75441
X302.21058Y-148.75441
X302.21058Y-140.75441
X302.21058Y-132.75441
X302.21058Y-124.75441
X302.21058Y-116.75441
X302.21058Y-108.75441
X310.21058Y-236.7544
X310.21058Y-228.7544
X310.21058Y-220.7544
X310.59158Y-214.2784
X310.21058Y-204.7544
X310.21058Y-196.7544
X310.21058Y-188.75441
X310.21058Y-180.75441
X310.21058Y-172.75441
X310.33758Y-167.67541
X308.68658Y-146.21441
X310.21058Y-140.75441
X310.21058Y-132.75441
X310.21058Y-124.75441
X310.21058Y-116.75441
X310.21058Y-108.75441
X318.21058Y-236.7544
X318.21058Y-228.7544
X318.21058Y-220.7544
X318.21058Y-212.7544
X318.21058Y-204.7544
X318.21058Y-196.7544
X318.21058Y-188.75441
X318.21058Y-180.75441
X318.21058Y-172.75441
X318.21058Y-164.75441
X318.21058Y-148.75441
X318.21058Y-140.75441
X318.21058Y-132.75441
X318.21058Y-124.75441
X318.21058Y-116.75441
X318.21058Y-108.75441
X326.21058Y-236.7544
X326.21058Y-228.7544
X326.21058Y-220.7544
X326.21058Y-212.7544
X326.21058Y-204.7544
X326.21058Y-196.7544
X326.21058Y-188.75441
X326.21058Y-180.75441
X326.21058Y-172.75441
X326.21058Y-164.75441
X326.21058Y-156.75441
X326.21058Y-148.75441
X326.21058Y-140.75441
X326.21058Y-132.75441
X326.21058Y-124.75441
X326.21058Y-116.75441
X326.21058Y-108.75441
X136.398Y-215.138
X114.173Y-200.914
X122.174Y-177.038
X130.556Y-176.657
X202.311Y-233.426
X195.58Y-233.934
T02
X206.88287Y-218.43505
X211.709Y-210.14004
X301.244Y-203.454
X294.513Y-203.454
X202.311Y-241.173
X218.77727Y-241.173
X266.192Y-220.472
X194.056Y-170.307
X207.264Y-165.481
X226.187Y-129.032
X121.793Y-216.027
X138.557Y-221.996
X120.015Y-225.425
X130.429Y-226.314
T03
X152.908Y-127.297
X152.908Y-116.797
T04
X139.319Y-127.0
X139.319Y-121.92
T05
X126.238Y-204.089
X126.238Y-206.629
X209.296Y-231.267
X211.836Y-231.267
T06
X211.70913Y-152.654
X211.70913Y-155.194
X211.70913Y-157.734
X211.70913Y-160.274
X211.70913Y-162.814
X211.70913Y-165.354
X211.70913Y-167.894
X211.70913Y-170.434
X211.70913Y-172.974
X211.70913Y-175.514
X211.70913Y-178.054
X211.70913Y-180.594
X211.70913Y-183.134
X211.70913Y-185.674
X211.70913Y-188.214
X211.70913Y-190.754
X188.84913Y-152.654
X188.84913Y-155.194
X188.84913Y-157.734
X188.84913Y-160.274
X188.84913Y-162.814
X188.84913Y-165.354
X188.84913Y-167.894
X188.84913Y-170.434
X188.84913Y-172.974
X188.84913Y-175.514
X188.84913Y-178.054
X188.84913Y-180.594
X188.84913Y-183.134
X188.84913Y-185.674
X188.84913Y-188.214
X188.84913Y-190.754
X231.30901Y-215.50909
X230.20899Y-220.60891
X294.85422Y-187.4362
X289.85403Y-185.43605
X280.02509Y-225.63699
X285.12491Y-226.73701
T07
X174.879Y-188.087
X174.879Y-224.282
X189.738Y-232.791
X131.572Y-125.70993
X131.572Y-123.20994
X271.27197Y-175.42716
X271.27197Y-180.42715
X257.68303Y-216.11384
X257.68303Y-211.11385
X135.61309Y-205.232
X148.61301Y-205.232
X200.787Y-228.49591
X200.787Y-215.49599
T08
X212.852Y-123.571
X215.392Y-123.571
X217.932Y-123.571
X220.472Y-123.571
X223.012Y-123.571
T09
X289.814Y-178.816
X287.274Y-178.816
X284.734Y-178.816
X282.194Y-178.816
X185.45659Y-134.23406
X182.91659Y-134.23406
X180.37659Y-134.23406
X177.83659Y-134.23406
X278.638Y-152.273
X281.178Y-152.273
X283.718Y-152.273
X286.258Y-152.273
X288.798Y-152.273
X291.338Y-152.273
X293.878Y-152.273
X296.418Y-152.273
X278.638Y-164.973
X281.178Y-164.973
X283.718Y-164.973
X286.258Y-164.973
X288.798Y-164.973
X291.338Y-164.973
X293.878Y-164.973
X296.418Y-164.973
X262.382Y-225.806
X259.842Y-225.806
X257.302Y-225.806
X257.302Y-230.886
X262.382Y-230.886
T10
X287.274Y-135.128
X289.814Y-135.128
X292.354Y-135.128
X271.272Y-161.798
X271.272Y-159.258
X271.272Y-156.718
X131.826Y-152.527
X131.826Y-155.067
X131.826Y-157.607
X131.826Y-160.147
X134.83399Y-236.093
X129.834Y-236.093
X228.687Y-231.394
X223.68701Y-231.394
X303.53Y-226.735
X303.53Y-231.73499
X127.68006Y-186.436
X149.18007Y-186.436
X182.118Y-237.19094
X182.118Y-215.69093
X292.81694Y-121.539
X271.31693Y-121.539
X148.86691Y-196.85
X135.86709Y-196.85
X193.548Y-215.36909
X193.548Y-228.36891
X310.769Y-152.98801
X310.769Y-157.988
X310.769Y-162.98799
X127.00013Y-221.11195
X124.46013Y-221.10195
X129.54013Y-221.11195
X222.88487Y-220.84805
X225.42487Y-220.85805
X220.34487Y-220.84805
T11
X304.038Y-217.34399
X304.038Y-212.344
X304.038Y-207.34401
T12
X280.748Y-217.30411
X284.148Y-217.30411
X284.148Y-207.38414
X280.748Y-207.38414
X146.353Y-217.54389
X142.953Y-217.54389
X142.953Y-227.46386
X146.353Y-227.46386
M30