G04 Layer: TopSilkscreenLayer*
G04 EasyEDA Pro v2.2.47.7, 2026-05-22 18:14:44*
G04 Gerber Generator version 0.3*
G04 Scale: 100 percent, Rotated: No, Reflected: No*
G04 Dimensions in millimeters*
G04 Leading zeros omitted, absolute positions, 4 integers and 5 decimals*
G04 Generated by one-click*
G04 Object Configs: Pad,Via,Track,Text,Image,Dimension,BoardOutline,BoardCutout,CopperFilled,SolidRegion,FPCStiffener,Line,PlaneZone,ComponentProperty,ComponentSilkscreen,TearDrop*
G04 Layer Configs: 1,2,3,4,5,6,7,8,9,10,11,13,14,56*
G04 Copper Areas: 0*
%FSLAX45Y45*%
%MOMM*%
%ADD10C,0.2032*%
%ADD11C,0.203*%
%ADD12C,0.1524*%
%ADD13C,0.254*%
%ADD14C,0.4*%
%ADD15C,0.1839*%
G75*


G04 Text Start*
G54D10*
G01X29668470Y-21370290D02*
G01X29650690Y-21379180D01*
G01X29632910Y-21396960D01*
G01X29624020Y-21414740D01*
G01X29624020Y-21450300D01*
G01X29632910Y-21468080D01*
G01X29650690Y-21485860D01*
G01X29668470Y-21494750D01*
G01X29695140Y-21503640D01*
G01X29739590Y-21503640D01*
G01X29766260Y-21494750D01*
G01X29784040Y-21485860D01*
G01X29801820Y-21468080D01*
G01X29810710Y-21450300D01*
G01X29810710Y-21414740D01*
G01X29801820Y-21396960D01*
G01X29784040Y-21379180D01*
G01X29766260Y-21370290D01*
G01X29739590Y-21370290D01*
G01X29739590Y-21414740D02*
G01X29739590Y-21370290D01*
G01X29624020Y-21307298D02*
G01X29810710Y-21307298D01*
G01X29624020Y-21307298D02*
G01X29810710Y-21182838D01*
G01X29624020Y-21182838D02*
G01X29810710Y-21182838D01*
G01X29624020Y-21119846D02*
G01X29810710Y-21119846D01*
G01X29624020Y-21119846D02*
G01X29624020Y-21057616D01*
G01X29632910Y-21030946D01*
G01X29650690Y-21013166D01*
G01X29668470Y-21004276D01*
G01X29695140Y-20995386D01*
G01X29739590Y-20995386D01*
G01X29766260Y-21004276D01*
G01X29784040Y-21013166D01*
G01X29801820Y-21030946D01*
G01X29810710Y-21057616D01*
G01X29810710Y-21119846D01*
G01X30871160Y-21696680D02*
G01X30888940Y-21687790D01*
G01X30915610Y-21661120D01*
G01X30915610Y-21847810D01*
G01X30987492Y-21705570D02*
G01X30987492Y-21696680D01*
G01X30996382Y-21678900D01*
G01X31005272Y-21670010D01*
G01X31023052Y-21661120D01*
G01X31058612Y-21661120D01*
G01X31076392Y-21670010D01*
G01X31085282Y-21678900D01*
G01X31094172Y-21696680D01*
G01X31094172Y-21714460D01*
G01X31085282Y-21732240D01*
G01X31067502Y-21758910D01*
G01X30978602Y-21847810D01*
G01X31103062Y-21847810D01*
G01X31166054Y-21661120D02*
G01X31237174Y-21847810D01*
G01X31308294Y-21661120D02*
G01X31237174Y-21847810D01*
G01X30871160Y-20632420D02*
G01X30871160Y-20819110D01*
G01X30871160Y-20632420D02*
G01X30951170Y-20632420D01*
G01X30977840Y-20641310D01*
G01X30986730Y-20650200D01*
G01X30995620Y-20667980D01*
G01X30995620Y-20694650D01*
G01X30986730Y-20712430D01*
G01X30977840Y-20721320D01*
G01X30951170Y-20730210D01*
G01X30871160Y-20730210D01*
G01X31183072Y-20659090D02*
G01X31165292Y-20641310D01*
G01X31138622Y-20632420D01*
G01X31103062Y-20632420D01*
G01X31076392Y-20641310D01*
G01X31058612Y-20659090D01*
G01X31058612Y-20676870D01*
G01X31067502Y-20694650D01*
G01X31076392Y-20703540D01*
G01X31094172Y-20712430D01*
G01X31147512Y-20730210D01*
G01X31165292Y-20739100D01*
G01X31174182Y-20747990D01*
G01X31183072Y-20765770D01*
G01X31183072Y-20792440D01*
G01X31165292Y-20810220D01*
G01X31138622Y-20819110D01*
G01X31103062Y-20819110D01*
G01X31076392Y-20810220D01*
G01X31058612Y-20792440D01*
G01X31246064Y-20881340D02*
G01X31406084Y-20881340D01*
G01X31522416Y-20632420D02*
G01X31504636Y-20641310D01*
G01X31486856Y-20659090D01*
G01X31477966Y-20676870D01*
G01X31469076Y-20703540D01*
G01X31469076Y-20747990D01*
G01X31477966Y-20774660D01*
G01X31486856Y-20792440D01*
G01X31504636Y-20810220D01*
G01X31522416Y-20819110D01*
G01X31557976Y-20819110D01*
G01X31575756Y-20810220D01*
G01X31593536Y-20792440D01*
G01X31602426Y-20774660D01*
G01X31611316Y-20747990D01*
G01X31611316Y-20703540D01*
G01X31602426Y-20676870D01*
G01X31593536Y-20659090D01*
G01X31575756Y-20641310D01*
G01X31557976Y-20632420D01*
G01X31522416Y-20632420D01*
G01X31674308Y-20632420D02*
G01X31674308Y-20819110D01*
G01X31674308Y-20632420D02*
G01X31798768Y-20819110D01*
G01X31798768Y-20632420D02*
G01X31798768Y-20819110D01*
G01X31066740Y-22486620D02*
G01X30977840Y-22486620D01*
G01X30968950Y-22566630D01*
G01X30977840Y-22557740D01*
G01X31004510Y-22548850D01*
G01X31031180Y-22548850D01*
G01X31057850Y-22557740D01*
G01X31075630Y-22575520D01*
G01X31084520Y-22602190D01*
G01X31084520Y-22619970D01*
G01X31075630Y-22646640D01*
G01X31057850Y-22664420D01*
G01X31031180Y-22673310D01*
G01X31004510Y-22673310D01*
G01X30977840Y-22664420D01*
G01X30968950Y-22655530D01*
G01X30960060Y-22637750D01*
G01X31147512Y-22486620D02*
G01X31218632Y-22673310D01*
G01X31289752Y-22486620D02*
G01X31218632Y-22673310D01*
G01X31042610Y-23026370D02*
G01X31033720Y-23008590D01*
G01X31015940Y-22990810D01*
G01X30998160Y-22981920D01*
G01X30962600Y-22981920D01*
G01X30944820Y-22990810D01*
G01X30927040Y-23008590D01*
G01X30918150Y-23026370D01*
G01X30909260Y-23053040D01*
G01X30909260Y-23097490D01*
G01X30918150Y-23124160D01*
G01X30927040Y-23141940D01*
G01X30944820Y-23159720D01*
G01X30962600Y-23168610D01*
G01X30998160Y-23168610D01*
G01X31015940Y-23159720D01*
G01X31033720Y-23141940D01*
G01X31042610Y-23124160D01*
G01X31042610Y-23097490D01*
G01X30998160Y-23097490D02*
G01X31042610Y-23097490D01*
G01X31105602Y-22981920D02*
G01X31105602Y-23168610D01*
G01X31105602Y-22981920D02*
G01X31230062Y-23168610D01*
G01X31230062Y-22981920D02*
G01X31230062Y-23168610D01*
G01X31293054Y-22981920D02*
G01X31293054Y-23168610D01*
G01X31293054Y-22981920D02*
G01X31355284Y-22981920D01*
G01X31381954Y-22990810D01*
G01X31399734Y-23008590D01*
G01X31408624Y-23026370D01*
G01X31417514Y-23053040D01*
G01X31417514Y-23097490D01*
G01X31408624Y-23124160D01*
G01X31399734Y-23141940D01*
G01X31381954Y-23159720D01*
G01X31355284Y-23168610D01*
G01X31293054Y-23168610D01*
G01X25902920Y-22056090D02*
G01X25885140Y-22038310D01*
G01X25858470Y-22029420D01*
G01X25822910Y-22029420D01*
G01X25796240Y-22038310D01*
G01X25778460Y-22056090D01*
G01X25778460Y-22073870D01*
G01X25787350Y-22091650D01*
G01X25796240Y-22100540D01*
G01X25814020Y-22109430D01*
G01X25867360Y-22127210D01*
G01X25885140Y-22136100D01*
G01X25894030Y-22144990D01*
G01X25902920Y-22162770D01*
G01X25902920Y-22189440D01*
G01X25885140Y-22207220D01*
G01X25858470Y-22216110D01*
G01X25822910Y-22216110D01*
G01X25796240Y-22207220D01*
G01X25778460Y-22189440D01*
G01X25965912Y-22029420D02*
G01X26010362Y-22216110D01*
G01X26054812Y-22029420D02*
G01X26010362Y-22216110D01*
G01X26054812Y-22029420D02*
G01X26099262Y-22216110D01*
G01X26143712Y-22029420D02*
G01X26099262Y-22216110D01*
G01X15059660Y-14721332D02*
G01X15059660Y-15036038D01*
G01X15059660Y-15036038D02*
G01X15239492Y-15036038D01*
G01X15556738Y-14796262D02*
G01X15541498Y-14766290D01*
G01X15511526Y-14736318D01*
G01X15481554Y-14721332D01*
G01X15421610Y-14721332D01*
G01X15391638Y-14736318D01*
G01X15361666Y-14766290D01*
G01X15346680Y-14796262D01*
G01X15331694Y-14841220D01*
G01X15331694Y-14916150D01*
G01X15346680Y-14961108D01*
G01X15361666Y-14991080D01*
G01X15391638Y-15021052D01*
G01X15421610Y-15036038D01*
G01X15481554Y-15036038D01*
G01X15511526Y-15021052D01*
G01X15541498Y-14991080D01*
G01X15556738Y-14961108D01*
G01X15648940Y-14721332D02*
G01X15648940Y-15036038D01*
G01X15648940Y-14721332D02*
G01X15753842Y-14721332D01*
G01X15798800Y-14736318D01*
G01X15828772Y-14766290D01*
G01X15843758Y-14796262D01*
G01X15858744Y-14841220D01*
G01X15858744Y-14916150D01*
G01X15843758Y-14961108D01*
G01X15828772Y-14991080D01*
G01X15798800Y-15021052D01*
G01X15753842Y-15036038D01*
G01X15648940Y-15036038D01*
G01X13434060Y-18000980D02*
G01X13451840Y-17992090D01*
G01X13478510Y-17965420D01*
G01X13478510Y-18152110D01*
G01X13594842Y-17965420D02*
G01X13568172Y-17974310D01*
G01X13550392Y-18000980D01*
G01X13541502Y-18045430D01*
G01X13541502Y-18072100D01*
G01X13550392Y-18116550D01*
G01X13568172Y-18143220D01*
G01X13594842Y-18152110D01*
G01X13612622Y-18152110D01*
G01X13639292Y-18143220D01*
G01X13657072Y-18116550D01*
G01X13665962Y-18072100D01*
G01X13665962Y-18045430D01*
G01X13657072Y-18000980D01*
G01X13639292Y-17974310D01*
G01X13612622Y-17965420D01*
G01X13594842Y-17965420D01*
G01X13728954Y-17965420D02*
G01X13728954Y-18152110D01*
G01X13853414Y-17965420D02*
G01X13728954Y-18089880D01*
G01X13773404Y-18045430D02*
G01X13853414Y-18152110D01*
G01X13916406Y-18152110D02*
G01X13978636Y-18152110D01*
G01X13960856Y-18125440D01*
G01X13943076Y-18098770D01*
G01X13934186Y-18072100D01*
G01X13934186Y-18045430D01*
G01X13943076Y-18018760D01*
G01X13951966Y-18000980D01*
G01X13969746Y-17983200D01*
G01X13987526Y-17974310D01*
G01X14023086Y-17974310D01*
G01X14040866Y-17983200D01*
G01X14058646Y-18000980D01*
G01X14067536Y-18018760D01*
G01X14076426Y-18045430D01*
G01X14076426Y-18072100D01*
G01X14067536Y-18098770D01*
G01X14049756Y-18125440D01*
G01X14031976Y-18152110D01*
G01X14094206Y-18152110D01*
G01X14587220Y-12176760D02*
G01X14596110Y-12194540D01*
G01X14622780Y-12221210D01*
G01X14436090Y-12221210D01*
G01X14622780Y-12337542D02*
G01X14613890Y-12310872D01*
G01X14587220Y-12293092D01*
G01X14542770Y-12284202D01*
G01X14516100Y-12284202D01*
G01X14471650Y-12293092D01*
G01X14444980Y-12310872D01*
G01X14436090Y-12337542D01*
G01X14436090Y-12355322D01*
G01X14444980Y-12381992D01*
G01X14471650Y-12399772D01*
G01X14516100Y-12408662D01*
G01X14542770Y-12408662D01*
G01X14587220Y-12399772D01*
G01X14613890Y-12381992D01*
G01X14622780Y-12355322D01*
G01X14622780Y-12337542D01*
G01X14560550Y-12471654D02*
G01X14471650Y-12471654D01*
G01X14444980Y-12480544D01*
G01X14436090Y-12498324D01*
G01X14436090Y-12524994D01*
G01X14444980Y-12542774D01*
G01X14471650Y-12569444D01*
G01X14560550Y-12569444D02*
G01X14436090Y-12569444D01*
G01X14622780Y-12632436D02*
G01X14436090Y-12632436D01*
G01X14622780Y-12632436D02*
G01X14622780Y-12748006D01*
G01X14533880Y-12632436D02*
G01X14533880Y-12703556D01*
G01X14853920Y-12397740D02*
G01X14978380Y-12486640D01*
G01X14978380Y-12353290D01*
G01X14853920Y-12397740D02*
G01X15040610Y-12397740D01*
G01X14996160Y-12281408D02*
G01X15005050Y-12290298D01*
G01X15013940Y-12281408D01*
G01X15005050Y-12272518D01*
G01X14996160Y-12281408D01*
G01X14853920Y-12165076D02*
G01X14862810Y-12191746D01*
G01X14880590Y-12200636D01*
G01X14898370Y-12200636D01*
G01X14916150Y-12191746D01*
G01X14925040Y-12173966D01*
G01X14933930Y-12138406D01*
G01X14942820Y-12111736D01*
G01X14960600Y-12093956D01*
G01X14978380Y-12085066D01*
G01X15005050Y-12085066D01*
G01X15022830Y-12093956D01*
G01X15031720Y-12102846D01*
G01X15040610Y-12129516D01*
G01X15040610Y-12165076D01*
G01X15031720Y-12191746D01*
G01X15022830Y-12200636D01*
G01X15005050Y-12209526D01*
G01X14978380Y-12209526D01*
G01X14960600Y-12200636D01*
G01X14942820Y-12182856D01*
G01X14933930Y-12156186D01*
G01X14925040Y-12120626D01*
G01X14916150Y-12102846D01*
G01X14898370Y-12093956D01*
G01X14880590Y-12093956D01*
G01X14862810Y-12102846D01*
G01X14853920Y-12129516D01*
G01X14853920Y-12165076D01*
G01X14853920Y-12022074D02*
G01X15040610Y-12022074D01*
G01X14853920Y-11897614D02*
G01X14978380Y-12022074D01*
G01X14933930Y-11977624D02*
G01X15040610Y-11897614D01*
G01X13992860Y-19220180D02*
G01X14010640Y-19211290D01*
G01X14037310Y-19184620D01*
G01X14037310Y-19371310D01*
G01X14153642Y-19184620D02*
G01X14126972Y-19193510D01*
G01X14109192Y-19220180D01*
G01X14100302Y-19264630D01*
G01X14100302Y-19291300D01*
G01X14109192Y-19335750D01*
G01X14126972Y-19362420D01*
G01X14153642Y-19371310D01*
G01X14171422Y-19371310D01*
G01X14198092Y-19362420D01*
G01X14215872Y-19335750D01*
G01X14224762Y-19291300D01*
G01X14224762Y-19264630D01*
G01X14215872Y-19220180D01*
G01X14198092Y-19193510D01*
G01X14171422Y-19184620D01*
G01X14153642Y-19184620D01*
G01X14287754Y-19371310D02*
G01X14349984Y-19371310D01*
G01X14332204Y-19344640D01*
G01X14314424Y-19317970D01*
G01X14305534Y-19291300D01*
G01X14305534Y-19264630D01*
G01X14314424Y-19237960D01*
G01X14323314Y-19220180D01*
G01X14341094Y-19202400D01*
G01X14358874Y-19193510D01*
G01X14394434Y-19193510D01*
G01X14412214Y-19202400D01*
G01X14429994Y-19220180D01*
G01X14438884Y-19237960D01*
G01X14447774Y-19264630D01*
G01X14447774Y-19291300D01*
G01X14438884Y-19317970D01*
G01X14421104Y-19344640D01*
G01X14403324Y-19371310D01*
G01X14465554Y-19371310D01*
G01X18610370Y-12032292D02*
G01X18628150Y-12023402D01*
G01X18645930Y-12005622D01*
G01X18654820Y-11987842D01*
G01X18654820Y-11952282D01*
G01X18645930Y-11934502D01*
G01X18628150Y-11916722D01*
G01X18610370Y-11907832D01*
G01X18583700Y-11898942D01*
G01X18539250Y-11898942D01*
G01X18512580Y-11907832D01*
G01X18494800Y-11916722D01*
G01X18477020Y-11934502D01*
G01X18468130Y-11952282D01*
G01X18468130Y-11987842D01*
G01X18477020Y-12005622D01*
G01X18494800Y-12023402D01*
G01X18512580Y-12032292D01*
G01X18539250Y-12032292D01*
G01X18539250Y-11987842D02*
G01X18539250Y-12032292D01*
G01X18654820Y-12095284D02*
G01X18468130Y-12095284D01*
G01X18654820Y-12095284D02*
G01X18654820Y-12175294D01*
G01X18645930Y-12201964D01*
G01X18637040Y-12210854D01*
G01X18619260Y-12219744D01*
G01X18592590Y-12219744D01*
G01X18574810Y-12210854D01*
G01X18565920Y-12201964D01*
G01X18557030Y-12175294D01*
G01X18557030Y-12095284D01*
G01X18654820Y-12282736D02*
G01X18468130Y-12282736D01*
G01X18654820Y-12399068D02*
G01X18645930Y-12381288D01*
G01X18628150Y-12363508D01*
G01X18610370Y-12354618D01*
G01X18583700Y-12345728D01*
G01X18539250Y-12345728D01*
G01X18512580Y-12354618D01*
G01X18494800Y-12363508D01*
G01X18477020Y-12381288D01*
G01X18468130Y-12399068D01*
G01X18468130Y-12434628D01*
G01X18477020Y-12452408D01*
G01X18494800Y-12470188D01*
G01X18512580Y-12479078D01*
G01X18539250Y-12487968D01*
G01X18583700Y-12487968D01*
G01X18610370Y-12479078D01*
G01X18628150Y-12470188D01*
G01X18645930Y-12452408D01*
G01X18654820Y-12434628D01*
G01X18654820Y-12399068D01*
G01X18654820Y-12838996D02*
G01X18530360Y-12750096D01*
G01X18530360Y-12883446D01*
G01X18654820Y-12838996D02*
G01X18468130Y-12838996D01*
G01X18305570Y-12006892D02*
G01X18323350Y-11998002D01*
G01X18341130Y-11980222D01*
G01X18350020Y-11962442D01*
G01X18350020Y-11926882D01*
G01X18341130Y-11909102D01*
G01X18323350Y-11891322D01*
G01X18305570Y-11882432D01*
G01X18278900Y-11873542D01*
G01X18234450Y-11873542D01*
G01X18207780Y-11882432D01*
G01X18190000Y-11891322D01*
G01X18172220Y-11909102D01*
G01X18163330Y-11926882D01*
G01X18163330Y-11962442D01*
G01X18172220Y-11980222D01*
G01X18190000Y-11998002D01*
G01X18207780Y-12006892D01*
G01X18234450Y-12006892D01*
G01X18234450Y-11962442D02*
G01X18234450Y-12006892D01*
G01X18350020Y-12069884D02*
G01X18163330Y-12069884D01*
G01X18350020Y-12069884D02*
G01X18350020Y-12149894D01*
G01X18341130Y-12176564D01*
G01X18332240Y-12185454D01*
G01X18314460Y-12194344D01*
G01X18287790Y-12194344D01*
G01X18270010Y-12185454D01*
G01X18261120Y-12176564D01*
G01X18252230Y-12149894D01*
G01X18252230Y-12069884D01*
G01X18350020Y-12257336D02*
G01X18163330Y-12257336D01*
G01X18350020Y-12373668D02*
G01X18341130Y-12355888D01*
G01X18323350Y-12338108D01*
G01X18305570Y-12329218D01*
G01X18278900Y-12320328D01*
G01X18234450Y-12320328D01*
G01X18207780Y-12329218D01*
G01X18190000Y-12338108D01*
G01X18172220Y-12355888D01*
G01X18163330Y-12373668D01*
G01X18163330Y-12409228D01*
G01X18172220Y-12427008D01*
G01X18190000Y-12444788D01*
G01X18207780Y-12453678D01*
G01X18234450Y-12462568D01*
G01X18278900Y-12462568D01*
G01X18305570Y-12453678D01*
G01X18323350Y-12444788D01*
G01X18341130Y-12427008D01*
G01X18350020Y-12409228D01*
G01X18350020Y-12373668D01*
G01X18350020Y-12831376D02*
G01X18350020Y-12742476D01*
G01X18270010Y-12733586D01*
G01X18278900Y-12742476D01*
G01X18287790Y-12769146D01*
G01X18287790Y-12795816D01*
G01X18278900Y-12822486D01*
G01X18261120Y-12840266D01*
G01X18234450Y-12849156D01*
G01X18216670Y-12849156D01*
G01X18190000Y-12840266D01*
G01X18172220Y-12822486D01*
G01X18163330Y-12795816D01*
G01X18163330Y-12769146D01*
G01X18172220Y-12742476D01*
G01X18181110Y-12733586D01*
G01X18198890Y-12724696D01*
G01X17988070Y-12006892D02*
G01X18005850Y-11998002D01*
G01X18023630Y-11980222D01*
G01X18032520Y-11962442D01*
G01X18032520Y-11926882D01*
G01X18023630Y-11909102D01*
G01X18005850Y-11891322D01*
G01X17988070Y-11882432D01*
G01X17961400Y-11873542D01*
G01X17916950Y-11873542D01*
G01X17890280Y-11882432D01*
G01X17872500Y-11891322D01*
G01X17854720Y-11909102D01*
G01X17845830Y-11926882D01*
G01X17845830Y-11962442D01*
G01X17854720Y-11980222D01*
G01X17872500Y-11998002D01*
G01X17890280Y-12006892D01*
G01X17916950Y-12006892D01*
G01X17916950Y-11962442D02*
G01X17916950Y-12006892D01*
G01X18032520Y-12069884D02*
G01X17845830Y-12069884D01*
G01X18032520Y-12069884D02*
G01X18032520Y-12149894D01*
G01X18023630Y-12176564D01*
G01X18014740Y-12185454D01*
G01X17996960Y-12194344D01*
G01X17970290Y-12194344D01*
G01X17952510Y-12185454D01*
G01X17943620Y-12176564D01*
G01X17934730Y-12149894D01*
G01X17934730Y-12069884D01*
G01X18032520Y-12257336D02*
G01X17845830Y-12257336D01*
G01X18032520Y-12373668D02*
G01X18023630Y-12355888D01*
G01X18005850Y-12338108D01*
G01X17988070Y-12329218D01*
G01X17961400Y-12320328D01*
G01X17916950Y-12320328D01*
G01X17890280Y-12329218D01*
G01X17872500Y-12338108D01*
G01X17854720Y-12355888D01*
G01X17845830Y-12373668D01*
G01X17845830Y-12409228D01*
G01X17854720Y-12427008D01*
G01X17872500Y-12444788D01*
G01X17890280Y-12453678D01*
G01X17916950Y-12462568D01*
G01X17961400Y-12462568D01*
G01X17988070Y-12453678D01*
G01X18005850Y-12444788D01*
G01X18023630Y-12427008D01*
G01X18032520Y-12409228D01*
G01X18032520Y-12373668D01*
G01X17996960Y-12724696D02*
G01X18005850Y-12742476D01*
G01X18032520Y-12769146D01*
G01X17845830Y-12769146D01*
G01X18032520Y-12885478D02*
G01X18023630Y-12858808D01*
G01X17996960Y-12841028D01*
G01X17952510Y-12832138D01*
G01X17925840Y-12832138D01*
G01X17881390Y-12841028D01*
G01X17854720Y-12858808D01*
G01X17845830Y-12885478D01*
G01X17845830Y-12903258D01*
G01X17854720Y-12929928D01*
G01X17881390Y-12947708D01*
G01X17925840Y-12956598D01*
G01X17952510Y-12956598D01*
G01X17996960Y-12947708D01*
G01X18023630Y-12929928D01*
G01X18032520Y-12903258D01*
G01X18032520Y-12885478D01*
G01X17683270Y-12006892D02*
G01X17701050Y-11998002D01*
G01X17718830Y-11980222D01*
G01X17727720Y-11962442D01*
G01X17727720Y-11926882D01*
G01X17718830Y-11909102D01*
G01X17701050Y-11891322D01*
G01X17683270Y-11882432D01*
G01X17656600Y-11873542D01*
G01X17612150Y-11873542D01*
G01X17585480Y-11882432D01*
G01X17567700Y-11891322D01*
G01X17549920Y-11909102D01*
G01X17541030Y-11926882D01*
G01X17541030Y-11962442D01*
G01X17549920Y-11980222D01*
G01X17567700Y-11998002D01*
G01X17585480Y-12006892D01*
G01X17612150Y-12006892D01*
G01X17612150Y-11962442D02*
G01X17612150Y-12006892D01*
G01X17727720Y-12069884D02*
G01X17541030Y-12069884D01*
G01X17727720Y-12069884D02*
G01X17727720Y-12149894D01*
G01X17718830Y-12176564D01*
G01X17709940Y-12185454D01*
G01X17692160Y-12194344D01*
G01X17665490Y-12194344D01*
G01X17647710Y-12185454D01*
G01X17638820Y-12176564D01*
G01X17629930Y-12149894D01*
G01X17629930Y-12069884D01*
G01X17727720Y-12257336D02*
G01X17541030Y-12257336D01*
G01X17727720Y-12373668D02*
G01X17718830Y-12355888D01*
G01X17701050Y-12338108D01*
G01X17683270Y-12329218D01*
G01X17656600Y-12320328D01*
G01X17612150Y-12320328D01*
G01X17585480Y-12329218D01*
G01X17567700Y-12338108D01*
G01X17549920Y-12355888D01*
G01X17541030Y-12373668D01*
G01X17541030Y-12409228D01*
G01X17549920Y-12427008D01*
G01X17567700Y-12444788D01*
G01X17585480Y-12453678D01*
G01X17612150Y-12462568D01*
G01X17656600Y-12462568D01*
G01X17683270Y-12453678D01*
G01X17701050Y-12444788D01*
G01X17718830Y-12427008D01*
G01X17727720Y-12409228D01*
G01X17727720Y-12373668D01*
G01X17692160Y-12724696D02*
G01X17701050Y-12742476D01*
G01X17727720Y-12769146D01*
G01X17541030Y-12769146D01*
G01X17692160Y-12832138D02*
G01X17701050Y-12849918D01*
G01X17727720Y-12876588D01*
G01X17541030Y-12876588D01*
G01X27904694Y-11485880D02*
G01X27922474Y-11476990D01*
G01X27949144Y-11450320D01*
G01X27949144Y-11637010D01*
G01X28065476Y-11450320D02*
G01X28038806Y-11459210D01*
G01X28021026Y-11485880D01*
G01X28012136Y-11530330D01*
G01X28012136Y-11557000D01*
G01X28021026Y-11601450D01*
G01X28038806Y-11628120D01*
G01X28065476Y-11637010D01*
G01X28083256Y-11637010D01*
G01X28109926Y-11628120D01*
G01X28127706Y-11601450D01*
G01X28136596Y-11557000D01*
G01X28136596Y-11530330D01*
G01X28127706Y-11485880D01*
G01X28109926Y-11459210D01*
G01X28083256Y-11450320D01*
G01X28065476Y-11450320D01*
G01X28199588Y-11450320D02*
G01X28199588Y-11637010D01*
G01X28324048Y-11450320D02*
G01X28199588Y-11574780D01*
G01X28244038Y-11530330D02*
G01X28324048Y-11637010D01*
G01X28387040Y-11637010D02*
G01X28449270Y-11637010D01*
G01X28431490Y-11610340D01*
G01X28413710Y-11583670D01*
G01X28404820Y-11557000D01*
G01X28404820Y-11530330D01*
G01X28413710Y-11503660D01*
G01X28422600Y-11485880D01*
G01X28440380Y-11468100D01*
G01X28458160Y-11459210D01*
G01X28493720Y-11459210D01*
G01X28511500Y-11468100D01*
G01X28529280Y-11485880D01*
G01X28538170Y-11503660D01*
G01X28547060Y-11530330D01*
G01X28547060Y-11557000D01*
G01X28538170Y-11583670D01*
G01X28520390Y-11610340D01*
G01X28502610Y-11637010D01*
G01X28564840Y-11637010D01*
G01X18931280Y-22429145D02*
G01X18922390Y-22411365D01*
G01X18895720Y-22384695D01*
G01X19082410Y-22384695D01*
G01X18895720Y-22268363D02*
G01X18904610Y-22295033D01*
G01X18931280Y-22312813D01*
G01X18975730Y-22321703D01*
G01X19002400Y-22321703D01*
G01X19046850Y-22312813D01*
G01X19073520Y-22295033D01*
G01X19082410Y-22268363D01*
G01X19082410Y-22250583D01*
G01X19073520Y-22223913D01*
G01X19046850Y-22206133D01*
G01X19002400Y-22197243D01*
G01X18975730Y-22197243D01*
G01X18931280Y-22206133D01*
G01X18904610Y-22223913D01*
G01X18895720Y-22250583D01*
G01X18895720Y-22268363D01*
G01X19082410Y-22134251D02*
G01X19082410Y-22072021D01*
G01X19055740Y-22089801D01*
G01X19029070Y-22107581D01*
G01X19002400Y-22116471D01*
G01X18975730Y-22116471D01*
G01X18949060Y-22107581D01*
G01X18931280Y-22098691D01*
G01X18913500Y-22080911D01*
G01X18904610Y-22063131D01*
G01X18904610Y-22027571D01*
G01X18913500Y-22009791D01*
G01X18931280Y-21992011D01*
G01X18949060Y-21983121D01*
G01X18975730Y-21974231D01*
G01X19002400Y-21974231D01*
G01X19029070Y-21983121D01*
G01X19055740Y-22000901D01*
G01X19082410Y-22018681D01*
G01X19082410Y-21956451D01*
G01X17663282Y-23007415D02*
G01X17654392Y-22989635D01*
G01X17627722Y-22962965D01*
G01X17814412Y-22962965D01*
G01X17627722Y-22846633D02*
G01X17636612Y-22873303D01*
G01X17663282Y-22891083D01*
G01X17707732Y-22899973D01*
G01X17734402Y-22899973D01*
G01X17778852Y-22891083D01*
G01X17805522Y-22873303D01*
G01X17814412Y-22846633D01*
G01X17814412Y-22828853D01*
G01X17805522Y-22802183D01*
G01X17778852Y-22784403D01*
G01X17734402Y-22775513D01*
G01X17707732Y-22775513D01*
G01X17663282Y-22784403D01*
G01X17636612Y-22802183D01*
G01X17627722Y-22828853D01*
G01X17627722Y-22846633D01*
G01X17627722Y-22712521D02*
G01X17814412Y-22712521D01*
G01X17627722Y-22588061D02*
G01X17752182Y-22712521D01*
G01X17707732Y-22668071D02*
G01X17814412Y-22588061D01*
G01X17814412Y-22525069D02*
G01X17814412Y-22462839D01*
G01X17787742Y-22480619D01*
G01X17761072Y-22498399D01*
G01X17734402Y-22507289D01*
G01X17707732Y-22507289D01*
G01X17681062Y-22498399D01*
G01X17663282Y-22489509D01*
G01X17645502Y-22471729D01*
G01X17636612Y-22453949D01*
G01X17636612Y-22418389D01*
G01X17645502Y-22400609D01*
G01X17663282Y-22382829D01*
G01X17681062Y-22373939D01*
G01X17707732Y-22365049D01*
G01X17734402Y-22365049D01*
G01X17761072Y-22373939D01*
G01X17787742Y-22391719D01*
G01X17814412Y-22409499D01*
G01X17814412Y-22347269D01*
G01X13840460Y-20134580D02*
G01X13858240Y-20125690D01*
G01X13884910Y-20099020D01*
G01X13884910Y-20285710D01*
G01X13956792Y-20241260D02*
G01X13947902Y-20250150D01*
G01X13956792Y-20259040D01*
G01X13965682Y-20250150D01*
G01X13956792Y-20241260D01*
G01X14073124Y-20099020D02*
G01X14046454Y-20107910D01*
G01X14037564Y-20125690D01*
G01X14037564Y-20143470D01*
G01X14046454Y-20161250D01*
G01X14064234Y-20170140D01*
G01X14099794Y-20179030D01*
G01X14126464Y-20187920D01*
G01X14144244Y-20205700D01*
G01X14153134Y-20223480D01*
G01X14153134Y-20250150D01*
G01X14144244Y-20267930D01*
G01X14135354Y-20276820D01*
G01X14108684Y-20285710D01*
G01X14073124Y-20285710D01*
G01X14046454Y-20276820D01*
G01X14037564Y-20267930D01*
G01X14028674Y-20250150D01*
G01X14028674Y-20223480D01*
G01X14037564Y-20205700D01*
G01X14055344Y-20187920D01*
G01X14082014Y-20179030D01*
G01X14117574Y-20170140D01*
G01X14135354Y-20161250D01*
G01X14144244Y-20143470D01*
G01X14144244Y-20125690D01*
G01X14135354Y-20107910D01*
G01X14108684Y-20099020D01*
G01X14073124Y-20099020D01*
G01X14216126Y-20099020D02*
G01X14216126Y-20285710D01*
G01X14340586Y-20099020D02*
G01X14216126Y-20223480D01*
G01X14260576Y-20179030D02*
G01X14340586Y-20285710D01*
G01X14403578Y-20285710D02*
G01X14465808Y-20285710D01*
G01X14448028Y-20259040D01*
G01X14430248Y-20232370D01*
G01X14421358Y-20205700D01*
G01X14421358Y-20179030D01*
G01X14430248Y-20152360D01*
G01X14439138Y-20134580D01*
G01X14456918Y-20116800D01*
G01X14474698Y-20107910D01*
G01X14510258Y-20107910D01*
G01X14528038Y-20116800D01*
G01X14545818Y-20134580D01*
G01X14554708Y-20152360D01*
G01X14563598Y-20179030D01*
G01X14563598Y-20205700D01*
G01X14554708Y-20232370D01*
G01X14536928Y-20259040D01*
G01X14519148Y-20285710D01*
G01X14581378Y-20285710D01*
G01X20467218Y-21820441D02*
G01X20476108Y-21838221D01*
G01X20502778Y-21864891D01*
G01X20316088Y-21864891D01*
G01X20360538Y-21936773D02*
G01X20351648Y-21927883D01*
G01X20342758Y-21936773D01*
G01X20351648Y-21945663D01*
G01X20360538Y-21936773D01*
G01X20502778Y-22053105D02*
G01X20493888Y-22026435D01*
G01X20476108Y-22017545D01*
G01X20458328Y-22017545D01*
G01X20440548Y-22026435D01*
G01X20431658Y-22044215D01*
G01X20422768Y-22079775D01*
G01X20413878Y-22106445D01*
G01X20396098Y-22124225D01*
G01X20378318Y-22133115D01*
G01X20351648Y-22133115D01*
G01X20333868Y-22124225D01*
G01X20324978Y-22115335D01*
G01X20316088Y-22088665D01*
G01X20316088Y-22053105D01*
G01X20324978Y-22026435D01*
G01X20333868Y-22017545D01*
G01X20351648Y-22008655D01*
G01X20378318Y-22008655D01*
G01X20396098Y-22017545D01*
G01X20413878Y-22035325D01*
G01X20422768Y-22061995D01*
G01X20431658Y-22097555D01*
G01X20440548Y-22115335D01*
G01X20458328Y-22124225D01*
G01X20476108Y-22124225D01*
G01X20493888Y-22115335D01*
G01X20502778Y-22088665D01*
G01X20502778Y-22053105D01*
G01X20502778Y-22196107D02*
G01X20316088Y-22196107D01*
G01X20502778Y-22320567D02*
G01X20378318Y-22196107D01*
G01X20422768Y-22240557D02*
G01X20316088Y-22320567D01*
G01X20316088Y-22383559D02*
G01X20316088Y-22445789D01*
G01X20342758Y-22428009D01*
G01X20369428Y-22410229D01*
G01X20396098Y-22401339D01*
G01X20422768Y-22401339D01*
G01X20449438Y-22410229D01*
G01X20467218Y-22419119D01*
G01X20484998Y-22436899D01*
G01X20493888Y-22454679D01*
G01X20493888Y-22490239D01*
G01X20484998Y-22508019D01*
G01X20467218Y-22525799D01*
G01X20449438Y-22534689D01*
G01X20422768Y-22543579D01*
G01X20396098Y-22543579D01*
G01X20369428Y-22534689D01*
G01X20342758Y-22516909D01*
G01X20316088Y-22499129D01*
G01X20316088Y-22561359D01*
G01X15060879Y-21884009D02*
G01X14874189Y-21884009D01*
G01X15060879Y-21884009D02*
G01X15060879Y-21999579D01*
G01X14971979Y-21884009D02*
G01X14971979Y-21955129D01*
G01X14998649Y-22062571D02*
G01X14909749Y-22062571D01*
G01X14883079Y-22071461D01*
G01X14874189Y-22089241D01*
G01X14874189Y-22115911D01*
G01X14883079Y-22133691D01*
G01X14909749Y-22160361D01*
G01X14998649Y-22160361D02*
G01X14874189Y-22160361D01*
G01X14971979Y-22321143D02*
G01X14989759Y-22312253D01*
G01X14998649Y-22285583D01*
G01X14998649Y-22258913D01*
G01X14989759Y-22232243D01*
G01X14971979Y-22223353D01*
G01X14954199Y-22232243D01*
G01X14945309Y-22250023D01*
G01X14936419Y-22294473D01*
G01X14927529Y-22312253D01*
G01X14909749Y-22321143D01*
G01X14900859Y-22321143D01*
G01X14883079Y-22312253D01*
G01X14874189Y-22285583D01*
G01X14874189Y-22258913D01*
G01X14883079Y-22232243D01*
G01X14900859Y-22223353D01*
G01X14945309Y-22384135D02*
G01X14945309Y-22490815D01*
G01X14963089Y-22490815D01*
G01X14980869Y-22481925D01*
G01X14989759Y-22473035D01*
G01X14998649Y-22455255D01*
G01X14998649Y-22428585D01*
G01X14989759Y-22410805D01*
G01X14971979Y-22393025D01*
G01X14945309Y-22384135D01*
G01X14927529Y-22384135D01*
G01X14900859Y-22393025D01*
G01X14883079Y-22410805D01*
G01X14874189Y-22428585D01*
G01X14874189Y-22455255D01*
G01X14883079Y-22473035D01*
G01X14900859Y-22490815D01*
G01X14971979Y-22651597D02*
G01X14989759Y-22642707D01*
G01X14998649Y-22616037D01*
G01X14998649Y-22589367D01*
G01X14989759Y-22562697D01*
G01X14971979Y-22553807D01*
G01X14954199Y-22562697D01*
G01X14945309Y-22580477D01*
G01X14936419Y-22624927D01*
G01X14927529Y-22642707D01*
G01X14909749Y-22651597D01*
G01X14900859Y-22651597D01*
G01X14883079Y-22642707D01*
G01X14874189Y-22616037D01*
G01X14874189Y-22589367D01*
G01X14883079Y-22562697D01*
G01X14900859Y-22553807D01*
G01X27592020Y-21643340D02*
G01X27778710Y-21643340D01*
G01X27592020Y-21643340D02*
G01X27592020Y-21527770D01*
G01X27680920Y-21643340D02*
G01X27680920Y-21572220D01*
G01X27654250Y-21464778D02*
G01X27743150Y-21464778D01*
G01X27769820Y-21455888D01*
G01X27778710Y-21438108D01*
G01X27778710Y-21411438D01*
G01X27769820Y-21393658D01*
G01X27743150Y-21366988D01*
G01X27654250Y-21366988D02*
G01X27778710Y-21366988D01*
G01X27680920Y-21206206D02*
G01X27663140Y-21215096D01*
G01X27654250Y-21241766D01*
G01X27654250Y-21268436D01*
G01X27663140Y-21295106D01*
G01X27680920Y-21303996D01*
G01X27698700Y-21295106D01*
G01X27707590Y-21277326D01*
G01X27716480Y-21232876D01*
G01X27725370Y-21215096D01*
G01X27743150Y-21206206D01*
G01X27752040Y-21206206D01*
G01X27769820Y-21215096D01*
G01X27778710Y-21241766D01*
G01X27778710Y-21268436D01*
G01X27769820Y-21295106D01*
G01X27752040Y-21303996D01*
G01X27707590Y-21143214D02*
G01X27707590Y-21036534D01*
G01X27689810Y-21036534D01*
G01X27672030Y-21045424D01*
G01X27663140Y-21054314D01*
G01X27654250Y-21072094D01*
G01X27654250Y-21098764D01*
G01X27663140Y-21116544D01*
G01X27680920Y-21134324D01*
G01X27707590Y-21143214D01*
G01X27725370Y-21143214D01*
G01X27752040Y-21134324D01*
G01X27769820Y-21116544D01*
G01X27778710Y-21098764D01*
G01X27778710Y-21072094D01*
G01X27769820Y-21054314D01*
G01X27752040Y-21036534D01*
G01X27680920Y-20875752D02*
G01X27663140Y-20884642D01*
G01X27654250Y-20911312D01*
G01X27654250Y-20937982D01*
G01X27663140Y-20964652D01*
G01X27680920Y-20973542D01*
G01X27698700Y-20964652D01*
G01X27707590Y-20946872D01*
G01X27716480Y-20902422D01*
G01X27725370Y-20884642D01*
G01X27743150Y-20875752D01*
G01X27752040Y-20875752D01*
G01X27769820Y-20884642D01*
G01X27778710Y-20911312D01*
G01X27778710Y-20937982D01*
G01X27769820Y-20964652D01*
G01X27752040Y-20973542D01*
G01X26449020Y-21142960D02*
G01X26457910Y-21160740D01*
G01X26484580Y-21187410D01*
G01X26297890Y-21187410D01*
G01X26484580Y-21303742D02*
G01X26475690Y-21277072D01*
G01X26449020Y-21259292D01*
G01X26404570Y-21250402D01*
G01X26377900Y-21250402D01*
G01X26333450Y-21259292D01*
G01X26306780Y-21277072D01*
G01X26297890Y-21303742D01*
G01X26297890Y-21321522D01*
G01X26306780Y-21348192D01*
G01X26333450Y-21365972D01*
G01X26377900Y-21374862D01*
G01X26404570Y-21374862D01*
G01X26449020Y-21365972D01*
G01X26475690Y-21348192D01*
G01X26484580Y-21321522D01*
G01X26484580Y-21303742D01*
G01X26484580Y-21491194D02*
G01X26475690Y-21464524D01*
G01X26449020Y-21446744D01*
G01X26404570Y-21437854D01*
G01X26377900Y-21437854D01*
G01X26333450Y-21446744D01*
G01X26306780Y-21464524D01*
G01X26297890Y-21491194D01*
G01X26297890Y-21508974D01*
G01X26306780Y-21535644D01*
G01X26333450Y-21553424D01*
G01X26377900Y-21562314D01*
G01X26404570Y-21562314D01*
G01X26449020Y-21553424D01*
G01X26475690Y-21535644D01*
G01X26484580Y-21508974D01*
G01X26484580Y-21491194D01*
G01X26422350Y-21625306D02*
G01X26333450Y-21625306D01*
G01X26306780Y-21634196D01*
G01X26297890Y-21651976D01*
G01X26297890Y-21678646D01*
G01X26306780Y-21696426D01*
G01X26333450Y-21723096D01*
G01X26422350Y-21723096D02*
G01X26297890Y-21723096D01*
G01X26484580Y-21786088D02*
G01X26297890Y-21786088D01*
G01X26484580Y-21786088D02*
G01X26484580Y-21901658D01*
G01X26395680Y-21786088D02*
G01X26395680Y-21857208D01*
G01X26471880Y-17960340D02*
G01X26462990Y-17942560D01*
G01X26436320Y-17915890D01*
G01X26623010Y-17915890D01*
G01X26436320Y-17799558D02*
G01X26445210Y-17826228D01*
G01X26471880Y-17844008D01*
G01X26516330Y-17852898D01*
G01X26543000Y-17852898D01*
G01X26587450Y-17844008D01*
G01X26614120Y-17826228D01*
G01X26623010Y-17799558D01*
G01X26623010Y-17781778D01*
G01X26614120Y-17755108D01*
G01X26587450Y-17737328D01*
G01X26543000Y-17728438D01*
G01X26516330Y-17728438D01*
G01X26471880Y-17737328D01*
G01X26445210Y-17755108D01*
G01X26436320Y-17781778D01*
G01X26436320Y-17799558D01*
G01X26436320Y-17612106D02*
G01X26445210Y-17638776D01*
G01X26471880Y-17656556D01*
G01X26516330Y-17665446D01*
G01X26543000Y-17665446D01*
G01X26587450Y-17656556D01*
G01X26614120Y-17638776D01*
G01X26623010Y-17612106D01*
G01X26623010Y-17594326D01*
G01X26614120Y-17567656D01*
G01X26587450Y-17549876D01*
G01X26543000Y-17540986D01*
G01X26516330Y-17540986D01*
G01X26471880Y-17549876D01*
G01X26445210Y-17567656D01*
G01X26436320Y-17594326D01*
G01X26436320Y-17612106D01*
G01X26498550Y-17477994D02*
G01X26587450Y-17477994D01*
G01X26614120Y-17469104D01*
G01X26623010Y-17451324D01*
G01X26623010Y-17424654D01*
G01X26614120Y-17406874D01*
G01X26587450Y-17380204D01*
G01X26498550Y-17380204D02*
G01X26623010Y-17380204D01*
G01X26436320Y-17317212D02*
G01X26623010Y-17317212D01*
G01X26436320Y-17317212D02*
G01X26436320Y-17201642D01*
G01X26525220Y-17317212D02*
G01X26525220Y-17246092D01*
G01X13663676Y-15374620D02*
G01X13574776Y-15374620D01*
G01X13565886Y-15454630D01*
G01X13574776Y-15445740D01*
G01X13601446Y-15436850D01*
G01X13628116Y-15436850D01*
G01X13654786Y-15445740D01*
G01X13672566Y-15463520D01*
G01X13681456Y-15490190D01*
G01X13681456Y-15507970D01*
G01X13672566Y-15534640D01*
G01X13654786Y-15552420D01*
G01X13628116Y-15561310D01*
G01X13601446Y-15561310D01*
G01X13574776Y-15552420D01*
G01X13565886Y-15543530D01*
G01X13556996Y-15525750D01*
G01X13744448Y-15374620D02*
G01X13815568Y-15561310D01*
G01X13886688Y-15374620D02*
G01X13815568Y-15561310D01*
G01X13579856Y-15693390D02*
G01X13562076Y-15675610D01*
G01X13535406Y-15666720D01*
G01X13499846Y-15666720D01*
G01X13473176Y-15675610D01*
G01X13455396Y-15693390D01*
G01X13455396Y-15711170D01*
G01X13464286Y-15728950D01*
G01X13473176Y-15737840D01*
G01X13490956Y-15746730D01*
G01X13544296Y-15764510D01*
G01X13562076Y-15773400D01*
G01X13570966Y-15782290D01*
G01X13579856Y-15800070D01*
G01X13579856Y-15826740D01*
G01X13562076Y-15844520D01*
G01X13535406Y-15853410D01*
G01X13499846Y-15853410D01*
G01X13473176Y-15844520D01*
G01X13455396Y-15826740D01*
G01X13642848Y-15666720D02*
G01X13642848Y-15853410D01*
G01X13642848Y-15666720D02*
G01X13705078Y-15666720D01*
G01X13731748Y-15675610D01*
G01X13749528Y-15693390D01*
G01X13758418Y-15711170D01*
G01X13767308Y-15737840D01*
G01X13767308Y-15782290D01*
G01X13758418Y-15808960D01*
G01X13749528Y-15826740D01*
G01X13731748Y-15844520D01*
G01X13705078Y-15853410D01*
G01X13642848Y-15853410D01*
G01X13901420Y-15666720D02*
G01X13830300Y-15853410D01*
G01X13901420Y-15666720D02*
G01X13972540Y-15853410D01*
G01X13856970Y-15791180D02*
G01X13945870Y-15791180D01*
G01X13577824Y-15998190D02*
G01X13560044Y-15980410D01*
G01X13533374Y-15971520D01*
G01X13497814Y-15971520D01*
G01X13471144Y-15980410D01*
G01X13453364Y-15998190D01*
G01X13453364Y-16015970D01*
G01X13462254Y-16033750D01*
G01X13471144Y-16042640D01*
G01X13488924Y-16051530D01*
G01X13542264Y-16069310D01*
G01X13560044Y-16078200D01*
G01X13568934Y-16087090D01*
G01X13577824Y-16104870D01*
G01X13577824Y-16131540D01*
G01X13560044Y-16149320D01*
G01X13533374Y-16158210D01*
G01X13497814Y-16158210D01*
G01X13471144Y-16149320D01*
G01X13453364Y-16131540D01*
G01X13774166Y-16015970D02*
G01X13765276Y-15998190D01*
G01X13747496Y-15980410D01*
G01X13729716Y-15971520D01*
G01X13694156Y-15971520D01*
G01X13676376Y-15980410D01*
G01X13658596Y-15998190D01*
G01X13649706Y-16015970D01*
G01X13640816Y-16042640D01*
G01X13640816Y-16087090D01*
G01X13649706Y-16113760D01*
G01X13658596Y-16131540D01*
G01X13676376Y-16149320D01*
G01X13694156Y-16158210D01*
G01X13729716Y-16158210D01*
G01X13747496Y-16149320D01*
G01X13765276Y-16131540D01*
G01X13774166Y-16113760D01*
G01X13837158Y-15971520D02*
G01X13837158Y-16158210D01*
G01X13837158Y-16158210D02*
G01X13943838Y-16158210D01*
G01X13563346Y-15114270D02*
G01X13554456Y-15096490D01*
G01X13536676Y-15078710D01*
G01X13518896Y-15069820D01*
G01X13483336Y-15069820D01*
G01X13465556Y-15078710D01*
G01X13447776Y-15096490D01*
G01X13438886Y-15114270D01*
G01X13429996Y-15140940D01*
G01X13429996Y-15185390D01*
G01X13438886Y-15212060D01*
G01X13447776Y-15229840D01*
G01X13465556Y-15247620D01*
G01X13483336Y-15256510D01*
G01X13518896Y-15256510D01*
G01X13536676Y-15247620D01*
G01X13554456Y-15229840D01*
G01X13563346Y-15212060D01*
G01X13563346Y-15185390D01*
G01X13518896Y-15185390D02*
G01X13563346Y-15185390D01*
G01X13626338Y-15069820D02*
G01X13626338Y-15256510D01*
G01X13626338Y-15069820D02*
G01X13750798Y-15256510D01*
G01X13750798Y-15069820D02*
G01X13750798Y-15256510D01*
G01X13813790Y-15069820D02*
G01X13813790Y-15256510D01*
G01X13813790Y-15069820D02*
G01X13876020Y-15069820D01*
G01X13902690Y-15078710D01*
G01X13920470Y-15096490D01*
G01X13929360Y-15114270D01*
G01X13938250Y-15140940D01*
G01X13938250Y-15185390D01*
G01X13929360Y-15212060D01*
G01X13920470Y-15229840D01*
G01X13902690Y-15247620D01*
G01X13876020Y-15256510D01*
G01X13813790Y-15256510D01*
G54D11*
G01X22184360Y-14556232D02*
G01X22184360Y-14870938D01*
G01X22184360Y-14556232D02*
G01X22379178Y-14556232D01*
G01X22184360Y-14706092D02*
G01X22304248Y-14706092D01*
G01X22184360Y-14870938D02*
G01X22379178Y-14870938D01*
G01X22681184Y-14601190D02*
G01X22651212Y-14571218D01*
G01X22606254Y-14556232D01*
G01X22546310Y-14556232D01*
G01X22501352Y-14571218D01*
G01X22471380Y-14601190D01*
G01X22471380Y-14631162D01*
G01X22486366Y-14661134D01*
G01X22501352Y-14676120D01*
G01X22531324Y-14691106D01*
G01X22621240Y-14721078D01*
G01X22651212Y-14736064D01*
G01X22666198Y-14751050D01*
G01X22681184Y-14781022D01*
G01X22681184Y-14825980D01*
G01X22651212Y-14855952D01*
G01X22606254Y-14870938D01*
G01X22546310Y-14870938D01*
G01X22501352Y-14855952D01*
G01X22471380Y-14825980D01*
G01X22773386Y-14556232D02*
G01X22773386Y-14870938D01*
G01X22773386Y-14556232D02*
G01X22908260Y-14556232D01*
G01X22953218Y-14571218D01*
G01X22968204Y-14586204D01*
G01X22983190Y-14616176D01*
G01X22983190Y-14661134D01*
G01X22968204Y-14691106D01*
G01X22953218Y-14706092D01*
G01X22908260Y-14721078D01*
G01X22773386Y-14721078D01*
G01X23105364Y-14556232D02*
G01X23270210Y-14556232D01*
G01X23180294Y-14676120D01*
G01X23225252Y-14676120D01*
G01X23255224Y-14691106D01*
G01X23270210Y-14706092D01*
G01X23285196Y-14751050D01*
G01X23285196Y-14781022D01*
G01X23270210Y-14825980D01*
G01X23240238Y-14855952D01*
G01X23195280Y-14870938D01*
G01X23150322Y-14870938D01*
G01X23105364Y-14855952D01*
G01X23090378Y-14840966D01*
G01X23075392Y-14810994D01*
G01X23392384Y-14631162D02*
G01X23392384Y-14616176D01*
G01X23407370Y-14586204D01*
G01X23422356Y-14571218D01*
G01X23452328Y-14556232D01*
G01X23512272Y-14556232D01*
G01X23542244Y-14571218D01*
G01X23557230Y-14586204D01*
G01X23572216Y-14616176D01*
G01X23572216Y-14646148D01*
G01X23557230Y-14676120D01*
G01X23527258Y-14721078D01*
G01X23377398Y-14870938D01*
G01X23587202Y-14870938D01*
G01X23904194Y-14631162D02*
G01X23889208Y-14601190D01*
G01X23859236Y-14571218D01*
G01X23829264Y-14556232D01*
G01X23769320Y-14556232D01*
G01X23739348Y-14571218D01*
G01X23709376Y-14601190D01*
G01X23694390Y-14631162D01*
G01X23679404Y-14676120D01*
G01X23679404Y-14751050D01*
G01X23694390Y-14796008D01*
G01X23709376Y-14825980D01*
G01X23739348Y-14855952D01*
G01X23769320Y-14870938D01*
G01X23829264Y-14870938D01*
G01X23859236Y-14855952D01*
G01X23889208Y-14825980D01*
G01X23904194Y-14796008D01*
G01X24176228Y-14601190D02*
G01X24161242Y-14571218D01*
G01X24116284Y-14556232D01*
G01X24086312Y-14556232D01*
G01X24041354Y-14571218D01*
G01X24011382Y-14616176D01*
G01X23996396Y-14691106D01*
G01X23996396Y-14766036D01*
G01X24011382Y-14825980D01*
G01X24041354Y-14855952D01*
G01X24086312Y-14870938D01*
G01X24101298Y-14870938D01*
G01X24146256Y-14855952D01*
G01X24176228Y-14825980D01*
G01X24191214Y-14781022D01*
G01X24191214Y-14766036D01*
G01X24176228Y-14721078D01*
G01X24146256Y-14691106D01*
G01X24101298Y-14676120D01*
G01X24086312Y-14676120D01*
G01X24041354Y-14691106D01*
G01X24011382Y-14721078D01*
G01X23996396Y-14766036D01*
G01X14475460Y-17121632D02*
G01X14475460Y-17436338D01*
G01X14685264Y-17121632D02*
G01X14685264Y-17436338D01*
G01X14475460Y-17271492D02*
G01X14685264Y-17271492D01*
G01X14777466Y-17316450D02*
G01X14957298Y-17316450D01*
G01X14957298Y-17286478D01*
G01X14942312Y-17256506D01*
G01X14927326Y-17241520D01*
G01X14897354Y-17226534D01*
G01X14852396Y-17226534D01*
G01X14822424Y-17241520D01*
G01X14792452Y-17271492D01*
G01X14777466Y-17316450D01*
G01X14777466Y-17346422D01*
G01X14792452Y-17391380D01*
G01X14822424Y-17421352D01*
G01X14852396Y-17436338D01*
G01X14897354Y-17436338D01*
G01X14927326Y-17421352D01*
G01X14957298Y-17391380D01*
G01X15229332Y-17226534D02*
G01X15229332Y-17436338D01*
G01X15229332Y-17271492D02*
G01X15199360Y-17241520D01*
G01X15169388Y-17226534D01*
G01X15124430Y-17226534D01*
G01X15094458Y-17241520D01*
G01X15064486Y-17271492D01*
G01X15049500Y-17316450D01*
G01X15049500Y-17346422D01*
G01X15064486Y-17391380D01*
G01X15094458Y-17421352D01*
G01X15124430Y-17436338D01*
G01X15169388Y-17436338D01*
G01X15199360Y-17421352D01*
G01X15229332Y-17391380D01*
G01X15366492Y-17121632D02*
G01X15366492Y-17376394D01*
G01X15381478Y-17421352D01*
G01X15411450Y-17436338D01*
G01X15441422Y-17436338D01*
G01X15321534Y-17226534D02*
G01X15426436Y-17226534D01*
G01X15533624Y-17316450D02*
G01X15713456Y-17316450D01*
G01X15713456Y-17286478D01*
G01X15698470Y-17256506D01*
G01X15683484Y-17241520D01*
G01X15653512Y-17226534D01*
G01X15608554Y-17226534D01*
G01X15578582Y-17241520D01*
G01X15548610Y-17271492D01*
G01X15533624Y-17316450D01*
G01X15533624Y-17346422D01*
G01X15548610Y-17391380D01*
G01X15578582Y-17421352D01*
G01X15608554Y-17436338D01*
G01X15653512Y-17436338D01*
G01X15683484Y-17421352D01*
G01X15713456Y-17391380D01*
G01X15805658Y-17226534D02*
G01X15805658Y-17436338D01*
G01X15805658Y-17316450D02*
G01X15820644Y-17271492D01*
G01X15850616Y-17241520D01*
G01X15880588Y-17226534D01*
G01X15925546Y-17226534D01*
G54D10*
G01X13119862Y-10428732D02*
G01X13119862Y-10743438D01*
G01X13014960Y-10428732D02*
G01X13224764Y-10428732D01*
G01X13316966Y-10623550D02*
G01X13496798Y-10623550D01*
G01X13496798Y-10593578D01*
G01X13481812Y-10563606D01*
G01X13466826Y-10548620D01*
G01X13436854Y-10533634D01*
G01X13391896Y-10533634D01*
G01X13361924Y-10548620D01*
G01X13331952Y-10578592D01*
G01X13316966Y-10623550D01*
G01X13316966Y-10653522D01*
G01X13331952Y-10698480D01*
G01X13361924Y-10728452D01*
G01X13391896Y-10743438D01*
G01X13436854Y-10743438D01*
G01X13466826Y-10728452D01*
G01X13496798Y-10698480D01*
G01X13589000Y-10533634D02*
G01X13589000Y-10743438D01*
G01X13589000Y-10593578D02*
G01X13633958Y-10548620D01*
G01X13663930Y-10533634D01*
G01X13708888Y-10533634D01*
G01X13738860Y-10548620D01*
G01X13753846Y-10593578D01*
G01X13753846Y-10743438D01*
G01X13753846Y-10593578D02*
G01X13798804Y-10548620D01*
G01X13829030Y-10533634D01*
G01X13873988Y-10533634D01*
G01X13903960Y-10548620D01*
G01X13918946Y-10593578D01*
G01X13918946Y-10743438D01*
G01X14011148Y-10533634D02*
G01X14011148Y-10848340D01*
G01X14011148Y-10578592D02*
G01X14041120Y-10548620D01*
G01X14071092Y-10533634D01*
G01X14116050Y-10533634D01*
G01X14146022Y-10548620D01*
G01X14175994Y-10578592D01*
G01X14190980Y-10623550D01*
G01X14190980Y-10653522D01*
G01X14175994Y-10698480D01*
G01X14146022Y-10728452D01*
G01X14116050Y-10743438D01*
G01X14071092Y-10743438D01*
G01X14041120Y-10728452D01*
G01X14011148Y-10698480D01*
G01X14283182Y-10623550D02*
G01X14463014Y-10623550D01*
G01X14463014Y-10593578D01*
G01X14448028Y-10563606D01*
G01X14433042Y-10548620D01*
G01X14403070Y-10533634D01*
G01X14358112Y-10533634D01*
G01X14328140Y-10548620D01*
G01X14298168Y-10578592D01*
G01X14283182Y-10623550D01*
G01X14283182Y-10653522D01*
G01X14298168Y-10698480D01*
G01X14328140Y-10728452D01*
G01X14358112Y-10743438D01*
G01X14403070Y-10743438D01*
G01X14433042Y-10728452D01*
G01X14463014Y-10698480D01*
G01X14555216Y-10533634D02*
G01X14555216Y-10743438D01*
G01X14555216Y-10623550D02*
G01X14570202Y-10578592D01*
G01X14600174Y-10548620D01*
G01X14630146Y-10533634D01*
G01X14675104Y-10533634D01*
G01X14947138Y-10533634D02*
G01X14947138Y-10743438D01*
G01X14947138Y-10578592D02*
G01X14917166Y-10548620D01*
G01X14887194Y-10533634D01*
G01X14842236Y-10533634D01*
G01X14812264Y-10548620D01*
G01X14782292Y-10578592D01*
G01X14767306Y-10623550D01*
G01X14767306Y-10653522D01*
G01X14782292Y-10698480D01*
G01X14812264Y-10728452D01*
G01X14842236Y-10743438D01*
G01X14887194Y-10743438D01*
G01X14917166Y-10728452D01*
G01X14947138Y-10698480D01*
G01X15084298Y-10428732D02*
G01X15084298Y-10683494D01*
G01X15099284Y-10728452D01*
G01X15129256Y-10743438D01*
G01X15159228Y-10743438D01*
G01X15039340Y-10533634D02*
G01X15144242Y-10533634D01*
G01X15251430Y-10533634D02*
G01X15251430Y-10683494D01*
G01X15266416Y-10728452D01*
G01X15296388Y-10743438D01*
G01X15341346Y-10743438D01*
G01X15371318Y-10728452D01*
G01X15416276Y-10683494D01*
G01X15416276Y-10533634D02*
G01X15416276Y-10743438D01*
G01X15508478Y-10533634D02*
G01X15508478Y-10743438D01*
G01X15508478Y-10623550D02*
G01X15523464Y-10578592D01*
G01X15553436Y-10548620D01*
G01X15583408Y-10533634D01*
G01X15628366Y-10533634D01*
G01X15720568Y-10623550D02*
G01X15900400Y-10623550D01*
G01X15900400Y-10593578D01*
G01X15885414Y-10563606D01*
G01X15870428Y-10548620D01*
G01X15840456Y-10533634D01*
G01X15795498Y-10533634D01*
G01X15765526Y-10548620D01*
G01X15735554Y-10578592D01*
G01X15720568Y-10623550D01*
G01X15720568Y-10653522D01*
G01X15735554Y-10698480D01*
G01X15765526Y-10728452D01*
G01X15795498Y-10743438D01*
G01X15840456Y-10743438D01*
G01X15870428Y-10728452D01*
G01X15900400Y-10698480D01*
G54D11*
G01X16445362Y-20127532D02*
G01X16445362Y-20442238D01*
G01X16445362Y-20127532D02*
G01X16640180Y-20127532D01*
G01X16445362Y-20277392D02*
G01X16565250Y-20277392D01*
G01X16912214Y-20232434D02*
G01X16912214Y-20442238D01*
G01X16912214Y-20277392D02*
G01X16882242Y-20247420D01*
G01X16852270Y-20232434D01*
G01X16807312Y-20232434D01*
G01X16777340Y-20247420D01*
G01X16747368Y-20277392D01*
G01X16732382Y-20322350D01*
G01X16732382Y-20352322D01*
G01X16747368Y-20397280D01*
G01X16777340Y-20427252D01*
G01X16807312Y-20442238D01*
G01X16852270Y-20442238D01*
G01X16882242Y-20427252D01*
G01X16912214Y-20397280D01*
G01X17004416Y-20232434D02*
G01X17004416Y-20442238D01*
G01X17004416Y-20292378D02*
G01X17049374Y-20247420D01*
G01X17079346Y-20232434D01*
G01X17124304Y-20232434D01*
G01X17154276Y-20247420D01*
G01X17169262Y-20292378D01*
G01X17169262Y-20442238D01*
G01X24406860Y-19979132D02*
G01X24406860Y-20293838D01*
G01X24406860Y-19979132D02*
G01X24541734Y-19979132D01*
G01X24586692Y-19994118D01*
G01X24601678Y-20009104D01*
G01X24616664Y-20039076D01*
G01X24616664Y-20084034D01*
G01X24601678Y-20114006D01*
G01X24586692Y-20128992D01*
G01X24541734Y-20143978D01*
G01X24406860Y-20143978D01*
G01X24783796Y-20084034D02*
G01X24753824Y-20099020D01*
G01X24723852Y-20128992D01*
G01X24708866Y-20173950D01*
G01X24708866Y-20203922D01*
G01X24723852Y-20248880D01*
G01X24753824Y-20278852D01*
G01X24783796Y-20293838D01*
G01X24828754Y-20293838D01*
G01X24858726Y-20278852D01*
G01X24888698Y-20248880D01*
G01X24903684Y-20203922D01*
G01X24903684Y-20173950D01*
G01X24888698Y-20128992D01*
G01X24858726Y-20099020D01*
G01X24828754Y-20084034D01*
G01X24783796Y-20084034D01*
G01X24995886Y-20084034D02*
G01X25055830Y-20293838D01*
G01X25115774Y-20084034D02*
G01X25055830Y-20293838D01*
G01X25115774Y-20084034D02*
G01X25175718Y-20293838D01*
G01X25235662Y-20084034D02*
G01X25175718Y-20293838D01*
G01X25327864Y-20173950D02*
G01X25507696Y-20173950D01*
G01X25507696Y-20143978D01*
G01X25492710Y-20114006D01*
G01X25477724Y-20099020D01*
G01X25447752Y-20084034D01*
G01X25402794Y-20084034D01*
G01X25372822Y-20099020D01*
G01X25342850Y-20128992D01*
G01X25327864Y-20173950D01*
G01X25327864Y-20203922D01*
G01X25342850Y-20248880D01*
G01X25372822Y-20278852D01*
G01X25402794Y-20293838D01*
G01X25447752Y-20293838D01*
G01X25477724Y-20278852D01*
G01X25507696Y-20248880D01*
G01X25599898Y-20084034D02*
G01X25599898Y-20293838D01*
G01X25599898Y-20173950D02*
G01X25614884Y-20128992D01*
G01X25644856Y-20099020D01*
G01X25674828Y-20084034D01*
G01X25719786Y-20084034D01*
G01X26357580Y-20024090D02*
G01X26327608Y-19994118D01*
G01X26282650Y-19979132D01*
G01X26222706Y-19979132D01*
G01X26177748Y-19994118D01*
G01X26147776Y-20024090D01*
G01X26147776Y-20054062D01*
G01X26162762Y-20084034D01*
G01X26177748Y-20099020D01*
G01X26207720Y-20114006D01*
G01X26297636Y-20143978D01*
G01X26327608Y-20158964D01*
G01X26342594Y-20173950D01*
G01X26357580Y-20203922D01*
G01X26357580Y-20248880D01*
G01X26327608Y-20278852D01*
G01X26282650Y-20293838D01*
G01X26222706Y-20293838D01*
G01X26177748Y-20278852D01*
G01X26147776Y-20248880D01*
G01X26449782Y-20084034D02*
G01X26449782Y-20233894D01*
G01X26464768Y-20278852D01*
G01X26494740Y-20293838D01*
G01X26539698Y-20293838D01*
G01X26569670Y-20278852D01*
G01X26614628Y-20233894D01*
G01X26614628Y-20084034D02*
G01X26614628Y-20293838D01*
G01X26706830Y-20084034D02*
G01X26706830Y-20398740D01*
G01X26706830Y-20128992D02*
G01X26736802Y-20099020D01*
G01X26766774Y-20084034D01*
G01X26811732Y-20084034D01*
G01X26841704Y-20099020D01*
G01X26871676Y-20128992D01*
G01X26886662Y-20173950D01*
G01X26886662Y-20203922D01*
G01X26871676Y-20248880D01*
G01X26841704Y-20278852D01*
G01X26811732Y-20293838D01*
G01X26766774Y-20293838D01*
G01X26736802Y-20278852D01*
G01X26706830Y-20248880D01*
G01X26978864Y-20084034D02*
G01X26978864Y-20398740D01*
G01X26978864Y-20128992D02*
G01X27008836Y-20099020D01*
G01X27038808Y-20084034D01*
G01X27083766Y-20084034D01*
G01X27113738Y-20099020D01*
G01X27143710Y-20128992D01*
G01X27158696Y-20173950D01*
G01X27158696Y-20203922D01*
G01X27143710Y-20248880D01*
G01X27113738Y-20278852D01*
G01X27083766Y-20293838D01*
G01X27038808Y-20293838D01*
G01X27008836Y-20278852D01*
G01X26978864Y-20248880D01*
G01X27250898Y-19979132D02*
G01X27250898Y-20293838D01*
G01X27358086Y-20084034D02*
G01X27448256Y-20293838D01*
G01X27538172Y-20084034D02*
G01X27448256Y-20293838D01*
G01X27418284Y-20353782D01*
G01X27388058Y-20383754D01*
G01X27358086Y-20398740D01*
G01X27343100Y-20398740D01*
G54D10*
G01X31042610Y-21210270D02*
G01X31033720Y-21192490D01*
G01X31015940Y-21174710D01*
G01X30998160Y-21165820D01*
G01X30962600Y-21165820D01*
G01X30944820Y-21174710D01*
G01X30927040Y-21192490D01*
G01X30918150Y-21210270D01*
G01X30909260Y-21236940D01*
G01X30909260Y-21281390D01*
G01X30918150Y-21308060D01*
G01X30927040Y-21325840D01*
G01X30944820Y-21343620D01*
G01X30962600Y-21352510D01*
G01X30998160Y-21352510D01*
G01X31015940Y-21343620D01*
G01X31033720Y-21325840D01*
G01X31042610Y-21308060D01*
G01X31042610Y-21281390D01*
G01X30998160Y-21281390D02*
G01X31042610Y-21281390D01*
G01X31105602Y-21165820D02*
G01X31105602Y-21352510D01*
G01X31105602Y-21165820D02*
G01X31230062Y-21352510D01*
G01X31230062Y-21165820D02*
G01X31230062Y-21352510D01*
G01X31293054Y-21165820D02*
G01X31293054Y-21352510D01*
G01X31293054Y-21165820D02*
G01X31355284Y-21165820D01*
G01X31381954Y-21174710D01*
G01X31399734Y-21192490D01*
G01X31408624Y-21210270D01*
G01X31417514Y-21236940D01*
G01X31417514Y-21281390D01*
G01X31408624Y-21308060D01*
G01X31399734Y-21325840D01*
G01X31381954Y-21343620D01*
G01X31355284Y-21352510D01*
G01X31293054Y-21352510D01*
G54D11*
G01X28401264Y-10499090D02*
G01X28371292Y-10469118D01*
G01X28326334Y-10454132D01*
G01X28266390Y-10454132D01*
G01X28221432Y-10469118D01*
G01X28191460Y-10499090D01*
G01X28191460Y-10529062D01*
G01X28206446Y-10559034D01*
G01X28221432Y-10574020D01*
G01X28251404Y-10589006D01*
G01X28341320Y-10618978D01*
G01X28371292Y-10633964D01*
G01X28386278Y-10648950D01*
G01X28401264Y-10678922D01*
G01X28401264Y-10723880D01*
G01X28371292Y-10753852D01*
G01X28326334Y-10768838D01*
G01X28266390Y-10768838D01*
G01X28221432Y-10753852D01*
G01X28191460Y-10723880D01*
G01X28538424Y-10454132D02*
G01X28538424Y-10708894D01*
G01X28553410Y-10753852D01*
G01X28583382Y-10768838D01*
G01X28613354Y-10768838D01*
G01X28493466Y-10559034D02*
G01X28598368Y-10559034D01*
G01X28705556Y-10648950D02*
G01X28885388Y-10648950D01*
G01X28885388Y-10618978D01*
G01X28870402Y-10589006D01*
G01X28855416Y-10574020D01*
G01X28825444Y-10559034D01*
G01X28780486Y-10559034D01*
G01X28750514Y-10574020D01*
G01X28720542Y-10603992D01*
G01X28705556Y-10648950D01*
G01X28705556Y-10678922D01*
G01X28720542Y-10723880D01*
G01X28750514Y-10753852D01*
G01X28780486Y-10768838D01*
G01X28825444Y-10768838D01*
G01X28855416Y-10753852D01*
G01X28885388Y-10723880D01*
G01X28977590Y-10559034D02*
G01X28977590Y-10873740D01*
G01X28977590Y-10603992D02*
G01X29007562Y-10574020D01*
G01X29037534Y-10559034D01*
G01X29082492Y-10559034D01*
G01X29112464Y-10574020D01*
G01X29142436Y-10603992D01*
G01X29157422Y-10648950D01*
G01X29157422Y-10678922D01*
G01X29142436Y-10723880D01*
G01X29112464Y-10753852D01*
G01X29082492Y-10768838D01*
G01X29037534Y-10768838D01*
G01X29007562Y-10753852D01*
G01X28977590Y-10723880D01*
G01X29249624Y-10559034D02*
G01X29249624Y-10873740D01*
G01X29249624Y-10603992D02*
G01X29279596Y-10574020D01*
G01X29309568Y-10559034D01*
G01X29354526Y-10559034D01*
G01X29384498Y-10574020D01*
G01X29414470Y-10603992D01*
G01X29429456Y-10648950D01*
G01X29429456Y-10678922D01*
G01X29414470Y-10723880D01*
G01X29384498Y-10753852D01*
G01X29354526Y-10768838D01*
G01X29309568Y-10768838D01*
G01X29279596Y-10753852D01*
G01X29249624Y-10723880D01*
G01X29521658Y-10648950D02*
G01X29701490Y-10648950D01*
G01X29701490Y-10618978D01*
G01X29686504Y-10589006D01*
G01X29671518Y-10574020D01*
G01X29641546Y-10559034D01*
G01X29596588Y-10559034D01*
G01X29566616Y-10574020D01*
G01X29536644Y-10603992D01*
G01X29521658Y-10648950D01*
G01X29521658Y-10678922D01*
G01X29536644Y-10723880D01*
G01X29566616Y-10753852D01*
G01X29596588Y-10768838D01*
G01X29641546Y-10768838D01*
G01X29671518Y-10753852D01*
G01X29701490Y-10723880D01*
G01X29793692Y-10559034D02*
G01X29793692Y-10768838D01*
G01X29793692Y-10648950D02*
G01X29808678Y-10603992D01*
G01X29838650Y-10574020D01*
G01X29868622Y-10559034D01*
G01X29913580Y-10559034D01*
G01X30341570Y-10454132D02*
G01X30341570Y-10768838D01*
G01X30341570Y-10454132D02*
G01X30446472Y-10454132D01*
G01X30491430Y-10469118D01*
G01X30521402Y-10499090D01*
G01X30536388Y-10529062D01*
G01X30551374Y-10574020D01*
G01X30551374Y-10648950D01*
G01X30536388Y-10693908D01*
G01X30521402Y-10723880D01*
G01X30491430Y-10753852D01*
G01X30446472Y-10768838D01*
G01X30341570Y-10768838D01*
G01X30643576Y-10559034D02*
G01X30643576Y-10768838D01*
G01X30643576Y-10648950D02*
G01X30658562Y-10603992D01*
G01X30688534Y-10574020D01*
G01X30718506Y-10559034D01*
G01X30763464Y-10559034D01*
G01X30855666Y-10454132D02*
G01X30870652Y-10469118D01*
G01X30885638Y-10454132D01*
G01X30870652Y-10439146D01*
G01X30855666Y-10454132D01*
G01X30870652Y-10559034D02*
G01X30870652Y-10768838D01*
G01X30977840Y-10559034D02*
G01X31067756Y-10768838D01*
G01X31157672Y-10559034D02*
G01X31067756Y-10768838D01*
G01X31249874Y-10648950D02*
G01X31429706Y-10648950D01*
G01X31429706Y-10618978D01*
G01X31414720Y-10589006D01*
G01X31399734Y-10574020D01*
G01X31369762Y-10559034D01*
G01X31324804Y-10559034D01*
G01X31294832Y-10574020D01*
G01X31264860Y-10603992D01*
G01X31249874Y-10648950D01*
G01X31249874Y-10678922D01*
G01X31264860Y-10723880D01*
G01X31294832Y-10753852D01*
G01X31324804Y-10768838D01*
G01X31369762Y-10768838D01*
G01X31399734Y-10753852D01*
G01X31429706Y-10723880D01*
G01X31521908Y-10559034D02*
G01X31521908Y-10768838D01*
G01X31521908Y-10648950D02*
G01X31536894Y-10603992D01*
G01X31566866Y-10574020D01*
G01X31596838Y-10559034D01*
G01X31641796Y-10559034D01*
G01X22654260Y-10428732D02*
G01X22654260Y-10743438D01*
G01X22654260Y-10428732D02*
G01X22789134Y-10428732D01*
G01X22834092Y-10443718D01*
G01X22849078Y-10458704D01*
G01X22864064Y-10488676D01*
G01X22864064Y-10518648D01*
G01X22849078Y-10548620D01*
G01X22834092Y-10563606D01*
G01X22789134Y-10578592D01*
G01X22654260Y-10578592D01*
G01X22759162Y-10578592D02*
G01X22864064Y-10743438D01*
G01X23031196Y-10533634D02*
G01X23001224Y-10548620D01*
G01X22971252Y-10578592D01*
G01X22956266Y-10623550D01*
G01X22956266Y-10653522D01*
G01X22971252Y-10698480D01*
G01X23001224Y-10728452D01*
G01X23031196Y-10743438D01*
G01X23076154Y-10743438D01*
G01X23106126Y-10728452D01*
G01X23136098Y-10698480D01*
G01X23151084Y-10653522D01*
G01X23151084Y-10623550D01*
G01X23136098Y-10578592D01*
G01X23106126Y-10548620D01*
G01X23076154Y-10533634D01*
G01X23031196Y-10533634D01*
G01X23288244Y-10428732D02*
G01X23288244Y-10683494D01*
G01X23303230Y-10728452D01*
G01X23333202Y-10743438D01*
G01X23363174Y-10743438D01*
G01X23243286Y-10533634D02*
G01X23348188Y-10533634D01*
G01X23635208Y-10533634D02*
G01X23635208Y-10743438D01*
G01X23635208Y-10578592D02*
G01X23605236Y-10548620D01*
G01X23575264Y-10533634D01*
G01X23530306Y-10533634D01*
G01X23500334Y-10548620D01*
G01X23470362Y-10578592D01*
G01X23455376Y-10623550D01*
G01X23455376Y-10653522D01*
G01X23470362Y-10698480D01*
G01X23500334Y-10728452D01*
G01X23530306Y-10743438D01*
G01X23575264Y-10743438D01*
G01X23605236Y-10728452D01*
G01X23635208Y-10698480D01*
G01X23727410Y-10533634D02*
G01X23727410Y-10743438D01*
G01X23727410Y-10623550D02*
G01X23742396Y-10578592D01*
G01X23772368Y-10548620D01*
G01X23802340Y-10533634D01*
G01X23847298Y-10533634D01*
G01X23954486Y-10533634D02*
G01X24044402Y-10743438D01*
G01X24134318Y-10533634D02*
G01X24044402Y-10743438D01*
G01X24014430Y-10803382D01*
G01X23984458Y-10833354D01*
G01X23954486Y-10848340D01*
G01X23939500Y-10848340D01*
G01X17517364Y-10537190D02*
G01X17487392Y-10507218D01*
G01X17442434Y-10492232D01*
G01X17382490Y-10492232D01*
G01X17337532Y-10507218D01*
G01X17307560Y-10537190D01*
G01X17307560Y-10567162D01*
G01X17322546Y-10597134D01*
G01X17337532Y-10612120D01*
G01X17367504Y-10627106D01*
G01X17457420Y-10657078D01*
G01X17487392Y-10672064D01*
G01X17502378Y-10687050D01*
G01X17517364Y-10717022D01*
G01X17517364Y-10761980D01*
G01X17487392Y-10791952D01*
G01X17442434Y-10806938D01*
G01X17382490Y-10806938D01*
G01X17337532Y-10791952D01*
G01X17307560Y-10761980D01*
G01X17609566Y-10597134D02*
G01X17609566Y-10911840D01*
G01X17609566Y-10642092D02*
G01X17639538Y-10612120D01*
G01X17669510Y-10597134D01*
G01X17714468Y-10597134D01*
G01X17744440Y-10612120D01*
G01X17774412Y-10642092D01*
G01X17789398Y-10687050D01*
G01X17789398Y-10717022D01*
G01X17774412Y-10761980D01*
G01X17744440Y-10791952D01*
G01X17714468Y-10806938D01*
G01X17669510Y-10806938D01*
G01X17639538Y-10791952D01*
G01X17609566Y-10761980D01*
G01X18061432Y-10597134D02*
G01X18061432Y-10806938D01*
G01X18061432Y-10642092D02*
G01X18031460Y-10612120D01*
G01X18001488Y-10597134D01*
G01X17956530Y-10597134D01*
G01X17926558Y-10612120D01*
G01X17896586Y-10642092D01*
G01X17881600Y-10687050D01*
G01X17881600Y-10717022D01*
G01X17896586Y-10761980D01*
G01X17926558Y-10791952D01*
G01X17956530Y-10806938D01*
G01X18001488Y-10806938D01*
G01X18031460Y-10791952D01*
G01X18061432Y-10761980D01*
G01X18153634Y-10597134D02*
G01X18153634Y-10806938D01*
G01X18153634Y-10687050D02*
G01X18168620Y-10642092D01*
G01X18198592Y-10612120D01*
G01X18228564Y-10597134D01*
G01X18273522Y-10597134D01*
G01X18365724Y-10687050D02*
G01X18545556Y-10687050D01*
G01X18545556Y-10657078D01*
G01X18530570Y-10627106D01*
G01X18515584Y-10612120D01*
G01X18485612Y-10597134D01*
G01X18440654Y-10597134D01*
G01X18410682Y-10612120D01*
G01X18380710Y-10642092D01*
G01X18365724Y-10687050D01*
G01X18365724Y-10717022D01*
G01X18380710Y-10761980D01*
G01X18410682Y-10791952D01*
G01X18440654Y-10806938D01*
G01X18485612Y-10806938D01*
G01X18515584Y-10791952D01*
G01X18545556Y-10761980D01*
G01X19198336Y-10567162D02*
G01X19183350Y-10537190D01*
G01X19153378Y-10507218D01*
G01X19123406Y-10492232D01*
G01X19063462Y-10492232D01*
G01X19033490Y-10507218D01*
G01X19003518Y-10537190D01*
G01X18988532Y-10567162D01*
G01X18973546Y-10612120D01*
G01X18973546Y-10687050D01*
G01X18988532Y-10732008D01*
G01X19003518Y-10761980D01*
G01X19033490Y-10791952D01*
G01X19063462Y-10806938D01*
G01X19123406Y-10806938D01*
G01X19153378Y-10791952D01*
G01X19183350Y-10761980D01*
G01X19198336Y-10732008D01*
G01X19198336Y-10687050D01*
G01X19123406Y-10687050D02*
G01X19198336Y-10687050D01*
G01X19290538Y-10492232D02*
G01X19290538Y-10806938D01*
G01X19290538Y-10492232D02*
G01X19425412Y-10492232D01*
G01X19470370Y-10507218D01*
G01X19485356Y-10522204D01*
G01X19500342Y-10552176D01*
G01X19500342Y-10597134D01*
G01X19485356Y-10627106D01*
G01X19470370Y-10642092D01*
G01X19425412Y-10657078D01*
G01X19290538Y-10657078D01*
G01X19592544Y-10492232D02*
G01X19592544Y-10806938D01*
G01X19774916Y-10492232D02*
G01X19744690Y-10507218D01*
G01X19714718Y-10537190D01*
G01X19699732Y-10567162D01*
G01X19684746Y-10612120D01*
G01X19684746Y-10687050D01*
G01X19699732Y-10732008D01*
G01X19714718Y-10761980D01*
G01X19744690Y-10791952D01*
G01X19774916Y-10806938D01*
G01X19834860Y-10806938D01*
G01X19864832Y-10791952D01*
G01X19894804Y-10761980D01*
G01X19909790Y-10732008D01*
G01X19924776Y-10687050D01*
G01X19924776Y-10612120D01*
G01X19909790Y-10567162D01*
G01X19894804Y-10537190D01*
G01X19864832Y-10507218D01*
G01X19834860Y-10492232D01*
G01X19774916Y-10492232D01*
G01X18036540Y-15133320D02*
G01X18134330Y-15133320D01*
G01X18080990Y-15204440D01*
G01X18107660Y-15204440D01*
G01X18125440Y-15213330D01*
G01X18134330Y-15222220D01*
G01X18143220Y-15248890D01*
G01X18143220Y-15266670D01*
G01X18134330Y-15293340D01*
G01X18116550Y-15311120D01*
G01X18089880Y-15320010D01*
G01X18063210Y-15320010D01*
G01X18036540Y-15311120D01*
G01X18027650Y-15302230D01*
G01X18018760Y-15284450D01*
G01X18206212Y-15133320D02*
G01X18277332Y-15320010D01*
G01X18348452Y-15133320D02*
G01X18277332Y-15320010D01*
G01X18429224Y-15133320D02*
G01X18527014Y-15133320D01*
G01X18473674Y-15204440D01*
G01X18500344Y-15204440D01*
G01X18518124Y-15213330D01*
G01X18527014Y-15222220D01*
G01X18535904Y-15248890D01*
G01X18535904Y-15266670D01*
G01X18527014Y-15293340D01*
G01X18509234Y-15311120D01*
G01X18482564Y-15320010D01*
G01X18455894Y-15320010D01*
G01X18429224Y-15311120D01*
G01X18420334Y-15302230D01*
G01X18411444Y-15284450D01*
G01X18238983Y-18771870D02*
G01X18230093Y-18754090D01*
G01X18212313Y-18736310D01*
G01X18194533Y-18727420D01*
G01X18158973Y-18727420D01*
G01X18141193Y-18736310D01*
G01X18123413Y-18754090D01*
G01X18114523Y-18771870D01*
G01X18105633Y-18798540D01*
G01X18105633Y-18842990D01*
G01X18114523Y-18869660D01*
G01X18123413Y-18887440D01*
G01X18141193Y-18905220D01*
G01X18158973Y-18914110D01*
G01X18194533Y-18914110D01*
G01X18212313Y-18905220D01*
G01X18230093Y-18887440D01*
G01X18238983Y-18869660D01*
G01X18238983Y-18842990D01*
G01X18194533Y-18842990D02*
G01X18238983Y-18842990D01*
G01X18301975Y-18727420D02*
G01X18301975Y-18914110D01*
G01X18301975Y-18727420D02*
G01X18426435Y-18914110D01*
G01X18426435Y-18727420D02*
G01X18426435Y-18914110D01*
G01X18489427Y-18727420D02*
G01X18489427Y-18914110D01*
G01X18489427Y-18727420D02*
G01X18551657Y-18727420D01*
G01X18578327Y-18736310D01*
G01X18596107Y-18754090D01*
G01X18604997Y-18771870D01*
G01X18613887Y-18798540D01*
G01X18613887Y-18842990D01*
G01X18604997Y-18869660D01*
G01X18596107Y-18887440D01*
G01X18578327Y-18905220D01*
G01X18551657Y-18914110D01*
G01X18489427Y-18914110D01*
G01X21492210Y-18721070D02*
G01X21483320Y-18703290D01*
G01X21465540Y-18685510D01*
G01X21447760Y-18676620D01*
G01X21412200Y-18676620D01*
G01X21394420Y-18685510D01*
G01X21376640Y-18703290D01*
G01X21367750Y-18721070D01*
G01X21358860Y-18747740D01*
G01X21358860Y-18792190D01*
G01X21367750Y-18818860D01*
G01X21376640Y-18836640D01*
G01X21394420Y-18854420D01*
G01X21412200Y-18863310D01*
G01X21447760Y-18863310D01*
G01X21465540Y-18854420D01*
G01X21483320Y-18836640D01*
G01X21492210Y-18818860D01*
G01X21492210Y-18792190D01*
G01X21447760Y-18792190D02*
G01X21492210Y-18792190D01*
G01X21555202Y-18676620D02*
G01X21555202Y-18863310D01*
G01X21555202Y-18676620D02*
G01X21679662Y-18863310D01*
G01X21679662Y-18676620D02*
G01X21679662Y-18863310D01*
G01X21742654Y-18676620D02*
G01X21742654Y-18863310D01*
G01X21742654Y-18676620D02*
G01X21804884Y-18676620D01*
G01X21831554Y-18685510D01*
G01X21849334Y-18703290D01*
G01X21858224Y-18721070D01*
G01X21867114Y-18747740D01*
G01X21867114Y-18792190D01*
G01X21858224Y-18818860D01*
G01X21849334Y-18836640D01*
G01X21831554Y-18854420D01*
G01X21804884Y-18863310D01*
G01X21742654Y-18863310D01*
G01X21517610Y-15190470D02*
G01X21508720Y-15172690D01*
G01X21490940Y-15154910D01*
G01X21473160Y-15146020D01*
G01X21437600Y-15146020D01*
G01X21419820Y-15154910D01*
G01X21402040Y-15172690D01*
G01X21393150Y-15190470D01*
G01X21384260Y-15217140D01*
G01X21384260Y-15261590D01*
G01X21393150Y-15288260D01*
G01X21402040Y-15306040D01*
G01X21419820Y-15323820D01*
G01X21437600Y-15332710D01*
G01X21473160Y-15332710D01*
G01X21490940Y-15323820D01*
G01X21508720Y-15306040D01*
G01X21517610Y-15288260D01*
G01X21517610Y-15261590D01*
G01X21473160Y-15261590D02*
G01X21517610Y-15261590D01*
G01X21580602Y-15146020D02*
G01X21580602Y-15332710D01*
G01X21580602Y-15146020D02*
G01X21705062Y-15332710D01*
G01X21705062Y-15146020D02*
G01X21705062Y-15332710D01*
G01X21768054Y-15146020D02*
G01X21768054Y-15332710D01*
G01X21768054Y-15146020D02*
G01X21830284Y-15146020D01*
G01X21856954Y-15154910D01*
G01X21874734Y-15172690D01*
G01X21883624Y-15190470D01*
G01X21892514Y-15217140D01*
G01X21892514Y-15261590D01*
G01X21883624Y-15288260D01*
G01X21874734Y-15306040D01*
G01X21856954Y-15323820D01*
G01X21830284Y-15332710D01*
G01X21768054Y-15332710D01*
G01X21494628Y-17997170D02*
G01X21485738Y-17979390D01*
G01X21467958Y-17961610D01*
G01X21450178Y-17952720D01*
G01X21414618Y-17952720D01*
G01X21396838Y-17961610D01*
G01X21379058Y-17979390D01*
G01X21370168Y-17997170D01*
G01X21361278Y-18023840D01*
G01X21361278Y-18068290D01*
G01X21370168Y-18094960D01*
G01X21379058Y-18112740D01*
G01X21396838Y-18130520D01*
G01X21414618Y-18139410D01*
G01X21450178Y-18139410D01*
G01X21467958Y-18130520D01*
G01X21485738Y-18112740D01*
G01X21494628Y-18094960D01*
G01X21494628Y-18068290D01*
G01X21450178Y-18068290D02*
G01X21494628Y-18068290D01*
G01X21557620Y-17952720D02*
G01X21557620Y-18139410D01*
G01X21557620Y-17952720D02*
G01X21682080Y-18139410D01*
G01X21682080Y-17952720D02*
G01X21682080Y-18139410D01*
G01X21745072Y-17952720D02*
G01X21745072Y-18139410D01*
G01X21745072Y-17952720D02*
G01X21807302Y-17952720D01*
G01X21833972Y-17961610D01*
G01X21851752Y-17979390D01*
G01X21860642Y-17997170D01*
G01X21869532Y-18023840D01*
G01X21869532Y-18068290D01*
G01X21860642Y-18094960D01*
G01X21851752Y-18112740D01*
G01X21833972Y-18130520D01*
G01X21807302Y-18139410D01*
G01X21745072Y-18139410D01*
G01X18034513Y-15438120D02*
G01X18132303Y-15438120D01*
G01X18078963Y-15509240D01*
G01X18105633Y-15509240D01*
G01X18123413Y-15518130D01*
G01X18132303Y-15527020D01*
G01X18141193Y-15553690D01*
G01X18141193Y-15571470D01*
G01X18132303Y-15598140D01*
G01X18114523Y-15615920D01*
G01X18087853Y-15624810D01*
G01X18061183Y-15624810D01*
G01X18034513Y-15615920D01*
G01X18025623Y-15607030D01*
G01X18016733Y-15589250D01*
G01X18204185Y-15438120D02*
G01X18275305Y-15624810D01*
G01X18346425Y-15438120D02*
G01X18275305Y-15624810D01*
G01X18427197Y-15438120D02*
G01X18524987Y-15438120D01*
G01X18471647Y-15509240D01*
G01X18498317Y-15509240D01*
G01X18516097Y-15518130D01*
G01X18524987Y-15527020D01*
G01X18533877Y-15553690D01*
G01X18533877Y-15571470D01*
G01X18524987Y-15598140D01*
G01X18507207Y-15615920D01*
G01X18480537Y-15624810D01*
G01X18453867Y-15624810D01*
G01X18427197Y-15615920D01*
G01X18418307Y-15607030D01*
G01X18409417Y-15589250D01*
G01X18328640Y-18422620D02*
G01X18239740Y-18422620D01*
G01X18230850Y-18502630D01*
G01X18239740Y-18493740D01*
G01X18266410Y-18484850D01*
G01X18293080Y-18484850D01*
G01X18319750Y-18493740D01*
G01X18337530Y-18511520D01*
G01X18346420Y-18538190D01*
G01X18346420Y-18555970D01*
G01X18337530Y-18582640D01*
G01X18319750Y-18600420D01*
G01X18293080Y-18609310D01*
G01X18266410Y-18609310D01*
G01X18239740Y-18600420D01*
G01X18230850Y-18591530D01*
G01X18221960Y-18573750D01*
G01X18409412Y-18422620D02*
G01X18480532Y-18609310D01*
G01X18551652Y-18422620D02*
G01X18480532Y-18609310D01*
G54D12*
G01X13324840Y-12112142D02*
G01X13331190Y-12109094D01*
G01X13337286Y-12102744D01*
G01X13340334Y-12096648D01*
G01X13340334Y-12084202D01*
G01X13337286Y-12078106D01*
G01X13331190Y-12071756D01*
G01X13324840Y-12068708D01*
G01X13315696Y-12065660D01*
G01X13300202Y-12065660D01*
G01X13290804Y-12068708D01*
G01X13284708Y-12071756D01*
G01X13278358Y-12078106D01*
G01X13275310Y-12084202D01*
G01X13275310Y-12096648D01*
G01X13278358Y-12102744D01*
G01X13284708Y-12109094D01*
G01X13290804Y-12112142D01*
G01X13340334Y-12142368D02*
G01X13275310Y-12142368D01*
G01X13340334Y-12142368D02*
G01X13275310Y-12185548D01*
G01X13340334Y-12185548D02*
G01X13275310Y-12185548D01*
G01X13324840Y-12218822D02*
G01X13327888Y-12218822D01*
G01X13334238Y-12221870D01*
G01X13337286Y-12224918D01*
G01X13340334Y-12231014D01*
G01X13340334Y-12243460D01*
G01X13337286Y-12249810D01*
G01X13334238Y-12252858D01*
G01X13327888Y-12255906D01*
G01X13321792Y-12255906D01*
G01X13315696Y-12252858D01*
G01X13306298Y-12246508D01*
G01X13275310Y-12215774D01*
G01X13275310Y-12258954D01*
G01X27788667Y-22039491D02*
G01X27853691Y-22039491D01*
G01X27788667Y-22039491D02*
G01X27788667Y-21999359D01*
G01X27819655Y-22039491D02*
G01X27819655Y-22014599D01*
G01X27788667Y-21969133D02*
G01X27853691Y-21969133D01*
G01X27788667Y-21925953D02*
G01X27853691Y-21925953D01*
G01X27819655Y-21969133D02*
G01X27819655Y-21925953D01*
G01X27801113Y-21895727D02*
G01X27797811Y-21889631D01*
G01X27788667Y-21880487D01*
G01X27853691Y-21880487D01*
G01X14921433Y-21445309D02*
G01X14856409Y-21445309D01*
G01X14921433Y-21445309D02*
G01X14921433Y-21485441D01*
G01X14890445Y-21445309D02*
G01X14890445Y-21470201D01*
G01X14921433Y-21515667D02*
G01X14856409Y-21515667D01*
G01X14921433Y-21558847D02*
G01X14856409Y-21558847D01*
G01X14890445Y-21515667D02*
G01X14890445Y-21558847D01*
G01X14905939Y-21592121D02*
G01X14908987Y-21592121D01*
G01X14915337Y-21595169D01*
G01X14918385Y-21598217D01*
G01X14921433Y-21604313D01*
G01X14921433Y-21616759D01*
G01X14918385Y-21623109D01*
G01X14915337Y-21626157D01*
G01X14908987Y-21629205D01*
G01X14902891Y-21629205D01*
G01X14896795Y-21626157D01*
G01X14887397Y-21619807D01*
G01X14856409Y-21589073D01*
G01X14856409Y-21632253D01*
G01X29364940Y-13756894D02*
G01X29364940Y-13691870D01*
G01X29321506Y-13756894D02*
G01X29321506Y-13691870D01*
G01X29364940Y-13725906D02*
G01X29321506Y-13725906D01*
G01X29276040Y-13756894D02*
G01X29285184Y-13753846D01*
G01X29288232Y-13747750D01*
G01X29288232Y-13741400D01*
G01X29285184Y-13735304D01*
G01X29279088Y-13732256D01*
G01X29266642Y-13729208D01*
G01X29257244Y-13725906D01*
G01X29251148Y-13719810D01*
G01X29248100Y-13713714D01*
G01X29248100Y-13704316D01*
G01X29251148Y-13698220D01*
G01X29254196Y-13694918D01*
G01X29263594Y-13691870D01*
G01X29276040Y-13691870D01*
G01X29285184Y-13694918D01*
G01X29288232Y-13698220D01*
G01X29291280Y-13704316D01*
G01X29291280Y-13713714D01*
G01X29288232Y-13719810D01*
G01X29282136Y-13725906D01*
G01X29272738Y-13729208D01*
G01X29260546Y-13732256D01*
G01X29254196Y-13735304D01*
G01X29251148Y-13741400D01*
G01X29251148Y-13747750D01*
G01X29254196Y-13753846D01*
G01X29263594Y-13756894D01*
G01X29276040Y-13756894D01*
G01X27020520Y-15437866D02*
G01X27020520Y-15502890D01*
G01X27063954Y-15437866D02*
G01X27063954Y-15502890D01*
G01X27020520Y-15468854D02*
G01X27063954Y-15468854D01*
G01X27134312Y-15459456D02*
G01X27131264Y-15468854D01*
G01X27124914Y-15474950D01*
G01X27115770Y-15477998D01*
G01X27112722Y-15477998D01*
G01X27103324Y-15474950D01*
G01X27097228Y-15468854D01*
G01X27094180Y-15459456D01*
G01X27094180Y-15456408D01*
G01X27097228Y-15447010D01*
G01X27103324Y-15440914D01*
G01X27112722Y-15437866D01*
G01X27115770Y-15437866D01*
G01X27124914Y-15440914D01*
G01X27131264Y-15447010D01*
G01X27134312Y-15459456D01*
G01X27134312Y-15474950D01*
G01X27131264Y-15490444D01*
G01X27124914Y-15499842D01*
G01X27115770Y-15502890D01*
G01X27109420Y-15502890D01*
G01X27100276Y-15499842D01*
G01X27097228Y-15493492D01*
G01X28938220Y-17622266D02*
G01X28938220Y-17687290D01*
G01X28981654Y-17622266D02*
G01X28981654Y-17687290D01*
G01X28938220Y-17653254D02*
G01X28981654Y-17653254D01*
G01X29011880Y-17634712D02*
G01X29017976Y-17631410D01*
G01X29027120Y-17622266D01*
G01X29027120Y-17687290D01*
G01X29075888Y-17622266D02*
G01X29066490Y-17625314D01*
G01X29060394Y-17634712D01*
G01X29057346Y-17649952D01*
G01X29057346Y-17659350D01*
G01X29060394Y-17674844D01*
G01X29066490Y-17684242D01*
G01X29075888Y-17687290D01*
G01X29081984Y-17687290D01*
G01X29091382Y-17684242D01*
G01X29097478Y-17674844D01*
G01X29100526Y-17659350D01*
G01X29100526Y-17649952D01*
G01X29097478Y-17634712D01*
G01X29091382Y-17625314D01*
G01X29081984Y-17622266D01*
G01X29075888Y-17622266D01*
G01X13063220Y-14980666D02*
G01X13063220Y-15045690D01*
G01X13106654Y-14980666D02*
G01X13106654Y-15045690D01*
G01X13063220Y-15011654D02*
G01X13106654Y-15011654D01*
G01X13136880Y-14993112D02*
G01X13142976Y-14989810D01*
G01X13152120Y-14980666D01*
G01X13152120Y-15045690D01*
G01X13182346Y-14993112D02*
G01X13188442Y-14989810D01*
G01X13197586Y-14980666D01*
G01X13197586Y-15045690D01*
G01X22283420Y-12123166D02*
G01X22283420Y-12188190D01*
G01X22326854Y-12123166D02*
G01X22326854Y-12188190D01*
G01X22283420Y-12154154D02*
G01X22326854Y-12154154D01*
G01X22357080Y-12135612D02*
G01X22363176Y-12132310D01*
G01X22372320Y-12123166D01*
G01X22372320Y-12188190D01*
G01X22405594Y-12138660D02*
G01X22405594Y-12135612D01*
G01X22408642Y-12129262D01*
G01X22411690Y-12126214D01*
G01X22417786Y-12123166D01*
G01X22430232Y-12123166D01*
G01X22436582Y-12126214D01*
G01X22439630Y-12129262D01*
G01X22442678Y-12135612D01*
G01X22442678Y-12141708D01*
G01X22439630Y-12147804D01*
G01X22433280Y-12157202D01*
G01X22402546Y-12188190D01*
G01X22445726Y-12188190D01*
G01X18752820Y-13443966D02*
G01X18752820Y-13508990D01*
G01X18796254Y-13443966D02*
G01X18796254Y-13508990D01*
G01X18752820Y-13474954D02*
G01X18796254Y-13474954D01*
G01X18826480Y-13456412D02*
G01X18832576Y-13453110D01*
G01X18841720Y-13443966D01*
G01X18841720Y-13508990D01*
G01X18902680Y-13443966D02*
G01X18871946Y-13487146D01*
G01X18918174Y-13487146D01*
G01X18902680Y-13443966D02*
G01X18902680Y-13508990D01*
G01X21415019Y-15112759D02*
G01X21349995Y-15112759D01*
G01X21415019Y-15112759D02*
G01X21415019Y-15140699D01*
G01X21411971Y-15149843D01*
G01X21408923Y-15152891D01*
G01X21402573Y-15156193D01*
G01X21393429Y-15156193D01*
G01X21387333Y-15152891D01*
G01X21384031Y-15149843D01*
G01X21380983Y-15140699D01*
G01X21380983Y-15112759D01*
G01X21415019Y-15192515D02*
G01X21415019Y-15226551D01*
G01X21390381Y-15208009D01*
G01X21390381Y-15217153D01*
G01X21387333Y-15223503D01*
G01X21384031Y-15226551D01*
G01X21374887Y-15229599D01*
G01X21368537Y-15229599D01*
G01X21359393Y-15226551D01*
G01X21353043Y-15220455D01*
G01X21349995Y-15211057D01*
G01X21349995Y-15201659D01*
G01X21353043Y-15192515D01*
G01X21356345Y-15189467D01*
G01X21362441Y-15186419D01*
G01X19118834Y-15107920D02*
G01X19053810Y-15107920D01*
G01X19118834Y-15107920D02*
G01X19118834Y-15135860D01*
G01X19115786Y-15145004D01*
G01X19112738Y-15148052D01*
G01X19106388Y-15151354D01*
G01X19097244Y-15151354D01*
G01X19091148Y-15148052D01*
G01X19087846Y-15145004D01*
G01X19084798Y-15135860D01*
G01X19084798Y-15107920D01*
G01X19118834Y-15212314D02*
G01X19075654Y-15181580D01*
G01X19075654Y-15227808D01*
G01X19118834Y-15212314D02*
G01X19053810Y-15212314D01*
G01X13622020Y-23997666D02*
G01X13622020Y-24062690D01*
G01X13622020Y-23997666D02*
G01X13649960Y-23997666D01*
G01X13659104Y-24000714D01*
G01X13662152Y-24003762D01*
G01X13665454Y-24010112D01*
G01X13665454Y-24019256D01*
G01X13662152Y-24025352D01*
G01X13659104Y-24028654D01*
G01X13649960Y-24031702D01*
G01X13622020Y-24031702D01*
G01X13732764Y-23997666D02*
G01X13701776Y-23997666D01*
G01X13698728Y-24025352D01*
G01X13701776Y-24022304D01*
G01X13710920Y-24019256D01*
G01X13720318Y-24019256D01*
G01X13729716Y-24022304D01*
G01X13735812Y-24028654D01*
G01X13738860Y-24037798D01*
G01X13738860Y-24044148D01*
G01X13735812Y-24053292D01*
G01X13729716Y-24059642D01*
G01X13720318Y-24062690D01*
G01X13710920Y-24062690D01*
G01X13701776Y-24059642D01*
G01X13698728Y-24056340D01*
G01X13695680Y-24050244D01*
G01X23007320Y-22626066D02*
G01X23007320Y-22691090D01*
G01X23007320Y-22626066D02*
G01X23035260Y-22626066D01*
G01X23044404Y-22629114D01*
G01X23047452Y-22632162D01*
G01X23050754Y-22638512D01*
G01X23050754Y-22647656D01*
G01X23047452Y-22653752D01*
G01X23044404Y-22657054D01*
G01X23035260Y-22660102D01*
G01X23007320Y-22660102D01*
G01X23118064Y-22635210D02*
G01X23115016Y-22629114D01*
G01X23105618Y-22626066D01*
G01X23099522Y-22626066D01*
G01X23090124Y-22629114D01*
G01X23084028Y-22638512D01*
G01X23080980Y-22653752D01*
G01X23080980Y-22669246D01*
G01X23084028Y-22681692D01*
G01X23090124Y-22688042D01*
G01X23099522Y-22691090D01*
G01X23102570Y-22691090D01*
G01X23111714Y-22688042D01*
G01X23118064Y-22681692D01*
G01X23121112Y-22672548D01*
G01X23121112Y-22669246D01*
G01X23118064Y-22660102D01*
G01X23111714Y-22653752D01*
G01X23102570Y-22650704D01*
G01X23099522Y-22650704D01*
G01X23090124Y-22653752D01*
G01X23084028Y-22660102D01*
G01X23080980Y-22669246D01*
G01X30832633Y-22418418D02*
G01X30767609Y-22418418D01*
G01X30832633Y-22418418D02*
G01X30832633Y-22446358D01*
G01X30829585Y-22455502D01*
G01X30826537Y-22458550D01*
G01X30820187Y-22461852D01*
G01X30811043Y-22461852D01*
G01X30804947Y-22458550D01*
G01X30801645Y-22455502D01*
G01X30798597Y-22446358D01*
G01X30798597Y-22418418D01*
G01X30832633Y-22507318D02*
G01X30829585Y-22498174D01*
G01X30823489Y-22495126D01*
G01X30817139Y-22495126D01*
G01X30811043Y-22498174D01*
G01X30807995Y-22504270D01*
G01X30804947Y-22516716D01*
G01X30801645Y-22526114D01*
G01X30795549Y-22532210D01*
G01X30789453Y-22535258D01*
G01X30780055Y-22535258D01*
G01X30773959Y-22532210D01*
G01X30770657Y-22529162D01*
G01X30767609Y-22519764D01*
G01X30767609Y-22507318D01*
G01X30770657Y-22498174D01*
G01X30773959Y-22495126D01*
G01X30780055Y-22492078D01*
G01X30789453Y-22492078D01*
G01X30795549Y-22495126D01*
G01X30801645Y-22501222D01*
G01X30804947Y-22510620D01*
G01X30807995Y-22522812D01*
G01X30811043Y-22529162D01*
G01X30817139Y-22532210D01*
G01X30823489Y-22532210D01*
G01X30829585Y-22529162D01*
G01X30832633Y-22519764D01*
G01X30832633Y-22507318D01*
G01X14226540Y-12181102D02*
G01X14232890Y-12178054D01*
G01X14238986Y-12171704D01*
G01X14242034Y-12165608D01*
G01X14242034Y-12153162D01*
G01X14238986Y-12147066D01*
G01X14232890Y-12140716D01*
G01X14226540Y-12137668D01*
G01X14217396Y-12134620D01*
G01X14201902Y-12134620D01*
G01X14192504Y-12137668D01*
G01X14186408Y-12140716D01*
G01X14180058Y-12147066D01*
G01X14177010Y-12153162D01*
G01X14177010Y-12165608D01*
G01X14180058Y-12171704D01*
G01X14186408Y-12178054D01*
G01X14192504Y-12181102D01*
G01X14242034Y-12254508D02*
G01X14177010Y-12223520D01*
G01X14242034Y-12211328D02*
G01X14242034Y-12254508D01*
G01X26597280Y-18177091D02*
G01X26590930Y-18180139D01*
G01X26584834Y-18186489D01*
G01X26581786Y-18192585D01*
G01X26581786Y-18205031D01*
G01X26584834Y-18211127D01*
G01X26590930Y-18217477D01*
G01X26597280Y-18220525D01*
G01X26606424Y-18223573D01*
G01X26621918Y-18223573D01*
G01X26631316Y-18220525D01*
G01X26637412Y-18217477D01*
G01X26643762Y-18211127D01*
G01X26646810Y-18205031D01*
G01X26646810Y-18192585D01*
G01X26643762Y-18186489D01*
G01X26637412Y-18180139D01*
G01X26631316Y-18177091D01*
G01X26581786Y-18131625D02*
G01X26584834Y-18140769D01*
G01X26590930Y-18143817D01*
G01X26597280Y-18143817D01*
G01X26603376Y-18140769D01*
G01X26606424Y-18134673D01*
G01X26609472Y-18122227D01*
G01X26612774Y-18112829D01*
G01X26618870Y-18106733D01*
G01X26624966Y-18103685D01*
G01X26634364Y-18103685D01*
G01X26640460Y-18106733D01*
G01X26643762Y-18109781D01*
G01X26646810Y-18119179D01*
G01X26646810Y-18131625D01*
G01X26643762Y-18140769D01*
G01X26640460Y-18143817D01*
G01X26634364Y-18146865D01*
G01X26624966Y-18146865D01*
G01X26618870Y-18143817D01*
G01X26612774Y-18137721D01*
G01X26609472Y-18128323D01*
G01X26606424Y-18116131D01*
G01X26603376Y-18109781D01*
G01X26597280Y-18106733D01*
G01X26590930Y-18106733D01*
G01X26584834Y-18109781D01*
G01X26581786Y-18119179D01*
G01X26581786Y-18131625D01*
G01X26298220Y-20977009D02*
G01X26304570Y-20973961D01*
G01X26310666Y-20967611D01*
G01X26313714Y-20961515D01*
G01X26313714Y-20949069D01*
G01X26310666Y-20942973D01*
G01X26304570Y-20936623D01*
G01X26298220Y-20933575D01*
G01X26289076Y-20930527D01*
G01X26273582Y-20930527D01*
G01X26264184Y-20933575D01*
G01X26258088Y-20936623D01*
G01X26251738Y-20942973D01*
G01X26248690Y-20949069D01*
G01X26248690Y-20961515D01*
G01X26251738Y-20967611D01*
G01X26258088Y-20973961D01*
G01X26264184Y-20977009D01*
G01X26292124Y-21047367D02*
G01X26282726Y-21044319D01*
G01X26276630Y-21037969D01*
G01X26273582Y-21028825D01*
G01X26273582Y-21025777D01*
G01X26276630Y-21016379D01*
G01X26282726Y-21010283D01*
G01X26292124Y-21007235D01*
G01X26295172Y-21007235D01*
G01X26304570Y-21010283D01*
G01X26310666Y-21016379D01*
G01X26313714Y-21025777D01*
G01X26313714Y-21028825D01*
G01X26310666Y-21037969D01*
G01X26304570Y-21044319D01*
G01X26292124Y-21047367D01*
G01X26276630Y-21047367D01*
G01X26261136Y-21044319D01*
G01X26251738Y-21037969D01*
G01X26248690Y-21028825D01*
G01X26248690Y-21022475D01*
G01X26251738Y-21013331D01*
G01X26258088Y-21010283D01*
G01X23345534Y-21350818D02*
G01X23280510Y-21350818D01*
G01X23345534Y-21350818D02*
G01X23345534Y-21390950D01*
G01X23314546Y-21350818D02*
G01X23314546Y-21375710D01*
G01X23330040Y-21424224D02*
G01X23333088Y-21424224D01*
G01X23339438Y-21427272D01*
G01X23342486Y-21430320D01*
G01X23345534Y-21436416D01*
G01X23345534Y-21448862D01*
G01X23342486Y-21455212D01*
G01X23339438Y-21458260D01*
G01X23333088Y-21461308D01*
G01X23326992Y-21461308D01*
G01X23320896Y-21458260D01*
G01X23311498Y-21451910D01*
G01X23280510Y-21421176D01*
G01X23280510Y-21464356D01*
G01X29865320Y-18358866D02*
G01X29865320Y-18423890D01*
G01X29865320Y-18358866D02*
G01X29905452Y-18358866D01*
G01X29865320Y-18389854D02*
G01X29890212Y-18389854D01*
G01X29941774Y-18358866D02*
G01X29975810Y-18358866D01*
G01X29957268Y-18383504D01*
G01X29966412Y-18383504D01*
G01X29972762Y-18386552D01*
G01X29975810Y-18389854D01*
G01X29978858Y-18398998D01*
G01X29978858Y-18405348D01*
G01X29975810Y-18414492D01*
G01X29969714Y-18420842D01*
G01X29960316Y-18423890D01*
G01X29950918Y-18423890D01*
G01X29941774Y-18420842D01*
G01X29938726Y-18417540D01*
G01X29935678Y-18411444D01*
G01X28036520Y-22346666D02*
G01X28036520Y-22411690D01*
G01X28036520Y-22346666D02*
G01X28076652Y-22346666D01*
G01X28036520Y-22377654D02*
G01X28061412Y-22377654D01*
G01X28137612Y-22346666D02*
G01X28106878Y-22389846D01*
G01X28153106Y-22389846D01*
G01X28137612Y-22346666D02*
G01X28137612Y-22411690D01*
G01X13060934Y-20213319D02*
G01X12995910Y-20213319D01*
G01X12995910Y-20213319D02*
G01X12995910Y-20250403D01*
G01X13060934Y-20280629D02*
G01X12995910Y-20280629D01*
G01X13060934Y-20280629D02*
G01X13060934Y-20320761D01*
G01X13029946Y-20280629D02*
G01X13029946Y-20305267D01*
G01X12995910Y-20280629D02*
G01X12995910Y-20320761D01*
G01X13060934Y-20350987D02*
G01X12995910Y-20350987D01*
G01X13060934Y-20350987D02*
G01X13060934Y-20372577D01*
G01X13057886Y-20381721D01*
G01X13051790Y-20388071D01*
G01X13045440Y-20391119D01*
G01X13036296Y-20394167D01*
G01X13020802Y-20394167D01*
G01X13011404Y-20391119D01*
G01X13005308Y-20388071D01*
G01X12998958Y-20381721D01*
G01X12995910Y-20372577D01*
G01X12995910Y-20350987D01*
G01X13060934Y-20461477D02*
G01X13060934Y-20430489D01*
G01X13033248Y-20427441D01*
G01X13036296Y-20430489D01*
G01X13039344Y-20439633D01*
G01X13039344Y-20449031D01*
G01X13036296Y-20458429D01*
G01X13029946Y-20464525D01*
G01X13020802Y-20467573D01*
G01X13014452Y-20467573D01*
G01X13005308Y-20464525D01*
G01X12998958Y-20458429D01*
G01X12995910Y-20449031D01*
G01X12995910Y-20439633D01*
G01X12998958Y-20430489D01*
G01X13002260Y-20427441D01*
G01X13008356Y-20424393D01*
G01X20734019Y-22689566D02*
G01X20734019Y-22754590D01*
G01X20734019Y-22754590D02*
G01X20771103Y-22754590D01*
G01X20801329Y-22689566D02*
G01X20801329Y-22754590D01*
G01X20801329Y-22689566D02*
G01X20841461Y-22689566D01*
G01X20801329Y-22720554D02*
G01X20825967Y-22720554D01*
G01X20801329Y-22754590D02*
G01X20841461Y-22754590D01*
G01X20871687Y-22689566D02*
G01X20871687Y-22754590D01*
G01X20871687Y-22689566D02*
G01X20893277Y-22689566D01*
G01X20902421Y-22692614D01*
G01X20908771Y-22698710D01*
G01X20911819Y-22705060D01*
G01X20914867Y-22714204D01*
G01X20914867Y-22729698D01*
G01X20911819Y-22739096D01*
G01X20908771Y-22745192D01*
G01X20902421Y-22751542D01*
G01X20893277Y-22754590D01*
G01X20871687Y-22754590D01*
G01X20982177Y-22698710D02*
G01X20979129Y-22692614D01*
G01X20969731Y-22689566D01*
G01X20963635Y-22689566D01*
G01X20954237Y-22692614D01*
G01X20948141Y-22702012D01*
G01X20945093Y-22717252D01*
G01X20945093Y-22732746D01*
G01X20948141Y-22745192D01*
G01X20954237Y-22751542D01*
G01X20963635Y-22754590D01*
G01X20966683Y-22754590D01*
G01X20975827Y-22751542D01*
G01X20982177Y-22745192D01*
G01X20985225Y-22736048D01*
G01X20985225Y-22732746D01*
G01X20982177Y-22723602D01*
G01X20975827Y-22717252D01*
G01X20966683Y-22714204D01*
G01X20963635Y-22714204D01*
G01X20954237Y-22717252D01*
G01X20948141Y-22723602D01*
G01X20945093Y-22732746D01*
G01X29674820Y-15006066D02*
G01X29674820Y-15071090D01*
G01X29674820Y-15006066D02*
G01X29702760Y-15006066D01*
G01X29711904Y-15009114D01*
G01X29714952Y-15012162D01*
G01X29718254Y-15018512D01*
G01X29718254Y-15027656D01*
G01X29714952Y-15033752D01*
G01X29711904Y-15037054D01*
G01X29702760Y-15040102D01*
G01X29674820Y-15040102D01*
G01X29788612Y-15027656D02*
G01X29785564Y-15037054D01*
G01X29779214Y-15043150D01*
G01X29770070Y-15046198D01*
G01X29767022Y-15046198D01*
G01X29757624Y-15043150D01*
G01X29751528Y-15037054D01*
G01X29748480Y-15027656D01*
G01X29748480Y-15024608D01*
G01X29751528Y-15015210D01*
G01X29757624Y-15009114D01*
G01X29767022Y-15006066D01*
G01X29770070Y-15006066D01*
G01X29779214Y-15009114D01*
G01X29785564Y-15015210D01*
G01X29788612Y-15027656D01*
G01X29788612Y-15043150D01*
G01X29785564Y-15058644D01*
G01X29779214Y-15068042D01*
G01X29770070Y-15071090D01*
G01X29763720Y-15071090D01*
G01X29754576Y-15068042D01*
G01X29751528Y-15061692D01*
G01X29624020Y-16263366D02*
G01X29624020Y-16328390D01*
G01X29624020Y-16263366D02*
G01X29651960Y-16263366D01*
G01X29661104Y-16266414D01*
G01X29664152Y-16269462D01*
G01X29667454Y-16275812D01*
G01X29667454Y-16284956D01*
G01X29664152Y-16291052D01*
G01X29661104Y-16294354D01*
G01X29651960Y-16297402D01*
G01X29624020Y-16297402D01*
G01X29697680Y-16275812D02*
G01X29703776Y-16272510D01*
G01X29712920Y-16263366D01*
G01X29712920Y-16328390D01*
G01X29761688Y-16263366D02*
G01X29752290Y-16266414D01*
G01X29746194Y-16275812D01*
G01X29743146Y-16291052D01*
G01X29743146Y-16300450D01*
G01X29746194Y-16315944D01*
G01X29752290Y-16325342D01*
G01X29761688Y-16328390D01*
G01X29767784Y-16328390D01*
G01X29777182Y-16325342D01*
G01X29783278Y-16315944D01*
G01X29786326Y-16300450D01*
G01X29786326Y-16291052D01*
G01X29783278Y-16275812D01*
G01X29777182Y-16266414D01*
G01X29767784Y-16263366D01*
G01X29761688Y-16263366D01*
G01X14130020Y-20721066D02*
G01X14130020Y-20786090D01*
G01X14130020Y-20721066D02*
G01X14157960Y-20721066D01*
G01X14167104Y-20724114D01*
G01X14170152Y-20727162D01*
G01X14173454Y-20733512D01*
G01X14173454Y-20739608D01*
G01X14170152Y-20745704D01*
G01X14167104Y-20748752D01*
G01X14157960Y-20752054D01*
G01X14130020Y-20752054D01*
G01X14151610Y-20752054D02*
G01X14173454Y-20786090D01*
G01X14203680Y-20733512D02*
G01X14209776Y-20730210D01*
G01X14218920Y-20721066D01*
G01X14218920Y-20786090D01*
G01X14279880Y-20721066D02*
G01X14249146Y-20764246D01*
G01X14295374Y-20764246D01*
G01X14279880Y-20721066D02*
G01X14279880Y-20786090D01*
G01X12961620Y-18219166D02*
G01X12961620Y-18284190D01*
G01X12961620Y-18219166D02*
G01X12989560Y-18219166D01*
G01X12998704Y-18222214D01*
G01X13001752Y-18225262D01*
G01X13005054Y-18231612D01*
G01X13005054Y-18237708D01*
G01X13001752Y-18243804D01*
G01X12998704Y-18246852D01*
G01X12989560Y-18250154D01*
G01X12961620Y-18250154D01*
G01X12983210Y-18250154D02*
G01X13005054Y-18284190D01*
G01X13035280Y-18231612D02*
G01X13041376Y-18228310D01*
G01X13050520Y-18219166D01*
G01X13050520Y-18284190D01*
G01X13117830Y-18219166D02*
G01X13086842Y-18219166D01*
G01X13083794Y-18246852D01*
G01X13086842Y-18243804D01*
G01X13095986Y-18240756D01*
G01X13105384Y-18240756D01*
G01X13114782Y-18243804D01*
G01X13120878Y-18250154D01*
G01X13123926Y-18259298D01*
G01X13123926Y-18265648D01*
G01X13120878Y-18274792D01*
G01X13114782Y-18281142D01*
G01X13105384Y-18284190D01*
G01X13095986Y-18284190D01*
G01X13086842Y-18281142D01*
G01X13083794Y-18277840D01*
G01X13080746Y-18271744D01*
G01X19893534Y-21877020D02*
G01X19828510Y-21877020D01*
G01X19893534Y-21877020D02*
G01X19893534Y-21904960D01*
G01X19890486Y-21914104D01*
G01X19887438Y-21917152D01*
G01X19881088Y-21920454D01*
G01X19874992Y-21920454D01*
G01X19868896Y-21917152D01*
G01X19865848Y-21914104D01*
G01X19862546Y-21904960D01*
G01X19862546Y-21877020D01*
G01X19862546Y-21898610D02*
G01X19828510Y-21920454D01*
G01X19881088Y-21950680D02*
G01X19884390Y-21956776D01*
G01X19893534Y-21965920D01*
G01X19828510Y-21965920D01*
G01X19884390Y-22033230D02*
G01X19890486Y-22030182D01*
G01X19893534Y-22020784D01*
G01X19893534Y-22014688D01*
G01X19890486Y-22005290D01*
G01X19881088Y-21999194D01*
G01X19865848Y-21996146D01*
G01X19850354Y-21996146D01*
G01X19837908Y-21999194D01*
G01X19831558Y-22005290D01*
G01X19828510Y-22014688D01*
G01X19828510Y-22017736D01*
G01X19831558Y-22026880D01*
G01X19837908Y-22033230D01*
G01X19847052Y-22036278D01*
G01X19850354Y-22036278D01*
G01X19859498Y-22033230D01*
G01X19865848Y-22026880D01*
G01X19868896Y-22017736D01*
G01X19868896Y-22014688D01*
G01X19865848Y-22005290D01*
G01X19859498Y-21999194D01*
G01X19850354Y-21996146D01*
G01X17761966Y-23512780D02*
G01X17826990Y-23512780D01*
G01X17761966Y-23512780D02*
G01X17761966Y-23484840D01*
G01X17765014Y-23475696D01*
G01X17768062Y-23472648D01*
G01X17774412Y-23469346D01*
G01X17780508Y-23469346D01*
G01X17786604Y-23472648D01*
G01X17789652Y-23475696D01*
G01X17792954Y-23484840D01*
G01X17792954Y-23512780D01*
G01X17792954Y-23491190D02*
G01X17826990Y-23469346D01*
G01X17774412Y-23439120D02*
G01X17771110Y-23433024D01*
G01X17761966Y-23423880D01*
G01X17826990Y-23423880D01*
G01X17761966Y-23350474D02*
G01X17826990Y-23381462D01*
G01X17761966Y-23393654D02*
G01X17761966Y-23350474D01*
G01X15056165Y-12792072D02*
G01X15121189Y-12792072D01*
G01X15056165Y-12792072D02*
G01X15056165Y-12764132D01*
G01X15059213Y-12754988D01*
G01X15062261Y-12751940D01*
G01X15068611Y-12748638D01*
G01X15074707Y-12748638D01*
G01X15080803Y-12751940D01*
G01X15083851Y-12754988D01*
G01X15087153Y-12764132D01*
G01X15087153Y-12792072D01*
G01X15087153Y-12770482D02*
G01X15121189Y-12748638D01*
G01X15068611Y-12718412D02*
G01X15065309Y-12712316D01*
G01X15056165Y-12703172D01*
G01X15121189Y-12703172D01*
G01X15056165Y-12657706D02*
G01X15059213Y-12666850D01*
G01X15065309Y-12669898D01*
G01X15071659Y-12669898D01*
G01X15077755Y-12666850D01*
G01X15080803Y-12660754D01*
G01X15083851Y-12648308D01*
G01X15087153Y-12638910D01*
G01X15093249Y-12632814D01*
G01X15099345Y-12629766D01*
G01X15108743Y-12629766D01*
G01X15114839Y-12632814D01*
G01X15118141Y-12635862D01*
G01X15121189Y-12645260D01*
G01X15121189Y-12657706D01*
G01X15118141Y-12666850D01*
G01X15114839Y-12669898D01*
G01X15108743Y-12672946D01*
G01X15099345Y-12672946D01*
G01X15093249Y-12669898D01*
G01X15087153Y-12663802D01*
G01X15083851Y-12654404D01*
G01X15080803Y-12642212D01*
G01X15077755Y-12635862D01*
G01X15071659Y-12632814D01*
G01X15065309Y-12632814D01*
G01X15059213Y-12635862D01*
G01X15056165Y-12645260D01*
G01X15056165Y-12657706D01*
G01X28912820Y-12554966D02*
G01X28912820Y-12619990D01*
G01X28912820Y-12554966D02*
G01X28940760Y-12554966D01*
G01X28949904Y-12558014D01*
G01X28952952Y-12561062D01*
G01X28956254Y-12567412D01*
G01X28956254Y-12573508D01*
G01X28952952Y-12579604D01*
G01X28949904Y-12582652D01*
G01X28940760Y-12585954D01*
G01X28912820Y-12585954D01*
G01X28934410Y-12585954D02*
G01X28956254Y-12619990D01*
G01X28986480Y-12567412D02*
G01X28992576Y-12564110D01*
G01X29001720Y-12554966D01*
G01X29001720Y-12619990D01*
G01X29072078Y-12576556D02*
G01X29069030Y-12585954D01*
G01X29062680Y-12592050D01*
G01X29053536Y-12595098D01*
G01X29050488Y-12595098D01*
G01X29041090Y-12592050D01*
G01X29034994Y-12585954D01*
G01X29031946Y-12576556D01*
G01X29031946Y-12573508D01*
G01X29034994Y-12564110D01*
G01X29041090Y-12558014D01*
G01X29050488Y-12554966D01*
G01X29053536Y-12554966D01*
G01X29062680Y-12558014D01*
G01X29069030Y-12564110D01*
G01X29072078Y-12576556D01*
G01X29072078Y-12592050D01*
G01X29069030Y-12607544D01*
G01X29062680Y-12616942D01*
G01X29053536Y-12619990D01*
G01X29047186Y-12619990D01*
G01X29038042Y-12616942D01*
G01X29034994Y-12610592D01*
G01X29881627Y-21995735D02*
G01X29928109Y-21995735D01*
G01X29937253Y-21992687D01*
G01X29943603Y-21986337D01*
G01X29946651Y-21977193D01*
G01X29946651Y-21970843D01*
G01X29943603Y-21961699D01*
G01X29937253Y-21955603D01*
G01X29928109Y-21952301D01*
G01X29881627Y-21952301D01*
G01X29903217Y-21881943D02*
G01X29912615Y-21884991D01*
G01X29918711Y-21891341D01*
G01X29921759Y-21900485D01*
G01X29921759Y-21903533D01*
G01X29918711Y-21912931D01*
G01X29912615Y-21919027D01*
G01X29903217Y-21922075D01*
G01X29900169Y-21922075D01*
G01X29890771Y-21919027D01*
G01X29884675Y-21912931D01*
G01X29881627Y-21903533D01*
G01X29881627Y-21900485D01*
G01X29884675Y-21891341D01*
G01X29890771Y-21884991D01*
G01X29903217Y-21881943D01*
G01X29918711Y-21881943D01*
G01X29934205Y-21884991D01*
G01X29943603Y-21891341D01*
G01X29946651Y-21900485D01*
G01X29946651Y-21906835D01*
G01X29943603Y-21915979D01*
G01X29937253Y-21919027D01*
G01X14536420Y-19374866D02*
G01X14536420Y-19421348D01*
G01X14539468Y-19430492D01*
G01X14545818Y-19436842D01*
G01X14554962Y-19439890D01*
G01X14561312Y-19439890D01*
G01X14570456Y-19436842D01*
G01X14576552Y-19430492D01*
G01X14579854Y-19421348D01*
G01X14579854Y-19374866D01*
G01X14610080Y-19387312D02*
G01X14616176Y-19384010D01*
G01X14625320Y-19374866D01*
G01X14625320Y-19439890D01*
G01X14674088Y-19374866D02*
G01X14664690Y-19377914D01*
G01X14658594Y-19387312D01*
G01X14655546Y-19402552D01*
G01X14655546Y-19411950D01*
G01X14658594Y-19427444D01*
G01X14664690Y-19436842D01*
G01X14674088Y-19439890D01*
G01X14680184Y-19439890D01*
G01X14689582Y-19436842D01*
G01X14695678Y-19427444D01*
G01X14698726Y-19411950D01*
G01X14698726Y-19402552D01*
G01X14695678Y-19387312D01*
G01X14689582Y-19377914D01*
G01X14680184Y-19374866D01*
G01X14674088Y-19374866D01*
G01X19019266Y-22636480D02*
G01X19065748Y-22636480D01*
G01X19074892Y-22633432D01*
G01X19081242Y-22627082D01*
G01X19084290Y-22617938D01*
G01X19084290Y-22611588D01*
G01X19081242Y-22602444D01*
G01X19074892Y-22596348D01*
G01X19065748Y-22593046D01*
G01X19019266Y-22593046D01*
G01X19031712Y-22562820D02*
G01X19028410Y-22556724D01*
G01X19019266Y-22547580D01*
G01X19084290Y-22547580D01*
G01X19031712Y-22517354D02*
G01X19028410Y-22511258D01*
G01X19019266Y-22502114D01*
G01X19084290Y-22502114D01*
G01X25605014Y-22391560D02*
G01X25598664Y-22385464D01*
G01X25589520Y-22382416D01*
G01X25577074Y-22382416D01*
G01X25567676Y-22385464D01*
G01X25561580Y-22391560D01*
G01X25561580Y-22397910D01*
G01X25564628Y-22404006D01*
G01X25567676Y-22407054D01*
G01X25574026Y-22410102D01*
G01X25592568Y-22416452D01*
G01X25598664Y-22419500D01*
G01X25601712Y-22422548D01*
G01X25605014Y-22428898D01*
G01X25605014Y-22438042D01*
G01X25598664Y-22444392D01*
G01X25589520Y-22447440D01*
G01X25577074Y-22447440D01*
G01X25567676Y-22444392D01*
G01X25561580Y-22438042D01*
G01X25635240Y-22382416D02*
G01X25650480Y-22447440D01*
G01X25665974Y-22382416D02*
G01X25650480Y-22447440D01*
G01X25665974Y-22382416D02*
G01X25681468Y-22447440D01*
G01X25696962Y-22382416D02*
G01X25681468Y-22447440D01*
G01X25770368Y-22382416D02*
G01X25739380Y-22447440D01*
G01X25727188Y-22382416D02*
G01X25770368Y-22382416D01*
G01X31628334Y-14917420D02*
G01X31563310Y-14917420D01*
G01X31628334Y-14917420D02*
G01X31628334Y-14945360D01*
G01X31625286Y-14954504D01*
G01X31622238Y-14957552D01*
G01X31615888Y-14960854D01*
G01X31609792Y-14960854D01*
G01X31603696Y-14957552D01*
G01X31600648Y-14954504D01*
G01X31597346Y-14945360D01*
G01X31597346Y-14917420D01*
G01X31597346Y-14939010D02*
G01X31563310Y-14960854D01*
G01X31615888Y-14991080D02*
G01X31619190Y-14997176D01*
G01X31628334Y-15006320D01*
G01X31563310Y-15006320D01*
G01X31628334Y-15042642D02*
G01X31628334Y-15076678D01*
G01X31603696Y-15058136D01*
G01X31603696Y-15067280D01*
G01X31600648Y-15073630D01*
G01X31597346Y-15076678D01*
G01X31588202Y-15079726D01*
G01X31581852Y-15079726D01*
G01X31572708Y-15076678D01*
G01X31566358Y-15070582D01*
G01X31563310Y-15061184D01*
G01X31563310Y-15051786D01*
G01X31566358Y-15042642D01*
G01X31569660Y-15039594D01*
G01X31575756Y-15036546D01*
G01X21771849Y-21656264D02*
G01X21765753Y-21659312D01*
G01X21759403Y-21665408D01*
G01X21756355Y-21671758D01*
G01X21753307Y-21680902D01*
G01X21753307Y-21696396D01*
G01X21756355Y-21705794D01*
G01X21759403Y-21711890D01*
G01X21765753Y-21718240D01*
G01X21771849Y-21721288D01*
G01X21784295Y-21721288D01*
G01X21790391Y-21718240D01*
G01X21796741Y-21711890D01*
G01X21799789Y-21705794D01*
G01X21802837Y-21696396D01*
G01X21802837Y-21680902D01*
G01X21799789Y-21671758D01*
G01X21796741Y-21665408D01*
G01X21790391Y-21659312D01*
G01X21784295Y-21656264D01*
G01X21771849Y-21656264D01*
G01X21781247Y-21708842D02*
G01X21799789Y-21727384D01*
G01X21870147Y-21665408D02*
G01X21867099Y-21659312D01*
G01X21857701Y-21656264D01*
G01X21851605Y-21656264D01*
G01X21842207Y-21659312D01*
G01X21836111Y-21668710D01*
G01X21833063Y-21683950D01*
G01X21833063Y-21699444D01*
G01X21836111Y-21711890D01*
G01X21842207Y-21718240D01*
G01X21851605Y-21721288D01*
G01X21854653Y-21721288D01*
G01X21863797Y-21718240D01*
G01X21870147Y-21711890D01*
G01X21873195Y-21702746D01*
G01X21873195Y-21699444D01*
G01X21870147Y-21690300D01*
G01X21863797Y-21683950D01*
G01X21854653Y-21680902D01*
G01X21851605Y-21680902D01*
G01X21842207Y-21683950D01*
G01X21836111Y-21690300D01*
G01X21833063Y-21699444D01*
G54D11*
G01X26367740Y-15514320D02*
G01X26465530Y-15514320D01*
G01X26412190Y-15585440D01*
G01X26438860Y-15585440D01*
G01X26456640Y-15594330D01*
G01X26465530Y-15603220D01*
G01X26474420Y-15629890D01*
G01X26474420Y-15647670D01*
G01X26465530Y-15674340D01*
G01X26447750Y-15692120D01*
G01X26421080Y-15701010D01*
G01X26394410Y-15701010D01*
G01X26367740Y-15692120D01*
G01X26358850Y-15683230D01*
G01X26349960Y-15665450D01*
G01X26537412Y-15514320D02*
G01X26608532Y-15701010D01*
G01X26679652Y-15514320D02*
G01X26608532Y-15701010D01*
G01X26760424Y-15514320D02*
G01X26858214Y-15514320D01*
G01X26804874Y-15585440D01*
G01X26831544Y-15585440D01*
G01X26849324Y-15594330D01*
G01X26858214Y-15603220D01*
G01X26867104Y-15629890D01*
G01X26867104Y-15647670D01*
G01X26858214Y-15674340D01*
G01X26840434Y-15692120D01*
G01X26813764Y-15701010D01*
G01X26787094Y-15701010D01*
G01X26760424Y-15692120D01*
G01X26751534Y-15683230D01*
G01X26742644Y-15665450D01*
G01X26365713Y-15819120D02*
G01X26463503Y-15819120D01*
G01X26410163Y-15890240D01*
G01X26436833Y-15890240D01*
G01X26454613Y-15899130D01*
G01X26463503Y-15908020D01*
G01X26472393Y-15934690D01*
G01X26472393Y-15952470D01*
G01X26463503Y-15979140D01*
G01X26445723Y-15996920D01*
G01X26419053Y-16005810D01*
G01X26392383Y-16005810D01*
G01X26365713Y-15996920D01*
G01X26356823Y-15988030D01*
G01X26347933Y-15970250D01*
G01X26535385Y-15819120D02*
G01X26606505Y-16005810D01*
G01X26677625Y-15819120D02*
G01X26606505Y-16005810D01*
G01X26758397Y-15819120D02*
G01X26856187Y-15819120D01*
G01X26802847Y-15890240D01*
G01X26829517Y-15890240D01*
G01X26847297Y-15899130D01*
G01X26856187Y-15908020D01*
G01X26865077Y-15934690D01*
G01X26865077Y-15952470D01*
G01X26856187Y-15979140D01*
G01X26838407Y-15996920D01*
G01X26811737Y-16005810D01*
G01X26785067Y-16005810D01*
G01X26758397Y-15996920D01*
G01X26749507Y-15988030D01*
G01X26740617Y-15970250D01*
G01X26365713Y-16123920D02*
G01X26463503Y-16123920D01*
G01X26410163Y-16195040D01*
G01X26436833Y-16195040D01*
G01X26454613Y-16203930D01*
G01X26463503Y-16212820D01*
G01X26472393Y-16239490D01*
G01X26472393Y-16257270D01*
G01X26463503Y-16283940D01*
G01X26445723Y-16301720D01*
G01X26419053Y-16310610D01*
G01X26392383Y-16310610D01*
G01X26365713Y-16301720D01*
G01X26356823Y-16292830D01*
G01X26347933Y-16275050D01*
G01X26535385Y-16123920D02*
G01X26606505Y-16310610D01*
G01X26677625Y-16123920D02*
G01X26606505Y-16310610D01*
G01X26758397Y-16123920D02*
G01X26856187Y-16123920D01*
G01X26802847Y-16195040D01*
G01X26829517Y-16195040D01*
G01X26847297Y-16203930D01*
G01X26856187Y-16212820D01*
G01X26865077Y-16239490D01*
G01X26865077Y-16257270D01*
G01X26856187Y-16283940D01*
G01X26838407Y-16301720D01*
G01X26811737Y-16310610D01*
G01X26785067Y-16310610D01*
G01X26758397Y-16301720D01*
G01X26749507Y-16292830D01*
G01X26740617Y-16275050D01*
G01X29354780Y-12887960D02*
G01X29168090Y-12887960D01*
G01X29354780Y-12887960D02*
G01X29168090Y-12959080D01*
G01X29354780Y-13030200D02*
G01X29168090Y-12959080D01*
G01X29354780Y-13030200D02*
G01X29168090Y-13030200D01*
G01X29328110Y-13217652D02*
G01X29345890Y-13199872D01*
G01X29354780Y-13173202D01*
G01X29354780Y-13137642D01*
G01X29345890Y-13110972D01*
G01X29328110Y-13093192D01*
G01X29310330Y-13093192D01*
G01X29292550Y-13102082D01*
G01X29283660Y-13110972D01*
G01X29274770Y-13128752D01*
G01X29256990Y-13182092D01*
G01X29248100Y-13199872D01*
G01X29239210Y-13208762D01*
G01X29221430Y-13217652D01*
G01X29194760Y-13217652D01*
G01X29176980Y-13199872D01*
G01X29168090Y-13173202D01*
G01X29168090Y-13137642D01*
G01X29176980Y-13110972D01*
G01X29194760Y-13093192D01*
G01X29319220Y-13280644D02*
G01X29328110Y-13298424D01*
G01X29354780Y-13325094D01*
G01X29168090Y-13325094D01*
G01X29062680Y-12849860D02*
G01X28875990Y-12849860D01*
G01X29062680Y-12849860D02*
G01X28875990Y-12920980D01*
G01X29062680Y-12992100D02*
G01X28875990Y-12920980D01*
G01X29062680Y-12992100D02*
G01X28875990Y-12992100D01*
G01X29036010Y-13179552D02*
G01X29053790Y-13161772D01*
G01X29062680Y-13135102D01*
G01X29062680Y-13099542D01*
G01X29053790Y-13072872D01*
G01X29036010Y-13055092D01*
G01X29018230Y-13055092D01*
G01X29000450Y-13063982D01*
G01X28991560Y-13072872D01*
G01X28982670Y-13090652D01*
G01X28964890Y-13143992D01*
G01X28956000Y-13161772D01*
G01X28947110Y-13170662D01*
G01X28929330Y-13179552D01*
G01X28902660Y-13179552D01*
G01X28884880Y-13161772D01*
G01X28875990Y-13135102D01*
G01X28875990Y-13099542D01*
G01X28884880Y-13072872D01*
G01X28902660Y-13055092D01*
G01X29018230Y-13251434D02*
G01X29027120Y-13251434D01*
G01X29044900Y-13260324D01*
G01X29053790Y-13269214D01*
G01X29062680Y-13286994D01*
G01X29062680Y-13322554D01*
G01X29053790Y-13340334D01*
G01X29044900Y-13349224D01*
G01X29027120Y-13358114D01*
G01X29009340Y-13358114D01*
G01X28991560Y-13349224D01*
G01X28964890Y-13331444D01*
G01X28875990Y-13242544D01*
G01X28875990Y-13367004D01*
G01X28795980Y-12989560D02*
G01X28609290Y-12989560D01*
G01X28795980Y-12989560D02*
G01X28609290Y-13114020D01*
G01X28795980Y-13114020D02*
G01X28609290Y-13114020D01*
G01X28751530Y-13310362D02*
G01X28769310Y-13301472D01*
G01X28787090Y-13283692D01*
G01X28795980Y-13265912D01*
G01X28795980Y-13230352D01*
G01X28787090Y-13212572D01*
G01X28769310Y-13194792D01*
G01X28751530Y-13185902D01*
G01X28724860Y-13177012D01*
G01X28680410Y-13177012D01*
G01X28653740Y-13185902D01*
G01X28635960Y-13194792D01*
G01X28618180Y-13212572D01*
G01X28609290Y-13230352D01*
G01X28609290Y-13265912D01*
G01X28618180Y-13283692D01*
G01X28635960Y-13301472D01*
G01X28653740Y-13310362D01*
G01X27862530Y-16818610D02*
G01X27880310Y-16809720D01*
G01X27898090Y-16791940D01*
G01X27906980Y-16774160D01*
G01X27906980Y-16738600D01*
G01X27898090Y-16720820D01*
G01X27880310Y-16703040D01*
G01X27862530Y-16694150D01*
G01X27835860Y-16685260D01*
G01X27791410Y-16685260D01*
G01X27764740Y-16694150D01*
G01X27746960Y-16703040D01*
G01X27729180Y-16720820D01*
G01X27720290Y-16738600D01*
G01X27720290Y-16774160D01*
G01X27729180Y-16791940D01*
G01X27746960Y-16809720D01*
G01X27764740Y-16818610D01*
G01X27791410Y-16818610D01*
G01X27791410Y-16774160D02*
G01X27791410Y-16818610D01*
G01X27906980Y-16881602D02*
G01X27720290Y-16881602D01*
G01X27906980Y-16881602D02*
G01X27720290Y-17006062D01*
G01X27906980Y-17006062D02*
G01X27720290Y-17006062D01*
G01X27906980Y-17069054D02*
G01X27720290Y-17069054D01*
G01X27906980Y-17069054D02*
G01X27906980Y-17131284D01*
G01X27898090Y-17157954D01*
G01X27880310Y-17175734D01*
G01X27862530Y-17184624D01*
G01X27835860Y-17193514D01*
G01X27791410Y-17193514D01*
G01X27764740Y-17184624D01*
G01X27746960Y-17175734D01*
G01X27729180Y-17157954D01*
G01X27720290Y-17131284D01*
G01X27720290Y-17069054D01*
G01X29437330Y-16846428D02*
G01X29455110Y-16837538D01*
G01X29472890Y-16819758D01*
G01X29481780Y-16801978D01*
G01X29481780Y-16766418D01*
G01X29472890Y-16748638D01*
G01X29455110Y-16730858D01*
G01X29437330Y-16721968D01*
G01X29410660Y-16713078D01*
G01X29366210Y-16713078D01*
G01X29339540Y-16721968D01*
G01X29321760Y-16730858D01*
G01X29303980Y-16748638D01*
G01X29295090Y-16766418D01*
G01X29295090Y-16801978D01*
G01X29303980Y-16819758D01*
G01X29321760Y-16837538D01*
G01X29339540Y-16846428D01*
G01X29366210Y-16846428D01*
G01X29366210Y-16801978D02*
G01X29366210Y-16846428D01*
G01X29481780Y-16909420D02*
G01X29295090Y-16909420D01*
G01X29481780Y-16909420D02*
G01X29295090Y-17033880D01*
G01X29481780Y-17033880D02*
G01X29295090Y-17033880D01*
G01X29481780Y-17096872D02*
G01X29295090Y-17096872D01*
G01X29481780Y-17096872D02*
G01X29481780Y-17159102D01*
G01X29472890Y-17185772D01*
G01X29455110Y-17203552D01*
G01X29437330Y-17212442D01*
G01X29410660Y-17221332D01*
G01X29366210Y-17221332D01*
G01X29339540Y-17212442D01*
G01X29321760Y-17203552D01*
G01X29303980Y-17185772D01*
G01X29295090Y-17159102D01*
G01X29295090Y-17096872D01*
G01X29192220Y-16713078D02*
G01X29201110Y-16730858D01*
G01X29227780Y-16757528D01*
G01X29041090Y-16757528D01*
G01X29227780Y-16820520D02*
G01X29041090Y-16820520D01*
G01X29227780Y-16820520D02*
G01X29227780Y-16900530D01*
G01X29218890Y-16927200D01*
G01X29210000Y-16936090D01*
G01X29192220Y-16944980D01*
G01X29174440Y-16944980D01*
G01X29156660Y-16936090D01*
G01X29147770Y-16927200D01*
G01X29138880Y-16900530D01*
G01X29138880Y-16820520D02*
G01X29138880Y-16900530D01*
G01X29129990Y-16927200D01*
G01X29121100Y-16936090D01*
G01X29103320Y-16944980D01*
G01X29076650Y-16944980D01*
G01X29058870Y-16936090D01*
G01X29049980Y-16927200D01*
G01X29041090Y-16900530D01*
G01X29041090Y-16820520D01*
G01X28938220Y-16713078D02*
G01X28947110Y-16730858D01*
G01X28973780Y-16757528D01*
G01X28787090Y-16757528D01*
G01X28973780Y-16891640D02*
G01X28787090Y-16820520D01*
G01X28973780Y-16891640D02*
G01X28787090Y-16962760D01*
G01X28849320Y-16847190D02*
G01X28849320Y-16936090D01*
G01X28662630Y-16706850D02*
G01X28671520Y-16706850D01*
G01X28689300Y-16715740D01*
G01X28698190Y-16724630D01*
G01X28707080Y-16742410D01*
G01X28707080Y-16777970D01*
G01X28698190Y-16795750D01*
G01X28689300Y-16804640D01*
G01X28671520Y-16813530D01*
G01X28653740Y-16813530D01*
G01X28635960Y-16804640D01*
G01X28609290Y-16786860D01*
G01X28520390Y-16697960D01*
G01X28520390Y-16822420D01*
G01X28707080Y-16956532D02*
G01X28520390Y-16885412D01*
G01X28707080Y-16956532D02*
G01X28520390Y-17027652D01*
G01X28582620Y-16912082D02*
G01X28582620Y-17000982D01*
G01X28408630Y-16696568D02*
G01X28417520Y-16696568D01*
G01X28435300Y-16705458D01*
G01X28444190Y-16714348D01*
G01X28453080Y-16732128D01*
G01X28453080Y-16767688D01*
G01X28444190Y-16785468D01*
G01X28435300Y-16794358D01*
G01X28417520Y-16803248D01*
G01X28399740Y-16803248D01*
G01X28381960Y-16794358D01*
G01X28355290Y-16776578D01*
G01X28266390Y-16687678D01*
G01X28266390Y-16812138D01*
G01X28453080Y-16875130D02*
G01X28266390Y-16875130D01*
G01X28453080Y-16875130D02*
G01X28453080Y-16955140D01*
G01X28444190Y-16981810D01*
G01X28435300Y-16990700D01*
G01X28417520Y-16999590D01*
G01X28399740Y-16999590D01*
G01X28381960Y-16990700D01*
G01X28373070Y-16981810D01*
G01X28364180Y-16955140D01*
G01X28364180Y-16875130D02*
G01X28364180Y-16955140D01*
G01X28355290Y-16981810D01*
G01X28346400Y-16990700D01*
G01X28328620Y-16999590D01*
G01X28301950Y-16999590D01*
G01X28284170Y-16990700D01*
G01X28275280Y-16981810D01*
G01X28266390Y-16955140D01*
G01X28266390Y-16875130D01*
G01X28186380Y-16703040D02*
G01X28186380Y-16800830D01*
G01X28115260Y-16747490D01*
G01X28115260Y-16774160D01*
G01X28106370Y-16791940D01*
G01X28097480Y-16800830D01*
G01X28070810Y-16809720D01*
G01X28053030Y-16809720D01*
G01X28026360Y-16800830D01*
G01X28008580Y-16783050D01*
G01X27999690Y-16756380D01*
G01X27999690Y-16729710D01*
G01X28008580Y-16703040D01*
G01X28017470Y-16694150D01*
G01X28035250Y-16685260D01*
G01X28186380Y-16872712D02*
G01X27999690Y-16943832D01*
G01X28186380Y-17014952D02*
G01X27999690Y-16943832D01*
G01X28186380Y-17095724D02*
G01X28186380Y-17193514D01*
G01X28115260Y-17140174D01*
G01X28115260Y-17166844D01*
G01X28106370Y-17184624D01*
G01X28097480Y-17193514D01*
G01X28070810Y-17202404D01*
G01X28053030Y-17202404D01*
G01X28026360Y-17193514D01*
G01X28008580Y-17175734D01*
G01X27999690Y-17149064D01*
G01X27999690Y-17122394D01*
G01X28008580Y-17095724D01*
G01X28017470Y-17086834D01*
G01X28035250Y-17077944D01*
G01X28694380Y-14538960D02*
G01X28507690Y-14538960D01*
G01X28694380Y-14538960D02*
G01X28694380Y-14618970D01*
G01X28685490Y-14645640D01*
G01X28676600Y-14654530D01*
G01X28658820Y-14663420D01*
G01X28632150Y-14663420D01*
G01X28614370Y-14654530D01*
G01X28605480Y-14645640D01*
G01X28596590Y-14618970D01*
G01X28596590Y-14538960D01*
G01X28694380Y-14726412D02*
G01X28507690Y-14726412D01*
G01X28694380Y-14726412D02*
G01X28694380Y-14788642D01*
G01X28685490Y-14815312D01*
G01X28667710Y-14833092D01*
G01X28649930Y-14841982D01*
G01X28623260Y-14850872D01*
G01X28578810Y-14850872D01*
G01X28552140Y-14841982D01*
G01X28534360Y-14833092D01*
G01X28516580Y-14815312D01*
G01X28507690Y-14788642D01*
G01X28507690Y-14726412D01*
G01X28694380Y-14913864D02*
G01X28507690Y-14913864D01*
G01X28694380Y-14913864D02*
G01X28507690Y-15038324D01*
G01X28694380Y-15038324D02*
G01X28507690Y-15038324D01*
G01X28383230Y-14672310D02*
G01X28401010Y-14663420D01*
G01X28418790Y-14645640D01*
G01X28427680Y-14627860D01*
G01X28427680Y-14592300D01*
G01X28418790Y-14574520D01*
G01X28401010Y-14556740D01*
G01X28383230Y-14547850D01*
G01X28356560Y-14538960D01*
G01X28312110Y-14538960D01*
G01X28285440Y-14547850D01*
G01X28267660Y-14556740D01*
G01X28249880Y-14574520D01*
G01X28240990Y-14592300D01*
G01X28240990Y-14627860D01*
G01X28249880Y-14645640D01*
G01X28267660Y-14663420D01*
G01X28285440Y-14672310D01*
G01X28427680Y-14735302D02*
G01X28240990Y-14735302D01*
G01X28240990Y-14735302D02*
G01X28240990Y-14841982D01*
G01X28427680Y-14904974D02*
G01X28240990Y-14904974D01*
G01X28427680Y-15029434D02*
G01X28303220Y-14904974D01*
G01X28347670Y-14949424D02*
G01X28240990Y-15029434D01*
G01X28134310Y-14485620D02*
G01X28152090Y-14467840D01*
G01X28160980Y-14441170D01*
G01X28160980Y-14405610D01*
G01X28152090Y-14378940D01*
G01X28134310Y-14361160D01*
G01X28116530Y-14361160D01*
G01X28098750Y-14370050D01*
G01X28089860Y-14378940D01*
G01X28080970Y-14396720D01*
G01X28063190Y-14450060D01*
G01X28054300Y-14467840D01*
G01X28045410Y-14476730D01*
G01X28027630Y-14485620D01*
G01X28000960Y-14485620D01*
G01X27983180Y-14467840D01*
G01X27974290Y-14441170D01*
G01X27974290Y-14405610D01*
G01X27983180Y-14378940D01*
G01X28000960Y-14361160D01*
G01X28160980Y-14610842D02*
G01X27974290Y-14610842D01*
G01X28160980Y-14548612D02*
G01X28160980Y-14673072D01*
G01X28160980Y-14736064D02*
G01X27974290Y-14736064D01*
G01X28160980Y-14736064D02*
G01X28160980Y-14851634D01*
G01X28072080Y-14736064D02*
G01X28072080Y-14807184D01*
G01X27974290Y-14736064D02*
G01X27974290Y-14851634D01*
G01X28160980Y-14914626D02*
G01X27974290Y-14914626D01*
G01X28160980Y-14914626D02*
G01X28160980Y-14994636D01*
G01X28152090Y-15021306D01*
G01X28143200Y-15030196D01*
G01X28125420Y-15039086D01*
G01X28098750Y-15039086D01*
G01X28080970Y-15030196D01*
G01X28072080Y-15021306D01*
G01X28063190Y-14994636D01*
G01X28063190Y-14914626D01*
G01X27906980Y-14653260D02*
G01X27720290Y-14653260D01*
G01X27906980Y-14653260D02*
G01X27906980Y-14715490D01*
G01X27898090Y-14742160D01*
G01X27880310Y-14759940D01*
G01X27862530Y-14768830D01*
G01X27835860Y-14777720D01*
G01X27791410Y-14777720D01*
G01X27764740Y-14768830D01*
G01X27746960Y-14759940D01*
G01X27729180Y-14742160D01*
G01X27720290Y-14715490D01*
G01X27720290Y-14653260D01*
G01X27906980Y-14840712D02*
G01X27720290Y-14840712D01*
G01X27906980Y-14903704D02*
G01X27720290Y-14903704D01*
G01X27906980Y-14903704D02*
G01X27906980Y-14983714D01*
G01X27898090Y-15010384D01*
G01X27889200Y-15019274D01*
G01X27871420Y-15028164D01*
G01X27853640Y-15028164D01*
G01X27835860Y-15019274D01*
G01X27826970Y-15010384D01*
G01X27818080Y-14983714D01*
G01X27818080Y-14903704D01*
G01X27818080Y-14965934D02*
G01X27720290Y-15028164D01*
G01X29761180Y-13916660D02*
G01X29574490Y-13916660D01*
G01X29761180Y-13916660D02*
G01X29761180Y-14032230D01*
G01X29672280Y-13916660D02*
G01X29672280Y-13987780D01*
G01X29574490Y-13916660D02*
G01X29574490Y-14032230D01*
G01X29761180Y-14095222D02*
G01X29574490Y-14095222D01*
G01X29761180Y-14095222D02*
G01X29574490Y-14219682D01*
G01X29761180Y-14219682D02*
G01X29574490Y-14219682D01*
G01X29761180Y-14353794D02*
G01X29574490Y-14282674D01*
G01X29761180Y-14353794D02*
G01X29574490Y-14424914D01*
G01X29636720Y-14309344D02*
G01X29636720Y-14398244D01*
G01X29761180Y-14487906D02*
G01X29574490Y-14487906D01*
G01X29761180Y-14487906D02*
G01X29761180Y-14567916D01*
G01X29752290Y-14594586D01*
G01X29743400Y-14603476D01*
G01X29725620Y-14612366D01*
G01X29707840Y-14612366D01*
G01X29690060Y-14603476D01*
G01X29681170Y-14594586D01*
G01X29672280Y-14567916D01*
G01X29672280Y-14487906D02*
G01X29672280Y-14567916D01*
G01X29663390Y-14594586D01*
G01X29654500Y-14603476D01*
G01X29636720Y-14612366D01*
G01X29610050Y-14612366D01*
G01X29592270Y-14603476D01*
G01X29583380Y-14594586D01*
G01X29574490Y-14567916D01*
G01X29574490Y-14487906D01*
G01X29761180Y-14675358D02*
G01X29574490Y-14675358D01*
G01X29574490Y-14675358D02*
G01X29574490Y-14782038D01*
G01X29761180Y-14845030D02*
G01X29574490Y-14845030D01*
G01X29761180Y-14845030D02*
G01X29761180Y-14960600D01*
G01X29672280Y-14845030D02*
G01X29672280Y-14916150D01*
G01X29574490Y-14845030D02*
G01X29574490Y-14960600D01*
G01X31712413Y-15146020D02*
G01X31810203Y-15146020D01*
G01X31756863Y-15217140D01*
G01X31783533Y-15217140D01*
G01X31801313Y-15226030D01*
G01X31810203Y-15234920D01*
G01X31819093Y-15261590D01*
G01X31819093Y-15279370D01*
G01X31810203Y-15306040D01*
G01X31792423Y-15323820D01*
G01X31765753Y-15332710D01*
G01X31739083Y-15332710D01*
G01X31712413Y-15323820D01*
G01X31703523Y-15314930D01*
G01X31694633Y-15297150D01*
G01X31882085Y-15146020D02*
G01X31953205Y-15332710D01*
G01X32024325Y-15146020D02*
G01X31953205Y-15332710D01*
G01X32105097Y-15146020D02*
G01X32202887Y-15146020D01*
G01X32149547Y-15217140D01*
G01X32176217Y-15217140D01*
G01X32193997Y-15226030D01*
G01X32202887Y-15234920D01*
G01X32211777Y-15261590D01*
G01X32211777Y-15279370D01*
G01X32202887Y-15306040D01*
G01X32185107Y-15323820D01*
G01X32158437Y-15332710D01*
G01X32131767Y-15332710D01*
G01X32105097Y-15323820D01*
G01X32096207Y-15314930D01*
G01X32087317Y-15297150D01*
G01X31832428Y-16269970D02*
G01X31823538Y-16252190D01*
G01X31805758Y-16234410D01*
G01X31787978Y-16225520D01*
G01X31752418Y-16225520D01*
G01X31734638Y-16234410D01*
G01X31716858Y-16252190D01*
G01X31707968Y-16269970D01*
G01X31699078Y-16296640D01*
G01X31699078Y-16341090D01*
G01X31707968Y-16367760D01*
G01X31716858Y-16385540D01*
G01X31734638Y-16403320D01*
G01X31752418Y-16412210D01*
G01X31787978Y-16412210D01*
G01X31805758Y-16403320D01*
G01X31823538Y-16385540D01*
G01X31832428Y-16367760D01*
G01X31832428Y-16341090D01*
G01X31787978Y-16341090D02*
G01X31832428Y-16341090D01*
G01X31895420Y-16225520D02*
G01X31895420Y-16412210D01*
G01X31895420Y-16225520D02*
G01X32019880Y-16412210D01*
G01X32019880Y-16225520D02*
G01X32019880Y-16412210D01*
G01X32082872Y-16225520D02*
G01X32082872Y-16412210D01*
G01X32082872Y-16225520D02*
G01X32145102Y-16225520D01*
G01X32171772Y-16234410D01*
G01X32189552Y-16252190D01*
G01X32198442Y-16269970D01*
G01X32207332Y-16296640D01*
G01X32207332Y-16341090D01*
G01X32198442Y-16367760D01*
G01X32189552Y-16385540D01*
G01X32171772Y-16403320D01*
G01X32145102Y-16412210D01*
G01X32082872Y-16412210D01*
G01X31825216Y-15736570D02*
G01X31816326Y-15718790D01*
G01X31798546Y-15701010D01*
G01X31780766Y-15692120D01*
G01X31745206Y-15692120D01*
G01X31727426Y-15701010D01*
G01X31709646Y-15718790D01*
G01X31700756Y-15736570D01*
G01X31691866Y-15763240D01*
G01X31691866Y-15807690D01*
G01X31700756Y-15834360D01*
G01X31709646Y-15852140D01*
G01X31727426Y-15869920D01*
G01X31745206Y-15878810D01*
G01X31780766Y-15878810D01*
G01X31798546Y-15869920D01*
G01X31816326Y-15852140D01*
G01X31825216Y-15834360D01*
G01X31825216Y-15807690D01*
G01X31780766Y-15807690D02*
G01X31825216Y-15807690D01*
G01X31888208Y-15692120D02*
G01X31888208Y-15878810D01*
G01X31888208Y-15692120D02*
G01X31968218Y-15692120D01*
G01X31994888Y-15701010D01*
G01X32003778Y-15709900D01*
G01X32012668Y-15727680D01*
G01X32012668Y-15754350D01*
G01X32003778Y-15772130D01*
G01X31994888Y-15781020D01*
G01X31968218Y-15789910D01*
G01X31888208Y-15789910D01*
G01X32075660Y-15692120D02*
G01X32075660Y-15878810D01*
G01X32191992Y-15692120D02*
G01X32174212Y-15701010D01*
G01X32156432Y-15718790D01*
G01X32147542Y-15736570D01*
G01X32138652Y-15763240D01*
G01X32138652Y-15807690D01*
G01X32147542Y-15834360D01*
G01X32156432Y-15852140D01*
G01X32174212Y-15869920D01*
G01X32191992Y-15878810D01*
G01X32227552Y-15878810D01*
G01X32245332Y-15869920D01*
G01X32263112Y-15852140D01*
G01X32272002Y-15834360D01*
G01X32280892Y-15807690D01*
G01X32280892Y-15763240D01*
G01X32272002Y-15736570D01*
G01X32263112Y-15718790D01*
G01X32245332Y-15701010D01*
G01X32227552Y-15692120D01*
G01X32191992Y-15692120D01*
G01X32343884Y-15727680D02*
G01X32361664Y-15718790D01*
G01X32388334Y-15692120D01*
G01X32388334Y-15878810D01*
G54D10*
G01X22616160Y-22393656D02*
G01X22630384Y-22386544D01*
G01X22644862Y-22372066D01*
G01X22651974Y-22357842D01*
G01X22651974Y-22329140D01*
G01X22644862Y-22314662D01*
G01X22630384Y-22300438D01*
G01X22616160Y-22293072D01*
G01X22594570Y-22285960D01*
G01X22558756Y-22285960D01*
G01X22537166Y-22293072D01*
G01X22522942Y-22300438D01*
G01X22508464Y-22314662D01*
G01X22501352Y-22329140D01*
G01X22501352Y-22357842D01*
G01X22508464Y-22372066D01*
G01X22522942Y-22386544D01*
G01X22537166Y-22393656D01*
G01X22558756Y-22393656D01*
G01X22558756Y-22357842D02*
G01X22558756Y-22393656D01*
G01X22651974Y-22448520D02*
G01X22501352Y-22448520D01*
G01X22651974Y-22448520D02*
G01X22501352Y-22548850D01*
G01X22651974Y-22548850D02*
G01X22501352Y-22548850D01*
G01X22651974Y-22603714D02*
G01X22501352Y-22603714D01*
G01X22651974Y-22603714D02*
G01X22651974Y-22653752D01*
G01X22644862Y-22675342D01*
G01X22630384Y-22689820D01*
G01X22616160Y-22696932D01*
G01X22594570Y-22704044D01*
G01X22558756Y-22704044D01*
G01X22537166Y-22696932D01*
G01X22522942Y-22689820D01*
G01X22508464Y-22675342D01*
G01X22501352Y-22653752D01*
G01X22501352Y-22603714D01*
G54D12*
G01X13119862Y-21851366D02*
G01X13113766Y-21854414D01*
G01X13107416Y-21860510D01*
G01X13104368Y-21866860D01*
G01X13101320Y-21876004D01*
G01X13101320Y-21891498D01*
G01X13104368Y-21900896D01*
G01X13107416Y-21906992D01*
G01X13113766Y-21913342D01*
G01X13119862Y-21916390D01*
G01X13132308Y-21916390D01*
G01X13138404Y-21913342D01*
G01X13144754Y-21906992D01*
G01X13147802Y-21900896D01*
G01X13150850Y-21891498D01*
G01X13150850Y-21876004D01*
G01X13147802Y-21866860D01*
G01X13144754Y-21860510D01*
G01X13138404Y-21854414D01*
G01X13132308Y-21851366D01*
G01X13119862Y-21851366D01*
G01X13129260Y-21903944D02*
G01X13147802Y-21922486D01*
G01X13218160Y-21851366D02*
G01X13187172Y-21851366D01*
G01X13184124Y-21879052D01*
G01X13187172Y-21876004D01*
G01X13196316Y-21872956D01*
G01X13205714Y-21872956D01*
G01X13215112Y-21876004D01*
G01X13221208Y-21882354D01*
G01X13224256Y-21891498D01*
G01X13224256Y-21897848D01*
G01X13221208Y-21906992D01*
G01X13215112Y-21913342D01*
G01X13205714Y-21916390D01*
G01X13196316Y-21916390D01*
G01X13187172Y-21913342D01*
G01X13184124Y-21910040D01*
G01X13181076Y-21903944D01*
G04 Text End*

G04 PolygonModel Start*
G54D13*
G01X10834217Y-16852900D02*
G01X16065500Y-16852900D01*
G01X16065500Y-24747119D01*
G01X10833100Y-14387139D02*
G01X16065500Y-14387139D01*
G01X16065500Y-16852900D01*
G01X16065500Y-14361739D02*
G01X16065500Y-10160000D01*
G01X32917738Y-19761200D02*
G01X16065500Y-19793101D01*
G01X24316617Y-19793101D02*
G01X24320500Y-24749025D01*
G01X24316617Y-19793101D02*
G01X24320500Y-10162484D01*
G01X16065500Y-14387139D02*
G01X24316617Y-14387139D01*
G01X20106773Y-14387139D02*
G01X20104100Y-10160000D01*
G01X13157200Y-12670307D02*
G01X13157200Y-12820995D01*
G01X13157200Y-12820995D02*
G01X12425202Y-12820995D01*
G01X12425202Y-12820995D02*
G01X12425202Y-12070994D01*
G01X12425202Y-12070994D02*
G01X13157200Y-12070994D01*
G01X13157200Y-12070994D02*
G01X13157200Y-12221677D01*
G54D10*
G01X29171900Y-13639800D02*
G01X29362400Y-13639800D01*
G01X29362400Y-13639800D02*
G01X29362400Y-13385800D01*
G01X29362400Y-13385800D02*
G01X28600400Y-13385800D01*
G01X28600400Y-13385800D02*
G01X28600400Y-13639800D01*
G54D11*
G01X28600400Y-13639800D02*
G01X29171900Y-13639800D01*
G54D10*
G01X27254200Y-15735300D02*
G01X27254200Y-15544800D01*
G01X27254200Y-15544800D02*
G01X27000200Y-15544800D01*
G01X27000200Y-15544800D02*
G01X27000200Y-16306800D01*
G01X27000200Y-16306800D02*
G01X27254200Y-16306800D01*
G54D11*
G01X27254200Y-16306800D02*
G01X27254200Y-15735300D01*
G54D13*
G01X28852048Y-18008600D02*
G01X28092400Y-18008600D01*
G01X28092400Y-18008600D02*
G01X28092400Y-17754600D01*
G01X28092400Y-17754600D02*
G01X29108400Y-17754600D01*
G01X29108400Y-17754600D02*
G01X29108400Y-18008600D01*
G01X29108400Y-18008600D02*
G01X28852048Y-18008600D01*
G01X28852048Y-18008600D02*
G01X28852048Y-17754600D01*
G01X13304596Y-15100704D02*
G01X13304596Y-16166699D01*
G01X13304596Y-16166696D02*
G01X13060604Y-16166699D01*
G01X13060604Y-16166699D02*
G01X13060604Y-15100704D01*
G01X13060604Y-15100704D02*
G01X13304596Y-15100701D01*
G01X21133201Y-12484100D02*
G01X22453201Y-12484100D01*
G01X22453201Y-12484100D02*
G01X22453201Y-12230100D01*
G01X22453201Y-12230100D02*
G01X21133199Y-12230100D01*
G01X21133199Y-12230100D02*
G01X21133199Y-12484100D01*
G01X22169356Y-12484100D02*
G01X22169356Y-12230100D01*
G01X17635658Y-13550406D02*
G01X17635658Y-13296406D01*
G01X18693660Y-13550406D02*
G01X17635658Y-13550406D01*
G01X18416307Y-13550406D02*
G01X18416307Y-13296406D01*
G01X18693660Y-13296406D02*
G01X17635658Y-13296406D01*
G01X18693660Y-13550406D02*
G01X18693660Y-13296406D01*
G54D10*
G01X21297925Y-19202413D02*
G01X21297925Y-19220447D01*
G01X21297925Y-19220447D02*
G01X21043925Y-19220447D01*
G01X21043925Y-19220447D02*
G01X21043925Y-15115299D01*
G01X21043925Y-15115299D02*
G01X21297925Y-15115299D01*
G01X21297925Y-15115299D02*
G01X21297925Y-15328913D01*
G54D11*
G01X21297913Y-19202400D02*
G01X21297913Y-15328900D01*
G54D10*
G01X19011925Y-19202413D02*
G01X19011925Y-19220447D01*
G01X19011925Y-19220447D02*
G01X18757925Y-19220447D01*
G01X18757925Y-19220447D02*
G01X18757925Y-15115299D01*
G01X18757925Y-15115299D02*
G01X19011925Y-15115299D01*
G01X19011925Y-15115299D02*
G01X19011925Y-15328913D01*
G54D11*
G01X19011913Y-19202400D02*
G01X19011913Y-15328900D01*
G54D13*
G01X13105702Y-23969218D02*
G01X13105702Y-23778210D01*
G01X13105702Y-23778210D02*
G01X13076238Y-23749000D01*
G01X13076238Y-23749000D02*
G01X12907328Y-23749000D01*
G01X12907328Y-23749000D02*
G01X12873038Y-23783036D01*
G01X12873038Y-23783036D02*
G01X12873038Y-23969218D01*
G01X13605701Y-23969218D02*
G01X13605701Y-23778210D01*
G01X13605701Y-23778210D02*
G01X13576237Y-23749000D01*
G01X13576237Y-23749000D02*
G01X13407327Y-23749000D01*
G01X13407327Y-23749000D02*
G01X13373037Y-23783036D01*
G01X13373037Y-23783036D02*
G01X13373037Y-23969218D01*
G01X12733401Y-23969299D02*
G01X12733401Y-23209296D01*
G01X13733402Y-23969299D02*
G01X12733401Y-23969299D01*
G01X13733402Y-23414622D02*
G01X12733401Y-23414622D01*
G01X13733402Y-23209296D02*
G01X12733401Y-23209296D01*
G01X13733402Y-23969299D02*
G01X13733402Y-23209296D01*
G36*
G01X12733401Y-23374299D02*
G01X12673401Y-23389300D01*
G01X12673401Y-23309301D01*
G01X12733401Y-23324302D01*
G01X12733401Y-23374299D01*
G37*
G01X22491002Y-23499318D02*
G01X22491002Y-23308310D01*
G01X22491002Y-23308310D02*
G01X22461538Y-23279100D01*
G01X22461538Y-23279100D02*
G01X22292628Y-23279100D01*
G01X22292628Y-23279100D02*
G01X22258338Y-23313136D01*
G01X22258338Y-23313136D02*
G01X22258338Y-23499318D01*
G01X22991001Y-23499318D02*
G01X22991001Y-23308310D01*
G01X22991001Y-23308310D02*
G01X22961537Y-23279100D01*
G01X22961537Y-23279100D02*
G01X22792627Y-23279100D01*
G01X22792627Y-23279100D02*
G01X22758337Y-23313136D01*
G01X22758337Y-23313136D02*
G01X22758337Y-23499318D01*
G01X22118701Y-23499399D02*
G01X22118701Y-22739396D01*
G01X23118702Y-23499399D02*
G01X22118701Y-23499399D01*
G01X23118702Y-22944722D02*
G01X22118701Y-22944722D01*
G01X23118702Y-22739396D02*
G01X22118701Y-22739396D01*
G01X23118702Y-23499399D02*
G01X23118702Y-22739396D01*
G36*
G01X22118701Y-22904399D02*
G01X22058701Y-22919400D01*
G01X22058701Y-22839401D01*
G01X22118701Y-22854402D01*
G01X22118701Y-22904399D01*
G37*
G01X30712918Y-23051198D02*
G01X30521910Y-23051198D01*
G01X30521910Y-23051198D02*
G01X30492700Y-23080662D01*
G01X30492700Y-23080662D02*
G01X30492700Y-23249572D01*
G01X30492700Y-23249572D02*
G01X30526736Y-23283862D01*
G01X30526736Y-23283862D02*
G01X30712918Y-23283862D01*
G01X30712918Y-22551199D02*
G01X30521910Y-22551199D01*
G01X30521910Y-22551199D02*
G01X30492700Y-22580663D01*
G01X30492700Y-22580663D02*
G01X30492700Y-22749573D01*
G01X30492700Y-22749573D02*
G01X30526736Y-22783863D01*
G01X30526736Y-22783863D02*
G01X30712918Y-22783863D01*
G01X30712999Y-23423499D02*
G01X29952996Y-23423499D01*
G01X30712999Y-22423498D02*
G01X30712999Y-23423499D01*
G01X30158322Y-22423498D02*
G01X30158322Y-23423499D01*
G01X29952996Y-22423498D02*
G01X29952996Y-23423499D01*
G01X30712999Y-22423498D02*
G01X29952996Y-22423498D01*
G36*
G01X30117999Y-23423499D02*
G01X30133000Y-23483499D01*
G01X30053001Y-23483499D01*
G01X30068002Y-23423499D01*
G01X30117999Y-23423499D01*
G37*
G01X14020013Y-12700000D02*
G01X14122400Y-12700000D01*
G01X14122400Y-12700000D02*
G01X14122400Y-12192000D01*
G01X13843785Y-12192000D02*
G01X13741400Y-12192000D01*
G01X13741400Y-12192000D02*
G01X13741400Y-12700000D01*
G01X13741400Y-12700000D02*
G01X13843785Y-12700000D01*
G01X14122400Y-12192000D02*
G01X14020013Y-12192000D01*
G01X26983690Y-18035280D02*
G01X26983690Y-18159745D01*
G01X27050997Y-18097515D02*
G01X26916377Y-18097515D01*
G01X25911810Y-21118820D02*
G01X25911810Y-20994355D01*
G01X25844503Y-21056585D02*
G01X25979123Y-21056585D01*
G01X22925900Y-21982727D02*
G01X22925900Y-22139054D01*
G01X23225900Y-21629073D02*
G01X23225900Y-21472746D01*
G01X23225900Y-22255902D02*
G01X22925900Y-22255902D01*
G01X22925900Y-21355898D02*
G01X23225900Y-21355898D01*
G01X23225900Y-21355898D02*
G01X23225900Y-21472746D01*
G01X23225900Y-21629073D02*
G01X23225900Y-22255902D01*
G01X22925900Y-21355898D02*
G01X22925900Y-21982727D01*
G01X22925900Y-22139054D02*
G01X22925900Y-22255902D01*
G01X23075900Y-21661023D02*
G01X23075900Y-21691600D01*
G01X23075900Y-21950777D02*
G01X23075900Y-21920200D01*
G01X23075900Y-21691600D02*
G02X23075900Y-21805900I0J-57150D01*
G01X23075900Y-21920200D02*
G02X23075900Y-21805900I0J57150D01*
G01X28475399Y-18793612D02*
G01X28475399Y-18493613D01*
G01X29995398Y-18493613D02*
G01X29995401Y-18793612D01*
G01X29995401Y-18793612D02*
G01X29575536Y-18793612D01*
G01X29395263Y-18793612D02*
G01X28475399Y-18793612D01*
G01X29995398Y-18493613D02*
G01X29075550Y-18493613D01*
G01X28895251Y-18493613D02*
G01X28475399Y-18493613D01*
G01X29461059Y-18643600D02*
G01X29362400Y-18643600D01*
G01X29009741Y-18643600D02*
G01X29108400Y-18643600D01*
G01X29362400Y-18643600D02*
G02X29235400Y-18643600I-63500J0D01*
G01X29108400Y-18643600D02*
G02X29235489Y-18643562I63545J-382D01*
G01X28434327Y-22768700D02*
G01X28590654Y-22768700D01*
G01X28080673Y-22468700D02*
G01X27924346Y-22468700D01*
G01X28707502Y-22468700D02*
G01X28707502Y-22768700D01*
G01X27807498Y-22768700D02*
G01X27807498Y-22468700D01*
G01X27807498Y-22468700D02*
G01X27924346Y-22468700D01*
G01X28080673Y-22468700D02*
G01X28707502Y-22468700D01*
G01X27807498Y-22768700D02*
G01X28434327Y-22768700D01*
G01X28590654Y-22768700D02*
G01X28707502Y-22768700D01*
G01X28112623Y-22618700D02*
G01X28143200Y-22618700D01*
G01X28402377Y-22618700D02*
G01X28371800Y-22618700D01*
G01X28143200Y-22618700D02*
G02X28257500Y-22618700I57150J0D01*
G01X28371800Y-22618700D02*
G02X28257500Y-22618700I-57150J0D01*
G01X12433300Y-20789900D02*
G01X12814300Y-20789900D01*
G01X12750800Y-20408900D02*
G01X12750800Y-20510500D01*
G01X12801600Y-20459700D02*
G01X12707493Y-20459700D01*
G01X12433300Y-20789899D02*
G02X12814300Y-20789899I190500J254000D01*
G01X21310600Y-23317200D02*
G01X21310600Y-22936200D01*
G01X20929600Y-22999700D02*
G01X21031200Y-22999700D01*
G01X20980400Y-22948900D02*
G01X20980400Y-23043007D01*
G01X21310599Y-23317200D02*
G02X21310599Y-22936200I-254000J190500D01*
G01X29514800Y-15341600D02*
G01X29514800Y-15113000D01*
G01X29792803Y-15347290D02*
G01X27712797Y-15347290D01*
G01X27712797Y-15107285D01*
G01X29792803Y-15107285D01*
G01X29792803Y-15347290D01*
G01X29514800Y-16611600D02*
G01X29514800Y-16383000D01*
G01X29792803Y-16617290D02*
G01X27712797Y-16617290D01*
G01X27712797Y-16377285D01*
G01X29792803Y-16377285D01*
G01X29792803Y-16617290D01*
G01X13754113Y-20523200D02*
G01X13677913Y-20523200D01*
G01X14668513Y-20523200D02*
G01X14744713Y-20523200D01*
G01X14661299Y-20688198D02*
G01X13761301Y-20688198D01*
G01X13761301Y-20358202D01*
G01X14661299Y-20358202D01*
G01X14661299Y-20688198D01*
G01X14718002Y-18318602D02*
G01X14718002Y-18968601D01*
G01X12968006Y-18318602D02*
G01X12968006Y-18968601D01*
G01X12968006Y-18318602D02*
G01X14718002Y-18318602D01*
G01X12968006Y-18968601D02*
G01X14718002Y-18968601D01*
G01X20078700Y-22656787D02*
G01X20078700Y-22732987D01*
G01X20078700Y-21742387D02*
G01X20078700Y-21666187D01*
G01X20243698Y-21749601D02*
G01X20243698Y-22649599D01*
G01X19913702Y-22649599D01*
G01X19913702Y-21749601D01*
G01X20243698Y-21749601D01*
G01X17886802Y-21769098D02*
G01X18536801Y-21769098D01*
G01X17886802Y-23519094D02*
G01X18536801Y-23519094D01*
G01X17886802Y-23519094D02*
G01X17886802Y-21769098D01*
G01X18536801Y-23519094D02*
G01X18536801Y-21769098D01*
G01X15290800Y-12636579D02*
G01X15290800Y-12529701D01*
G01X15291204Y-11879699D02*
G01X15291204Y-11772821D01*
G01X15405801Y-12529701D02*
G01X15175799Y-12529701D01*
G01X15175799Y-12529701D02*
G01X15175799Y-11879699D01*
G01X15178801Y-11879699D02*
G01X15402799Y-11879699D01*
G01X15405801Y-11879699D02*
G01X15405801Y-12529701D01*
G01X27331698Y-12478898D02*
G01X27331698Y-11828899D01*
G01X29081694Y-12478898D02*
G01X29081694Y-11828899D01*
G01X29081694Y-12478898D02*
G01X27331698Y-12478898D01*
G01X29081694Y-11828899D02*
G01X27331698Y-11828899D01*
G01X30003801Y-21984401D02*
G01X30003801Y-20484399D01*
G01X30003801Y-20484399D02*
G01X30773799Y-20484399D01*
G01X30003801Y-21984401D02*
G01X30773799Y-21984401D01*
G01X30773799Y-21984401D02*
G01X30773799Y-20484399D01*
G01X30183745Y-21984401D02*
G01X30183745Y-20484399D01*
G01X30588262Y-21984401D02*
G01X30588262Y-20484399D01*
G01X30134639Y-20484399D02*
G01X30134639Y-20421600D01*
G01X30134639Y-20421600D02*
G01X30238700Y-20421600D01*
G01X30238700Y-20421600D02*
G01X30238700Y-20484399D01*
G01X13766698Y-19485000D02*
G01X14706702Y-19485000D01*
G01X14706702Y-19885000D01*
G01X13766698Y-19885000D01*
G01X13766698Y-19485000D01*
G01X19154800Y-22656902D02*
G01X19154800Y-21716898D01*
G01X19554800Y-21716898D01*
G01X19554800Y-22656902D01*
G01X19154800Y-22656902D01*
G01X25862204Y-24586598D02*
G01X25889501Y-24048603D01*
G01X26111200Y-24574500D02*
G01X26081812Y-24048603D01*
G01X26284199Y-24048603D02*
G01X25684201Y-24048603D01*
G01X26284199Y-23488599D02*
G01X26284199Y-24048603D01*
G01X25684201Y-23488599D02*
G01X25684201Y-24048603D01*
G01X25629004Y-22618601D02*
G01X25569200Y-22618601D01*
G01X25883004Y-22618601D02*
G01X25831396Y-22618601D01*
G01X26137004Y-22618601D02*
G01X26085396Y-22618601D01*
G01X26399200Y-22618601D02*
G01X26339396Y-22618601D01*
G01X25569200Y-23488599D02*
G01X25569200Y-22618601D01*
G01X26399200Y-23488599D02*
G01X26399200Y-22618601D01*
G01X26399200Y-23488599D02*
G01X25569200Y-23488599D01*
G01X25862201Y-24586595D02*
G03X26108360Y-24574820I123456J-1983D01*
G01X31456899Y-16173801D02*
G01X32106898Y-16173801D01*
G01X33456895Y-15498801D02*
G01X33456895Y-16098799D01*
G01X32106898Y-15498801D02*
G01X33456895Y-15498801D01*
G01X32106898Y-16098799D02*
G01X33456895Y-16098799D01*
G01X32106898Y-15423802D02*
G01X32106898Y-16173801D01*
G01X31456899Y-15423802D02*
G01X32106898Y-15423802D01*
G01X31456899Y-14948802D02*
G01X31456899Y-16648798D01*
G01X30506901Y-14948802D02*
G01X31456899Y-14948802D01*
G01X30506901Y-16648798D02*
G01X30506901Y-14948802D01*
G01X31456899Y-16648798D02*
G01X30506901Y-16648798D01*
G01X13230113Y-22420102D02*
G01X12169912Y-22420102D01*
G01X12169912Y-22420102D02*
G01X12169912Y-21940294D01*
G01X12169912Y-21940294D02*
G01X13230113Y-21940294D01*
G01X13230113Y-21940294D02*
G01X13230113Y-22419594D01*
G01X13230113Y-22419594D02*
G01X13230113Y-22420102D01*
G01X12170016Y-22360186D02*
G01X13230009Y-22360186D01*
G54D14*
G01X12977010Y-21877696D02*
G03X12976883Y-21837696I-127J20000D01*
G03X12976756Y-21877696I0J-20000D01*
G54D13*
G01X21758387Y-21775898D02*
G01X22818588Y-21775898D01*
G01X22818588Y-21775898D02*
G01X22818588Y-22255706D01*
G01X22818588Y-22255706D02*
G01X21758387Y-22255706D01*
G01X21758387Y-22255706D02*
G01X21758387Y-21776406D01*
G01X21758387Y-21776406D02*
G01X21758387Y-21775898D01*
G01X22818484Y-21835814D02*
G01X21758491Y-21835814D01*
G54D14*
G01X22011490Y-22318304D02*
G03X22011617Y-22358304I127J-20000D01*
G03X22011744Y-22318304I0J20000D01*

G04 Rect Start*
G54D13*
G01X12439650Y-12334748D02*
G01X12782550Y-12334748D01*
G01X12782550Y-12525248D01*
G01X12439650Y-12525248D01*
G01X12439650Y-12334748D01*
G01X28581299Y-22034411D02*
G01X27908301Y-22034411D01*
G01X27908301Y-20434414D01*
G01X28581299Y-20434414D01*
G01X28581299Y-22034411D01*
G01X14128801Y-21450389D02*
G01X14801799Y-21450389D01*
G01X14801799Y-23050386D01*
G01X14128801Y-23050386D01*
G01X14128801Y-21450389D01*
G04 Rect End*

G04 Circle Start*
G01X26701420Y-17792713D02*
G03X27552980Y-17792713I425780J0D01*
G03X26701420Y-17792713I-425780J0D01*
G01X25342520Y-21361387D02*
G03X26194080Y-21361387I425780J0D01*
G03X25342520Y-21361387I-425780J0D01*
G01X12369800Y-20535900D02*
G03X12877800Y-20535900I254000J0D01*
G03X12369800Y-20535900I-254000J0D01*
G01X20802600Y-23126700D02*
G03X21310600Y-23126700I254000J0D01*
G03X20802600Y-23126700I-254000J0D01*
G04 Circle End*

M02*

