G04 Layer: BottomSolderMaskLayer*
G04 EasyEDA Pro v2.2.47.7, 2026-05-22 18:14:44*
G04 Gerber Generator version 0.3*
G04 Scale: 100 percent, Rotated: No, Reflected: No*
G04 Dimensions in millimeters*
G04 Leading zeros omitted, absolute positions, 4 integers and 5 decimals*
G04 Generated by one-click*
G04 Object Configs: Pad,Via,Track,Text,Image,Dimension,BoardOutline,BoardCutout,CopperFilled,SolidRegion,FPCStiffener,Line,PlaneZone,ComponentProperty,ComponentSilkscreen,TearDrop*
G04 Layer Configs: 1,2,3,4,5,6,7,8,9,10,11,13,14,56*
G04 Copper Areas: 0*
%FSLAX45Y45*%
%MOMM*%
%AMRoundRect*1,1,$1,$2,$3*1,1,$1,$4,$5*1,1,$1,0-$2,0-$3*1,1,$1,0-$4,0-$5*20,1,$1,$2,$3,$4,$5,0*20,1,$1,$4,$5,0-$2,0-$3,0*20,1,$1,0-$2,0-$3,0-$4,0-$5,0*20,1,$1,0-$4,0-$5,$2,$3,0*4,1,4,$2,$3,$4,$5,0-$2,0-$3,0-$4,0-$5,$2,$3,0*%
%ADD10C,1.6256*%
%ADD11RoundRect,0.09562X-0.76499X-0.76499X-0.76499X0.76499*%
%ADD12C,2.5*%
%ADD13C,1.9016*%
%ADD14RoundRect,0.09579X-0.7903X0.9029X0.7903X0.9029*%
%ADD15RoundRect,0.09579X-0.9029X-0.7903X-0.9029X0.7903*%
%ADD16RoundRect,0.1042X-0.85271X0.85271X0.85271X0.85271*%
%ADD17RoundRect,0.09618X-0.85271X0.85271X0.85271X0.85271*%
%ADD18C,1.8016*%
%ADD19RoundRect,0.09645X-0.90257X-0.90257X-0.90257X0.90257*%
%ADD20C,1.6764*%
%ADD21RoundRect,0.09579X-0.7903X0.7903X0.7903X0.7903*%
%ADD22RoundRect,0.09588X-0.80286X-0.80286X-0.80286X0.80286*%
%ADD23C,1.7016*%
%ADD24C,2.1016*%
%ADD25C,1.4016*%
%ADD26C,1.624*%
%ADD27C,1.6*%
%ADD28RoundRect,0.0943X-0.60944X-0.60944X-0.60944X0.60944*%
%ADD29RoundRect,0.0943X-0.60944X0.60944X0.60944X0.60944*%
%ADD30RoundRect,0.09579X-0.7903X0.8529X0.7903X0.8529*%
%ADD31C,2.00002*%
%ADD32C,1.5016*%
%ADD33C,2.3016*%
%ADD34C,1.9*%
%ADD35O,1.9016X2.70159*%
%ADD36RoundRect,0.09645X-0.90257X1.30257X0.90257X1.30257*%
%ADD37C,0.9016*%
G75*


G04 Pad Start*
G54D10*
G01X17487900Y-18808700D03*
G01X17487900Y-22428200D03*
G01X18973800Y-23279100D03*
G01X13157200Y-12570993D03*
G54D11*
G01X13157200Y-12321007D03*
G54D12*
G01X28074798Y-21730398D03*
G01X28414802Y-21730398D03*
G01X28414802Y-20738401D03*
G01X28074798Y-20738401D03*
G01X14635302Y-21754401D03*
G01X14295298Y-21754401D03*
G01X14295298Y-22746398D03*
G01X14635302Y-22746398D03*
G54D13*
G01X28727400Y-13512800D03*
G01X28981400Y-13512800D03*
G54D14*
G01X29235400Y-13512800D03*
G54D13*
G01X27127200Y-16179800D03*
G01X27127200Y-15925800D03*
G54D15*
G01X27127200Y-15671800D03*
G54D17*
G01X28981400Y-17881600D03*
G54D18*
G01X28727400Y-17881600D03*
G01X28473400Y-17881600D03*
G01X28219400Y-17881600D03*
G54D19*
G01X13182600Y-15252700D03*
G54D13*
G01X13182600Y-15506700D03*
G01X13182600Y-15760700D03*
G01X13182600Y-16014700D03*
G54D20*
G01X21285200Y-12357100D03*
G01X21539200Y-12357100D03*
G01X21793200Y-12357100D03*
G01X22047200Y-12357100D03*
G54D21*
G01X22301200Y-12357100D03*
G54D17*
G01X18545659Y-13423406D03*
G54D18*
G01X18291659Y-13423406D03*
G01X18037659Y-13423406D03*
G01X17783659Y-13423406D03*
G54D22*
G01X21170900Y-15265387D03*
G54D23*
G01X21170900Y-15519413D03*
G01X21170900Y-15773413D03*
G01X21170900Y-16027413D03*
G01X21170900Y-16281413D03*
G01X21170900Y-16535413D03*
G01X21170900Y-16789413D03*
G01X21170900Y-17043413D03*
G01X21170900Y-17297413D03*
G01X21170900Y-17551413D03*
G01X21170900Y-17805413D03*
G01X21170900Y-18059413D03*
G01X21170900Y-18313413D03*
G01X21170900Y-18567413D03*
G01X21170900Y-18821413D03*
G01X21170900Y-19075413D03*
G54D22*
G01X18884900Y-15265387D03*
G54D23*
G01X18884900Y-15519413D03*
G01X18884900Y-15773413D03*
G01X18884900Y-16027413D03*
G01X18884900Y-16281413D03*
G01X18884900Y-16535413D03*
G01X18884900Y-16789413D03*
G01X18884900Y-17043413D03*
G01X18884900Y-17297413D03*
G01X18884900Y-17551413D03*
G01X18884900Y-17805413D03*
G01X18884900Y-18059413D03*
G01X18884900Y-18313413D03*
G01X18884900Y-18567413D03*
G01X18884900Y-18821413D03*
G01X18884900Y-19075413D03*
G54D24*
G01X13483400Y-23609300D03*
G01X12983401Y-23609300D03*
G01X22868700Y-23139400D03*
G01X22368701Y-23139400D03*
G01X30353000Y-22673500D03*
G01X30353000Y-23173499D03*
G54D25*
G01X13931900Y-12700000D03*
G01X13931900Y-12192000D03*
G54D26*
G01X27127200Y-17542700D03*
G01X27127200Y-18042699D03*
G01X25768300Y-21611399D03*
G01X25768300Y-21111400D03*
G54D23*
G01X23130891Y-21550909D03*
G01X23020909Y-22060891D03*
G54D27*
G01X29485400Y-18743587D03*
G01X28985401Y-18543587D03*
G54D23*
G01X28002509Y-22563709D03*
G01X28512491Y-22673691D03*
G54D28*
G01X12623800Y-20408900D03*
G01X12623800Y-20662900D03*
G54D29*
G01X20929600Y-23126700D03*
G01X21183600Y-23126700D03*
G54D18*
G01X27863800Y-15227300D03*
G01X28117800Y-15227300D03*
G01X28371800Y-15227300D03*
G01X28625800Y-15227300D03*
G01X28879800Y-15227300D03*
G01X29133800Y-15227300D03*
G01X29387800Y-15227300D03*
G54D30*
G01X29641800Y-15227300D03*
G54D18*
G01X27863800Y-16497300D03*
G01X28117800Y-16497300D03*
G01X28371800Y-16497300D03*
G01X28625800Y-16497300D03*
G01X28879800Y-16497300D03*
G01X29133800Y-16497300D03*
G01X29387800Y-16497300D03*
G54D30*
G01X29641800Y-16497300D03*
G54D10*
G01X13561301Y-20523200D03*
G01X14861299Y-20523200D03*
G54D31*
G01X12767996Y-18643600D03*
G01X14918004Y-18643600D03*
G54D10*
G01X20078700Y-22849599D03*
G01X20078700Y-21549601D03*
G54D31*
G01X18211800Y-23719104D03*
G01X18211800Y-21569096D03*
G54D32*
G01X15290800Y-12729693D03*
G01X15290800Y-11679707D03*
G54D31*
G01X29281704Y-12153900D03*
G01X27131696Y-12153900D03*
G54D33*
G01X30403800Y-21734399D03*
G01X30403800Y-21234400D03*
G01X30403800Y-20734401D03*
G54D13*
G01X14886711Y-19685000D03*
G01X13586689Y-19685000D03*
G01X19354800Y-21536889D03*
G01X19354800Y-22836911D03*
G54D18*
G01X26238205Y-22580590D03*
G01X25984205Y-22580590D03*
G01X25730205Y-22580590D03*
G01X25730205Y-23088590D03*
G01X26238205Y-23088590D03*
G54D34*
G01X31076903Y-15298801D03*
G01X31076903Y-15798800D03*
G01X31076903Y-16298799D03*
G54D35*
G01X12700013Y-22111195D03*
G01X12445987Y-22110205D03*
G54D36*
G01X12954013Y-22111195D03*
G54D35*
G01X22288487Y-22084805D03*
G01X22542513Y-22085795D03*
G54D36*
G01X22034487Y-22084805D03*
G04 Pad End*

G04 Via Start*
G54D37*
G01X20688287Y-21843505D03*
G01X21170900Y-21014004D03*
G01X30124400Y-20345400D03*
G01X29451300Y-20345400D03*
G01X20538014Y-12609286D03*
G01X11821060Y-23675440D03*
G01X11821060Y-22875440D03*
G01X11821060Y-22075440D03*
G01X11821060Y-21275440D03*
G01X11821060Y-20475440D03*
G01X11821060Y-19675440D03*
G01X11821060Y-18875441D03*
G01X11821060Y-18075441D03*
G01X11821060Y-17275441D03*
G01X11821060Y-16475441D03*
G01X11821060Y-15675441D03*
G01X11821060Y-14875441D03*
G01X11821060Y-14075441D03*
G01X11821060Y-13275441D03*
G01X11821060Y-12475441D03*
G01X11821060Y-11675441D03*
G01X11821060Y-10875441D03*
G01X12163860Y-24081840D03*
G01X12201960Y-22938940D03*
G01X12938560Y-21288140D03*
G01X12621060Y-19675440D03*
G01X12621060Y-18075441D03*
G01X12621060Y-17275441D03*
G01X12621060Y-16475441D03*
G01X12621060Y-15675441D03*
G01X12621060Y-14875441D03*
G01X12621060Y-14075441D03*
G01X12621060Y-13275441D03*
G01X12341660Y-12678641D03*
G01X12621060Y-11675441D03*
G01X12621060Y-10875441D03*
G01X13421060Y-22875440D03*
G01X13421060Y-22075440D03*
G01X13421060Y-18875441D03*
G01X13332160Y-18075441D03*
G01X13421060Y-17275441D03*
G01X13421060Y-16475441D03*
G01X13687760Y-14659541D03*
G01X13421060Y-14075441D03*
G01X13421060Y-13275441D03*
G01X13421060Y-11675441D03*
G01X13421060Y-10875441D03*
G01X14221060Y-23675440D03*
G01X14221060Y-19675440D03*
G01X14208360Y-18761141D03*
G01X14221060Y-18075441D03*
G01X14221060Y-17275441D03*
G01X14221060Y-15675441D03*
G01X14221060Y-14875441D03*
G01X14221060Y-14075441D03*
G01X14221060Y-13275441D03*
G01X15491060Y-11230841D03*
G01X14221060Y-11675441D03*
G01X14221060Y-10875441D03*
G01X15021060Y-23675440D03*
G01X15287760Y-22913540D03*
G01X15109960Y-22100840D03*
G01X15021060Y-21275440D03*
G01X15414760Y-19142141D03*
G01X15021060Y-18075441D03*
G01X15008360Y-17148441D03*
G01X15021060Y-15675441D03*
G01X14944860Y-14875441D03*
G01X15021060Y-14075441D03*
G01X15021060Y-13275441D03*
G01X14728960Y-11980141D03*
G01X14678160Y-11230941D03*
G01X15021060Y-10875441D03*
G01X15821060Y-23675440D03*
G01X15821060Y-22875440D03*
G01X15821060Y-22075440D03*
G01X15821060Y-21275440D03*
G01X15821060Y-19675440D03*
G01X15821060Y-18875441D03*
G01X15821060Y-18075441D03*
G01X15744860Y-17123041D03*
G01X15948060Y-14875441D03*
G01X15821060Y-14075441D03*
G01X15821060Y-12475441D03*
G01X15821060Y-10875441D03*
G01X16621059Y-23675440D03*
G01X16621059Y-22875440D03*
G01X16621059Y-22075440D03*
G01X16621059Y-21275440D03*
G01X16621059Y-19675440D03*
G01X16621059Y-18875441D03*
G01X16621059Y-18075441D03*
G01X16621059Y-17275441D03*
G01X16621059Y-15675441D03*
G01X16621059Y-14875441D03*
G01X16621059Y-13275441D03*
G01X16621059Y-12475441D03*
G01X16621059Y-10875441D03*
G01X17421059Y-23675440D03*
G01X17421059Y-22875440D03*
G01X17421059Y-18075441D03*
G01X17421059Y-15675441D03*
G01X17421059Y-14075441D03*
G01X17179759Y-13021441D03*
G01X17421059Y-12475441D03*
G01X17421059Y-11675441D03*
G01X17421059Y-10875441D03*
G01X18221059Y-22875440D03*
G01X18221059Y-22075440D03*
G01X18221059Y-20475440D03*
G01X18221059Y-19675440D03*
G01X18221059Y-19015141D03*
G01X18221059Y-11675441D03*
G01X18221059Y-10875441D03*
G01X19059159Y-24005640D03*
G01X18957559Y-21821440D03*
G01X19021059Y-20475440D03*
G01X19021059Y-19675440D03*
G01X19021059Y-12475441D03*
G01X19021059Y-11675441D03*
G01X19021059Y-10875441D03*
G01X19821059Y-23675440D03*
G01X19846459Y-23231040D03*
G01X19770259Y-22164340D03*
G01X19821059Y-20475440D03*
G01X19821059Y-18875441D03*
G01X19821059Y-18075441D03*
G01X19821059Y-17275441D03*
G01X19821059Y-16475441D03*
G01X19821059Y-12475441D03*
G01X19821059Y-11675441D03*
G01X19821059Y-10875441D03*
G01X20621059Y-23675440D03*
G01X20621059Y-19675440D03*
G01X20621059Y-18875441D03*
G01X20621059Y-18075441D03*
G01X20621059Y-17275441D03*
G01X20621059Y-11675441D03*
G01X20621059Y-10875441D03*
G01X21421059Y-23675440D03*
G01X21370259Y-22621440D03*
G01X21421059Y-20475440D03*
G01X21421059Y-19675440D03*
G01X22017959Y-18456341D03*
G01X22005259Y-17580141D03*
G01X21421059Y-11675441D03*
G01X21421059Y-10875441D03*
G01X22221059Y-23675440D03*
G01X21928959Y-22773840D03*
G01X22221059Y-20475440D03*
G01X22221059Y-19675440D03*
G01X22221059Y-18875441D03*
G01X22221059Y-18075441D03*
G01X22221059Y-17275441D03*
G01X22221059Y-15675441D03*
G01X22208359Y-14951641D03*
G01X22221059Y-14075441D03*
G01X22221059Y-13275441D03*
G01X22221059Y-11675441D03*
G01X22221059Y-10875441D03*
G01X23021059Y-23675440D03*
G01X23236959Y-22862740D03*
G01X23021059Y-20475440D03*
G01X23021059Y-19675440D03*
G01X23021059Y-18875441D03*
G01X23021059Y-18075441D03*
G01X23021059Y-17275441D03*
G01X23021059Y-16475441D03*
G01X23008359Y-14900841D03*
G01X23021059Y-14075441D03*
G01X23021059Y-13275441D03*
G01X23021059Y-12475441D03*
G01X23021059Y-11675441D03*
G01X23021059Y-10875441D03*
G01X23821059Y-23675440D03*
G01X23821059Y-22875440D03*
G01X23821059Y-22075440D03*
G01X23821059Y-20475440D03*
G01X23821059Y-19675440D03*
G01X23821059Y-18875441D03*
G01X23821059Y-18075441D03*
G01X23821059Y-17275441D03*
G01X23821059Y-16475441D03*
G01X23821059Y-15675441D03*
G01X23833759Y-14951641D03*
G01X23821059Y-14075441D03*
G01X23821059Y-13275441D03*
G01X23821059Y-12475441D03*
G01X23821059Y-11675441D03*
G01X23821059Y-10875441D03*
G01X24621059Y-23675440D03*
G01X24621059Y-22875440D03*
G01X24621059Y-22075440D03*
G01X24621059Y-20475440D03*
G01X24621059Y-19675440D03*
G01X24621059Y-18875441D03*
G01X24621059Y-18075441D03*
G01X24621059Y-17275441D03*
G01X24621059Y-16475441D03*
G01X24621059Y-15675441D03*
G01X24621059Y-14875441D03*
G01X24621059Y-14075441D03*
G01X24621059Y-13275441D03*
G01X24621059Y-12475441D03*
G01X24621059Y-11675441D03*
G01X24621059Y-10875441D03*
G01X25421059Y-23675440D03*
G01X25027359Y-23294540D03*
G01X25421059Y-22075440D03*
G01X25421059Y-20475440D03*
G01X25421059Y-19675440D03*
G01X25421059Y-18875441D03*
G01X25421059Y-18075441D03*
G01X25421059Y-17275441D03*
G01X25421059Y-16475441D03*
G01X25421059Y-15675441D03*
G01X25421059Y-14875441D03*
G01X25421059Y-14075441D03*
G01X25421059Y-13275441D03*
G01X25421059Y-12475441D03*
G01X25421059Y-11675441D03*
G01X25421059Y-10875441D03*
G01X26221059Y-23675440D03*
G01X26221059Y-22075440D03*
G01X26221059Y-20475440D03*
G01X26221059Y-19675440D03*
G01X26221059Y-18875441D03*
G01X26221059Y-18075441D03*
G01X26221059Y-17275441D03*
G01X26221059Y-15675441D03*
G01X26221059Y-14875441D03*
G01X26221059Y-14075441D03*
G01X26221059Y-13275441D03*
G01X26221059Y-12475441D03*
G01X26221059Y-11675441D03*
G01X26221059Y-10875441D03*
G01X27021058Y-23675440D03*
G01X27021058Y-22075440D03*
G01X27021058Y-20475440D03*
G01X27021058Y-19675440D03*
G01X27021058Y-18875441D03*
G01X26957558Y-17148441D03*
G01X27021058Y-14875441D03*
G01X27021058Y-14075441D03*
G01X27021058Y-13275441D03*
G01X27021058Y-11675441D03*
G01X27021058Y-10875441D03*
G01X27821058Y-23675440D03*
G01X27046358Y-22481840D03*
G01X27821058Y-19675440D03*
G01X27821058Y-18875441D03*
G01X27821058Y-17275441D03*
G01X27821058Y-15675441D03*
G01X27655958Y-14519841D03*
G01X27821058Y-14075441D03*
G01X27821058Y-13275441D03*
G01X27821058Y-12615141D03*
G01X27821058Y-11675441D03*
G01X27821058Y-10875441D03*
G01X28621058Y-23675440D03*
G01X28544858Y-23269140D03*
G01X28697258Y-21326240D03*
G01X28621058Y-17275441D03*
G01X28621058Y-15675441D03*
G01X28621058Y-14075441D03*
G01X28608358Y-12627841D03*
G01X28621058Y-11675441D03*
G01X28621058Y-10875441D03*
G01X29421058Y-23675440D03*
G01X29421058Y-22875440D03*
G01X29421058Y-22075440D03*
G01X29421058Y-19675440D03*
G01X29421058Y-11675441D03*
G01X29421058Y-10875441D03*
G01X30221058Y-23675440D03*
G01X29852758Y-22964340D03*
G01X30462358Y-20246840D03*
G01X30221058Y-19675440D03*
G01X30221058Y-18875441D03*
G01X30221058Y-18075441D03*
G01X30221058Y-17275441D03*
G01X30221058Y-16475441D03*
G01X30221058Y-15675441D03*
G01X30221058Y-14875441D03*
G01X30221058Y-14075441D03*
G01X30221058Y-13275441D03*
G01X30221058Y-12475441D03*
G01X30221058Y-11675441D03*
G01X30221058Y-10875441D03*
G01X31021058Y-23675440D03*
G01X31021058Y-22875440D03*
G01X31021058Y-22075440D03*
G01X31059158Y-21427840D03*
G01X31021058Y-20475440D03*
G01X31021058Y-19675440D03*
G01X31021058Y-18875441D03*
G01X31021058Y-18075441D03*
G01X31021058Y-17275441D03*
G01X31033758Y-16767541D03*
G01X30868658Y-14621441D03*
G01X31021058Y-14075441D03*
G01X31021058Y-13275441D03*
G01X31021058Y-12475441D03*
G01X31021058Y-11675441D03*
G01X31021058Y-10875441D03*
G01X31821058Y-23675440D03*
G01X31821058Y-22875440D03*
G01X31821058Y-22075440D03*
G01X31821058Y-21275440D03*
G01X31821058Y-20475440D03*
G01X31821058Y-19675440D03*
G01X31821058Y-18875441D03*
G01X31821058Y-18075441D03*
G01X31821058Y-17275441D03*
G01X31821058Y-16475441D03*
G01X31821058Y-14875441D03*
G01X31821058Y-14075441D03*
G01X31821058Y-13275441D03*
G01X31821058Y-12475441D03*
G01X31821058Y-11675441D03*
G01X31821058Y-10875441D03*
G01X32621058Y-23675440D03*
G01X32621058Y-22875440D03*
G01X32621058Y-22075440D03*
G01X32621058Y-21275440D03*
G01X32621058Y-20475440D03*
G01X32621058Y-19675440D03*
G01X32621058Y-18875441D03*
G01X32621058Y-18075441D03*
G01X32621058Y-17275441D03*
G01X32621058Y-16475441D03*
G01X32621058Y-15675441D03*
G01X32621058Y-14875441D03*
G01X32621058Y-14075441D03*
G01X32621058Y-13275441D03*
G01X32621058Y-12475441D03*
G01X32621058Y-11675441D03*
G01X32621058Y-10875441D03*
G01X13639800Y-21513800D03*
G01X11417300Y-20091400D03*
G01X12217400Y-17703800D03*
G01X13055600Y-17665700D03*
G01X20231100Y-23342600D03*
G01X19558000Y-23393400D03*
G01X20231100Y-24117300D03*
G01X21877727Y-24117300D03*
G01X26619200Y-22047200D03*
G01X19405600Y-17030700D03*
G01X20726400Y-16548100D03*
G01X22618700Y-12903200D03*
G01X12179300Y-21602700D03*
G01X13855700Y-22199600D03*
G01X12001500Y-22542500D03*
G01X13042900Y-22631400D03*
G04 Via End*

M02*

