G04 Layer: TopLayer*
G04 EasyEDA Pro v2.2.47.7, 2026-05-22 18:14:44*
G04 Gerber Generator version 0.3*
G04 Scale: 100 percent, Rotated: No, Reflected: No*
G04 Dimensions in millimeters*
G04 Leading zeros omitted, absolute positions, 4 integers and 5 decimals*
G04 Generated by one-click*
G04 Object Configs: Pad,Via,Track,Text,Image,Dimension,BoardOutline,BoardCutout,CopperFilled,SolidRegion,FPCStiffener,Line,PlaneZone,ComponentProperty,ComponentSilkscreen,TearDrop*
G04 Layer Configs: 1,2,3,4,5,6,7,8,9,10,11,13,14,56*
G04 Copper Areas: 118*
%FSLAX45Y45*%
%MOMM*%
%ADD10C,0.2032*%
%ADD11C,0.9*%
%ADD12C,0.6*%
%ADD13C,1.524*%
%ADD14R,1.524X1.524*%
%ADD15C,2.4*%
%ADD16C,1.8*%
%ADD17R,1.5748X1.8*%
%ADD18R,1.8019X1.5748*%
%ADD19R,1.8X1.5748*%
%ADD20R,1.7X1.7*%
%ADD21C,1.7*%
%ADD22R,1.8X1.8*%
%ADD23C,1.5748*%
%ADD24R,1.5748X1.5748*%
%ADD25R,1.6X1.6*%
%ADD26C,1.6*%
%ADD27C,2.0*%
%ADD28C,1.3*%
%ADD29C,1.5*%
%ADD30R,1.21158X1.21158*%
%ADD31R,1.5748X1.7*%
%ADD32C,1.9*%
%ADD33C,1.4*%
%ADD34C,2.2*%
%ADD35O,1.8X2.59999*%
%ADD36R,1.8X2.59999*%
%ADD37C,0.8*%
%ADD38C,0.254*%
G75*


G04 Copper Start*
G36*
G01X14029292Y-23700740D02*
G01X13583819Y-23700740D01*
G01X13596999Y-23683735D01*
G01X13607328Y-23664862D01*
G01X13614547Y-23644594D01*
G01X13618475Y-23623441D01*
G01X13619013Y-23601933D01*
G01X13616148Y-23580610D01*
G01X13609952Y-23560007D01*
G01X13600580Y-23540641D01*
G01X13588267Y-23522997D01*
G01X13573323Y-23507520D01*
G01X13556122Y-23494597D01*
G01X13537096Y-23484552D01*
G01X13516722Y-23477638D01*
G01X13495513Y-23474027D01*
G01X13473999Y-23473812D01*
G01X13452721Y-23476996D01*
G01X13432213Y-23483501D01*
G01X13412990Y-23493163D01*
G01X13395534Y-23505739D01*
G01X13380282Y-23520913D01*
G01X13367618Y-23538306D01*
G01X13357860Y-23557481D01*
G01X13357860Y-23118208D01*
G01X13729670Y-22746398D01*
G01X14139484Y-22746398D01*
G01X14141402Y-22770773D01*
G01X14147110Y-22794548D01*
G01X14156467Y-22817136D01*
G01X14169242Y-22837984D01*
G01X14185121Y-22856575D01*
G01X14203713Y-22872454D01*
G01X14224560Y-22885230D01*
G01X14247149Y-22894586D01*
G01X14270923Y-22900294D01*
G01X14295298Y-22902212D01*
G01X14319672Y-22900294D01*
G01X14343447Y-22894586D01*
G01X14366036Y-22885230D01*
G01X14386883Y-22872454D01*
G01X14405475Y-22856575D01*
G01X14421354Y-22837984D01*
G01X14434129Y-22817136D01*
G01X14443485Y-22794548D01*
G01X14449193Y-22770773D01*
G01X14451112Y-22746398D01*
G01X14479488Y-22746398D01*
G01X14481407Y-22770773D01*
G01X14487115Y-22794548D01*
G01X14496471Y-22817136D01*
G01X14509246Y-22837984D01*
G01X14525125Y-22856575D01*
G01X14543717Y-22872454D01*
G01X14564564Y-22885230D01*
G01X14587153Y-22894586D01*
G01X14610928Y-22900294D01*
G01X14635302Y-22902212D01*
G01X14659677Y-22900294D01*
G01X14683451Y-22894586D01*
G01X14706040Y-22885230D01*
G01X14726887Y-22872454D01*
G01X14745479Y-22856575D01*
G01X14761358Y-22837984D01*
G01X14774133Y-22817136D01*
G01X14783490Y-22794548D01*
G01X14789198Y-22770773D01*
G01X14791116Y-22746398D01*
G01X14789198Y-22722024D01*
G01X14783490Y-22698249D01*
G01X14774133Y-22675661D01*
G01X14761358Y-22654813D01*
G01X14745479Y-22636222D01*
G01X14726887Y-22620343D01*
G01X14706040Y-22607567D01*
G01X14683451Y-22598211D01*
G01X14659677Y-22592503D01*
G01X14635302Y-22590585D01*
G01X14635302Y-22590585D01*
G01X14610928Y-22592503D01*
G01X14587153Y-22598211D01*
G01X14564564Y-22607567D01*
G01X14543717Y-22620343D01*
G01X14525125Y-22636222D01*
G01X14509246Y-22654813D01*
G01X14496471Y-22675661D01*
G01X14487115Y-22698249D01*
G01X14481407Y-22722024D01*
G01X14479488Y-22746398D01*
G01X14451112Y-22746398D01*
G01X14449193Y-22722024D01*
G01X14443485Y-22698249D01*
G01X14434129Y-22675661D01*
G01X14421354Y-22654813D01*
G01X14405475Y-22636222D01*
G01X14386883Y-22620343D01*
G01X14366036Y-22607567D01*
G01X14343447Y-22598211D01*
G01X14319672Y-22592503D01*
G01X14295298Y-22590585D01*
G01X14295298Y-22590585D01*
G01X14270923Y-22592503D01*
G01X14247149Y-22598211D01*
G01X14224560Y-22607567D01*
G01X14203713Y-22620343D01*
G01X14185121Y-22636222D01*
G01X14169242Y-22654813D01*
G01X14156467Y-22675661D01*
G01X14147110Y-22698249D01*
G01X14141402Y-22722024D01*
G01X14139484Y-22746398D01*
G01X13729670Y-22746398D01*
G01X13923408Y-22552660D01*
G01X14820856Y-22552660D01*
G01X14848840Y-22577270D01*
G01X14848840Y-22881192D01*
G01X14029292Y-23700740D01*
G37*
G36*
G01X27591584Y-18318916D02*
G01X27588288Y-18316713D01*
G01X27584400Y-18315940D01*
G01X27372708Y-18315940D01*
G01X27261384Y-18204616D01*
G01X27258088Y-18202413D01*
G01X27254200Y-18201640D01*
G01X27080608Y-18201640D01*
G01X26968450Y-18089482D01*
G01X26968450Y-18029318D01*
G01X27093308Y-17904460D01*
G01X27415092Y-17904460D01*
G01X27450216Y-17939584D01*
G01X27453512Y-17941787D01*
G01X27457400Y-17942560D01*
G01X28044140Y-17942560D01*
G01X28044140Y-18059400D01*
G01X28045501Y-18064480D01*
G01X28049220Y-18068199D01*
G01X28054300Y-18069560D01*
G01X28418392Y-18069560D01*
G01X28504316Y-18155484D01*
G01X28507612Y-18157687D01*
G01X28511500Y-18158460D01*
G01X28951792Y-18158460D01*
G01X29301440Y-18508108D01*
G01X29301440Y-19223592D01*
G01X29075816Y-19449216D01*
G01X29075816Y-19449216D01*
G01X29073613Y-19452512D01*
G01X29072840Y-19456400D01*
G01X29072840Y-20137992D01*
G01X28799392Y-20411440D01*
G01X27863800Y-20411440D01*
G01X27858720Y-20412801D01*
G01X27855001Y-20416520D01*
G01X27853640Y-20421600D01*
G01X27853640Y-20878800D01*
G01X27854413Y-20882688D01*
G01X27856616Y-20885984D01*
G01X27856616Y-20885984D01*
G01X28602940Y-21632308D01*
G01X28602940Y-21839792D01*
G01X28519992Y-21922740D01*
G01X27893408Y-21922740D01*
G01X27870984Y-21900316D01*
G01X27867688Y-21898113D01*
G01X27863800Y-21897340D01*
G01X27350509Y-21897340D01*
G01X27023285Y-21570116D01*
G01X27019988Y-21567913D01*
G01X27016100Y-21567140D01*
G01X26204308Y-21567140D01*
G01X25902484Y-21265316D01*
G01X25899188Y-21263113D01*
G01X25895300Y-21262340D01*
G01X25234900Y-21262340D01*
G01X25231012Y-21263113D01*
G01X25227716Y-21265316D01*
G01X25065592Y-21427440D01*
G01X24434800Y-21427440D01*
G01X24430912Y-21428213D01*
G01X24427616Y-21430416D01*
G01X24328992Y-21529040D01*
G01X23660100Y-21529040D01*
G01X23656212Y-21529813D01*
G01X23652916Y-21532016D01*
G01X23503492Y-21681440D01*
G01X19689208Y-21681440D01*
G01X19412784Y-21405016D01*
G01X19409488Y-21402813D01*
G01X19405600Y-21402040D01*
G01X18762108Y-21402040D01*
G01X18739684Y-21379616D01*
G01X18736388Y-21377413D01*
G01X18732500Y-21376640D01*
G01X17682608Y-21376640D01*
G01X17469684Y-21163716D01*
G01X17466388Y-21161513D01*
G01X17462500Y-21160740D01*
G01X16526908Y-21160740D01*
G01X16313984Y-20947816D01*
G01X16310688Y-20945613D01*
G01X16306800Y-20944840D01*
G01X14871700Y-20944840D01*
G01X14866620Y-20946201D01*
G01X14862901Y-20949920D01*
G01X14861540Y-20955000D01*
G01X14861540Y-21763592D01*
G01X14702392Y-21922740D01*
G01X14190108Y-21922740D01*
G01X14069060Y-21801692D01*
G01X14069060Y-20379593D01*
G01X15684536Y-20368260D01*
G01X16327992Y-20368260D01*
G01X16464716Y-20504984D01*
G01X16468012Y-20507187D01*
G01X16471900Y-20507960D01*
G01X17623392Y-20507960D01*
G01X17798216Y-20682784D01*
G01X17801512Y-20684987D01*
G01X17805400Y-20685760D01*
G01X18652092Y-20685760D01*
G01X18826916Y-20860584D01*
G01X18830212Y-20862787D01*
G01X18834100Y-20863560D01*
G01X19337892Y-20863560D01*
G01X19639716Y-21165384D01*
G01X19643012Y-21167587D01*
G01X19646900Y-21168360D01*
G01X23660100Y-21168360D01*
G01X23663988Y-21167587D01*
G01X23667284Y-21165384D01*
G01X23931008Y-20901660D01*
G01X25184100Y-20901660D01*
G01X25187988Y-20900887D01*
G01X25191284Y-20898684D01*
G01X25404208Y-20685760D01*
G01X26475292Y-20685760D01*
G01X26866016Y-21076484D01*
G01X26869312Y-21078687D01*
G01X26873200Y-21079460D01*
G01X27084892Y-21079460D01*
G01X27310516Y-21305084D01*
G01X27313812Y-21307287D01*
G01X27317700Y-21308060D01*
G01X27436404Y-21308060D01*
G01X27441636Y-21306609D01*
G01X27445374Y-21302672D01*
G01X27446551Y-21297372D01*
G01X27442160Y-21213028D01*
G01X27442160Y-20209908D01*
G01X27588608Y-20063460D01*
G01X28371800Y-20063460D01*
G01X28376880Y-20062099D01*
G01X28380599Y-20058380D01*
G01X28381960Y-20053300D01*
G01X28381960Y-19498708D01*
G01X28683784Y-19196884D01*
G01X28683784Y-19196884D01*
G01X28685987Y-19193588D01*
G01X28686760Y-19189700D01*
G01X28686760Y-18796000D01*
G01X28685987Y-18792112D01*
G01X28683784Y-18788816D01*
G01X28683784Y-18788816D01*
G01X28442484Y-18547516D01*
G01X28439188Y-18545313D01*
G01X28435300Y-18544540D01*
G01X27817208Y-18544540D01*
G01X27591584Y-18318916D01*
G37*
G36*
G01X28172808Y-21046440D02*
G01X28003116Y-20876748D01*
G01X28025603Y-20886245D01*
G01X28049297Y-20892114D01*
G01X28073616Y-20894211D01*
G01X28097965Y-20892483D01*
G01X28121746Y-20886974D01*
G01X28144374Y-20877819D01*
G01X28165294Y-20865241D01*
G01X28183993Y-20849551D01*
G01X28200013Y-20831133D01*
G01X28212959Y-20810439D01*
G01X28222514Y-20787977D01*
G01X28228444Y-20764298D01*
G01X28230604Y-20739984D01*
G01X28230495Y-20738401D01*
G01X28258988Y-20738401D01*
G01X28260907Y-20762776D01*
G01X28266615Y-20786551D01*
G01X28275971Y-20809139D01*
G01X28288746Y-20829987D01*
G01X28304625Y-20848578D01*
G01X28323217Y-20864457D01*
G01X28344064Y-20877233D01*
G01X28366653Y-20886589D01*
G01X28390428Y-20892297D01*
G01X28414802Y-20894215D01*
G01X28414802Y-20894215D01*
G01X28439177Y-20892297D01*
G01X28462951Y-20886589D01*
G01X28485540Y-20877233D01*
G01X28506387Y-20864457D01*
G01X28524979Y-20848578D01*
G01X28540858Y-20829987D01*
G01X28553633Y-20809139D01*
G01X28562990Y-20786551D01*
G01X28568698Y-20762776D01*
G01X28570616Y-20738401D01*
G01X28568698Y-20714027D01*
G01X28562990Y-20690252D01*
G01X28553633Y-20667664D01*
G01X28540858Y-20646816D01*
G01X28524979Y-20628225D01*
G01X28506387Y-20612346D01*
G01X28485540Y-20599570D01*
G01X28462951Y-20590214D01*
G01X28439177Y-20584506D01*
G01X28414802Y-20582588D01*
G01X28390428Y-20584506D01*
G01X28366653Y-20590214D01*
G01X28344064Y-20599570D01*
G01X28323217Y-20612346D01*
G01X28304625Y-20628225D01*
G01X28288746Y-20646816D01*
G01X28275971Y-20667664D01*
G01X28266615Y-20690252D01*
G01X28260907Y-20714027D01*
G01X28258988Y-20738401D01*
G01X28230495Y-20738401D01*
G01X28228939Y-20715630D01*
G01X28223491Y-20691836D01*
G01X28214393Y-20669185D01*
G01X28201870Y-20648232D01*
G01X28186228Y-20629492D01*
G01X28167851Y-20613425D01*
G01X28147190Y-20600426D01*
G01X28124753Y-20590813D01*
G01X28101089Y-20584822D01*
G01X28076781Y-20582600D01*
G01X28052423Y-20584203D01*
G01X28028615Y-20589589D01*
G01X28005940Y-20598628D01*
G01X28083908Y-20520660D01*
G01X28809823Y-20520660D01*
G01X30260164Y-21279042D01*
G01X30268946Y-21301023D01*
G01X30281068Y-21321354D01*
G01X30296229Y-21339532D01*
G01X30314054Y-21355106D01*
G01X30334102Y-21367691D01*
G01X30355876Y-21376975D01*
G01X30378837Y-21382728D01*
G01X30402416Y-21384807D01*
G01X30426029Y-21383162D01*
G01X30449092Y-21377833D01*
G01X30546040Y-21428527D01*
G01X30546040Y-21702314D01*
G01X30538991Y-21679764D01*
G01X30528393Y-21658648D01*
G01X30514524Y-21639521D01*
G01X30497748Y-21622885D01*
G01X30478506Y-21609176D01*
G01X30457302Y-21598755D01*
G01X30434693Y-21591895D01*
G01X30411274Y-21588777D01*
G01X30387658Y-21589481D01*
G01X30364466Y-21593991D01*
G01X30342307Y-21602186D01*
G01X30321762Y-21613852D01*
G01X30303371Y-21628684D01*
G01X30287617Y-21646290D01*
G01X30274913Y-21666210D01*
G01X30265592Y-21687920D01*
G01X30259900Y-21710850D01*
G01X30257986Y-21734399D01*
G01X30259900Y-21757948D01*
G01X30265592Y-21780878D01*
G01X30274913Y-21802588D01*
G01X30287617Y-21822508D01*
G01X30303371Y-21840114D01*
G01X30321762Y-21854946D01*
G01X30342307Y-21866612D01*
G01X30364466Y-21874807D01*
G01X30387658Y-21879317D01*
G01X30411274Y-21880021D01*
G01X30434693Y-21876903D01*
G01X30457302Y-21870043D01*
G01X30478506Y-21859622D01*
G01X30497748Y-21845913D01*
G01X30514524Y-21829277D01*
G01X30528393Y-21810150D01*
G01X30538991Y-21789034D01*
G01X30546040Y-21766484D01*
G01X30546040Y-21915992D01*
G01X30416500Y-22045532D01*
G01X30135213Y-21764244D01*
G01X30130071Y-21761476D01*
G01X30124255Y-21761995D01*
G01X29987527Y-21816687D01*
G01X29262791Y-21390287D01*
G01X29257639Y-21388883D01*
G01X29077958Y-21388883D01*
G01X28585749Y-21048246D01*
G01X28585749Y-21048246D01*
G01X28579967Y-21046440D01*
G01X28172808Y-21046440D01*
G37*
G36*
G01X22321484Y-23012058D02*
G01X22301702Y-23021262D01*
G01X22283648Y-23033516D01*
G01X22267790Y-23048502D01*
G01X22254536Y-23065834D01*
G01X22244229Y-23085065D01*
G01X22237135Y-23105698D01*
G01X22233436Y-23127202D01*
G01X22233228Y-23149020D01*
G01X22236516Y-23170589D01*
G01X22243217Y-23191354D01*
G01X22253156Y-23210778D01*
G01X22266077Y-23228359D01*
G01X22281647Y-23243645D01*
G01X22299463Y-23256240D01*
G01X21124308Y-23256240D01*
G01X21054060Y-23185992D01*
G01X21054060Y-23066121D01*
G01X21087207Y-23066121D01*
G01X21087207Y-23187279D01*
G01X21088960Y-23198346D01*
G01X21094047Y-23208330D01*
G01X21101970Y-23216253D01*
G01X21111954Y-23221340D01*
G01X21123021Y-23223093D01*
G01X21244179Y-23223093D01*
G01X21244179Y-23223093D01*
G01X21255246Y-23221340D01*
G01X21265230Y-23216253D01*
G01X21273153Y-23208330D01*
G01X21278240Y-23198346D01*
G01X21279993Y-23187279D01*
G01X21279993Y-23066121D01*
G01X21278240Y-23055054D01*
G01X21273153Y-23045070D01*
G01X21265230Y-23037147D01*
G01X21255246Y-23032060D01*
G01X21244179Y-23030307D01*
G01X21123021Y-23030307D01*
G01X21111954Y-23032060D01*
G01X21101970Y-23037147D01*
G01X21094047Y-23045070D01*
G01X21088960Y-23055054D01*
G01X21087207Y-23066121D01*
G01X21054060Y-23066121D01*
G01X21054060Y-23054708D01*
G01X21111608Y-22997160D01*
G01X22037349Y-22997160D01*
G01X22041956Y-22996056D01*
G01X22045561Y-22992982D01*
G01X22157012Y-22839987D01*
G01X22158960Y-22834005D01*
G01X22158960Y-22235897D01*
G01X22163387Y-22225761D01*
G01X22164901Y-22214804D01*
G01X22164901Y-22148375D01*
G01X22170936Y-22169648D01*
G01X22180603Y-22189535D01*
G01X22193602Y-22207423D01*
G01X22209532Y-22222759D01*
G01X22227900Y-22235070D01*
G01X22248141Y-22243974D01*
G01X22269627Y-22249197D01*
G01X22291697Y-22250578D01*
G01X22313667Y-22248073D01*
G01X22334859Y-22241761D01*
G01X22354619Y-22231836D01*
G01X22372336Y-22218605D01*
G01X22387463Y-22202477D01*
G01X22399533Y-22183949D01*
G01X22408172Y-22163594D01*
G01X22413115Y-22142041D01*
G01X22415072Y-22153485D01*
G01X22418040Y-22164709D01*
G01X22418040Y-22898100D01*
G01X22418813Y-22901988D01*
G01X22421016Y-22905284D01*
G01X22519640Y-23003908D01*
G01X22519640Y-23160592D01*
G01X22497374Y-23182858D01*
G01X22502672Y-23161692D01*
G01X22504513Y-23139951D01*
G01X22502849Y-23118195D01*
G01X22497722Y-23096987D01*
G01X22489265Y-23076874D01*
G01X22477697Y-23058374D01*
G01X22463315Y-23041966D01*
G01X22446492Y-23028072D01*
G01X22427660Y-23017052D01*
G01X22407307Y-23009189D01*
G01X22385958Y-23004687D01*
G01X22364163Y-23003662D01*
G01X22342485Y-23006140D01*
G01X22321484Y-23012058D01*
G37*
G36*
G01X12575385Y-22053959D02*
G01X12573428Y-22042515D01*
G01X12570460Y-22031291D01*
G01X12570460Y-21996400D01*
G01X12569687Y-21992512D01*
G01X12567484Y-21989216D01*
G01X12494260Y-21915992D01*
G01X12494260Y-20603608D01*
G01X12551808Y-20546060D01*
G01X12668326Y-20546060D01*
G01X12698693Y-20569492D01*
G01X12691690Y-20567261D01*
G01X12684379Y-20566507D01*
G01X12563221Y-20566507D01*
G01X12552154Y-20568260D01*
G01X12542170Y-20573347D01*
G01X12534247Y-20581270D01*
G01X12529160Y-20591254D01*
G01X12527407Y-20602321D01*
G01X12527407Y-20723479D01*
G01X12529160Y-20734546D01*
G01X12534247Y-20744530D01*
G01X12542170Y-20752453D01*
G01X12552154Y-20757540D01*
G01X12563221Y-20759293D01*
G01X12684379Y-20759293D01*
G01X12695446Y-20757540D01*
G01X12705430Y-20752453D01*
G01X12713353Y-20744530D01*
G01X12718440Y-20734546D01*
G01X12720193Y-20723479D01*
G01X12720193Y-20602321D01*
G01X12718216Y-20590588D01*
G01X12712505Y-20580149D01*
G01X12753340Y-20611659D01*
G01X12753340Y-21848692D01*
G01X12755092Y-21854396D01*
G01X12828291Y-21962294D01*
G01X12824790Y-21971458D01*
G01X12823599Y-21981196D01*
G01X12823599Y-22047625D01*
G01X12817564Y-22026352D01*
G01X12807897Y-22006465D01*
G01X12794898Y-21988577D01*
G01X12778968Y-21973241D01*
G01X12760600Y-21960930D01*
G01X12740359Y-21952026D01*
G01X12718873Y-21946803D01*
G01X12696803Y-21945422D01*
G01X12674833Y-21947927D01*
G01X12653641Y-21954239D01*
G01X12633881Y-21964164D01*
G01X12616164Y-21977395D01*
G01X12601037Y-21993523D01*
G01X12588967Y-22012051D01*
G01X12580328Y-22032406D01*
G01X12575385Y-22053959D01*
G37*
G36*
G01X12570460Y-23351092D02*
G01X12570460Y-22189119D01*
G01X12575255Y-22167459D01*
G01X12580047Y-22189109D01*
G01X12588566Y-22209580D01*
G01X12600547Y-22228238D01*
G01X12615617Y-22244504D01*
G01X12633308Y-22257871D01*
G01X12653071Y-22267924D01*
G01X12674293Y-22274352D01*
G01X12696313Y-22276955D01*
G01X12718448Y-22275651D01*
G01X12740010Y-22270482D01*
G01X12760331Y-22261607D01*
G01X12778777Y-22249304D01*
G01X12794777Y-22233953D01*
G01X12807834Y-22216031D01*
G01X12817542Y-22196096D01*
G01X12823599Y-22174766D01*
G01X12823599Y-22241195D01*
G01X12825113Y-22252152D01*
G01X12829540Y-22262288D01*
G01X12829540Y-23202900D01*
G01X12830313Y-23206788D01*
G01X12832516Y-23210084D01*
G01X13096240Y-23473808D01*
G01X13096240Y-23533718D01*
G01X13081927Y-23515824D01*
G01X13064810Y-23500590D01*
G01X13045375Y-23488451D01*
G01X13024176Y-23479752D01*
G01X13001817Y-23474741D01*
G01X12978933Y-23473560D01*
G01X12956176Y-23476243D01*
G01X12934195Y-23482713D01*
G01X12913614Y-23492787D01*
G01X12895019Y-23506178D01*
G01X12878941Y-23522504D01*
G01X12865835Y-23541301D01*
G01X12856077Y-23562034D01*
G01X12849943Y-23584112D01*
G01X12847608Y-23606907D01*
G01X12849138Y-23629770D01*
G01X12570460Y-23351092D01*
G37*
G36*
G01X11084560Y-24488140D02*
G01X11084560Y-22070205D01*
G01X12315574Y-22070205D01*
G01X12315574Y-22150205D01*
G01X12317392Y-22171905D01*
G01X12322795Y-22193000D01*
G01X12331633Y-22212902D01*
G01X12343660Y-22231055D01*
G01X12358539Y-22246955D01*
G01X12375857Y-22260157D01*
G01X12395130Y-22270293D01*
G01X12415821Y-22277082D01*
G01X12437353Y-22280332D01*
G01X12459126Y-22279955D01*
G01X12480533Y-22275960D01*
G01X12500976Y-22268459D01*
G01X12519886Y-22257660D01*
G01X12519886Y-23355300D01*
G01X12521263Y-23365760D01*
G01X12525301Y-23375507D01*
G01X12531723Y-23383877D01*
G01X12912723Y-23764877D01*
G01X12921093Y-23771299D01*
G01X12930840Y-23775337D01*
G01X12941300Y-23776714D01*
G01X13030200Y-23776714D01*
G01X13040660Y-23775337D01*
G01X13050407Y-23771299D01*
G01X13058777Y-23764877D01*
G01X13134977Y-23688677D01*
G01X13141399Y-23680307D01*
G01X13145437Y-23670560D01*
G01X13146814Y-23660100D01*
G01X13146814Y-23469600D01*
G01X13145437Y-23459140D01*
G01X13141399Y-23449393D01*
G01X13134977Y-23441023D01*
G01X12880114Y-23186160D01*
G01X12880114Y-23114000D01*
G01X13307286Y-23114000D01*
G01X13307286Y-23710900D01*
G01X13309264Y-23723389D01*
G01X13315004Y-23734655D01*
G01X13323945Y-23743596D01*
G01X13335211Y-23749336D01*
G01X13347700Y-23751314D01*
G01X14033500Y-23751314D01*
G01X14043960Y-23749937D01*
G01X14053707Y-23745899D01*
G01X14062077Y-23739477D01*
G01X14093632Y-23707922D01*
G01X18076849Y-23707922D01*
G01X18076849Y-23730287D01*
G01X18080530Y-23752346D01*
G01X18087792Y-23773499D01*
G01X18098436Y-23793169D01*
G01X18112173Y-23810817D01*
G01X18128627Y-23825965D01*
G01X18147350Y-23838197D01*
G01X18167831Y-23847181D01*
G01X18189512Y-23852671D01*
G01X18211800Y-23854518D01*
G01X18211800Y-23854518D01*
G01X18234088Y-23852671D01*
G01X18255769Y-23847181D01*
G01X18276250Y-23838197D01*
G01X18294973Y-23825965D01*
G01X18311427Y-23810817D01*
G01X18325164Y-23793169D01*
G01X18335808Y-23773499D01*
G01X18343070Y-23752346D01*
G01X18346751Y-23730287D01*
G01X18346751Y-23707922D01*
G01X18343070Y-23685862D01*
G01X18335808Y-23664709D01*
G01X18325164Y-23645040D01*
G01X18311427Y-23627391D01*
G01X18294973Y-23612244D01*
G01X18276250Y-23600011D01*
G01X18255769Y-23591028D01*
G01X18234088Y-23585537D01*
G01X18211800Y-23583690D01*
G01X18189512Y-23585537D01*
G01X18167831Y-23591028D01*
G01X18147350Y-23600011D01*
G01X18128627Y-23612244D01*
G01X18112173Y-23627391D01*
G01X18098436Y-23645040D01*
G01X18087792Y-23664709D01*
G01X18080530Y-23685862D01*
G01X18076849Y-23707922D01*
G01X14093632Y-23707922D01*
G01X14887577Y-22913977D01*
G01X14893999Y-22905607D01*
G01X14898037Y-22895860D01*
G01X14899414Y-22885400D01*
G01X14899414Y-22572675D01*
G01X14899414Y-22572675D01*
G01X14897805Y-22561384D01*
G01X14893105Y-22550992D01*
G01X14885689Y-22542327D01*
G01X14851377Y-22512152D01*
G01X14843383Y-22506670D01*
G01X14834312Y-22503249D01*
G01X14824688Y-22502086D01*
G01X13919200Y-22502086D01*
G01X13908740Y-22503463D01*
G01X13898993Y-22507501D01*
G01X13890623Y-22513923D01*
G01X13319123Y-23085423D01*
G01X13312701Y-23093793D01*
G01X13308663Y-23103540D01*
G01X13307286Y-23114000D01*
G01X12880114Y-23114000D01*
G01X12880114Y-22419608D01*
G01X17371603Y-22419608D01*
G01X17371918Y-22440325D01*
G01X17375895Y-22460660D01*
G01X17383407Y-22479970D01*
G01X17394219Y-22497645D01*
G01X17407988Y-22513128D01*
G01X17424279Y-22525930D01*
G01X17442580Y-22535647D01*
G01X17462310Y-22541972D01*
G01X17482849Y-22544705D01*
G01X17503547Y-22543759D01*
G01X17523752Y-22539166D01*
G01X18301243Y-23316657D01*
G01X18312243Y-23325098D01*
G01X18325053Y-23330404D01*
G01X18338800Y-23332214D01*
G01X18869984Y-23332214D01*
G01X18881023Y-23349748D01*
G01X18894990Y-23365053D01*
G01X18911446Y-23377643D01*
G01X18929870Y-23387123D01*
G01X18949681Y-23393192D01*
G01X18970253Y-23395660D01*
G01X18990937Y-23394448D01*
G01X19011081Y-23389594D01*
G01X19030047Y-23381252D01*
G01X19047238Y-23369685D01*
G01X19062110Y-23355259D01*
G01X19074194Y-23338428D01*
G01X19083109Y-23319724D01*
G01X19088573Y-23299738D01*
G01X19090414Y-23279100D01*
G01X19088573Y-23258462D01*
G01X19083109Y-23238476D01*
G01X19074194Y-23219772D01*
G01X19062110Y-23202941D01*
G01X19047238Y-23188515D01*
G01X19030047Y-23176948D01*
G01X19011081Y-23168606D01*
G01X18990937Y-23163752D01*
G01X18970253Y-23162540D01*
G01X18949681Y-23165008D01*
G01X18929870Y-23171077D01*
G01X18911446Y-23180557D01*
G01X18894990Y-23193147D01*
G01X18881023Y-23208452D01*
G01X18869984Y-23225986D01*
G01X18360801Y-23225986D01*
G01X17971726Y-22836911D01*
G01X19224386Y-22836911D01*
G01X19226368Y-22859558D01*
G01X19232251Y-22881516D01*
G01X19241858Y-22902118D01*
G01X19254897Y-22920740D01*
G01X19270972Y-22936814D01*
G01X19289593Y-22949853D01*
G01X19310196Y-22959460D01*
G01X19332154Y-22965344D01*
G01X19354800Y-22967325D01*
G01X19354800Y-22967325D01*
G01X19377446Y-22965344D01*
G01X19399404Y-22959460D01*
G01X19420007Y-22949853D01*
G01X19438628Y-22936814D01*
G01X19454703Y-22920740D01*
G01X19467742Y-22902118D01*
G01X19477349Y-22881516D01*
G01X19483232Y-22859558D01*
G01X19485045Y-22838839D01*
G01X19962584Y-22838839D01*
G01X19962584Y-22860358D01*
G01X19966538Y-22881512D01*
G01X19974311Y-22901578D01*
G01X19985640Y-22919874D01*
G01X20000138Y-22935777D01*
G01X20017311Y-22948746D01*
G01X20036574Y-22958338D01*
G01X20057272Y-22964227D01*
G01X20078700Y-22966213D01*
G01X20100128Y-22964227D01*
G01X20120826Y-22958338D01*
G01X20140089Y-22948746D01*
G01X20157262Y-22935777D01*
G01X20171760Y-22919874D01*
G01X20183089Y-22901578D01*
G01X20190862Y-22881512D01*
G01X20194816Y-22860358D01*
G01X20194816Y-22838839D01*
G01X20190862Y-22817686D01*
G01X20183089Y-22797619D01*
G01X20171760Y-22779323D01*
G01X20157262Y-22763420D01*
G01X20140089Y-22750452D01*
G01X20120826Y-22740859D01*
G01X20100128Y-22734970D01*
G01X20078700Y-22732985D01*
G01X20078700Y-22732985D01*
G01X20057272Y-22734970D01*
G01X20036574Y-22740859D01*
G01X20017311Y-22750452D01*
G01X20000138Y-22763420D01*
G01X19985640Y-22779323D01*
G01X19974311Y-22797619D01*
G01X19966538Y-22817686D01*
G01X19962584Y-22838839D01*
G01X19485045Y-22838839D01*
G01X19485214Y-22836911D01*
G01X19483232Y-22814265D01*
G01X19477349Y-22792307D01*
G01X19467742Y-22771705D01*
G01X19454703Y-22753083D01*
G01X19438628Y-22737009D01*
G01X19420007Y-22723970D01*
G01X19399404Y-22714363D01*
G01X19377446Y-22708479D01*
G01X19354800Y-22706498D01*
G01X19332154Y-22708479D01*
G01X19310196Y-22714363D01*
G01X19289593Y-22723970D01*
G01X19270972Y-22737009D01*
G01X19254897Y-22753083D01*
G01X19241858Y-22771705D01*
G01X19232251Y-22792307D01*
G01X19226368Y-22814265D01*
G01X19224386Y-22836911D01*
G01X17971726Y-22836911D01*
G01X17598866Y-22464052D01*
G01X17598866Y-22464052D01*
G01X17603459Y-22443847D01*
G01X17604405Y-22423149D01*
G01X17601672Y-22402610D01*
G01X17595347Y-22382880D01*
G01X17585630Y-22364579D01*
G01X17572828Y-22348288D01*
G01X17557345Y-22334519D01*
G01X17539670Y-22323707D01*
G01X17520360Y-22316195D01*
G01X17500025Y-22312218D01*
G01X17479308Y-22311903D01*
G01X17458862Y-22315259D01*
G01X17439332Y-22322181D01*
G01X17421336Y-22332450D01*
G01X17405441Y-22345741D01*
G01X17392150Y-22361636D01*
G01X17381881Y-22379632D01*
G01X17374959Y-22399162D01*
G01X17371603Y-22419608D01*
G01X12880114Y-22419608D01*
G01X12880114Y-22281609D01*
G01X13044013Y-22281609D01*
G01X13056501Y-22279631D01*
G01X13067767Y-22273891D01*
G01X13076708Y-22264950D01*
G01X13082448Y-22253684D01*
G01X13084426Y-22241195D01*
G01X13084426Y-21981196D01*
G01X13082448Y-21968707D01*
G01X13076708Y-21957441D01*
G01X13067767Y-21948500D01*
G01X13056501Y-21942760D01*
G01X13044013Y-21940782D01*
G01X12874685Y-21940782D01*
G01X12873144Y-21938325D01*
G01X12803914Y-21836277D01*
G01X12803914Y-20606665D01*
G01X12802054Y-20594547D01*
G01X12796647Y-20583545D01*
G01X12788189Y-20574669D01*
G01X12721486Y-20523200D01*
G01X13444687Y-20523200D01*
G01X13446673Y-20544628D01*
G01X13452562Y-20565326D01*
G01X13462154Y-20584589D01*
G01X13475123Y-20601762D01*
G01X13491026Y-20616260D01*
G01X13509322Y-20627589D01*
G01X13529388Y-20635362D01*
G01X13550542Y-20639316D01*
G01X13572061Y-20639316D01*
G01X13593214Y-20635362D01*
G01X13613281Y-20627589D01*
G01X13631577Y-20616260D01*
G01X13647480Y-20601762D01*
G01X13660448Y-20584589D01*
G01X13670041Y-20565326D01*
G01X13675930Y-20544628D01*
G01X13677915Y-20523200D01*
G01X13677915Y-20523200D01*
G01X13675930Y-20501772D01*
G01X13670041Y-20481074D01*
G01X13660448Y-20461811D01*
G01X13647480Y-20444638D01*
G01X13631577Y-20430140D01*
G01X13613281Y-20418811D01*
G01X13593214Y-20411038D01*
G01X13572061Y-20407084D01*
G01X13550542Y-20407084D01*
G01X13529388Y-20411038D01*
G01X13509322Y-20418811D01*
G01X13491026Y-20430140D01*
G01X13475123Y-20444638D01*
G01X13462154Y-20461811D01*
G01X13452562Y-20481074D01*
G01X13446673Y-20501772D01*
G01X13444687Y-20523200D01*
G01X12721486Y-20523200D01*
G01X12700110Y-20506706D01*
G01X12710184Y-20500582D01*
G01X12718062Y-20491812D01*
G01X12723074Y-20481142D01*
G01X12724793Y-20469479D01*
G01X12724793Y-20369504D01*
G01X14018486Y-20369504D01*
G01X14018486Y-21805900D01*
G01X14019863Y-21816360D01*
G01X14023901Y-21826107D01*
G01X14030323Y-21834477D01*
G01X14157323Y-21961477D01*
G01X14165693Y-21967899D01*
G01X14175440Y-21971937D01*
G01X14185900Y-21973314D01*
G01X14706600Y-21973314D01*
G01X14717060Y-21971937D01*
G01X14726807Y-21967899D01*
G01X14735177Y-21961477D01*
G01X14845550Y-21851104D01*
G01X20608233Y-21851104D01*
G01X20611821Y-21868391D01*
G01X20619096Y-21884479D01*
G01X20629706Y-21898592D01*
G01X20643140Y-21910049D01*
G01X20658751Y-21918298D01*
G01X20675785Y-21922941D01*
G01X20693423Y-21923754D01*
G01X20892030Y-22122362D01*
G01X20903030Y-22130803D01*
G01X20915840Y-22136109D01*
G01X20929587Y-22137919D01*
G01X21904074Y-22137919D01*
G01X21904074Y-22214804D01*
G01X21904074Y-22214804D01*
G01X21906052Y-22227293D01*
G01X21911792Y-22238559D01*
G01X21920733Y-22247500D01*
G01X21931999Y-22253240D01*
G01X21944487Y-22255218D01*
G01X22108386Y-22255218D01*
G01X22108386Y-22820845D01*
G01X22016789Y-22946586D01*
G01X21107400Y-22946586D01*
G01X21096940Y-22947963D01*
G01X21087193Y-22952001D01*
G01X21078823Y-22958423D01*
G01X21015323Y-23021923D01*
G01X21008895Y-23030302D01*
G01X20999815Y-23026873D01*
G01X20990179Y-23025707D01*
G01X20869021Y-23025707D01*
G01X20856532Y-23027685D01*
G01X20845266Y-23033425D01*
G01X20836325Y-23042366D01*
G01X20830585Y-23053632D01*
G01X20828607Y-23066121D01*
G01X20828607Y-23187279D01*
G01X20830585Y-23199768D01*
G01X20836325Y-23211034D01*
G01X20845266Y-23219975D01*
G01X20856532Y-23225715D01*
G01X20869021Y-23227693D01*
G01X20990179Y-23227693D01*
G01X20999182Y-23226677D01*
G01X21007733Y-23223681D01*
G01X21015402Y-23218856D01*
G01X21091523Y-23294977D01*
G01X21099893Y-23301399D01*
G01X21109640Y-23305437D01*
G01X21120100Y-23306814D01*
G01X22428200Y-23306814D01*
G01X22438660Y-23305437D01*
G01X22448407Y-23301399D01*
G01X22456777Y-23294977D01*
G01X22558377Y-23193377D01*
G01X22564799Y-23185007D01*
G01X22568837Y-23175260D01*
G01X22570214Y-23164800D01*
G01X22570214Y-23139400D01*
G01X22728286Y-23139400D01*
G01X22730201Y-23162511D01*
G01X22735894Y-23184992D01*
G01X22745209Y-23206230D01*
G01X22757893Y-23225644D01*
G01X22773600Y-23242706D01*
G01X22791900Y-23256950D01*
G01X22812296Y-23267987D01*
G01X22834230Y-23275517D01*
G01X22857104Y-23279334D01*
G01X22880295Y-23279334D01*
G01X22903169Y-23275517D01*
G01X22925103Y-23267987D01*
G01X22945499Y-23256950D01*
G01X22963799Y-23242706D01*
G01X22979506Y-23225644D01*
G01X22992190Y-23206230D01*
G01X23001505Y-23184992D01*
G01X23007198Y-23162511D01*
G01X23009113Y-23139400D01*
G01X23009113Y-23139400D01*
G01X23007198Y-23116289D01*
G01X23001505Y-23093808D01*
G01X22999216Y-23088590D01*
G01X25604791Y-23088590D01*
G01X25606697Y-23110368D01*
G01X25612355Y-23131484D01*
G01X25621594Y-23151297D01*
G01X25634133Y-23169204D01*
G01X25649591Y-23184662D01*
G01X25667498Y-23197201D01*
G01X25687311Y-23206440D01*
G01X25708427Y-23212098D01*
G01X25730205Y-23214004D01*
G01X25751983Y-23212098D01*
G01X25773099Y-23206440D01*
G01X25792912Y-23197201D01*
G01X25810819Y-23184662D01*
G01X25826278Y-23169204D01*
G01X25838817Y-23151297D01*
G01X25848055Y-23131484D01*
G01X25853714Y-23110368D01*
G01X25855619Y-23088590D01*
G01X25855619Y-23088590D01*
G01X26112791Y-23088590D01*
G01X26114697Y-23110368D01*
G01X26120355Y-23131484D01*
G01X26129594Y-23151297D01*
G01X26142133Y-23169204D01*
G01X26157591Y-23184662D01*
G01X26175498Y-23197201D01*
G01X26195311Y-23206440D01*
G01X26216427Y-23212098D01*
G01X26238205Y-23214004D01*
G01X26259983Y-23212098D01*
G01X26281099Y-23206440D01*
G01X26300912Y-23197201D01*
G01X26318819Y-23184662D01*
G01X26334278Y-23169204D01*
G01X26339389Y-23161904D01*
G01X30213066Y-23161904D01*
G01X30213066Y-23185095D01*
G01X30216883Y-23207969D01*
G01X30224413Y-23229903D01*
G01X30235450Y-23250299D01*
G01X30249694Y-23268599D01*
G01X30266756Y-23284306D01*
G01X30286170Y-23296990D01*
G01X30307408Y-23306305D01*
G01X30329889Y-23311998D01*
G01X30353000Y-23313913D01*
G01X30376111Y-23311998D01*
G01X30398592Y-23306305D01*
G01X30419830Y-23296990D01*
G01X30439244Y-23284306D01*
G01X30456306Y-23268599D01*
G01X30470550Y-23250299D01*
G01X30481587Y-23229903D01*
G01X30489117Y-23207969D01*
G01X30492934Y-23185095D01*
G01X30492934Y-23161904D01*
G01X30489117Y-23139030D01*
G01X30481587Y-23117096D01*
G01X30470550Y-23096700D01*
G01X30456306Y-23078400D01*
G01X30439244Y-23062693D01*
G01X30419830Y-23050009D01*
G01X30398592Y-23040694D01*
G01X30376111Y-23035001D01*
G01X30353000Y-23033086D01*
G01X30353000Y-23033086D01*
G01X30329889Y-23035001D01*
G01X30307408Y-23040694D01*
G01X30286170Y-23050009D01*
G01X30266756Y-23062693D01*
G01X30249694Y-23078400D01*
G01X30235450Y-23096700D01*
G01X30224413Y-23117096D01*
G01X30216883Y-23139030D01*
G01X30213066Y-23161904D01*
G01X26339389Y-23161904D01*
G01X26346817Y-23151297D01*
G01X26356055Y-23131484D01*
G01X26361714Y-23110368D01*
G01X26363619Y-23088590D01*
G01X26363619Y-23088590D01*
G01X26361714Y-23066812D01*
G01X26356055Y-23045696D01*
G01X26346817Y-23025883D01*
G01X26334278Y-23007975D01*
G01X26318819Y-22992517D01*
G01X26300912Y-22979978D01*
G01X26281099Y-22970739D01*
G01X26259983Y-22965081D01*
G01X26238205Y-22963176D01*
G01X26216427Y-22965081D01*
G01X26195311Y-22970739D01*
G01X26175498Y-22979978D01*
G01X26157591Y-22992517D01*
G01X26142133Y-23007975D01*
G01X26129594Y-23025883D01*
G01X26120355Y-23045696D01*
G01X26114697Y-23066812D01*
G01X26112791Y-23088590D01*
G01X25855619Y-23088590D01*
G01X25853714Y-23066812D01*
G01X25848055Y-23045696D01*
G01X25838817Y-23025883D01*
G01X25826278Y-23007975D01*
G01X25810819Y-22992517D01*
G01X25792912Y-22979978D01*
G01X25773099Y-22970739D01*
G01X25751983Y-22965081D01*
G01X25730205Y-22963176D01*
G01X25708427Y-22965081D01*
G01X25687311Y-22970739D01*
G01X25667498Y-22979978D01*
G01X25649591Y-22992517D01*
G01X25634133Y-23007975D01*
G01X25621594Y-23025883D01*
G01X25612355Y-23045696D01*
G01X25606697Y-23066812D01*
G01X25604791Y-23088590D01*
G01X22999216Y-23088590D01*
G01X22992190Y-23072570D01*
G01X22979506Y-23053156D01*
G01X22963799Y-23036094D01*
G01X22945499Y-23021850D01*
G01X22925103Y-23010813D01*
G01X22903169Y-23003283D01*
G01X22880295Y-22999466D01*
G01X22857104Y-22999466D01*
G01X22834230Y-23003283D01*
G01X22812296Y-23010813D01*
G01X22791900Y-23021850D01*
G01X22773600Y-23036094D01*
G01X22757893Y-23053156D01*
G01X22745209Y-23072570D01*
G01X22735894Y-23093808D01*
G01X22730201Y-23116289D01*
G01X22728286Y-23139400D01*
G01X22570214Y-23139400D01*
G01X22570214Y-22999700D01*
G01X22568837Y-22989240D01*
G01X22564799Y-22979493D01*
G01X22558377Y-22971123D01*
G01X22468614Y-22881360D01*
G01X22468614Y-22580590D01*
G01X25604791Y-22580590D01*
G01X25606697Y-22602368D01*
G01X25612355Y-22623484D01*
G01X25621594Y-22643297D01*
G01X25634133Y-22661204D01*
G01X25649591Y-22676662D01*
G01X25667498Y-22689201D01*
G01X25687311Y-22698440D01*
G01X25708427Y-22704098D01*
G01X25730205Y-22706004D01*
G01X25751983Y-22704098D01*
G01X25773099Y-22698440D01*
G01X25792912Y-22689201D01*
G01X25810819Y-22676662D01*
G01X25826278Y-22661204D01*
G01X25838817Y-22643297D01*
G01X25848055Y-22623484D01*
G01X25853714Y-22602368D01*
G01X25855619Y-22580590D01*
G01X25855619Y-22580590D01*
G01X25858791Y-22580590D01*
G01X25860697Y-22602368D01*
G01X25866355Y-22623484D01*
G01X25875594Y-22643297D01*
G01X25888133Y-22661204D01*
G01X25903591Y-22676662D01*
G01X25921498Y-22689201D01*
G01X25941311Y-22698440D01*
G01X25962427Y-22704098D01*
G01X25984205Y-22706004D01*
G01X26005983Y-22704098D01*
G01X26027099Y-22698440D01*
G01X26046912Y-22689201D01*
G01X26064819Y-22676662D01*
G01X26080278Y-22661204D01*
G01X26092817Y-22643297D01*
G01X26102055Y-22623484D01*
G01X26107714Y-22602368D01*
G01X26109619Y-22580590D01*
G01X26109619Y-22580590D01*
G01X26112791Y-22580590D01*
G01X26114697Y-22602368D01*
G01X26120355Y-22623484D01*
G01X26129594Y-22643297D01*
G01X26142133Y-22661204D01*
G01X26157591Y-22676662D01*
G01X26175498Y-22689201D01*
G01X26195311Y-22698440D01*
G01X26216427Y-22704098D01*
G01X26238205Y-22706004D01*
G01X26259983Y-22704098D01*
G01X26281099Y-22698440D01*
G01X26300912Y-22689201D01*
G01X26318819Y-22676662D01*
G01X26334278Y-22661204D01*
G01X26346817Y-22643297D01*
G01X26356055Y-22623484D01*
G01X26361714Y-22602368D01*
G01X26363619Y-22580590D01*
G01X26363619Y-22580590D01*
G01X26362142Y-22563709D01*
G01X27882096Y-22563709D01*
G01X27883925Y-22584619D01*
G01X27889357Y-22604893D01*
G01X27898228Y-22623916D01*
G01X27910267Y-22641109D01*
G01X27925109Y-22655951D01*
G01X27942303Y-22667990D01*
G01X27961325Y-22676861D01*
G01X27981600Y-22682293D01*
G01X28002509Y-22684123D01*
G01X28023419Y-22682293D01*
G01X28043693Y-22676861D01*
G01X28050491Y-22673691D01*
G01X28392077Y-22673691D01*
G01X28393906Y-22694601D01*
G01X28399339Y-22714875D01*
G01X28408209Y-22733898D01*
G01X28420248Y-22751091D01*
G01X28435090Y-22765933D01*
G01X28452284Y-22777972D01*
G01X28471307Y-22786843D01*
G01X28491581Y-22792275D01*
G01X28512491Y-22794105D01*
G01X28533400Y-22792275D01*
G01X28553675Y-22786843D01*
G01X28572697Y-22777972D01*
G01X28589891Y-22765933D01*
G01X28604733Y-22751091D01*
G01X28616772Y-22733898D01*
G01X28625643Y-22714875D01*
G01X28631075Y-22694601D01*
G01X28632904Y-22673691D01*
G01X28631873Y-22661905D01*
G01X30213066Y-22661905D01*
G01X30213066Y-22685096D01*
G01X30216883Y-22707970D01*
G01X30224413Y-22729904D01*
G01X30235450Y-22750300D01*
G01X30249694Y-22768600D01*
G01X30266756Y-22784307D01*
G01X30286170Y-22796991D01*
G01X30307408Y-22806306D01*
G01X30329889Y-22811999D01*
G01X30353000Y-22813914D01*
G01X30376111Y-22811999D01*
G01X30398592Y-22806306D01*
G01X30419830Y-22796991D01*
G01X30439244Y-22784307D01*
G01X30456306Y-22768600D01*
G01X30470550Y-22750300D01*
G01X30481587Y-22729904D01*
G01X30489117Y-22707970D01*
G01X30492934Y-22685096D01*
G01X30492934Y-22661905D01*
G01X30489117Y-22639031D01*
G01X30481587Y-22617097D01*
G01X30470550Y-22596701D01*
G01X30456306Y-22578401D01*
G01X30439244Y-22562694D01*
G01X30419830Y-22550010D01*
G01X30398592Y-22540695D01*
G01X30376111Y-22535002D01*
G01X30353000Y-22533087D01*
G01X30353000Y-22533087D01*
G01X30329889Y-22535002D01*
G01X30307408Y-22540695D01*
G01X30286170Y-22550010D01*
G01X30266756Y-22562694D01*
G01X30249694Y-22578401D01*
G01X30235450Y-22596701D01*
G01X30224413Y-22617097D01*
G01X30216883Y-22639031D01*
G01X30213066Y-22661905D01*
G01X28631873Y-22661905D01*
G01X28631075Y-22652781D01*
G01X28625643Y-22632507D01*
G01X28616772Y-22613484D01*
G01X28604733Y-22596291D01*
G01X28589891Y-22581449D01*
G01X28572697Y-22569410D01*
G01X28553675Y-22560539D01*
G01X28533400Y-22555107D01*
G01X28512491Y-22553277D01*
G01X28491581Y-22555107D01*
G01X28471307Y-22560539D01*
G01X28452284Y-22569410D01*
G01X28435090Y-22581449D01*
G01X28420248Y-22596291D01*
G01X28408209Y-22613484D01*
G01X28399339Y-22632507D01*
G01X28393906Y-22652781D01*
G01X28392077Y-22673691D01*
G01X28392077Y-22673691D01*
G01X28050491Y-22673691D01*
G01X28062716Y-22667990D01*
G01X28079910Y-22655951D01*
G01X28094752Y-22641109D01*
G01X28106791Y-22623916D01*
G01X28115661Y-22604893D01*
G01X28121094Y-22584619D01*
G01X28122923Y-22563709D01*
G01X28121094Y-22542799D01*
G01X28115661Y-22522525D01*
G01X28106791Y-22503502D01*
G01X28094752Y-22486309D01*
G01X28079910Y-22471467D01*
G01X28062716Y-22459428D01*
G01X28043693Y-22450557D01*
G01X28023419Y-22445125D01*
G01X28002509Y-22443295D01*
G01X27981600Y-22445125D01*
G01X27961325Y-22450557D01*
G01X27942303Y-22459428D01*
G01X27925109Y-22471467D01*
G01X27910267Y-22486309D01*
G01X27898228Y-22503502D01*
G01X27889357Y-22522525D01*
G01X27883925Y-22542799D01*
G01X27882096Y-22563709D01*
G01X27882096Y-22563709D01*
G01X26362142Y-22563709D01*
G01X26361714Y-22558812D01*
G01X26356055Y-22537696D01*
G01X26346817Y-22517883D01*
G01X26334278Y-22499975D01*
G01X26318819Y-22484517D01*
G01X26300912Y-22471978D01*
G01X26281099Y-22462739D01*
G01X26259983Y-22457081D01*
G01X26238205Y-22455176D01*
G01X26216427Y-22457081D01*
G01X26195311Y-22462739D01*
G01X26175498Y-22471978D01*
G01X26157591Y-22484517D01*
G01X26142133Y-22499975D01*
G01X26129594Y-22517883D01*
G01X26120355Y-22537696D01*
G01X26114697Y-22558812D01*
G01X26112791Y-22580590D01*
G01X26109619Y-22580590D01*
G01X26107714Y-22558812D01*
G01X26102055Y-22537696D01*
G01X26092817Y-22517883D01*
G01X26080278Y-22499975D01*
G01X26064819Y-22484517D01*
G01X26046912Y-22471978D01*
G01X26027099Y-22462739D01*
G01X26005983Y-22457081D01*
G01X25984205Y-22455176D01*
G01X25962427Y-22457081D01*
G01X25941311Y-22462739D01*
G01X25921498Y-22471978D01*
G01X25903591Y-22484517D01*
G01X25888133Y-22499975D01*
G01X25875594Y-22517883D01*
G01X25866355Y-22537696D01*
G01X25860697Y-22558812D01*
G01X25858791Y-22580590D01*
G01X25855619Y-22580590D01*
G01X25853714Y-22558812D01*
G01X25848055Y-22537696D01*
G01X25838817Y-22517883D01*
G01X25826278Y-22499975D01*
G01X25810819Y-22484517D01*
G01X25792912Y-22471978D01*
G01X25773099Y-22462739D01*
G01X25751983Y-22457081D01*
G01X25730205Y-22455176D01*
G01X25708427Y-22457081D01*
G01X25687311Y-22462739D01*
G01X25667498Y-22471978D01*
G01X25649591Y-22484517D01*
G01X25634133Y-22499975D01*
G01X25621594Y-22517883D01*
G01X25612355Y-22537696D01*
G01X25606697Y-22558812D01*
G01X25604791Y-22580590D01*
G01X22468614Y-22580590D01*
G01X22468614Y-22233251D01*
G01X22487524Y-22244049D01*
G01X22507967Y-22251550D01*
G01X22529374Y-22255545D01*
G01X22551147Y-22255923D01*
G01X22572679Y-22252672D01*
G01X22593370Y-22245884D01*
G01X22612643Y-22235748D01*
G01X22629961Y-22222545D01*
G01X22644840Y-22206646D01*
G01X22656867Y-22188492D01*
G01X22665705Y-22168590D01*
G01X22671108Y-22147495D01*
G01X22672926Y-22125795D01*
G01X22672926Y-22060891D01*
G01X22900495Y-22060891D01*
G01X22902325Y-22081800D01*
G01X22907757Y-22102075D01*
G01X22916628Y-22121097D01*
G01X22928667Y-22138291D01*
G01X22943509Y-22153133D01*
G01X22960702Y-22165172D01*
G01X22979725Y-22174043D01*
G01X22999999Y-22179475D01*
G01X23020909Y-22181304D01*
G01X23041819Y-22179475D01*
G01X23062093Y-22174043D01*
G01X23081116Y-22165172D01*
G01X23098309Y-22153133D01*
G01X23113151Y-22138291D01*
G01X23125190Y-22121097D01*
G01X23134061Y-22102075D01*
G01X23139493Y-22081800D01*
G01X23141323Y-22060891D01*
G01X23139493Y-22039981D01*
G01X23134061Y-22019707D01*
G01X23125190Y-22000684D01*
G01X23113151Y-21983490D01*
G01X23098309Y-21968648D01*
G01X23081116Y-21956609D01*
G01X23062093Y-21947739D01*
G01X23041819Y-21942306D01*
G01X23020909Y-21940477D01*
G01X23020909Y-21940477D01*
G01X22999999Y-21942306D01*
G01X22979725Y-21947739D01*
G01X22960702Y-21956609D01*
G01X22943509Y-21968648D01*
G01X22928667Y-21983490D01*
G01X22916628Y-22000684D01*
G01X22907757Y-22019707D01*
G01X22902325Y-22039981D01*
G01X22900495Y-22060891D01*
G01X22672926Y-22060891D01*
G01X22672926Y-22045795D01*
G01X22670953Y-22023196D01*
G01X22665094Y-22001280D01*
G01X22655525Y-21980711D01*
G01X22642537Y-21962112D01*
G01X22626521Y-21946044D01*
G01X22607964Y-21932995D01*
G01X22587427Y-21923360D01*
G01X22565530Y-21917429D01*
G01X22542937Y-21915382D01*
G01X22520331Y-21917282D01*
G01X22498396Y-21923070D01*
G01X22477796Y-21932572D01*
G01X22459155Y-21945500D01*
G01X22456777Y-21942906D01*
G01X22400999Y-21887127D01*
G01X22392629Y-21880705D01*
G01X22382881Y-21876667D01*
G01X22372422Y-21875290D01*
G01X22204096Y-21875290D01*
G01X22193636Y-21876667D01*
G01X22183889Y-21880705D01*
G01X22175519Y-21887127D01*
G01X22143502Y-21919144D01*
G01X22134287Y-21915597D01*
G01X22124487Y-21914391D01*
G01X21944487Y-21914391D01*
G01X21931999Y-21916369D01*
G01X21920733Y-21922109D01*
G01X21911792Y-21931050D01*
G01X21906052Y-21942316D01*
G01X21904074Y-21954805D01*
G01X21904074Y-22031691D01*
G01X20951588Y-22031691D01*
G01X20768537Y-21848640D01*
G01X20767723Y-21831003D01*
G01X20763080Y-21813968D01*
G01X20754831Y-21798357D01*
G01X20743374Y-21784923D01*
G01X20729262Y-21774313D01*
G01X20713174Y-21767039D01*
G01X20695886Y-21763451D01*
G01X20678232Y-21763722D01*
G01X20661063Y-21767840D01*
G01X20645206Y-21775605D01*
G01X20631426Y-21786644D01*
G01X20620387Y-21800423D01*
G01X20612622Y-21816280D01*
G01X20608505Y-21833449D01*
G01X20608233Y-21851104D01*
G01X14845550Y-21851104D01*
G01X14900277Y-21796377D01*
G01X14906699Y-21788007D01*
G01X14910737Y-21778260D01*
G01X14912114Y-21767800D01*
G01X14912114Y-21557913D01*
G01X18076849Y-21557913D01*
G01X18076849Y-21580278D01*
G01X18080530Y-21602338D01*
G01X18087792Y-21623491D01*
G01X18098436Y-21643160D01*
G01X18112173Y-21660809D01*
G01X18128627Y-21675956D01*
G01X18147350Y-21688189D01*
G01X18167831Y-21697172D01*
G01X18189512Y-21702663D01*
G01X18211800Y-21704510D01*
G01X18211800Y-21704510D01*
G01X18234088Y-21702663D01*
G01X18255769Y-21697172D01*
G01X18276250Y-21688189D01*
G01X18294973Y-21675956D01*
G01X18311427Y-21660809D01*
G01X18325164Y-21643160D01*
G01X18335808Y-21623491D01*
G01X18343070Y-21602338D01*
G01X18346751Y-21580278D01*
G01X18346751Y-21557913D01*
G01X18343070Y-21535854D01*
G01X18335808Y-21514701D01*
G01X18325164Y-21495031D01*
G01X18311427Y-21477383D01*
G01X18294973Y-21462235D01*
G01X18276250Y-21450003D01*
G01X18255769Y-21441019D01*
G01X18234088Y-21435529D01*
G01X18211800Y-21433682D01*
G01X18189512Y-21435529D01*
G01X18167831Y-21441019D01*
G01X18147350Y-21450003D01*
G01X18128627Y-21462235D01*
G01X18112173Y-21477383D01*
G01X18098436Y-21495031D01*
G01X18087792Y-21514701D01*
G01X18080530Y-21535854D01*
G01X18076849Y-21557913D01*
G01X14912114Y-21557913D01*
G01X14912114Y-20995414D01*
G01X16290060Y-20995414D01*
G01X16494123Y-21199477D01*
G01X16502493Y-21205899D01*
G01X16512240Y-21209937D01*
G01X16522700Y-21211314D01*
G01X17445760Y-21211314D01*
G01X17649823Y-21415377D01*
G01X17658193Y-21421799D01*
G01X17667940Y-21425837D01*
G01X17678400Y-21427214D01*
G01X18715760Y-21427214D01*
G01X18729323Y-21440777D01*
G01X18737693Y-21447199D01*
G01X18747440Y-21451237D01*
G01X18757900Y-21452614D01*
G01X19255273Y-21452614D01*
G01X19242404Y-21470746D01*
G01X19232802Y-21490800D01*
G01X19226746Y-21512194D01*
G01X19224412Y-21534306D01*
G01X19225868Y-21556493D01*
G01X19231072Y-21578110D01*
G01X19239873Y-21598528D01*
G01X19252014Y-21617155D01*
G01X19267143Y-21633449D01*
G01X19284820Y-21646937D01*
G01X19304531Y-21657225D01*
G01X19304531Y-21657225D01*
G01X19325704Y-21664015D01*
G01X19347722Y-21667110D01*
G01X19369946Y-21666420D01*
G01X19391729Y-21661964D01*
G01X19412439Y-21653873D01*
G01X19431474Y-21642382D01*
G01X19448280Y-21627824D01*
G01X19462369Y-21610622D01*
G01X19473331Y-21591278D01*
G01X19480847Y-21570352D01*
G01X19484700Y-21548454D01*
G01X19656423Y-21720177D01*
G01X19664793Y-21726599D01*
G01X19674540Y-21730637D01*
G01X19685000Y-21732014D01*
G01X23507700Y-21732014D01*
G01X23518160Y-21730637D01*
G01X23527907Y-21726599D01*
G01X23536277Y-21720177D01*
G01X23655814Y-21600640D01*
G01X25652184Y-21600640D01*
G01X25652184Y-21622159D01*
G01X25656138Y-21643312D01*
G01X25663911Y-21663379D01*
G01X25675240Y-21681675D01*
G01X25689738Y-21697578D01*
G01X25706911Y-21710547D01*
G01X25726174Y-21720139D01*
G01X25746872Y-21726028D01*
G01X25768300Y-21728013D01*
G01X25789728Y-21726028D01*
G01X25810426Y-21720139D01*
G01X25829689Y-21710547D01*
G01X25846862Y-21697578D01*
G01X25861360Y-21681675D01*
G01X25872689Y-21663379D01*
G01X25880462Y-21643312D01*
G01X25884416Y-21622159D01*
G01X25884416Y-21600640D01*
G01X25880462Y-21579487D01*
G01X25872689Y-21559420D01*
G01X25861360Y-21541124D01*
G01X25846862Y-21525221D01*
G01X25829689Y-21512252D01*
G01X25810426Y-21502660D01*
G01X25789728Y-21496771D01*
G01X25768300Y-21494786D01*
G01X25768300Y-21494786D01*
G01X25746872Y-21496771D01*
G01X25726174Y-21502660D01*
G01X25706911Y-21512252D01*
G01X25689738Y-21525221D01*
G01X25675240Y-21541124D01*
G01X25663911Y-21559420D01*
G01X25656138Y-21579487D01*
G01X25652184Y-21600640D01*
G01X23655814Y-21600640D01*
G01X23676840Y-21579614D01*
G01X24333200Y-21579614D01*
G01X24343660Y-21578237D01*
G01X24353407Y-21574199D01*
G01X24361777Y-21567777D01*
G01X24451540Y-21478014D01*
G01X25069800Y-21478014D01*
G01X25080260Y-21476637D01*
G01X25090007Y-21472599D01*
G01X25098377Y-21466177D01*
G01X25251640Y-21312914D01*
G01X25878560Y-21312914D01*
G01X26171523Y-21605877D01*
G01X26179893Y-21612299D01*
G01X26189640Y-21616337D01*
G01X26200100Y-21617714D01*
G01X26999360Y-21617714D01*
G01X27317723Y-21936077D01*
G01X27326093Y-21942499D01*
G01X27335841Y-21946537D01*
G01X27346300Y-21947914D01*
G01X27847060Y-21947914D01*
G01X27860623Y-21961477D01*
G01X27868993Y-21967899D01*
G01X27878740Y-21971937D01*
G01X27889200Y-21973314D01*
G01X28524200Y-21973314D01*
G01X28534660Y-21971937D01*
G01X28544407Y-21967899D01*
G01X28552777Y-21961477D01*
G01X28641677Y-21872577D01*
G01X28641677Y-21872577D01*
G01X28648099Y-21864207D01*
G01X28652137Y-21854460D01*
G01X28653514Y-21844000D01*
G01X28653514Y-21628100D01*
G01X28652137Y-21617640D01*
G01X28648099Y-21607893D01*
G01X28641677Y-21599523D01*
G01X28641677Y-21599523D01*
G01X27904214Y-20862060D01*
G01X27904214Y-20849368D01*
G01X28140023Y-21085177D01*
G01X28148393Y-21091599D01*
G01X28158140Y-21095637D01*
G01X28168600Y-21097014D01*
G01X28567346Y-21097014D01*
G01X29051787Y-21432275D01*
G01X29062739Y-21437620D01*
G01X29074785Y-21439457D01*
G01X29246632Y-21439457D01*
G01X29966178Y-21862804D01*
G01X29977548Y-21867342D01*
G01X29989756Y-21868268D01*
G01X30001681Y-21865495D01*
G01X30118295Y-21818849D01*
G01X30387923Y-22088477D01*
G01X30398152Y-22095909D01*
G01X30410178Y-22099816D01*
G01X30422822Y-22099816D01*
G01X30434848Y-22095909D01*
G01X30445077Y-22088477D01*
G01X30584777Y-21948777D01*
G01X30584777Y-21948777D01*
G01X30591199Y-21940407D01*
G01X30595237Y-21930660D01*
G01X30596614Y-21920200D01*
G01X30596614Y-21422374D01*
G01X30595125Y-21411507D01*
G01X30590770Y-21401440D01*
G01X30583867Y-21392916D01*
G01X30574927Y-21386561D01*
G01X30501933Y-21348392D01*
G01X30519074Y-21331024D01*
G01X30533182Y-21311111D01*
G01X30543884Y-21289180D01*
G01X30550898Y-21265807D01*
G01X30554041Y-21241607D01*
G01X30553229Y-21217217D01*
G01X30548484Y-21193280D01*
G01X30539930Y-21170425D01*
G01X30527794Y-21149254D01*
G01X30512393Y-21130324D01*
G01X30494134Y-21114134D01*
G01X30473498Y-21101109D01*
G01X30451027Y-21091593D01*
G01X30427312Y-21085835D01*
G01X30402979Y-21083989D01*
G01X30378668Y-21086101D01*
G01X30355018Y-21092117D01*
G01X30332652Y-21101878D01*
G01X30312158Y-21115127D01*
G01X30294077Y-21131515D01*
G01X30278884Y-21150612D01*
G01X30266980Y-21171914D01*
G01X30258676Y-21194861D01*
G01X30254192Y-21218849D01*
G01X29327727Y-20734401D01*
G01X30253386Y-20734401D01*
G01X30255238Y-20757931D01*
G01X30260748Y-20780881D01*
G01X30269780Y-20802687D01*
G01X30282113Y-20822812D01*
G01X30297441Y-20840760D01*
G01X30315389Y-20856088D01*
G01X30335514Y-20868421D01*
G01X30357320Y-20877453D01*
G01X30380270Y-20882963D01*
G01X30403800Y-20884815D01*
G01X30403800Y-20884815D01*
G01X30427330Y-20882963D01*
G01X30450280Y-20877453D01*
G01X30472086Y-20868421D01*
G01X30492211Y-20856088D01*
G01X30510159Y-20840760D01*
G01X30525487Y-20822812D01*
G01X30537820Y-20802687D01*
G01X30546852Y-20780881D01*
G01X30552362Y-20757931D01*
G01X30554214Y-20734401D01*
G01X30552362Y-20710871D01*
G01X30546852Y-20687921D01*
G01X30537820Y-20666115D01*
G01X30525487Y-20645990D01*
G01X30510159Y-20628042D01*
G01X30492211Y-20612714D01*
G01X30472086Y-20600381D01*
G01X30450280Y-20591349D01*
G01X30427330Y-20585839D01*
G01X30403800Y-20583987D01*
G01X30380270Y-20585839D01*
G01X30357320Y-20591349D01*
G01X30335514Y-20600381D01*
G01X30315389Y-20612714D01*
G01X30297441Y-20628042D01*
G01X30282113Y-20645990D01*
G01X30269780Y-20666115D01*
G01X30260748Y-20687921D01*
G01X30255238Y-20710871D01*
G01X30253386Y-20734401D01*
G01X29327727Y-20734401D01*
G01X28831046Y-20474687D01*
G01X28821961Y-20471253D01*
G01X28812319Y-20470086D01*
G01X28079700Y-20470086D01*
G01X28069240Y-20471463D01*
G01X28059493Y-20475501D01*
G01X28051123Y-20481923D01*
G01X27904214Y-20628832D01*
G01X27904214Y-20462014D01*
G01X28803600Y-20462014D01*
G01X28814060Y-20460637D01*
G01X28823807Y-20456599D01*
G01X28832177Y-20450177D01*
G01X28936954Y-20345400D01*
G01X29370886Y-20345400D01*
G01X29372824Y-20362949D01*
G01X29378546Y-20379653D01*
G01X29387775Y-20394705D01*
G01X29400066Y-20407380D01*
G01X29414828Y-20417067D01*
G01X29431347Y-20423299D01*
G01X29448829Y-20425776D01*
G01X29466430Y-20424378D01*
G01X29483301Y-20419172D01*
G01X29498629Y-20410410D01*
G01X29511676Y-20398514D01*
G01X30064024Y-20398514D01*
G01X30077071Y-20410410D01*
G01X30092399Y-20419172D01*
G01X30109270Y-20424378D01*
G01X30126871Y-20425776D01*
G01X30144353Y-20423299D01*
G01X30160872Y-20417067D01*
G01X30175634Y-20407380D01*
G01X30187925Y-20394705D01*
G01X30197154Y-20379653D01*
G01X30202876Y-20362949D01*
G01X30204814Y-20345400D01*
G01X30204814Y-20345400D01*
G01X30202876Y-20327851D01*
G01X30197154Y-20311147D01*
G01X30187925Y-20296095D01*
G01X30175634Y-20283420D01*
G01X30160872Y-20273733D01*
G01X30144353Y-20267501D01*
G01X30126871Y-20265024D01*
G01X30109270Y-20266422D01*
G01X30092399Y-20271628D01*
G01X30077071Y-20280390D01*
G01X30064024Y-20292286D01*
G01X29511676Y-20292286D01*
G01X29498629Y-20280390D01*
G01X29483301Y-20271628D01*
G01X29466430Y-20266422D01*
G01X29448829Y-20265024D01*
G01X29431347Y-20267501D01*
G01X29414828Y-20273733D01*
G01X29400066Y-20283420D01*
G01X29387775Y-20296095D01*
G01X29378546Y-20311147D01*
G01X29372824Y-20327851D01*
G01X29370886Y-20345400D01*
G01X28936954Y-20345400D01*
G01X29111577Y-20170777D01*
G01X29111577Y-20170777D01*
G01X29117999Y-20162407D01*
G01X29122037Y-20152660D01*
G01X29123414Y-20142200D01*
G01X29123414Y-19473140D01*
G01X29340177Y-19256377D01*
G01X29346599Y-19248007D01*
G01X29350637Y-19238260D01*
G01X29352014Y-19227800D01*
G01X29352014Y-18743587D01*
G01X29369986Y-18743587D01*
G01X29371951Y-18764794D01*
G01X29377779Y-18785279D01*
G01X29387273Y-18804345D01*
G01X29400108Y-18821341D01*
G01X29415847Y-18835689D01*
G01X29433955Y-18846901D01*
G01X29453815Y-18854595D01*
G01X29474750Y-18858509D01*
G01X29496049Y-18858509D01*
G01X29516984Y-18854595D01*
G01X29536844Y-18846901D01*
G01X29554952Y-18835689D01*
G01X29570691Y-18821341D01*
G01X29583526Y-18804345D01*
G01X29593020Y-18785279D01*
G01X29598848Y-18764794D01*
G01X29600813Y-18743587D01*
G01X29600813Y-18743587D01*
G01X29598848Y-18722380D01*
G01X29593020Y-18701895D01*
G01X29583526Y-18682830D01*
G01X29570691Y-18665833D01*
G01X29554952Y-18651485D01*
G01X29536844Y-18640273D01*
G01X29516984Y-18632579D01*
G01X29496049Y-18628666D01*
G01X29474750Y-18628666D01*
G01X29453815Y-18632579D01*
G01X29433955Y-18640273D01*
G01X29415847Y-18651485D01*
G01X29400108Y-18665833D01*
G01X29387273Y-18682830D01*
G01X29377779Y-18701895D01*
G01X29371951Y-18722380D01*
G01X29369986Y-18743587D01*
G01X29352014Y-18743587D01*
G01X29352014Y-18503900D01*
G01X29350637Y-18493440D01*
G01X29346599Y-18483693D01*
G01X29340177Y-18475323D01*
G01X29340177Y-18475323D01*
G01X28984577Y-18119723D01*
G01X28976207Y-18113301D01*
G01X28966460Y-18109263D01*
G01X28956000Y-18107886D01*
G01X28528240Y-18107886D01*
G01X28451177Y-18030823D01*
G01X28442807Y-18024401D01*
G01X28433060Y-18020363D01*
G01X28422600Y-18018986D01*
G01X28094714Y-18018986D01*
G01X28094714Y-17932400D01*
G01X28092736Y-17919911D01*
G01X28086996Y-17908645D01*
G01X28078055Y-17899704D01*
G01X28066789Y-17893964D01*
G01X28054300Y-17891986D01*
G01X27474140Y-17891986D01*
G01X27463754Y-17881600D01*
G01X28093986Y-17881600D01*
G01X28095892Y-17903378D01*
G01X28101550Y-17924494D01*
G01X28110788Y-17944307D01*
G01X28123327Y-17962214D01*
G01X28138786Y-17977673D01*
G01X28156693Y-17990212D01*
G01X28176506Y-17999450D01*
G01X28197622Y-18005108D01*
G01X28219400Y-18007014D01*
G01X28241178Y-18005108D01*
G01X28262294Y-17999450D01*
G01X28282107Y-17990212D01*
G01X28300014Y-17977673D01*
G01X28315473Y-17962214D01*
G01X28328012Y-17944307D01*
G01X28337250Y-17924494D01*
G01X28342908Y-17903378D01*
G01X28344814Y-17881600D01*
G01X28344814Y-17881600D01*
G01X28347986Y-17881600D01*
G01X28349892Y-17903378D01*
G01X28355550Y-17924494D01*
G01X28364788Y-17944307D01*
G01X28377327Y-17962214D01*
G01X28392786Y-17977673D01*
G01X28410693Y-17990212D01*
G01X28430506Y-17999450D01*
G01X28451622Y-18005108D01*
G01X28473400Y-18007014D01*
G01X28495178Y-18005108D01*
G01X28516294Y-17999450D01*
G01X28536107Y-17990212D01*
G01X28554014Y-17977673D01*
G01X28569473Y-17962214D01*
G01X28582012Y-17944307D01*
G01X28591250Y-17924494D01*
G01X28596908Y-17903378D01*
G01X28598814Y-17881600D01*
G01X28598814Y-17881600D01*
G01X28601986Y-17881600D01*
G01X28603892Y-17903378D01*
G01X28609550Y-17924494D01*
G01X28618788Y-17944307D01*
G01X28631327Y-17962214D01*
G01X28646786Y-17977673D01*
G01X28664693Y-17990212D01*
G01X28684506Y-17999450D01*
G01X28705622Y-18005108D01*
G01X28727400Y-18007014D01*
G01X28749178Y-18005108D01*
G01X28770294Y-17999450D01*
G01X28790107Y-17990212D01*
G01X28808014Y-17977673D01*
G01X28823473Y-17962214D01*
G01X28836012Y-17944307D01*
G01X28845250Y-17924494D01*
G01X28850908Y-17903378D01*
G01X28852814Y-17881600D01*
G01X28852814Y-17881600D01*
G01X28850908Y-17859822D01*
G01X28845250Y-17838706D01*
G01X28836012Y-17818893D01*
G01X28823473Y-17800986D01*
G01X28819087Y-17796600D01*
G01X28855986Y-17796600D01*
G01X28855986Y-17966600D01*
G01X28857964Y-17979088D01*
G01X28863705Y-17990355D01*
G01X28872645Y-17999295D01*
G01X28883912Y-18005036D01*
G01X28896400Y-18007014D01*
G01X29066400Y-18007014D01*
G01X29078888Y-18005036D01*
G01X29090155Y-17999295D01*
G01X29099095Y-17990355D01*
G01X29104836Y-17979088D01*
G01X29106814Y-17966600D01*
G01X29106814Y-17796600D01*
G01X29104836Y-17784112D01*
G01X29099095Y-17772845D01*
G01X29090155Y-17763905D01*
G01X29078888Y-17758164D01*
G01X29066400Y-17756186D01*
G01X28896400Y-17756186D01*
G01X28896400Y-17756186D01*
G01X28883912Y-17758164D01*
G01X28872645Y-17763905D01*
G01X28863705Y-17772845D01*
G01X28857964Y-17784112D01*
G01X28855986Y-17796600D01*
G01X28819087Y-17796600D01*
G01X28808014Y-17785527D01*
G01X28790107Y-17772988D01*
G01X28770294Y-17763750D01*
G01X28749178Y-17758092D01*
G01X28727400Y-17756186D01*
G01X28705622Y-17758092D01*
G01X28684506Y-17763750D01*
G01X28664693Y-17772988D01*
G01X28646786Y-17785527D01*
G01X28631327Y-17800986D01*
G01X28618788Y-17818893D01*
G01X28609550Y-17838706D01*
G01X28603892Y-17859822D01*
G01X28601986Y-17881600D01*
G01X28598814Y-17881600D01*
G01X28596908Y-17859822D01*
G01X28591250Y-17838706D01*
G01X28582012Y-17818893D01*
G01X28569473Y-17800986D01*
G01X28554014Y-17785527D01*
G01X28536107Y-17772988D01*
G01X28516294Y-17763750D01*
G01X28495178Y-17758092D01*
G01X28473400Y-17756186D01*
G01X28451622Y-17758092D01*
G01X28430506Y-17763750D01*
G01X28410693Y-17772988D01*
G01X28392786Y-17785527D01*
G01X28377327Y-17800986D01*
G01X28364788Y-17818893D01*
G01X28355550Y-17838706D01*
G01X28349892Y-17859822D01*
G01X28347986Y-17881600D01*
G01X28344814Y-17881600D01*
G01X28342908Y-17859822D01*
G01X28337250Y-17838706D01*
G01X28328012Y-17818893D01*
G01X28315473Y-17800986D01*
G01X28300014Y-17785527D01*
G01X28282107Y-17772988D01*
G01X28262294Y-17763750D01*
G01X28241178Y-17758092D01*
G01X28219400Y-17756186D01*
G01X28197622Y-17758092D01*
G01X28176506Y-17763750D01*
G01X28156693Y-17772988D01*
G01X28138786Y-17785527D01*
G01X28123327Y-17800986D01*
G01X28110788Y-17818893D01*
G01X28101550Y-17838706D01*
G01X28095892Y-17859822D01*
G01X28093986Y-17881600D01*
G01X27463754Y-17881600D01*
G01X27447877Y-17865723D01*
G01X27439507Y-17859301D01*
G01X27429760Y-17855263D01*
G01X27419300Y-17853886D01*
G01X27089100Y-17853886D01*
G01X27078640Y-17855263D01*
G01X27068893Y-17859301D01*
G01X27060523Y-17865723D01*
G01X26929713Y-17996533D01*
G01X26929713Y-17996533D01*
G01X26923291Y-18004903D01*
G01X26919253Y-18014650D01*
G01X26917876Y-18025110D01*
G01X26917876Y-18093690D01*
G01X26919253Y-18104150D01*
G01X26923291Y-18113897D01*
G01X26929713Y-18122267D01*
G01X26929713Y-18122267D01*
G01X27047823Y-18240377D01*
G01X27056193Y-18246799D01*
G01X27065940Y-18250837D01*
G01X27076400Y-18252214D01*
G01X27237460Y-18252214D01*
G01X27339923Y-18354677D01*
G01X27348293Y-18361099D01*
G01X27358040Y-18365137D01*
G01X27368500Y-18366514D01*
G01X27567660Y-18366514D01*
G01X27784423Y-18583277D01*
G01X27792793Y-18589699D01*
G01X27802540Y-18593737D01*
G01X27813000Y-18595114D01*
G01X28418560Y-18595114D01*
G01X28636186Y-18812740D01*
G01X28636186Y-19172960D01*
G01X28343223Y-19465923D01*
G01X28336801Y-19474293D01*
G01X28332763Y-19484040D01*
G01X28331386Y-19494500D01*
G01X28331386Y-20012886D01*
G01X27584400Y-20012886D01*
G01X27573940Y-20014263D01*
G01X27564193Y-20018301D01*
G01X27555823Y-20024723D01*
G01X27403423Y-20177123D01*
G01X27397001Y-20185493D01*
G01X27392963Y-20195240D01*
G01X27391586Y-20205700D01*
G01X27391586Y-21213293D01*
G01X27391641Y-21215394D01*
G01X27393832Y-21257486D01*
G01X27334440Y-21257486D01*
G01X27117677Y-21040723D01*
G01X27109307Y-21034301D01*
G01X27099560Y-21030263D01*
G01X27089100Y-21028886D01*
G01X26889940Y-21028886D01*
G01X26508077Y-20647023D01*
G01X26499707Y-20640601D01*
G01X26489960Y-20636563D01*
G01X26479500Y-20635186D01*
G01X25400000Y-20635186D01*
G01X25389540Y-20636563D01*
G01X25379793Y-20640601D01*
G01X25371423Y-20647023D01*
G01X25167360Y-20851086D01*
G01X23926800Y-20851086D01*
G01X23916340Y-20852463D01*
G01X23906593Y-20856501D01*
G01X23898223Y-20862923D01*
G01X23643360Y-21117786D01*
G01X19663640Y-21117786D01*
G01X19370677Y-20824823D01*
G01X19362307Y-20818401D01*
G01X19352560Y-20814363D01*
G01X19342100Y-20812986D01*
G01X18850840Y-20812986D01*
G01X18684877Y-20647023D01*
G01X18676507Y-20640601D01*
G01X18666760Y-20636563D01*
G01X18656300Y-20635186D01*
G01X17822140Y-20635186D01*
G01X17656177Y-20469223D01*
G01X17647807Y-20462801D01*
G01X17638060Y-20458763D01*
G01X17627600Y-20457386D01*
G01X16488640Y-20457386D01*
G01X16360777Y-20329523D01*
G01X16352407Y-20323101D01*
G01X16342660Y-20319063D01*
G01X16332200Y-20317686D01*
G01X15684500Y-20317686D01*
G01X15684216Y-20317687D01*
G01X14058616Y-20329091D01*
G01X14046196Y-20331139D01*
G01X14035008Y-20336909D01*
G01X14026138Y-20345841D01*
G01X14020447Y-20357069D01*
G01X14018486Y-20369504D01*
G01X12724793Y-20369504D01*
G01X12724793Y-20348321D01*
G01X12722815Y-20335832D01*
G01X12717075Y-20324566D01*
G01X12708134Y-20315625D01*
G01X12696868Y-20309885D01*
G01X12684379Y-20307907D01*
G01X12563221Y-20307907D01*
G01X12550732Y-20309885D01*
G01X12539466Y-20315625D01*
G01X12530525Y-20324566D01*
G01X12524785Y-20335832D01*
G01X12522807Y-20348321D01*
G01X12522807Y-20469479D01*
G01X12524145Y-20479791D01*
G01X12528070Y-20489421D01*
G01X12534321Y-20497730D01*
G01X12526130Y-20501661D01*
G01X12519023Y-20507323D01*
G01X12519023Y-20507323D01*
G01X12455523Y-20570823D01*
G01X12449101Y-20579193D01*
G01X12445063Y-20588940D01*
G01X12443686Y-20599400D01*
G01X12443686Y-21920200D01*
G01X12444977Y-21930334D01*
G01X12448768Y-21939821D01*
G01X12428062Y-21941029D01*
G01X12407809Y-21945504D01*
G01X12388522Y-21953134D01*
G01X12370688Y-21963726D01*
G01X12354759Y-21977010D01*
G01X12341138Y-21992652D01*
G01X12330169Y-22010256D01*
G01X12322129Y-22029376D01*
G01X12317223Y-22049529D01*
G01X12315574Y-22070205D01*
G01X11084560Y-22070205D01*
G01X11084560Y-19676494D01*
G01X13456553Y-19676494D01*
G01X13456991Y-19698651D01*
G01X13461175Y-19720413D01*
G01X13468983Y-19741153D01*
G01X13480190Y-19760272D01*
G01X13494472Y-19777216D01*
G01X13511417Y-19791499D01*
G01X13530535Y-19802705D01*
G01X13551275Y-19810514D01*
G01X13573038Y-19814697D01*
G01X13595194Y-19815136D01*
G01X13617105Y-19811817D01*
G01X13638138Y-19804836D01*
G01X13657685Y-19794395D01*
G01X13675182Y-19780795D01*
G01X13690124Y-19764429D01*
G01X13702079Y-19745769D01*
G01X13710702Y-19725355D01*
G01X13715744Y-19703775D01*
G01X13716860Y-19685000D01*
G01X14756298Y-19685000D01*
G01X14758279Y-19707646D01*
G01X14764163Y-19729604D01*
G01X14773770Y-19750207D01*
G01X14786809Y-19768828D01*
G01X14802883Y-19784903D01*
G01X14821505Y-19797942D01*
G01X14842107Y-19807549D01*
G01X14864065Y-19813432D01*
G01X14886711Y-19815414D01*
G01X14909358Y-19813432D01*
G01X14931316Y-19807549D01*
G01X14951918Y-19797942D01*
G01X14970540Y-19784903D01*
G01X14986614Y-19768828D01*
G01X14999653Y-19750207D01*
G01X15009260Y-19729604D01*
G01X15015144Y-19707646D01*
G01X15017125Y-19685000D01*
G01X15015144Y-19662354D01*
G01X15009260Y-19640396D01*
G01X14999653Y-19619793D01*
G01X14986614Y-19601172D01*
G01X14970540Y-19585097D01*
G01X14951918Y-19572058D01*
G01X14931316Y-19562451D01*
G01X14909358Y-19556568D01*
G01X14886711Y-19554586D01*
G01X14864065Y-19556568D01*
G01X14842107Y-19562451D01*
G01X14821505Y-19572058D01*
G01X14802883Y-19585097D01*
G01X14786809Y-19601172D01*
G01X14773770Y-19619793D01*
G01X14764163Y-19640396D01*
G01X14758279Y-19662354D01*
G01X14756298Y-19685000D01*
G01X14756298Y-19685000D01*
G01X13716860Y-19685000D01*
G01X13717059Y-19681653D01*
G01X13714610Y-19659628D01*
G01X13708468Y-19638335D01*
G01X14271390Y-19075413D01*
G01X18764486Y-19075413D01*
G01X18766316Y-19096322D01*
G01X18771748Y-19116597D01*
G01X18780619Y-19135620D01*
G01X18792658Y-19152813D01*
G01X18807500Y-19167655D01*
G01X18824693Y-19179694D01*
G01X18843716Y-19188565D01*
G01X18863990Y-19193997D01*
G01X18884900Y-19195826D01*
G01X18905810Y-19193997D01*
G01X18926084Y-19188565D01*
G01X18945107Y-19179694D01*
G01X18962300Y-19167655D01*
G01X18977142Y-19152813D01*
G01X18989181Y-19135620D01*
G01X18998052Y-19116597D01*
G01X19003484Y-19096322D01*
G01X19005314Y-19075413D01*
G01X21050486Y-19075413D01*
G01X21052316Y-19096322D01*
G01X21057748Y-19116597D01*
G01X21066619Y-19135620D01*
G01X21078658Y-19152813D01*
G01X21093500Y-19167655D01*
G01X21110693Y-19179694D01*
G01X21129716Y-19188565D01*
G01X21149990Y-19193997D01*
G01X21170900Y-19195826D01*
G01X21191810Y-19193997D01*
G01X21212084Y-19188565D01*
G01X21231107Y-19179694D01*
G01X21248300Y-19167655D01*
G01X21263142Y-19152813D01*
G01X21275181Y-19135620D01*
G01X21284052Y-19116597D01*
G01X21289484Y-19096322D01*
G01X21291314Y-19075413D01*
G01X21289484Y-19054503D01*
G01X21284052Y-19034229D01*
G01X21275181Y-19015206D01*
G01X21263142Y-18998012D01*
G01X21248300Y-18983170D01*
G01X21231107Y-18971131D01*
G01X21212084Y-18962261D01*
G01X21191810Y-18956828D01*
G01X21170900Y-18954999D01*
G01X21170900Y-18954999D01*
G01X21149990Y-18956828D01*
G01X21129716Y-18962261D01*
G01X21110693Y-18971131D01*
G01X21093500Y-18983170D01*
G01X21078658Y-18998012D01*
G01X21066619Y-19015206D01*
G01X21057748Y-19034229D01*
G01X21052316Y-19054503D01*
G01X21050486Y-19075413D01*
G01X19005314Y-19075413D01*
G01X19003484Y-19054503D01*
G01X18998052Y-19034229D01*
G01X18989181Y-19015206D01*
G01X18977142Y-18998012D01*
G01X18962300Y-18983170D01*
G01X18945107Y-18971131D01*
G01X18926084Y-18962261D01*
G01X18905810Y-18956828D01*
G01X18884900Y-18954999D01*
G01X18884900Y-18954999D01*
G01X18863990Y-18956828D01*
G01X18843716Y-18962261D01*
G01X18824693Y-18971131D01*
G01X18807500Y-18983170D01*
G01X18792658Y-18998012D01*
G01X18780619Y-19015206D01*
G01X18771748Y-19034229D01*
G01X18766316Y-19054503D01*
G01X18764486Y-19075413D01*
G01X14271390Y-19075413D01*
G01X14529511Y-18817292D01*
G01X17371603Y-18817292D01*
G01X17374959Y-18837738D01*
G01X17381881Y-18857268D01*
G01X17392150Y-18875264D01*
G01X17405441Y-18891159D01*
G01X17405441Y-18891159D01*
G01X17421336Y-18904450D01*
G01X17439332Y-18914719D01*
G01X17458862Y-18921641D01*
G01X17479308Y-18924997D01*
G01X17500025Y-18924682D01*
G01X17520360Y-18920705D01*
G01X17539670Y-18913193D01*
G01X17557345Y-18902381D01*
G01X17572828Y-18888612D01*
G01X17585630Y-18872321D01*
G01X17595347Y-18854020D01*
G01X17601672Y-18834290D01*
G01X17603385Y-18821413D01*
G01X18764486Y-18821413D01*
G01X18766316Y-18842322D01*
G01X18771748Y-18862597D01*
G01X18780619Y-18881620D01*
G01X18792658Y-18898813D01*
G01X18807500Y-18913655D01*
G01X18824693Y-18925694D01*
G01X18843716Y-18934565D01*
G01X18863990Y-18939997D01*
G01X18884900Y-18941826D01*
G01X18905810Y-18939997D01*
G01X18926084Y-18934565D01*
G01X18945107Y-18925694D01*
G01X18962300Y-18913655D01*
G01X18977142Y-18898813D01*
G01X18989181Y-18881620D01*
G01X18998052Y-18862597D01*
G01X19003484Y-18842322D01*
G01X19005314Y-18821413D01*
G01X21050486Y-18821413D01*
G01X21052316Y-18842322D01*
G01X21057748Y-18862597D01*
G01X21066619Y-18881620D01*
G01X21078658Y-18898813D01*
G01X21093500Y-18913655D01*
G01X21110693Y-18925694D01*
G01X21129716Y-18934565D01*
G01X21149990Y-18939997D01*
G01X21170900Y-18941826D01*
G01X21191810Y-18939997D01*
G01X21212084Y-18934565D01*
G01X21231107Y-18925694D01*
G01X21248300Y-18913655D01*
G01X21263142Y-18898813D01*
G01X21275181Y-18881620D01*
G01X21284052Y-18862597D01*
G01X21289484Y-18842322D01*
G01X21291314Y-18821413D01*
G01X21289484Y-18800503D01*
G01X21284052Y-18780229D01*
G01X21275181Y-18761206D01*
G01X21263142Y-18744012D01*
G01X21248300Y-18729170D01*
G01X21231107Y-18717131D01*
G01X21212084Y-18708261D01*
G01X21191810Y-18702828D01*
G01X21170900Y-18700999D01*
G01X21170900Y-18700999D01*
G01X21149990Y-18702828D01*
G01X21129716Y-18708261D01*
G01X21110693Y-18717131D01*
G01X21093500Y-18729170D01*
G01X21078658Y-18744012D01*
G01X21066619Y-18761206D01*
G01X21057748Y-18780229D01*
G01X21052316Y-18800503D01*
G01X21050486Y-18821413D01*
G01X19005314Y-18821413D01*
G01X19003484Y-18800503D01*
G01X18998052Y-18780229D01*
G01X18989181Y-18761206D01*
G01X18977142Y-18744012D01*
G01X18962300Y-18729170D01*
G01X18945107Y-18717131D01*
G01X18926084Y-18708261D01*
G01X18905810Y-18702828D01*
G01X18884900Y-18700999D01*
G01X18884900Y-18700999D01*
G01X18863990Y-18702828D01*
G01X18843716Y-18708261D01*
G01X18824693Y-18717131D01*
G01X18807500Y-18729170D01*
G01X18792658Y-18744012D01*
G01X18780619Y-18761206D01*
G01X18771748Y-18780229D01*
G01X18766316Y-18800503D01*
G01X18764486Y-18821413D01*
G01X17603385Y-18821413D01*
G01X17604405Y-18813751D01*
G01X17603459Y-18793053D01*
G01X17598866Y-18772848D01*
G01X17804302Y-18567413D01*
G01X18764486Y-18567413D01*
G01X18766316Y-18588322D01*
G01X18771748Y-18608597D01*
G01X18780619Y-18627620D01*
G01X18792658Y-18644813D01*
G01X18807500Y-18659655D01*
G01X18824693Y-18671694D01*
G01X18843716Y-18680565D01*
G01X18863990Y-18685997D01*
G01X18884900Y-18687826D01*
G01X18905810Y-18685997D01*
G01X18926084Y-18680565D01*
G01X18945107Y-18671694D01*
G01X18962300Y-18659655D01*
G01X18977142Y-18644813D01*
G01X18989181Y-18627620D01*
G01X18998052Y-18608597D01*
G01X19003484Y-18588322D01*
G01X19005314Y-18567413D01*
G01X21050486Y-18567413D01*
G01X21052316Y-18588322D01*
G01X21057748Y-18608597D01*
G01X21066619Y-18627620D01*
G01X21078658Y-18644813D01*
G01X21093500Y-18659655D01*
G01X21110693Y-18671694D01*
G01X21129716Y-18680565D01*
G01X21149990Y-18685997D01*
G01X21170900Y-18687826D01*
G01X21191810Y-18685997D01*
G01X21212084Y-18680565D01*
G01X21231107Y-18671694D01*
G01X21248300Y-18659655D01*
G01X21263142Y-18644813D01*
G01X21275181Y-18627620D01*
G01X21284052Y-18608597D01*
G01X21289484Y-18588322D01*
G01X21291314Y-18567413D01*
G01X21289484Y-18546503D01*
G01X21284052Y-18526229D01*
G01X21275181Y-18507206D01*
G01X21263142Y-18490012D01*
G01X21248300Y-18475170D01*
G01X21231107Y-18463131D01*
G01X21212084Y-18454261D01*
G01X21191810Y-18448828D01*
G01X21170900Y-18446999D01*
G01X21170900Y-18446999D01*
G01X21149990Y-18448828D01*
G01X21129716Y-18454261D01*
G01X21110693Y-18463131D01*
G01X21093500Y-18475170D01*
G01X21078658Y-18490012D01*
G01X21066619Y-18507206D01*
G01X21057748Y-18526229D01*
G01X21052316Y-18546503D01*
G01X21050486Y-18567413D01*
G01X19005314Y-18567413D01*
G01X19003484Y-18546503D01*
G01X18998052Y-18526229D01*
G01X18989181Y-18507206D01*
G01X18977142Y-18490012D01*
G01X18962300Y-18475170D01*
G01X18945107Y-18463131D01*
G01X18926084Y-18454261D01*
G01X18905810Y-18448828D01*
G01X18884900Y-18446999D01*
G01X18884900Y-18446999D01*
G01X18863990Y-18448828D01*
G01X18843716Y-18454261D01*
G01X18824693Y-18463131D01*
G01X18807500Y-18475170D01*
G01X18792658Y-18490012D01*
G01X18780619Y-18507206D01*
G01X18771748Y-18526229D01*
G01X18766316Y-18546503D01*
G01X18764486Y-18567413D01*
G01X17804302Y-18567413D01*
G01X18058302Y-18313413D01*
G01X18764486Y-18313413D01*
G01X18766316Y-18334322D01*
G01X18771748Y-18354597D01*
G01X18780619Y-18373620D01*
G01X18792658Y-18390813D01*
G01X18807500Y-18405655D01*
G01X18824693Y-18417694D01*
G01X18843716Y-18426565D01*
G01X18863990Y-18431997D01*
G01X18884900Y-18433826D01*
G01X18905810Y-18431997D01*
G01X18926084Y-18426565D01*
G01X18945107Y-18417694D01*
G01X18962300Y-18405655D01*
G01X18977142Y-18390813D01*
G01X18989181Y-18373620D01*
G01X18998052Y-18354597D01*
G01X19003484Y-18334322D01*
G01X19005314Y-18313413D01*
G01X21050486Y-18313413D01*
G01X21052316Y-18334322D01*
G01X21057748Y-18354597D01*
G01X21066619Y-18373620D01*
G01X21078658Y-18390813D01*
G01X21093500Y-18405655D01*
G01X21110693Y-18417694D01*
G01X21129716Y-18426565D01*
G01X21149990Y-18431997D01*
G01X21170900Y-18433826D01*
G01X21191810Y-18431997D01*
G01X21212084Y-18426565D01*
G01X21231107Y-18417694D01*
G01X21248300Y-18405655D01*
G01X21263142Y-18390813D01*
G01X21275181Y-18373620D01*
G01X21284052Y-18354597D01*
G01X21289484Y-18334322D01*
G01X21291314Y-18313413D01*
G01X21289484Y-18292503D01*
G01X21284052Y-18272229D01*
G01X21275181Y-18253206D01*
G01X21263142Y-18236012D01*
G01X21248300Y-18221170D01*
G01X21231107Y-18209131D01*
G01X21212084Y-18200261D01*
G01X21191810Y-18194828D01*
G01X21170900Y-18192999D01*
G01X21170900Y-18192999D01*
G01X21149990Y-18194828D01*
G01X21129716Y-18200261D01*
G01X21110693Y-18209131D01*
G01X21093500Y-18221170D01*
G01X21078658Y-18236012D01*
G01X21066619Y-18253206D01*
G01X21057748Y-18272229D01*
G01X21052316Y-18292503D01*
G01X21050486Y-18313413D01*
G01X19005314Y-18313413D01*
G01X19003484Y-18292503D01*
G01X18998052Y-18272229D01*
G01X18989181Y-18253206D01*
G01X18977142Y-18236012D01*
G01X18962300Y-18221170D01*
G01X18945107Y-18209131D01*
G01X18926084Y-18200261D01*
G01X18905810Y-18194828D01*
G01X18884900Y-18192999D01*
G01X18884900Y-18192999D01*
G01X18863990Y-18194828D01*
G01X18843716Y-18200261D01*
G01X18824693Y-18209131D01*
G01X18807500Y-18221170D01*
G01X18792658Y-18236012D01*
G01X18780619Y-18253206D01*
G01X18771748Y-18272229D01*
G01X18766316Y-18292503D01*
G01X18764486Y-18313413D01*
G01X18058302Y-18313413D01*
G01X18312302Y-18059413D01*
G01X18764486Y-18059413D01*
G01X18766316Y-18080322D01*
G01X18771748Y-18100597D01*
G01X18780619Y-18119620D01*
G01X18792658Y-18136813D01*
G01X18807500Y-18151655D01*
G01X18824693Y-18163694D01*
G01X18843716Y-18172565D01*
G01X18863990Y-18177997D01*
G01X18884900Y-18179826D01*
G01X18905810Y-18177997D01*
G01X18926084Y-18172565D01*
G01X18945107Y-18163694D01*
G01X18962300Y-18151655D01*
G01X18977142Y-18136813D01*
G01X18989181Y-18119620D01*
G01X18998052Y-18100597D01*
G01X19003484Y-18080322D01*
G01X19005314Y-18059413D01*
G01X21050486Y-18059413D01*
G01X21052316Y-18080322D01*
G01X21057748Y-18100597D01*
G01X21066619Y-18119620D01*
G01X21078658Y-18136813D01*
G01X21093500Y-18151655D01*
G01X21110693Y-18163694D01*
G01X21129716Y-18172565D01*
G01X21149990Y-18177997D01*
G01X21170900Y-18179826D01*
G01X21191810Y-18177997D01*
G01X21212084Y-18172565D01*
G01X21231107Y-18163694D01*
G01X21248300Y-18151655D01*
G01X21263142Y-18136813D01*
G01X21275181Y-18119620D01*
G01X21284052Y-18100597D01*
G01X21289484Y-18080322D01*
G01X21291314Y-18059413D01*
G01X21289484Y-18038503D01*
G01X21284052Y-18018229D01*
G01X21275181Y-17999206D01*
G01X21263142Y-17982012D01*
G01X21248300Y-17967170D01*
G01X21231107Y-17955131D01*
G01X21212084Y-17946261D01*
G01X21191810Y-17940828D01*
G01X21170900Y-17938999D01*
G01X21170900Y-17938999D01*
G01X21149990Y-17940828D01*
G01X21129716Y-17946261D01*
G01X21110693Y-17955131D01*
G01X21093500Y-17967170D01*
G01X21078658Y-17982012D01*
G01X21066619Y-17999206D01*
G01X21057748Y-18018229D01*
G01X21052316Y-18038503D01*
G01X21050486Y-18059413D01*
G01X19005314Y-18059413D01*
G01X19003484Y-18038503D01*
G01X18998052Y-18018229D01*
G01X18989181Y-17999206D01*
G01X18977142Y-17982012D01*
G01X18962300Y-17967170D01*
G01X18945107Y-17955131D01*
G01X18926084Y-17946261D01*
G01X18905810Y-17940828D01*
G01X18884900Y-17938999D01*
G01X18884900Y-17938999D01*
G01X18863990Y-17940828D01*
G01X18843716Y-17946261D01*
G01X18824693Y-17955131D01*
G01X18807500Y-17967170D01*
G01X18792658Y-17982012D01*
G01X18780619Y-17999206D01*
G01X18771748Y-18018229D01*
G01X18766316Y-18038503D01*
G01X18764486Y-18059413D01*
G01X18312302Y-18059413D01*
G01X18513188Y-17858527D01*
G01X18776833Y-17858527D01*
G01X18788016Y-17876917D01*
G01X18802293Y-17893023D01*
G01X18819211Y-17906330D01*
G01X18838226Y-17916413D01*
G01X18858733Y-17922949D01*
G01X18880077Y-17925730D01*
G01X18901574Y-17924666D01*
G01X18922538Y-17919793D01*
G01X18942300Y-17911265D01*
G01X18960228Y-17899355D01*
G01X18975749Y-17884443D01*
G01X18988368Y-17867007D01*
G01X18997681Y-17847602D01*
G01X19003390Y-17826850D01*
G01X19005314Y-17805413D01*
G01X21050486Y-17805413D01*
G01X21052316Y-17826322D01*
G01X21057748Y-17846597D01*
G01X21066619Y-17865620D01*
G01X21078658Y-17882813D01*
G01X21093500Y-17897655D01*
G01X21110693Y-17909694D01*
G01X21129716Y-17918565D01*
G01X21149990Y-17923997D01*
G01X21170900Y-17925826D01*
G01X21191810Y-17923997D01*
G01X21212084Y-17918565D01*
G01X21231107Y-17909694D01*
G01X21248300Y-17897655D01*
G01X21263142Y-17882813D01*
G01X21275181Y-17865620D01*
G01X21284052Y-17846597D01*
G01X21289484Y-17826322D01*
G01X21291314Y-17805413D01*
G01X21289484Y-17784503D01*
G01X21284052Y-17764229D01*
G01X21275181Y-17745206D01*
G01X21263142Y-17728012D01*
G01X21248300Y-17713170D01*
G01X21231107Y-17701131D01*
G01X21212084Y-17692261D01*
G01X21191810Y-17686828D01*
G01X21170900Y-17684999D01*
G01X21170900Y-17684999D01*
G01X21149990Y-17686828D01*
G01X21129716Y-17692261D01*
G01X21110693Y-17701131D01*
G01X21093500Y-17713170D01*
G01X21078658Y-17728012D01*
G01X21066619Y-17745206D01*
G01X21057748Y-17764229D01*
G01X21052316Y-17784503D01*
G01X21050486Y-17805413D01*
G01X19005314Y-17805413D01*
G01X19003390Y-17783975D01*
G01X18997681Y-17763223D01*
G01X18988368Y-17743818D01*
G01X18975749Y-17726382D01*
G01X18960228Y-17711470D01*
G01X18942300Y-17699560D01*
G01X18922538Y-17691032D01*
G01X18901574Y-17686159D01*
G01X18880077Y-17685096D01*
G01X18858733Y-17687876D01*
G01X18838226Y-17694412D01*
G01X18819211Y-17704495D01*
G01X18802293Y-17717802D01*
G01X18788016Y-17733908D01*
G01X18776833Y-17752299D01*
G01X18491187Y-17752299D01*
G01X18477440Y-17754109D01*
G01X18464630Y-17759415D01*
G01X18453630Y-17767855D01*
G01X17523752Y-18697734D01*
G01X17503547Y-18693141D01*
G01X17482849Y-18692195D01*
G01X17462310Y-18694928D01*
G01X17442580Y-18701253D01*
G01X17424279Y-18710970D01*
G01X17407988Y-18723772D01*
G01X17394219Y-18739255D01*
G01X17383407Y-18756930D01*
G01X17375895Y-18776240D01*
G01X17371918Y-18796575D01*
G01X17371603Y-18817292D01*
G01X14529511Y-18817292D01*
G01X14703203Y-18643600D01*
G01X14782590Y-18643600D01*
G01X14784437Y-18665888D01*
G01X14789928Y-18687569D01*
G01X14798911Y-18708050D01*
G01X14811144Y-18726773D01*
G01X14826291Y-18743227D01*
G01X14843940Y-18756964D01*
G01X14863609Y-18767608D01*
G01X14884762Y-18774870D01*
G01X14906822Y-18778551D01*
G01X14929187Y-18778551D01*
G01X14951246Y-18774870D01*
G01X14972399Y-18767608D01*
G01X14992069Y-18756964D01*
G01X15009717Y-18743227D01*
G01X15024865Y-18726773D01*
G01X15037097Y-18708050D01*
G01X15046081Y-18687569D01*
G01X15051571Y-18665888D01*
G01X15053418Y-18643600D01*
G01X15051571Y-18621312D01*
G01X15046081Y-18599631D01*
G01X15037097Y-18579150D01*
G01X15024865Y-18560427D01*
G01X15009717Y-18543973D01*
G01X14992069Y-18530236D01*
G01X14972399Y-18519592D01*
G01X14951246Y-18512330D01*
G01X14929187Y-18508649D01*
G01X14906822Y-18508649D01*
G01X14884762Y-18512330D01*
G01X14863609Y-18519592D01*
G01X14843940Y-18530236D01*
G01X14826291Y-18543973D01*
G01X14811144Y-18560427D01*
G01X14798911Y-18579150D01*
G01X14789928Y-18599631D01*
G01X14784437Y-18621312D01*
G01X14782590Y-18643600D01*
G01X14782590Y-18643600D01*
G01X14703203Y-18643600D01*
G01X15742276Y-17604527D01*
G01X18776833Y-17604527D01*
G01X18788016Y-17622917D01*
G01X18802293Y-17639023D01*
G01X18819211Y-17652330D01*
G01X18838226Y-17662413D01*
G01X18858733Y-17668949D01*
G01X18880077Y-17671730D01*
G01X18901574Y-17670666D01*
G01X18922538Y-17665793D01*
G01X18942300Y-17657265D01*
G01X18960228Y-17645355D01*
G01X18975749Y-17630443D01*
G01X18988368Y-17613007D01*
G01X18997681Y-17593602D01*
G01X19003390Y-17572850D01*
G01X19005314Y-17551413D01*
G01X19003390Y-17529975D01*
G01X18997681Y-17509223D01*
G01X18988368Y-17489818D01*
G01X18975749Y-17472382D01*
G01X18960228Y-17457470D01*
G01X18942300Y-17445560D01*
G01X18922538Y-17437032D01*
G01X18901574Y-17432159D01*
G01X18880077Y-17431096D01*
G01X18858733Y-17433876D01*
G01X18838226Y-17440412D01*
G01X18819211Y-17450495D01*
G01X18802293Y-17463802D01*
G01X18788016Y-17479908D01*
G01X18776833Y-17498299D01*
G01X15720276Y-17498299D01*
G01X15706529Y-17500109D01*
G01X15693719Y-17505415D01*
G01X15682719Y-17513855D01*
G01X13633353Y-19563221D01*
G01X13633353Y-19563221D01*
G01X13612061Y-19557078D01*
G01X13590036Y-19554629D01*
G01X13567914Y-19555945D01*
G01X13546334Y-19560987D01*
G01X13525920Y-19569610D01*
G01X13507260Y-19581565D01*
G01X13490894Y-19596507D01*
G01X13477294Y-19614004D01*
G01X13466852Y-19633551D01*
G01X13459871Y-19654583D01*
G01X13456553Y-19676494D01*
G01X11084560Y-19676494D01*
G01X11084560Y-18643600D01*
G01X12632582Y-18643600D01*
G01X12634429Y-18665888D01*
G01X12639919Y-18687569D01*
G01X12648903Y-18708050D01*
G01X12661135Y-18726773D01*
G01X12676283Y-18743227D01*
G01X12693931Y-18756964D01*
G01X12713601Y-18767608D01*
G01X12734754Y-18774870D01*
G01X12756813Y-18778551D01*
G01X12779178Y-18778551D01*
G01X12801238Y-18774870D01*
G01X12822391Y-18767608D01*
G01X12842060Y-18756964D01*
G01X12859709Y-18743227D01*
G01X12874856Y-18726773D01*
G01X12887089Y-18708050D01*
G01X12896072Y-18687569D01*
G01X12901563Y-18665888D01*
G01X12903410Y-18643600D01*
G01X12901563Y-18621312D01*
G01X12896072Y-18599631D01*
G01X12887089Y-18579150D01*
G01X12874856Y-18560427D01*
G01X12859709Y-18543973D01*
G01X12842060Y-18530236D01*
G01X12822391Y-18519592D01*
G01X12801238Y-18512330D01*
G01X12779178Y-18508649D01*
G01X12756813Y-18508649D01*
G01X12734754Y-18512330D01*
G01X12713601Y-18519592D01*
G01X12693931Y-18530236D01*
G01X12676283Y-18543973D01*
G01X12661135Y-18560427D01*
G01X12648903Y-18579150D01*
G01X12639919Y-18599631D01*
G01X12634429Y-18621312D01*
G01X12632582Y-18643600D01*
G01X12632582Y-18643600D01*
G01X11084560Y-18643600D01*
G01X11084560Y-17297413D01*
G01X18764486Y-17297413D01*
G01X18766316Y-17318322D01*
G01X18771748Y-17338597D01*
G01X18780619Y-17357620D01*
G01X18792658Y-17374813D01*
G01X18807500Y-17389655D01*
G01X18824693Y-17401694D01*
G01X18843716Y-17410565D01*
G01X18863990Y-17415997D01*
G01X18884900Y-17417826D01*
G01X18905810Y-17415997D01*
G01X18926084Y-17410565D01*
G01X18945107Y-17401694D01*
G01X18962300Y-17389655D01*
G01X18977142Y-17374813D01*
G01X18989181Y-17357620D01*
G01X18998052Y-17338597D01*
G01X19003484Y-17318322D01*
G01X19005314Y-17297413D01*
G01X19003484Y-17276503D01*
G01X18998052Y-17256229D01*
G01X18989181Y-17237206D01*
G01X18977142Y-17220012D01*
G01X18962300Y-17205170D01*
G01X18945107Y-17193131D01*
G01X18926084Y-17184261D01*
G01X18905810Y-17178828D01*
G01X18884900Y-17176999D01*
G01X18884900Y-17176999D01*
G01X18863990Y-17178828D01*
G01X18843716Y-17184261D01*
G01X18824693Y-17193131D01*
G01X18807500Y-17205170D01*
G01X18792658Y-17220012D01*
G01X18780619Y-17237206D01*
G01X18771748Y-17256229D01*
G01X18766316Y-17276503D01*
G01X18764486Y-17297413D01*
G01X11084560Y-17297413D01*
G01X11084560Y-17043413D01*
G01X18764486Y-17043413D01*
G01X18766316Y-17064322D01*
G01X18771748Y-17084597D01*
G01X18780619Y-17103620D01*
G01X18792658Y-17120813D01*
G01X18807500Y-17135655D01*
G01X18824693Y-17147694D01*
G01X18843716Y-17156565D01*
G01X18863990Y-17161997D01*
G01X18884900Y-17163826D01*
G01X18905810Y-17161997D01*
G01X18926084Y-17156565D01*
G01X18945107Y-17147694D01*
G01X18962300Y-17135655D01*
G01X18977142Y-17120813D01*
G01X18989181Y-17103620D01*
G01X18998052Y-17084597D01*
G01X19003484Y-17064322D01*
G01X19004583Y-17051770D01*
G01X21050777Y-17051770D01*
G01X21054183Y-17073022D01*
G01X21061319Y-17093328D01*
G01X21071956Y-17112039D01*
G01X21085755Y-17128558D01*
G01X21102273Y-17142356D01*
G01X21120985Y-17152993D01*
G01X21141291Y-17160129D01*
G01X21162543Y-17163536D01*
G01X21184062Y-17163105D01*
G01X21205161Y-17158850D01*
G01X21225165Y-17150906D01*
G01X21243435Y-17139528D01*
G01X21259388Y-17125079D01*
G01X21272513Y-17108021D01*
G01X21282392Y-17088898D01*
G01X21288709Y-17068323D01*
G01X21291262Y-17046951D01*
G01X21289969Y-17025467D01*
G01X21284872Y-17004555D01*
G01X23009013Y-15280414D01*
G01X27750189Y-15280414D01*
G01X27754268Y-15288384D01*
G01X23126814Y-15288384D01*
G01X23113067Y-15290194D01*
G01X23100257Y-15295500D01*
G01X23089257Y-15303941D01*
G01X21209757Y-17183441D01*
G01X21188846Y-17178344D01*
G01X21167362Y-17177051D01*
G01X21145990Y-17179604D01*
G01X21125414Y-17185920D01*
G01X21106292Y-17195799D01*
G01X21089234Y-17208925D01*
G01X21074785Y-17224878D01*
G01X21063407Y-17243148D01*
G01X21055463Y-17263152D01*
G01X21051208Y-17284251D01*
G01X21050777Y-17305770D01*
G01X21054183Y-17327022D01*
G01X21061319Y-17347328D01*
G01X21071956Y-17366039D01*
G01X21085755Y-17382558D01*
G01X21102273Y-17396356D01*
G01X21120985Y-17406993D01*
G01X21141291Y-17414129D01*
G01X21162543Y-17417536D01*
G01X21184062Y-17417105D01*
G01X21205161Y-17412850D01*
G01X21225165Y-17404906D01*
G01X21243435Y-17393528D01*
G01X21259388Y-17379079D01*
G01X21272513Y-17362021D01*
G01X21282392Y-17342898D01*
G01X21288709Y-17322323D01*
G01X21291262Y-17300951D01*
G01X21289969Y-17279467D01*
G01X21284872Y-17258555D01*
G01X23148815Y-15394612D01*
G01X23252586Y-15394612D01*
G01X21209757Y-17437441D01*
G01X21188846Y-17432344D01*
G01X21167362Y-17431051D01*
G01X21145990Y-17433604D01*
G01X21125414Y-17439920D01*
G01X21106292Y-17449799D01*
G01X21089234Y-17462925D01*
G01X21074785Y-17478878D01*
G01X21063407Y-17497148D01*
G01X21055463Y-17517152D01*
G01X21051208Y-17538251D01*
G01X21050777Y-17559770D01*
G01X21054183Y-17581022D01*
G01X21061319Y-17601328D01*
G01X21071956Y-17620039D01*
G01X21085755Y-17636558D01*
G01X21102273Y-17650356D01*
G01X21120985Y-17660993D01*
G01X21141291Y-17668129D01*
G01X21162543Y-17671536D01*
G01X21184062Y-17671105D01*
G01X21205161Y-17666850D01*
G01X21225165Y-17658906D01*
G01X21243435Y-17647528D01*
G01X21259388Y-17633079D01*
G01X21272513Y-17616021D01*
G01X21282392Y-17596898D01*
G01X21288709Y-17576323D01*
G01X21291262Y-17554951D01*
G01X21289969Y-17533467D01*
G01X21289597Y-17531941D01*
G01X27011084Y-17531941D01*
G01X27011084Y-17553460D01*
G01X27015038Y-17574613D01*
G01X27022811Y-17594680D01*
G01X27034140Y-17612976D01*
G01X27048638Y-17628879D01*
G01X27065811Y-17641848D01*
G01X27085074Y-17651440D01*
G01X27105772Y-17657329D01*
G01X27127200Y-17659314D01*
G01X27127200Y-17659314D01*
G01X27148628Y-17657329D01*
G01X27169326Y-17651440D01*
G01X27188589Y-17641848D01*
G01X27205762Y-17628879D01*
G01X27220260Y-17612976D01*
G01X27231589Y-17594680D01*
G01X27239362Y-17574613D01*
G01X27243316Y-17553460D01*
G01X27243316Y-17531941D01*
G01X27239362Y-17510788D01*
G01X27231589Y-17490721D01*
G01X27220260Y-17472425D01*
G01X27205762Y-17456522D01*
G01X27188589Y-17443553D01*
G01X27169326Y-17433961D01*
G01X27148628Y-17428072D01*
G01X27127200Y-17426087D01*
G01X27105772Y-17428072D01*
G01X27085074Y-17433961D01*
G01X27065811Y-17443553D01*
G01X27048638Y-17456522D01*
G01X27034140Y-17472425D01*
G01X27022811Y-17490721D01*
G01X27015038Y-17510788D01*
G01X27011084Y-17531941D01*
G01X21289597Y-17531941D01*
G01X21284872Y-17512555D01*
G01X22300127Y-16497300D01*
G01X27738386Y-16497300D01*
G01X27740292Y-16519078D01*
G01X27745950Y-16540194D01*
G01X27755188Y-16560007D01*
G01X27767727Y-16577914D01*
G01X27783186Y-16593373D01*
G01X27801093Y-16605912D01*
G01X27820906Y-16615150D01*
G01X27842022Y-16620808D01*
G01X27863800Y-16622714D01*
G01X27885578Y-16620808D01*
G01X27906694Y-16615150D01*
G01X27926507Y-16605912D01*
G01X27944414Y-16593373D01*
G01X27959873Y-16577914D01*
G01X27972412Y-16560007D01*
G01X27981650Y-16540194D01*
G01X27987308Y-16519078D01*
G01X27989214Y-16497300D01*
G01X27989214Y-16497300D01*
G01X27987308Y-16475522D01*
G01X27981650Y-16454406D01*
G01X27972412Y-16434593D01*
G01X27959873Y-16416686D01*
G01X27944414Y-16401227D01*
G01X27926507Y-16388688D01*
G01X27906694Y-16379450D01*
G01X27885578Y-16373792D01*
G01X27863800Y-16371886D01*
G01X27842022Y-16373792D01*
G01X27820906Y-16379450D01*
G01X27801093Y-16388688D01*
G01X27783186Y-16401227D01*
G01X27767727Y-16416686D01*
G01X27755188Y-16434593D01*
G01X27745950Y-16454406D01*
G01X27740292Y-16475522D01*
G01X27738386Y-16497300D01*
G01X22300127Y-16497300D01*
G01X22615925Y-16181502D01*
G01X26996797Y-16181502D01*
G01X26998949Y-16203452D01*
G01X27004768Y-16224725D01*
G01X27014089Y-16244713D01*
G01X27026645Y-16262845D01*
G01X27026645Y-16262845D01*
G01X27042077Y-16278602D01*
G01X27059944Y-16291533D01*
G01X27079734Y-16301269D01*
G01X27100881Y-16307530D01*
G01X27122781Y-16310139D01*
G01X27144808Y-16309020D01*
G01X27166331Y-16304205D01*
G01X27186734Y-16295832D01*
G01X27205436Y-16284141D01*
G01X27221899Y-16269465D01*
G01X27235654Y-16252225D01*
G01X27246308Y-16232914D01*
G01X27778299Y-16232914D01*
G01X27999907Y-16454522D01*
G01X27994272Y-16475633D01*
G01X27992386Y-16497401D01*
G01X27994307Y-16519166D01*
G01X27999976Y-16540268D01*
G01X28009222Y-16560065D01*
G01X28021764Y-16577957D01*
G01X28037220Y-16593401D01*
G01X28055122Y-16605928D01*
G01X28074927Y-16615158D01*
G01X28096033Y-16620810D01*
G01X28117800Y-16622714D01*
G01X28139567Y-16620810D01*
G01X28160673Y-16615158D01*
G01X28180478Y-16605928D01*
G01X28198380Y-16593401D01*
G01X28213836Y-16577957D01*
G01X28226378Y-16560065D01*
G01X28235624Y-16540268D01*
G01X28241293Y-16519166D01*
G01X28243214Y-16497401D01*
G01X28243205Y-16497300D01*
G01X28246386Y-16497300D01*
G01X28248292Y-16519078D01*
G01X28253950Y-16540194D01*
G01X28263188Y-16560007D01*
G01X28275727Y-16577914D01*
G01X28291186Y-16593373D01*
G01X28309093Y-16605912D01*
G01X28328906Y-16615150D01*
G01X28350022Y-16620808D01*
G01X28371800Y-16622714D01*
G01X28393578Y-16620808D01*
G01X28414694Y-16615150D01*
G01X28434507Y-16605912D01*
G01X28452414Y-16593373D01*
G01X28467873Y-16577914D01*
G01X28480412Y-16560007D01*
G01X28489650Y-16540194D01*
G01X28495308Y-16519078D01*
G01X28497214Y-16497300D01*
G01X28497214Y-16497300D01*
G01X28500386Y-16497300D01*
G01X28502292Y-16519078D01*
G01X28507950Y-16540194D01*
G01X28517188Y-16560007D01*
G01X28529727Y-16577914D01*
G01X28545186Y-16593373D01*
G01X28563093Y-16605912D01*
G01X28582906Y-16615150D01*
G01X28604022Y-16620808D01*
G01X28625800Y-16622714D01*
G01X28647578Y-16620808D01*
G01X28668694Y-16615150D01*
G01X28688507Y-16605912D01*
G01X28706414Y-16593373D01*
G01X28721873Y-16577914D01*
G01X28734412Y-16560007D01*
G01X28743650Y-16540194D01*
G01X28749308Y-16519078D01*
G01X28751214Y-16497300D01*
G01X28751214Y-16497300D01*
G01X28754386Y-16497300D01*
G01X28756292Y-16519078D01*
G01X28761950Y-16540194D01*
G01X28771188Y-16560007D01*
G01X28783727Y-16577914D01*
G01X28799186Y-16593373D01*
G01X28817093Y-16605912D01*
G01X28836906Y-16615150D01*
G01X28858022Y-16620808D01*
G01X28879800Y-16622714D01*
G01X28901578Y-16620808D01*
G01X28922694Y-16615150D01*
G01X28942507Y-16605912D01*
G01X28960414Y-16593373D01*
G01X28975873Y-16577914D01*
G01X28988412Y-16560007D01*
G01X28997650Y-16540194D01*
G01X29003308Y-16519078D01*
G01X29005214Y-16497300D01*
G01X29005214Y-16497300D01*
G01X29008386Y-16497300D01*
G01X29010292Y-16519078D01*
G01X29015950Y-16540194D01*
G01X29025188Y-16560007D01*
G01X29037727Y-16577914D01*
G01X29053186Y-16593373D01*
G01X29071093Y-16605912D01*
G01X29090906Y-16615150D01*
G01X29112022Y-16620808D01*
G01X29133800Y-16622714D01*
G01X29155578Y-16620808D01*
G01X29176694Y-16615150D01*
G01X29196507Y-16605912D01*
G01X29214414Y-16593373D01*
G01X29229873Y-16577914D01*
G01X29242412Y-16560007D01*
G01X29251650Y-16540194D01*
G01X29257308Y-16519078D01*
G01X29259214Y-16497300D01*
G01X29259214Y-16497300D01*
G01X29262386Y-16497300D01*
G01X29264292Y-16519078D01*
G01X29269950Y-16540194D01*
G01X29279188Y-16560007D01*
G01X29291727Y-16577914D01*
G01X29307186Y-16593373D01*
G01X29325093Y-16605912D01*
G01X29344906Y-16615150D01*
G01X29366022Y-16620808D01*
G01X29387800Y-16622714D01*
G01X29409578Y-16620808D01*
G01X29430694Y-16615150D01*
G01X29450507Y-16605912D01*
G01X29468414Y-16593373D01*
G01X29483873Y-16577914D01*
G01X29496412Y-16560007D01*
G01X29505650Y-16540194D01*
G01X29511308Y-16519078D01*
G01X29513214Y-16497300D01*
G01X29513214Y-16497300D01*
G01X29511308Y-16475522D01*
G01X29505650Y-16454406D01*
G01X29496412Y-16434593D01*
G01X29483873Y-16416686D01*
G01X29479487Y-16412300D01*
G01X29522646Y-16412300D01*
G01X29522646Y-16582300D01*
G01X29524624Y-16594788D01*
G01X29530364Y-16606055D01*
G01X29539305Y-16614995D01*
G01X29550571Y-16620736D01*
G01X29563060Y-16622714D01*
G01X29720540Y-16622714D01*
G01X29733029Y-16620736D01*
G01X29744295Y-16614995D01*
G01X29753236Y-16606055D01*
G01X29758976Y-16594788D01*
G01X29760954Y-16582300D01*
G01X29760954Y-16412300D01*
G01X29758976Y-16399812D01*
G01X29753236Y-16388545D01*
G01X29744295Y-16379605D01*
G01X29733029Y-16373864D01*
G01X29720540Y-16371886D01*
G01X29563060Y-16371886D01*
G01X29563060Y-16371886D01*
G01X29550571Y-16373864D01*
G01X29539305Y-16379605D01*
G01X29530364Y-16388545D01*
G01X29524624Y-16399812D01*
G01X29522646Y-16412300D01*
G01X29479487Y-16412300D01*
G01X29468414Y-16401227D01*
G01X29450507Y-16388688D01*
G01X29430694Y-16379450D01*
G01X29409578Y-16373792D01*
G01X29387800Y-16371886D01*
G01X29366022Y-16373792D01*
G01X29344906Y-16379450D01*
G01X29325093Y-16388688D01*
G01X29307186Y-16401227D01*
G01X29291727Y-16416686D01*
G01X29279188Y-16434593D01*
G01X29269950Y-16454406D01*
G01X29264292Y-16475522D01*
G01X29262386Y-16497300D01*
G01X29259214Y-16497300D01*
G01X29257308Y-16475522D01*
G01X29251650Y-16454406D01*
G01X29242412Y-16434593D01*
G01X29229873Y-16416686D01*
G01X29214414Y-16401227D01*
G01X29196507Y-16388688D01*
G01X29176694Y-16379450D01*
G01X29155578Y-16373792D01*
G01X29133800Y-16371886D01*
G01X29112022Y-16373792D01*
G01X29090906Y-16379450D01*
G01X29071093Y-16388688D01*
G01X29053186Y-16401227D01*
G01X29037727Y-16416686D01*
G01X29025188Y-16434593D01*
G01X29015950Y-16454406D01*
G01X29010292Y-16475522D01*
G01X29008386Y-16497300D01*
G01X29005214Y-16497300D01*
G01X29003308Y-16475522D01*
G01X28997650Y-16454406D01*
G01X28988412Y-16434593D01*
G01X28975873Y-16416686D01*
G01X28960414Y-16401227D01*
G01X28942507Y-16388688D01*
G01X28922694Y-16379450D01*
G01X28901578Y-16373792D01*
G01X28879800Y-16371886D01*
G01X28858022Y-16373792D01*
G01X28836906Y-16379450D01*
G01X28817093Y-16388688D01*
G01X28799186Y-16401227D01*
G01X28783727Y-16416686D01*
G01X28771188Y-16434593D01*
G01X28761950Y-16454406D01*
G01X28756292Y-16475522D01*
G01X28754386Y-16497300D01*
G01X28751214Y-16497300D01*
G01X28749308Y-16475522D01*
G01X28743650Y-16454406D01*
G01X28734412Y-16434593D01*
G01X28721873Y-16416686D01*
G01X28706414Y-16401227D01*
G01X28688507Y-16388688D01*
G01X28668694Y-16379450D01*
G01X28647578Y-16373792D01*
G01X28625800Y-16371886D01*
G01X28604022Y-16373792D01*
G01X28582906Y-16379450D01*
G01X28563093Y-16388688D01*
G01X28545186Y-16401227D01*
G01X28529727Y-16416686D01*
G01X28517188Y-16434593D01*
G01X28507950Y-16454406D01*
G01X28502292Y-16475522D01*
G01X28500386Y-16497300D01*
G01X28497214Y-16497300D01*
G01X28495308Y-16475522D01*
G01X28489650Y-16454406D01*
G01X28480412Y-16434593D01*
G01X28467873Y-16416686D01*
G01X28452414Y-16401227D01*
G01X28434507Y-16388688D01*
G01X28414694Y-16379450D01*
G01X28393578Y-16373792D01*
G01X28371800Y-16371886D01*
G01X28350022Y-16373792D01*
G01X28328906Y-16379450D01*
G01X28309093Y-16388688D01*
G01X28291186Y-16401227D01*
G01X28275727Y-16416686D01*
G01X28263188Y-16434593D01*
G01X28253950Y-16454406D01*
G01X28248292Y-16475522D01*
G01X28246386Y-16497300D01*
G01X28243205Y-16497300D01*
G01X28241328Y-16475633D01*
G01X28235693Y-16454522D01*
G01X28391415Y-16298799D01*
G01X30946489Y-16298799D01*
G01X30948470Y-16321445D01*
G01X30954354Y-16343403D01*
G01X30963961Y-16364006D01*
G01X30977000Y-16382627D01*
G01X30993074Y-16398702D01*
G01X31011696Y-16411741D01*
G01X31032298Y-16421348D01*
G01X31054256Y-16427231D01*
G01X31076903Y-16429213D01*
G01X31099549Y-16427231D01*
G01X31121507Y-16421348D01*
G01X31142109Y-16411741D01*
G01X31160731Y-16398702D01*
G01X31176805Y-16382627D01*
G01X31189844Y-16364006D01*
G01X31199451Y-16343403D01*
G01X31205335Y-16321445D01*
G01X31207316Y-16298799D01*
G01X31205335Y-16276153D01*
G01X31199451Y-16254195D01*
G01X31189844Y-16233592D01*
G01X31176805Y-16214971D01*
G01X31160731Y-16198896D01*
G01X31142109Y-16185857D01*
G01X31121507Y-16176250D01*
G01X31099549Y-16170367D01*
G01X31076903Y-16168385D01*
G01X31076903Y-16168385D01*
G01X31054256Y-16170367D01*
G01X31032298Y-16176250D01*
G01X31011696Y-16185857D01*
G01X30993074Y-16198896D01*
G01X30977000Y-16214971D01*
G01X30963961Y-16233592D01*
G01X30954354Y-16254195D01*
G01X30948470Y-16276153D01*
G01X30946489Y-16298799D01*
G01X28391415Y-16298799D01*
G01X28891414Y-15798800D01*
G01X30946489Y-15798800D01*
G01X30948470Y-15821446D01*
G01X30954354Y-15843404D01*
G01X30963961Y-15864007D01*
G01X30977000Y-15882628D01*
G01X30993074Y-15898703D01*
G01X31011696Y-15911742D01*
G01X31032298Y-15921349D01*
G01X31054256Y-15927232D01*
G01X31076903Y-15929214D01*
G01X31099549Y-15927232D01*
G01X31121507Y-15921349D01*
G01X31142109Y-15911742D01*
G01X31160731Y-15898703D01*
G01X31176805Y-15882628D01*
G01X31189844Y-15864007D01*
G01X31199451Y-15843404D01*
G01X31205335Y-15821446D01*
G01X31207316Y-15798800D01*
G01X31205335Y-15776154D01*
G01X31199451Y-15754196D01*
G01X31189844Y-15733593D01*
G01X31176805Y-15714972D01*
G01X31160731Y-15698897D01*
G01X31142109Y-15685858D01*
G01X31121507Y-15676251D01*
G01X31099549Y-15670368D01*
G01X31076903Y-15668386D01*
G01X31076903Y-15668386D01*
G01X31054256Y-15670368D01*
G01X31032298Y-15676251D01*
G01X31011696Y-15685858D01*
G01X30993074Y-15698897D01*
G01X30977000Y-15714972D01*
G01X30963961Y-15733593D01*
G01X30954354Y-15754196D01*
G01X30948470Y-15776154D01*
G01X30946489Y-15798800D01*
G01X28891414Y-15798800D01*
G01X29028801Y-15661414D01*
G01X30060900Y-15661414D01*
G01X30074647Y-15659604D01*
G01X30087457Y-15654298D01*
G01X30098457Y-15645857D01*
G01X30392400Y-15351915D01*
G01X30957795Y-15351915D01*
G01X30968507Y-15371315D01*
G01X30982350Y-15388620D01*
G01X30998923Y-15403333D01*
G01X31017747Y-15415027D01*
G01X31038280Y-15423364D01*
G01X31059928Y-15428105D01*
G01X31082066Y-15429113D01*
G01X31104055Y-15426357D01*
G01X31125259Y-15419918D01*
G01X31145068Y-15409982D01*
G01X31162908Y-15396835D01*
G01X31178265Y-15380858D01*
G01X31190695Y-15362511D01*
G01X31199839Y-15342325D01*
G01X31205433Y-15320882D01*
G01X31207316Y-15298801D01*
G01X31205433Y-15276720D01*
G01X31199839Y-15255277D01*
G01X31190695Y-15235091D01*
G01X31178265Y-15216744D01*
G01X31162908Y-15200767D01*
G01X31145068Y-15187620D01*
G01X31125259Y-15177684D01*
G01X31104055Y-15171245D01*
G01X31082066Y-15168489D01*
G01X31059928Y-15169497D01*
G01X31038280Y-15174238D01*
G01X31017747Y-15182575D01*
G01X30998923Y-15194269D01*
G01X30982350Y-15208982D01*
G01X30968507Y-15226287D01*
G01X30957795Y-15245687D01*
G01X30370399Y-15245687D01*
G01X30356652Y-15247497D01*
G01X30343842Y-15252803D01*
G01X30332842Y-15261244D01*
G01X30038899Y-15555186D01*
G01X29006800Y-15555186D01*
G01X28993053Y-15556996D01*
G01X28980243Y-15562302D01*
G01X28969243Y-15570743D01*
G01X28160578Y-16379407D01*
G01X28139517Y-16373781D01*
G01X28117800Y-16371886D01*
G01X28096083Y-16373781D01*
G01X28075022Y-16379407D01*
G01X27837857Y-16142243D01*
G01X27826857Y-16133802D01*
G01X27814047Y-16128496D01*
G01X27800300Y-16126686D01*
G01X27246308Y-16126686D01*
G01X27236774Y-16109081D01*
G01X27224658Y-16093142D01*
G01X27210245Y-16079245D01*
G01X27193875Y-16067719D01*
G01X27175934Y-16058834D01*
G01X27156844Y-16052800D01*
G01X27178060Y-16045888D01*
G01X27197787Y-16035459D01*
G01X27215448Y-16021821D01*
G01X27230525Y-16005371D01*
G01X27242578Y-15986592D01*
G01X27251252Y-15966033D01*
G01X27256295Y-15944297D01*
G01X27257559Y-15922019D01*
G01X27255006Y-15899851D01*
G01X27248712Y-15878443D01*
G01X27238860Y-15858422D01*
G01X27225739Y-15840373D01*
G01X27209734Y-15824825D01*
G01X27191312Y-15812233D01*
G01X27171013Y-15802966D01*
G01X27149432Y-15797295D01*
G01X27127200Y-15795386D01*
G01X27104968Y-15797295D01*
G01X27083387Y-15802966D01*
G01X27063088Y-15812233D01*
G01X27044666Y-15824825D01*
G01X27028661Y-15840373D01*
G01X27015540Y-15858422D01*
G01X27005688Y-15878443D01*
G01X26999394Y-15899851D01*
G01X26996841Y-15922019D01*
G01X26998105Y-15944297D01*
G01X27003148Y-15966033D01*
G01X27011822Y-15986592D01*
G01X27023875Y-16005371D01*
G01X27038952Y-16021821D01*
G01X27056613Y-16035459D01*
G01X27076340Y-16045888D01*
G01X27097556Y-16052800D01*
G01X27076580Y-16059611D01*
G01X27057050Y-16069860D01*
G01X27039528Y-16083253D01*
G01X27024512Y-16099407D01*
G01X27012434Y-16117861D01*
G01X27003638Y-16138086D01*
G01X26998375Y-16159504D01*
G01X26996797Y-16181502D01*
G01X22615925Y-16181502D01*
G01X23204367Y-15593060D01*
G01X26996786Y-15593060D01*
G01X26996786Y-15750540D01*
G01X26998764Y-15763029D01*
G01X27004505Y-15774295D01*
G01X27013445Y-15783236D01*
G01X27024712Y-15788976D01*
G01X27037200Y-15790954D01*
G01X27037200Y-15790954D01*
G01X27217200Y-15790954D01*
G01X27229688Y-15788976D01*
G01X27240955Y-15783236D01*
G01X27249895Y-15774295D01*
G01X27255636Y-15763029D01*
G01X27257614Y-15750540D01*
G01X27257614Y-15593060D01*
G01X27255636Y-15580571D01*
G01X27249895Y-15569305D01*
G01X27240955Y-15560364D01*
G01X27229688Y-15554624D01*
G01X27217200Y-15552646D01*
G01X27037200Y-15552646D01*
G01X27024712Y-15554624D01*
G01X27013445Y-15560364D01*
G01X27004505Y-15569305D01*
G01X26998764Y-15580571D01*
G01X26996786Y-15593060D01*
G01X23204367Y-15593060D01*
G01X23351901Y-15445527D01*
G01X29197300Y-15445527D01*
G01X29211047Y-15443717D01*
G01X29223857Y-15438411D01*
G01X29234857Y-15429970D01*
G01X29270101Y-15394727D01*
G01X29527487Y-15394727D01*
G01X29541234Y-15392917D01*
G01X29554044Y-15387611D01*
G01X29565045Y-15379170D01*
G01X29591501Y-15352714D01*
G01X29720540Y-15352714D01*
G01X29733029Y-15350736D01*
G01X29744295Y-15344995D01*
G01X29753236Y-15336055D01*
G01X29758976Y-15324788D01*
G01X29760954Y-15312300D01*
G01X29760954Y-15142300D01*
G01X29758976Y-15129812D01*
G01X29753236Y-15118545D01*
G01X29744295Y-15109605D01*
G01X29733029Y-15103864D01*
G01X29720540Y-15101886D01*
G01X29563060Y-15101886D01*
G01X29550571Y-15103864D01*
G01X29539305Y-15109605D01*
G01X29530364Y-15118545D01*
G01X29524624Y-15129812D01*
G01X29522646Y-15142300D01*
G01X29522646Y-15271339D01*
G01X29505487Y-15288499D01*
G01X29497268Y-15288499D01*
G01X29505125Y-15271610D01*
G01X29510394Y-15253743D01*
G01X29512959Y-15235294D01*
G01X29512762Y-15216667D01*
G01X29509809Y-15198276D01*
G01X29504164Y-15180525D01*
G01X29495953Y-15163805D01*
G01X29485355Y-15148486D01*
G01X29472606Y-15134906D01*
G01X29457985Y-15123364D01*
G01X29476157Y-15105193D01*
G01X29476157Y-15105193D01*
G01X29484598Y-15094192D01*
G01X29489904Y-15081382D01*
G01X29491714Y-15067635D01*
G01X29491714Y-13776113D01*
G01X29552357Y-13715470D01*
G01X29552357Y-13715470D01*
G01X29560798Y-13704470D01*
G01X29566104Y-13691660D01*
G01X29567914Y-13677913D01*
G01X29567914Y-12285396D01*
G01X29566104Y-12271649D01*
G01X29560798Y-12258839D01*
G01X29552357Y-12247839D01*
G01X29420861Y-12116343D01*
G01X29415181Y-12111415D01*
G01X29408861Y-12107339D01*
G01X29399475Y-12087065D01*
G01X29386883Y-12068611D01*
G01X29371428Y-12052478D01*
G01X29353531Y-12039105D01*
G01X29333678Y-12028858D01*
G01X29312411Y-12022014D01*
G01X29290308Y-12018760D01*
G01X29267971Y-12019184D01*
G01X29246008Y-12023276D01*
G01X29225016Y-12030923D01*
G01X29205567Y-12041918D01*
G01X29188191Y-12055960D01*
G01X29173360Y-12072669D01*
G01X29161479Y-12091589D01*
G01X29152869Y-12112205D01*
G01X29147767Y-12133956D01*
G01X29146311Y-12156249D01*
G01X29148540Y-12178479D01*
G01X29154394Y-12200040D01*
G01X29163713Y-12220345D01*
G01X29176244Y-12238841D01*
G01X29191645Y-12255025D01*
G01X29209498Y-12268456D01*
G01X29229316Y-12278770D01*
G01X29250561Y-12285684D01*
G01X29272653Y-12289011D01*
G01X29294991Y-12288660D01*
G01X29316968Y-12284641D01*
G01X29337985Y-12277064D01*
G01X29357470Y-12266134D01*
G01X29374893Y-12252149D01*
G01X29389779Y-12235489D01*
G01X29461686Y-12307396D01*
G01X29461686Y-13655912D01*
G01X29401043Y-13716555D01*
G01X29401043Y-13716555D01*
G01X29392602Y-13727556D01*
G01X29387296Y-13740366D01*
G01X29385486Y-13754113D01*
G01X29385486Y-15045635D01*
G01X29369835Y-15061286D01*
G01X29341035Y-15061286D01*
G01X29327288Y-15063096D01*
G01X29314478Y-15068402D01*
G01X29303478Y-15076843D01*
G01X29237343Y-15142978D01*
G01X29231973Y-15149257D01*
G01X29216537Y-15133050D01*
G01X29198467Y-15119844D01*
G01X29178337Y-15110061D01*
G01X29156788Y-15104011D01*
G01X29134508Y-15101888D01*
G01X29112205Y-15103759D01*
G01X29090589Y-15109565D01*
G01X29070350Y-15119121D01*
G01X29052132Y-15132122D01*
G01X29036514Y-15148154D01*
G01X29023995Y-15166707D01*
G01X29014974Y-15187189D01*
G01X29009736Y-15208949D01*
G01X29008450Y-15231294D01*
G01X29011156Y-15253511D01*
G01X29017768Y-15274894D01*
G01X29028075Y-15294760D01*
G01X29041750Y-15312479D01*
G01X29058356Y-15327484D01*
G01X29077365Y-15339299D01*
G01X28936235Y-15339299D01*
G01X28955206Y-15327512D01*
G01X28971786Y-15312548D01*
G01X28985449Y-15294880D01*
G01X28995760Y-15275068D01*
G01X29002395Y-15253742D01*
G01X29005141Y-15231577D01*
G01X29003912Y-15209276D01*
G01X28998747Y-15187547D01*
G01X28989809Y-15167079D01*
G01X28977383Y-15148520D01*
G01X28961861Y-15132460D01*
G01X28943738Y-15119408D01*
G01X28923586Y-15109778D01*
G01X28902046Y-15103875D01*
G01X28879800Y-15101886D01*
G01X28857554Y-15103875D01*
G01X28836014Y-15109778D01*
G01X28815862Y-15119408D01*
G01X28797739Y-15132460D01*
G01X28782217Y-15148520D01*
G01X28769791Y-15167079D01*
G01X28760853Y-15187547D01*
G01X28755688Y-15209276D01*
G01X28754459Y-15231577D01*
G01X28757205Y-15253742D01*
G01X28763840Y-15275068D01*
G01X28774151Y-15294880D01*
G01X28787814Y-15312548D01*
G01X28804394Y-15327512D01*
G01X28823365Y-15339299D01*
G01X28682235Y-15339299D01*
G01X28701206Y-15327512D01*
G01X28717786Y-15312548D01*
G01X28731449Y-15294880D01*
G01X28741760Y-15275068D01*
G01X28748395Y-15253742D01*
G01X28751141Y-15231577D01*
G01X28749912Y-15209276D01*
G01X28744747Y-15187547D01*
G01X28735809Y-15167079D01*
G01X28723383Y-15148520D01*
G01X28707861Y-15132460D01*
G01X28689738Y-15119408D01*
G01X28669586Y-15109778D01*
G01X28648046Y-15103875D01*
G01X28625800Y-15101886D01*
G01X28603554Y-15103875D01*
G01X28582014Y-15109778D01*
G01X28561862Y-15119408D01*
G01X28543739Y-15132460D01*
G01X28528217Y-15148520D01*
G01X28515791Y-15167079D01*
G01X28506853Y-15187547D01*
G01X28501688Y-15209276D01*
G01X28500459Y-15231577D01*
G01X28503205Y-15253742D01*
G01X28509840Y-15275068D01*
G01X28520151Y-15294880D01*
G01X28533814Y-15312548D01*
G01X28550394Y-15327512D01*
G01X28569365Y-15339299D01*
G01X28428235Y-15339299D01*
G01X28447206Y-15327512D01*
G01X28463786Y-15312548D01*
G01X28477449Y-15294880D01*
G01X28487760Y-15275068D01*
G01X28494395Y-15253742D01*
G01X28497141Y-15231577D01*
G01X28495912Y-15209276D01*
G01X28490747Y-15187547D01*
G01X28481809Y-15167079D01*
G01X28469383Y-15148520D01*
G01X28453861Y-15132460D01*
G01X28435738Y-15119408D01*
G01X28415586Y-15109778D01*
G01X28394046Y-15103875D01*
G01X28371800Y-15101886D01*
G01X28349554Y-15103875D01*
G01X28328014Y-15109778D01*
G01X28307862Y-15119408D01*
G01X28289739Y-15132460D01*
G01X28274217Y-15148520D01*
G01X28261791Y-15167079D01*
G01X28252853Y-15187547D01*
G01X28247688Y-15209276D01*
G01X28246459Y-15231577D01*
G01X28249205Y-15253742D01*
G01X28255840Y-15275068D01*
G01X28266151Y-15294880D01*
G01X28279814Y-15312548D01*
G01X28296394Y-15327512D01*
G01X28315365Y-15339299D01*
G01X28174235Y-15339299D01*
G01X28193042Y-15327636D01*
G01X28209506Y-15312849D01*
G01X28223115Y-15295399D01*
G01X28233444Y-15275828D01*
G01X28240174Y-15254747D01*
G01X28243093Y-15232811D01*
G01X28242111Y-15210703D01*
G01X28237258Y-15189112D01*
G01X28228687Y-15168710D01*
G01X28216662Y-15150132D01*
G01X28201560Y-15133957D01*
G01X28183850Y-15120688D01*
G01X28164083Y-15110739D01*
G01X28142876Y-15104419D01*
G01X28120887Y-15101924D01*
G01X28098803Y-15103333D01*
G01X28077309Y-15108602D01*
G01X28057077Y-15117567D01*
G01X28038735Y-15129948D01*
G01X28022855Y-15145360D01*
G01X28009931Y-15163324D01*
G01X28000366Y-15183279D01*
G01X27994457Y-15204605D01*
G01X27992388Y-15226638D01*
G01X27994224Y-15248691D01*
G01X27999907Y-15270078D01*
G01X27981601Y-15288384D01*
G01X27973332Y-15288384D01*
G01X27982438Y-15267966D01*
G01X27987773Y-15246255D01*
G01X27989169Y-15223942D01*
G01X27986581Y-15201736D01*
G01X27980091Y-15180342D01*
G01X27969906Y-15160440D01*
G01X27956348Y-15142663D01*
G01X27939850Y-15127576D01*
G01X27920936Y-15115657D01*
G01X27920936Y-15115657D01*
G01X27920936Y-15115657D01*
G01X27900205Y-15107286D01*
G01X27878318Y-15102729D01*
G01X27855969Y-15102131D01*
G01X27833869Y-15105510D01*
G01X27812721Y-15112760D01*
G01X27793195Y-15123649D01*
G01X27775913Y-15137832D01*
G01X27761424Y-15154858D01*
G01X27750189Y-15174186D01*
G01X22987013Y-15174186D01*
G01X22987013Y-15174186D01*
G01X22973266Y-15175996D01*
G01X22960456Y-15181302D01*
G01X22949455Y-15189743D01*
G01X21209757Y-16929441D01*
G01X21188846Y-16924344D01*
G01X21167362Y-16923051D01*
G01X21145990Y-16925604D01*
G01X21125414Y-16931920D01*
G01X21106292Y-16941799D01*
G01X21089234Y-16954925D01*
G01X21074785Y-16970878D01*
G01X21063407Y-16989148D01*
G01X21055463Y-17009152D01*
G01X21051208Y-17030251D01*
G01X21050777Y-17051770D01*
G01X19004583Y-17051770D01*
G01X19005314Y-17043413D01*
G01X19003484Y-17022503D01*
G01X18998052Y-17002229D01*
G01X18989181Y-16983206D01*
G01X18977142Y-16966012D01*
G01X18962300Y-16951170D01*
G01X18945107Y-16939131D01*
G01X18926084Y-16930261D01*
G01X18905810Y-16924828D01*
G01X18884900Y-16922999D01*
G01X18884900Y-16922999D01*
G01X18863990Y-16924828D01*
G01X18843716Y-16930261D01*
G01X18824693Y-16939131D01*
G01X18807500Y-16951170D01*
G01X18792658Y-16966012D01*
G01X18780619Y-16983206D01*
G01X18771748Y-17002229D01*
G01X18766316Y-17022503D01*
G01X18764486Y-17043413D01*
G01X11084560Y-17043413D01*
G01X11084560Y-12570993D01*
G01X13040586Y-12570993D01*
G01X13042427Y-12591631D01*
G01X13047891Y-12611618D01*
G01X13056806Y-12630321D01*
G01X13068890Y-12647152D01*
G01X13083762Y-12661579D01*
G01X13100953Y-12673146D01*
G01X13119919Y-12681488D01*
G01X13140063Y-12686341D01*
G01X13160747Y-12687553D01*
G01X13181319Y-12685086D01*
G01X13201130Y-12679016D01*
G01X13219554Y-12669537D01*
G01X13236010Y-12656946D01*
G01X13249977Y-12641642D01*
G01X13261016Y-12624107D01*
G01X13780893Y-12624107D01*
G01X13829957Y-12673172D01*
G01X13826806Y-12691796D01*
G01X13827029Y-12710684D01*
G01X13830619Y-12729228D01*
G01X13837462Y-12746834D01*
G01X13847336Y-12762937D01*
G01X13859926Y-12777018D01*
G01X13874827Y-12788627D01*
G01X13891560Y-12797390D01*
G01X13909588Y-12803026D01*
G01X13928333Y-12805353D01*
G01X13947193Y-12804299D01*
G01X13965561Y-12799895D01*
G01X13982849Y-12792284D01*
G01X13998501Y-12781709D01*
G01X14012014Y-12768512D01*
G01X14022955Y-12753114D01*
G01X15182899Y-12753114D01*
G01X15188933Y-12772286D01*
G01X15198342Y-12790047D01*
G01X15210815Y-12805808D01*
G01X15225938Y-12819047D01*
G01X15243211Y-12829325D01*
G01X15262061Y-12836301D01*
G01X15281863Y-12839744D01*
G01X15301962Y-12839541D01*
G01X15321690Y-12835697D01*
G01X18682243Y-16196250D01*
G01X18693243Y-16204691D01*
G01X18706053Y-16209997D01*
G01X18719800Y-16211807D01*
G01X18786643Y-16211807D01*
G01X18776833Y-16228299D01*
G01X13725313Y-16228299D01*
G01X13304379Y-15807365D01*
G01X13310537Y-15785994D01*
G01X13312975Y-15763888D01*
G01X13311621Y-15741689D01*
G01X13306514Y-15720043D01*
G01X13297804Y-15699580D01*
G01X13285744Y-15680894D01*
G01X13270684Y-15664529D01*
G01X13253063Y-15650960D01*
G01X13233392Y-15640584D01*
G01X13212244Y-15633700D01*
G01X13233601Y-15626728D01*
G01X13253445Y-15616193D01*
G01X13271186Y-15602409D01*
G01X13286298Y-15585785D01*
G01X13298333Y-15566814D01*
G01X13306933Y-15546059D01*
G01X13311843Y-15524135D01*
G01X13312918Y-15501694D01*
G01X13310125Y-15479402D01*
G01X13303547Y-15457920D01*
G01X13293381Y-15437886D01*
G01X13279926Y-15419893D01*
G01X13263583Y-15404477D01*
G01X13244837Y-15392095D01*
G01X13224244Y-15383114D01*
G01X13272600Y-15383114D01*
G01X13285088Y-15381136D01*
G01X13296355Y-15375395D01*
G01X13305295Y-15366455D01*
G01X13311036Y-15355188D01*
G01X13313014Y-15342700D01*
G01X13313014Y-15162700D01*
G01X13311036Y-15150212D01*
G01X13305295Y-15138945D01*
G01X13296355Y-15130005D01*
G01X13285088Y-15124264D01*
G01X13272600Y-15122286D01*
G01X13092600Y-15122286D01*
G01X13080112Y-15124264D01*
G01X13068845Y-15130005D01*
G01X13059905Y-15138945D01*
G01X13054164Y-15150212D01*
G01X13052186Y-15162700D01*
G01X13052186Y-15342700D01*
G01X13054164Y-15355188D01*
G01X13059905Y-15366455D01*
G01X13068845Y-15375395D01*
G01X13080112Y-15381136D01*
G01X13092600Y-15383114D01*
G01X13140956Y-15383114D01*
G01X13120363Y-15392095D01*
G01X13101617Y-15404477D01*
G01X13085274Y-15419893D01*
G01X13071819Y-15437886D01*
G01X13061653Y-15457920D01*
G01X13055075Y-15479402D01*
G01X13052282Y-15501694D01*
G01X13053357Y-15524135D01*
G01X13058267Y-15546059D01*
G01X13066867Y-15566814D01*
G01X13078902Y-15585785D01*
G01X13094014Y-15602409D01*
G01X13111755Y-15616193D01*
G01X13131599Y-15626728D01*
G01X13152956Y-15633700D01*
G01X13132176Y-15640429D01*
G01X13112810Y-15650532D01*
G01X13095401Y-15663725D01*
G01X13080439Y-15679639D01*
G01X13068343Y-15697827D01*
G01X13059452Y-15717778D01*
G01X13054015Y-15738934D01*
G01X13052186Y-15760700D01*
G01X13054015Y-15782466D01*
G01X13059452Y-15803622D01*
G01X13068343Y-15823573D01*
G01X13080439Y-15841761D01*
G01X13095401Y-15857675D01*
G01X13112810Y-15870868D01*
G01X13132176Y-15880971D01*
G01X13152956Y-15887700D01*
G01X13132630Y-15894239D01*
G01X13113643Y-15904008D01*
G01X13096505Y-15916744D01*
G01X13081675Y-15932106D01*
G01X13069550Y-15949681D01*
G01X13060456Y-15969000D01*
G01X13054635Y-15989544D01*
G01X13052246Y-16010762D01*
G01X13053350Y-16032086D01*
G01X13057920Y-16052943D01*
G01X13065831Y-16072776D01*
G01X13076873Y-16091052D01*
G01X13090749Y-16107280D01*
G01X13107087Y-16121028D01*
G01X13125450Y-16131924D01*
G01X13145344Y-16139679D01*
G01X13166237Y-16144083D01*
G01X13187569Y-16145019D01*
G01X13208768Y-16142462D01*
G01X13229265Y-16136479D01*
G01X13665755Y-16572970D01*
G01X13676756Y-16581411D01*
G01X13689566Y-16586717D01*
G01X13703313Y-16588527D01*
G01X18776833Y-16588527D01*
G01X18788304Y-16607306D01*
G01X18802999Y-16623684D01*
G01X18820431Y-16637114D01*
G01X18840015Y-16647148D01*
G01X18861098Y-16653451D01*
G01X18882975Y-16655811D01*
G01X18904918Y-16654151D01*
G01X18926191Y-16648525D01*
G01X18946086Y-16639123D01*
G01X18946086Y-16653112D01*
G01X18923757Y-16675441D01*
G01X18902846Y-16670344D01*
G01X18881362Y-16669051D01*
G01X18859990Y-16671604D01*
G01X18839414Y-16677920D01*
G01X18820292Y-16687799D01*
G01X18803234Y-16700925D01*
G01X18788785Y-16716878D01*
G01X18777407Y-16735148D01*
G01X18769463Y-16755152D01*
G01X18765208Y-16776251D01*
G01X18764777Y-16797770D01*
G01X18768183Y-16819022D01*
G01X18775319Y-16839328D01*
G01X18785956Y-16858039D01*
G01X18799755Y-16874558D01*
G01X18816273Y-16888356D01*
G01X18834985Y-16898993D01*
G01X18855291Y-16906129D01*
G01X18876543Y-16909536D01*
G01X18898062Y-16909105D01*
G01X18919161Y-16904850D01*
G01X18939165Y-16896906D01*
G01X18957435Y-16885528D01*
G01X18973388Y-16871079D01*
G01X18986513Y-16854021D01*
G01X18996392Y-16834898D01*
G01X19002709Y-16814323D01*
G01X19005262Y-16792951D01*
G01X19003969Y-16771467D01*
G01X18998872Y-16750555D01*
G01X19036757Y-16712670D01*
G01X19045198Y-16701670D01*
G01X19050504Y-16688860D01*
G01X19052314Y-16675113D01*
G01X19052314Y-16611613D01*
G01X20939986Y-16611613D01*
G01X20941796Y-16625360D01*
G01X20947102Y-16638170D01*
G01X20955543Y-16649170D01*
G01X21056928Y-16750555D01*
G01X21051831Y-16771467D01*
G01X21050538Y-16792951D01*
G01X21053091Y-16814323D01*
G01X21059408Y-16834898D01*
G01X21069287Y-16854021D01*
G01X21082412Y-16871079D01*
G01X21098365Y-16885528D01*
G01X21116635Y-16896906D01*
G01X21136639Y-16904850D01*
G01X21157738Y-16909105D01*
G01X21179257Y-16909536D01*
G01X21200509Y-16906129D01*
G01X21220815Y-16898993D01*
G01X21239527Y-16888356D01*
G01X21256045Y-16874558D01*
G01X21269844Y-16858039D01*
G01X21280481Y-16839328D01*
G01X21287617Y-16819022D01*
G01X21291023Y-16797770D01*
G01X21290592Y-16776251D01*
G01X21286337Y-16755152D01*
G01X21278393Y-16735148D01*
G01X21267015Y-16716878D01*
G01X21252566Y-16700925D01*
G01X21235508Y-16687799D01*
G01X21216386Y-16677920D01*
G01X21195810Y-16671604D01*
G01X21174438Y-16669051D01*
G01X21152954Y-16670344D01*
G01X21132043Y-16675441D01*
G01X21046214Y-16589612D01*
G01X21046214Y-16535413D01*
G01X21050486Y-16535413D01*
G01X21052316Y-16556322D01*
G01X21057748Y-16576597D01*
G01X21066619Y-16595620D01*
G01X21078658Y-16612813D01*
G01X21093500Y-16627655D01*
G01X21110693Y-16639694D01*
G01X21129716Y-16648565D01*
G01X21149990Y-16653997D01*
G01X21170900Y-16655826D01*
G01X21191810Y-16653997D01*
G01X21212084Y-16648565D01*
G01X21231107Y-16639694D01*
G01X21248300Y-16627655D01*
G01X21263142Y-16612813D01*
G01X21275181Y-16595620D01*
G01X21284052Y-16576597D01*
G01X21289484Y-16556322D01*
G01X21291314Y-16535413D01*
G01X21289484Y-16514503D01*
G01X21284052Y-16494229D01*
G01X21275181Y-16475206D01*
G01X21263142Y-16458012D01*
G01X21248300Y-16443170D01*
G01X21231107Y-16431131D01*
G01X21212084Y-16422261D01*
G01X21191810Y-16416828D01*
G01X21170900Y-16414999D01*
G01X21170900Y-16414999D01*
G01X21149990Y-16416828D01*
G01X21129716Y-16422261D01*
G01X21110693Y-16431131D01*
G01X21093500Y-16443170D01*
G01X21078658Y-16458012D01*
G01X21066619Y-16475206D01*
G01X21057748Y-16494229D01*
G01X21052316Y-16514503D01*
G01X21050486Y-16535413D01*
G01X21046214Y-16535413D01*
G01X21046214Y-16289770D01*
G01X21050777Y-16289770D01*
G01X21054183Y-16311022D01*
G01X21061319Y-16331328D01*
G01X21071956Y-16350039D01*
G01X21085755Y-16366558D01*
G01X21102273Y-16380356D01*
G01X21120985Y-16390993D01*
G01X21141291Y-16398129D01*
G01X21162543Y-16401536D01*
G01X21184062Y-16401105D01*
G01X21205161Y-16396850D01*
G01X21225165Y-16388906D01*
G01X21243435Y-16377528D01*
G01X21259388Y-16363079D01*
G01X21272513Y-16346021D01*
G01X21282392Y-16326898D01*
G01X21288709Y-16306323D01*
G01X21291262Y-16284951D01*
G01X21289969Y-16263467D01*
G01X21284872Y-16242555D01*
G01X21830757Y-15696670D01*
G01X21839198Y-15685670D01*
G01X21844504Y-15672860D01*
G01X21846314Y-15659113D01*
G01X21846314Y-13512800D01*
G01X28596986Y-13512800D01*
G01X28598895Y-13535032D01*
G01X28604566Y-13556613D01*
G01X28613833Y-13576912D01*
G01X28626425Y-13595334D01*
G01X28641973Y-13611339D01*
G01X28660022Y-13624460D01*
G01X28680043Y-13634312D01*
G01X28701451Y-13640606D01*
G01X28723619Y-13643159D01*
G01X28745897Y-13641895D01*
G01X28767633Y-13636852D01*
G01X28788192Y-13628178D01*
G01X28806971Y-13616125D01*
G01X28823421Y-13601048D01*
G01X28837059Y-13583387D01*
G01X28847488Y-13563660D01*
G01X28854400Y-13542444D01*
G01X28861312Y-13563660D01*
G01X28871741Y-13583387D01*
G01X28885379Y-13601048D01*
G01X28901829Y-13616125D01*
G01X28920608Y-13628178D01*
G01X28941167Y-13636852D01*
G01X28962903Y-13641895D01*
G01X28985181Y-13643159D01*
G01X29007349Y-13640606D01*
G01X29028757Y-13634312D01*
G01X29048778Y-13624460D01*
G01X29066827Y-13611339D01*
G01X29082375Y-13595334D01*
G01X29094967Y-13576912D01*
G01X29104234Y-13556613D01*
G01X29109905Y-13535032D01*
G01X29111814Y-13512800D01*
G01X29111814Y-13512800D01*
G01X29109905Y-13490568D01*
G01X29104234Y-13468987D01*
G01X29094967Y-13448688D01*
G01X29082375Y-13430266D01*
G01X29075122Y-13422800D01*
G01X29116246Y-13422800D01*
G01X29116246Y-13602800D01*
G01X29118224Y-13615288D01*
G01X29123964Y-13626555D01*
G01X29132905Y-13635495D01*
G01X29144171Y-13641236D01*
G01X29156660Y-13643214D01*
G01X29314140Y-13643214D01*
G01X29326629Y-13641236D01*
G01X29337895Y-13635495D01*
G01X29346836Y-13626555D01*
G01X29352576Y-13615288D01*
G01X29354554Y-13602800D01*
G01X29354554Y-13422800D01*
G01X29352576Y-13410312D01*
G01X29346836Y-13399045D01*
G01X29337895Y-13390105D01*
G01X29326629Y-13384364D01*
G01X29314140Y-13382386D01*
G01X29156660Y-13382386D01*
G01X29156660Y-13382386D01*
G01X29144171Y-13384364D01*
G01X29132905Y-13390105D01*
G01X29123964Y-13399045D01*
G01X29118224Y-13410312D01*
G01X29116246Y-13422800D01*
G01X29075122Y-13422800D01*
G01X29066827Y-13414261D01*
G01X29048778Y-13401140D01*
G01X29028757Y-13391288D01*
G01X29007349Y-13384994D01*
G01X28985181Y-13382441D01*
G01X28962903Y-13383705D01*
G01X28941167Y-13388748D01*
G01X28920608Y-13397422D01*
G01X28901829Y-13409475D01*
G01X28885379Y-13424552D01*
G01X28871741Y-13442213D01*
G01X28861312Y-13461940D01*
G01X28854400Y-13483156D01*
G01X28847488Y-13461940D01*
G01X28837059Y-13442213D01*
G01X28823421Y-13424552D01*
G01X28806971Y-13409475D01*
G01X28788192Y-13397422D01*
G01X28767633Y-13388748D01*
G01X28745897Y-13383705D01*
G01X28723619Y-13382441D01*
G01X28701451Y-13384994D01*
G01X28680043Y-13391288D01*
G01X28660022Y-13401140D01*
G01X28641973Y-13414261D01*
G01X28626425Y-13430266D01*
G01X28613833Y-13448688D01*
G01X28604566Y-13468987D01*
G01X28598895Y-13490568D01*
G01X28596986Y-13512800D01*
G01X21846314Y-13512800D01*
G01X21846314Y-12463761D01*
G01X21864421Y-12452626D01*
G01X21880262Y-12438450D01*
G01X21893331Y-12421686D01*
G01X21903214Y-12402866D01*
G01X21909596Y-12382589D01*
G01X21912273Y-12361501D01*
G01X21912042Y-12357100D01*
G01X21928046Y-12357100D01*
G01X21929856Y-12377791D01*
G01X21935232Y-12397853D01*
G01X21944010Y-12416677D01*
G01X21955923Y-12433691D01*
G01X21970609Y-12448377D01*
G01X21987623Y-12460290D01*
G01X22006447Y-12469068D01*
G01X22026509Y-12474444D01*
G01X22047200Y-12476254D01*
G01X22067891Y-12474444D01*
G01X22087953Y-12469068D01*
G01X22106777Y-12460290D01*
G01X22123791Y-12448377D01*
G01X22138477Y-12433691D01*
G01X22150390Y-12416677D01*
G01X22159168Y-12397853D01*
G01X22164544Y-12377791D01*
G01X22166354Y-12357100D01*
G01X22166354Y-12357100D01*
G01X22164544Y-12336409D01*
G01X22159168Y-12316347D01*
G01X22150390Y-12297523D01*
G01X22138477Y-12280509D01*
G01X22136328Y-12278360D01*
G01X22182046Y-12278360D01*
G01X22182046Y-12435840D01*
G01X22184024Y-12448329D01*
G01X22189764Y-12459595D01*
G01X22198705Y-12468536D01*
G01X22209971Y-12474276D01*
G01X22222460Y-12476254D01*
G01X22379940Y-12476254D01*
G01X22392429Y-12474276D01*
G01X22403695Y-12468536D01*
G01X22412636Y-12459595D01*
G01X22418376Y-12448329D01*
G01X22420354Y-12435840D01*
G01X22420354Y-12278360D01*
G01X22418376Y-12265871D01*
G01X22412636Y-12254605D01*
G01X22403695Y-12245664D01*
G01X22392429Y-12239924D01*
G01X22379940Y-12237946D01*
G01X22222460Y-12237946D01*
G01X22222460Y-12237946D01*
G01X22209971Y-12239924D01*
G01X22198705Y-12245664D01*
G01X22189764Y-12254605D01*
G01X22184024Y-12265871D01*
G01X22182046Y-12278360D01*
G01X22136328Y-12278360D01*
G01X22123791Y-12265823D01*
G01X22106777Y-12253910D01*
G01X22087953Y-12245132D01*
G01X22067891Y-12239756D01*
G01X22047200Y-12237946D01*
G01X22026509Y-12239756D01*
G01X22006447Y-12245132D01*
G01X21987623Y-12253910D01*
G01X21970609Y-12265823D01*
G01X21955923Y-12280509D01*
G01X21944010Y-12297523D01*
G01X21935232Y-12316347D01*
G01X21929856Y-12336409D01*
G01X21928046Y-12357100D01*
G01X21912042Y-12357100D01*
G01X21911160Y-12340273D01*
G01X21906293Y-12319581D01*
G01X21897826Y-12300082D01*
G01X21886030Y-12282399D01*
G01X21871279Y-12267093D01*
G01X21854043Y-12254651D01*
G01X21834871Y-12245470D01*
G01X21814372Y-12239842D01*
G01X21793200Y-12237946D01*
G01X21772028Y-12239842D01*
G01X21751529Y-12245470D01*
G01X21732357Y-12254651D01*
G01X21715121Y-12267093D01*
G01X21700370Y-12282399D01*
G01X21688574Y-12300082D01*
G01X21680107Y-12319581D01*
G01X21675240Y-12340273D01*
G01X21674127Y-12361501D01*
G01X21676804Y-12382589D01*
G01X21683186Y-12402866D01*
G01X21693069Y-12421686D01*
G01X21706138Y-12438450D01*
G01X21721979Y-12452626D01*
G01X21740086Y-12463761D01*
G01X21740086Y-15637112D01*
G01X21209757Y-16167441D01*
G01X21209757Y-16167441D01*
G01X21188846Y-16162344D01*
G01X21167362Y-16161051D01*
G01X21145990Y-16163604D01*
G01X21125414Y-16169920D01*
G01X21106292Y-16179799D01*
G01X21089234Y-16192925D01*
G01X21074785Y-16208878D01*
G01X21063407Y-16227148D01*
G01X21055463Y-16247152D01*
G01X21051208Y-16268251D01*
G01X21050777Y-16289770D01*
G01X21046214Y-16289770D01*
G01X21046214Y-16027413D01*
G01X21050486Y-16027413D01*
G01X21052316Y-16048322D01*
G01X21057748Y-16068597D01*
G01X21066619Y-16087620D01*
G01X21078658Y-16104813D01*
G01X21093500Y-16119655D01*
G01X21110693Y-16131694D01*
G01X21129716Y-16140565D01*
G01X21149990Y-16145997D01*
G01X21170900Y-16147826D01*
G01X21191810Y-16145997D01*
G01X21212084Y-16140565D01*
G01X21231107Y-16131694D01*
G01X21248300Y-16119655D01*
G01X21263142Y-16104813D01*
G01X21275181Y-16087620D01*
G01X21284052Y-16068597D01*
G01X21289484Y-16048322D01*
G01X21291314Y-16027413D01*
G01X21289484Y-16006503D01*
G01X21284052Y-15986229D01*
G01X21275181Y-15967206D01*
G01X21263142Y-15950012D01*
G01X21248300Y-15935170D01*
G01X21231107Y-15923131D01*
G01X21212084Y-15914261D01*
G01X21191810Y-15908828D01*
G01X21170900Y-15906999D01*
G01X21170900Y-15906999D01*
G01X21149990Y-15908828D01*
G01X21129716Y-15914261D01*
G01X21110693Y-15923131D01*
G01X21093500Y-15935170D01*
G01X21078658Y-15950012D01*
G01X21066619Y-15967206D01*
G01X21057748Y-15986229D01*
G01X21052316Y-16006503D01*
G01X21050486Y-16027413D01*
G01X21046214Y-16027413D01*
G01X21046214Y-15773413D01*
G01X21050486Y-15773413D01*
G01X21052316Y-15794322D01*
G01X21057748Y-15814597D01*
G01X21066619Y-15833620D01*
G01X21078658Y-15850813D01*
G01X21093500Y-15865655D01*
G01X21110693Y-15877694D01*
G01X21129716Y-15886565D01*
G01X21149990Y-15891997D01*
G01X21170900Y-15893826D01*
G01X21191810Y-15891997D01*
G01X21212084Y-15886565D01*
G01X21231107Y-15877694D01*
G01X21248300Y-15865655D01*
G01X21263142Y-15850813D01*
G01X21275181Y-15833620D01*
G01X21284052Y-15814597D01*
G01X21289484Y-15794322D01*
G01X21291314Y-15773413D01*
G01X21289484Y-15752503D01*
G01X21284052Y-15732229D01*
G01X21275181Y-15713206D01*
G01X21263142Y-15696012D01*
G01X21248300Y-15681170D01*
G01X21231107Y-15669131D01*
G01X21212084Y-15660261D01*
G01X21191810Y-15654828D01*
G01X21170900Y-15652999D01*
G01X21170900Y-15652999D01*
G01X21149990Y-15654828D01*
G01X21129716Y-15660261D01*
G01X21110693Y-15669131D01*
G01X21093500Y-15681170D01*
G01X21078658Y-15696012D01*
G01X21066619Y-15713206D01*
G01X21057748Y-15732229D01*
G01X21052316Y-15752503D01*
G01X21050486Y-15773413D01*
G01X21046214Y-15773413D01*
G01X21046214Y-15519413D01*
G01X21050486Y-15519413D01*
G01X21052316Y-15540322D01*
G01X21057748Y-15560597D01*
G01X21066619Y-15579620D01*
G01X21078658Y-15596813D01*
G01X21093500Y-15611655D01*
G01X21110693Y-15623694D01*
G01X21129716Y-15632565D01*
G01X21149990Y-15637997D01*
G01X21170900Y-15639826D01*
G01X21191810Y-15637997D01*
G01X21212084Y-15632565D01*
G01X21231107Y-15623694D01*
G01X21248300Y-15611655D01*
G01X21263142Y-15596813D01*
G01X21275181Y-15579620D01*
G01X21284052Y-15560597D01*
G01X21289484Y-15540322D01*
G01X21291314Y-15519413D01*
G01X21289484Y-15498503D01*
G01X21284052Y-15478229D01*
G01X21275181Y-15459206D01*
G01X21263142Y-15442012D01*
G01X21248300Y-15427170D01*
G01X21231107Y-15415131D01*
G01X21212084Y-15406261D01*
G01X21191810Y-15400828D01*
G01X21170900Y-15398999D01*
G01X21170900Y-15398999D01*
G01X21149990Y-15400828D01*
G01X21129716Y-15406261D01*
G01X21110693Y-15415131D01*
G01X21093500Y-15427170D01*
G01X21078658Y-15442012D01*
G01X21066619Y-15459206D01*
G01X21057748Y-15478229D01*
G01X21052316Y-15498503D01*
G01X21050486Y-15519413D01*
G01X21046214Y-15519413D01*
G01X21046214Y-15345387D01*
G01X21050486Y-15345387D01*
G01X21052464Y-15357876D01*
G01X21058205Y-15369142D01*
G01X21067145Y-15378083D01*
G01X21078412Y-15383823D01*
G01X21090900Y-15385801D01*
G01X21250900Y-15385801D01*
G01X21263388Y-15383823D01*
G01X21274655Y-15378083D01*
G01X21283595Y-15369142D01*
G01X21289336Y-15357876D01*
G01X21291314Y-15345387D01*
G01X21291314Y-15185387D01*
G01X21289336Y-15172899D01*
G01X21283595Y-15161633D01*
G01X21274655Y-15152692D01*
G01X21263388Y-15146952D01*
G01X21250900Y-15144974D01*
G01X21090900Y-15144974D01*
G01X21078412Y-15146952D01*
G01X21067145Y-15152692D01*
G01X21058205Y-15161633D01*
G01X21052464Y-15172899D01*
G01X21050486Y-15185387D01*
G01X21050486Y-15345387D01*
G01X21050486Y-15345387D01*
G01X21046214Y-15345387D01*
G01X21046214Y-12925201D01*
G01X21501337Y-12470078D01*
G01X21522014Y-12475008D01*
G01X21543239Y-12476185D01*
G01X21564335Y-12473573D01*
G01X21584631Y-12467253D01*
G01X21603481Y-12457428D01*
G01X21620285Y-12444409D01*
G01X21634508Y-12428612D01*
G01X21645699Y-12410539D01*
G01X21653499Y-12390765D01*
G01X21657662Y-12369919D01*
G01X21658055Y-12348665D01*
G01X21654665Y-12327680D01*
G01X21647600Y-12307632D01*
G01X21637085Y-12289157D01*
G01X21623455Y-12272845D01*
G01X21607143Y-12259215D01*
G01X21588668Y-12248700D01*
G01X21568620Y-12241635D01*
G01X21547635Y-12238245D01*
G01X21526381Y-12238638D01*
G01X21505535Y-12242801D01*
G01X21485761Y-12250601D01*
G01X21467688Y-12261792D01*
G01X21451891Y-12276015D01*
G01X21438872Y-12292819D01*
G01X21429047Y-12311669D01*
G01X21422727Y-12331965D01*
G01X21420115Y-12353061D01*
G01X21421292Y-12374286D01*
G01X21426222Y-12394963D01*
G01X20955543Y-12865643D01*
G01X20947102Y-12876643D01*
G01X20941796Y-12889453D01*
G01X20939986Y-12903200D01*
G01X20939986Y-16611613D01*
G01X20939986Y-16611613D01*
G01X19052314Y-16611613D01*
G01X19052314Y-16234893D01*
G01X19050504Y-16221146D01*
G01X19045198Y-16208336D01*
G01X19036757Y-16197335D01*
G01X18960557Y-16121135D01*
G01X18960378Y-16120956D01*
G01X18975497Y-16106436D01*
G01X18987867Y-16089513D01*
G01X18997112Y-16070700D01*
G01X19002951Y-16050568D01*
G01X19005208Y-16029728D01*
G01X19003814Y-16008812D01*
G01X18998811Y-15988456D01*
G01X18990350Y-15969277D01*
G01X18978660Y-15951858D01*
G01X18964124Y-15936732D01*
G01X18947183Y-15924358D01*
G01X18928352Y-15915112D01*
G01X18908202Y-15909275D01*
G01X18887345Y-15907024D01*
G01X18866413Y-15908427D01*
G01X18846043Y-15913441D01*
G01X18344773Y-15412171D01*
G01X18344773Y-13537017D01*
G01X18363127Y-13526464D01*
G01X18379444Y-13512973D01*
G01X18393260Y-13496930D01*
G01X18404180Y-13478792D01*
G01X18411893Y-13459075D01*
G01X18416180Y-13438342D01*
G01X18416918Y-13417183D01*
G01X18414086Y-13396201D01*
G01X18407766Y-13375995D01*
G01X18398136Y-13357140D01*
G01X18385472Y-13340173D01*
G01X18383615Y-13338406D01*
G01X18420245Y-13338406D01*
G01X18420245Y-13508406D01*
G01X18422223Y-13520894D01*
G01X18427963Y-13532161D01*
G01X18436904Y-13541101D01*
G01X18448170Y-13546842D01*
G01X18460659Y-13548820D01*
G01X18492545Y-13548820D01*
G01X18492545Y-15434172D01*
G01X18494355Y-15447918D01*
G01X18499661Y-15460729D01*
G01X18508102Y-15471729D01*
G01X18770928Y-15734555D01*
G01X18770928Y-15734555D01*
G01X18765831Y-15755467D01*
G01X18764538Y-15776951D01*
G01X18767091Y-15798323D01*
G01X18773408Y-15818898D01*
G01X18783287Y-15838021D01*
G01X18796412Y-15855079D01*
G01X18812365Y-15869528D01*
G01X18830635Y-15880906D01*
G01X18850639Y-15888850D01*
G01X18871738Y-15893105D01*
G01X18893257Y-15893536D01*
G01X18914509Y-15890129D01*
G01X18934815Y-15882993D01*
G01X18953527Y-15872356D01*
G01X18970045Y-15858558D01*
G01X18983844Y-15842039D01*
G01X18994481Y-15823328D01*
G01X19001617Y-15803022D01*
G01X19005023Y-15781770D01*
G01X19004592Y-15760251D01*
G01X19000337Y-15739152D01*
G01X18992393Y-15719148D01*
G01X18981015Y-15700878D01*
G01X18966566Y-15684925D01*
G01X18949508Y-15671799D01*
G01X18930386Y-15661920D01*
G01X18909810Y-15655604D01*
G01X18888438Y-15653051D01*
G01X18866954Y-15654344D01*
G01X18846043Y-15659441D01*
G01X18706014Y-15519413D01*
G01X18764486Y-15519413D01*
G01X18766316Y-15540322D01*
G01X18771748Y-15560597D01*
G01X18780619Y-15579620D01*
G01X18792658Y-15596813D01*
G01X18807500Y-15611655D01*
G01X18824693Y-15623694D01*
G01X18843716Y-15632565D01*
G01X18863990Y-15637997D01*
G01X18884900Y-15639826D01*
G01X18905810Y-15637997D01*
G01X18926084Y-15632565D01*
G01X18945107Y-15623694D01*
G01X18962300Y-15611655D01*
G01X18977142Y-15596813D01*
G01X18989181Y-15579620D01*
G01X18998052Y-15560597D01*
G01X19003484Y-15540322D01*
G01X19005314Y-15519413D01*
G01X19003484Y-15498503D01*
G01X18998052Y-15478229D01*
G01X18989181Y-15459206D01*
G01X18977142Y-15442012D01*
G01X18962300Y-15427170D01*
G01X18945107Y-15415131D01*
G01X18926084Y-15406261D01*
G01X18905810Y-15400828D01*
G01X18884900Y-15398999D01*
G01X18884900Y-15398999D01*
G01X18863990Y-15400828D01*
G01X18843716Y-15406261D01*
G01X18824693Y-15415131D01*
G01X18807500Y-15427170D01*
G01X18792658Y-15442012D01*
G01X18780619Y-15459206D01*
G01X18771748Y-15478229D01*
G01X18766316Y-15498503D01*
G01X18764486Y-15519413D01*
G01X18706014Y-15519413D01*
G01X18598773Y-15412171D01*
G01X18598773Y-15345387D01*
G01X18764486Y-15345387D01*
G01X18766464Y-15357876D01*
G01X18772205Y-15369142D01*
G01X18781145Y-15378083D01*
G01X18792412Y-15383823D01*
G01X18804900Y-15385801D01*
G01X18964900Y-15385801D01*
G01X18977388Y-15383823D01*
G01X18988655Y-15378083D01*
G01X18997595Y-15369142D01*
G01X19003336Y-15357876D01*
G01X19005314Y-15345387D01*
G01X19005314Y-15185387D01*
G01X19003336Y-15172899D01*
G01X18997595Y-15161633D01*
G01X18988655Y-15152692D01*
G01X18977388Y-15146952D01*
G01X18964900Y-15144974D01*
G01X18804900Y-15144974D01*
G01X18792412Y-15146952D01*
G01X18781145Y-15152692D01*
G01X18772205Y-15161633D01*
G01X18766464Y-15172899D01*
G01X18764486Y-15185387D01*
G01X18764486Y-15345387D01*
G01X18764486Y-15345387D01*
G01X18598773Y-15345387D01*
G01X18598773Y-13548820D01*
G01X18630659Y-13548820D01*
G01X18643147Y-13546842D01*
G01X18654413Y-13541101D01*
G01X18663354Y-13532161D01*
G01X18669095Y-13520894D01*
G01X18671073Y-13508406D01*
G01X18671073Y-13338406D01*
G01X18669095Y-13325918D01*
G01X18663354Y-13314651D01*
G01X18654413Y-13305711D01*
G01X18643147Y-13299970D01*
G01X18630659Y-13297992D01*
G01X18460659Y-13297992D01*
G01X18448170Y-13299970D01*
G01X18436904Y-13305711D01*
G01X18427963Y-13314651D01*
G01X18422223Y-13325918D01*
G01X18420245Y-13338406D01*
G01X18383615Y-13338406D01*
G01X18370134Y-13325578D01*
G01X18352560Y-13313772D01*
G01X18333250Y-13305090D01*
G01X18312755Y-13299779D01*
G01X18291659Y-13297992D01*
G01X18270563Y-13299779D01*
G01X18250067Y-13305090D01*
G01X18230758Y-13313772D01*
G01X18213184Y-13325578D01*
G01X18197846Y-13340173D01*
G01X18185182Y-13357140D01*
G01X18175552Y-13375995D01*
G01X18169231Y-13396201D01*
G01X18166400Y-13417183D01*
G01X18167138Y-13438342D01*
G01X18171424Y-13459075D01*
G01X18179138Y-13478792D01*
G01X18190058Y-13496930D01*
G01X18203873Y-13512973D01*
G01X18220191Y-13526464D01*
G01X18238545Y-13537017D01*
G01X18238545Y-15434172D01*
G01X18240355Y-15447918D01*
G01X18245661Y-15460729D01*
G01X18254102Y-15471729D01*
G01X18770928Y-15988555D01*
G01X18765950Y-16008696D01*
G01X18764502Y-16029391D01*
G01X18766629Y-16050029D01*
G01X18772267Y-16069994D01*
G01X18781248Y-16088696D01*
G01X18793305Y-16105579D01*
G01X18741801Y-16105579D01*
G01X16059628Y-13423406D01*
G01X17658245Y-13423406D01*
G01X17660150Y-13445184D01*
G01X17665808Y-13466300D01*
G01X17675047Y-13486113D01*
G01X17687586Y-13504020D01*
G01X17703044Y-13519478D01*
G01X17720952Y-13532017D01*
G01X17740765Y-13541256D01*
G01X17761881Y-13546914D01*
G01X17783659Y-13548820D01*
G01X17805437Y-13546914D01*
G01X17826553Y-13541256D01*
G01X17846366Y-13532017D01*
G01X17864273Y-13519478D01*
G01X17879731Y-13504020D01*
G01X17892270Y-13486113D01*
G01X17901509Y-13466300D01*
G01X17907167Y-13445184D01*
G01X17909073Y-13423406D01*
G01X17909073Y-13423406D01*
G01X17912245Y-13423406D01*
G01X17914150Y-13445184D01*
G01X17919808Y-13466300D01*
G01X17929047Y-13486113D01*
G01X17941586Y-13504020D01*
G01X17957044Y-13519478D01*
G01X17974952Y-13532017D01*
G01X17994765Y-13541256D01*
G01X18015881Y-13546914D01*
G01X18037659Y-13548820D01*
G01X18059437Y-13546914D01*
G01X18080553Y-13541256D01*
G01X18100366Y-13532017D01*
G01X18118273Y-13519478D01*
G01X18133731Y-13504020D01*
G01X18146270Y-13486113D01*
G01X18155509Y-13466300D01*
G01X18161167Y-13445184D01*
G01X18163073Y-13423406D01*
G01X18163073Y-13423406D01*
G01X18161167Y-13401628D01*
G01X18155509Y-13380512D01*
G01X18146270Y-13360699D01*
G01X18133731Y-13342792D01*
G01X18118273Y-13327333D01*
G01X18100366Y-13314794D01*
G01X18080553Y-13305556D01*
G01X18059437Y-13299898D01*
G01X18037659Y-13297992D01*
G01X18015881Y-13299898D01*
G01X17994765Y-13305556D01*
G01X17974952Y-13314794D01*
G01X17957044Y-13327333D01*
G01X17941586Y-13342792D01*
G01X17929047Y-13360699D01*
G01X17919808Y-13380512D01*
G01X17914150Y-13401628D01*
G01X17912245Y-13423406D01*
G01X17909073Y-13423406D01*
G01X17907167Y-13401628D01*
G01X17901509Y-13380512D01*
G01X17892270Y-13360699D01*
G01X17879731Y-13342792D01*
G01X17864273Y-13327333D01*
G01X17846366Y-13314794D01*
G01X17826553Y-13305556D01*
G01X17805437Y-13299898D01*
G01X17783659Y-13297992D01*
G01X17761881Y-13299898D01*
G01X17740765Y-13305556D01*
G01X17720952Y-13314794D01*
G01X17703044Y-13327333D01*
G01X17687586Y-13342792D01*
G01X17675047Y-13360699D01*
G01X17665808Y-13380512D01*
G01X17660150Y-13401628D01*
G01X17658245Y-13423406D01*
G01X16059628Y-13423406D01*
G01X15396805Y-12760583D01*
G01X15396805Y-12760583D01*
G01X15400668Y-12740658D01*
G01X15400819Y-12720362D01*
G01X15397252Y-12700381D01*
G01X15390088Y-12681391D01*
G01X15379570Y-12664033D01*
G01X15366051Y-12648894D01*
G01X15349990Y-12636485D01*
G01X15331929Y-12627225D01*
G01X15312478Y-12621428D01*
G01X15292295Y-12619289D01*
G01X15272061Y-12620881D01*
G01X15252460Y-12626149D01*
G01X15234155Y-12634916D01*
G01X15217764Y-12646886D01*
G01X14022955Y-12646886D01*
G01X14011581Y-12630985D01*
G01X13997467Y-12617459D01*
G01X13981097Y-12606771D01*
G01X13963036Y-12599289D01*
G01X13943903Y-12595272D01*
G01X13924358Y-12594856D01*
G01X13905072Y-12598057D01*
G01X13840451Y-12533436D01*
G01X13829450Y-12524995D01*
G01X13816640Y-12519689D01*
G01X13802893Y-12517879D01*
G01X13261016Y-12517879D01*
G01X13249977Y-12500345D01*
G01X13236010Y-12485041D01*
G01X13219554Y-12472450D01*
G01X13201130Y-12462970D01*
G01X13181319Y-12456901D01*
G01X13160747Y-12454433D01*
G01X13140063Y-12455646D01*
G01X13119919Y-12460499D01*
G01X13100953Y-12468841D01*
G01X13083762Y-12480408D01*
G01X13068890Y-12494835D01*
G01X13056806Y-12511665D01*
G01X13047891Y-12530369D01*
G01X13042427Y-12550356D01*
G01X13040586Y-12570993D01*
G01X11084560Y-12570993D01*
G01X11084560Y-12397207D01*
G01X13040586Y-12397207D01*
G01X13042564Y-12409695D01*
G01X13048304Y-12420961D01*
G01X13057245Y-12429902D01*
G01X13068511Y-12435643D01*
G01X13081000Y-12437621D01*
G01X13233400Y-12437621D01*
G01X13245889Y-12435643D01*
G01X13257155Y-12429902D01*
G01X13266096Y-12420961D01*
G01X13271836Y-12409695D01*
G01X13273814Y-12397207D01*
G01X13273814Y-12357100D01*
G01X21166046Y-12357100D01*
G01X21167856Y-12377791D01*
G01X21173232Y-12397853D01*
G01X21182010Y-12416677D01*
G01X21193923Y-12433691D01*
G01X21208609Y-12448377D01*
G01X21225623Y-12460290D01*
G01X21244447Y-12469068D01*
G01X21264509Y-12474444D01*
G01X21285200Y-12476254D01*
G01X21305891Y-12474444D01*
G01X21325953Y-12469068D01*
G01X21344777Y-12460290D01*
G01X21361791Y-12448377D01*
G01X21376477Y-12433691D01*
G01X21388390Y-12416677D01*
G01X21397168Y-12397853D01*
G01X21402544Y-12377791D01*
G01X21404354Y-12357100D01*
G01X21404354Y-12357100D01*
G01X21402544Y-12336409D01*
G01X21397168Y-12316347D01*
G01X21388390Y-12297523D01*
G01X21376477Y-12280509D01*
G01X21361791Y-12265823D01*
G01X21344777Y-12253910D01*
G01X21325953Y-12245132D01*
G01X21305891Y-12239756D01*
G01X21285200Y-12237946D01*
G01X21264509Y-12239756D01*
G01X21244447Y-12245132D01*
G01X21225623Y-12253910D01*
G01X21208609Y-12265823D01*
G01X21193923Y-12280509D01*
G01X21182010Y-12297523D01*
G01X21173232Y-12316347D01*
G01X21167856Y-12336409D01*
G01X21166046Y-12357100D01*
G01X13273814Y-12357100D01*
G01X13273814Y-12244807D01*
G01X13271836Y-12232318D01*
G01X13266096Y-12221052D01*
G01X13257155Y-12212111D01*
G01X13245889Y-12206371D01*
G01X13233400Y-12204393D01*
G01X13081000Y-12204393D01*
G01X13068511Y-12206371D01*
G01X13057245Y-12212111D01*
G01X13048304Y-12221052D01*
G01X13042564Y-12232318D01*
G01X13040586Y-12244807D01*
G01X13040586Y-12397207D01*
G01X13040586Y-12397207D01*
G01X11084560Y-12397207D01*
G01X11084560Y-12192000D01*
G01X13826486Y-12192000D01*
G01X13828512Y-12212565D01*
G01X13834510Y-12232340D01*
G01X13844252Y-12250565D01*
G01X13857361Y-12266539D01*
G01X13873335Y-12279648D01*
G01X13891560Y-12289390D01*
G01X13911335Y-12295388D01*
G01X13931900Y-12297414D01*
G01X13952465Y-12295388D01*
G01X13972240Y-12289390D01*
G01X13990465Y-12279648D01*
G01X14006439Y-12266539D01*
G01X14019548Y-12250565D01*
G01X14029290Y-12232340D01*
G01X14035288Y-12212565D01*
G01X14037314Y-12192000D01*
G01X14035288Y-12171435D01*
G01X14029969Y-12153900D01*
G01X26996282Y-12153900D01*
G01X26998129Y-12176188D01*
G01X27003619Y-12197869D01*
G01X27012603Y-12218350D01*
G01X27024835Y-12237073D01*
G01X27039983Y-12253527D01*
G01X27057631Y-12267264D01*
G01X27077301Y-12277908D01*
G01X27098454Y-12285170D01*
G01X27120513Y-12288851D01*
G01X27142878Y-12288851D01*
G01X27164938Y-12285170D01*
G01X27186091Y-12277908D01*
G01X27205760Y-12267264D01*
G01X27223409Y-12253527D01*
G01X27238556Y-12237073D01*
G01X27250789Y-12218350D01*
G01X27259772Y-12197869D01*
G01X27265263Y-12176188D01*
G01X27267110Y-12153900D01*
G01X27267110Y-12153900D01*
G01X27265263Y-12131612D01*
G01X27259772Y-12109931D01*
G01X27250789Y-12089450D01*
G01X27238556Y-12070727D01*
G01X27223409Y-12054273D01*
G01X27205760Y-12040536D01*
G01X27186091Y-12029892D01*
G01X27164938Y-12022630D01*
G01X27142878Y-12018949D01*
G01X27120513Y-12018949D01*
G01X27098454Y-12022630D01*
G01X27077301Y-12029892D01*
G01X27057631Y-12040536D01*
G01X27039983Y-12054273D01*
G01X27024835Y-12070727D01*
G01X27012603Y-12089450D01*
G01X27003619Y-12109931D01*
G01X26998129Y-12131612D01*
G01X26996282Y-12153900D01*
G01X14029969Y-12153900D01*
G01X14029290Y-12151660D01*
G01X14019548Y-12133435D01*
G01X14006439Y-12117461D01*
G01X13990465Y-12104352D01*
G01X13972240Y-12094610D01*
G01X13952465Y-12088612D01*
G01X13931900Y-12086586D01*
G01X13931900Y-12086586D01*
G01X13911335Y-12088612D01*
G01X13891560Y-12094610D01*
G01X13873335Y-12104352D01*
G01X13857361Y-12117461D01*
G01X13844252Y-12133435D01*
G01X13834510Y-12151660D01*
G01X13828512Y-12171435D01*
G01X13826486Y-12192000D01*
G01X11084560Y-12192000D01*
G01X11084560Y-11669520D01*
G01X15180857Y-11669520D01*
G01X15180857Y-11689895D01*
G01X15184601Y-11709924D01*
G01X15191962Y-11728923D01*
G01X15202688Y-11746247D01*
G01X15216415Y-11761304D01*
G01X15232675Y-11773583D01*
G01X15250914Y-11782665D01*
G01X15270512Y-11788241D01*
G01X15290800Y-11790121D01*
G01X15290800Y-11790121D01*
G01X15311088Y-11788241D01*
G01X15330686Y-11782665D01*
G01X15348925Y-11773583D01*
G01X15365185Y-11761304D01*
G01X15378912Y-11746247D01*
G01X15389638Y-11728923D01*
G01X15396999Y-11709924D01*
G01X15400743Y-11689895D01*
G01X15400743Y-11669520D01*
G01X15396999Y-11649491D01*
G01X15389638Y-11630492D01*
G01X15378912Y-11613168D01*
G01X15365185Y-11598111D01*
G01X15348925Y-11585832D01*
G01X15330686Y-11576750D01*
G01X15311088Y-11571174D01*
G01X15290800Y-11569294D01*
G01X15270512Y-11571174D01*
G01X15250914Y-11576750D01*
G01X15232675Y-11585832D01*
G01X15216415Y-11598111D01*
G01X15202688Y-11613168D01*
G01X15191962Y-11630492D01*
G01X15184601Y-11649491D01*
G01X15180857Y-11669520D01*
G01X11084560Y-11669520D01*
G01X11084560Y-10322560D01*
G01X32666940Y-10322560D01*
G01X32666940Y-24488140D01*
G01X11084560Y-24488140D01*
G37*
G54D10*
G01X14029292Y-23700740D02*
G01X13583819Y-23700740D01*
G03X13556122Y-23494597I-100420J91440D01*
G03X13357860Y-23557481I-72722J-114703D01*
G01X13357860Y-23118208D01*
G01X13923408Y-22552660D01*
G01X14820856Y-22552660D01*
G01X14848840Y-22577270D01*
G01X14848840Y-22881192D01*
G01X14029292Y-23700740D01*
G01X14295298Y-22590585D02*
G03X14295298Y-22902212I0J-155814D01*
G03X14295298Y-22590585I0J155814D01*
G01X14635302Y-22590585D02*
G03X14635302Y-22902212I0J-155814D01*
G03X14635302Y-22590585I0J155814D01*
G01X27591584Y-18318916D02*
G03X27584400Y-18315940I-7184J-7184D01*
G01X27372708Y-18315940D01*
G01X27261384Y-18204616D01*
G03X27254200Y-18201640I-7184J-7184D01*
G01X27080608Y-18201640D01*
G01X26968450Y-18089482D01*
G01X26968450Y-18029318D01*
G01X27093308Y-17904460D01*
G01X27415092Y-17904460D01*
G01X27450216Y-17939584D01*
G03X27457400Y-17942560I7184J7184D01*
G01X28044140Y-17942560D01*
G01X28044140Y-18059400D01*
G03X28054300Y-18069560I10160J0D01*
G01X28418392Y-18069560D01*
G01X28504316Y-18155484D01*
G03X28511500Y-18158460I7184J7184D01*
G01X28951792Y-18158460D01*
G01X29301440Y-18508108D01*
G01X29301440Y-19223592D01*
G01X29075816Y-19449216D01*
G01X29075816Y-19449216D01*
G03X29072840Y-19456400I7184J-7184D01*
G01X29072840Y-20137992D01*
G01X28799392Y-20411440D01*
G01X27863800Y-20411440D01*
G03X27853640Y-20421600I0J-10160D01*
G01X27853640Y-20878800D01*
G03X27856616Y-20885984I10160J0D01*
G01X27856616Y-20885984D01*
G01X28602940Y-21632308D01*
G01X28602940Y-21839792D01*
G01X28519992Y-21922740D01*
G01X27893408Y-21922740D01*
G01X27870984Y-21900316D01*
G03X27863800Y-21897340I-7184J-7184D01*
G01X27350509Y-21897340D01*
G01X27023285Y-21570116D01*
G03X27016100Y-21567140I-7184J-7184D01*
G01X26204308Y-21567140D01*
G01X25902484Y-21265316D01*
G03X25895300Y-21262340I-7184J-7184D01*
G01X25234900Y-21262340D01*
G03X25227716Y-21265316I0J-10160D01*
G01X25065592Y-21427440D01*
G01X24434800Y-21427440D01*
G03X24427616Y-21430416I0J-10160D01*
G01X24328992Y-21529040D01*
G01X23660100Y-21529040D01*
G03X23652916Y-21532016I0J-10160D01*
G01X23503492Y-21681440D01*
G01X19689208Y-21681440D01*
G01X19412784Y-21405016D01*
G03X19405600Y-21402040I-7184J-7184D01*
G01X18762108Y-21402040D01*
G01X18739684Y-21379616D01*
G03X18732500Y-21376640I-7184J-7184D01*
G01X17682608Y-21376640D01*
G01X17469684Y-21163716D01*
G03X17462500Y-21160740I-7184J-7184D01*
G01X16526908Y-21160740D01*
G01X16313984Y-20947816D01*
G03X16306800Y-20944840I-7184J-7184D01*
G01X14871700Y-20944840D01*
G03X14861540Y-20955000I0J-10160D01*
G01X14861540Y-21763592D01*
G01X14702392Y-21922740D01*
G01X14190108Y-21922740D01*
G01X14069060Y-21801692D01*
G01X14069060Y-20379593D01*
G01X15684536Y-20368260D01*
G01X16327992Y-20368260D01*
G01X16464716Y-20504984D01*
G03X16471900Y-20507960I7184J7184D01*
G01X17623392Y-20507960D01*
G01X17798216Y-20682784D01*
G03X17805400Y-20685760I7184J7184D01*
G01X18652092Y-20685760D01*
G01X18826916Y-20860584D01*
G03X18834100Y-20863560I7184J7184D01*
G01X19337892Y-20863560D01*
G01X19639716Y-21165384D01*
G03X19646900Y-21168360I7184J7184D01*
G01X23660100Y-21168360D01*
G03X23667284Y-21165384I0J10160D01*
G01X23931008Y-20901660D01*
G01X25184100Y-20901660D01*
G03X25191284Y-20898684I0J10160D01*
G01X25404208Y-20685760D01*
G01X26475292Y-20685760D01*
G01X26866016Y-21076484D01*
G03X26873200Y-21079460I7184J7184D01*
G01X27084892Y-21079460D01*
G01X27310516Y-21305084D01*
G03X27317700Y-21308060I7184J7184D01*
G01X27436404Y-21308060D01*
G03X27446551Y-21297372I0J10160D01*
G01X27442160Y-21213028D01*
G01X27442160Y-20209908D01*
G01X27588608Y-20063460D01*
G01X28371800Y-20063460D01*
G03X28381960Y-20053300I0J10160D01*
G01X28381960Y-19498708D01*
G01X28683784Y-19196884D01*
G01X28683784Y-19196884D01*
G03X28686760Y-19189700I-7184J7184D01*
G01X28686760Y-18796000D01*
G03X28683784Y-18788816I-10160J0D01*
G01X28683784Y-18788816D01*
G01X28442484Y-18547516D01*
G03X28435300Y-18544540I-7184J-7184D01*
G01X27817208Y-18544540D01*
G01X27591584Y-18318916D01*
G01X28172808Y-21046440D02*
G01X28003116Y-20876748D01*
G03X28230604Y-20739984I71682J138346D01*
G03X28005940Y-20598628I-155806J1582D01*
G01X28083908Y-20520660D01*
G01X28809823Y-20520660D01*
G01X30260164Y-21279042D01*
G03X30334102Y-21367691I143636J44642D01*
G03X30449092Y-21377833I69698J133291D01*
G01X30546040Y-21428527D01*
G01X30546040Y-21702314D01*
G03X30257986Y-21734399I-142240J-32085D01*
G03X30546040Y-21766484I145814J0D01*
G01X30546040Y-21915992D01*
G01X30416500Y-22045532D01*
G01X30135213Y-21764244D01*
G03X30124255Y-21761995I-7184J-7184D01*
G01X29987527Y-21816687D01*
G01X29262791Y-21390287D01*
G03X29257639Y-21388883I-5152J-8757D01*
G01X29077958Y-21388883D01*
G01X28585749Y-21048246D01*
G01X28585749Y-21048246D01*
G03X28579967Y-21046440I-5782J-8354D01*
G01X28172808Y-21046440D01*
G01X28414802Y-20894215D02*
G03X28414802Y-20582588I0J155814D01*
G03X28414802Y-20894215I0J-155814D01*
G01X22321484Y-23012058D02*
G03X22299463Y-23256240I47216J-127342D01*
G01X21124308Y-23256240D01*
G01X21054060Y-23185992D01*
G01X21054060Y-23054708D01*
G01X21111608Y-22997160D01*
G01X22037349Y-22997160D01*
G03X22045561Y-22992982I0J10160D01*
G01X22157012Y-22839987D01*
G03X22158960Y-22834005I-8212J5982D01*
G01X22158960Y-22235897D01*
G03X22164901Y-22214804I-34473J21093D01*
G01X22164901Y-22148375D01*
G03X22413115Y-22142041I123586J23570D01*
G03X22418040Y-22164709I129398J16246D01*
G01X22418040Y-22898100D01*
G03X22421016Y-22905284I10160J0D01*
G01X22519640Y-23003908D01*
G01X22519640Y-23160592D01*
G01X22497374Y-23182858D01*
G03X22321484Y-23012058I-128673J43458D01*
G01X21244179Y-23223093D02*
G03X21279993Y-23187279I0J35814D01*
G01X21279993Y-23066121D01*
G03X21244179Y-23030307I-35814J0D01*
G01X21123021Y-23030307D01*
G03X21087207Y-23066121I0J-35814D01*
G01X21087207Y-23187279D01*
G03X21123021Y-23223093I35814J0D01*
G01X21244179Y-23223093D01*
G01X12575385Y-22053959D02*
G03X12570460Y-22031291I-129398J-16246D01*
G01X12570460Y-21996400D01*
G03X12567484Y-21989216I-10160J0D01*
G01X12494260Y-21915992D01*
G01X12494260Y-20603608D01*
G01X12551808Y-20546060D01*
G01X12668326Y-20546060D01*
G01X12698693Y-20569492D01*
G03X12684379Y-20566507I-14314J-32829D01*
G01X12563221Y-20566507D01*
G03X12527407Y-20602321I0J-35814D01*
G01X12527407Y-20723479D01*
G03X12563221Y-20759293I35814J0D01*
G01X12684379Y-20759293D01*
G03X12720193Y-20723479I0J35814D01*
G01X12720193Y-20602321D01*
G03X12712505Y-20580149I-35814J0D01*
G01X12753340Y-20611659D01*
G01X12753340Y-21848692D01*
G03X12755092Y-21854396I10160J0D01*
G01X12828291Y-21962294D01*
G03X12823599Y-21981196I35721J-18901D01*
G01X12823599Y-22047625D01*
G03X12575385Y-22053959I-123586J-23570D01*
G01X12570460Y-23351092D02*
G01X12570460Y-22189119D01*
G03X12575255Y-22167459I-124473J38914D01*
G03X12823599Y-22174766I124758J16264D01*
G01X12823599Y-22241195D01*
G03X12829540Y-22262288I40414J0D01*
G01X12829540Y-23202900D01*
G03X12832516Y-23210084I10160J0D01*
G01X13096240Y-23473808D01*
G01X13096240Y-23533718D01*
G03X12934195Y-23482713I-112839J-75582D01*
G03X12849138Y-23629770I49206J-126587D01*
G01X12570460Y-23351092D01*
G01X11084560Y-24488140D02*
G01X11084560Y-10322560D01*
G01X32666940Y-10322560D01*
G01X32666940Y-24488140D01*
G01X11084560Y-24488140D01*
G01X12519023Y-20507323D02*
G01X12455523Y-20570823D01*
G03X12443686Y-20599400I28577J-28577D01*
G01X12443686Y-21920200D01*
G03X12448768Y-21939821I40414J0D01*
G03X12315574Y-22070205I-2781J-130384D01*
G01X12315574Y-22150205D01*
G03X12519886Y-22257660I130414J0D01*
G01X12519886Y-23355300D01*
G03X12531723Y-23383877I40414J0D01*
G01X12912723Y-23764877D01*
G03X12941300Y-23776714I28577J28577D01*
G01X13030200Y-23776714D01*
G03X13058777Y-23764877I0J40414D01*
G01X13134977Y-23688677D01*
G03X13146814Y-23660100I-28577J28577D01*
G01X13146814Y-23469600D01*
G03X13134977Y-23441023I-40414J0D01*
G01X12880114Y-23186160D01*
G01X12880114Y-22281609D01*
G01X13044013Y-22281609D01*
G03X13084426Y-22241195I0J40414D01*
G01X13084426Y-21981196D01*
G03X13044013Y-21940782I-40414J0D01*
G01X12874685Y-21940782D01*
G03X12873144Y-21938325I-34985J-20232D01*
G01X12803914Y-21836277D01*
G01X12803914Y-20606665D01*
G03X12788189Y-20574669I-40414J0D01*
G01X12700110Y-20506706D01*
G03X12724793Y-20469479I-15731J37227D01*
G01X12724793Y-20348321D01*
G03X12684379Y-20307907I-40414J0D01*
G01X12563221Y-20307907D01*
G03X12522807Y-20348321I0J-40414D01*
G01X12522807Y-20469479D01*
G03X12534321Y-20497730I40414J0D01*
G03X12519023Y-20507323I13279J-38170D01*
G01X12632582Y-18643600D02*
G03X12903410Y-18643600I135414J0D01*
G03X12632582Y-18643600I-135414J0D01*
G01X13040586Y-12397207D02*
G03X13081000Y-12437621I40414J0D01*
G01X13233400Y-12437621D01*
G03X13273814Y-12397207I0J40414D01*
G01X13273814Y-12244807D01*
G03X13233400Y-12204393I-40414J0D01*
G01X13081000Y-12204393D01*
G03X13040586Y-12244807I0J-40414D01*
G01X13040586Y-12397207D01*
G01X15396805Y-12760583D02*
G03X15217764Y-12646886I-106005J30890D01*
G01X14022955Y-12646886D01*
G03X13905072Y-12598057I-91055J-53114D01*
G01X13840451Y-12533436D01*
G03X13802893Y-12517879I-37557J-37557D01*
G01X13261016Y-12517879D01*
G03X13040586Y-12570993I-103816J-53114D01*
G03X13261016Y-12624107I116614J0D01*
G01X13780893Y-12624107D01*
G01X13829957Y-12673172D01*
G03X13891560Y-12797390I101943J-26828D01*
G03X14022955Y-12753114I40340J97390D01*
G01X15182899Y-12753114D01*
G03X15321690Y-12835697I107901J23421D01*
G01X18682243Y-16196250D01*
G03X18719800Y-16211807I37557J37557D01*
G01X18786643Y-16211807D01*
G03X18776833Y-16228299I98257J-69606D01*
G01X13725313Y-16228299D01*
G01X13304379Y-15807365D01*
G03X13212244Y-15633700I-121779J46665D01*
G03X13224244Y-15383114I-29644J127000D01*
G01X13272600Y-15383114D01*
G03X13313014Y-15342700I0J40414D01*
G01X13313014Y-15162700D01*
G03X13272600Y-15122286I-40414J0D01*
G01X13092600Y-15122286D01*
G03X13052186Y-15162700I0J-40414D01*
G01X13052186Y-15342700D01*
G03X13092600Y-15383114I40414J0D01*
G01X13140956Y-15383114D01*
G03X13152956Y-15633700I41644J-123586D01*
G03X13152956Y-15887700I29644J-127000D01*
G03X13057920Y-16052943I29644J-127000D01*
G03X13229265Y-16136479I124680J38243D01*
G01X13665755Y-16572970D01*
G03X13703313Y-16588527I37557J37557D01*
G01X18776833Y-16588527D01*
G03X18946086Y-16639123I108067J53114D01*
G01X18946086Y-16653112D01*
G01X18923757Y-16675441D01*
G03X18799755Y-16874558I-38857J-113972D01*
G03X18998872Y-16750555I85145J85145D01*
G01X19036757Y-16712670D01*
G03X19052314Y-16675113I-37557J37557D01*
G01X19052314Y-16234893D01*
G03X19036757Y-16197335I-53114J0D01*
G01X18960557Y-16121135D01*
G01X18960378Y-16120956D01*
G03X18990350Y-15969277I-75463J93713D01*
G03X18846043Y-15913441I-105450J-58135D01*
G01X18344773Y-15412171D01*
G01X18344773Y-13537017D01*
G03X18291659Y-13297992I-53114J113611D01*
G03X18238545Y-13537017I0J-125414D01*
G01X18238545Y-15434172D01*
G03X18254102Y-15471729I53114J0D01*
G01X18770928Y-15988555D01*
G03X18793305Y-16105579I113972J-38857D01*
G01X18741801Y-16105579D01*
G01X15396805Y-12760583D01*
G01X14899414Y-22572675D02*
G03X14885689Y-22542327I-40414J0D01*
G01X14851377Y-22512152D01*
G03X14824688Y-22502086I-26689J-30348D01*
G01X13919200Y-22502086D01*
G03X13890623Y-22513923I0J-40414D01*
G01X13319123Y-23085423D01*
G03X13307286Y-23114000I28577J-28577D01*
G01X13307286Y-23710900D01*
G03X13347700Y-23751314I40414J0D01*
G01X14033500Y-23751314D01*
G03X14062077Y-23739477I0J40414D01*
G01X14887577Y-22913977D01*
G03X14899414Y-22885400I-28577J28577D01*
G01X14899414Y-22572675D01*
G01X13677915Y-20523200D02*
G03X13444687Y-20523200I-116614J0D01*
G03X13677915Y-20523200I116614J0D01*
G01X13633353Y-19563221D02*
G03X13494472Y-19777216I-46665J-121779D01*
G03X13708468Y-19638335I92216J92216D01*
G01X15742276Y-17604527D01*
G01X18776833Y-17604527D01*
G03X19005314Y-17551413I108067J53114D01*
G03X18776833Y-17498299I-120414J0D01*
G01X15720276Y-17498299D01*
G03X15682719Y-17513855I0J-53114D01*
G01X13633353Y-19563221D01*
G01X13931900Y-12086586D02*
G03X13931900Y-12297414I0J-105414D01*
G03X13931900Y-12086586I0J105414D01*
G01X19304531Y-21657225D02*
G03X19484700Y-21548454I50269J120336D01*
G01X19656423Y-21720177D01*
G03X19685000Y-21732014I28577J28577D01*
G01X23507700Y-21732014D01*
G03X23536277Y-21720177I0J40414D01*
G01X23676840Y-21579614D01*
G01X24333200Y-21579614D01*
G03X24361777Y-21567777I0J40414D01*
G01X24451540Y-21478014D01*
G01X25069800Y-21478014D01*
G03X25098377Y-21466177I0J40414D01*
G01X25251640Y-21312914D01*
G01X25878560Y-21312914D01*
G01X26171523Y-21605877D01*
G03X26200100Y-21617714I28577J28577D01*
G01X26999360Y-21617714D01*
G01X27317723Y-21936077D01*
G03X27346300Y-21947914I28577J28577D01*
G01X27847060Y-21947914D01*
G01X27860623Y-21961477D01*
G03X27889200Y-21973314I28577J28577D01*
G01X28524200Y-21973314D01*
G03X28552777Y-21961477I0J40414D01*
G01X28641677Y-21872577D01*
G01X28641677Y-21872577D01*
G03X28653514Y-21844000I-28577J28577D01*
G01X28653514Y-21628100D01*
G03X28641677Y-21599523I-40414J0D01*
G01X28641677Y-21599523D01*
G01X27904214Y-20862060D01*
G01X27904214Y-20849368D01*
G01X28140023Y-21085177D01*
G03X28168600Y-21097014I28577J28577D01*
G01X28567346Y-21097014D01*
G01X29051787Y-21432275D01*
G03X29074785Y-21439457I22998J33232D01*
G01X29246632Y-21439457D01*
G01X29966178Y-21862804D01*
G03X30001681Y-21865495I20494J34832D01*
G01X30118295Y-21818849D01*
G01X30387923Y-22088477D01*
G03X30445077Y-22088477I28577J28577D01*
G01X30584777Y-21948777D01*
G01X30584777Y-21948777D01*
G03X30596614Y-21920200I-28577J28577D01*
G01X30596614Y-21422374D01*
G03X30574927Y-21386561I-40414J0D01*
G01X30501933Y-21348392D01*
G03X30473498Y-21101109I-98133J113992D01*
G03X30254192Y-21218849I-69698J-133291D01*
G01X28831046Y-20474687D01*
G03X28812319Y-20470086I-18727J-35813D01*
G01X28079700Y-20470086D01*
G03X28051123Y-20481923I0J-40414D01*
G01X27904214Y-20628832D01*
G01X27904214Y-20462014D01*
G01X28803600Y-20462014D01*
G03X28832177Y-20450177I0J40414D01*
G01X29111577Y-20170777D01*
G01X29111577Y-20170777D01*
G03X29123414Y-20142200I-28577J28577D01*
G01X29123414Y-19473140D01*
G01X29340177Y-19256377D01*
G03X29352014Y-19227800I-28577J28577D01*
G01X29352014Y-18503900D01*
G03X29340177Y-18475323I-40414J0D01*
G01X29340177Y-18475323D01*
G01X28984577Y-18119723D01*
G03X28956000Y-18107886I-28577J-28577D01*
G01X28528240Y-18107886D01*
G01X28451177Y-18030823D01*
G03X28422600Y-18018986I-28577J-28577D01*
G01X28094714Y-18018986D01*
G01X28094714Y-17932400D01*
G03X28054300Y-17891986I-40414J0D01*
G01X27474140Y-17891986D01*
G01X27447877Y-17865723D01*
G03X27419300Y-17853886I-28577J-28577D01*
G01X27089100Y-17853886D01*
G03X27060523Y-17865723I0J-40414D01*
G01X26929713Y-17996533D01*
G01X26929713Y-17996533D01*
G03X26917876Y-18025110I28577J-28577D01*
G01X26917876Y-18093690D01*
G03X26929713Y-18122267I40414J0D01*
G01X26929713Y-18122267D01*
G01X27047823Y-18240377D01*
G03X27076400Y-18252214I28577J28577D01*
G01X27237460Y-18252214D01*
G01X27339923Y-18354677D01*
G03X27368500Y-18366514I28577J28577D01*
G01X27567660Y-18366514D01*
G01X27784423Y-18583277D01*
G03X27813000Y-18595114I28577J28577D01*
G01X28418560Y-18595114D01*
G01X28636186Y-18812740D01*
G01X28636186Y-19172960D01*
G01X28343223Y-19465923D01*
G03X28331386Y-19494500I28577J-28577D01*
G01X28331386Y-20012886D01*
G01X27584400Y-20012886D01*
G03X27555823Y-20024723I0J-40414D01*
G01X27403423Y-20177123D01*
G03X27391586Y-20205700I28577J-28577D01*
G01X27391586Y-21213293D01*
G01X27391641Y-21215394D01*
G01X27393832Y-21257486D01*
G01X27334440Y-21257486D01*
G01X27117677Y-21040723D01*
G03X27089100Y-21028886I-28577J-28577D01*
G01X26889940Y-21028886D01*
G01X26508077Y-20647023D01*
G03X26479500Y-20635186I-28577J-28577D01*
G01X25400000Y-20635186D01*
G03X25371423Y-20647023I0J-40414D01*
G01X25167360Y-20851086D01*
G01X23926800Y-20851086D01*
G03X23898223Y-20862923I0J-40414D01*
G01X23643360Y-21117786D01*
G01X19663640Y-21117786D01*
G01X19370677Y-20824823D01*
G03X19342100Y-20812986I-28577J-28577D01*
G01X18850840Y-20812986D01*
G01X18684877Y-20647023D01*
G03X18656300Y-20635186I-28577J-28577D01*
G01X17822140Y-20635186D01*
G01X17656177Y-20469223D01*
G03X17627600Y-20457386I-28577J-28577D01*
G01X16488640Y-20457386D01*
G01X16360777Y-20329523D01*
G03X16332200Y-20317686I-28577J-28577D01*
G01X15684500Y-20317686D01*
G01X15684216Y-20317687D01*
G01X14058616Y-20329091D01*
G03X14018486Y-20369504I284J-40413D01*
G01X14018486Y-21805900D01*
G03X14030323Y-21834477I40414J0D01*
G01X14157323Y-21961477D01*
G03X14185900Y-21973314I28577J28577D01*
G01X14706600Y-21973314D01*
G03X14735177Y-21961477I0J40414D01*
G01X14900277Y-21796377D01*
G03X14912114Y-21767800I-28577J28577D01*
G01X14912114Y-20995414D01*
G01X16290060Y-20995414D01*
G01X16494123Y-21199477D01*
G03X16522700Y-21211314I28577J28577D01*
G01X17445760Y-21211314D01*
G01X17649823Y-21415377D01*
G03X17678400Y-21427214I28577J28577D01*
G01X18715760Y-21427214D01*
G01X18729323Y-21440777D01*
G03X18757900Y-21452614I28577J28577D01*
G01X19255273Y-21452614D01*
G03X19304531Y-21657225I99527J-84275D01*
G01X14756298Y-19685000D02*
G03X15017125Y-19685000I130414J0D01*
G03X14756298Y-19685000I-130414J0D01*
G01X14782590Y-18643600D02*
G03X15053418Y-18643600I135414J0D01*
G03X14782590Y-18643600I-135414J0D01*
G01X15290800Y-11790121D02*
G03X15290800Y-11569294I0J110414D01*
G03X15290800Y-11790121I0J-110414D01*
G01X17405441Y-18891159D02*
G03X17598866Y-18772848I82459J82459D01*
G01X18513188Y-17858527D01*
G01X18776833Y-17858527D01*
G03X19005314Y-17805413I108067J53114D01*
G03X18776833Y-17752299I-120414J0D01*
G01X18491187Y-17752299D01*
G03X18453630Y-17767855I0J-53114D01*
G01X17523752Y-18697734D01*
G03X17405441Y-18891159I-35852J-110966D01*
G01X17598866Y-22464052D02*
G03X17405441Y-22345741I-110966J35852D01*
G03X17523752Y-22539166I82459J-82459D01*
G01X18301243Y-23316657D01*
G03X18338800Y-23332214I37557J37557D01*
G01X18869984Y-23332214D01*
G03X19090414Y-23279100I103816J53114D01*
G03X18869984Y-23225986I-116614J0D01*
G01X18360801Y-23225986D01*
G01X17598866Y-22464052D01*
G01X17909073Y-13423406D02*
G03X17658245Y-13423406I-125414J0D01*
G03X17909073Y-13423406I125414J0D01*
G01X18163073Y-13423406D02*
G03X17912245Y-13423406I-125414J0D01*
G03X18163073Y-13423406I125414J0D01*
G01X18211800Y-21704510D02*
G03X18211800Y-21433682I0J135414D01*
G03X18211800Y-21704510I0J-135414D01*
G01X18211800Y-23854518D02*
G03X18211800Y-23583690I0J135414D01*
G03X18211800Y-23854518I0J-135414D01*
G01X18770928Y-15734555D02*
G03X18970045Y-15858558I113972J-38857D01*
G03X18846043Y-15659441I-85145J85145D01*
G01X18598773Y-15412171D01*
G01X18598773Y-13548820D01*
G01X18630659Y-13548820D01*
G03X18671073Y-13508406I0J40414D01*
G01X18671073Y-13338406D01*
G03X18630659Y-13297992I-40414J0D01*
G01X18460659Y-13297992D01*
G03X18420245Y-13338406I0J-40414D01*
G01X18420245Y-13508406D01*
G03X18460659Y-13548820I40414J0D01*
G01X18492545Y-13548820D01*
G01X18492545Y-15434172D01*
G03X18508102Y-15471729I53114J0D01*
G01X18770928Y-15734555D01*
G01X18884900Y-18954999D02*
G03X18884900Y-19195826I0J-120414D01*
G03X18884900Y-18954999I0J120414D01*
G01X18884900Y-18192999D02*
G03X18884900Y-18433826I0J-120414D01*
G03X18884900Y-18192999I0J120414D01*
G01X18884900Y-17938999D02*
G03X18884900Y-18179826I0J-120414D01*
G03X18884900Y-17938999I0J120414D01*
G01X18884900Y-18700999D02*
G03X18884900Y-18941826I0J-120414D01*
G03X18884900Y-18700999I0J120414D01*
G01X18884900Y-18446999D02*
G03X18884900Y-18687826I0J-120414D01*
G03X18884900Y-18446999I0J120414D01*
G01X18884900Y-17176999D02*
G03X18884900Y-17417826I0J-120414D01*
G03X18884900Y-17176999I0J120414D01*
G01X18884900Y-16922999D02*
G03X18884900Y-17163826I0J-120414D01*
G03X18884900Y-16922999I0J120414D01*
G01X18884900Y-15398999D02*
G03X18884900Y-15639826I0J-120414D01*
G03X18884900Y-15398999I0J120414D01*
G01X18764486Y-15345387D02*
G03X18804900Y-15385801I40414J0D01*
G01X18964900Y-15385801D01*
G03X19005314Y-15345387I0J40414D01*
G01X19005314Y-15185387D01*
G03X18964900Y-15144974I-40414J0D01*
G01X18804900Y-15144974D01*
G03X18764486Y-15185387I0J-40414D01*
G01X18764486Y-15345387D01*
G01X19354800Y-22967325D02*
G03X19354800Y-22706498I0J130414D01*
G03X19354800Y-22967325I0J-130414D01*
G01X20078700Y-22732985D02*
G03X20078700Y-22966213I0J-116614D01*
G03X20078700Y-22732985I0J116614D01*
G01X21904074Y-22214804D02*
G03X21944487Y-22255218I40414J0D01*
G01X22108386Y-22255218D01*
G01X22108386Y-22820845D01*
G01X22016789Y-22946586D01*
G01X21107400Y-22946586D01*
G03X21078823Y-22958423I0J-40414D01*
G01X21015323Y-23021923D01*
G03X21008895Y-23030302I28577J-28577D01*
G03X20990179Y-23025707I-18716J-35819D01*
G01X20869021Y-23025707D01*
G03X20828607Y-23066121I0J-40414D01*
G01X20828607Y-23187279D01*
G03X20869021Y-23227693I40414J0D01*
G01X20990179Y-23227693D01*
G03X21015402Y-23218856I0J40414D01*
G01X21091523Y-23294977D01*
G03X21120100Y-23306814I28577J28577D01*
G01X22428200Y-23306814D01*
G03X22456777Y-23294977I0J40414D01*
G01X22558377Y-23193377D01*
G03X22570214Y-23164800I-28577J28577D01*
G01X22570214Y-22999700D01*
G03X22558377Y-22971123I-40414J0D01*
G01X22468614Y-22881360D01*
G01X22468614Y-22233251D01*
G03X22672926Y-22125795I73899J107456D01*
G01X22672926Y-22045795D01*
G03X22459155Y-21945500I-130414J0D01*
G03X22456777Y-21942906I-30955J-25983D01*
G01X22400999Y-21887127D01*
G03X22372422Y-21875290I-28577J-28577D01*
G01X22204096Y-21875290D01*
G03X22175519Y-21887127I0J-40414D01*
G01X22143502Y-21919144D01*
G03X22124487Y-21914391I-19015J-35661D01*
G01X21944487Y-21914391D01*
G03X21904074Y-21954805I0J-40414D01*
G01X21904074Y-22031691D01*
G01X20951588Y-22031691D01*
G01X20768537Y-21848640D01*
G03X20631426Y-21786644I-80250J5135D01*
G03X20693423Y-21923754I56861J-56861D01*
G01X20892030Y-22122362D01*
G03X20929587Y-22137919I37557J37557D01*
G01X21904074Y-22137919D01*
G01X21904074Y-22214804D01*
G01X20939986Y-16611613D02*
G03X20955543Y-16649170I53114J0D01*
G01X21056928Y-16750555D01*
G03X21256045Y-16874558I113972J-38857D01*
G03X21132043Y-16675441I-85145J85145D01*
G01X21046214Y-16589612D01*
G01X21046214Y-12925201D01*
G01X21501337Y-12470078D01*
G03X21623455Y-12272845I37863J112978D01*
G03X21426222Y-12394963I-84255J-84255D01*
G01X20955543Y-12865643D01*
G03X20939986Y-12903200I37557J-37557D01*
G01X20939986Y-16611613D01*
G01X21170900Y-18954999D02*
G03X21170900Y-19195826I0J-120414D01*
G03X21170900Y-18954999I0J120414D01*
G01X21170900Y-18192999D02*
G03X21170900Y-18433826I0J-120414D01*
G03X21170900Y-18192999I0J120414D01*
G01X21170900Y-17938999D02*
G03X21170900Y-18179826I0J-120414D01*
G03X21170900Y-17938999I0J120414D01*
G01X21170900Y-17684999D02*
G03X21170900Y-17925826I0J-120414D01*
G03X21170900Y-17684999I0J120414D01*
G01X21170900Y-18446999D02*
G03X21170900Y-18687826I0J-120414D01*
G03X21170900Y-18446999I0J120414D01*
G01X21170900Y-18700999D02*
G03X21170900Y-18941826I0J-120414D01*
G03X21170900Y-18700999I0J120414D01*
G01X22987013Y-15174186D02*
G03X22949455Y-15189743I0J-53114D01*
G01X21209757Y-16929441D01*
G03X21085755Y-17128558I-38857J-113972D01*
G03X21284872Y-17004555I85145J85145D01*
G01X23009013Y-15280414D01*
G01X27750189Y-15280414D01*
G03X27754268Y-15288384I113611J53114D01*
G01X23126814Y-15288384D01*
G03X23089257Y-15303941I0J-53114D01*
G01X21209757Y-17183441D01*
G03X21085755Y-17382558I-38857J-113972D01*
G03X21284872Y-17258555I85145J85145D01*
G01X23148815Y-15394612D01*
G01X23252586Y-15394612D01*
G01X21209757Y-17437441D01*
G03X21085755Y-17636558I-38857J-113972D01*
G03X21284872Y-17512555I85145J85145D01*
G01X23351901Y-15445527D01*
G01X29197300Y-15445527D01*
G03X29234857Y-15429970I0J53114D01*
G01X29270101Y-15394727D01*
G01X29527487Y-15394727D01*
G03X29565045Y-15379170I0J53114D01*
G01X29591501Y-15352714D01*
G01X29720540Y-15352714D01*
G03X29760954Y-15312300I0J40414D01*
G01X29760954Y-15142300D01*
G03X29720540Y-15101886I-40414J0D01*
G01X29563060Y-15101886D01*
G03X29522646Y-15142300I0J-40414D01*
G01X29522646Y-15271339D01*
G01X29505487Y-15288499D01*
G01X29497268Y-15288499D01*
G03X29509809Y-15198276I-109468J61199D01*
G03X29457985Y-15123364I-122009J-29024D01*
G01X29476157Y-15105193D01*
G01X29476157Y-15105193D01*
G03X29491714Y-15067635I-37557J37557D01*
G01X29491714Y-13776113D01*
G01X29552357Y-13715470D01*
G01X29552357Y-13715470D01*
G03X29567914Y-13677913I-37557J37557D01*
G01X29567914Y-12285396D01*
G03X29552357Y-12247839I-53114J0D01*
G01X29420861Y-12116343D01*
G03X29408861Y-12107339I-37557J-37557D01*
G03X29147767Y-12133956I-127157J-46561D01*
G03X29389779Y-12235489I133937J-19944D01*
G01X29461686Y-12307396D01*
G01X29461686Y-13655912D01*
G01X29401043Y-13716555D01*
G01X29401043Y-13716555D01*
G03X29385486Y-13754113I37557J-37557D01*
G01X29385486Y-15045635D01*
G01X29369835Y-15061286D01*
G01X29341035Y-15061286D01*
G03X29303478Y-15076843I0J-53114D01*
G01X29237343Y-15142978D01*
G03X29231973Y-15149257I37557J-37557D01*
G03X29036514Y-15148154I-98173J-78043D01*
G03X29077365Y-15339299I97286J-79146D01*
G01X28936235Y-15339299D01*
G03X28879800Y-15101886I-56435J111999D01*
G03X28823365Y-15339299I0J-125414D01*
G01X28682235Y-15339299D01*
G03X28625800Y-15101886I-56435J111999D01*
G03X28569365Y-15339299I0J-125414D01*
G01X28428235Y-15339299D01*
G03X28371800Y-15101886I-56435J111999D01*
G03X28315365Y-15339299I0J-125414D01*
G01X28174235Y-15339299D01*
G03X28164083Y-15110739I-56435J111999D01*
G03X27999907Y-15270078I-46283J-116561D01*
G01X27981601Y-15288384D01*
G01X27973332Y-15288384D01*
G03X27920936Y-15115657I-109532J61084D01*
G01X27920936Y-15115657D01*
G03X27750189Y-15174186I-57136J-111643D01*
G01X22987013Y-15174186D01*
G01X21170900Y-16414999D02*
G03X21170900Y-16655826I0J-120414D01*
G03X21170900Y-16414999I0J120414D01*
G01X21209757Y-16167441D02*
G03X21085755Y-16366558I-38857J-113972D01*
G03X21284872Y-16242555I85145J85145D01*
G01X21830757Y-15696670D01*
G03X21846314Y-15659113I-37557J37557D01*
G01X21846314Y-12463761D01*
G03X21793200Y-12237946I-53114J106661D01*
G03X21740086Y-12463761I0J-119154D01*
G01X21740086Y-15637112D01*
G01X21209757Y-16167441D01*
G01X21050486Y-15345387D02*
G03X21090900Y-15385801I40414J0D01*
G01X21250900Y-15385801D01*
G03X21291314Y-15345387I0J40414D01*
G01X21291314Y-15185387D01*
G03X21250900Y-15144974I-40414J0D01*
G01X21090900Y-15144974D01*
G03X21050486Y-15185387I0J-40414D01*
G01X21050486Y-15345387D01*
G01X21170900Y-15906999D02*
G03X21170900Y-16147826I0J-120414D01*
G03X21170900Y-15906999I0J120414D01*
G01X21170900Y-15652999D02*
G03X21170900Y-15893826I0J-120414D01*
G03X21170900Y-15652999I0J120414D01*
G01X21170900Y-15398999D02*
G03X21170900Y-15639826I0J-120414D01*
G03X21170900Y-15398999I0J120414D01*
G01X21404354Y-12357100D02*
G03X21166046Y-12357100I-119154J0D01*
G03X21404354Y-12357100I119154J0D01*
G01X22166354Y-12357100D02*
G03X21928046Y-12357100I-119154J0D01*
G03X22166354Y-12357100I119154J0D01*
G01X22222460Y-12237946D02*
G03X22182046Y-12278360I0J-40414D01*
G01X22182046Y-12435840D01*
G03X22222460Y-12476254I40414J0D01*
G01X22379940Y-12476254D01*
G03X22420354Y-12435840I0J40414D01*
G01X22420354Y-12278360D01*
G03X22379940Y-12237946I-40414J0D01*
G01X22222460Y-12237946D01*
G01X23009113Y-23139400D02*
G03X22728286Y-23139400I-140414J0D01*
G03X23009113Y-23139400I140414J0D01*
G01X23020909Y-21940477D02*
G03X23020909Y-22181304I0J-120414D01*
G03X23020909Y-21940477I0J120414D01*
G01X25855619Y-22580590D02*
G03X25604791Y-22580590I-125414J0D01*
G03X25855619Y-22580590I125414J0D01*
G01X25855619Y-23088590D02*
G03X25604791Y-23088590I-125414J0D01*
G03X25855619Y-23088590I125414J0D01*
G01X25768300Y-21494786D02*
G03X25768300Y-21728013I0J-116614D01*
G03X25768300Y-21494786I0J116614D01*
G01X26109619Y-22580590D02*
G03X25858791Y-22580590I-125414J0D01*
G03X26109619Y-22580590I125414J0D01*
G01X26363619Y-22580590D02*
G03X26112791Y-22580590I-125414J0D01*
G03X26363619Y-22580590I125414J0D01*
G01X26363619Y-23088590D02*
G03X26112791Y-23088590I-125414J0D01*
G03X26363619Y-23088590I125414J0D01*
G01X27267110Y-12153900D02*
G03X26996282Y-12153900I-135414J0D01*
G03X27267110Y-12153900I135414J0D01*
G01X27037200Y-15790954D02*
G01X27217200Y-15790954D01*
G03X27257614Y-15750540I0J40414D01*
G01X27257614Y-15593060D01*
G03X27217200Y-15552646I-40414J0D01*
G01X27037200Y-15552646D01*
G03X26996786Y-15593060I0J-40414D01*
G01X26996786Y-15750540D01*
G03X27037200Y-15790954I40414J0D01*
G01X27026645Y-16262845D02*
G03X27246308Y-16232914I100555J83045D01*
G01X27778299Y-16232914D01*
G01X27999907Y-16454522D01*
G03X28117800Y-16622714I117893J-42778D01*
G03X28235693Y-16454522I0J125414D01*
G01X29028801Y-15661414D01*
G01X30060900Y-15661414D01*
G03X30098457Y-15645857I0J53114D01*
G01X30392400Y-15351915D01*
G01X30957795Y-15351915D01*
G03X31207316Y-15298801I119108J53114D01*
G03X30957795Y-15245687I-130414J0D01*
G01X30370399Y-15245687D01*
G03X30332842Y-15261244I0J-53114D01*
G01X30038899Y-15555186D01*
G01X29006800Y-15555186D01*
G03X28969243Y-15570743I0J-53114D01*
G01X28160578Y-16379407D01*
G03X28075022Y-16379407I-42778J-117893D01*
G01X27837857Y-16142243D01*
G03X27800300Y-16126686I-37557J-37557D01*
G01X27246308Y-16126686D01*
G03X27156844Y-16052800I-119108J-53114D01*
G03X27127200Y-15795386I-29644J127000D01*
G03X27097556Y-16052800I0J-130414D01*
G03X27026645Y-16262845I29644J-127000D01*
G01X27127200Y-17659314D02*
G03X27127200Y-17426087I0J116614D01*
G03X27127200Y-17659314I0J-116614D01*
G01X27989214Y-16497300D02*
G03X27738386Y-16497300I-125414J0D01*
G03X27989214Y-16497300I125414J0D01*
G01X27882096Y-22563709D02*
G03X28122923Y-22563709I120414J0D01*
G03X27882096Y-22563709I-120414J0D01*
G01X28344814Y-17881600D02*
G03X28093986Y-17881600I-125414J0D01*
G03X28344814Y-17881600I125414J0D01*
G01X28497214Y-16497300D02*
G03X28246386Y-16497300I-125414J0D01*
G03X28497214Y-16497300I125414J0D01*
G01X28598814Y-17881600D02*
G03X28347986Y-17881600I-125414J0D01*
G03X28598814Y-17881600I125414J0D01*
G01X28392077Y-22673691D02*
G03X28632904Y-22673691I120414J0D01*
G03X28392077Y-22673691I-120414J0D01*
G01X28751214Y-16497300D02*
G03X28500386Y-16497300I-125414J0D01*
G03X28751214Y-16497300I125414J0D01*
G01X29111814Y-13512800D02*
G03X28854400Y-13483156I-130414J0D01*
G03X28596986Y-13512800I-127000J-29644D01*
G03X28854400Y-13542444I130414J0D01*
G03X29111814Y-13512800I127000J29644D01*
G01X28852814Y-17881600D02*
G03X28601986Y-17881600I-125414J0D01*
G03X28852814Y-17881600I125414J0D01*
G01X29005214Y-16497300D02*
G03X28754386Y-16497300I-125414J0D01*
G03X29005214Y-16497300I125414J0D01*
G01X28896400Y-17756186D02*
G03X28855986Y-17796600I0J-40414D01*
G01X28855986Y-17966600D01*
G03X28896400Y-18007014I40414J0D01*
G01X29066400Y-18007014D01*
G03X29106814Y-17966600I0J40414D01*
G01X29106814Y-17796600D01*
G03X29066400Y-17756186I-40414J0D01*
G01X28896400Y-17756186D01*
G01X29259214Y-16497300D02*
G03X29008386Y-16497300I-125414J0D01*
G03X29259214Y-16497300I125414J0D01*
G01X29156660Y-13382386D02*
G03X29116246Y-13422800I0J-40414D01*
G01X29116246Y-13602800D01*
G03X29156660Y-13643214I40414J0D01*
G01X29314140Y-13643214D01*
G03X29354554Y-13602800I0J40414D01*
G01X29354554Y-13422800D01*
G03X29314140Y-13382386I-40414J0D01*
G01X29156660Y-13382386D01*
G01X29513214Y-16497300D02*
G03X29262386Y-16497300I-125414J0D01*
G03X29513214Y-16497300I125414J0D01*
G01X29600813Y-18743587D02*
G03X29369986Y-18743587I-115414J0D01*
G03X29600813Y-18743587I115414J0D01*
G01X30204814Y-20345400D02*
G03X30064024Y-20292286I-80414J0D01*
G01X29511676Y-20292286D01*
G03X29370886Y-20345400I-60376J-53114D01*
G03X29511676Y-20398514I80414J0D01*
G01X30064024Y-20398514D01*
G03X30204814Y-20345400I60376J53114D01*
G01X29563060Y-16371886D02*
G03X29522646Y-16412300I0J-40414D01*
G01X29522646Y-16582300D01*
G03X29563060Y-16622714I40414J0D01*
G01X29720540Y-16622714D01*
G03X29760954Y-16582300I0J40414D01*
G01X29760954Y-16412300D01*
G03X29720540Y-16371886I-40414J0D01*
G01X29563060Y-16371886D01*
G01X30353000Y-23033086D02*
G03X30353000Y-23313913I0J-140414D01*
G03X30353000Y-23033086I0J140414D01*
G01X30353000Y-22533087D02*
G03X30353000Y-22813914I0J-140414D01*
G03X30353000Y-22533087I0J140414D01*
G01X30403800Y-20884815D02*
G03X30403800Y-20583987I0J150414D01*
G03X30403800Y-20884815I0J-150414D01*
G01X31076903Y-16168385D02*
G03X31076903Y-16429213I0J-130414D01*
G03X31076903Y-16168385I0J130414D01*
G01X31076903Y-15668386D02*
G03X31076903Y-15929214I0J-130414D01*
G03X31076903Y-15668386I0J130414D01*
G54D11*
G01X14635302Y-22626653D02*
G01X14635302Y-22600745D01*
G01X14635302Y-22866144D02*
G01X14635302Y-22892052D01*
G01X14755048Y-22746398D02*
G01X14780956Y-22746398D01*
G01X14515556Y-22746398D02*
G01X14489648Y-22746398D01*
G01X14295298Y-22626653D02*
G01X14295298Y-22600745D01*
G01X14295298Y-22866144D02*
G01X14295298Y-22892052D01*
G01X14415044Y-22746398D02*
G01X14440952Y-22746398D01*
G01X14175552Y-22746398D02*
G01X14149644Y-22746398D01*
G01X13583145Y-23609300D02*
G01X13609053Y-23609300D01*
G01X13483400Y-23509554D02*
G01X13483400Y-23483646D01*
G01X28414802Y-20858147D02*
G01X28414802Y-20884055D01*
G01X28414802Y-20618656D02*
G01X28414802Y-20592748D01*
G01X28295056Y-20738401D02*
G01X28269148Y-20738401D01*
G01X28534548Y-20738401D02*
G01X28560456Y-20738401D01*
G01X28074798Y-20858147D02*
G01X28074798Y-20884055D01*
G01X28074798Y-20618656D02*
G01X28074798Y-20592748D01*
G01X28194544Y-20738401D02*
G01X28220452Y-20738401D01*
G01X30403800Y-21844145D02*
G01X30403800Y-21870053D01*
G01X30403800Y-21624653D02*
G01X30403800Y-21598745D01*
G01X30294054Y-21734399D02*
G01X30268146Y-21734399D01*
G01X22268955Y-23139400D02*
G01X22243047Y-23139400D01*
G01X22368701Y-23039654D02*
G01X22368701Y-23013746D01*
G01X21123275Y-23126700D02*
G01X21097367Y-23126700D01*
G01X21243925Y-23126700D02*
G01X21269833Y-23126700D01*
G01X21183600Y-23066375D02*
G01X21183600Y-23040467D01*
G01X21183600Y-23187025D02*
G01X21183600Y-23212933D01*
G01X22288487Y-22214550D02*
G01X22288487Y-22240458D01*
G01X12623800Y-20723225D02*
G01X12623800Y-20749133D01*
G01X12684125Y-20662900D02*
G01X12710033Y-20662900D01*
G01X12563475Y-20662900D02*
G01X12537567Y-20662900D01*
G01X12700013Y-22240941D02*
G01X12700013Y-22266849D01*
G01X12700013Y-21981450D02*
G01X12700013Y-21955542D01*
G01X12983401Y-23509554D02*
G01X12983401Y-23483646D01*
G54D12*
G01X30513546Y-21234400D02*
G01X30544054Y-21234400D01*
G01X30403800Y-21124654D02*
G01X30403800Y-21094146D01*
G01X30253254Y-23173499D02*
G01X30222746Y-23173499D01*
G01X30452746Y-23173499D02*
G01X30483254Y-23173499D01*
G01X30353000Y-23273245D02*
G01X30353000Y-23303753D01*
G01X30353000Y-23073754D02*
G01X30353000Y-23043246D01*
G01X30987157Y-16298799D02*
G01X30956649Y-16298799D01*
G01X31166648Y-16298799D02*
G01X31197156Y-16298799D01*
G01X31076903Y-16388545D02*
G01X31076903Y-16419053D01*
G01X31076903Y-16209053D02*
G01X31076903Y-16178545D01*
G01X29387800Y-16412554D02*
G01X29387800Y-16382046D01*
G01X29387800Y-16582046D02*
G01X29387800Y-16612554D01*
G01X29472546Y-16497300D02*
G01X29503054Y-16497300D01*
G01X25692354Y-21611399D02*
G01X25661846Y-21611399D01*
G01X25844246Y-21611399D02*
G01X25874754Y-21611399D01*
G01X25768300Y-21687345D02*
G01X25768300Y-21717853D01*
G01X25768300Y-21535453D02*
G01X25768300Y-21504946D01*
G01X26238205Y-23003844D02*
G01X26238205Y-22973336D01*
G01X26238205Y-23173336D02*
G01X26238205Y-23203844D01*
G01X26153459Y-23088590D02*
G01X26122951Y-23088590D01*
G01X26322951Y-23088590D02*
G01X26353459Y-23088590D01*
G01X25730205Y-23003844D02*
G01X25730205Y-22973336D01*
G01X25730205Y-23173336D02*
G01X25730205Y-23203844D01*
G01X25645459Y-23088590D02*
G01X25614951Y-23088590D01*
G01X25814951Y-23088590D02*
G01X25845459Y-23088590D01*
G01X25730205Y-22495844D02*
G01X25730205Y-22465336D01*
G01X25730205Y-22665336D02*
G01X25730205Y-22695844D01*
G01X25645459Y-22580590D02*
G01X25614951Y-22580590D01*
G01X27863800Y-16412554D02*
G01X27863800Y-16382046D01*
G01X27863800Y-16582046D02*
G01X27863800Y-16612554D01*
G01X27779054Y-16497300D02*
G01X27748546Y-16497300D01*
G01X27203146Y-17542700D02*
G01X27233654Y-17542700D01*
G01X27051254Y-17542700D02*
G01X27020746Y-17542700D01*
G01X27127200Y-17466754D02*
G01X27127200Y-17436247D01*
G01X27127200Y-17618646D02*
G01X27127200Y-17649154D01*
G01X22301200Y-12278614D02*
G01X22301200Y-12248106D01*
G01X22301200Y-12435586D02*
G01X22301200Y-12466094D01*
G01X22222714Y-12357100D02*
G01X22192206Y-12357100D01*
G01X22379686Y-12357100D02*
G01X22410194Y-12357100D01*
G01X21250646Y-15265387D02*
G01X21281154Y-15265387D01*
G01X21170900Y-15345133D02*
G01X21170900Y-15375641D01*
G01X21170900Y-15185641D02*
G01X21170900Y-15155134D01*
G01X21091154Y-18821413D02*
G01X21060646Y-18821413D01*
G01X21250646Y-18821413D02*
G01X21281154Y-18821413D01*
G01X21170900Y-18901159D02*
G01X21170900Y-18931666D01*
G01X21170900Y-18741667D02*
G01X21170900Y-18711159D01*
G01X21091154Y-18059413D02*
G01X21060646Y-18059413D01*
G01X21250646Y-18059413D02*
G01X21281154Y-18059413D01*
G01X21170900Y-18139159D02*
G01X21170900Y-18169666D01*
G01X21170900Y-17979667D02*
G01X21170900Y-17949159D01*
G01X22542513Y-22215541D02*
G01X22542513Y-22246049D01*
G01X22542513Y-21956050D02*
G01X22542513Y-21925542D01*
G01X22632259Y-22085795D02*
G01X22662766Y-22085795D01*
G01X18306546Y-23719104D02*
G01X18337054Y-23719104D01*
G01X18117054Y-23719104D02*
G01X18086546Y-23719104D01*
G01X18211800Y-23624358D02*
G01X18211800Y-23593850D01*
G01X18211800Y-23813850D02*
G01X18211800Y-23844358D01*
G01X18805154Y-18821413D02*
G01X18774646Y-18821413D01*
G01X18964646Y-18821413D02*
G01X18995154Y-18821413D01*
G01X18884900Y-18901159D02*
G01X18884900Y-18931666D01*
G01X18884900Y-18741667D02*
G01X18884900Y-18711159D01*
G01X13867154Y-12192000D02*
G01X13836646Y-12192000D01*
G01X13996646Y-12192000D02*
G01X14027154Y-12192000D01*
G01X13931900Y-12256746D02*
G01X13931900Y-12287254D01*
G01X13931900Y-12127254D02*
G01X13931900Y-12096746D01*
G01X13081254Y-12321007D02*
G01X13050746Y-12321007D01*
G01X13233146Y-12321007D02*
G01X13263654Y-12321007D01*
G01X13157200Y-12396953D02*
G01X13157200Y-12427461D01*
G01X13157200Y-12245061D02*
G01X13157200Y-12214553D01*
G01X13092854Y-15252700D02*
G01X13062346Y-15252700D01*
G01X13272346Y-15252700D02*
G01X13302854Y-15252700D01*
G01X13182600Y-15162954D02*
G01X13182600Y-15132446D01*
G01X12767996Y-18738346D02*
G01X12767996Y-18768854D01*
G01X12767996Y-18548854D02*
G01X12767996Y-18518346D01*
G01X12862742Y-18643600D02*
G01X12893250Y-18643600D01*
G01X12673250Y-18643600D02*
G01X12642742Y-18643600D01*
G01X12445987Y-22239950D02*
G01X12445987Y-22270458D01*
G01X12356241Y-22110205D02*
G01X12325734Y-22110205D01*
G04 Copper End*

G04 Pad Start*
G54D13*
G01X17487900Y-18808700D03*
G01X17487900Y-22428200D03*
G01X18973800Y-23279100D03*
G01X13157200Y-12570993D03*
G54D14*
G01X13157200Y-12321007D03*
G54D15*
G01X28074798Y-21730398D03*
G01X28414802Y-21730398D03*
G01X28414802Y-20738401D03*
G01X28074798Y-20738401D03*
G01X14635302Y-21754401D03*
G01X14295298Y-21754401D03*
G01X14295298Y-22746398D03*
G01X14635302Y-22746398D03*
G54D16*
G01X28727400Y-13512800D03*
G01X28981400Y-13512800D03*
G54D17*
G01X29235400Y-13512800D03*
G54D16*
G01X27127200Y-16179800D03*
G01X27127200Y-15925800D03*
G54D19*
G01X27127200Y-15671800D03*
G54D20*
G01X28981400Y-17881600D03*
G54D21*
G01X28727400Y-17881600D03*
G01X28473400Y-17881600D03*
G01X28219400Y-17881600D03*
G54D22*
G01X13182600Y-15252700D03*
G54D16*
G01X13182600Y-15506700D03*
G01X13182600Y-15760700D03*
G01X13182600Y-16014700D03*
G54D23*
G01X21285200Y-12357100D03*
G01X21539200Y-12357100D03*
G01X21793200Y-12357100D03*
G01X22047200Y-12357100D03*
G54D24*
G01X22301200Y-12357100D03*
G54D20*
G01X18545659Y-13423406D03*
G54D21*
G01X18291659Y-13423406D03*
G01X18037659Y-13423406D03*
G01X17783659Y-13423406D03*
G54D25*
G01X21170900Y-15265387D03*
G54D26*
G01X21170900Y-15519413D03*
G01X21170900Y-15773413D03*
G01X21170900Y-16027413D03*
G01X21170900Y-16281413D03*
G01X21170900Y-16535413D03*
G01X21170900Y-16789413D03*
G01X21170900Y-17043413D03*
G01X21170900Y-17297413D03*
G01X21170900Y-17551413D03*
G01X21170900Y-17805413D03*
G01X21170900Y-18059413D03*
G01X21170900Y-18313413D03*
G01X21170900Y-18567413D03*
G01X21170900Y-18821413D03*
G01X21170900Y-19075413D03*
G54D25*
G01X18884900Y-15265387D03*
G54D26*
G01X18884900Y-15519413D03*
G01X18884900Y-15773413D03*
G01X18884900Y-16027413D03*
G01X18884900Y-16281413D03*
G01X18884900Y-16535413D03*
G01X18884900Y-16789413D03*
G01X18884900Y-17043413D03*
G01X18884900Y-17297413D03*
G01X18884900Y-17551413D03*
G01X18884900Y-17805413D03*
G01X18884900Y-18059413D03*
G01X18884900Y-18313413D03*
G01X18884900Y-18567413D03*
G01X18884900Y-18821413D03*
G01X18884900Y-19075413D03*
G54D27*
G01X13483400Y-23609300D03*
G01X12983401Y-23609300D03*
G01X22868700Y-23139400D03*
G01X22368701Y-23139400D03*
G01X30353000Y-22673500D03*
G01X30353000Y-23173499D03*
G54D28*
G01X13931900Y-12700000D03*
G01X13931900Y-12192000D03*
G54D13*
G01X27127200Y-17542700D03*
G01X27127200Y-18042699D03*
G01X25768300Y-21611399D03*
G01X25768300Y-21111400D03*
G54D26*
G01X23130891Y-21550909D03*
G01X23020909Y-22060891D03*
G54D29*
G01X29485400Y-18743587D03*
G01X28985401Y-18543587D03*
G54D26*
G01X28002509Y-22563709D03*
G01X28512491Y-22673691D03*
G54D30*
G01X12623800Y-20408900D03*
G01X12623800Y-20662900D03*
G01X20929600Y-23126700D03*
G01X21183600Y-23126700D03*
G54D21*
G01X27863800Y-15227300D03*
G01X28117800Y-15227300D03*
G01X28371800Y-15227300D03*
G01X28625800Y-15227300D03*
G01X28879800Y-15227300D03*
G01X29133800Y-15227300D03*
G01X29387800Y-15227300D03*
G54D31*
G01X29641800Y-15227300D03*
G54D21*
G01X27863800Y-16497300D03*
G01X28117800Y-16497300D03*
G01X28371800Y-16497300D03*
G01X28625800Y-16497300D03*
G01X28879800Y-16497300D03*
G01X29133800Y-16497300D03*
G01X29387800Y-16497300D03*
G54D31*
G01X29641800Y-16497300D03*
G54D13*
G01X13561301Y-20523200D03*
G01X14861299Y-20523200D03*
G54D32*
G01X12767996Y-18643600D03*
G01X14918004Y-18643600D03*
G54D13*
G01X20078700Y-22849599D03*
G01X20078700Y-21549601D03*
G54D32*
G01X18211800Y-23719104D03*
G01X18211800Y-21569096D03*
G54D33*
G01X15290800Y-12729693D03*
G01X15290800Y-11679707D03*
G54D32*
G01X29281704Y-12153900D03*
G01X27131696Y-12153900D03*
G54D34*
G01X30403800Y-21734399D03*
G01X30403800Y-21234400D03*
G01X30403800Y-20734401D03*
G54D16*
G01X14886711Y-19685000D03*
G01X13586689Y-19685000D03*
G01X19354800Y-21536889D03*
G01X19354800Y-22836911D03*
G54D21*
G01X26238205Y-22580590D03*
G01X25984205Y-22580590D03*
G01X25730205Y-22580590D03*
G01X25730205Y-23088590D03*
G01X26238205Y-23088590D03*
G54D16*
G01X31076903Y-15298801D03*
G01X31076903Y-15798800D03*
G01X31076903Y-16298799D03*
G54D35*
G01X12700013Y-22111195D03*
G01X12445987Y-22110205D03*
G54D36*
G01X12954013Y-22111195D03*
G54D35*
G01X22288487Y-22084805D03*
G01X22542513Y-22085795D03*
G54D36*
G01X22034487Y-22084805D03*
G04 Pad End*

G04 Via Start*
G54D37*
G01X20688287Y-21843505D03*
G01X21170900Y-21014004D03*
G01X30124400Y-20345400D03*
G01X29451300Y-20345400D03*
G01X20538014Y-12609286D03*
G01X11821060Y-23675440D03*
G01X11821060Y-22875440D03*
G01X11821060Y-22075440D03*
G01X11821060Y-21275440D03*
G01X11821060Y-20475440D03*
G01X11821060Y-19675440D03*
G01X11821060Y-18875441D03*
G01X11821060Y-18075441D03*
G01X11821060Y-17275441D03*
G01X11821060Y-16475441D03*
G01X11821060Y-15675441D03*
G01X11821060Y-14875441D03*
G01X11821060Y-14075441D03*
G01X11821060Y-13275441D03*
G01X11821060Y-12475441D03*
G01X11821060Y-11675441D03*
G01X11821060Y-10875441D03*
G01X12163860Y-24081840D03*
G01X12201960Y-22938940D03*
G01X12938560Y-21288140D03*
G01X12621060Y-19675440D03*
G01X12621060Y-18075441D03*
G01X12621060Y-17275441D03*
G01X12621060Y-16475441D03*
G01X12621060Y-15675441D03*
G01X12621060Y-14875441D03*
G01X12621060Y-14075441D03*
G01X12621060Y-13275441D03*
G01X12341660Y-12678641D03*
G01X12621060Y-11675441D03*
G01X12621060Y-10875441D03*
G01X13421060Y-22875440D03*
G01X13421060Y-22075440D03*
G01X13421060Y-18875441D03*
G01X13332160Y-18075441D03*
G01X13421060Y-17275441D03*
G01X13421060Y-16475441D03*
G01X13687760Y-14659541D03*
G01X13421060Y-14075441D03*
G01X13421060Y-13275441D03*
G01X13421060Y-11675441D03*
G01X13421060Y-10875441D03*
G01X14221060Y-23675440D03*
G01X14221060Y-19675440D03*
G01X14208360Y-18761141D03*
G01X14221060Y-18075441D03*
G01X14221060Y-17275441D03*
G01X14221060Y-15675441D03*
G01X14221060Y-14875441D03*
G01X14221060Y-14075441D03*
G01X14221060Y-13275441D03*
G01X15491060Y-11230841D03*
G01X14221060Y-11675441D03*
G01X14221060Y-10875441D03*
G01X15021060Y-23675440D03*
G01X15287760Y-22913540D03*
G01X15109960Y-22100840D03*
G01X15021060Y-21275440D03*
G01X15414760Y-19142141D03*
G01X15021060Y-18075441D03*
G01X15008360Y-17148441D03*
G01X15021060Y-15675441D03*
G01X14944860Y-14875441D03*
G01X15021060Y-14075441D03*
G01X15021060Y-13275441D03*
G01X14728960Y-11980141D03*
G01X14678160Y-11230941D03*
G01X15021060Y-10875441D03*
G01X15821060Y-23675440D03*
G01X15821060Y-22875440D03*
G01X15821060Y-22075440D03*
G01X15821060Y-21275440D03*
G01X15821060Y-19675440D03*
G01X15821060Y-18875441D03*
G01X15821060Y-18075441D03*
G01X15744860Y-17123041D03*
G01X15948060Y-14875441D03*
G01X15821060Y-14075441D03*
G01X15821060Y-12475441D03*
G01X15821060Y-10875441D03*
G01X16621059Y-23675440D03*
G01X16621059Y-22875440D03*
G01X16621059Y-22075440D03*
G01X16621059Y-21275440D03*
G01X16621059Y-19675440D03*
G01X16621059Y-18875441D03*
G01X16621059Y-18075441D03*
G01X16621059Y-17275441D03*
G01X16621059Y-15675441D03*
G01X16621059Y-14875441D03*
G01X16621059Y-13275441D03*
G01X16621059Y-12475441D03*
G01X16621059Y-10875441D03*
G01X17421059Y-23675440D03*
G01X17421059Y-22875440D03*
G01X17421059Y-18075441D03*
G01X17421059Y-15675441D03*
G01X17421059Y-14075441D03*
G01X17179759Y-13021441D03*
G01X17421059Y-12475441D03*
G01X17421059Y-11675441D03*
G01X17421059Y-10875441D03*
G01X18221059Y-22875440D03*
G01X18221059Y-22075440D03*
G01X18221059Y-20475440D03*
G01X18221059Y-19675440D03*
G01X18221059Y-19015141D03*
G01X18221059Y-11675441D03*
G01X18221059Y-10875441D03*
G01X19059159Y-24005640D03*
G01X18957559Y-21821440D03*
G01X19021059Y-20475440D03*
G01X19021059Y-19675440D03*
G01X19021059Y-12475441D03*
G01X19021059Y-11675441D03*
G01X19021059Y-10875441D03*
G01X19821059Y-23675440D03*
G01X19846459Y-23231040D03*
G01X19770259Y-22164340D03*
G01X19821059Y-20475440D03*
G01X19821059Y-18875441D03*
G01X19821059Y-18075441D03*
G01X19821059Y-17275441D03*
G01X19821059Y-16475441D03*
G01X19821059Y-12475441D03*
G01X19821059Y-11675441D03*
G01X19821059Y-10875441D03*
G01X20621059Y-23675440D03*
G01X20621059Y-19675440D03*
G01X20621059Y-18875441D03*
G01X20621059Y-18075441D03*
G01X20621059Y-17275441D03*
G01X20621059Y-11675441D03*
G01X20621059Y-10875441D03*
G01X21421059Y-23675440D03*
G01X21370259Y-22621440D03*
G01X21421059Y-20475440D03*
G01X21421059Y-19675440D03*
G01X22017959Y-18456341D03*
G01X22005259Y-17580141D03*
G01X21421059Y-11675441D03*
G01X21421059Y-10875441D03*
G01X22221059Y-23675440D03*
G01X21928959Y-22773840D03*
G01X22221059Y-20475440D03*
G01X22221059Y-19675440D03*
G01X22221059Y-18875441D03*
G01X22221059Y-18075441D03*
G01X22221059Y-17275441D03*
G01X22221059Y-15675441D03*
G01X22208359Y-14951641D03*
G01X22221059Y-14075441D03*
G01X22221059Y-13275441D03*
G01X22221059Y-11675441D03*
G01X22221059Y-10875441D03*
G01X23021059Y-23675440D03*
G01X23236959Y-22862740D03*
G01X23021059Y-20475440D03*
G01X23021059Y-19675440D03*
G01X23021059Y-18875441D03*
G01X23021059Y-18075441D03*
G01X23021059Y-17275441D03*
G01X23021059Y-16475441D03*
G01X23008359Y-14900841D03*
G01X23021059Y-14075441D03*
G01X23021059Y-13275441D03*
G01X23021059Y-12475441D03*
G01X23021059Y-11675441D03*
G01X23021059Y-10875441D03*
G01X23821059Y-23675440D03*
G01X23821059Y-22875440D03*
G01X23821059Y-22075440D03*
G01X23821059Y-20475440D03*
G01X23821059Y-19675440D03*
G01X23821059Y-18875441D03*
G01X23821059Y-18075441D03*
G01X23821059Y-17275441D03*
G01X23821059Y-16475441D03*
G01X23821059Y-15675441D03*
G01X23833759Y-14951641D03*
G01X23821059Y-14075441D03*
G01X23821059Y-13275441D03*
G01X23821059Y-12475441D03*
G01X23821059Y-11675441D03*
G01X23821059Y-10875441D03*
G01X24621059Y-23675440D03*
G01X24621059Y-22875440D03*
G01X24621059Y-22075440D03*
G01X24621059Y-20475440D03*
G01X24621059Y-19675440D03*
G01X24621059Y-18875441D03*
G01X24621059Y-18075441D03*
G01X24621059Y-17275441D03*
G01X24621059Y-16475441D03*
G01X24621059Y-15675441D03*
G01X24621059Y-14875441D03*
G01X24621059Y-14075441D03*
G01X24621059Y-13275441D03*
G01X24621059Y-12475441D03*
G01X24621059Y-11675441D03*
G01X24621059Y-10875441D03*
G01X25421059Y-23675440D03*
G01X25027359Y-23294540D03*
G01X25421059Y-22075440D03*
G01X25421059Y-20475440D03*
G01X25421059Y-19675440D03*
G01X25421059Y-18875441D03*
G01X25421059Y-18075441D03*
G01X25421059Y-17275441D03*
G01X25421059Y-16475441D03*
G01X25421059Y-15675441D03*
G01X25421059Y-14875441D03*
G01X25421059Y-14075441D03*
G01X25421059Y-13275441D03*
G01X25421059Y-12475441D03*
G01X25421059Y-11675441D03*
G01X25421059Y-10875441D03*
G01X26221059Y-23675440D03*
G01X26221059Y-22075440D03*
G01X26221059Y-20475440D03*
G01X26221059Y-19675440D03*
G01X26221059Y-18875441D03*
G01X26221059Y-18075441D03*
G01X26221059Y-17275441D03*
G01X26221059Y-15675441D03*
G01X26221059Y-14875441D03*
G01X26221059Y-14075441D03*
G01X26221059Y-13275441D03*
G01X26221059Y-12475441D03*
G01X26221059Y-11675441D03*
G01X26221059Y-10875441D03*
G01X27021058Y-23675440D03*
G01X27021058Y-22075440D03*
G01X27021058Y-20475440D03*
G01X27021058Y-19675440D03*
G01X27021058Y-18875441D03*
G01X26957558Y-17148441D03*
G01X27021058Y-14875441D03*
G01X27021058Y-14075441D03*
G01X27021058Y-13275441D03*
G01X27021058Y-11675441D03*
G01X27021058Y-10875441D03*
G01X27821058Y-23675440D03*
G01X27046358Y-22481840D03*
G01X27821058Y-19675440D03*
G01X27821058Y-18875441D03*
G01X27821058Y-17275441D03*
G01X27821058Y-15675441D03*
G01X27655958Y-14519841D03*
G01X27821058Y-14075441D03*
G01X27821058Y-13275441D03*
G01X27821058Y-12615141D03*
G01X27821058Y-11675441D03*
G01X27821058Y-10875441D03*
G01X28621058Y-23675440D03*
G01X28544858Y-23269140D03*
G01X28697258Y-21326240D03*
G01X28621058Y-17275441D03*
G01X28621058Y-15675441D03*
G01X28621058Y-14075441D03*
G01X28608358Y-12627841D03*
G01X28621058Y-11675441D03*
G01X28621058Y-10875441D03*
G01X29421058Y-23675440D03*
G01X29421058Y-22875440D03*
G01X29421058Y-22075440D03*
G01X29421058Y-19675440D03*
G01X29421058Y-11675441D03*
G01X29421058Y-10875441D03*
G01X30221058Y-23675440D03*
G01X29852758Y-22964340D03*
G01X30462358Y-20246840D03*
G01X30221058Y-19675440D03*
G01X30221058Y-18875441D03*
G01X30221058Y-18075441D03*
G01X30221058Y-17275441D03*
G01X30221058Y-16475441D03*
G01X30221058Y-15675441D03*
G01X30221058Y-14875441D03*
G01X30221058Y-14075441D03*
G01X30221058Y-13275441D03*
G01X30221058Y-12475441D03*
G01X30221058Y-11675441D03*
G01X30221058Y-10875441D03*
G01X31021058Y-23675440D03*
G01X31021058Y-22875440D03*
G01X31021058Y-22075440D03*
G01X31059158Y-21427840D03*
G01X31021058Y-20475440D03*
G01X31021058Y-19675440D03*
G01X31021058Y-18875441D03*
G01X31021058Y-18075441D03*
G01X31021058Y-17275441D03*
G01X31033758Y-16767541D03*
G01X30868658Y-14621441D03*
G01X31021058Y-14075441D03*
G01X31021058Y-13275441D03*
G01X31021058Y-12475441D03*
G01X31021058Y-11675441D03*
G01X31021058Y-10875441D03*
G01X31821058Y-23675440D03*
G01X31821058Y-22875440D03*
G01X31821058Y-22075440D03*
G01X31821058Y-21275440D03*
G01X31821058Y-20475440D03*
G01X31821058Y-19675440D03*
G01X31821058Y-18875441D03*
G01X31821058Y-18075441D03*
G01X31821058Y-17275441D03*
G01X31821058Y-16475441D03*
G01X31821058Y-14875441D03*
G01X31821058Y-14075441D03*
G01X31821058Y-13275441D03*
G01X31821058Y-12475441D03*
G01X31821058Y-11675441D03*
G01X31821058Y-10875441D03*
G01X32621058Y-23675440D03*
G01X32621058Y-22875440D03*
G01X32621058Y-22075440D03*
G01X32621058Y-21275440D03*
G01X32621058Y-20475440D03*
G01X32621058Y-19675440D03*
G01X32621058Y-18875441D03*
G01X32621058Y-18075441D03*
G01X32621058Y-17275441D03*
G01X32621058Y-16475441D03*
G01X32621058Y-15675441D03*
G01X32621058Y-14875441D03*
G01X32621058Y-14075441D03*
G01X32621058Y-13275441D03*
G01X32621058Y-12475441D03*
G01X32621058Y-11675441D03*
G01X32621058Y-10875441D03*
G01X13639800Y-21513800D03*
G01X11417300Y-20091400D03*
G01X12217400Y-17703800D03*
G01X13055600Y-17665700D03*
G01X20231100Y-23342600D03*
G01X19558000Y-23393400D03*
G01X20231100Y-24117300D03*
G01X21877727Y-24117300D03*
G01X26619200Y-22047200D03*
G01X19405600Y-17030700D03*
G01X20726400Y-16548100D03*
G01X22618700Y-12903200D03*
G01X12179300Y-21602700D03*
G01X13855700Y-22199600D03*
G01X12001500Y-22542500D03*
G01X13042900Y-22631400D03*
G04 Via End*

G04 Track Start*
G54D38*
G01X27127200Y-16179800D02*
G01X27800300Y-16179800D01*
G01X21170900Y-17043413D02*
G01X22987013Y-15227300D01*
G01X21170900Y-21014004D02*
G01X21043900Y-20887004D01*
G01X21043900Y-18948413D01*
G01X21170900Y-18821413D01*
G01X21069300Y-18719813D01*
G01X21069300Y-18618213D01*
G01X21043900Y-18592813D01*
G01X21043900Y-18186413D01*
G01X21170900Y-18059413D01*
G01X21043900Y-18592813D02*
G01X19113500Y-18592813D01*
G01X18884900Y-18821413D01*
G01X21170900Y-18059413D02*
G01X21043900Y-17932413D01*
G01X21043900Y-16992613D01*
G01X21120100Y-16916413D01*
G01X21221700Y-16916413D01*
G01X21297900Y-16840213D01*
G01X21297900Y-16484613D01*
G01X21221700Y-16408413D01*
G01X21120100Y-16408413D01*
G01X21043900Y-16332213D01*
G01X21043900Y-15392387D02*
G01X21170900Y-15265387D01*
G01X21678900Y-14757387D01*
G01X21678900Y-12318987D01*
G01X21754986Y-12242902D02*
G01X22187002Y-12242902D01*
G01X18545659Y-13423406D02*
G01X18545659Y-15434172D01*
G01X18884900Y-15773413D01*
G01X18291659Y-13423406D02*
G01X18291659Y-15434172D01*
G01X18884900Y-16027413D01*
G01X15720276Y-17551413D02*
G01X13586689Y-19685000D01*
G01X21539200Y-12357100D02*
G01X20993100Y-12903200D01*
G01X20993100Y-16611613D02*
G01X21170900Y-16789413D01*
G01X13182600Y-16014700D02*
G01X13703313Y-16535413D01*
G01X18884900Y-16535413D01*
G01X13182600Y-15760700D02*
G01X13703313Y-16281413D01*
G01X18884900Y-16281413D01*
G01X21170900Y-17297413D02*
G01X23126814Y-15341498D01*
G01X28003602Y-15341498D01*
G01X21170900Y-17551413D02*
G01X23329900Y-15392413D01*
G01X29197300Y-15392413D02*
G01X29248100Y-15341613D01*
G01X21793200Y-12357100D02*
G01X21793200Y-15659113D01*
G01X13157200Y-12570993D02*
G01X13802893Y-12570993D01*
G01X15261107Y-12700000D02*
G01X15290800Y-12729693D01*
G01X18719800Y-16158693D01*
G01X18923000Y-16158693D01*
G01X18999200Y-16234893D01*
G01X18999200Y-16675113D02*
G01X18884900Y-16789413D01*
G01X18973800Y-23279100D02*
G01X18338800Y-23279100D01*
G01X17487900Y-22428200D01*
G01X17487900Y-18808700D02*
G01X18491187Y-17805413D01*
G01X18884900Y-17805413D01*
G01X30124400Y-20345400D02*
G01X29451300Y-20345400D01*
G01X29006800Y-15608300D02*
G01X30060900Y-15608300D01*
G01X30370399Y-15298801D02*
G01X31076903Y-15298801D01*
G01X23329900Y-15392413D02*
G01X29197300Y-15392413D01*
G01X30060900Y-15608300D02*
G01X30370399Y-15298801D01*
G01X22987013Y-15227300D02*
G01X27863800Y-15227300D01*
G01X18999200Y-16234893D02*
G01X18999200Y-16675113D01*
G01X13931900Y-12700000D02*
G01X15261107Y-12700000D01*
G01X13802893Y-12570993D02*
G01X13931900Y-12700000D01*
G01X21793200Y-15659113D02*
G01X21170900Y-16281413D01*
G01X29527487Y-15341613D02*
G01X29641800Y-15227300D01*
G01X28003602Y-15341498D02*
G01X28117800Y-15227300D01*
G01X20993100Y-12903200D02*
G01X20993100Y-16611613D01*
G01X18884900Y-17551413D02*
G01X15720276Y-17551413D01*
G01X22187002Y-12242902D02*
G01X22301200Y-12357100D01*
G01X21678900Y-12318987D02*
G01X21754986Y-12242902D01*
G01X21043900Y-16332213D02*
G01X21043900Y-15392387D01*
G01X28117800Y-16497300D02*
G01X29006800Y-15608300D01*
G01X27800300Y-16179800D02*
G01X28117800Y-16497300D01*
G01X29324300Y-15341613D02*
G01X29325700Y-15340213D01*
G01X29438600Y-15067635D02*
G01X29438600Y-13754113D01*
G01X29514800Y-13677913D01*
G01X29514800Y-12285396D01*
G01X29383304Y-12153900D01*
G01X29281704Y-12153900D01*
G01X29325700Y-15340213D02*
G01X29325700Y-15324865D01*
G01X29274900Y-15274065D01*
G01X29274900Y-15180535D01*
G01X29341035Y-15114400D01*
G01X29391835Y-15114400D01*
G01X29438600Y-15067635D01*
G01X29324300Y-15341613D02*
G01X29527487Y-15341613D01*
G01X29248100Y-15341613D02*
G01X29324300Y-15341613D01*
G01X22034487Y-22084805D02*
G01X20929587Y-22084805D01*
G01X20688287Y-21843505D01*
G04 Track End*

M02*

