;TYPE=PLATED
;Layer: PTH_Through_Via
;EasyEDA Pro v2.2.47.7, 2026-05-23 18:31:00
;Gerber Generator version 0.3
M48
METRIC,LZ,0000.00000
;Hole size 1 = 0.35000 METRIC
T01C0.35000
;Hole size 2 = 0.40000 METRIC
T02C0.40000
%
G05
G90
T01
X205.38014Y-126.09286
X118.2106Y-236.7544
X118.2106Y-228.7544
X118.2106Y-220.7544
X118.2106Y-212.7544
X118.2106Y-204.7544
X118.2106Y-196.7544
X118.2106Y-188.75441
X118.2106Y-180.75441
X118.2106Y-172.75441
X118.2106Y-164.75441
X118.2106Y-156.75441
X118.2106Y-148.75441
X118.2106Y-140.75441
X118.2106Y-132.75441
X118.2106Y-124.75441
X118.2106Y-116.75441
X120.3696Y-110.78641
X121.6386Y-240.8184
X122.0196Y-229.3894
X129.3856Y-212.8814
X126.2106Y-196.7544
X126.2106Y-180.75441
X126.2106Y-172.75441
X126.2106Y-164.75441
X126.2106Y-156.75441
X126.2106Y-148.75441
X126.2106Y-140.75441
X126.2106Y-132.75441
X123.4166Y-126.78641
X126.2106Y-116.75441
X126.2106Y-108.75441
X134.2106Y-228.7544
X134.2106Y-220.7544
X134.2106Y-188.75441
X133.3216Y-180.75441
X134.2106Y-172.75441
X134.2106Y-164.75441
X136.8776Y-146.59541
X134.2106Y-140.75441
X134.2106Y-132.75441
X134.2106Y-116.75441
X134.2106Y-108.75441
X142.2106Y-236.7544
X142.2106Y-196.7544
X142.0836Y-187.61141
X142.2106Y-180.75441
X142.2106Y-172.75441
X142.2106Y-156.75441
X142.2106Y-148.75441
X142.2106Y-140.75441
X142.2106Y-132.75441
X154.9106Y-112.30841
X142.2106Y-116.75441
X142.2106Y-108.75441
X150.2106Y-236.7544
X152.8776Y-229.1354
X151.0996Y-221.0084
X150.2106Y-212.7544
X154.1476Y-191.42141
X150.2106Y-180.75441
X150.0836Y-171.48441
X150.2106Y-156.75441
X149.4486Y-148.75441
X150.2106Y-140.75441
X150.2106Y-132.75441
X147.2896Y-119.80141
X146.7816Y-112.30941
X150.2106Y-108.75441
X158.2106Y-236.7544
X158.2106Y-228.7544
X158.2106Y-220.7544
X158.2106Y-212.7544
X158.2106Y-196.7544
X158.2106Y-188.75441
X158.2106Y-180.75441
X157.4486Y-171.23041
X159.4806Y-148.75441
X158.2106Y-140.75441
X158.2106Y-124.75441
X158.2106Y-108.75441
X166.21059Y-236.7544
X166.21059Y-228.7544
X166.21059Y-220.7544
X166.21059Y-212.7544
X166.21059Y-196.7544
X166.21059Y-188.75441
X166.21059Y-180.75441
X166.21059Y-172.75441
X166.21059Y-156.75441
X166.21059Y-148.75441
X166.21059Y-132.75441
X166.21059Y-124.75441
X166.21059Y-108.75441
X174.21059Y-236.7544
X174.21059Y-228.7544
X174.21059Y-180.75441
X174.21059Y-156.75441
X174.21059Y-140.75441
X171.79759Y-130.21441
X174.21059Y-124.75441
X174.21059Y-116.75441
X174.21059Y-108.75441
X182.21059Y-228.7544
X182.21059Y-220.7544
X182.21059Y-204.7544
X182.21059Y-196.7544
X182.21059Y-190.15141
X182.21059Y-116.75441
X182.21059Y-108.75441
X190.59159Y-240.0564
X189.57559Y-218.2144
X190.21059Y-204.7544
X190.21059Y-196.7544
X190.21059Y-124.75441
X190.21059Y-116.75441
X190.21059Y-108.75441
X198.21059Y-236.7544
X198.46459Y-232.3104
X197.70259Y-221.6434
X198.21059Y-204.7544
X198.21059Y-188.75441
X198.21059Y-180.75441
X198.21059Y-172.75441
X198.21059Y-164.75441
X198.21059Y-124.75441
X198.21059Y-116.75441
X198.21059Y-108.75441
X206.21059Y-236.7544
X206.21059Y-196.7544
X206.21059Y-188.75441
X206.21059Y-180.75441
X206.21059Y-172.75441
X206.21059Y-116.75441
X206.21059Y-108.75441
X214.21059Y-236.7544
X213.70259Y-226.2144
X214.21059Y-204.7544
X214.21059Y-196.7544
X220.17959Y-184.56341
X220.05259Y-175.80141
X214.21059Y-116.75441
X214.21059Y-108.75441
X222.21059Y-236.7544
X219.28959Y-227.7384
X222.21059Y-204.7544
X222.21059Y-196.7544
X222.21059Y-188.75441
X222.21059Y-180.75441
X222.21059Y-172.75441
X222.21059Y-156.75441
X222.08359Y-149.51641
X222.21059Y-140.75441
X222.21059Y-132.75441
X222.21059Y-116.75441
X222.21059Y-108.75441
X230.21059Y-236.7544
X232.36959Y-228.6274
X230.21059Y-204.7544
X230.21059Y-196.7544
X230.21059Y-188.75441
X230.21059Y-180.75441
X230.21059Y-172.75441
X230.21059Y-164.75441
X230.08359Y-149.00841
X230.21059Y-140.75441
X230.21059Y-132.75441
X230.21059Y-124.75441
X230.21059Y-116.75441
X230.21059Y-108.75441
X238.21059Y-236.7544
X238.21059Y-228.7544
X238.21059Y-220.7544
X238.21059Y-204.7544
X238.21059Y-196.7544
X238.21059Y-188.75441
X238.21059Y-180.75441
X238.21059Y-172.75441
X238.21059Y-164.75441
X238.21059Y-156.75441
X238.33759Y-149.51641
X238.21059Y-140.75441
X238.21059Y-132.75441
X238.21059Y-124.75441
X238.21059Y-116.75441
X238.21059Y-108.75441
X246.21059Y-236.7544
X246.21059Y-228.7544
X246.21059Y-220.7544
X246.21059Y-204.7544
X246.21059Y-196.7544
X246.21059Y-188.75441
X246.21059Y-180.75441
X246.21059Y-172.75441
X246.21059Y-164.75441
X246.21059Y-156.75441
X246.21059Y-148.75441
X246.21059Y-140.75441
X246.21059Y-132.75441
X246.21059Y-124.75441
X246.21059Y-116.75441
X246.21059Y-108.75441
X254.21059Y-236.7544
X250.27359Y-232.9454
X254.21059Y-220.7544
X254.21059Y-204.7544
X254.21059Y-196.7544
X254.21059Y-188.75441
X254.21059Y-180.75441
X254.21059Y-172.75441
X254.21059Y-164.75441
X254.21059Y-156.75441
X254.21059Y-148.75441
X254.21059Y-140.75441
X254.21059Y-132.75441
X254.21059Y-124.75441
X254.21059Y-116.75441
X254.21059Y-108.75441
X262.21059Y-236.7544
X262.21059Y-220.7544
X262.21059Y-204.7544
X262.21059Y-196.7544
X262.21059Y-188.75441
X262.21059Y-180.75441
X262.21059Y-172.75441
X262.21059Y-156.75441
X262.21059Y-148.75441
X262.21059Y-140.75441
X262.21059Y-132.75441
X262.21059Y-124.75441
X262.21059Y-116.75441
X262.21059Y-108.75441
X270.21058Y-236.7544
X270.21058Y-220.7544
X270.21058Y-204.7544
X270.21058Y-196.7544
X270.21058Y-188.75441
X269.57558Y-171.48441
X270.21058Y-148.75441
X270.21058Y-140.75441
X270.21058Y-132.75441
X270.21058Y-116.75441
X270.21058Y-108.75441
X278.21058Y-236.7544
X270.46358Y-224.8184
X278.21058Y-196.7544
X278.21058Y-188.75441
X278.21058Y-172.75441
X278.21058Y-156.75441
X276.55958Y-145.19841
X278.21058Y-140.75441
X278.21058Y-132.75441
X278.21058Y-126.15141
X278.21058Y-116.75441
X278.21058Y-108.75441
X286.21058Y-236.7544
X285.44858Y-232.6914
X286.97258Y-213.2624
X286.21058Y-172.75441
X286.21058Y-156.75441
X286.21058Y-140.75441
X286.08358Y-126.27841
X286.21058Y-116.75441
X286.21058Y-108.75441
X294.21058Y-236.7544
X294.21058Y-228.7544
X294.21058Y-220.7544
X294.21058Y-196.7544
X294.21058Y-116.75441
X294.21058Y-108.75441
X302.21058Y-236.7544
X298.52758Y-229.6434
X304.62358Y-202.4684
X302.21058Y-196.7544
X302.21058Y-188.75441
X302.21058Y-180.75441
X302.21058Y-172.75441
X302.21058Y-164.75441
X302.21058Y-156.75441
X302.21058Y-148.75441
X302.21058Y-140.75441
X302.21058Y-132.75441
X302.21058Y-124.75441
X302.21058Y-116.75441
X302.21058Y-108.75441
X310.21058Y-236.7544
X310.21058Y-228.7544
X310.21058Y-220.7544
X310.59158Y-214.2784
X310.21058Y-204.7544
X310.21058Y-196.7544
X310.21058Y-188.75441
X310.21058Y-180.75441
X310.21058Y-172.75441
X310.33758Y-167.67541
X308.68658Y-146.21441
X310.21058Y-140.75441
X310.21058Y-132.75441
X310.21058Y-124.75441
X310.21058Y-116.75441
X310.21058Y-108.75441
X318.21058Y-236.7544
X318.21058Y-228.7544
X318.21058Y-220.7544
X318.21058Y-212.7544
X318.21058Y-204.7544
X318.21058Y-196.7544
X318.21058Y-188.75441
X318.21058Y-180.75441
X318.21058Y-172.75441
X318.21058Y-164.75441
X318.21058Y-148.75441
X318.21058Y-140.75441
X318.21058Y-132.75441
X318.21058Y-124.75441
X318.21058Y-116.75441
X314.78158Y-111.67541
X323.92458Y-233.9604
X326.21058Y-228.7544
X326.21058Y-220.7544
X326.21058Y-212.7544
X326.21058Y-204.7544
X326.21058Y-196.7544
X326.21058Y-188.75441
X326.21058Y-180.75441
X326.21058Y-172.75441
X326.21058Y-164.75441
X326.21058Y-156.75441
X326.21058Y-148.75441
X326.21058Y-140.75441
X326.21058Y-132.75441
X326.21058Y-124.75441
X326.21058Y-116.75441
X136.398Y-215.138
X114.173Y-200.914
X122.174Y-177.038
X130.556Y-176.657
X202.311Y-233.426
X195.58Y-233.934
T02
X206.88287Y-218.43505
X211.709Y-210.14004
X301.244Y-203.454
X294.513Y-203.454
X202.311Y-241.173
X218.77727Y-241.173
X266.192Y-220.472
X194.056Y-170.307
X207.264Y-165.481
X226.187Y-129.032
X121.793Y-216.027
X138.557Y-221.996
X120.015Y-225.425
X130.429Y-226.314
M30