G04 Layer: BottomSilkscreenLayer*
G04 EasyEDA Pro v2.2.47.7, 2026-05-23 18:31:00*
G04 Gerber Generator version 0.3*
G04 Scale: 100 percent, Rotated: No, Reflected: No*
G04 Dimensions in millimeters*
G04 Leading zeros omitted, absolute positions, 4 integers and 5 decimals*
G04 Generated by one-click*
G04 Object Configs: Pad,Via,Track,Text,Image,Dimension,BoardOutline,BoardCutout,CopperFilled,SolidRegion,FPCStiffener,Line,PlaneZone,ComponentProperty,ComponentSilkscreen,TearDrop*
G04 Layer Configs: 1,2,3,4,5,6,7,8,9,10,11,13,14,56*
G04 Copper Areas: 0*
%FSLAX45Y45*%
%MOMM*%
%ADD10C,0.203*%
%ADD11C,0.6261*%
G75*


G04 Text Start*
G54D10*
G01X31854140Y-10510520D02*
G01X31783020Y-10697210D01*
G01X31711900Y-10510520D02*
G01X31783020Y-10697210D01*
G01X31595568Y-10510520D02*
G01X31622238Y-10519410D01*
G01X31640018Y-10546080D01*
G01X31648908Y-10590530D01*
G01X31648908Y-10617200D01*
G01X31640018Y-10661650D01*
G01X31622238Y-10688320D01*
G01X31595568Y-10697210D01*
G01X31577788Y-10697210D01*
G01X31551118Y-10688320D01*
G01X31533338Y-10661650D01*
G01X31524448Y-10617200D01*
G01X31524448Y-10590530D01*
G01X31533338Y-10546080D01*
G01X31551118Y-10519410D01*
G01X31577788Y-10510520D01*
G01X31595568Y-10510520D01*
G01X31452566Y-10652760D02*
G01X31461456Y-10661650D01*
G01X31452566Y-10670540D01*
G01X31443676Y-10661650D01*
G01X31452566Y-10652760D01*
G01X31371794Y-10554970D02*
G01X31371794Y-10546080D01*
G01X31362904Y-10528300D01*
G01X31354014Y-10519410D01*
G01X31336234Y-10510520D01*
G01X31300674Y-10510520D01*
G01X31282894Y-10519410D01*
G01X31274004Y-10528300D01*
G01X31265114Y-10546080D01*
G01X31265114Y-10563860D01*
G01X31274004Y-10581640D01*
G01X31291784Y-10608310D01*
G01X31380684Y-10697210D01*
G01X31256224Y-10697210D01*
G04 Text End*

M02*

