G04 Layer: BottomLayer*
G04 EasyEDA Pro v2.2.47.7, 2026-05-23 18:31:00*
G04 Gerber Generator version 0.3*
G04 Scale: 100 percent, Rotated: No, Reflected: No*
G04 Dimensions in millimeters*
G04 Leading zeros omitted, absolute positions, 4 integers and 5 decimals*
G04 Generated by one-click*
G04 Object Configs: Pad,Via,Track,Text,Image,Dimension,BoardOutline,BoardCutout,CopperFilled,SolidRegion,FPCStiffener,Line,PlaneZone,ComponentProperty,ComponentSilkscreen,TearDrop*
G04 Layer Configs: 1,2,3,4,5,6,7,8,9,10,11,13,14,56*
G04 Copper Areas: 80*
%FSLAX45Y45*%
%MOMM*%
%ADD10C,0.2032*%
%ADD11C,0.6*%
%ADD12C,1.524*%
%ADD13R,1.524X1.524*%
%ADD14C,2.4*%
%ADD15C,1.8030*%
%ADD16C,1.8*%
%ADD17R,1.5748X1.8*%
%ADD18R,1.8X1.5748*%
%ADD19R,1.7X1.7*%
%ADD20C,1.7*%
%ADD21R,1.8X1.8*%
%ADD22C,1.5748*%
%ADD23R,1.5748X1.5748*%
%ADD24R,1.6X1.6*%
%ADD25C,1.6*%
%ADD26C,2.0*%
%ADD27C,1.3*%
%ADD28C,1.5*%
%ADD29R,1.21158X1.21158*%
%ADD30R,1.5748X1.7*%
%ADD31C,1.9*%
%ADD32C,1.4*%
%ADD33C,2.2*%
%ADD34O,1.8X2.59999*%
%ADD35R,1.8X2.59999*%
%ADD36C,6.0*%
%ADD37C,0.8*%
%ADD38C,0.254*%
%ADD39C,1.0*%
G75*


G04 Copper Start*
G36*
G01X20248808Y-12257814D02*
G01X21219322Y-12257814D01*
G01X21203086Y-12270758D01*
G01X21189344Y-12286323D01*
G01X21178513Y-12304038D01*
G01X21170922Y-12323364D01*
G01X21166800Y-12343714D01*
G01X21166274Y-12364471D01*
G01X21169359Y-12385004D01*
G01X21175962Y-12404690D01*
G01X21185882Y-12422930D01*
G01X21198818Y-12439172D01*
G01X21214377Y-12452921D01*
G01X21232086Y-12463761D01*
G01X21232086Y-15144974D01*
G01X21090900Y-15144974D01*
G01X21078412Y-15146952D01*
G01X21067145Y-15152692D01*
G01X21058205Y-15161633D01*
G01X21052464Y-15172899D01*
G01X21050486Y-15185387D01*
G01X21050486Y-15345387D01*
G01X21052464Y-15357876D01*
G01X21058205Y-15369142D01*
G01X21067145Y-15378083D01*
G01X21078412Y-15383823D01*
G01X21090900Y-15385801D01*
G01X21232086Y-15385801D01*
G01X21232086Y-15415703D01*
G01X21213059Y-15406620D01*
G01X21192739Y-15400996D01*
G01X21171750Y-15399002D01*
G01X21150735Y-15400699D01*
G01X21130338Y-15406036D01*
G01X21111185Y-15414849D01*
G01X21093862Y-15426867D01*
G01X21078901Y-15441723D01*
G01X21066761Y-15458961D01*
G01X21057813Y-15478051D01*
G01X21052332Y-15498410D01*
G01X21050486Y-15519413D01*
G01X21052332Y-15540415D01*
G01X21057813Y-15560774D01*
G01X21066761Y-15579865D01*
G01X21078901Y-15597102D01*
G01X21093862Y-15611958D01*
G01X21111185Y-15623976D01*
G01X21130338Y-15632789D01*
G01X21150735Y-15638126D01*
G01X21171750Y-15639823D01*
G01X21192739Y-15637829D01*
G01X21213059Y-15632205D01*
G01X21232086Y-15623123D01*
G01X21232086Y-15669703D01*
G01X21213059Y-15660620D01*
G01X21192739Y-15654996D01*
G01X21171750Y-15653002D01*
G01X21150735Y-15654699D01*
G01X21130338Y-15660036D01*
G01X21111185Y-15668849D01*
G01X21093862Y-15680867D01*
G01X21078901Y-15695723D01*
G01X21066761Y-15712961D01*
G01X21057813Y-15732051D01*
G01X21052332Y-15752410D01*
G01X21050486Y-15773413D01*
G01X21052332Y-15794415D01*
G01X21057813Y-15814774D01*
G01X21066761Y-15833865D01*
G01X21078901Y-15851102D01*
G01X21093862Y-15865958D01*
G01X21111185Y-15877976D01*
G01X21130338Y-15886789D01*
G01X21150735Y-15892126D01*
G01X21171750Y-15893823D01*
G01X21192739Y-15891829D01*
G01X21213059Y-15886205D01*
G01X21232086Y-15877123D01*
G01X21232086Y-15923703D01*
G01X21213059Y-15914620D01*
G01X21192739Y-15908996D01*
G01X21171750Y-15907002D01*
G01X21150735Y-15908699D01*
G01X21130338Y-15914036D01*
G01X21111185Y-15922849D01*
G01X21093862Y-15934867D01*
G01X21078901Y-15949723D01*
G01X21066761Y-15966961D01*
G01X21057813Y-15986051D01*
G01X21052332Y-16006410D01*
G01X21050486Y-16027413D01*
G01X21052332Y-16048415D01*
G01X21057813Y-16068774D01*
G01X21066761Y-16087865D01*
G01X21078901Y-16105102D01*
G01X21093862Y-16119958D01*
G01X21111185Y-16131976D01*
G01X21130338Y-16140789D01*
G01X21150735Y-16146126D01*
G01X21171750Y-16147823D01*
G01X21192739Y-16145829D01*
G01X21213059Y-16140205D01*
G01X21232086Y-16131123D01*
G01X21232086Y-16177703D01*
G01X21213059Y-16168620D01*
G01X21192739Y-16162996D01*
G01X21171750Y-16161002D01*
G01X21150735Y-16162699D01*
G01X21130338Y-16168036D01*
G01X21111185Y-16176849D01*
G01X21093862Y-16188867D01*
G01X21078901Y-16203723D01*
G01X21066761Y-16220961D01*
G01X21057813Y-16240051D01*
G01X21052332Y-16260410D01*
G01X21050486Y-16281413D01*
G01X21052332Y-16302415D01*
G01X21057813Y-16322774D01*
G01X21066761Y-16341865D01*
G01X21078901Y-16359102D01*
G01X21093862Y-16373958D01*
G01X21111185Y-16385976D01*
G01X21130338Y-16394789D01*
G01X21150735Y-16400126D01*
G01X21171750Y-16401823D01*
G01X21192739Y-16399829D01*
G01X21213059Y-16394205D01*
G01X21232086Y-16385123D01*
G01X21232086Y-16399112D01*
G01X21209757Y-16421441D01*
G01X21188386Y-16416275D01*
G01X21166432Y-16415082D01*
G01X21144627Y-16417900D01*
G01X21123697Y-16424636D01*
G01X21104342Y-16435066D01*
G01X21087205Y-16448841D01*
G01X21072859Y-16465502D01*
G01X21061782Y-16484494D01*
G01X21054342Y-16505184D01*
G01X21050789Y-16526882D01*
G01X21051240Y-16548864D01*
G01X21055680Y-16570397D01*
G01X21063962Y-16590764D01*
G01X21075809Y-16609286D01*
G01X20303913Y-16609286D01*
G01X19005314Y-15310687D01*
G01X19005314Y-15185387D01*
G01X19003336Y-15172899D01*
G01X18997595Y-15161633D01*
G01X18988655Y-15152692D01*
G01X18977388Y-15146952D01*
G01X18964900Y-15144974D01*
G01X18938014Y-15144974D01*
G01X18938014Y-13568608D01*
G01X20248808Y-12257814D01*
G37*
G36*
G01X11021060Y-24097807D02*
G01X11021060Y-23609300D01*
G01X12842987Y-23609300D01*
G01X12844902Y-23632411D01*
G01X12850595Y-23654892D01*
G01X12859910Y-23676130D01*
G01X12872594Y-23695544D01*
G01X12888301Y-23712606D01*
G01X12906601Y-23726850D01*
G01X12926997Y-23737887D01*
G01X12948931Y-23745417D01*
G01X12971805Y-23749234D01*
G01X12994996Y-23749234D01*
G01X13017870Y-23745417D01*
G01X13039804Y-23737887D01*
G01X13060200Y-23726850D01*
G01X13078500Y-23712606D01*
G01X13094207Y-23695544D01*
G01X13106891Y-23676130D01*
G01X13116206Y-23654892D01*
G01X13121899Y-23632411D01*
G01X13123814Y-23609300D01*
G01X13123814Y-23609300D01*
G01X13342986Y-23609300D01*
G01X13344901Y-23632411D01*
G01X13350594Y-23654892D01*
G01X13359909Y-23676130D01*
G01X13372593Y-23695544D01*
G01X13388300Y-23712606D01*
G01X13406600Y-23726850D01*
G01X13426996Y-23737887D01*
G01X13448930Y-23745417D01*
G01X13471804Y-23749234D01*
G01X13494995Y-23749234D01*
G01X13517869Y-23745417D01*
G01X13539803Y-23737887D01*
G01X13560199Y-23726850D01*
G01X13578499Y-23712606D01*
G01X13582811Y-23707922D01*
G01X18076849Y-23707922D01*
G01X18076849Y-23730287D01*
G01X18080530Y-23752346D01*
G01X18087792Y-23773499D01*
G01X18098436Y-23793169D01*
G01X18112173Y-23810817D01*
G01X18128627Y-23825965D01*
G01X18147350Y-23838197D01*
G01X18167831Y-23847181D01*
G01X18189512Y-23852671D01*
G01X18211800Y-23854518D01*
G01X18211800Y-23854518D01*
G01X18234088Y-23852671D01*
G01X18255769Y-23847181D01*
G01X18276250Y-23838197D01*
G01X18294973Y-23825965D01*
G01X18311427Y-23810817D01*
G01X18325164Y-23793169D01*
G01X18335808Y-23773499D01*
G01X18343070Y-23752346D01*
G01X18346751Y-23730287D01*
G01X18346751Y-23707922D01*
G01X18343070Y-23685862D01*
G01X18335808Y-23664709D01*
G01X18325164Y-23645040D01*
G01X18311427Y-23627391D01*
G01X18294973Y-23612244D01*
G01X18276250Y-23600011D01*
G01X18255769Y-23591028D01*
G01X18234088Y-23585537D01*
G01X18211800Y-23583690D01*
G01X18189512Y-23585537D01*
G01X18167831Y-23591028D01*
G01X18147350Y-23600011D01*
G01X18128627Y-23612244D01*
G01X18112173Y-23627391D01*
G01X18098436Y-23645040D01*
G01X18087792Y-23664709D01*
G01X18080530Y-23685862D01*
G01X18076849Y-23707922D01*
G01X13582811Y-23707922D01*
G01X13594206Y-23695544D01*
G01X13606890Y-23676130D01*
G01X13616205Y-23654892D01*
G01X13621898Y-23632411D01*
G01X13623813Y-23609300D01*
G01X13623813Y-23609300D01*
G01X13621898Y-23586189D01*
G01X13616205Y-23563708D01*
G01X13606890Y-23542470D01*
G01X13594206Y-23523056D01*
G01X13578499Y-23505994D01*
G01X13560199Y-23491750D01*
G01X13539803Y-23480713D01*
G01X13517869Y-23473183D01*
G01X13494995Y-23469366D01*
G01X13471804Y-23469366D01*
G01X13448930Y-23473183D01*
G01X13426996Y-23480713D01*
G01X13406600Y-23491750D01*
G01X13388300Y-23505994D01*
G01X13372593Y-23523056D01*
G01X13359909Y-23542470D01*
G01X13350594Y-23563708D01*
G01X13344901Y-23586189D01*
G01X13342986Y-23609300D01*
G01X13123814Y-23609300D01*
G01X13121899Y-23586189D01*
G01X13116206Y-23563708D01*
G01X13106891Y-23542470D01*
G01X13094207Y-23523056D01*
G01X13078500Y-23505994D01*
G01X13060200Y-23491750D01*
G01X13039804Y-23480713D01*
G01X13017870Y-23473183D01*
G01X12994996Y-23469366D01*
G01X12971805Y-23469366D01*
G01X12948931Y-23473183D01*
G01X12926997Y-23480713D01*
G01X12906601Y-23491750D01*
G01X12888301Y-23505994D01*
G01X12872594Y-23523056D01*
G01X12859910Y-23542470D01*
G01X12850595Y-23563708D01*
G01X12844902Y-23586189D01*
G01X12842987Y-23609300D01*
G01X11021060Y-23609300D01*
G01X11021060Y-23279100D01*
G01X18857186Y-23279100D01*
G01X18859027Y-23299738D01*
G01X18864491Y-23319724D01*
G01X18873406Y-23338428D01*
G01X18885490Y-23355259D01*
G01X18900362Y-23369685D01*
G01X18917553Y-23381252D01*
G01X18936519Y-23389594D01*
G01X18956663Y-23394448D01*
G01X18977347Y-23395660D01*
G01X18997919Y-23393192D01*
G01X19017730Y-23387123D01*
G01X19036154Y-23377643D01*
G01X19052610Y-23365053D01*
G01X19066577Y-23349748D01*
G01X19077616Y-23332214D01*
G01X19164300Y-23332214D01*
G01X19178047Y-23330404D01*
G01X19190857Y-23325098D01*
G01X19201857Y-23316657D01*
G01X19392357Y-23126157D01*
G01X19400798Y-23115157D01*
G01X19406104Y-23102347D01*
G01X19407914Y-23088600D01*
G01X19407914Y-22956019D01*
G01X19427314Y-22945307D01*
G01X19444619Y-22931464D01*
G01X19459332Y-22914891D01*
G01X19471026Y-22896067D01*
G01X19479363Y-22875534D01*
G01X19484104Y-22853886D01*
G01X19484690Y-22841007D01*
G01X19962403Y-22841007D01*
G01X19962718Y-22861724D01*
G01X19966695Y-22882059D01*
G01X19974207Y-22901368D01*
G01X19985019Y-22919044D01*
G01X19998788Y-22934527D01*
G01X20015079Y-22947329D01*
G01X20033380Y-22957046D01*
G01X20053110Y-22963370D01*
G01X20073649Y-22966103D01*
G01X20094347Y-22965158D01*
G01X20114552Y-22960565D01*
G01X20318244Y-23164257D01*
G01X20329244Y-23172698D01*
G01X20342054Y-23178004D01*
G01X20355801Y-23179814D01*
G01X20828607Y-23179814D01*
G01X20828607Y-23187279D01*
G01X20830585Y-23199768D01*
G01X20836325Y-23211034D01*
G01X20845266Y-23219975D01*
G01X20856532Y-23225715D01*
G01X20869021Y-23227693D01*
G01X20990179Y-23227693D01*
G01X21002668Y-23225715D01*
G01X21013934Y-23219975D01*
G01X21022875Y-23211034D01*
G01X21028615Y-23199768D01*
G01X21030593Y-23187279D01*
G01X21030593Y-23066121D01*
G01X21082607Y-23066121D01*
G01X21082607Y-23187279D01*
G01X21084585Y-23199768D01*
G01X21090325Y-23211034D01*
G01X21099266Y-23219975D01*
G01X21110532Y-23225715D01*
G01X21123021Y-23227693D01*
G01X21244179Y-23227693D01*
G01X21244179Y-23227693D01*
G01X21256668Y-23225715D01*
G01X21267934Y-23219975D01*
G01X21276875Y-23211034D01*
G01X21282615Y-23199768D01*
G01X21284593Y-23187279D01*
G01X21284593Y-23139400D01*
G01X22228287Y-23139400D01*
G01X22230202Y-23162511D01*
G01X22235895Y-23184992D01*
G01X22245210Y-23206230D01*
G01X22257894Y-23225644D01*
G01X22273601Y-23242706D01*
G01X22291901Y-23256950D01*
G01X22312297Y-23267987D01*
G01X22334231Y-23275517D01*
G01X22357105Y-23279334D01*
G01X22380296Y-23279334D01*
G01X22403170Y-23275517D01*
G01X22425104Y-23267987D01*
G01X22445500Y-23256950D01*
G01X22463800Y-23242706D01*
G01X22479507Y-23225644D01*
G01X22492191Y-23206230D01*
G01X22501506Y-23184992D01*
G01X22507199Y-23162511D01*
G01X22509114Y-23139400D01*
G01X22509114Y-23139400D01*
G01X22508544Y-23132521D01*
G01X22728454Y-23132521D01*
G01X22729181Y-23155229D01*
G01X22733560Y-23177522D01*
G01X22741477Y-23198818D01*
G01X22752725Y-23218558D01*
G01X22767009Y-23236225D01*
G01X22783955Y-23251357D01*
G01X22803121Y-23263559D01*
G01X22824002Y-23272510D01*
G01X22846055Y-23277976D01*
G01X22868700Y-23279814D01*
G01X22891344Y-23277976D01*
G01X22913397Y-23272510D01*
G01X22934278Y-23263559D01*
G01X22953444Y-23251357D01*
G01X22970390Y-23236225D01*
G01X22984674Y-23218558D01*
G01X22995922Y-23198818D01*
G01X23003839Y-23177522D01*
G01X23008218Y-23155229D01*
G01X23008945Y-23132521D01*
G01X23005999Y-23109994D01*
G01X22999566Y-23088590D01*
G01X25604791Y-23088590D01*
G01X25606697Y-23110368D01*
G01X25612355Y-23131484D01*
G01X25621594Y-23151297D01*
G01X25634133Y-23169204D01*
G01X25649591Y-23184662D01*
G01X25667498Y-23197201D01*
G01X25687311Y-23206440D01*
G01X25708427Y-23212098D01*
G01X25730205Y-23214004D01*
G01X25751983Y-23212098D01*
G01X25773099Y-23206440D01*
G01X25792912Y-23197201D01*
G01X25810819Y-23184662D01*
G01X25826278Y-23169204D01*
G01X25838817Y-23151297D01*
G01X25848055Y-23131484D01*
G01X25853714Y-23110368D01*
G01X25855619Y-23088590D01*
G01X25855619Y-23088590D01*
G01X26112791Y-23088590D01*
G01X26114697Y-23110368D01*
G01X26120355Y-23131484D01*
G01X26129594Y-23151297D01*
G01X26142133Y-23169204D01*
G01X26157591Y-23184662D01*
G01X26175498Y-23197201D01*
G01X26195311Y-23206440D01*
G01X26216427Y-23212098D01*
G01X26238205Y-23214004D01*
G01X26259983Y-23212098D01*
G01X26281099Y-23206440D01*
G01X26300912Y-23197201D01*
G01X26318819Y-23184662D01*
G01X26334278Y-23169204D01*
G01X26339389Y-23161904D01*
G01X30213066Y-23161904D01*
G01X30213066Y-23185095D01*
G01X30216883Y-23207969D01*
G01X30224413Y-23229903D01*
G01X30235450Y-23250299D01*
G01X30249694Y-23268599D01*
G01X30266756Y-23284306D01*
G01X30286170Y-23296990D01*
G01X30307408Y-23306305D01*
G01X30329889Y-23311998D01*
G01X30353000Y-23313913D01*
G01X30376111Y-23311998D01*
G01X30398592Y-23306305D01*
G01X30419830Y-23296990D01*
G01X30439244Y-23284306D01*
G01X30456306Y-23268599D01*
G01X30470550Y-23250299D01*
G01X30481587Y-23229903D01*
G01X30489117Y-23207969D01*
G01X30492934Y-23185095D01*
G01X30492934Y-23161904D01*
G01X30489117Y-23139030D01*
G01X30481587Y-23117096D01*
G01X30470550Y-23096700D01*
G01X30456306Y-23078400D01*
G01X30439244Y-23062693D01*
G01X30419830Y-23050009D01*
G01X30398592Y-23040694D01*
G01X30376111Y-23035001D01*
G01X30353000Y-23033086D01*
G01X30353000Y-23033086D01*
G01X30329889Y-23035001D01*
G01X30307408Y-23040694D01*
G01X30286170Y-23050009D01*
G01X30266756Y-23062693D01*
G01X30249694Y-23078400D01*
G01X30235450Y-23096700D01*
G01X30224413Y-23117096D01*
G01X30216883Y-23139030D01*
G01X30213066Y-23161904D01*
G01X26339389Y-23161904D01*
G01X26346817Y-23151297D01*
G01X26356055Y-23131484D01*
G01X26361714Y-23110368D01*
G01X26363619Y-23088590D01*
G01X26363619Y-23088590D01*
G01X26361714Y-23066812D01*
G01X26356055Y-23045696D01*
G01X26346817Y-23025883D01*
G01X26334278Y-23007975D01*
G01X26318819Y-22992517D01*
G01X26300912Y-22979978D01*
G01X26281099Y-22970739D01*
G01X26259983Y-22965081D01*
G01X26238205Y-22963176D01*
G01X26216427Y-22965081D01*
G01X26195311Y-22970739D01*
G01X26175498Y-22979978D01*
G01X26157591Y-22992517D01*
G01X26142133Y-23007975D01*
G01X26129594Y-23025883D01*
G01X26120355Y-23045696D01*
G01X26114697Y-23066812D01*
G01X26112791Y-23088590D01*
G01X25855619Y-23088590D01*
G01X25853714Y-23066812D01*
G01X25848055Y-23045696D01*
G01X25838817Y-23025883D01*
G01X25826278Y-23007975D01*
G01X25810819Y-22992517D01*
G01X25792912Y-22979978D01*
G01X25773099Y-22970739D01*
G01X25751983Y-22965081D01*
G01X25730205Y-22963176D01*
G01X25708427Y-22965081D01*
G01X25687311Y-22970739D01*
G01X25667498Y-22979978D01*
G01X25649591Y-22992517D01*
G01X25634133Y-23007975D01*
G01X25621594Y-23025883D01*
G01X25612355Y-23045696D01*
G01X25606697Y-23066812D01*
G01X25604791Y-23088590D01*
G01X22999566Y-23088590D01*
G01X22999460Y-23088236D01*
G01X22989497Y-23067817D01*
G01X22976371Y-23049273D01*
G01X22960426Y-23033088D01*
G01X22942081Y-23019687D01*
G01X22921813Y-23009420D01*
G01X22921813Y-22580590D01*
G01X25604791Y-22580590D01*
G01X25606697Y-22602368D01*
G01X25612355Y-22623484D01*
G01X25621594Y-22643297D01*
G01X25634133Y-22661204D01*
G01X25649591Y-22676662D01*
G01X25667498Y-22689201D01*
G01X25687311Y-22698440D01*
G01X25708427Y-22704098D01*
G01X25730205Y-22706004D01*
G01X25751983Y-22704098D01*
G01X25773099Y-22698440D01*
G01X25792912Y-22689201D01*
G01X25810819Y-22676662D01*
G01X25826278Y-22661204D01*
G01X25838817Y-22643297D01*
G01X25848055Y-22623484D01*
G01X25853714Y-22602368D01*
G01X25854964Y-22588071D01*
G01X25859015Y-22588071D01*
G01X25862057Y-22609023D01*
G01X25868580Y-22629165D01*
G01X25878399Y-22647923D01*
G01X25891233Y-22664761D01*
G01X25906717Y-22679201D01*
G01X25924408Y-22690830D01*
G01X25943805Y-22699318D01*
G01X25964352Y-22704422D01*
G01X25985465Y-22705997D01*
G01X26006542Y-22703998D01*
G01X26026983Y-22698482D01*
G01X26187958Y-22859457D01*
G01X26198958Y-22867898D01*
G01X26211768Y-22873204D01*
G01X26225515Y-22875014D01*
G01X28117800Y-22875014D01*
G01X28131547Y-22873204D01*
G01X28144357Y-22867898D01*
G01X28155357Y-22859457D01*
G01X28340911Y-22673903D01*
G01X28392077Y-22673903D01*
G01X28394038Y-22695337D01*
G01X28399784Y-22716080D01*
G01X28409131Y-22735468D01*
G01X28421781Y-22752882D01*
G01X28437328Y-22767766D01*
G01X28455277Y-22779644D01*
G01X28475054Y-22788137D01*
G01X28496027Y-22792974D01*
G01X28517526Y-22793999D01*
G01X28538864Y-22791181D01*
G01X28559360Y-22784609D01*
G01X28578358Y-22774493D01*
G01X28595251Y-22761156D01*
G01X28609501Y-22745025D01*
G01X28620651Y-22726614D01*
G01X30223020Y-22726614D01*
G01X30233287Y-22746882D01*
G01X30246688Y-22765227D01*
G01X30262873Y-22781172D01*
G01X30281417Y-22794298D01*
G01X30301836Y-22804261D01*
G01X30323594Y-22810800D01*
G01X30346121Y-22813746D01*
G01X30368829Y-22813019D01*
G01X30391122Y-22808640D01*
G01X30412418Y-22800723D01*
G01X30432158Y-22789475D01*
G01X30449825Y-22775191D01*
G01X30464957Y-22758245D01*
G01X30477159Y-22739079D01*
G01X30486110Y-22718198D01*
G01X30491576Y-22696145D01*
G01X30493414Y-22673500D01*
G01X30491576Y-22650856D01*
G01X30486110Y-22628803D01*
G01X30477159Y-22607922D01*
G01X30464957Y-22588756D01*
G01X30449825Y-22571810D01*
G01X30432158Y-22557526D01*
G01X30412418Y-22546278D01*
G01X30391122Y-22538361D01*
G01X30368829Y-22533982D01*
G01X30346121Y-22533255D01*
G01X30323594Y-22536201D01*
G01X30301836Y-22542740D01*
G01X30281417Y-22552703D01*
G01X30262873Y-22565829D01*
G01X30246688Y-22581774D01*
G01X30233287Y-22600119D01*
G01X30223020Y-22620387D01*
G01X28620463Y-22620387D01*
G01X28609249Y-22602016D01*
G01X28594943Y-22585935D01*
G01X28578002Y-22572658D01*
G01X28558968Y-22562609D01*
G01X28538450Y-22556109D01*
G01X28517102Y-22553366D01*
G01X28495607Y-22554467D01*
G01X28474651Y-22559377D01*
G01X28454904Y-22567940D01*
G01X28436997Y-22579882D01*
G01X28421502Y-22594821D01*
G01X28408914Y-22612279D01*
G01X28399636Y-22631700D01*
G01X28393963Y-22652463D01*
G01X28392077Y-22673903D01*
G01X28392077Y-22673903D01*
G01X28340911Y-22673903D01*
G01X29280415Y-21734399D01*
G01X30253386Y-21734399D01*
G01X30255238Y-21757929D01*
G01X30260748Y-21780879D01*
G01X30269780Y-21802685D01*
G01X30282113Y-21822810D01*
G01X30297441Y-21840758D01*
G01X30315389Y-21856086D01*
G01X30335514Y-21868419D01*
G01X30357320Y-21877451D01*
G01X30380270Y-21882961D01*
G01X30403800Y-21884813D01*
G01X30403800Y-21884813D01*
G01X30427330Y-21882961D01*
G01X30450280Y-21877451D01*
G01X30472086Y-21868419D01*
G01X30492211Y-21856086D01*
G01X30510159Y-21840758D01*
G01X30525487Y-21822810D01*
G01X30537820Y-21802685D01*
G01X30546852Y-21780879D01*
G01X30552362Y-21757929D01*
G01X30554214Y-21734399D01*
G01X30552362Y-21710869D01*
G01X30546852Y-21687919D01*
G01X30537820Y-21666113D01*
G01X30525487Y-21645988D01*
G01X30510159Y-21628040D01*
G01X30492211Y-21612712D01*
G01X30472086Y-21600379D01*
G01X30450280Y-21591347D01*
G01X30427330Y-21585837D01*
G01X30403800Y-21583985D01*
G01X30380270Y-21585837D01*
G01X30357320Y-21591347D01*
G01X30335514Y-21600379D01*
G01X30315389Y-21612712D01*
G01X30297441Y-21628040D01*
G01X30282113Y-21645988D01*
G01X30269780Y-21666113D01*
G01X30260748Y-21687919D01*
G01X30255238Y-21710869D01*
G01X30253386Y-21734399D01*
G01X29280415Y-21734399D01*
G01X29323757Y-21691057D01*
G01X29323757Y-21691057D01*
G01X29332198Y-21680057D01*
G01X29337504Y-21667247D01*
G01X29339314Y-21653500D01*
G01X29339314Y-21234400D01*
G01X30253386Y-21234400D01*
G01X30255238Y-21257930D01*
G01X30260748Y-21280880D01*
G01X30269780Y-21302686D01*
G01X30282113Y-21322811D01*
G01X30297441Y-21340759D01*
G01X30315389Y-21356087D01*
G01X30335514Y-21368420D01*
G01X30357320Y-21377452D01*
G01X30380270Y-21382962D01*
G01X30403800Y-21384814D01*
G01X30403800Y-21384814D01*
G01X30427330Y-21382962D01*
G01X30450280Y-21377452D01*
G01X30472086Y-21368420D01*
G01X30492211Y-21356087D01*
G01X30510159Y-21340759D01*
G01X30525487Y-21322811D01*
G01X30537820Y-21302686D01*
G01X30546852Y-21280880D01*
G01X30552362Y-21257930D01*
G01X30554214Y-21234400D01*
G01X30552362Y-21210870D01*
G01X30546852Y-21187920D01*
G01X30537820Y-21166114D01*
G01X30525487Y-21145989D01*
G01X30510159Y-21128041D01*
G01X30492211Y-21112713D01*
G01X30472086Y-21100380D01*
G01X30450280Y-21091348D01*
G01X30427330Y-21085838D01*
G01X30403800Y-21083986D01*
G01X30380270Y-21085838D01*
G01X30357320Y-21091348D01*
G01X30335514Y-21100380D01*
G01X30315389Y-21112713D01*
G01X30297441Y-21128041D01*
G01X30282113Y-21145989D01*
G01X30269780Y-21166114D01*
G01X30260748Y-21187920D01*
G01X30255238Y-21210870D01*
G01X30253386Y-21234400D01*
G01X29339314Y-21234400D01*
G01X29339314Y-20532501D01*
G01X29446165Y-20425650D01*
G01X29463802Y-20424836D01*
G01X29480837Y-20420193D01*
G01X29496447Y-20411944D01*
G01X29509882Y-20400487D01*
G01X29520492Y-20386374D01*
G01X29527766Y-20370287D01*
G01X29531354Y-20352999D01*
G01X29531237Y-20345400D01*
G01X30043986Y-20345400D01*
G01X30045924Y-20362949D01*
G01X30051646Y-20379653D01*
G01X30060875Y-20394705D01*
G01X30073166Y-20407380D01*
G01X30087928Y-20417067D01*
G01X30104447Y-20423299D01*
G01X30121929Y-20425776D01*
G01X30139530Y-20424378D01*
G01X30156401Y-20419172D01*
G01X30171729Y-20410410D01*
G01X30184776Y-20398514D01*
G01X30267499Y-20398514D01*
G01X30350686Y-20481701D01*
G01X30350686Y-20481701D01*
G01X30350686Y-20593677D01*
G01X30328479Y-20604205D01*
G01X30308283Y-20618208D01*
G01X30290637Y-20635313D01*
G01X30276012Y-20655063D01*
G01X30264798Y-20676931D01*
G01X30257295Y-20700334D01*
G01X30253703Y-20724645D01*
G01X30254118Y-20749218D01*
G01X30258529Y-20773394D01*
G01X30266817Y-20796530D01*
G01X30278763Y-20818007D01*
G01X30294047Y-20837253D01*
G01X30312260Y-20853752D01*
G01X30332917Y-20867066D01*
G01X30355467Y-20876838D01*
G01X30379306Y-20882807D01*
G01X30403800Y-20884815D01*
G01X30428294Y-20882807D01*
G01X30452133Y-20876838D01*
G01X30474683Y-20867066D01*
G01X30495340Y-20853752D01*
G01X30513553Y-20837253D01*
G01X30528837Y-20818007D01*
G01X30540783Y-20796530D01*
G01X30549071Y-20773394D01*
G01X30553482Y-20749218D01*
G01X30553897Y-20724645D01*
G01X30550305Y-20700334D01*
G01X30542802Y-20676931D01*
G01X30531588Y-20655063D01*
G01X30516963Y-20635313D01*
G01X30499317Y-20618208D01*
G01X30479121Y-20604205D01*
G01X30456914Y-20593677D01*
G01X30456914Y-20459700D01*
G01X30455104Y-20445953D01*
G01X30449798Y-20433143D01*
G01X30441357Y-20422143D01*
G01X30441357Y-20422143D01*
G01X30327057Y-20307843D01*
G01X30316057Y-20299402D01*
G01X30303247Y-20294096D01*
G01X30289500Y-20292286D01*
G01X30184776Y-20292286D01*
G01X30171729Y-20280390D01*
G01X30156401Y-20271628D01*
G01X30139530Y-20266422D01*
G01X30121929Y-20265024D01*
G01X30104447Y-20267501D01*
G01X30087928Y-20273733D01*
G01X30073166Y-20283420D01*
G01X30060875Y-20296095D01*
G01X30051646Y-20311147D01*
G01X30045924Y-20327851D01*
G01X30043986Y-20345400D01*
G01X29531237Y-20345400D01*
G01X29531083Y-20335345D01*
G01X29526965Y-20318176D01*
G01X29519200Y-20302319D01*
G01X29508161Y-20288539D01*
G01X29494381Y-20277500D01*
G01X29478524Y-20269735D01*
G01X29461355Y-20265617D01*
G01X29443701Y-20265346D01*
G01X29426413Y-20268934D01*
G01X29410326Y-20276208D01*
G01X29396213Y-20286818D01*
G01X29384756Y-20300253D01*
G01X29376507Y-20315863D01*
G01X29371864Y-20332898D01*
G01X29371050Y-20350535D01*
G01X29248643Y-20472943D01*
G01X29248643Y-20472943D01*
G01X29240202Y-20483943D01*
G01X29234896Y-20496753D01*
G01X29233086Y-20510500D01*
G01X29233086Y-21631499D01*
G01X29233086Y-21631499D01*
G01X28095799Y-22768786D01*
G01X26247516Y-22768786D01*
G01X26102098Y-22623368D01*
G01X26107614Y-22602927D01*
G01X26109613Y-22581850D01*
G01X26109519Y-22580590D01*
G01X26112791Y-22580590D01*
G01X26114697Y-22602368D01*
G01X26120355Y-22623484D01*
G01X26129594Y-22643297D01*
G01X26142133Y-22661204D01*
G01X26157591Y-22676662D01*
G01X26175498Y-22689201D01*
G01X26195311Y-22698440D01*
G01X26216427Y-22704098D01*
G01X26238205Y-22706004D01*
G01X26259983Y-22704098D01*
G01X26281099Y-22698440D01*
G01X26300912Y-22689201D01*
G01X26318819Y-22676662D01*
G01X26334278Y-22661204D01*
G01X26346817Y-22643297D01*
G01X26356055Y-22623484D01*
G01X26361714Y-22602368D01*
G01X26363619Y-22580590D01*
G01X26363619Y-22580590D01*
G01X26361714Y-22558812D01*
G01X26356055Y-22537696D01*
G01X26346817Y-22517883D01*
G01X26334278Y-22499975D01*
G01X26318819Y-22484517D01*
G01X26300912Y-22471978D01*
G01X26281099Y-22462739D01*
G01X26259983Y-22457081D01*
G01X26238205Y-22455176D01*
G01X26216427Y-22457081D01*
G01X26195311Y-22462739D01*
G01X26175498Y-22471978D01*
G01X26157591Y-22484517D01*
G01X26142133Y-22499975D01*
G01X26129594Y-22517883D01*
G01X26120355Y-22537696D01*
G01X26114697Y-22558812D01*
G01X26112791Y-22580590D01*
G01X26109519Y-22580590D01*
G01X26108037Y-22560737D01*
G01X26102933Y-22540189D01*
G01X26094446Y-22520793D01*
G01X26082816Y-22503101D01*
G01X26068376Y-22487618D01*
G01X26051538Y-22474784D01*
G01X26032780Y-22464965D01*
G01X26012639Y-22458442D01*
G01X25991686Y-22455399D01*
G01X25970521Y-22455925D01*
G01X25949746Y-22460003D01*
G01X25929952Y-22467518D01*
G01X25911705Y-22478255D01*
G01X25895524Y-22491909D01*
G01X25881870Y-22508090D01*
G01X25871133Y-22526337D01*
G01X25863618Y-22546130D01*
G01X25859540Y-22566906D01*
G01X25859015Y-22588071D01*
G01X25854964Y-22588071D01*
G01X25855619Y-22580590D01*
G01X25855619Y-22580590D01*
G01X25853714Y-22558812D01*
G01X25848055Y-22537696D01*
G01X25838817Y-22517883D01*
G01X25826278Y-22499975D01*
G01X25810819Y-22484517D01*
G01X25792912Y-22471978D01*
G01X25773099Y-22462739D01*
G01X25751983Y-22457081D01*
G01X25730205Y-22455176D01*
G01X25708427Y-22457081D01*
G01X25687311Y-22462739D01*
G01X25667498Y-22471978D01*
G01X25649591Y-22484517D01*
G01X25634133Y-22499975D01*
G01X25621594Y-22517883D01*
G01X25612355Y-22537696D01*
G01X25606697Y-22558812D01*
G01X25604791Y-22580590D01*
G01X22921813Y-22580590D01*
G01X22921813Y-22235101D01*
G01X22921813Y-22235101D01*
G01X22982052Y-22174862D01*
G01X23002963Y-22179960D01*
G01X23024447Y-22181252D01*
G01X23045819Y-22178700D01*
G01X23066395Y-22172383D01*
G01X23085517Y-22162504D01*
G01X23102575Y-22149378D01*
G01X23117024Y-22133426D01*
G01X23128402Y-22115155D01*
G01X23136346Y-22095151D01*
G01X23140601Y-22074053D01*
G01X23141032Y-22052534D01*
G01X23137626Y-22031281D01*
G01X23130490Y-22010975D01*
G01X23119853Y-21992264D01*
G01X23106054Y-21975745D01*
G01X23089536Y-21961947D01*
G01X23070824Y-21951310D01*
G01X23050518Y-21944174D01*
G01X23029266Y-21940767D01*
G01X23007747Y-21941198D01*
G01X22986648Y-21945454D01*
G01X22966644Y-21953397D01*
G01X22948374Y-21964775D01*
G01X22932421Y-21979224D01*
G01X22919296Y-21996282D01*
G01X22909417Y-22015405D01*
G01X22903100Y-22035981D01*
G01X22900547Y-22057352D01*
G01X22901840Y-22078837D01*
G01X22906937Y-22099748D01*
G01X22831142Y-22175543D01*
G01X22822701Y-22186543D01*
G01X22817395Y-22199353D01*
G01X22815586Y-22213100D01*
G01X22815586Y-23009420D01*
G01X22795318Y-23019687D01*
G01X22776973Y-23033088D01*
G01X22761028Y-23049273D01*
G01X22747902Y-23067817D01*
G01X22737939Y-23088236D01*
G01X22731400Y-23109994D01*
G01X22728454Y-23132521D01*
G01X22508544Y-23132521D01*
G01X22507199Y-23116289D01*
G01X22501506Y-23093808D01*
G01X22492191Y-23072570D01*
G01X22479507Y-23053156D01*
G01X22463800Y-23036094D01*
G01X22445500Y-23021850D01*
G01X22425104Y-23010813D01*
G01X22403170Y-23003283D01*
G01X22380296Y-22999466D01*
G01X22357105Y-22999466D01*
G01X22334231Y-23003283D01*
G01X22312297Y-23010813D01*
G01X22291901Y-23021850D01*
G01X22273601Y-23036094D01*
G01X22257894Y-23053156D01*
G01X22245210Y-23072570D01*
G01X22235895Y-23093808D01*
G01X22230202Y-23116289D01*
G01X22228287Y-23139400D01*
G01X21284593Y-23139400D01*
G01X21284593Y-23066121D01*
G01X21282615Y-23053632D01*
G01X21276875Y-23042366D01*
G01X21267934Y-23033425D01*
G01X21256668Y-23027685D01*
G01X21244179Y-23025707D01*
G01X21123021Y-23025707D01*
G01X21110532Y-23027685D01*
G01X21099266Y-23033425D01*
G01X21090325Y-23042366D01*
G01X21084585Y-23053632D01*
G01X21082607Y-23066121D01*
G01X21030593Y-23066121D01*
G01X21028615Y-23053632D01*
G01X21022875Y-23042366D01*
G01X21013934Y-23033425D01*
G01X21002668Y-23027685D01*
G01X20990179Y-23025707D01*
G01X20869021Y-23025707D01*
G01X20856532Y-23027685D01*
G01X20845266Y-23033425D01*
G01X20836325Y-23042366D01*
G01X20830585Y-23053632D01*
G01X20828607Y-23066121D01*
G01X20828607Y-23073586D01*
G01X20377802Y-23073586D01*
G01X20189666Y-22885450D01*
G01X20189666Y-22885450D01*
G01X20194259Y-22865246D01*
G01X20195205Y-22844548D01*
G01X20192472Y-22824009D01*
G01X20186147Y-22804278D01*
G01X20176430Y-22785978D01*
G01X20163628Y-22769686D01*
G01X20148145Y-22755918D01*
G01X20130470Y-22745106D01*
G01X20111160Y-22737594D01*
G01X20090825Y-22733617D01*
G01X20070108Y-22733302D01*
G01X20049662Y-22736658D01*
G01X20030132Y-22743580D01*
G01X20012136Y-22753849D01*
G01X19996241Y-22767140D01*
G01X19982950Y-22783035D01*
G01X19972681Y-22801031D01*
G01X19965759Y-22820561D01*
G01X19962403Y-22841007D01*
G01X19484690Y-22841007D01*
G01X19485112Y-22831748D01*
G01X19482356Y-22809759D01*
G01X19475917Y-22788555D01*
G01X19465981Y-22768746D01*
G01X19452834Y-22750906D01*
G01X19436857Y-22735549D01*
G01X19418510Y-22723119D01*
G01X19398324Y-22713975D01*
G01X19376881Y-22708381D01*
G01X19354800Y-22706498D01*
G01X19332719Y-22708381D01*
G01X19311276Y-22713975D01*
G01X19291090Y-22723119D01*
G01X19272743Y-22735549D01*
G01X19256766Y-22750906D01*
G01X19243619Y-22768746D01*
G01X19233683Y-22788555D01*
G01X19227244Y-22809759D01*
G01X19224488Y-22831748D01*
G01X19225496Y-22853886D01*
G01X19230237Y-22875534D01*
G01X19238574Y-22896067D01*
G01X19250268Y-22914891D01*
G01X19264981Y-22931464D01*
G01X19282286Y-22945307D01*
G01X19301686Y-22956019D01*
G01X19301686Y-23066599D01*
G01X19142299Y-23225986D01*
G01X19077616Y-23225986D01*
G01X19077616Y-23225986D01*
G01X19066577Y-23208452D01*
G01X19052610Y-23193147D01*
G01X19036154Y-23180557D01*
G01X19017730Y-23171077D01*
G01X18997919Y-23165008D01*
G01X18977347Y-23162540D01*
G01X18956663Y-23163752D01*
G01X18936519Y-23168606D01*
G01X18917553Y-23176948D01*
G01X18900362Y-23188515D01*
G01X18885490Y-23202941D01*
G01X18873406Y-23219772D01*
G01X18864491Y-23238476D01*
G01X18859027Y-23258462D01*
G01X18857186Y-23279100D01*
G01X11021060Y-23279100D01*
G01X11021060Y-22746398D01*
G01X14134884Y-22746398D01*
G01X14136859Y-22771493D01*
G01X14142735Y-22795969D01*
G01X14152368Y-22819225D01*
G01X14165520Y-22840687D01*
G01X14181868Y-22859828D01*
G01X14201009Y-22876176D01*
G01X14222472Y-22889328D01*
G01X14245727Y-22898961D01*
G01X14270204Y-22904837D01*
G01X14295298Y-22906812D01*
G01X14320392Y-22904837D01*
G01X14344868Y-22898961D01*
G01X14368124Y-22889328D01*
G01X14389587Y-22876176D01*
G01X14408727Y-22859828D01*
G01X14425075Y-22840687D01*
G01X14438227Y-22819225D01*
G01X14447860Y-22795969D01*
G01X14453737Y-22771493D01*
G01X14455712Y-22746398D01*
G01X14474889Y-22746398D01*
G01X14476863Y-22771493D01*
G01X14482740Y-22795969D01*
G01X14492373Y-22819225D01*
G01X14505525Y-22840687D01*
G01X14521873Y-22859828D01*
G01X14541013Y-22876176D01*
G01X14562476Y-22889328D01*
G01X14585732Y-22898961D01*
G01X14610208Y-22904837D01*
G01X14635302Y-22906812D01*
G01X14660396Y-22904837D01*
G01X14684873Y-22898961D01*
G01X14708128Y-22889328D01*
G01X14729591Y-22876176D01*
G01X14748732Y-22859828D01*
G01X14765080Y-22840687D01*
G01X14778232Y-22819225D01*
G01X14787865Y-22795969D01*
G01X14793741Y-22771493D01*
G01X14795716Y-22746398D01*
G01X14793741Y-22721304D01*
G01X14787865Y-22696828D01*
G01X14778232Y-22673572D01*
G01X14765080Y-22652110D01*
G01X14748732Y-22632969D01*
G01X14729591Y-22616621D01*
G01X14708128Y-22603469D01*
G01X14684873Y-22593836D01*
G01X14660396Y-22587960D01*
G01X14635302Y-22585985D01*
G01X14635302Y-22585985D01*
G01X14610208Y-22587960D01*
G01X14585732Y-22593836D01*
G01X14562476Y-22603469D01*
G01X14541013Y-22616621D01*
G01X14521873Y-22632969D01*
G01X14505525Y-22652110D01*
G01X14492373Y-22673572D01*
G01X14482740Y-22696828D01*
G01X14476863Y-22721304D01*
G01X14474889Y-22746398D01*
G01X14455712Y-22746398D01*
G01X14453737Y-22721304D01*
G01X14447860Y-22696828D01*
G01X14438227Y-22673572D01*
G01X14425075Y-22652110D01*
G01X14408727Y-22632969D01*
G01X14389587Y-22616621D01*
G01X14368124Y-22603469D01*
G01X14344868Y-22593836D01*
G01X14320392Y-22587960D01*
G01X14295298Y-22585985D01*
G01X14295298Y-22585985D01*
G01X14270204Y-22587960D01*
G01X14245727Y-22593836D01*
G01X14222472Y-22603469D01*
G01X14201009Y-22616621D01*
G01X14181868Y-22632969D01*
G01X14165520Y-22652110D01*
G01X14152368Y-22673572D01*
G01X14142735Y-22696828D01*
G01X14136859Y-22721304D01*
G01X14134884Y-22746398D01*
G01X11021060Y-22746398D01*
G01X11021060Y-22070205D01*
G01X12315574Y-22070205D01*
G01X12315574Y-22150205D01*
G01X12317478Y-22172411D01*
G01X12323136Y-22193968D01*
G01X12332382Y-22214248D01*
G01X12344946Y-22232657D01*
G01X12360461Y-22248657D01*
G01X12378474Y-22261783D01*
G01X12398459Y-22271649D01*
G01X12419832Y-22277969D01*
G01X12441969Y-22280556D01*
G01X12464223Y-22279337D01*
G01X12485945Y-22274346D01*
G01X12506499Y-22265730D01*
G01X12525287Y-22253739D01*
G01X12541758Y-22238724D01*
G01X12555432Y-22221124D01*
G01X12565910Y-22201453D01*
G01X12572885Y-22180285D01*
G01X12579778Y-22201707D01*
G01X12590252Y-22221625D01*
G01X12603995Y-22239447D01*
G01X12620596Y-22254640D01*
G01X12639563Y-22266753D01*
G01X12660329Y-22275425D01*
G01X12682277Y-22280397D01*
G01X12704753Y-22281523D01*
G01X12727088Y-22278767D01*
G01X12748617Y-22272213D01*
G01X12768698Y-22262056D01*
G01X12786734Y-22248597D01*
G01X12802188Y-22232238D01*
G01X12814600Y-22213465D01*
G01X12823599Y-22192839D01*
G01X12823599Y-22241195D01*
G01X12825577Y-22253684D01*
G01X12831317Y-22264950D01*
G01X12840258Y-22273891D01*
G01X12851524Y-22279631D01*
G01X12864013Y-22281609D01*
G01X13044013Y-22281609D01*
G01X13056501Y-22279631D01*
G01X13067767Y-22273891D01*
G01X13076708Y-22264950D01*
G01X13082448Y-22253684D01*
G01X13084426Y-22241195D01*
G01X13084426Y-21981196D01*
G01X13082448Y-21968707D01*
G01X13076708Y-21957441D01*
G01X13067767Y-21948500D01*
G01X13056501Y-21942760D01*
G01X13044013Y-21940782D01*
G01X13007127Y-21940782D01*
G01X13007127Y-21754401D01*
G01X14134884Y-21754401D01*
G01X14136859Y-21779496D01*
G01X14142735Y-21803972D01*
G01X14152368Y-21827228D01*
G01X14165520Y-21848690D01*
G01X14181868Y-21867831D01*
G01X14201009Y-21884179D01*
G01X14222472Y-21897331D01*
G01X14245727Y-21906964D01*
G01X14270204Y-21912840D01*
G01X14295298Y-21914815D01*
G01X14320392Y-21912840D01*
G01X14344868Y-21906964D01*
G01X14368124Y-21897331D01*
G01X14389587Y-21884179D01*
G01X14408727Y-21867831D01*
G01X14425075Y-21848690D01*
G01X14438227Y-21827228D01*
G01X14447860Y-21803972D01*
G01X14453737Y-21779496D01*
G01X14455712Y-21754401D01*
G01X14474889Y-21754401D01*
G01X14476863Y-21779496D01*
G01X14482740Y-21803972D01*
G01X14492373Y-21827228D01*
G01X14505525Y-21848690D01*
G01X14521873Y-21867831D01*
G01X14541013Y-21884179D01*
G01X14562476Y-21897331D01*
G01X14585732Y-21906964D01*
G01X14610208Y-21912840D01*
G01X14635302Y-21914815D01*
G01X14660396Y-21912840D01*
G01X14684873Y-21906964D01*
G01X14708128Y-21897331D01*
G01X14729591Y-21884179D01*
G01X14748732Y-21867831D01*
G01X14765080Y-21848690D01*
G01X14778232Y-21827228D01*
G01X14787865Y-21803972D01*
G01X14793741Y-21779496D01*
G01X14795716Y-21754401D01*
G01X14793741Y-21729307D01*
G01X14787865Y-21704831D01*
G01X14778232Y-21681575D01*
G01X14765080Y-21660113D01*
G01X14748732Y-21640972D01*
G01X14729591Y-21624624D01*
G01X14708128Y-21611472D01*
G01X14684873Y-21601839D01*
G01X14660396Y-21595963D01*
G01X14635302Y-21593988D01*
G01X14635302Y-21593988D01*
G01X14610208Y-21595963D01*
G01X14585732Y-21601839D01*
G01X14562476Y-21611472D01*
G01X14541013Y-21624624D01*
G01X14521873Y-21640972D01*
G01X14505525Y-21660113D01*
G01X14492373Y-21681575D01*
G01X14482740Y-21704831D01*
G01X14476863Y-21729307D01*
G01X14474889Y-21754401D01*
G01X14455712Y-21754401D01*
G01X14453737Y-21729307D01*
G01X14447860Y-21704831D01*
G01X14438227Y-21681575D01*
G01X14425075Y-21660113D01*
G01X14408727Y-21640972D01*
G01X14389587Y-21624624D01*
G01X14368124Y-21611472D01*
G01X14344868Y-21601839D01*
G01X14320392Y-21595963D01*
G01X14295298Y-21593988D01*
G01X14295298Y-21593988D01*
G01X14270204Y-21595963D01*
G01X14245727Y-21601839D01*
G01X14222472Y-21611472D01*
G01X14201009Y-21624624D01*
G01X14181868Y-21640972D01*
G01X14165520Y-21660113D01*
G01X14152368Y-21681575D01*
G01X14142735Y-21704831D01*
G01X14136859Y-21729307D01*
G01X14134884Y-21754401D01*
G01X13007127Y-21754401D01*
G01X13007127Y-21639699D01*
G01X14123626Y-20523200D01*
G01X14744685Y-20523200D01*
G01X14746670Y-20544628D01*
G01X14752559Y-20565326D01*
G01X14762152Y-20584589D01*
G01X14775120Y-20601762D01*
G01X14791023Y-20616260D01*
G01X14809319Y-20627589D01*
G01X14829386Y-20635362D01*
G01X14850539Y-20639316D01*
G01X14872058Y-20639316D01*
G01X14893212Y-20635362D01*
G01X14913278Y-20627589D01*
G01X14931574Y-20616260D01*
G01X14947477Y-20601762D01*
G01X14960446Y-20584589D01*
G01X14970038Y-20565326D01*
G01X14975927Y-20544628D01*
G01X14977913Y-20523200D01*
G01X14977913Y-20523200D01*
G01X14975927Y-20501772D01*
G01X14970038Y-20481074D01*
G01X14960446Y-20461811D01*
G01X14947477Y-20444638D01*
G01X14931574Y-20430140D01*
G01X14913278Y-20418811D01*
G01X14893212Y-20411038D01*
G01X14872058Y-20407084D01*
G01X14850539Y-20407084D01*
G01X14829386Y-20411038D01*
G01X14809319Y-20418811D01*
G01X14791023Y-20430140D01*
G01X14775120Y-20444638D01*
G01X14762152Y-20461811D01*
G01X14752559Y-20481074D01*
G01X14746670Y-20501772D01*
G01X14744685Y-20523200D01*
G01X14123626Y-20523200D01*
G01X14840047Y-19806779D01*
G01X14861522Y-19812958D01*
G01X14883736Y-19815380D01*
G01X14906038Y-19813974D01*
G01X14927773Y-19808781D01*
G01X14948302Y-19799954D01*
G01X14967022Y-19787752D01*
G01X14983385Y-19772533D01*
G01X14996909Y-19754744D01*
G01X15007198Y-19734907D01*
G01X15013949Y-19713605D01*
G01X15016965Y-19691463D01*
G01X15016156Y-19669132D01*
G01X15011547Y-19647266D01*
G01X15003272Y-19626508D01*
G01X14991576Y-19607468D01*
G01X14976800Y-19590704D01*
G01X14959380Y-19576708D01*
G01X14939825Y-19565892D01*
G01X14939825Y-18812247D01*
G01X17371340Y-18812247D01*
G01X17373808Y-18832819D01*
G01X17379877Y-18852630D01*
G01X17389357Y-18871054D01*
G01X17401947Y-18887510D01*
G01X17417252Y-18901477D01*
G01X17434786Y-18912516D01*
G01X17434786Y-22324384D01*
G01X17417252Y-22335423D01*
G01X17401947Y-22349390D01*
G01X17389357Y-22365846D01*
G01X17379877Y-22384270D01*
G01X17373808Y-22404081D01*
G01X17371340Y-22424653D01*
G01X17372552Y-22445337D01*
G01X17377406Y-22465481D01*
G01X17385748Y-22484447D01*
G01X17397315Y-22501638D01*
G01X17411741Y-22516510D01*
G01X17428572Y-22528594D01*
G01X17447276Y-22537509D01*
G01X17467262Y-22542973D01*
G01X17487900Y-22544814D01*
G01X17487900Y-22544814D01*
G01X17508538Y-22542973D01*
G01X17528524Y-22537509D01*
G01X17547228Y-22528594D01*
G01X17564059Y-22516510D01*
G01X17578485Y-22501638D01*
G01X17590052Y-22484447D01*
G01X17598394Y-22465481D01*
G01X17603248Y-22445337D01*
G01X17604460Y-22424653D01*
G01X17601992Y-22404081D01*
G01X17595923Y-22384270D01*
G01X17586443Y-22365846D01*
G01X17573853Y-22349390D01*
G01X17558548Y-22335423D01*
G01X17541014Y-22324384D01*
G01X17541014Y-21954805D01*
G01X21904074Y-21954805D01*
G01X21904074Y-22214804D01*
G01X21906052Y-22227293D01*
G01X21911792Y-22238559D01*
G01X21920733Y-22247500D01*
G01X21931999Y-22253240D01*
G01X21944487Y-22255218D01*
G01X22124487Y-22255218D01*
G01X22136976Y-22253240D01*
G01X22148242Y-22247500D01*
G01X22157183Y-22238559D01*
G01X22162923Y-22227293D01*
G01X22164901Y-22214804D01*
G01X22164901Y-22166448D01*
G01X22173868Y-22187015D01*
G01X22186227Y-22205741D01*
G01X22201614Y-22222071D01*
G01X22219571Y-22235522D01*
G01X22239569Y-22245696D01*
G01X22261014Y-22252292D01*
G01X22283273Y-22255114D01*
G01X22305686Y-22254079D01*
G01X22327589Y-22249218D01*
G01X22348336Y-22240675D01*
G01X22367311Y-22228702D01*
G01X22383953Y-22213653D01*
G01X22397769Y-22195975D01*
G01X22408351Y-22176190D01*
G01X22415385Y-22154885D01*
G01X22422217Y-22176162D01*
G01X22432583Y-22195960D01*
G01X22446175Y-22213698D01*
G01X22462597Y-22228855D01*
G01X22481366Y-22240985D01*
G01X22501929Y-22249734D01*
G01X22523685Y-22254843D01*
G01X22545993Y-22256163D01*
G01X22568199Y-22253654D01*
G01X22589651Y-22247392D01*
G01X22609719Y-22237559D01*
G01X22627813Y-22224444D01*
G01X22643403Y-22208433D01*
G01X22656030Y-22189995D01*
G01X22665324Y-22169672D01*
G01X22671012Y-22148060D01*
G01X22672926Y-22125795D01*
G01X22672926Y-22045795D01*
G01X22671022Y-22023589D01*
G01X22665364Y-22002032D01*
G01X22656118Y-21981752D01*
G01X22643554Y-21963343D01*
G01X22628039Y-21947343D01*
G01X22610026Y-21934217D01*
G01X22590041Y-21924351D01*
G01X22568668Y-21918031D01*
G01X22546531Y-21915444D01*
G01X22524277Y-21916663D01*
G01X22502555Y-21921654D01*
G01X22482001Y-21930270D01*
G01X22463213Y-21942261D01*
G01X22446742Y-21957276D01*
G01X22433068Y-21974876D01*
G01X22422590Y-21994547D01*
G01X22415615Y-22015715D01*
G01X22408722Y-21994293D01*
G01X22398248Y-21974375D01*
G01X22384505Y-21956553D01*
G01X22367904Y-21941360D01*
G01X22348937Y-21929247D01*
G01X22328171Y-21920575D01*
G01X22306223Y-21915603D01*
G01X22283747Y-21914477D01*
G01X22261412Y-21917233D01*
G01X22239883Y-21923787D01*
G01X22219802Y-21933944D01*
G01X22201766Y-21947403D01*
G01X22186312Y-21963762D01*
G01X22173900Y-21982535D01*
G01X22164901Y-22003161D01*
G01X22164901Y-21954805D01*
G01X22164901Y-21954805D01*
G01X22162923Y-21942316D01*
G01X22157183Y-21931050D01*
G01X22148242Y-21922109D01*
G01X22136976Y-21916369D01*
G01X22124487Y-21914391D01*
G01X21944487Y-21914391D01*
G01X21931999Y-21916369D01*
G01X21920733Y-21922109D01*
G01X21911792Y-21931050D01*
G01X21906052Y-21942316D01*
G01X21904074Y-21954805D01*
G01X17541014Y-21954805D01*
G01X17541014Y-21558668D01*
G01X18076788Y-21558668D01*
G01X18076973Y-21581687D01*
G01X18081054Y-21604342D01*
G01X18088913Y-21625979D01*
G01X18100324Y-21645972D01*
G01X18114956Y-21663744D01*
G01X18132388Y-21678780D01*
G01X18152114Y-21690646D01*
G01X18173565Y-21698999D01*
G01X18196121Y-21703599D01*
G01X18219130Y-21704311D01*
G01X18241927Y-21701116D01*
G01X18263854Y-21694105D01*
G01X18284276Y-21683482D01*
G01X18302604Y-21669553D01*
G01X18318307Y-21652720D01*
G01X18330933Y-21633472D01*
G01X18340116Y-21612362D01*
G01X18345590Y-21590003D01*
G01X19235692Y-21590003D01*
G01X19246810Y-21610005D01*
G01X19261253Y-21627755D01*
G01X19278577Y-21642708D01*
G01X19298247Y-21654402D01*
G01X19319659Y-21662479D01*
G01X19342153Y-21666688D01*
G01X19365036Y-21666900D01*
G01X19387604Y-21663109D01*
G01X19409162Y-21655432D01*
G01X19429046Y-21644105D01*
G01X19446644Y-21629476D01*
G01X19698230Y-21881062D01*
G01X19709230Y-21889503D01*
G01X19722040Y-21894809D01*
G01X19735787Y-21896619D01*
G01X20627911Y-21896619D01*
G01X20640958Y-21908515D01*
G01X20656286Y-21917277D01*
G01X20673158Y-21922482D01*
G01X20690758Y-21923881D01*
G01X20708240Y-21921404D01*
G01X20724760Y-21915172D01*
G01X20739521Y-21905485D01*
G01X20751812Y-21892809D01*
G01X20761041Y-21877757D01*
G01X20766763Y-21861054D01*
G01X20768701Y-21843505D01*
G01X20766763Y-21825955D01*
G01X20761041Y-21809252D01*
G01X20751812Y-21794200D01*
G01X20739521Y-21781525D01*
G01X20724760Y-21771838D01*
G01X20708240Y-21765606D01*
G01X20690758Y-21763129D01*
G01X20673158Y-21764527D01*
G01X20656286Y-21769733D01*
G01X20640958Y-21778495D01*
G01X20627911Y-21790391D01*
G01X19757788Y-21790391D01*
G01X19757788Y-21790391D01*
G01X19506239Y-21538842D01*
G01X19962584Y-21538842D01*
G01X19962584Y-21560361D01*
G01X19966538Y-21581514D01*
G01X19974311Y-21601581D01*
G01X19985640Y-21619877D01*
G01X20000138Y-21635780D01*
G01X20017311Y-21648748D01*
G01X20036574Y-21658341D01*
G01X20057272Y-21664230D01*
G01X20078700Y-21666215D01*
G01X20100128Y-21664230D01*
G01X20120826Y-21658341D01*
G01X20140089Y-21648748D01*
G01X20157262Y-21635780D01*
G01X20171760Y-21619877D01*
G01X20183089Y-21601581D01*
G01X20190862Y-21581514D01*
G01X20194816Y-21560361D01*
G01X20194816Y-21538842D01*
G01X20190862Y-21517688D01*
G01X20183089Y-21497622D01*
G01X20171760Y-21479326D01*
G01X20157262Y-21463423D01*
G01X20140089Y-21450454D01*
G01X20120826Y-21440862D01*
G01X20100128Y-21434973D01*
G01X20078700Y-21432987D01*
G01X20078700Y-21432987D01*
G01X20057272Y-21434973D01*
G01X20036574Y-21440862D01*
G01X20017311Y-21450454D01*
G01X20000138Y-21463423D01*
G01X19985640Y-21479326D01*
G01X19974311Y-21497622D01*
G01X19966538Y-21517688D01*
G01X19962584Y-21538842D01*
G01X19506239Y-21538842D01*
G01X19483556Y-21516159D01*
G01X19478157Y-21494571D01*
G01X19469168Y-21474216D01*
G01X19456848Y-21455686D01*
G01X19441558Y-21439519D01*
G01X19423742Y-21426187D01*
G01X19403919Y-21416079D01*
G01X19382666Y-21409487D01*
G01X19360601Y-21406604D01*
G01X19338368Y-21407514D01*
G01X19316613Y-21412191D01*
G01X19295970Y-21420498D01*
G01X19277040Y-21432193D01*
G01X19260373Y-21446937D01*
G01X19246456Y-21464299D01*
G01X19235692Y-21483775D01*
G01X18316953Y-21483775D01*
G01X18300982Y-21467196D01*
G01X18282433Y-21453563D01*
G01X18261843Y-21443268D01*
G01X18239807Y-21436610D01*
G01X18216961Y-21433780D01*
G01X18193967Y-21434861D01*
G01X18171487Y-21439822D01*
G01X18150173Y-21448518D01*
G01X18130640Y-21460699D01*
G01X18113452Y-21476012D01*
G01X18099106Y-21494016D01*
G01X18088017Y-21514189D01*
G01X18080506Y-21535949D01*
G01X18076788Y-21558668D01*
G01X17541014Y-21558668D01*
G01X17541014Y-19075413D01*
G01X18764486Y-19075413D01*
G01X18766316Y-19096322D01*
G01X18771748Y-19116597D01*
G01X18780619Y-19135620D01*
G01X18792658Y-19152813D01*
G01X18807500Y-19167655D01*
G01X18824693Y-19179694D01*
G01X18843716Y-19188565D01*
G01X18863990Y-19193997D01*
G01X18884900Y-19195826D01*
G01X18905810Y-19193997D01*
G01X18926084Y-19188565D01*
G01X18945107Y-19179694D01*
G01X18962300Y-19167655D01*
G01X18977142Y-19152813D01*
G01X18989181Y-19135620D01*
G01X18998052Y-19116597D01*
G01X19003484Y-19096322D01*
G01X19005314Y-19075413D01*
G01X19003484Y-19054503D01*
G01X18998052Y-19034229D01*
G01X18989181Y-19015206D01*
G01X18977142Y-18998012D01*
G01X18962300Y-18983170D01*
G01X18945107Y-18971131D01*
G01X18926084Y-18962261D01*
G01X18905810Y-18956828D01*
G01X18884900Y-18954999D01*
G01X18884900Y-18954999D01*
G01X18863990Y-18956828D01*
G01X18843716Y-18962261D01*
G01X18824693Y-18971131D01*
G01X18807500Y-18983170D01*
G01X18792658Y-18998012D01*
G01X18780619Y-19015206D01*
G01X18771748Y-19034229D01*
G01X18766316Y-19054503D01*
G01X18764486Y-19075413D01*
G01X17541014Y-19075413D01*
G01X17541014Y-18912516D01*
G01X17558548Y-18901477D01*
G01X17573853Y-18887510D01*
G01X17586443Y-18871054D01*
G01X17595923Y-18852630D01*
G01X17601992Y-18832819D01*
G01X17604460Y-18812247D01*
G01X17603248Y-18791563D01*
G01X17598394Y-18771419D01*
G01X17590052Y-18752453D01*
G01X17578485Y-18735262D01*
G01X17564059Y-18720390D01*
G01X17547228Y-18708306D01*
G01X17528524Y-18699391D01*
G01X17508538Y-18693927D01*
G01X17487900Y-18692086D01*
G01X17467262Y-18693927D01*
G01X17447276Y-18699391D01*
G01X17428572Y-18708306D01*
G01X17411741Y-18720390D01*
G01X17397315Y-18735262D01*
G01X17385748Y-18752453D01*
G01X17377406Y-18771419D01*
G01X17372552Y-18791563D01*
G01X17371340Y-18812247D01*
G01X14939825Y-18812247D01*
G01X14939825Y-18777244D01*
G01X14962154Y-18771614D01*
G01X14983207Y-18762282D01*
G01X15002373Y-18749518D01*
G01X15019100Y-18733692D01*
G01X15032903Y-18715259D01*
G01X15043384Y-18694755D01*
G01X15050239Y-18672771D01*
G01X15053269Y-18649943D01*
G01X15052388Y-18626932D01*
G01X15047621Y-18604403D01*
G01X15039105Y-18583008D01*
G01X15027087Y-18563365D01*
G01X15011915Y-18546042D01*
G01X14994027Y-18531540D01*
G01X14973940Y-18520279D01*
G01X14952236Y-18512585D01*
G01X14929542Y-18508679D01*
G01X14906514Y-18508675D01*
G01X14883819Y-18512572D01*
G01X14862112Y-18520259D01*
G01X14842021Y-18531513D01*
G01X14824128Y-18546008D01*
G01X14808949Y-18563326D01*
G01X14796925Y-18582965D01*
G01X14788401Y-18604357D01*
G01X14783626Y-18626884D01*
G01X14782737Y-18649895D01*
G01X14785759Y-18672724D01*
G01X14792606Y-18694710D01*
G01X14803080Y-18715218D01*
G01X14816876Y-18733656D01*
G01X14833597Y-18749489D01*
G01X14833597Y-19565892D01*
G01X14814366Y-19576493D01*
G01X14797185Y-19590170D01*
G01X14782543Y-19606535D01*
G01X14770854Y-19625126D01*
G01X14762451Y-19645414D01*
G01X14757570Y-19666825D01*
G01X14756352Y-19688751D01*
G01X14758829Y-19710570D01*
G01X14764932Y-19731665D01*
G01X12916455Y-21580141D01*
G01X12908015Y-21591142D01*
G01X12902709Y-21603952D01*
G01X12900899Y-21617699D01*
G01X12900899Y-21940782D01*
G01X12900899Y-21940782D01*
G01X12864013Y-21940782D01*
G01X12851524Y-21942760D01*
G01X12840258Y-21948500D01*
G01X12831317Y-21957441D01*
G01X12825577Y-21968707D01*
G01X12823599Y-21981196D01*
G01X12823599Y-22029552D01*
G01X12814632Y-22008985D01*
G01X12802273Y-21990259D01*
G01X12786886Y-21973929D01*
G01X12768929Y-21960478D01*
G01X12748931Y-21950304D01*
G01X12727486Y-21943708D01*
G01X12705227Y-21940886D01*
G01X12682814Y-21941921D01*
G01X12660911Y-21946782D01*
G01X12640164Y-21955325D01*
G01X12621189Y-21967298D01*
G01X12604547Y-21982347D01*
G01X12590731Y-22000025D01*
G01X12580149Y-22019810D01*
G01X12573115Y-22041115D01*
G01X12566283Y-22019838D01*
G01X12555917Y-22000040D01*
G01X12542325Y-21982302D01*
G01X12525903Y-21967145D01*
G01X12507134Y-21955015D01*
G01X12486571Y-21946266D01*
G01X12464815Y-21941157D01*
G01X12442507Y-21939837D01*
G01X12420301Y-21942346D01*
G01X12398849Y-21948608D01*
G01X12378781Y-21958441D01*
G01X12360687Y-21971556D01*
G01X12345097Y-21987567D01*
G01X12332470Y-22006005D01*
G01X12323176Y-22026328D01*
G01X12317488Y-22047940D01*
G01X12315574Y-22070205D01*
G01X11021060Y-22070205D01*
G01X11021060Y-20723479D01*
G01X12522807Y-20723479D01*
G01X12524785Y-20735968D01*
G01X12530525Y-20747234D01*
G01X12539466Y-20756175D01*
G01X12550732Y-20761915D01*
G01X12563221Y-20763893D01*
G01X12684379Y-20763893D01*
G01X12696868Y-20761915D01*
G01X12708134Y-20756175D01*
G01X12717075Y-20747234D01*
G01X12722815Y-20735968D01*
G01X12724793Y-20723479D01*
G01X12724793Y-20602321D01*
G01X12722815Y-20589832D01*
G01X12717075Y-20578566D01*
G01X12708134Y-20569625D01*
G01X12696868Y-20563885D01*
G01X12684379Y-20561907D01*
G01X12563221Y-20561907D01*
G01X12550732Y-20563885D01*
G01X12539466Y-20569625D01*
G01X12530525Y-20578566D01*
G01X12524785Y-20589832D01*
G01X12522807Y-20602321D01*
G01X12522807Y-20723479D01*
G01X12522807Y-20723479D01*
G01X11021060Y-20723479D01*
G01X11021060Y-20348321D01*
G01X12522807Y-20348321D01*
G01X12522807Y-20469479D01*
G01X12524785Y-20481968D01*
G01X12530525Y-20493234D01*
G01X12539466Y-20502175D01*
G01X12550732Y-20507915D01*
G01X12563221Y-20509893D01*
G01X12684379Y-20509893D01*
G01X12696868Y-20507915D01*
G01X12708134Y-20502175D01*
G01X12717075Y-20493234D01*
G01X12722815Y-20481968D01*
G01X12724793Y-20469479D01*
G01X12724793Y-20462014D01*
G01X13425001Y-20462014D01*
G01X13450335Y-20487348D01*
G01X13450335Y-20487348D01*
G01X13445742Y-20507553D01*
G01X13444797Y-20528251D01*
G01X13447530Y-20548790D01*
G01X13453854Y-20568520D01*
G01X13463571Y-20586821D01*
G01X13476373Y-20603112D01*
G01X13491856Y-20616881D01*
G01X13509532Y-20627693D01*
G01X13528841Y-20635205D01*
G01X13549176Y-20639182D01*
G01X13569893Y-20639497D01*
G01X13590339Y-20636141D01*
G01X13609869Y-20629219D01*
G01X13627865Y-20618950D01*
G01X13643760Y-20605659D01*
G01X13657051Y-20589764D01*
G01X13667320Y-20571768D01*
G01X13674242Y-20552238D01*
G01X13677598Y-20531792D01*
G01X13677283Y-20511075D01*
G01X13673306Y-20490740D01*
G01X13665794Y-20471430D01*
G01X13654982Y-20453755D01*
G01X13641214Y-20438272D01*
G01X13624922Y-20425470D01*
G01X13606622Y-20415753D01*
G01X13586891Y-20409428D01*
G01X13566352Y-20406695D01*
G01X13545654Y-20407641D01*
G01X13525450Y-20412234D01*
G01X13484559Y-20371343D01*
G01X13473558Y-20362902D01*
G01X13460748Y-20357596D01*
G01X13447001Y-20355786D01*
G01X12724793Y-20355786D01*
G01X12724793Y-20348321D01*
G01X12722815Y-20335832D01*
G01X12717075Y-20324566D01*
G01X12708134Y-20315625D01*
G01X12696868Y-20309885D01*
G01X12684379Y-20307907D01*
G01X12563221Y-20307907D01*
G01X12550732Y-20309885D01*
G01X12539466Y-20315625D01*
G01X12530525Y-20324566D01*
G01X12524785Y-20335832D01*
G01X12522807Y-20348321D01*
G01X11021060Y-20348321D01*
G01X11021060Y-19685000D01*
G01X13456275Y-19685000D01*
G01X13458256Y-19707646D01*
G01X13464140Y-19729604D01*
G01X13473747Y-19750207D01*
G01X13486786Y-19768828D01*
G01X13502860Y-19784903D01*
G01X13521482Y-19797942D01*
G01X13542084Y-19807549D01*
G01X13564042Y-19813432D01*
G01X13586689Y-19815414D01*
G01X13609335Y-19813432D01*
G01X13631293Y-19807549D01*
G01X13651895Y-19797942D01*
G01X13670517Y-19784903D01*
G01X13686591Y-19768828D01*
G01X13699630Y-19750207D01*
G01X13709237Y-19729604D01*
G01X13715121Y-19707646D01*
G01X13717102Y-19685000D01*
G01X13715121Y-19662354D01*
G01X13709237Y-19640396D01*
G01X13699630Y-19619793D01*
G01X13686591Y-19601172D01*
G01X13670517Y-19585097D01*
G01X13651895Y-19572058D01*
G01X13631293Y-19562451D01*
G01X13609335Y-19556568D01*
G01X13586689Y-19554586D01*
G01X13564042Y-19556568D01*
G01X13542084Y-19562451D01*
G01X13521482Y-19572058D01*
G01X13502860Y-19585097D01*
G01X13486786Y-19601172D01*
G01X13473747Y-19619793D01*
G01X13464140Y-19640396D01*
G01X13458256Y-19662354D01*
G01X13456275Y-19685000D01*
G01X13456275Y-19685000D01*
G01X11021060Y-19685000D01*
G01X11021060Y-18643600D01*
G01X12632582Y-18643600D01*
G01X12634429Y-18665888D01*
G01X12639919Y-18687569D01*
G01X12648903Y-18708050D01*
G01X12661135Y-18726773D01*
G01X12676283Y-18743227D01*
G01X12693931Y-18756964D01*
G01X12713601Y-18767608D01*
G01X12734754Y-18774870D01*
G01X12756813Y-18778551D01*
G01X12779178Y-18778551D01*
G01X12801238Y-18774870D01*
G01X12822391Y-18767608D01*
G01X12842060Y-18756964D01*
G01X12859709Y-18743227D01*
G01X12874856Y-18726773D01*
G01X12887089Y-18708050D01*
G01X12896072Y-18687569D01*
G01X12901563Y-18665888D01*
G01X12903410Y-18643600D01*
G01X12901563Y-18621312D01*
G01X12896072Y-18599631D01*
G01X12887089Y-18579150D01*
G01X12874856Y-18560427D01*
G01X12859709Y-18543973D01*
G01X12842060Y-18530236D01*
G01X12822391Y-18519592D01*
G01X12801238Y-18512330D01*
G01X12779178Y-18508649D01*
G01X12756813Y-18508649D01*
G01X12734754Y-18512330D01*
G01X12713601Y-18519592D01*
G01X12693931Y-18530236D01*
G01X12676283Y-18543973D01*
G01X12661135Y-18560427D01*
G01X12648903Y-18579150D01*
G01X12639919Y-18599631D01*
G01X12634429Y-18621312D01*
G01X12632582Y-18643600D01*
G01X12632582Y-18643600D01*
G01X11021060Y-18643600D01*
G01X11021060Y-15162700D01*
G01X13052186Y-15162700D01*
G01X13052186Y-15342700D01*
G01X13054164Y-15355188D01*
G01X13059905Y-15366455D01*
G01X13068845Y-15375395D01*
G01X13080112Y-15381136D01*
G01X13092600Y-15383114D01*
G01X13140956Y-15383114D01*
G01X13120363Y-15392095D01*
G01X13101617Y-15404477D01*
G01X13085274Y-15419893D01*
G01X13071819Y-15437886D01*
G01X13061653Y-15457920D01*
G01X13055075Y-15479402D01*
G01X13052282Y-15501694D01*
G01X13053357Y-15524135D01*
G01X13058267Y-15546059D01*
G01X13066867Y-15566814D01*
G01X13078902Y-15585785D01*
G01X13094014Y-15602409D01*
G01X13111755Y-15616193D01*
G01X13131599Y-15626728D01*
G01X13152956Y-15633700D01*
G01X13132176Y-15640429D01*
G01X13112810Y-15650532D01*
G01X13095401Y-15663725D01*
G01X13080439Y-15679639D01*
G01X13068343Y-15697827D01*
G01X13059452Y-15717778D01*
G01X13054015Y-15738934D01*
G01X13052186Y-15760700D01*
G01X13054015Y-15782466D01*
G01X13059452Y-15803622D01*
G01X13068343Y-15823573D01*
G01X13080439Y-15841761D01*
G01X13095401Y-15857675D01*
G01X13112810Y-15870868D01*
G01X13132176Y-15880971D01*
G01X13152956Y-15887700D01*
G01X13131740Y-15894612D01*
G01X13112013Y-15905041D01*
G01X13094352Y-15918679D01*
G01X13079275Y-15935129D01*
G01X13067222Y-15953908D01*
G01X13058548Y-15974467D01*
G01X13053505Y-15996203D01*
G01X13052241Y-16018481D01*
G01X13054794Y-16040649D01*
G01X13061088Y-16062057D01*
G01X13070940Y-16082078D01*
G01X13084061Y-16100127D01*
G01X13100066Y-16115675D01*
G01X13118488Y-16128267D01*
G01X13138787Y-16137534D01*
G01X13160368Y-16143205D01*
G01X13182600Y-16145114D01*
G01X13204832Y-16143205D01*
G01X13226413Y-16137534D01*
G01X13246712Y-16128267D01*
G01X13265134Y-16115675D01*
G01X13281139Y-16100127D01*
G01X13294260Y-16082078D01*
G01X13304112Y-16062057D01*
G01X13310406Y-16040649D01*
G01X13312959Y-16018481D01*
G01X13311695Y-15996203D01*
G01X13306652Y-15974467D01*
G01X13297978Y-15953908D01*
G01X13285925Y-15935129D01*
G01X13270848Y-15918679D01*
G01X13253187Y-15905041D01*
G01X13233460Y-15894612D01*
G01X13212244Y-15887700D01*
G01X13233024Y-15880971D01*
G01X13252390Y-15870868D01*
G01X13269799Y-15857675D01*
G01X13284761Y-15841761D01*
G01X13296857Y-15823573D01*
G01X13305748Y-15803622D01*
G01X13311185Y-15782466D01*
G01X13313014Y-15760700D01*
G01X13311185Y-15738934D01*
G01X13305748Y-15717778D01*
G01X13296857Y-15697827D01*
G01X13284761Y-15679639D01*
G01X13269799Y-15663725D01*
G01X13252390Y-15650532D01*
G01X13233024Y-15640429D01*
G01X13212244Y-15633700D01*
G01X13230145Y-15628138D01*
G01X13247064Y-15620067D01*
G01X13262651Y-15609654D01*
G01X13276584Y-15597114D01*
G01X15786737Y-15597114D01*
G01X18764732Y-18575110D01*
G01X18768062Y-18596541D01*
G01X18775183Y-18617027D01*
G01X18785862Y-18635903D01*
G01X18799755Y-18652558D01*
G01X18816409Y-18666451D01*
G01X18835286Y-18677130D01*
G01X18855772Y-18684250D01*
G01X18877203Y-18687580D01*
G01X18877203Y-18687580D01*
G01X18890764Y-18701142D01*
G01X18870119Y-18701909D01*
G01X18849910Y-18706195D01*
G01X18830730Y-18713872D01*
G01X18813144Y-18724714D01*
G01X18797671Y-18738403D01*
G01X18784766Y-18754535D01*
G01X18774808Y-18772636D01*
G01X18768090Y-18792173D01*
G01X18764811Y-18812570D01*
G01X18765067Y-18833228D01*
G01X18768851Y-18853538D01*
G01X18776050Y-18872902D01*
G01X18786453Y-18890751D01*
G01X18799755Y-18906558D01*
G01X18815562Y-18919859D01*
G01X18833411Y-18930263D01*
G01X18852775Y-18937462D01*
G01X18873085Y-18941245D01*
G01X18893743Y-18941501D01*
G01X18914140Y-18938222D01*
G01X18933677Y-18931505D01*
G01X18951777Y-18921547D01*
G01X18967910Y-18908642D01*
G01X18981599Y-18893168D01*
G01X18992441Y-18875583D01*
G01X19000118Y-18856403D01*
G01X19004403Y-18836193D01*
G01X19005171Y-18815548D01*
G01X22020969Y-21831347D01*
G01X22034670Y-21842591D01*
G01X22050302Y-21850946D01*
G01X22067263Y-21856091D01*
G01X22084902Y-21857828D01*
G01X25284903Y-21857828D01*
G01X25302542Y-21856091D01*
G01X25319503Y-21850946D01*
G01X25335135Y-21842591D01*
G01X25348836Y-21831347D01*
G01X25622354Y-21557828D01*
G01X25664719Y-21557828D01*
G01X25656593Y-21577929D01*
G01X25652327Y-21599186D01*
G01X25652071Y-21620866D01*
G01X25655832Y-21642218D01*
G01X25663481Y-21662505D01*
G01X25674753Y-21681026D01*
G01X25689259Y-21697140D01*
G01X25706497Y-21710289D01*
G01X25725872Y-21720021D01*
G01X25746713Y-21725998D01*
G01X25768300Y-21728013D01*
G01X25789887Y-21725998D01*
G01X25810728Y-21720021D01*
G01X25830103Y-21710289D01*
G01X25847341Y-21697140D01*
G01X25861847Y-21681026D01*
G01X25873119Y-21662505D01*
G01X25880768Y-21642218D01*
G01X25884529Y-21620866D01*
G01X25884273Y-21599186D01*
G01X25880007Y-21577929D01*
G01X25871881Y-21557828D01*
G01X26868764Y-21557828D01*
G01X27882342Y-22571406D01*
G01X27885555Y-22592366D01*
G01X27892395Y-22612437D01*
G01X27902650Y-22630997D01*
G01X27916002Y-22647470D01*
G01X27932036Y-22661346D01*
G01X27950255Y-22672194D01*
G01X27970095Y-22679678D01*
G01X27990940Y-22683566D01*
G01X28012144Y-22683737D01*
G01X28033049Y-22680186D01*
G01X28053007Y-22673023D01*
G01X28071399Y-22662470D01*
G01X28087655Y-22648854D01*
G01X28101270Y-22632599D01*
G01X28111823Y-22614207D01*
G01X28118986Y-22594249D01*
G01X28122537Y-22573343D01*
G01X28122366Y-22552140D01*
G01X28118478Y-22531295D01*
G01X28110994Y-22511455D01*
G01X28100146Y-22493235D01*
G01X28086270Y-22477201D01*
G01X28069797Y-22463850D01*
G01X28051237Y-22453595D01*
G01X28031166Y-22446755D01*
G01X28010207Y-22443541D01*
G01X27297064Y-21730398D01*
G01X27914384Y-21730398D01*
G01X27916359Y-21755493D01*
G01X27922235Y-21779969D01*
G01X27931868Y-21803225D01*
G01X27945020Y-21824687D01*
G01X27961368Y-21843828D01*
G01X27980509Y-21860176D01*
G01X28001972Y-21873328D01*
G01X28025227Y-21882961D01*
G01X28049704Y-21888837D01*
G01X28074798Y-21890812D01*
G01X28074798Y-21890812D01*
G01X28099892Y-21888837D01*
G01X28124368Y-21882961D01*
G01X28147624Y-21873328D01*
G01X28169087Y-21860176D01*
G01X28188227Y-21843828D01*
G01X28204575Y-21824687D01*
G01X28217727Y-21803225D01*
G01X28227360Y-21779969D01*
G01X28233237Y-21755493D01*
G01X28235212Y-21730398D01*
G01X28254389Y-21730398D01*
G01X28256363Y-21755493D01*
G01X28262240Y-21779969D01*
G01X28271873Y-21803225D01*
G01X28285025Y-21824687D01*
G01X28301373Y-21843828D01*
G01X28320513Y-21860176D01*
G01X28341976Y-21873328D01*
G01X28365232Y-21882961D01*
G01X28389708Y-21888837D01*
G01X28414802Y-21890812D01*
G01X28414802Y-21890812D01*
G01X28439896Y-21888837D01*
G01X28464373Y-21882961D01*
G01X28487628Y-21873328D01*
G01X28509091Y-21860176D01*
G01X28528232Y-21843828D01*
G01X28544580Y-21824687D01*
G01X28557732Y-21803225D01*
G01X28567365Y-21779969D01*
G01X28573241Y-21755493D01*
G01X28575216Y-21730398D01*
G01X28573241Y-21705304D01*
G01X28567365Y-21680828D01*
G01X28557732Y-21657572D01*
G01X28544580Y-21636110D01*
G01X28528232Y-21616969D01*
G01X28509091Y-21600621D01*
G01X28487628Y-21587469D01*
G01X28464373Y-21577836D01*
G01X28439896Y-21571960D01*
G01X28414802Y-21569985D01*
G01X28389708Y-21571960D01*
G01X28365232Y-21577836D01*
G01X28341976Y-21587469D01*
G01X28320513Y-21600621D01*
G01X28301373Y-21616969D01*
G01X28285025Y-21636110D01*
G01X28271873Y-21657572D01*
G01X28262240Y-21680828D01*
G01X28256363Y-21705304D01*
G01X28254389Y-21730398D01*
G01X28235212Y-21730398D01*
G01X28233237Y-21705304D01*
G01X28227360Y-21680828D01*
G01X28217727Y-21657572D01*
G01X28204575Y-21636110D01*
G01X28188227Y-21616969D01*
G01X28169087Y-21600621D01*
G01X28147624Y-21587469D01*
G01X28124368Y-21577836D01*
G01X28099892Y-21571960D01*
G01X28074798Y-21569985D01*
G01X28049704Y-21571960D01*
G01X28025227Y-21577836D01*
G01X28001972Y-21587469D01*
G01X27980509Y-21600621D01*
G01X27961368Y-21616969D01*
G01X27945020Y-21636110D01*
G01X27931868Y-21657572D01*
G01X27922235Y-21680828D01*
G01X27916359Y-21705304D01*
G01X27914384Y-21730398D01*
G01X27297064Y-21730398D01*
G01X26970147Y-21403482D01*
G01X26956446Y-21392238D01*
G01X26940815Y-21383883D01*
G01X26923854Y-21378738D01*
G01X26906215Y-21377000D01*
G01X25584904Y-21377000D01*
G01X25567265Y-21378738D01*
G01X25550304Y-21383883D01*
G01X25534672Y-21392238D01*
G01X25520971Y-21403482D01*
G01X25247453Y-21677000D01*
G01X22122352Y-21677000D01*
G01X21996261Y-21550909D01*
G01X23010477Y-21550909D01*
G01X23012307Y-21571819D01*
G01X23017739Y-21592093D01*
G01X23026610Y-21611116D01*
G01X23038649Y-21628310D01*
G01X23053491Y-21643152D01*
G01X23070684Y-21655191D01*
G01X23089707Y-21664061D01*
G01X23109981Y-21669494D01*
G01X23130891Y-21671323D01*
G01X23151801Y-21669494D01*
G01X23172075Y-21664061D01*
G01X23191098Y-21655191D01*
G01X23208291Y-21643152D01*
G01X23223133Y-21628310D01*
G01X23235172Y-21611116D01*
G01X23244043Y-21592093D01*
G01X23249475Y-21571819D01*
G01X23251305Y-21550909D01*
G01X23249475Y-21530000D01*
G01X23244043Y-21509725D01*
G01X23235172Y-21490703D01*
G01X23223133Y-21473509D01*
G01X23208291Y-21458667D01*
G01X23191098Y-21446628D01*
G01X23172075Y-21437757D01*
G01X23151801Y-21432325D01*
G01X23130891Y-21430496D01*
G01X23130891Y-21430496D01*
G01X23109981Y-21432325D01*
G01X23089707Y-21437757D01*
G01X23070684Y-21446628D01*
G01X23053491Y-21458667D01*
G01X23038649Y-21473509D01*
G01X23026610Y-21490703D01*
G01X23017739Y-21509725D01*
G01X23012307Y-21530000D01*
G01X23010477Y-21550909D01*
G01X21996261Y-21550909D01*
G01X21545993Y-21100641D01*
G01X25652184Y-21100641D01*
G01X25652184Y-21122160D01*
G01X25656138Y-21143313D01*
G01X25663911Y-21163380D01*
G01X25675240Y-21181676D01*
G01X25689738Y-21197579D01*
G01X25706911Y-21210548D01*
G01X25726174Y-21220140D01*
G01X25746872Y-21226029D01*
G01X25768300Y-21228014D01*
G01X25789728Y-21226029D01*
G01X25810426Y-21220140D01*
G01X25829689Y-21210548D01*
G01X25846862Y-21197579D01*
G01X25861360Y-21181676D01*
G01X25872689Y-21163380D01*
G01X25880462Y-21143313D01*
G01X25884416Y-21122160D01*
G01X25884416Y-21100641D01*
G01X25880462Y-21079488D01*
G01X25872689Y-21059421D01*
G01X25861360Y-21041125D01*
G01X25846862Y-21025222D01*
G01X25829689Y-21012253D01*
G01X25810426Y-21002661D01*
G01X25789728Y-20996772D01*
G01X25768300Y-20994787D01*
G01X25768300Y-20994787D01*
G01X25746872Y-20996772D01*
G01X25726174Y-21002661D01*
G01X25706911Y-21012253D01*
G01X25689738Y-21025222D01*
G01X25675240Y-21041125D01*
G01X25663911Y-21059421D01*
G01X25656138Y-21079488D01*
G01X25652184Y-21100641D01*
G01X21545993Y-21100641D01*
G01X21183753Y-20738401D01*
G01X27914384Y-20738401D01*
G01X27916359Y-20763496D01*
G01X27922235Y-20787972D01*
G01X27931868Y-20811228D01*
G01X27945020Y-20832690D01*
G01X27961368Y-20851831D01*
G01X27980509Y-20868179D01*
G01X28001972Y-20881331D01*
G01X28025227Y-20890964D01*
G01X28049704Y-20896840D01*
G01X28074798Y-20898815D01*
G01X28074798Y-20898815D01*
G01X28099892Y-20896840D01*
G01X28124368Y-20890964D01*
G01X28147624Y-20881331D01*
G01X28169087Y-20868179D01*
G01X28188227Y-20851831D01*
G01X28204575Y-20832690D01*
G01X28217727Y-20811228D01*
G01X28227360Y-20787972D01*
G01X28233237Y-20763496D01*
G01X28235212Y-20738401D01*
G01X28254389Y-20738401D01*
G01X28256363Y-20763496D01*
G01X28262240Y-20787972D01*
G01X28271873Y-20811228D01*
G01X28285025Y-20832690D01*
G01X28301373Y-20851831D01*
G01X28320513Y-20868179D01*
G01X28341976Y-20881331D01*
G01X28365232Y-20890964D01*
G01X28389708Y-20896840D01*
G01X28414802Y-20898815D01*
G01X28414802Y-20898815D01*
G01X28439896Y-20896840D01*
G01X28464373Y-20890964D01*
G01X28487628Y-20881331D01*
G01X28509091Y-20868179D01*
G01X28528232Y-20851831D01*
G01X28544580Y-20832690D01*
G01X28557732Y-20811228D01*
G01X28567365Y-20787972D01*
G01X28573241Y-20763496D01*
G01X28575216Y-20738401D01*
G01X28573241Y-20713307D01*
G01X28567365Y-20688831D01*
G01X28557732Y-20665575D01*
G01X28544580Y-20644113D01*
G01X28528232Y-20624972D01*
G01X28509091Y-20608624D01*
G01X28487628Y-20595472D01*
G01X28464373Y-20585839D01*
G01X28439896Y-20579963D01*
G01X28414802Y-20577988D01*
G01X28389708Y-20579963D01*
G01X28365232Y-20585839D01*
G01X28341976Y-20595472D01*
G01X28320513Y-20608624D01*
G01X28301373Y-20624972D01*
G01X28285025Y-20644113D01*
G01X28271873Y-20665575D01*
G01X28262240Y-20688831D01*
G01X28256363Y-20713307D01*
G01X28254389Y-20738401D01*
G01X28235212Y-20738401D01*
G01X28233237Y-20713307D01*
G01X28227360Y-20688831D01*
G01X28217727Y-20665575D01*
G01X28204575Y-20644113D01*
G01X28188227Y-20624972D01*
G01X28169087Y-20608624D01*
G01X28147624Y-20595472D01*
G01X28124368Y-20585839D01*
G01X28099892Y-20579963D01*
G01X28074798Y-20577988D01*
G01X28049704Y-20579963D01*
G01X28025227Y-20585839D01*
G01X28001972Y-20595472D01*
G01X27980509Y-20608624D01*
G01X27961368Y-20624972D01*
G01X27945020Y-20644113D01*
G01X27931868Y-20665575D01*
G01X27922235Y-20688831D01*
G01X27916359Y-20713307D01*
G01X27914384Y-20738401D01*
G01X21183753Y-20738401D01*
G01X19520765Y-19075413D01*
G01X21050486Y-19075413D01*
G01X21052316Y-19096322D01*
G01X21057748Y-19116597D01*
G01X21066619Y-19135620D01*
G01X21078658Y-19152813D01*
G01X21093500Y-19167655D01*
G01X21110693Y-19179694D01*
G01X21129716Y-19188565D01*
G01X21149990Y-19193997D01*
G01X21170900Y-19195826D01*
G01X21191810Y-19193997D01*
G01X21212084Y-19188565D01*
G01X21231107Y-19179694D01*
G01X21248300Y-19167655D01*
G01X21263142Y-19152813D01*
G01X21275181Y-19135620D01*
G01X21284052Y-19116597D01*
G01X21289484Y-19096322D01*
G01X21291314Y-19075413D01*
G01X21289484Y-19054503D01*
G01X21284052Y-19034229D01*
G01X21275181Y-19015206D01*
G01X21263142Y-18998012D01*
G01X21248300Y-18983170D01*
G01X21231107Y-18971131D01*
G01X21212084Y-18962261D01*
G01X21191810Y-18956828D01*
G01X21170900Y-18954999D01*
G01X21170900Y-18954999D01*
G01X21149990Y-18956828D01*
G01X21129716Y-18962261D01*
G01X21110693Y-18971131D01*
G01X21093500Y-18983170D01*
G01X21078658Y-18998012D01*
G01X21066619Y-19015206D01*
G01X21057748Y-19034229D01*
G01X21052316Y-19054503D01*
G01X21050486Y-19075413D01*
G01X19520765Y-19075413D01*
G01X19266765Y-18821413D01*
G01X21050486Y-18821413D01*
G01X21052316Y-18842322D01*
G01X21057748Y-18862597D01*
G01X21066619Y-18881620D01*
G01X21078658Y-18898813D01*
G01X21093500Y-18913655D01*
G01X21110693Y-18925694D01*
G01X21129716Y-18934565D01*
G01X21149990Y-18939997D01*
G01X21170900Y-18941826D01*
G01X21191810Y-18939997D01*
G01X21212084Y-18934565D01*
G01X21231107Y-18925694D01*
G01X21248300Y-18913655D01*
G01X21263142Y-18898813D01*
G01X21275181Y-18881620D01*
G01X21284052Y-18862597D01*
G01X21289484Y-18842322D01*
G01X21291314Y-18821413D01*
G01X21289484Y-18800503D01*
G01X21284052Y-18780229D01*
G01X21275181Y-18761206D01*
G01X21263142Y-18744012D01*
G01X21259576Y-18740445D01*
G01X29370028Y-18740445D01*
G01X29371287Y-18760872D01*
G01X29376135Y-18780756D01*
G01X29384417Y-18799471D01*
G01X29395876Y-18816428D01*
G01X29410149Y-18831095D01*
G01X29426788Y-18843011D01*
G01X29445270Y-18851800D01*
G01X29465014Y-18857186D01*
G01X29485400Y-18859001D01*
G01X29505785Y-18857186D01*
G01X29525529Y-18851800D01*
G01X29544011Y-18843011D01*
G01X29560650Y-18831095D01*
G01X29574923Y-18816428D01*
G01X29586382Y-18799471D01*
G01X29594664Y-18780756D01*
G01X29599512Y-18760872D01*
G01X29600771Y-18740445D01*
G01X29598402Y-18720117D01*
G01X29592480Y-18700527D01*
G01X29583191Y-18682291D01*
G01X29570827Y-18665982D01*
G01X29555777Y-18652114D01*
G01X29538513Y-18641121D01*
G01X29538513Y-16675701D01*
G01X29591501Y-16622714D01*
G01X29720540Y-16622714D01*
G01X29733029Y-16620736D01*
G01X29744295Y-16614995D01*
G01X29753236Y-16606055D01*
G01X29758976Y-16594788D01*
G01X29760954Y-16582300D01*
G01X29760954Y-16412300D01*
G01X29758976Y-16399812D01*
G01X29753236Y-16388545D01*
G01X29744295Y-16379605D01*
G01X29733029Y-16373864D01*
G01X29720540Y-16371886D01*
G01X29563060Y-16371886D01*
G01X29550571Y-16373864D01*
G01X29539305Y-16379605D01*
G01X29530364Y-16388545D01*
G01X29524624Y-16399812D01*
G01X29522646Y-16412300D01*
G01X29522646Y-16541339D01*
G01X29447842Y-16616143D01*
G01X29447842Y-16616143D01*
G01X29439401Y-16627144D01*
G01X29434095Y-16639954D01*
G01X29432286Y-16653700D01*
G01X29432286Y-18641121D01*
G01X29432286Y-18641121D01*
G01X29415022Y-18652114D01*
G01X29399972Y-18665982D01*
G01X29387608Y-18682291D01*
G01X29378319Y-18700527D01*
G01X29372397Y-18720117D01*
G01X29370028Y-18740445D01*
G01X21259576Y-18740445D01*
G01X21248300Y-18729170D01*
G01X21231107Y-18717131D01*
G01X21212084Y-18708261D01*
G01X21191810Y-18702828D01*
G01X21170900Y-18700999D01*
G01X21170900Y-18700999D01*
G01X21149990Y-18702828D01*
G01X21129716Y-18708261D01*
G01X21110693Y-18717131D01*
G01X21093500Y-18729170D01*
G01X21078658Y-18744012D01*
G01X21066619Y-18761206D01*
G01X21057748Y-18780229D01*
G01X21052316Y-18800503D01*
G01X21050486Y-18821413D01*
G01X19266765Y-18821413D01*
G01X19012765Y-18567413D01*
G01X21050486Y-18567413D01*
G01X21052316Y-18588322D01*
G01X21057748Y-18608597D01*
G01X21066619Y-18627620D01*
G01X21078658Y-18644813D01*
G01X21093500Y-18659655D01*
G01X21110693Y-18671694D01*
G01X21129716Y-18680565D01*
G01X21149990Y-18685997D01*
G01X21170900Y-18687826D01*
G01X21191810Y-18685997D01*
G01X21212084Y-18680565D01*
G01X21231107Y-18671694D01*
G01X21248300Y-18659655D01*
G01X21263142Y-18644813D01*
G01X21275181Y-18627620D01*
G01X21284052Y-18608597D01*
G01X21289484Y-18588322D01*
G01X21291314Y-18567413D01*
G01X21289484Y-18546503D01*
G01X21288703Y-18543587D01*
G01X28869987Y-18543587D01*
G01X28871952Y-18564795D01*
G01X28877780Y-18585280D01*
G01X28887274Y-18604345D01*
G01X28900109Y-18621341D01*
G01X28915848Y-18635690D01*
G01X28933956Y-18646902D01*
G01X28953816Y-18654595D01*
G01X28974751Y-18658509D01*
G01X28996050Y-18658509D01*
G01X29016985Y-18654595D01*
G01X29036845Y-18646902D01*
G01X29054953Y-18635690D01*
G01X29070692Y-18621341D01*
G01X29083527Y-18604345D01*
G01X29093021Y-18585280D01*
G01X29098849Y-18564795D01*
G01X29100814Y-18543587D01*
G01X29100814Y-18543587D01*
G01X29098849Y-18522380D01*
G01X29093021Y-18501895D01*
G01X29083527Y-18482830D01*
G01X29070692Y-18465834D01*
G01X29054953Y-18451485D01*
G01X29036845Y-18440273D01*
G01X29016985Y-18432580D01*
G01X28996050Y-18428666D01*
G01X28974751Y-18428666D01*
G01X28953816Y-18432580D01*
G01X28933956Y-18440273D01*
G01X28915848Y-18451485D01*
G01X28900109Y-18465834D01*
G01X28887274Y-18482830D01*
G01X28877780Y-18501895D01*
G01X28871952Y-18522380D01*
G01X28869987Y-18543587D01*
G01X21288703Y-18543587D01*
G01X21284052Y-18526229D01*
G01X21275181Y-18507206D01*
G01X21263142Y-18490012D01*
G01X21248300Y-18475170D01*
G01X21231107Y-18463131D01*
G01X21212084Y-18454261D01*
G01X21191810Y-18448828D01*
G01X21170900Y-18446999D01*
G01X21170900Y-18446999D01*
G01X21149990Y-18448828D01*
G01X21129716Y-18454261D01*
G01X21110693Y-18463131D01*
G01X21093500Y-18475170D01*
G01X21078658Y-18490012D01*
G01X21066619Y-18507206D01*
G01X21057748Y-18526229D01*
G01X21052316Y-18546503D01*
G01X21050486Y-18567413D01*
G01X19012765Y-18567413D01*
G01X19005068Y-18559716D01*
G01X19001738Y-18538285D01*
G01X18994617Y-18517798D01*
G01X18983938Y-18498922D01*
G01X18970045Y-18482267D01*
G01X18953391Y-18468375D01*
G01X18934514Y-18457695D01*
G01X18914028Y-18450575D01*
G01X18892597Y-18447245D01*
G01X18879036Y-18433684D01*
G01X18900178Y-18432853D01*
G01X18920849Y-18428335D01*
G01X18940410Y-18420268D01*
G01X18958257Y-18408902D01*
G01X18973838Y-18394588D01*
G01X18986674Y-18377767D01*
G01X18996367Y-18358959D01*
G01X19002619Y-18338745D01*
G01X19005236Y-18317749D01*
G01X19005010Y-18313413D01*
G01X21050486Y-18313413D01*
G01X21052316Y-18334322D01*
G01X21057748Y-18354597D01*
G01X21066619Y-18373620D01*
G01X21078658Y-18390813D01*
G01X21093500Y-18405655D01*
G01X21110693Y-18417694D01*
G01X21129716Y-18426565D01*
G01X21149990Y-18431997D01*
G01X21170900Y-18433826D01*
G01X21191810Y-18431997D01*
G01X21212084Y-18426565D01*
G01X21231107Y-18417694D01*
G01X21248300Y-18405655D01*
G01X21263142Y-18390813D01*
G01X21275181Y-18373620D01*
G01X21284052Y-18354597D01*
G01X21289484Y-18334322D01*
G01X21291314Y-18313413D01*
G01X21289484Y-18292503D01*
G01X21284052Y-18272229D01*
G01X21275181Y-18253206D01*
G01X21263142Y-18236012D01*
G01X21248300Y-18221170D01*
G01X21231107Y-18209131D01*
G01X21212084Y-18200261D01*
G01X21191810Y-18194828D01*
G01X21170900Y-18192999D01*
G01X21170900Y-18192999D01*
G01X21149990Y-18194828D01*
G01X21129716Y-18200261D01*
G01X21110693Y-18209131D01*
G01X21093500Y-18221170D01*
G01X21078658Y-18236012D01*
G01X21066619Y-18253206D01*
G01X21057748Y-18272229D01*
G01X21052316Y-18292503D01*
G01X21050486Y-18313413D01*
G01X19005010Y-18313413D01*
G01X19004137Y-18296618D01*
G01X18999356Y-18276007D01*
G01X18991042Y-18256550D01*
G01X18979450Y-18238849D01*
G01X18964939Y-18223450D01*
G01X18947956Y-18210829D01*
G01X18929027Y-18201376D01*
G01X18908735Y-18195381D01*
G01X18887707Y-18193032D01*
G01X18866592Y-18194399D01*
G01X18846043Y-18199441D01*
G01X17836773Y-17190171D01*
G01X17836773Y-13537017D01*
G01X17855127Y-13526464D01*
G01X17871444Y-13512973D01*
G01X17885260Y-13496930D01*
G01X17896180Y-13478792D01*
G01X17903893Y-13459075D01*
G01X17908180Y-13438342D01*
G01X17908918Y-13417183D01*
G01X17912400Y-13417183D01*
G01X17913138Y-13438342D01*
G01X17917424Y-13459075D01*
G01X17925138Y-13478792D01*
G01X17936058Y-13496930D01*
G01X17949873Y-13512973D01*
G01X17966191Y-13526464D01*
G01X17984545Y-13537017D01*
G01X17984545Y-17212172D01*
G01X17986355Y-17225918D01*
G01X17991661Y-17238729D01*
G01X18000102Y-17249729D01*
G01X18770928Y-18020555D01*
G01X18770928Y-18020555D01*
G01X18765831Y-18041467D01*
G01X18764538Y-18062951D01*
G01X18767091Y-18084323D01*
G01X18773408Y-18104898D01*
G01X18783287Y-18124021D01*
G01X18796412Y-18141079D01*
G01X18812365Y-18155528D01*
G01X18830635Y-18166906D01*
G01X18850639Y-18174850D01*
G01X18871738Y-18179105D01*
G01X18893257Y-18179536D01*
G01X18914509Y-18176129D01*
G01X18934815Y-18168993D01*
G01X18953527Y-18158356D01*
G01X18970045Y-18144558D01*
G01X18983844Y-18128039D01*
G01X18994481Y-18109328D01*
G01X19001617Y-18089022D01*
G01X19005023Y-18067770D01*
G01X19004856Y-18059413D01*
G01X21050486Y-18059413D01*
G01X21052316Y-18080322D01*
G01X21057748Y-18100597D01*
G01X21066619Y-18119620D01*
G01X21078658Y-18136813D01*
G01X21093500Y-18151655D01*
G01X21110693Y-18163694D01*
G01X21129716Y-18172565D01*
G01X21149990Y-18177997D01*
G01X21170900Y-18179826D01*
G01X21191810Y-18177997D01*
G01X21212084Y-18172565D01*
G01X21231107Y-18163694D01*
G01X21248300Y-18151655D01*
G01X21263142Y-18136813D01*
G01X21275181Y-18119620D01*
G01X21284052Y-18100597D01*
G01X21289484Y-18080322D01*
G01X21291314Y-18059413D01*
G01X21289484Y-18038503D01*
G01X21287726Y-18031940D01*
G01X27011084Y-18031940D01*
G01X27011084Y-18053459D01*
G01X27015038Y-18074612D01*
G01X27022811Y-18094679D01*
G01X27034140Y-18112975D01*
G01X27048638Y-18128878D01*
G01X27065811Y-18141847D01*
G01X27085074Y-18151439D01*
G01X27105772Y-18157328D01*
G01X27127200Y-18159313D01*
G01X27127200Y-18159313D01*
G01X27148628Y-18157328D01*
G01X27169326Y-18151439D01*
G01X27188589Y-18141847D01*
G01X27205762Y-18128878D01*
G01X27220260Y-18112975D01*
G01X27231589Y-18094679D01*
G01X27239362Y-18074612D01*
G01X27243316Y-18053459D01*
G01X27243316Y-18031940D01*
G01X27239362Y-18010787D01*
G01X27231589Y-17990720D01*
G01X27220260Y-17972424D01*
G01X27205762Y-17956521D01*
G01X27188589Y-17943552D01*
G01X27169326Y-17933960D01*
G01X27148628Y-17928071D01*
G01X27127200Y-17926086D01*
G01X27105772Y-17928071D01*
G01X27085074Y-17933960D01*
G01X27065811Y-17943552D01*
G01X27048638Y-17956521D01*
G01X27034140Y-17972424D01*
G01X27022811Y-17990720D01*
G01X27015038Y-18010787D01*
G01X27011084Y-18031940D01*
G01X21287726Y-18031940D01*
G01X21284052Y-18018229D01*
G01X21275181Y-17999206D01*
G01X21263142Y-17982012D01*
G01X21248300Y-17967170D01*
G01X21231107Y-17955131D01*
G01X21212084Y-17946261D01*
G01X21191810Y-17940828D01*
G01X21170900Y-17938999D01*
G01X21170900Y-17938999D01*
G01X21149990Y-17940828D01*
G01X21129716Y-17946261D01*
G01X21110693Y-17955131D01*
G01X21093500Y-17967170D01*
G01X21078658Y-17982012D01*
G01X21066619Y-17999206D01*
G01X21057748Y-18018229D01*
G01X21052316Y-18038503D01*
G01X21050486Y-18059413D01*
G01X19004856Y-18059413D01*
G01X19004592Y-18046251D01*
G01X19000337Y-18025152D01*
G01X18992393Y-18005148D01*
G01X18981015Y-17986878D01*
G01X18966566Y-17970925D01*
G01X18949508Y-17957799D01*
G01X18930386Y-17947920D01*
G01X18909810Y-17941604D01*
G01X18888438Y-17939051D01*
G01X18866954Y-17940344D01*
G01X18846043Y-17945441D01*
G01X18706014Y-17805413D01*
G01X18764486Y-17805413D01*
G01X18766316Y-17826322D01*
G01X18771748Y-17846597D01*
G01X18780619Y-17865620D01*
G01X18792658Y-17882813D01*
G01X18807500Y-17897655D01*
G01X18824693Y-17909694D01*
G01X18843716Y-17918565D01*
G01X18863990Y-17923997D01*
G01X18884900Y-17925826D01*
G01X18905810Y-17923997D01*
G01X18926084Y-17918565D01*
G01X18945107Y-17909694D01*
G01X18962300Y-17897655D01*
G01X18977142Y-17882813D01*
G01X18989181Y-17865620D01*
G01X18998052Y-17846597D01*
G01X19003484Y-17826322D01*
G01X19005314Y-17805413D01*
G01X21050486Y-17805413D01*
G01X21052316Y-17826322D01*
G01X21057748Y-17846597D01*
G01X21066619Y-17865620D01*
G01X21078658Y-17882813D01*
G01X21093500Y-17897655D01*
G01X21110693Y-17909694D01*
G01X21129716Y-17918565D01*
G01X21149990Y-17923997D01*
G01X21170900Y-17925826D01*
G01X21191810Y-17923997D01*
G01X21212084Y-17918565D01*
G01X21231107Y-17909694D01*
G01X21248300Y-17897655D01*
G01X21258132Y-17887823D01*
G01X28094141Y-17887823D01*
G01X28096972Y-17908805D01*
G01X28103293Y-17929011D01*
G01X28112923Y-17947866D01*
G01X28125587Y-17964833D01*
G01X28140925Y-17979428D01*
G01X28158499Y-17991234D01*
G01X28177809Y-17999916D01*
G01X28198304Y-18005227D01*
G01X28219400Y-18007014D01*
G01X28219400Y-18007014D01*
G01X28240496Y-18005227D01*
G01X28260991Y-17999916D01*
G01X28280301Y-17991234D01*
G01X28297875Y-17979428D01*
G01X28313213Y-17964833D01*
G01X28325877Y-17947866D01*
G01X28335507Y-17929011D01*
G01X28341828Y-17908805D01*
G01X28344659Y-17887823D01*
G01X28348141Y-17887823D01*
G01X28350972Y-17908805D01*
G01X28357293Y-17929011D01*
G01X28366923Y-17947866D01*
G01X28379587Y-17964833D01*
G01X28394925Y-17979428D01*
G01X28412499Y-17991234D01*
G01X28431809Y-17999916D01*
G01X28452304Y-18005227D01*
G01X28473400Y-18007014D01*
G01X28473400Y-18007014D01*
G01X28494496Y-18005227D01*
G01X28514991Y-17999916D01*
G01X28534301Y-17991234D01*
G01X28551875Y-17979428D01*
G01X28567213Y-17964833D01*
G01X28579877Y-17947866D01*
G01X28589507Y-17929011D01*
G01X28595828Y-17908805D01*
G01X28598659Y-17887823D01*
G01X28602141Y-17887823D01*
G01X28604972Y-17908805D01*
G01X28611293Y-17929011D01*
G01X28620923Y-17947866D01*
G01X28633587Y-17964833D01*
G01X28648925Y-17979428D01*
G01X28666499Y-17991234D01*
G01X28685809Y-17999916D01*
G01X28706304Y-18005227D01*
G01X28727400Y-18007014D01*
G01X28727400Y-18007014D01*
G01X28748496Y-18005227D01*
G01X28768991Y-17999916D01*
G01X28788301Y-17991234D01*
G01X28805875Y-17979428D01*
G01X28821213Y-17964833D01*
G01X28833877Y-17947866D01*
G01X28843507Y-17929011D01*
G01X28849828Y-17908805D01*
G01X28852659Y-17887823D01*
G01X28851921Y-17866664D01*
G01X28847634Y-17845931D01*
G01X28839921Y-17826214D01*
G01X28829001Y-17808076D01*
G01X28819119Y-17796600D01*
G01X28855986Y-17796600D01*
G01X28855986Y-17966600D01*
G01X28857964Y-17979088D01*
G01X28863705Y-17990355D01*
G01X28872645Y-17999295D01*
G01X28883912Y-18005036D01*
G01X28896400Y-18007014D01*
G01X29066400Y-18007014D01*
G01X29078888Y-18005036D01*
G01X29090155Y-17999295D01*
G01X29099095Y-17990355D01*
G01X29104836Y-17979088D01*
G01X29106814Y-17966600D01*
G01X29106814Y-17796600D01*
G01X29104836Y-17784112D01*
G01X29099095Y-17772845D01*
G01X29090155Y-17763905D01*
G01X29078888Y-17758164D01*
G01X29066400Y-17756186D01*
G01X29034514Y-17756186D01*
G01X29034514Y-16671701D01*
G01X29091022Y-16615193D01*
G01X29111463Y-16620708D01*
G01X29132540Y-16622707D01*
G01X29153653Y-16621132D01*
G01X29174201Y-16616028D01*
G01X29193597Y-16607541D01*
G01X29211288Y-16595911D01*
G01X29226772Y-16581471D01*
G01X29239606Y-16564633D01*
G01X29249425Y-16545875D01*
G01X29255948Y-16525733D01*
G01X29258990Y-16504781D01*
G01X29258805Y-16497300D01*
G01X29262386Y-16497300D01*
G01X29264292Y-16519078D01*
G01X29269950Y-16540194D01*
G01X29279188Y-16560007D01*
G01X29291727Y-16577914D01*
G01X29307186Y-16593373D01*
G01X29325093Y-16605912D01*
G01X29344906Y-16615150D01*
G01X29366022Y-16620808D01*
G01X29387800Y-16622714D01*
G01X29409578Y-16620808D01*
G01X29430694Y-16615150D01*
G01X29450507Y-16605912D01*
G01X29468414Y-16593373D01*
G01X29483873Y-16577914D01*
G01X29496412Y-16560007D01*
G01X29505650Y-16540194D01*
G01X29511308Y-16519078D01*
G01X29513214Y-16497300D01*
G01X29513214Y-16497300D01*
G01X29511308Y-16475522D01*
G01X29505650Y-16454406D01*
G01X29496412Y-16434593D01*
G01X29483873Y-16416686D01*
G01X29468414Y-16401227D01*
G01X29450507Y-16388688D01*
G01X29430694Y-16379450D01*
G01X29409578Y-16373792D01*
G01X29387800Y-16371886D01*
G01X29366022Y-16373792D01*
G01X29344906Y-16379450D01*
G01X29325093Y-16388688D01*
G01X29307186Y-16401227D01*
G01X29291727Y-16416686D01*
G01X29279188Y-16434593D01*
G01X29269950Y-16454406D01*
G01X29264292Y-16475522D01*
G01X29262386Y-16497300D01*
G01X29258805Y-16497300D01*
G01X29258465Y-16483616D01*
G01X29254387Y-16462841D01*
G01X29246872Y-16443047D01*
G01X29236135Y-16424800D01*
G01X29222481Y-16408619D01*
G01X29206300Y-16394965D01*
G01X29188053Y-16384228D01*
G01X29168259Y-16376713D01*
G01X29147484Y-16372635D01*
G01X29126319Y-16372110D01*
G01X29105367Y-16375152D01*
G01X29085225Y-16381675D01*
G01X29066467Y-16391494D01*
G01X29049629Y-16404328D01*
G01X29035189Y-16419812D01*
G01X29023559Y-16437503D01*
G01X29015072Y-16456899D01*
G01X29009968Y-16477447D01*
G01X29008393Y-16498560D01*
G01X29010392Y-16519637D01*
G01X29015907Y-16540078D01*
G01X28943843Y-16612143D01*
G01X28943843Y-16612143D01*
G01X28935402Y-16623143D01*
G01X28930096Y-16635953D01*
G01X28928286Y-16649700D01*
G01X28928286Y-17756186D01*
G01X28896400Y-17756186D01*
G01X28896400Y-17756186D01*
G01X28883912Y-17758164D01*
G01X28872645Y-17763905D01*
G01X28863705Y-17772845D01*
G01X28857964Y-17784112D01*
G01X28855986Y-17796600D01*
G01X28819119Y-17796600D01*
G01X28815185Y-17792033D01*
G01X28798868Y-17778542D01*
G01X28780514Y-17767989D01*
G01X28780514Y-16671701D01*
G01X28837022Y-16615193D01*
G01X28857463Y-16620708D01*
G01X28878540Y-16622707D01*
G01X28899653Y-16621132D01*
G01X28920201Y-16616028D01*
G01X28939597Y-16607541D01*
G01X28957288Y-16595911D01*
G01X28972772Y-16581471D01*
G01X28985606Y-16564633D01*
G01X28995425Y-16545875D01*
G01X29001948Y-16525733D01*
G01X29004990Y-16504781D01*
G01X29004465Y-16483616D01*
G01X29000387Y-16462841D01*
G01X28992872Y-16443047D01*
G01X28982135Y-16424800D01*
G01X28968481Y-16408619D01*
G01X28952300Y-16394965D01*
G01X28934053Y-16384228D01*
G01X28914259Y-16376713D01*
G01X28893484Y-16372635D01*
G01X28872319Y-16372110D01*
G01X28851367Y-16375152D01*
G01X28831225Y-16381675D01*
G01X28812467Y-16391494D01*
G01X28795629Y-16404328D01*
G01X28781189Y-16419812D01*
G01X28769559Y-16437503D01*
G01X28761072Y-16456899D01*
G01X28755968Y-16477447D01*
G01X28754393Y-16498560D01*
G01X28756392Y-16519637D01*
G01X28761907Y-16540078D01*
G01X28689843Y-16612143D01*
G01X28689843Y-16612143D01*
G01X28681402Y-16623143D01*
G01X28676096Y-16635953D01*
G01X28674286Y-16649700D01*
G01X28674286Y-17767989D01*
G01X28655932Y-17778542D01*
G01X28639615Y-17792033D01*
G01X28625799Y-17808076D01*
G01X28614879Y-17826214D01*
G01X28607166Y-17845931D01*
G01X28602879Y-17866664D01*
G01X28602141Y-17887823D01*
G01X28598659Y-17887823D01*
G01X28597921Y-17866664D01*
G01X28593634Y-17845931D01*
G01X28585921Y-17826214D01*
G01X28575001Y-17808076D01*
G01X28561185Y-17792033D01*
G01X28544868Y-17778542D01*
G01X28526514Y-17767989D01*
G01X28526514Y-16671701D01*
G01X28583022Y-16615193D01*
G01X28603463Y-16620708D01*
G01X28624540Y-16622707D01*
G01X28645653Y-16621132D01*
G01X28666201Y-16616028D01*
G01X28685597Y-16607541D01*
G01X28703288Y-16595911D01*
G01X28718772Y-16581471D01*
G01X28731606Y-16564633D01*
G01X28741425Y-16545875D01*
G01X28747948Y-16525733D01*
G01X28750990Y-16504781D01*
G01X28750465Y-16483616D01*
G01X28746387Y-16462841D01*
G01X28738872Y-16443047D01*
G01X28728135Y-16424800D01*
G01X28714481Y-16408619D01*
G01X28698300Y-16394965D01*
G01X28680053Y-16384228D01*
G01X28660259Y-16376713D01*
G01X28639484Y-16372635D01*
G01X28618319Y-16372110D01*
G01X28597367Y-16375152D01*
G01X28577225Y-16381675D01*
G01X28558467Y-16391494D01*
G01X28541629Y-16404328D01*
G01X28527189Y-16419812D01*
G01X28515559Y-16437503D01*
G01X28507072Y-16456899D01*
G01X28501968Y-16477447D01*
G01X28500393Y-16498560D01*
G01X28502392Y-16519637D01*
G01X28507907Y-16540078D01*
G01X28435843Y-16612143D01*
G01X28435843Y-16612143D01*
G01X28427402Y-16623143D01*
G01X28422096Y-16635953D01*
G01X28420286Y-16649700D01*
G01X28420286Y-17767989D01*
G01X28401932Y-17778542D01*
G01X28385615Y-17792033D01*
G01X28371799Y-17808076D01*
G01X28360879Y-17826214D01*
G01X28353166Y-17845931D01*
G01X28348879Y-17866664D01*
G01X28348141Y-17887823D01*
G01X28344659Y-17887823D01*
G01X28343921Y-17866664D01*
G01X28339634Y-17845931D01*
G01X28331921Y-17826214D01*
G01X28321001Y-17808076D01*
G01X28307185Y-17792033D01*
G01X28290868Y-17778542D01*
G01X28272514Y-17767989D01*
G01X28272514Y-16671701D01*
G01X28329022Y-16615193D01*
G01X28349463Y-16620708D01*
G01X28370540Y-16622707D01*
G01X28391653Y-16621132D01*
G01X28412201Y-16616028D01*
G01X28431597Y-16607541D01*
G01X28449288Y-16595911D01*
G01X28464772Y-16581471D01*
G01X28477606Y-16564633D01*
G01X28487425Y-16545875D01*
G01X28493948Y-16525733D01*
G01X28496990Y-16504781D01*
G01X28496465Y-16483616D01*
G01X28492387Y-16462841D01*
G01X28484872Y-16443047D01*
G01X28474135Y-16424800D01*
G01X28460481Y-16408619D01*
G01X28444300Y-16394965D01*
G01X28426053Y-16384228D01*
G01X28406259Y-16376713D01*
G01X28385484Y-16372635D01*
G01X28364319Y-16372110D01*
G01X28343367Y-16375152D01*
G01X28323225Y-16381675D01*
G01X28304467Y-16391494D01*
G01X28287629Y-16404328D01*
G01X28273189Y-16419812D01*
G01X28261559Y-16437503D01*
G01X28253072Y-16456899D01*
G01X28247968Y-16477447D01*
G01X28246393Y-16498560D01*
G01X28248392Y-16519637D01*
G01X28253907Y-16540078D01*
G01X28181843Y-16612143D01*
G01X28181843Y-16612143D01*
G01X28173402Y-16623143D01*
G01X28168096Y-16635953D01*
G01X28166286Y-16649700D01*
G01X28166286Y-17767989D01*
G01X28147932Y-17778542D01*
G01X28131615Y-17792033D01*
G01X28117799Y-17808076D01*
G01X28106879Y-17826214D01*
G01X28099166Y-17845931D01*
G01X28094879Y-17866664D01*
G01X28094141Y-17887823D01*
G01X21258132Y-17887823D01*
G01X21263142Y-17882813D01*
G01X21275181Y-17865620D01*
G01X21284052Y-17846597D01*
G01X21289484Y-17826322D01*
G01X21291314Y-17805413D01*
G01X21289484Y-17784503D01*
G01X21284052Y-17764229D01*
G01X21275181Y-17745206D01*
G01X21263142Y-17728012D01*
G01X21248300Y-17713170D01*
G01X21231107Y-17701131D01*
G01X21212084Y-17692261D01*
G01X21191810Y-17686828D01*
G01X21170900Y-17684999D01*
G01X21170900Y-17684999D01*
G01X21149990Y-17686828D01*
G01X21129716Y-17692261D01*
G01X21110693Y-17701131D01*
G01X21093500Y-17713170D01*
G01X21078658Y-17728012D01*
G01X21066619Y-17745206D01*
G01X21057748Y-17764229D01*
G01X21052316Y-17784503D01*
G01X21050486Y-17805413D01*
G01X19005314Y-17805413D01*
G01X19003484Y-17784503D01*
G01X18998052Y-17764229D01*
G01X18989181Y-17745206D01*
G01X18977142Y-17728012D01*
G01X18962300Y-17713170D01*
G01X18945107Y-17701131D01*
G01X18926084Y-17692261D01*
G01X18905810Y-17686828D01*
G01X18884900Y-17684999D01*
G01X18884900Y-17684999D01*
G01X18863990Y-17686828D01*
G01X18843716Y-17692261D01*
G01X18824693Y-17701131D01*
G01X18807500Y-17713170D01*
G01X18792658Y-17728012D01*
G01X18780619Y-17745206D01*
G01X18771748Y-17764229D01*
G01X18766316Y-17784503D01*
G01X18764486Y-17805413D01*
G01X18706014Y-17805413D01*
G01X18452014Y-17551413D01*
G01X18764486Y-17551413D01*
G01X18766316Y-17572322D01*
G01X18771748Y-17592597D01*
G01X18780619Y-17611620D01*
G01X18792658Y-17628813D01*
G01X18807500Y-17643655D01*
G01X18824693Y-17655694D01*
G01X18843716Y-17664565D01*
G01X18863990Y-17669997D01*
G01X18884900Y-17671826D01*
G01X18905810Y-17669997D01*
G01X18926084Y-17664565D01*
G01X18945107Y-17655694D01*
G01X18962300Y-17643655D01*
G01X18977142Y-17628813D01*
G01X18989181Y-17611620D01*
G01X18998052Y-17592597D01*
G01X19003484Y-17572322D01*
G01X19005314Y-17551413D01*
G01X21050486Y-17551413D01*
G01X21052316Y-17572322D01*
G01X21057748Y-17592597D01*
G01X21066619Y-17611620D01*
G01X21078658Y-17628813D01*
G01X21093500Y-17643655D01*
G01X21110693Y-17655694D01*
G01X21129716Y-17664565D01*
G01X21149990Y-17669997D01*
G01X21170900Y-17671826D01*
G01X21191810Y-17669997D01*
G01X21212084Y-17664565D01*
G01X21231107Y-17655694D01*
G01X21248300Y-17643655D01*
G01X21263142Y-17628813D01*
G01X21275181Y-17611620D01*
G01X21284052Y-17592597D01*
G01X21289484Y-17572322D01*
G01X21291314Y-17551413D01*
G01X21289610Y-17531941D01*
G01X27011084Y-17531941D01*
G01X27011084Y-17553460D01*
G01X27015038Y-17574613D01*
G01X27022811Y-17594680D01*
G01X27034140Y-17612976D01*
G01X27048638Y-17628879D01*
G01X27065811Y-17641848D01*
G01X27085074Y-17651440D01*
G01X27105772Y-17657329D01*
G01X27127200Y-17659314D01*
G01X27127200Y-17659314D01*
G01X27148628Y-17657329D01*
G01X27169326Y-17651440D01*
G01X27188589Y-17641848D01*
G01X27205762Y-17628879D01*
G01X27220260Y-17612976D01*
G01X27231589Y-17594680D01*
G01X27239362Y-17574613D01*
G01X27243316Y-17553460D01*
G01X27243316Y-17531941D01*
G01X27239362Y-17510788D01*
G01X27231589Y-17490721D01*
G01X27220260Y-17472425D01*
G01X27205762Y-17456522D01*
G01X27188589Y-17443553D01*
G01X27169326Y-17433961D01*
G01X27148628Y-17428072D01*
G01X27127200Y-17426087D01*
G01X27105772Y-17428072D01*
G01X27085074Y-17433961D01*
G01X27065811Y-17443553D01*
G01X27048638Y-17456522D01*
G01X27034140Y-17472425D01*
G01X27022811Y-17490721D01*
G01X27015038Y-17510788D01*
G01X27011084Y-17531941D01*
G01X21289610Y-17531941D01*
G01X21289484Y-17530503D01*
G01X21284052Y-17510229D01*
G01X21275181Y-17491206D01*
G01X21263142Y-17474012D01*
G01X21248300Y-17459170D01*
G01X21231107Y-17447131D01*
G01X21212084Y-17438261D01*
G01X21191810Y-17432828D01*
G01X21170900Y-17430999D01*
G01X21170900Y-17430999D01*
G01X21149990Y-17432828D01*
G01X21129716Y-17438261D01*
G01X21110693Y-17447131D01*
G01X21093500Y-17459170D01*
G01X21078658Y-17474012D01*
G01X21066619Y-17491206D01*
G01X21057748Y-17510229D01*
G01X21052316Y-17530503D01*
G01X21050486Y-17551413D01*
G01X19005314Y-17551413D01*
G01X19003484Y-17530503D01*
G01X18998052Y-17510229D01*
G01X18989181Y-17491206D01*
G01X18977142Y-17474012D01*
G01X18962300Y-17459170D01*
G01X18945107Y-17447131D01*
G01X18926084Y-17438261D01*
G01X18905810Y-17432828D01*
G01X18884900Y-17430999D01*
G01X18884900Y-17430999D01*
G01X18863990Y-17432828D01*
G01X18843716Y-17438261D01*
G01X18824693Y-17447131D01*
G01X18807500Y-17459170D01*
G01X18792658Y-17474012D01*
G01X18780619Y-17491206D01*
G01X18771748Y-17510229D01*
G01X18766316Y-17530503D01*
G01X18764486Y-17551413D01*
G01X18452014Y-17551413D01*
G01X18198014Y-17297413D01*
G01X18764486Y-17297413D01*
G01X18766316Y-17318322D01*
G01X18771748Y-17338597D01*
G01X18780619Y-17357620D01*
G01X18792658Y-17374813D01*
G01X18807500Y-17389655D01*
G01X18824693Y-17401694D01*
G01X18843716Y-17410565D01*
G01X18863990Y-17415997D01*
G01X18884900Y-17417826D01*
G01X18905810Y-17415997D01*
G01X18926084Y-17410565D01*
G01X18945107Y-17401694D01*
G01X18962300Y-17389655D01*
G01X18977142Y-17374813D01*
G01X18989181Y-17357620D01*
G01X18998052Y-17338597D01*
G01X19003484Y-17318322D01*
G01X19005314Y-17297413D01*
G01X21050486Y-17297413D01*
G01X21052316Y-17318322D01*
G01X21057748Y-17338597D01*
G01X21066619Y-17357620D01*
G01X21078658Y-17374813D01*
G01X21093500Y-17389655D01*
G01X21110693Y-17401694D01*
G01X21129716Y-17410565D01*
G01X21149990Y-17415997D01*
G01X21170900Y-17417826D01*
G01X21191810Y-17415997D01*
G01X21212084Y-17410565D01*
G01X21231107Y-17401694D01*
G01X21248300Y-17389655D01*
G01X21263142Y-17374813D01*
G01X21275181Y-17357620D01*
G01X21284052Y-17338597D01*
G01X21289484Y-17318322D01*
G01X21291314Y-17297413D01*
G01X21289484Y-17276503D01*
G01X21284052Y-17256229D01*
G01X21275181Y-17237206D01*
G01X21263142Y-17220012D01*
G01X21248300Y-17205170D01*
G01X21231107Y-17193131D01*
G01X21212084Y-17184261D01*
G01X21191810Y-17178828D01*
G01X21170900Y-17176999D01*
G01X21170900Y-17176999D01*
G01X21149990Y-17178828D01*
G01X21129716Y-17184261D01*
G01X21110693Y-17193131D01*
G01X21093500Y-17205170D01*
G01X21078658Y-17220012D01*
G01X21066619Y-17237206D01*
G01X21057748Y-17256229D01*
G01X21052316Y-17276503D01*
G01X21050486Y-17297413D01*
G01X19005314Y-17297413D01*
G01X19003484Y-17276503D01*
G01X18998052Y-17256229D01*
G01X18989181Y-17237206D01*
G01X18977142Y-17220012D01*
G01X18962300Y-17205170D01*
G01X18945107Y-17193131D01*
G01X18926084Y-17184261D01*
G01X18905810Y-17178828D01*
G01X18884900Y-17176999D01*
G01X18884900Y-17176999D01*
G01X18863990Y-17178828D01*
G01X18843716Y-17184261D01*
G01X18824693Y-17193131D01*
G01X18807500Y-17205170D01*
G01X18792658Y-17220012D01*
G01X18780619Y-17237206D01*
G01X18771748Y-17256229D01*
G01X18766316Y-17276503D01*
G01X18764486Y-17297413D01*
G01X18198014Y-17297413D01*
G01X18090773Y-17190171D01*
G01X18090773Y-16789413D01*
G01X18764486Y-16789413D01*
G01X18766316Y-16810322D01*
G01X18771748Y-16830597D01*
G01X18780619Y-16849620D01*
G01X18792658Y-16866813D01*
G01X18807500Y-16881655D01*
G01X18824693Y-16893694D01*
G01X18843716Y-16902565D01*
G01X18863990Y-16907997D01*
G01X18884900Y-16909826D01*
G01X18905810Y-16907997D01*
G01X18926084Y-16902565D01*
G01X18945107Y-16893694D01*
G01X18962300Y-16881655D01*
G01X18977142Y-16866813D01*
G01X18989181Y-16849620D01*
G01X18998052Y-16830597D01*
G01X19003484Y-16810322D01*
G01X19005314Y-16789413D01*
G01X19003484Y-16768503D01*
G01X18998052Y-16748229D01*
G01X18989181Y-16729206D01*
G01X18977142Y-16712012D01*
G01X18962300Y-16697170D01*
G01X18945107Y-16685131D01*
G01X18926084Y-16676261D01*
G01X18905810Y-16670828D01*
G01X18884900Y-16668999D01*
G01X18884900Y-16668999D01*
G01X18863990Y-16670828D01*
G01X18843716Y-16676261D01*
G01X18824693Y-16685131D01*
G01X18807500Y-16697170D01*
G01X18792658Y-16712012D01*
G01X18780619Y-16729206D01*
G01X18771748Y-16748229D01*
G01X18766316Y-16768503D01*
G01X18764486Y-16789413D01*
G01X18090773Y-16789413D01*
G01X18090773Y-16535413D01*
G01X18764486Y-16535413D01*
G01X18766316Y-16556322D01*
G01X18771748Y-16576597D01*
G01X18780619Y-16595620D01*
G01X18792658Y-16612813D01*
G01X18807500Y-16627655D01*
G01X18824693Y-16639694D01*
G01X18843716Y-16648565D01*
G01X18863990Y-16653997D01*
G01X18884900Y-16655826D01*
G01X18905810Y-16653997D01*
G01X18926084Y-16648565D01*
G01X18945107Y-16639694D01*
G01X18962300Y-16627655D01*
G01X18977142Y-16612813D01*
G01X18989181Y-16595620D01*
G01X18998052Y-16576597D01*
G01X19003484Y-16556322D01*
G01X19005314Y-16535413D01*
G01X19003484Y-16514503D01*
G01X18998052Y-16494229D01*
G01X18989181Y-16475206D01*
G01X18977142Y-16458012D01*
G01X18962300Y-16443170D01*
G01X18945107Y-16431131D01*
G01X18926084Y-16422261D01*
G01X18905810Y-16416828D01*
G01X18884900Y-16414999D01*
G01X18884900Y-16414999D01*
G01X18863990Y-16416828D01*
G01X18843716Y-16422261D01*
G01X18824693Y-16431131D01*
G01X18807500Y-16443170D01*
G01X18792658Y-16458012D01*
G01X18780619Y-16475206D01*
G01X18771748Y-16494229D01*
G01X18766316Y-16514503D01*
G01X18764486Y-16535413D01*
G01X18090773Y-16535413D01*
G01X18090773Y-16281413D01*
G01X18764486Y-16281413D01*
G01X18766316Y-16302322D01*
G01X18771748Y-16322597D01*
G01X18780619Y-16341620D01*
G01X18792658Y-16358813D01*
G01X18807500Y-16373655D01*
G01X18824693Y-16385694D01*
G01X18843716Y-16394565D01*
G01X18863990Y-16399997D01*
G01X18884900Y-16401826D01*
G01X18905810Y-16399997D01*
G01X18926084Y-16394565D01*
G01X18945107Y-16385694D01*
G01X18962300Y-16373655D01*
G01X18977142Y-16358813D01*
G01X18989181Y-16341620D01*
G01X18998052Y-16322597D01*
G01X19003484Y-16302322D01*
G01X19005314Y-16281413D01*
G01X19003484Y-16260503D01*
G01X18998052Y-16240229D01*
G01X18989181Y-16221206D01*
G01X18977142Y-16204012D01*
G01X18962300Y-16189170D01*
G01X18945107Y-16177131D01*
G01X18926084Y-16168261D01*
G01X18905810Y-16162828D01*
G01X18884900Y-16160999D01*
G01X18884900Y-16160999D01*
G01X18863990Y-16162828D01*
G01X18843716Y-16168261D01*
G01X18824693Y-16177131D01*
G01X18807500Y-16189170D01*
G01X18792658Y-16204012D01*
G01X18780619Y-16221206D01*
G01X18771748Y-16240229D01*
G01X18766316Y-16260503D01*
G01X18764486Y-16281413D01*
G01X18090773Y-16281413D01*
G01X18090773Y-16027413D01*
G01X18764486Y-16027413D01*
G01X18766316Y-16048322D01*
G01X18771748Y-16068597D01*
G01X18780619Y-16087620D01*
G01X18792658Y-16104813D01*
G01X18807500Y-16119655D01*
G01X18824693Y-16131694D01*
G01X18843716Y-16140565D01*
G01X18863990Y-16145997D01*
G01X18884900Y-16147826D01*
G01X18905810Y-16145997D01*
G01X18926084Y-16140565D01*
G01X18945107Y-16131694D01*
G01X18962300Y-16119655D01*
G01X18977142Y-16104813D01*
G01X18989181Y-16087620D01*
G01X18998052Y-16068597D01*
G01X19003484Y-16048322D01*
G01X19005314Y-16027413D01*
G01X19003484Y-16006503D01*
G01X18998052Y-15986229D01*
G01X18989181Y-15967206D01*
G01X18977142Y-15950012D01*
G01X18962300Y-15935170D01*
G01X18945107Y-15923131D01*
G01X18926084Y-15914261D01*
G01X18905810Y-15908828D01*
G01X18884900Y-15906999D01*
G01X18884900Y-15906999D01*
G01X18863990Y-15908828D01*
G01X18843716Y-15914261D01*
G01X18824693Y-15923131D01*
G01X18807500Y-15935170D01*
G01X18792658Y-15950012D01*
G01X18780619Y-15967206D01*
G01X18771748Y-15986229D01*
G01X18766316Y-16006503D01*
G01X18764486Y-16027413D01*
G01X18090773Y-16027413D01*
G01X18090773Y-15773413D01*
G01X18764486Y-15773413D01*
G01X18766316Y-15794322D01*
G01X18771748Y-15814597D01*
G01X18780619Y-15833620D01*
G01X18792658Y-15850813D01*
G01X18807500Y-15865655D01*
G01X18824693Y-15877694D01*
G01X18843716Y-15886565D01*
G01X18863990Y-15891997D01*
G01X18884900Y-15893826D01*
G01X18905810Y-15891997D01*
G01X18926084Y-15886565D01*
G01X18945107Y-15877694D01*
G01X18962300Y-15865655D01*
G01X18977142Y-15850813D01*
G01X18989181Y-15833620D01*
G01X18998052Y-15814597D01*
G01X19003484Y-15794322D01*
G01X19005314Y-15773413D01*
G01X19003484Y-15752503D01*
G01X18998052Y-15732229D01*
G01X18989181Y-15713206D01*
G01X18977142Y-15696012D01*
G01X18962300Y-15681170D01*
G01X18945107Y-15669131D01*
G01X18926084Y-15660261D01*
G01X18905810Y-15654828D01*
G01X18884900Y-15652999D01*
G01X18884900Y-15652999D01*
G01X18863990Y-15654828D01*
G01X18843716Y-15660261D01*
G01X18824693Y-15669131D01*
G01X18807500Y-15681170D01*
G01X18792658Y-15696012D01*
G01X18780619Y-15713206D01*
G01X18771748Y-15732229D01*
G01X18766316Y-15752503D01*
G01X18764486Y-15773413D01*
G01X18090773Y-15773413D01*
G01X18090773Y-15519413D01*
G01X18764486Y-15519413D01*
G01X18766316Y-15540322D01*
G01X18771748Y-15560597D01*
G01X18780619Y-15579620D01*
G01X18792658Y-15596813D01*
G01X18807500Y-15611655D01*
G01X18824693Y-15623694D01*
G01X18843716Y-15632565D01*
G01X18863990Y-15637997D01*
G01X18884900Y-15639826D01*
G01X18905810Y-15637997D01*
G01X18926084Y-15632565D01*
G01X18945107Y-15623694D01*
G01X18962300Y-15611655D01*
G01X18977142Y-15596813D01*
G01X18989181Y-15579620D01*
G01X18998052Y-15560597D01*
G01X19003484Y-15540322D01*
G01X19005314Y-15519413D01*
G01X19003484Y-15498503D01*
G01X18998052Y-15478229D01*
G01X18989181Y-15459206D01*
G01X18977142Y-15442012D01*
G01X18962300Y-15427170D01*
G01X18945107Y-15415131D01*
G01X18926084Y-15406261D01*
G01X18905810Y-15400828D01*
G01X18884900Y-15398999D01*
G01X18884900Y-15398999D01*
G01X18863990Y-15400828D01*
G01X18843716Y-15406261D01*
G01X18824693Y-15415131D01*
G01X18807500Y-15427170D01*
G01X18792658Y-15442012D01*
G01X18780619Y-15459206D01*
G01X18771748Y-15478229D01*
G01X18766316Y-15498503D01*
G01X18764486Y-15519413D01*
G01X18090773Y-15519413D01*
G01X18090773Y-13537017D01*
G01X18109127Y-13526464D01*
G01X18125444Y-13512973D01*
G01X18139260Y-13496930D01*
G01X18150180Y-13478792D01*
G01X18157893Y-13459075D01*
G01X18162180Y-13438342D01*
G01X18162701Y-13423406D01*
G01X18166245Y-13423406D01*
G01X18168150Y-13445184D01*
G01X18173808Y-13466300D01*
G01X18183047Y-13486113D01*
G01X18195586Y-13504020D01*
G01X18211044Y-13519478D01*
G01X18228952Y-13532017D01*
G01X18248765Y-13541256D01*
G01X18269881Y-13546914D01*
G01X18291659Y-13548820D01*
G01X18313437Y-13546914D01*
G01X18334553Y-13541256D01*
G01X18354366Y-13532017D01*
G01X18372273Y-13519478D01*
G01X18387731Y-13504020D01*
G01X18400270Y-13486113D01*
G01X18409509Y-13466300D01*
G01X18415167Y-13445184D01*
G01X18417073Y-13423406D01*
G01X18417073Y-13423406D01*
G01X18415167Y-13401628D01*
G01X18409509Y-13380512D01*
G01X18400270Y-13360699D01*
G01X18387731Y-13342792D01*
G01X18383346Y-13338406D01*
G01X18420245Y-13338406D01*
G01X18420245Y-13508406D01*
G01X18422223Y-13520894D01*
G01X18427963Y-13532161D01*
G01X18436904Y-13541101D01*
G01X18448170Y-13546842D01*
G01X18460659Y-13548820D01*
G01X18630659Y-13548820D01*
G01X18643147Y-13546842D01*
G01X18654413Y-13541101D01*
G01X18663354Y-13532161D01*
G01X18669095Y-13520894D01*
G01X18671073Y-13508406D01*
G01X18671073Y-13338406D01*
G01X18669095Y-13325918D01*
G01X18663354Y-13314651D01*
G01X18654413Y-13305711D01*
G01X18643147Y-13299970D01*
G01X18630659Y-13297992D01*
G01X18460659Y-13297992D01*
G01X18460659Y-13297992D01*
G01X18448170Y-13299970D01*
G01X18436904Y-13305711D01*
G01X18427963Y-13314651D01*
G01X18422223Y-13325918D01*
G01X18420245Y-13338406D01*
G01X18383346Y-13338406D01*
G01X18372273Y-13327333D01*
G01X18354366Y-13314794D01*
G01X18334553Y-13305556D01*
G01X18313437Y-13299898D01*
G01X18291659Y-13297992D01*
G01X18269881Y-13299898D01*
G01X18248765Y-13305556D01*
G01X18228952Y-13314794D01*
G01X18211044Y-13327333D01*
G01X18195586Y-13342792D01*
G01X18183047Y-13360699D01*
G01X18173808Y-13380512D01*
G01X18168150Y-13401628D01*
G01X18166245Y-13423406D01*
G01X18162701Y-13423406D01*
G01X18162918Y-13417183D01*
G01X18160086Y-13396201D01*
G01X18153766Y-13375995D01*
G01X18144136Y-13357140D01*
G01X18131472Y-13340173D01*
G01X18116134Y-13325578D01*
G01X18098560Y-13313772D01*
G01X18079250Y-13305090D01*
G01X18058755Y-13299779D01*
G01X18037659Y-13297992D01*
G01X18016563Y-13299779D01*
G01X17996067Y-13305090D01*
G01X17976758Y-13313772D01*
G01X17959184Y-13325578D01*
G01X17943846Y-13340173D01*
G01X17931182Y-13357140D01*
G01X17921552Y-13375995D01*
G01X17915231Y-13396201D01*
G01X17912400Y-13417183D01*
G01X17908918Y-13417183D01*
G01X17906086Y-13396201D01*
G01X17899766Y-13375995D01*
G01X17890136Y-13357140D01*
G01X17877472Y-13340173D01*
G01X17862134Y-13325578D01*
G01X17844560Y-13313772D01*
G01X17825250Y-13305090D01*
G01X17804755Y-13299779D01*
G01X17783659Y-13297992D01*
G01X17762563Y-13299779D01*
G01X17742067Y-13305090D01*
G01X17722758Y-13313772D01*
G01X17705184Y-13325578D01*
G01X17689846Y-13340173D01*
G01X17677182Y-13357140D01*
G01X17667552Y-13375995D01*
G01X17661231Y-13396201D01*
G01X17658400Y-13417183D01*
G01X17659138Y-13438342D01*
G01X17663424Y-13459075D01*
G01X17671138Y-13478792D01*
G01X17682058Y-13496930D01*
G01X17695873Y-13512973D01*
G01X17712191Y-13526464D01*
G01X17730545Y-13537017D01*
G01X17730545Y-17212172D01*
G01X17732355Y-17225918D01*
G01X17737661Y-17238729D01*
G01X17746102Y-17249729D01*
G01X18770928Y-18274555D01*
G01X18766954Y-18289158D01*
G01X18764843Y-18304145D01*
G01X18764629Y-18319277D01*
G01X15888120Y-15442768D01*
G01X15874419Y-15431524D01*
G01X15858787Y-15423168D01*
G01X15841826Y-15418023D01*
G01X15824187Y-15416286D01*
G01X13276584Y-15416286D01*
G01X13260988Y-15402474D01*
G01X13243392Y-15391322D01*
G01X13224244Y-15383114D01*
G01X13272600Y-15383114D01*
G01X13285088Y-15381136D01*
G01X13296355Y-15375395D01*
G01X13305295Y-15366455D01*
G01X13311036Y-15355188D01*
G01X13313014Y-15342700D01*
G01X13313014Y-15162700D01*
G01X13311036Y-15150212D01*
G01X13305295Y-15138945D01*
G01X13296355Y-15130005D01*
G01X13285088Y-15124264D01*
G01X13272600Y-15122286D01*
G01X13092600Y-15122286D01*
G01X13080112Y-15124264D01*
G01X13068845Y-15130005D01*
G01X13059905Y-15138945D01*
G01X13054164Y-15150212D01*
G01X13052186Y-15162700D01*
G01X11021060Y-15162700D01*
G01X11021060Y-12700000D01*
G01X13826486Y-12700000D01*
G01X13828512Y-12720565D01*
G01X13834510Y-12740340D01*
G01X13844252Y-12758565D01*
G01X13857361Y-12774539D01*
G01X13873335Y-12787648D01*
G01X13891560Y-12797390D01*
G01X13911335Y-12803388D01*
G01X13931900Y-12805414D01*
G01X13952465Y-12803388D01*
G01X13972240Y-12797390D01*
G01X13990465Y-12787648D01*
G01X14006439Y-12774539D01*
G01X14019548Y-12758565D01*
G01X14029290Y-12740340D01*
G01X14035288Y-12720565D01*
G01X14035393Y-12719505D01*
G01X15180857Y-12719505D01*
G01X15180857Y-12739880D01*
G01X15184601Y-12759909D01*
G01X15191962Y-12778908D01*
G01X15202688Y-12796232D01*
G01X15216415Y-12811289D01*
G01X15232675Y-12823568D01*
G01X15250914Y-12832650D01*
G01X15270512Y-12838226D01*
G01X15290800Y-12840106D01*
G01X15290800Y-12840106D01*
G01X15311088Y-12838226D01*
G01X15330686Y-12832650D01*
G01X15348925Y-12823568D01*
G01X15365185Y-12811289D01*
G01X15378912Y-12796232D01*
G01X15389638Y-12778908D01*
G01X15396999Y-12759909D01*
G01X15400743Y-12739880D01*
G01X15400743Y-12719505D01*
G01X15396999Y-12699476D01*
G01X15389638Y-12680477D01*
G01X15378912Y-12663153D01*
G01X15365185Y-12648096D01*
G01X15348925Y-12635817D01*
G01X15330686Y-12626735D01*
G01X15311088Y-12621159D01*
G01X15290800Y-12619279D01*
G01X15270512Y-12621159D01*
G01X15250914Y-12626735D01*
G01X15232675Y-12635817D01*
G01X15216415Y-12648096D01*
G01X15202688Y-12663153D01*
G01X15191962Y-12680477D01*
G01X15184601Y-12699476D01*
G01X15180857Y-12719505D01*
G01X14035393Y-12719505D01*
G01X14037314Y-12700000D01*
G01X14035288Y-12679435D01*
G01X14029290Y-12659660D01*
G01X14019548Y-12641435D01*
G01X14006439Y-12625461D01*
G01X13990465Y-12612352D01*
G01X13972240Y-12602610D01*
G01X13952465Y-12596612D01*
G01X13931900Y-12594586D01*
G01X13931900Y-12594586D01*
G01X13911335Y-12596612D01*
G01X13891560Y-12602610D01*
G01X13873335Y-12612352D01*
G01X13857361Y-12625461D01*
G01X13844252Y-12641435D01*
G01X13834510Y-12659660D01*
G01X13828512Y-12679435D01*
G01X13826486Y-12700000D01*
G01X11021060Y-12700000D01*
G01X11021060Y-12560234D01*
G01X13041084Y-12560234D01*
G01X13041084Y-12581753D01*
G01X13045038Y-12602906D01*
G01X13052811Y-12622973D01*
G01X13064140Y-12641269D01*
G01X13078638Y-12657172D01*
G01X13095811Y-12670141D01*
G01X13115074Y-12679733D01*
G01X13135772Y-12685622D01*
G01X13157200Y-12687607D01*
G01X13178628Y-12685622D01*
G01X13199326Y-12679733D01*
G01X13218589Y-12670141D01*
G01X13235762Y-12657172D01*
G01X13250260Y-12641269D01*
G01X13261589Y-12622973D01*
G01X13269362Y-12602906D01*
G01X13273316Y-12581753D01*
G01X13273316Y-12560234D01*
G01X13269362Y-12539080D01*
G01X13261589Y-12519014D01*
G01X13250260Y-12500718D01*
G01X13235762Y-12484815D01*
G01X13218589Y-12471846D01*
G01X13199326Y-12462254D01*
G01X13178628Y-12456365D01*
G01X13157200Y-12454379D01*
G01X13157200Y-12454379D01*
G01X13135772Y-12456365D01*
G01X13115074Y-12462254D01*
G01X13095811Y-12471846D01*
G01X13078638Y-12484815D01*
G01X13064140Y-12500718D01*
G01X13052811Y-12519014D01*
G01X13045038Y-12539080D01*
G01X13041084Y-12560234D01*
G01X11021060Y-12560234D01*
G01X11021060Y-12397207D01*
G01X13040586Y-12397207D01*
G01X13042564Y-12409695D01*
G01X13048304Y-12420961D01*
G01X13057245Y-12429902D01*
G01X13068511Y-12435643D01*
G01X13081000Y-12437621D01*
G01X13233400Y-12437621D01*
G01X13245889Y-12435643D01*
G01X13257155Y-12429902D01*
G01X13266096Y-12420961D01*
G01X13271836Y-12409695D01*
G01X13273814Y-12397207D01*
G01X13273814Y-12244807D01*
G01X13271836Y-12232318D01*
G01X13266096Y-12221052D01*
G01X13257155Y-12212111D01*
G01X13245889Y-12206371D01*
G01X13233400Y-12204393D01*
G01X13081000Y-12204393D01*
G01X13068511Y-12206371D01*
G01X13057245Y-12212111D01*
G01X13048304Y-12221052D01*
G01X13042564Y-12232318D01*
G01X13040586Y-12244807D01*
G01X13040586Y-12397207D01*
G01X13040586Y-12397207D01*
G01X11021060Y-12397207D01*
G01X11021060Y-12192000D01*
G01X13826486Y-12192000D01*
G01X13828512Y-12212565D01*
G01X13834510Y-12232340D01*
G01X13844252Y-12250565D01*
G01X13857361Y-12266539D01*
G01X13873335Y-12279648D01*
G01X13891560Y-12289390D01*
G01X13911335Y-12295388D01*
G01X13931900Y-12297414D01*
G01X13952465Y-12295388D01*
G01X13972240Y-12289390D01*
G01X13990465Y-12279648D01*
G01X14006439Y-12266539D01*
G01X14019548Y-12250565D01*
G01X14029290Y-12232340D01*
G01X14035288Y-12212565D01*
G01X14037314Y-12192000D01*
G01X14035288Y-12171435D01*
G01X14029290Y-12151660D01*
G01X14019548Y-12133435D01*
G01X14006439Y-12117461D01*
G01X13990465Y-12104352D01*
G01X13972240Y-12094610D01*
G01X13952465Y-12088612D01*
G01X13931900Y-12086586D01*
G01X13931900Y-12086586D01*
G01X13911335Y-12088612D01*
G01X13891560Y-12094610D01*
G01X13873335Y-12104352D01*
G01X13857361Y-12117461D01*
G01X13844252Y-12133435D01*
G01X13834510Y-12151660D01*
G01X13828512Y-12171435D01*
G01X13826486Y-12192000D01*
G01X11021060Y-12192000D01*
G01X11021060Y-11674824D01*
G01X15180494Y-11674824D01*
G01X15181533Y-11695582D01*
G01X15186444Y-11715777D01*
G01X15195052Y-11734695D01*
G01X15207053Y-11751664D01*
G01X15222022Y-11766083D01*
G01X15239427Y-11777442D01*
G01X15258653Y-11785338D01*
G01X15279017Y-11789491D01*
G01X15299799Y-11789754D01*
G01X15320263Y-11786118D01*
G01X15339682Y-11778711D01*
G01X15357369Y-11767797D01*
G01X15372698Y-11753761D01*
G01X15385125Y-11737101D01*
G01X17275387Y-11737101D01*
G01X18831786Y-13293501D01*
G01X18831786Y-15144974D01*
G01X18804900Y-15144974D01*
G01X18804900Y-15144974D01*
G01X18792412Y-15146952D01*
G01X18781145Y-15152692D01*
G01X18772205Y-15161633D01*
G01X18766464Y-15172899D01*
G01X18764486Y-15185387D01*
G01X18764486Y-15345387D01*
G01X18766464Y-15357876D01*
G01X18772205Y-15369142D01*
G01X18781145Y-15378083D01*
G01X18792412Y-15383823D01*
G01X18804900Y-15385801D01*
G01X18930199Y-15385801D01*
G01X20244355Y-16699957D01*
G01X20255356Y-16708398D01*
G01X20268166Y-16713704D01*
G01X20281913Y-16715514D01*
G01X21075829Y-16715514D01*
G01X21064973Y-16732151D01*
G01X21056999Y-16750347D01*
G01X21052126Y-16769606D01*
G01X21050486Y-16789405D01*
G01X21052124Y-16809203D01*
G01X21056994Y-16828463D01*
G01X21064965Y-16846660D01*
G01X21075819Y-16863299D01*
G01X19011900Y-16863299D01*
G01X18998153Y-16865109D01*
G01X18985343Y-16870415D01*
G01X18974343Y-16878855D01*
G01X18923757Y-16929441D01*
G01X18902846Y-16924344D01*
G01X18881362Y-16923051D01*
G01X18859990Y-16925604D01*
G01X18839414Y-16931920D01*
G01X18820292Y-16941799D01*
G01X18803234Y-16954925D01*
G01X18788785Y-16970878D01*
G01X18777407Y-16989148D01*
G01X18769463Y-17009152D01*
G01X18765208Y-17030251D01*
G01X18764777Y-17051770D01*
G01X18768183Y-17073022D01*
G01X18775319Y-17093328D01*
G01X18785956Y-17112039D01*
G01X18799755Y-17128558D01*
G01X18816273Y-17142356D01*
G01X18834985Y-17152993D01*
G01X18855291Y-17160129D01*
G01X18876543Y-17163536D01*
G01X18898062Y-17163105D01*
G01X18919161Y-17158850D01*
G01X18939165Y-17150906D01*
G01X18957435Y-17139528D01*
G01X18973388Y-17125079D01*
G01X18986513Y-17108021D01*
G01X18996392Y-17088898D01*
G01X19002709Y-17068323D01*
G01X19005262Y-17046951D01*
G01X19003969Y-17025467D01*
G01X18998872Y-17004555D01*
G01X19033901Y-16969527D01*
G01X21075819Y-16969527D01*
G01X21064596Y-16986853D01*
G01X21056498Y-17005841D01*
G01X21051762Y-17025934D01*
G01X21050527Y-17046540D01*
G01X21052830Y-17067054D01*
G01X21058603Y-17086874D01*
G01X21067677Y-17105416D01*
G01X21079784Y-17122136D01*
G01X21094569Y-17136542D01*
G01X21111598Y-17148211D01*
G01X21130370Y-17156800D01*
G01X21150333Y-17162057D01*
G01X21170900Y-17163826D01*
G01X21191467Y-17162057D01*
G01X21211430Y-17156800D01*
G01X21230202Y-17148211D01*
G01X21247231Y-17136542D01*
G01X21262016Y-17122136D01*
G01X21274123Y-17105416D01*
G01X21283197Y-17086874D01*
G01X21288970Y-17067054D01*
G01X21291273Y-17046540D01*
G01X21290038Y-17025934D01*
G01X21285302Y-17005841D01*
G01X21277204Y-16986853D01*
G01X21265981Y-16969527D01*
G01X26557323Y-16969527D01*
G01X26571070Y-16967717D01*
G01X26583880Y-16962411D01*
G01X26594880Y-16953970D01*
G01X27051550Y-16497300D01*
G01X27738386Y-16497300D01*
G01X27740292Y-16519078D01*
G01X27745950Y-16540194D01*
G01X27755188Y-16560007D01*
G01X27767727Y-16577914D01*
G01X27783186Y-16593373D01*
G01X27801093Y-16605912D01*
G01X27820906Y-16615150D01*
G01X27842022Y-16620808D01*
G01X27863800Y-16622714D01*
G01X27885578Y-16620808D01*
G01X27906694Y-16615150D01*
G01X27926507Y-16605912D01*
G01X27944414Y-16593373D01*
G01X27959873Y-16577914D01*
G01X27972412Y-16560007D01*
G01X27981650Y-16540194D01*
G01X27987308Y-16519078D01*
G01X27989214Y-16497300D01*
G01X27989214Y-16497300D01*
G01X27992386Y-16497300D01*
G01X27994292Y-16519078D01*
G01X27999950Y-16540194D01*
G01X28009188Y-16560007D01*
G01X28021727Y-16577914D01*
G01X28037186Y-16593373D01*
G01X28055093Y-16605912D01*
G01X28074906Y-16615150D01*
G01X28096022Y-16620808D01*
G01X28117800Y-16622714D01*
G01X28139578Y-16620808D01*
G01X28160694Y-16615150D01*
G01X28180507Y-16605912D01*
G01X28198414Y-16593373D01*
G01X28213873Y-16577914D01*
G01X28226412Y-16560007D01*
G01X28235650Y-16540194D01*
G01X28241308Y-16519078D01*
G01X28243214Y-16497300D01*
G01X28243214Y-16497300D01*
G01X28241308Y-16475522D01*
G01X28235650Y-16454406D01*
G01X28226412Y-16434593D01*
G01X28213873Y-16416686D01*
G01X28198414Y-16401227D01*
G01X28180507Y-16388688D01*
G01X28160694Y-16379450D01*
G01X28139578Y-16373792D01*
G01X28117800Y-16371886D01*
G01X28096022Y-16373792D01*
G01X28074906Y-16379450D01*
G01X28055093Y-16388688D01*
G01X28037186Y-16401227D01*
G01X28021727Y-16416686D01*
G01X28009188Y-16434593D01*
G01X27999950Y-16454406D01*
G01X27994292Y-16475522D01*
G01X27992386Y-16497300D01*
G01X27989214Y-16497300D01*
G01X27987308Y-16475522D01*
G01X27981650Y-16454406D01*
G01X27972412Y-16434593D01*
G01X27959873Y-16416686D01*
G01X27944414Y-16401227D01*
G01X27926507Y-16388688D01*
G01X27906694Y-16379450D01*
G01X27885578Y-16373792D01*
G01X27863800Y-16371886D01*
G01X27842022Y-16373792D01*
G01X27820906Y-16379450D01*
G01X27801093Y-16388688D01*
G01X27783186Y-16401227D01*
G01X27767727Y-16416686D01*
G01X27755188Y-16434593D01*
G01X27745950Y-16454406D01*
G01X27740292Y-16475522D01*
G01X27738386Y-16497300D01*
G01X27051550Y-16497300D01*
G01X27250051Y-16298799D01*
G01X30946489Y-16298799D01*
G01X30948470Y-16321445D01*
G01X30954354Y-16343403D01*
G01X30963961Y-16364006D01*
G01X30977000Y-16382627D01*
G01X30993074Y-16398702D01*
G01X31011696Y-16411741D01*
G01X31032298Y-16421348D01*
G01X31054256Y-16427231D01*
G01X31076903Y-16429213D01*
G01X31099549Y-16427231D01*
G01X31121507Y-16421348D01*
G01X31142109Y-16411741D01*
G01X31160731Y-16398702D01*
G01X31176805Y-16382627D01*
G01X31189844Y-16364006D01*
G01X31199451Y-16343403D01*
G01X31205335Y-16321445D01*
G01X31207316Y-16298799D01*
G01X31205335Y-16276153D01*
G01X31199451Y-16254195D01*
G01X31189844Y-16233592D01*
G01X31176805Y-16214971D01*
G01X31160731Y-16198896D01*
G01X31142109Y-16185857D01*
G01X31121507Y-16176250D01*
G01X31099549Y-16170367D01*
G01X31076903Y-16168385D01*
G01X31076903Y-16168385D01*
G01X31054256Y-16170367D01*
G01X31032298Y-16176250D01*
G01X31011696Y-16185857D01*
G01X30993074Y-16198896D01*
G01X30977000Y-16214971D01*
G01X30963961Y-16233592D01*
G01X30954354Y-16254195D01*
G01X30948470Y-16276153D01*
G01X30946489Y-16298799D01*
G01X27250051Y-16298799D01*
G01X27282657Y-16266193D01*
G01X27282657Y-16266193D01*
G01X27291098Y-16255193D01*
G01X27296404Y-16242383D01*
G01X27298214Y-16228636D01*
G01X27298214Y-16172813D01*
G01X27428613Y-16042414D01*
G01X30149800Y-16042414D01*
G01X30163547Y-16040604D01*
G01X30176357Y-16035298D01*
G01X30187357Y-16026857D01*
G01X30362301Y-15851914D01*
G01X30957795Y-15851914D01*
G01X30968507Y-15871314D01*
G01X30982350Y-15888619D01*
G01X30998923Y-15903332D01*
G01X31017747Y-15915026D01*
G01X31038280Y-15923363D01*
G01X31059928Y-15928104D01*
G01X31082066Y-15929112D01*
G01X31104055Y-15926356D01*
G01X31125259Y-15919917D01*
G01X31145068Y-15909981D01*
G01X31162908Y-15896834D01*
G01X31178265Y-15880857D01*
G01X31190695Y-15862510D01*
G01X31199839Y-15842324D01*
G01X31205433Y-15820881D01*
G01X31207316Y-15798800D01*
G01X31205433Y-15776719D01*
G01X31199839Y-15755276D01*
G01X31190695Y-15735090D01*
G01X31178265Y-15716743D01*
G01X31162908Y-15700766D01*
G01X31145068Y-15687619D01*
G01X31125259Y-15677683D01*
G01X31104055Y-15671244D01*
G01X31082066Y-15668488D01*
G01X31059928Y-15669496D01*
G01X31038280Y-15674237D01*
G01X31017747Y-15682574D01*
G01X30998923Y-15694268D01*
G01X30982350Y-15708981D01*
G01X30968507Y-15726286D01*
G01X30957795Y-15745686D01*
G01X30340300Y-15745686D01*
G01X30326553Y-15747496D01*
G01X30313743Y-15752802D01*
G01X30302743Y-15761243D01*
G01X30127799Y-15936186D01*
G01X27406613Y-15936186D01*
G01X27392866Y-15937996D01*
G01X27380056Y-15943302D01*
G01X27369055Y-15951743D01*
G01X27226057Y-16094741D01*
G01X27212538Y-16081184D01*
G01X27197180Y-16069752D01*
G01X27180314Y-16060692D01*
G01X27180314Y-16044908D01*
G01X27199099Y-16034604D01*
G01X27215944Y-16021363D01*
G01X27230393Y-16005543D01*
G01X27242057Y-15987570D01*
G01X27250621Y-15967930D01*
G01X27255854Y-15947153D01*
G01X27257614Y-15925800D01*
G01X27255854Y-15904447D01*
G01X27250621Y-15883670D01*
G01X27242057Y-15864030D01*
G01X27230393Y-15846057D01*
G01X27215944Y-15830237D01*
G01X27199099Y-15816996D01*
G01X27180314Y-15806692D01*
G01X27180314Y-15790954D01*
G01X27217200Y-15790954D01*
G01X27229688Y-15788976D01*
G01X27240955Y-15783236D01*
G01X27249895Y-15774295D01*
G01X27255636Y-15763029D01*
G01X27257614Y-15750540D01*
G01X27257614Y-15593060D01*
G01X27255636Y-15580571D01*
G01X27249895Y-15569305D01*
G01X27240955Y-15560364D01*
G01X27229688Y-15554624D01*
G01X27217200Y-15552646D01*
G01X27180314Y-15552646D01*
G01X27180314Y-15227300D01*
G01X27738386Y-15227300D01*
G01X27740292Y-15249078D01*
G01X27745950Y-15270194D01*
G01X27755188Y-15290007D01*
G01X27767727Y-15307914D01*
G01X27783186Y-15323373D01*
G01X27801093Y-15335912D01*
G01X27820906Y-15345150D01*
G01X27842022Y-15350808D01*
G01X27863800Y-15352714D01*
G01X27885578Y-15350808D01*
G01X27906694Y-15345150D01*
G01X27926507Y-15335912D01*
G01X27944414Y-15323373D01*
G01X27959873Y-15307914D01*
G01X27972412Y-15290007D01*
G01X27981650Y-15270194D01*
G01X27987308Y-15249078D01*
G01X27989214Y-15227300D01*
G01X27989214Y-15227300D01*
G01X27992386Y-15227300D01*
G01X27994292Y-15249078D01*
G01X27999950Y-15270194D01*
G01X28009188Y-15290007D01*
G01X28021727Y-15307914D01*
G01X28037186Y-15323373D01*
G01X28055093Y-15335912D01*
G01X28074906Y-15345150D01*
G01X28096022Y-15350808D01*
G01X28117800Y-15352714D01*
G01X28139578Y-15350808D01*
G01X28160694Y-15345150D01*
G01X28180507Y-15335912D01*
G01X28198414Y-15323373D01*
G01X28213873Y-15307914D01*
G01X28226412Y-15290007D01*
G01X28235650Y-15270194D01*
G01X28241308Y-15249078D01*
G01X28243214Y-15227300D01*
G01X28243214Y-15227300D01*
G01X28246386Y-15227300D01*
G01X28248173Y-15248396D01*
G01X28253484Y-15268891D01*
G01X28262166Y-15288201D01*
G01X28273972Y-15305775D01*
G01X28288567Y-15321113D01*
G01X28305534Y-15333777D01*
G01X28324389Y-15343407D01*
G01X28344595Y-15349728D01*
G01X28365577Y-15352559D01*
G01X28386736Y-15351821D01*
G01X28407469Y-15347534D01*
G01X28427186Y-15339821D01*
G01X28445324Y-15328901D01*
G01X28461367Y-15315085D01*
G01X28474858Y-15298768D01*
G01X28485411Y-15280414D01*
G01X28512189Y-15280414D01*
G01X28522742Y-15298768D01*
G01X28536233Y-15315085D01*
G01X28552276Y-15328901D01*
G01X28570414Y-15339821D01*
G01X28590131Y-15347534D01*
G01X28610864Y-15351821D01*
G01X28632023Y-15352559D01*
G01X28653005Y-15349728D01*
G01X28673211Y-15343407D01*
G01X28692066Y-15333777D01*
G01X28709033Y-15321113D01*
G01X28723628Y-15305775D01*
G01X28735434Y-15288201D01*
G01X28744116Y-15268891D01*
G01X28749427Y-15248396D01*
G01X28751214Y-15227300D01*
G01X28751214Y-15227300D01*
G01X28749427Y-15206204D01*
G01X28744116Y-15185709D01*
G01X28735434Y-15166399D01*
G01X28723628Y-15148825D01*
G01X28709033Y-15133487D01*
G01X28692066Y-15120823D01*
G01X28673211Y-15111193D01*
G01X28653005Y-15104872D01*
G01X28632023Y-15102041D01*
G01X28610864Y-15102779D01*
G01X28590131Y-15107066D01*
G01X28570414Y-15114779D01*
G01X28552276Y-15125699D01*
G01X28536233Y-15139515D01*
G01X28522742Y-15155832D01*
G01X28512189Y-15174186D01*
G01X28485411Y-15174186D01*
G01X28474858Y-15155832D01*
G01X28461367Y-15139515D01*
G01X28445324Y-15125699D01*
G01X28427186Y-15114779D01*
G01X28407469Y-15107066D01*
G01X28386736Y-15102779D01*
G01X28365577Y-15102041D01*
G01X28344595Y-15104872D01*
G01X28324389Y-15111193D01*
G01X28305534Y-15120823D01*
G01X28288567Y-15133487D01*
G01X28273972Y-15148825D01*
G01X28262166Y-15166399D01*
G01X28253484Y-15185709D01*
G01X28248173Y-15206204D01*
G01X28246386Y-15227300D01*
G01X28243214Y-15227300D01*
G01X28241308Y-15205522D01*
G01X28235650Y-15184406D01*
G01X28226412Y-15164593D01*
G01X28213873Y-15146686D01*
G01X28198414Y-15131227D01*
G01X28180507Y-15118688D01*
G01X28160694Y-15109450D01*
G01X28139578Y-15103792D01*
G01X28117800Y-15101886D01*
G01X28096022Y-15103792D01*
G01X28074906Y-15109450D01*
G01X28055093Y-15118688D01*
G01X28037186Y-15131227D01*
G01X28021727Y-15146686D01*
G01X28009188Y-15164593D01*
G01X27999950Y-15184406D01*
G01X27994292Y-15205522D01*
G01X27992386Y-15227300D01*
G01X27989214Y-15227300D01*
G01X27987308Y-15205522D01*
G01X27981650Y-15184406D01*
G01X27972412Y-15164593D01*
G01X27959873Y-15146686D01*
G01X27944414Y-15131227D01*
G01X27926507Y-15118688D01*
G01X27906694Y-15109450D01*
G01X27885578Y-15103792D01*
G01X27863800Y-15101886D01*
G01X27842022Y-15103792D01*
G01X27820906Y-15109450D01*
G01X27801093Y-15118688D01*
G01X27783186Y-15131227D01*
G01X27767727Y-15146686D01*
G01X27755188Y-15164593D01*
G01X27745950Y-15184406D01*
G01X27740292Y-15205522D01*
G01X27738386Y-15227300D01*
G01X27180314Y-15227300D01*
G01X27180314Y-13508381D01*
G01X28597061Y-13508381D01*
G01X28598180Y-13530408D01*
G01X28602995Y-13551931D01*
G01X28611368Y-13572334D01*
G01X28623059Y-13591036D01*
G01X28637735Y-13607499D01*
G01X28654975Y-13621254D01*
G01X28674286Y-13631908D01*
G01X28674286Y-15074900D01*
G01X28674286Y-15074900D01*
G01X28676096Y-15088647D01*
G01X28681402Y-15101457D01*
G01X28689843Y-15112457D01*
G01X28689843Y-15112457D01*
G01X28761907Y-15184522D01*
G01X28756392Y-15204963D01*
G01X28754393Y-15226040D01*
G01X28755968Y-15247153D01*
G01X28761072Y-15267701D01*
G01X28769559Y-15287097D01*
G01X28781189Y-15304788D01*
G01X28795629Y-15320272D01*
G01X28812467Y-15333106D01*
G01X28831225Y-15342925D01*
G01X28851367Y-15349448D01*
G01X28872319Y-15352490D01*
G01X28893484Y-15351965D01*
G01X28914259Y-15347887D01*
G01X28934053Y-15340372D01*
G01X28952300Y-15329635D01*
G01X28968481Y-15315981D01*
G01X28982135Y-15299800D01*
G01X28992872Y-15281553D01*
G01X29000387Y-15261759D01*
G01X29004465Y-15240984D01*
G01X29004990Y-15219819D01*
G01X29001948Y-15198867D01*
G01X28995425Y-15178725D01*
G01X28985606Y-15159967D01*
G01X28972772Y-15143129D01*
G01X28957288Y-15128689D01*
G01X28939597Y-15117059D01*
G01X28920201Y-15108572D01*
G01X28899653Y-15103468D01*
G01X28878540Y-15101893D01*
G01X28857463Y-15103892D01*
G01X28837022Y-15109407D01*
G01X28780514Y-15052899D01*
G01X28780514Y-13631908D01*
G01X28798119Y-13622374D01*
G01X28814058Y-13610258D01*
G01X28827955Y-13595845D01*
G01X28839481Y-13579475D01*
G01X28848366Y-13561534D01*
G01X28854400Y-13542444D01*
G01X28860434Y-13561534D01*
G01X28869319Y-13579475D01*
G01X28880845Y-13595845D01*
G01X28894742Y-13610258D01*
G01X28910681Y-13622374D01*
G01X28928286Y-13631908D01*
G01X28928286Y-15074900D01*
G01X28930096Y-15088647D01*
G01X28935402Y-15101457D01*
G01X28943843Y-15112457D01*
G01X28943843Y-15112457D01*
G01X29015907Y-15184522D01*
G01X29010392Y-15204963D01*
G01X29008393Y-15226040D01*
G01X29009968Y-15247153D01*
G01X29015072Y-15267701D01*
G01X29023559Y-15287097D01*
G01X29035189Y-15304788D01*
G01X29049629Y-15320272D01*
G01X29066467Y-15333106D01*
G01X29085225Y-15342925D01*
G01X29105367Y-15349448D01*
G01X29126319Y-15352490D01*
G01X29147484Y-15351965D01*
G01X29168259Y-15347887D01*
G01X29188053Y-15340372D01*
G01X29206300Y-15329635D01*
G01X29222481Y-15315981D01*
G01X29236135Y-15299800D01*
G01X29246872Y-15281553D01*
G01X29254387Y-15261759D01*
G01X29258465Y-15240984D01*
G01X29258990Y-15219819D01*
G01X29255948Y-15198867D01*
G01X29249425Y-15178725D01*
G01X29239606Y-15159967D01*
G01X29226772Y-15143129D01*
G01X29211288Y-15128689D01*
G01X29193597Y-15117059D01*
G01X29174201Y-15108572D01*
G01X29153653Y-15103468D01*
G01X29132540Y-15101893D01*
G01X29111463Y-15103892D01*
G01X29091022Y-15109407D01*
G01X29034514Y-15052899D01*
G01X29034514Y-13631908D01*
G01X29053825Y-13621254D01*
G01X29071065Y-13607499D01*
G01X29085741Y-13591036D01*
G01X29097432Y-13572334D01*
G01X29105805Y-13551931D01*
G01X29110620Y-13530408D01*
G01X29111739Y-13508381D01*
G01X29109130Y-13486481D01*
G01X29102869Y-13465334D01*
G01X29093133Y-13445544D01*
G01X29080202Y-13427677D01*
G01X29075222Y-13422800D01*
G01X29116246Y-13422800D01*
G01X29116246Y-13602800D01*
G01X29118224Y-13615288D01*
G01X29123964Y-13626555D01*
G01X29132905Y-13635495D01*
G01X29144171Y-13641236D01*
G01X29156660Y-13643214D01*
G01X29182286Y-13643214D01*
G01X29182286Y-15074900D01*
G01X29182286Y-15074900D01*
G01X29184096Y-15088647D01*
G01X29189402Y-15101457D01*
G01X29197843Y-15112457D01*
G01X29197843Y-15112457D01*
G01X29269907Y-15184522D01*
G01X29264392Y-15204963D01*
G01X29262393Y-15226040D01*
G01X29263968Y-15247153D01*
G01X29269072Y-15267701D01*
G01X29277559Y-15287097D01*
G01X29289189Y-15304788D01*
G01X29303629Y-15320272D01*
G01X29320467Y-15333106D01*
G01X29339225Y-15342925D01*
G01X29359367Y-15349448D01*
G01X29380319Y-15352490D01*
G01X29401484Y-15351965D01*
G01X29422259Y-15347887D01*
G01X29442053Y-15340372D01*
G01X29460300Y-15329635D01*
G01X29476481Y-15315981D01*
G01X29490135Y-15299800D01*
G01X29500872Y-15281553D01*
G01X29508387Y-15261759D01*
G01X29512465Y-15240984D01*
G01X29512990Y-15219819D01*
G01X29509948Y-15198867D01*
G01X29503425Y-15178725D01*
G01X29493606Y-15159967D01*
G01X29480772Y-15143129D01*
G01X29479884Y-15142300D01*
G01X29522646Y-15142300D01*
G01X29522646Y-15312300D01*
G01X29524624Y-15324788D01*
G01X29530364Y-15336055D01*
G01X29539305Y-15344995D01*
G01X29550571Y-15350736D01*
G01X29563060Y-15352714D01*
G01X29720540Y-15352714D01*
G01X29733029Y-15350736D01*
G01X29744295Y-15344995D01*
G01X29753236Y-15336055D01*
G01X29758976Y-15324788D01*
G01X29760954Y-15312300D01*
G01X29760954Y-15298801D01*
G01X30946489Y-15298801D01*
G01X30948470Y-15321447D01*
G01X30954354Y-15343405D01*
G01X30963961Y-15364008D01*
G01X30977000Y-15382629D01*
G01X30993074Y-15398704D01*
G01X31011696Y-15411743D01*
G01X31032298Y-15421350D01*
G01X31054256Y-15427233D01*
G01X31076903Y-15429215D01*
G01X31099549Y-15427233D01*
G01X31121507Y-15421350D01*
G01X31142109Y-15411743D01*
G01X31160731Y-15398704D01*
G01X31176805Y-15382629D01*
G01X31189844Y-15364008D01*
G01X31199451Y-15343405D01*
G01X31205335Y-15321447D01*
G01X31207316Y-15298801D01*
G01X31205335Y-15276155D01*
G01X31199451Y-15254197D01*
G01X31189844Y-15233594D01*
G01X31176805Y-15214973D01*
G01X31160731Y-15198898D01*
G01X31142109Y-15185859D01*
G01X31121507Y-15176252D01*
G01X31099549Y-15170369D01*
G01X31076903Y-15168387D01*
G01X31076903Y-15168387D01*
G01X31054256Y-15170369D01*
G01X31032298Y-15176252D01*
G01X31011696Y-15185859D01*
G01X30993074Y-15198898D01*
G01X30977000Y-15214973D01*
G01X30963961Y-15233594D01*
G01X30954354Y-15254197D01*
G01X30948470Y-15276155D01*
G01X30946489Y-15298801D01*
G01X29760954Y-15298801D01*
G01X29760954Y-15142300D01*
G01X29758976Y-15129812D01*
G01X29753236Y-15118545D01*
G01X29744295Y-15109605D01*
G01X29733029Y-15103864D01*
G01X29720540Y-15101886D01*
G01X29563060Y-15101886D01*
G01X29563060Y-15101886D01*
G01X29550571Y-15103864D01*
G01X29539305Y-15109605D01*
G01X29530364Y-15118545D01*
G01X29524624Y-15129812D01*
G01X29522646Y-15142300D01*
G01X29479884Y-15142300D01*
G01X29465288Y-15128689D01*
G01X29447597Y-15117059D01*
G01X29428201Y-15108572D01*
G01X29407653Y-15103468D01*
G01X29386540Y-15101893D01*
G01X29365463Y-15103892D01*
G01X29345022Y-15109407D01*
G01X29288514Y-15052899D01*
G01X29288514Y-13643214D01*
G01X29314140Y-13643214D01*
G01X29326629Y-13641236D01*
G01X29337895Y-13635495D01*
G01X29346836Y-13626555D01*
G01X29352576Y-13615288D01*
G01X29354554Y-13602800D01*
G01X29354554Y-13422800D01*
G01X29352576Y-13410312D01*
G01X29346836Y-13399045D01*
G01X29337895Y-13390105D01*
G01X29326629Y-13384364D01*
G01X29314140Y-13382386D01*
G01X29156660Y-13382386D01*
G01X29144171Y-13384364D01*
G01X29132905Y-13390105D01*
G01X29123964Y-13399045D01*
G01X29118224Y-13410312D01*
G01X29116246Y-13422800D01*
G01X29075222Y-13422800D01*
G01X29064445Y-13412245D01*
G01X29046313Y-13399689D01*
G01X29026325Y-13390368D01*
G01X29005052Y-13384549D01*
G01X28983102Y-13382397D01*
G01X28961104Y-13383975D01*
G01X28939686Y-13389238D01*
G01X28919461Y-13398034D01*
G01X28901007Y-13410112D01*
G01X28884853Y-13425128D01*
G01X28871460Y-13442650D01*
G01X28861211Y-13462180D01*
G01X28854400Y-13483156D01*
G01X28847589Y-13462180D01*
G01X28837340Y-13442650D01*
G01X28823947Y-13425128D01*
G01X28807793Y-13410112D01*
G01X28789339Y-13398034D01*
G01X28769114Y-13389238D01*
G01X28747696Y-13383975D01*
G01X28725698Y-13382397D01*
G01X28703748Y-13384549D01*
G01X28682475Y-13390368D01*
G01X28662487Y-13399689D01*
G01X28644355Y-13412245D01*
G01X28628598Y-13427677D01*
G01X28615667Y-13445544D01*
G01X28605931Y-13465334D01*
G01X28599670Y-13486481D01*
G01X28597061Y-13508381D01*
G01X27180314Y-13508381D01*
G01X27180314Y-12280285D01*
G01X27201128Y-12270159D01*
G01X27219913Y-12256635D01*
G01X27236121Y-12240111D01*
G01X27249278Y-12221067D01*
G01X27258999Y-12200061D01*
G01X27265001Y-12177706D01*
G01X27267107Y-12154655D01*
G01X27267047Y-12153900D01*
G01X29146290Y-12153900D01*
G01X29148137Y-12176188D01*
G01X29153628Y-12197869D01*
G01X29162611Y-12218350D01*
G01X29174844Y-12237073D01*
G01X29189991Y-12253527D01*
G01X29207640Y-12267264D01*
G01X29227309Y-12277908D01*
G01X29248462Y-12285170D01*
G01X29270522Y-12288851D01*
G01X29292887Y-12288851D01*
G01X29314946Y-12285170D01*
G01X29336099Y-12277908D01*
G01X29355769Y-12267264D01*
G01X29373417Y-12253527D01*
G01X29388565Y-12237073D01*
G01X29400797Y-12218350D01*
G01X29409781Y-12197869D01*
G01X29415271Y-12176188D01*
G01X29417118Y-12153900D01*
G01X29417118Y-12153900D01*
G01X29415271Y-12131612D01*
G01X29409781Y-12109931D01*
G01X29400797Y-12089450D01*
G01X29388565Y-12070727D01*
G01X29373417Y-12054273D01*
G01X29355769Y-12040536D01*
G01X29336099Y-12029892D01*
G01X29314946Y-12022630D01*
G01X29292887Y-12018949D01*
G01X29270522Y-12018949D01*
G01X29248462Y-12022630D01*
G01X29227309Y-12029892D01*
G01X29207640Y-12040536D01*
G01X29189991Y-12054273D01*
G01X29174844Y-12070727D01*
G01X29162611Y-12089450D01*
G01X29153628Y-12109931D01*
G01X29148137Y-12131612D01*
G01X29146290Y-12153900D01*
G01X27267047Y-12153900D01*
G01X27265258Y-12131583D01*
G01X27259506Y-12109162D01*
G01X27250020Y-12088049D01*
G01X27237076Y-12068860D01*
G01X27221054Y-12052155D01*
G01X27202420Y-12038423D01*
G01X27181721Y-12028065D01*
G01X27159559Y-12021384D01*
G01X27136584Y-12018575D01*
G01X27113466Y-12019719D01*
G01X27090880Y-12024784D01*
G01X27069487Y-12033621D01*
G01X27049911Y-12045973D01*
G01X27032726Y-12061478D01*
G01X27018431Y-12079684D01*
G01X27007447Y-12100058D01*
G01X27000092Y-12122005D01*
G01X26996583Y-12144884D01*
G01X26997021Y-12168026D01*
G01X27001394Y-12190756D01*
G01X27009574Y-12212409D01*
G01X27021323Y-12232352D01*
G01X27036296Y-12250003D01*
G01X27054057Y-12264846D01*
G01X27074086Y-12276448D01*
G01X27074086Y-15522799D01*
G01X27044239Y-15552646D01*
G01X27037200Y-15552646D01*
G01X27024712Y-15554624D01*
G01X27013445Y-15560364D01*
G01X27004505Y-15569305D01*
G01X26998764Y-15580571D01*
G01X26996786Y-15593060D01*
G01X26996786Y-15600099D01*
G01X25987599Y-16609286D01*
G01X21265991Y-16609286D01*
G01X21276824Y-16592681D01*
G01X21284786Y-16574522D01*
G01X21289660Y-16555304D01*
G01X21291314Y-16535546D01*
G01X21289703Y-16515785D01*
G01X21284872Y-16496555D01*
G01X21322757Y-16458670D01*
G01X21331198Y-16447670D01*
G01X21336504Y-16434860D01*
G01X21338314Y-16421113D01*
G01X21338314Y-12463761D01*
G01X21356023Y-12452921D01*
G01X21371582Y-12439172D01*
G01X21384518Y-12422930D01*
G01X21394438Y-12404690D01*
G01X21401041Y-12385004D01*
G01X21404126Y-12364471D01*
G01X21403600Y-12343714D01*
G01X21399478Y-12323364D01*
G01X21391887Y-12304038D01*
G01X21381056Y-12286323D01*
G01X21367314Y-12270758D01*
G01X21351078Y-12257814D01*
G01X21473322Y-12257814D01*
G01X21456392Y-12271423D01*
G01X21442214Y-12287880D01*
G01X21431259Y-12306638D01*
G01X21423892Y-12327072D01*
G01X21420356Y-12348505D01*
G01X21420771Y-12370223D01*
G01X21425121Y-12391504D01*
G01X21433263Y-12411643D01*
G01X21444925Y-12429969D01*
G01X21459720Y-12445873D01*
G01X21477157Y-12458827D01*
G01X21496656Y-12468400D01*
G01X21517568Y-12474274D01*
G01X21539200Y-12476254D01*
G01X21560832Y-12474274D01*
G01X21581744Y-12468400D01*
G01X21601243Y-12458827D01*
G01X21618680Y-12445873D01*
G01X21633475Y-12429969D01*
G01X21645137Y-12411643D01*
G01X21653279Y-12391504D01*
G01X21657629Y-12370223D01*
G01X21658044Y-12348505D01*
G01X21654508Y-12327072D01*
G01X21647141Y-12306638D01*
G01X21636186Y-12287880D01*
G01X21622008Y-12271423D01*
G01X21605078Y-12257814D01*
G01X21727322Y-12257814D01*
G01X21710392Y-12271423D01*
G01X21696214Y-12287880D01*
G01X21685259Y-12306638D01*
G01X21677892Y-12327072D01*
G01X21674356Y-12348505D01*
G01X21674771Y-12370223D01*
G01X21679121Y-12391504D01*
G01X21687263Y-12411643D01*
G01X21698925Y-12429969D01*
G01X21713720Y-12445873D01*
G01X21731157Y-12458827D01*
G01X21750656Y-12468400D01*
G01X21771568Y-12474274D01*
G01X21793200Y-12476254D01*
G01X21814832Y-12474274D01*
G01X21835744Y-12468400D01*
G01X21855243Y-12458827D01*
G01X21872680Y-12445873D01*
G01X21887475Y-12429969D01*
G01X21899137Y-12411643D01*
G01X21907279Y-12391504D01*
G01X21911629Y-12370223D01*
G01X21912044Y-12348505D01*
G01X21908508Y-12327072D01*
G01X21901141Y-12306638D01*
G01X21890186Y-12287880D01*
G01X21876008Y-12271423D01*
G01X21859078Y-12257814D01*
G01X21872799Y-12257814D01*
G01X21934222Y-12319237D01*
G01X21929292Y-12339914D01*
G01X21928115Y-12361139D01*
G01X21930727Y-12382235D01*
G01X21937047Y-12402531D01*
G01X21946872Y-12421381D01*
G01X21959891Y-12438185D01*
G01X21975688Y-12452408D01*
G01X21993761Y-12463599D01*
G01X22013535Y-12471399D01*
G01X22034381Y-12475562D01*
G01X22055635Y-12475955D01*
G01X22076620Y-12472565D01*
G01X22096668Y-12465500D01*
G01X22115143Y-12454985D01*
G01X22131455Y-12441355D01*
G01X22145085Y-12425043D01*
G01X22155600Y-12406568D01*
G01X22162665Y-12386520D01*
G01X22166055Y-12365535D01*
G01X22165662Y-12344281D01*
G01X22161499Y-12323435D01*
G01X22153699Y-12303661D01*
G01X22142508Y-12285588D01*
G01X22136000Y-12278360D01*
G01X22182046Y-12278360D01*
G01X22182046Y-12435840D01*
G01X22184024Y-12448329D01*
G01X22189764Y-12459595D01*
G01X22198705Y-12468536D01*
G01X22209971Y-12474276D01*
G01X22222460Y-12476254D01*
G01X22379940Y-12476254D01*
G01X22392429Y-12474276D01*
G01X22403695Y-12468536D01*
G01X22412636Y-12459595D01*
G01X22418376Y-12448329D01*
G01X22420354Y-12435840D01*
G01X22420354Y-12278360D01*
G01X22418376Y-12265871D01*
G01X22412636Y-12254605D01*
G01X22403695Y-12245664D01*
G01X22392429Y-12239924D01*
G01X22379940Y-12237946D01*
G01X22222460Y-12237946D01*
G01X22222460Y-12237946D01*
G01X22209971Y-12239924D01*
G01X22198705Y-12245664D01*
G01X22189764Y-12254605D01*
G01X22184024Y-12265871D01*
G01X22182046Y-12278360D01*
G01X22136000Y-12278360D01*
G01X22128285Y-12269791D01*
G01X22111481Y-12256772D01*
G01X22092631Y-12246947D01*
G01X22072335Y-12240627D01*
G01X22051239Y-12238015D01*
G01X22030014Y-12239192D01*
G01X22009337Y-12244122D01*
G01X21932357Y-12167143D01*
G01X21921357Y-12158702D01*
G01X21908547Y-12153396D01*
G01X21894800Y-12151586D01*
G01X20226807Y-12151586D01*
G01X20213061Y-12153396D01*
G01X20200250Y-12158702D01*
G01X20189250Y-12167143D01*
G01X18938014Y-13418379D01*
G01X18938014Y-13271500D01*
G01X18936204Y-13257753D01*
G01X18930898Y-13244943D01*
G01X18922457Y-13233943D01*
G01X17334945Y-11646430D01*
G01X17323944Y-11637989D01*
G01X17311134Y-11632683D01*
G01X17297387Y-11630873D01*
G01X15389827Y-11630873D01*
G01X15378922Y-11613181D01*
G01X15364893Y-11597845D01*
G01X15348240Y-11585411D01*
G01X15329551Y-11576317D01*
G01X15309489Y-11570887D01*
G01X15288765Y-11569312D01*
G01X15268113Y-11571650D01*
G01X15248264Y-11577816D01*
G01X15229924Y-11587592D01*
G01X15213740Y-11600632D01*
G01X15200286Y-11616474D01*
G01X15190040Y-11634557D01*
G01X15183364Y-11654239D01*
G01X15180494Y-11674824D01*
G01X11021060Y-11674824D01*
G01X11021060Y-10793863D01*
G01X11037261Y-10827125D01*
G01X11056977Y-10858433D01*
G01X11079973Y-10887416D01*
G01X11105979Y-10913733D01*
G01X11134688Y-10937071D01*
G01X11165760Y-10957156D01*
G01X11198828Y-10973751D01*
G01X11233501Y-10986658D01*
G01X11269371Y-10995727D01*
G01X11306013Y-11000849D01*
G01X11342994Y-11001964D01*
G01X11379878Y-10999059D01*
G01X11416229Y-10992169D01*
G01X11451618Y-10981374D01*
G01X11485626Y-10966803D01*
G01X11517851Y-10948627D01*
G01X11547914Y-10927060D01*
G01X11575459Y-10902359D01*
G01X11600160Y-10874814D01*
G01X11621727Y-10844751D01*
G01X11639903Y-10812526D01*
G01X11654474Y-10778518D01*
G01X11665269Y-10743129D01*
G01X11672159Y-10706778D01*
G01X11675064Y-10669894D01*
G01X11673949Y-10632913D01*
G01X11668827Y-10596271D01*
G01X11659758Y-10560401D01*
G01X11646851Y-10525728D01*
G01X11630256Y-10492660D01*
G01X11610171Y-10461588D01*
G01X11586833Y-10432879D01*
G01X11560516Y-10406873D01*
G01X11531533Y-10383877D01*
G01X11500225Y-10364161D01*
G01X11466963Y-10347960D01*
G01X32284537Y-10347960D01*
G01X32251995Y-10363761D01*
G01X32221314Y-10382927D01*
G01X32192840Y-10405240D01*
G01X32166895Y-10430449D01*
G01X32143771Y-10458268D01*
G01X32123730Y-10488385D01*
G01X32106998Y-10520458D01*
G01X32093764Y-10554126D01*
G01X32084177Y-10589008D01*
G01X32078346Y-10624710D01*
G01X32076337Y-10660829D01*
G01X32078172Y-10696958D01*
G01X32083831Y-10732688D01*
G01X32093249Y-10767615D01*
G01X32106320Y-10801347D01*
G01X32122898Y-10833500D01*
G01X32142793Y-10863713D01*
G01X32165783Y-10891644D01*
G01X32191606Y-10916977D01*
G01X32219972Y-10939427D01*
G01X32250561Y-10958741D01*
G01X32283026Y-10974699D01*
G01X32317001Y-10987122D01*
G01X32352103Y-10995869D01*
G01X32387935Y-11000842D01*
G01X32424092Y-11001985D01*
G01X32460166Y-10999284D01*
G01X32495750Y-10992770D01*
G01X32530442Y-10982517D01*
G01X32563850Y-10968641D01*
G01X32595597Y-10951297D01*
G01X32625324Y-10930683D01*
G01X32652695Y-10907030D01*
G01X32677402Y-10880607D01*
G01X32699166Y-10851711D01*
G01X32717740Y-10820668D01*
G01X32717740Y-24095717D01*
G01X32700092Y-24063666D01*
G01X32679106Y-24033695D01*
G01X32655025Y-24006149D01*
G01X32628127Y-23981347D01*
G01X32598722Y-23959575D01*
G01X32567150Y-23941085D01*
G01X32533776Y-23926090D01*
G01X32498986Y-23914763D01*
G01X32463181Y-23907236D01*
G01X32426774Y-23903595D01*
G01X32390188Y-23903882D01*
G01X32353843Y-23908094D01*
G01X32318161Y-23916183D01*
G01X32283552Y-23928055D01*
G01X32250418Y-23943572D01*
G01X32219140Y-23962556D01*
G01X32190081Y-23984787D01*
G01X32163575Y-24010008D01*
G01X32139930Y-24037929D01*
G01X32119417Y-24068226D01*
G01X32102275Y-24100549D01*
G01X32088701Y-24134526D01*
G01X32078851Y-24169763D01*
G01X32072841Y-24205854D01*
G01X32070738Y-24242381D01*
G01X32072569Y-24278924D01*
G01X32078310Y-24315058D01*
G01X32087896Y-24350368D01*
G01X32101217Y-24384445D01*
G01X32118118Y-24416895D01*
G01X32138404Y-24447344D01*
G01X32161841Y-24475440D01*
G01X11577959Y-24475440D01*
G01X11601439Y-24447286D01*
G01X11621756Y-24416770D01*
G01X11638673Y-24384247D01*
G01X11651994Y-24350093D01*
G01X11661566Y-24314704D01*
G01X11667276Y-24278491D01*
G01X11669059Y-24241875D01*
G01X11666894Y-24205278D01*
G01X11660807Y-24169127D01*
G01X11650866Y-24133840D01*
G01X11637189Y-24099827D01*
G01X11619934Y-24067482D01*
G01X11599300Y-24037180D01*
G01X11575528Y-24009272D01*
G01X11548892Y-23984083D01*
G01X11519702Y-23961904D01*
G01X11488296Y-23942993D01*
G01X11455038Y-23927568D01*
G01X11420315Y-23915810D01*
G01X11384529Y-23907854D01*
G01X11348094Y-23903792D01*
G01X11311434Y-23903672D01*
G01X11274974Y-23907494D01*
G01X11239136Y-23915216D01*
G01X11204337Y-23926746D01*
G01X11170979Y-23941952D01*
G01X11139449Y-23960657D01*
G01X11110114Y-23982644D01*
G01X11083314Y-24007659D01*
G01X11059359Y-24035410D01*
G01X11038527Y-24065576D01*
G01X11021060Y-24097807D01*
G37*
G54D10*
G01X20248808Y-12257814D02*
G01X21219322Y-12257814D01*
G03X21232086Y-12463761I65878J-99286D01*
G01X21232086Y-15144974D01*
G01X21090900Y-15144974D01*
G03X21050486Y-15185387I0J-40414D01*
G01X21050486Y-15345387D01*
G03X21090900Y-15385801I40414J0D01*
G01X21232086Y-15385801D01*
G01X21232086Y-15415703D01*
G03X21050486Y-15519413I-61186J-103710D01*
G03X21232086Y-15623123I120414J0D01*
G01X21232086Y-15669703D01*
G03X21050486Y-15773413I-61186J-103710D01*
G03X21232086Y-15877123I120414J0D01*
G01X21232086Y-15923703D01*
G03X21050486Y-16027413I-61186J-103710D01*
G03X21232086Y-16131123I120414J0D01*
G01X21232086Y-16177703D01*
G03X21050486Y-16281413I-61186J-103710D01*
G03X21232086Y-16385123I120414J0D01*
G01X21232086Y-16399112D01*
G01X21209757Y-16421441D01*
G03X21075809Y-16609286I-38857J-113972D01*
G01X20303913Y-16609286D01*
G01X19005314Y-15310687D01*
G01X19005314Y-15185387D01*
G03X18964900Y-15144974I-40414J0D01*
G01X18938014Y-15144974D01*
G01X18938014Y-13568608D01*
G01X20248808Y-12257814D01*
G01X11021060Y-24097807D02*
G01X11021060Y-10793863D01*
G03X11575459Y-10902359I313690J132213D01*
G03X11466963Y-10347960I-240709J240709D01*
G01X32284537Y-10347960D01*
G03X32165783Y-10891644I132213J-313690D01*
G03X32717740Y-10820668I250967J229994D01*
G01X32717740Y-24095717D01*
G03X32219140Y-23962556I-306590J-147933D01*
G03X32161841Y-24475440I192010J-281094D01*
G01X11577959Y-24475440D01*
G03X11519702Y-23961904I-249309J231790D01*
G03X11021060Y-24097807I-191052J-281746D01*
G01X12900899Y-21940782D02*
G01X12864013Y-21940782D01*
G03X12823599Y-21981196I0J-40414D01*
G01X12823599Y-22029552D01*
G03X12573115Y-22041115I-123586J-41644D01*
G03X12315574Y-22070205I-127128J-29090D01*
G01X12315574Y-22150205D01*
G03X12572885Y-22180285I130414J0D01*
G03X12823599Y-22192839I127128J29090D01*
G01X12823599Y-22241195D01*
G03X12864013Y-22281609I40414J0D01*
G01X13044013Y-22281609D01*
G03X13084426Y-22241195I0J40414D01*
G01X13084426Y-21981196D01*
G03X13044013Y-21940782I-40414J0D01*
G01X13007127Y-21940782D01*
G01X13007127Y-21639699D01*
G01X14840047Y-19806779D01*
G03X15007198Y-19734907I46665J121779D01*
G03X14939825Y-19565892I-120487J49907D01*
G01X14939825Y-18777244D01*
G03X14952236Y-18512585I-21821J133644D01*
G03X14833597Y-18749489I-34232J-131015D01*
G01X14833597Y-19565892D01*
G03X14764932Y-19731665I53114J-119108D01*
G01X12916455Y-21580141D01*
G03X12900899Y-21617699I37557J-37557D01*
G01X12900899Y-21940782D01*
G01X12522807Y-20723479D02*
G03X12563221Y-20763893I40414J0D01*
G01X12684379Y-20763893D01*
G03X12724793Y-20723479I0J40414D01*
G01X12724793Y-20602321D01*
G03X12684379Y-20561907I-40414J0D01*
G01X12563221Y-20561907D01*
G03X12522807Y-20602321I0J-40414D01*
G01X12522807Y-20723479D01*
G01X13450335Y-20487348D02*
G03X13643760Y-20605659I110966J-35852D01*
G03X13525450Y-20412234I-82459J82459D01*
G01X13484559Y-20371343D01*
G03X13447001Y-20355786I-37557J-37557D01*
G01X12724793Y-20355786D01*
G01X12724793Y-20348321D01*
G03X12684379Y-20307907I-40414J0D01*
G01X12563221Y-20307907D01*
G03X12522807Y-20348321I0J-40414D01*
G01X12522807Y-20469479D01*
G03X12563221Y-20509893I40414J0D01*
G01X12684379Y-20509893D01*
G03X12724793Y-20469479I0J40414D01*
G01X12724793Y-20462014D01*
G01X13425001Y-20462014D01*
G01X13450335Y-20487348D01*
G01X12632582Y-18643600D02*
G03X12903410Y-18643600I135414J0D01*
G03X12632582Y-18643600I-135414J0D01*
G01X13123814Y-23609300D02*
G03X12842987Y-23609300I-140414J0D01*
G03X13123814Y-23609300I140414J0D01*
G01X13157200Y-12454379D02*
G03X13157200Y-12687607I0J-116614D01*
G03X13157200Y-12454379I0J116614D01*
G01X13040586Y-12397207D02*
G03X13081000Y-12437621I40414J0D01*
G01X13233400Y-12437621D01*
G03X13273814Y-12397207I0J40414D01*
G01X13273814Y-12244807D01*
G03X13233400Y-12204393I-40414J0D01*
G01X13081000Y-12204393D01*
G03X13040586Y-12244807I0J-40414D01*
G01X13040586Y-12397207D01*
G01X18877203Y-18687580D02*
G01X18890764Y-18701142D01*
G03X18799755Y-18906558I-5864J-120271D01*
G03X19005171Y-18815548I85145J85145D01*
G01X22020969Y-21831347D01*
G03X22084902Y-21857828I63932J63932D01*
G01X25284903Y-21857828D01*
G03X25348836Y-21831347I0J90414D01*
G01X25622354Y-21557828D01*
G01X25664719Y-21557828D01*
G03X25768300Y-21728013I103581J-53571D01*
G03X25871881Y-21557828I0J116614D01*
G01X26868764Y-21557828D01*
G01X27882342Y-22571406D01*
G03X28087655Y-22648854I120168J7697D01*
G03X28010207Y-22443541I-85145J85145D01*
G01X26970147Y-21403482D01*
G03X26906215Y-21377000I-63932J-63932D01*
G01X25584904Y-21377000D01*
G03X25520971Y-21403482I0J-90414D01*
G01X25247453Y-21677000D01*
G01X22122352Y-21677000D01*
G01X19005068Y-18559716D01*
G03X18892597Y-18447245I-120168J-7697D01*
G01X18879036Y-18433684D01*
G03X19004137Y-18296618I5864J120271D01*
G03X18846043Y-18199441I-119237J-16794D01*
G01X17836773Y-17190171D01*
G01X17836773Y-13537017D01*
G03X17783659Y-13297992I-53114J113611D01*
G03X17730545Y-13537017I0J-125414D01*
G01X17730545Y-17212172D01*
G03X17746102Y-17249729I53114J0D01*
G01X18770928Y-18274555D01*
G03X18764629Y-18319277I113972J-38857D01*
G01X15888120Y-15442768D01*
G03X15824187Y-15416286I-63932J-63932D01*
G01X13276584Y-15416286D01*
G03X13224244Y-15383114I-93984J-90414D01*
G01X13272600Y-15383114D01*
G03X13313014Y-15342700I0J40414D01*
G01X13313014Y-15162700D01*
G03X13272600Y-15122286I-40414J0D01*
G01X13092600Y-15122286D01*
G03X13052186Y-15162700I0J-40414D01*
G01X13052186Y-15342700D01*
G03X13092600Y-15383114I40414J0D01*
G01X13140956Y-15383114D01*
G03X13152956Y-15633700I41644J-123586D01*
G03X13152956Y-15887700I29644J-127000D01*
G03X13182600Y-16145114I29644J-127000D01*
G03X13212244Y-15887700I0J130414D01*
G03X13212244Y-15633700I-29644J127000D01*
G03X13276584Y-15597114I-29644J127000D01*
G01X15786737Y-15597114D01*
G01X18764732Y-18575110D01*
G03X18877203Y-18687580I120168J7697D01*
G01X13623813Y-23609300D02*
G03X13342986Y-23609300I-140414J0D01*
G03X13623813Y-23609300I140414J0D01*
G01X13456275Y-19685000D02*
G03X13717102Y-19685000I130414J0D01*
G03X13456275Y-19685000I-130414J0D01*
G01X13931900Y-12086586D02*
G03X13931900Y-12297414I0J-105414D01*
G03X13931900Y-12086586I0J105414D01*
G01X13931900Y-12594586D02*
G03X13931900Y-12805414I0J-105414D01*
G03X13931900Y-12594586I0J105414D01*
G01X14295298Y-22585985D02*
G03X14295298Y-22906812I0J-160414D01*
G03X14295298Y-22585985I0J160414D01*
G01X14295298Y-21593988D02*
G03X14295298Y-21914815I0J-160414D01*
G03X14295298Y-21593988I0J160414D01*
G01X14635302Y-22585985D02*
G03X14635302Y-22906812I0J-160414D01*
G03X14635302Y-22585985I0J160414D01*
G01X14635302Y-21593988D02*
G03X14635302Y-21914815I0J-160414D01*
G03X14635302Y-21593988I0J160414D01*
G01X14977913Y-20523200D02*
G03X14744685Y-20523200I-116614J0D01*
G03X14977913Y-20523200I116614J0D01*
G01X15290800Y-12840106D02*
G03X15290800Y-12619279I0J110414D01*
G03X15290800Y-12840106I0J-110414D01*
G01X18804900Y-15144974D02*
G03X18764486Y-15185387I0J-40414D01*
G01X18764486Y-15345387D01*
G03X18804900Y-15385801I40414J0D01*
G01X18930199Y-15385801D01*
G01X20244355Y-16699957D01*
G03X20281913Y-16715514I37557J37557D01*
G01X21075829Y-16715514D01*
G03X21075819Y-16863299I95071J-73899D01*
G01X19011900Y-16863299D01*
G03X18974343Y-16878855I0J-53114D01*
G01X18923757Y-16929441D01*
G03X18799755Y-17128558I-38857J-113972D01*
G03X18998872Y-17004555I85145J85145D01*
G01X19033901Y-16969527D01*
G01X21075819Y-16969527D01*
G03X21170900Y-17163826I95081J-73886D01*
G03X21265981Y-16969527I0J120414D01*
G01X26557323Y-16969527D01*
G03X26594880Y-16953970I0J53114D01*
G01X27282657Y-16266193D01*
G01X27282657Y-16266193D01*
G03X27298214Y-16228636I-37557J37557D01*
G01X27298214Y-16172813D01*
G01X27428613Y-16042414D01*
G01X30149800Y-16042414D01*
G03X30187357Y-16026857I0J53114D01*
G01X30362301Y-15851914D01*
G01X30957795Y-15851914D01*
G03X31207316Y-15798800I119108J53114D01*
G03X30957795Y-15745686I-130414J0D01*
G01X30340300Y-15745686D01*
G03X30302743Y-15761243I0J-53114D01*
G01X30127799Y-15936186D01*
G01X27406613Y-15936186D01*
G03X27369055Y-15951743I0J-53114D01*
G01X27226057Y-16094741D01*
G03X27180314Y-16060692I-98857J-85059D01*
G01X27180314Y-16044908D01*
G03X27180314Y-15806692I-53114J119108D01*
G01X27180314Y-15790954D01*
G01X27217200Y-15790954D01*
G03X27257614Y-15750540I0J40414D01*
G01X27257614Y-15593060D01*
G03X27217200Y-15552646I-40414J0D01*
G01X27180314Y-15552646D01*
G01X27180314Y-12280285D01*
G03X27136584Y-12018575I-48618J126385D01*
G03X27074086Y-12276448I-4888J-135325D01*
G01X27074086Y-15522799D01*
G01X27044239Y-15552646D01*
G01X27037200Y-15552646D01*
G03X26996786Y-15593060I0J-40414D01*
G01X26996786Y-15600099D01*
G01X25987599Y-16609286D01*
G01X21265991Y-16609286D01*
G03X21284872Y-16496555I-95091J73873D01*
G01X21322757Y-16458670D01*
G03X21338314Y-16421113I-37557J37557D01*
G01X21338314Y-12463761D01*
G03X21351078Y-12257814I-53114J106661D01*
G01X21473322Y-12257814D01*
G03X21539200Y-12476254I65878J-99286D01*
G03X21605078Y-12257814I0J119154D01*
G01X21727322Y-12257814D01*
G03X21793200Y-12476254I65878J-99286D01*
G03X21859078Y-12257814I0J119154D01*
G01X21872799Y-12257814D01*
G01X21934222Y-12319237D01*
G03X22131455Y-12441355I112978J-37863D01*
G03X22009337Y-12244122I-84255J84255D01*
G01X21932357Y-12167143D01*
G03X21894800Y-12151586I-37557J-37557D01*
G01X20226807Y-12151586D01*
G03X20189250Y-12167143I0J-53114D01*
G01X18938014Y-13418379D01*
G01X18938014Y-13271500D01*
G03X18922457Y-13233943I-53114J0D01*
G01X17334945Y-11646430D01*
G03X17297387Y-11630873I-37557J-37557D01*
G01X15389827Y-11630873D01*
G03X15180494Y-11674824I-99027J-48834D01*
G03X15385125Y-11737101I110306J-4883D01*
G01X17275387Y-11737101D01*
G01X18831786Y-13293501D01*
G01X18831786Y-15144974D01*
G01X18804900Y-15144974D01*
G01X17487900Y-22544814D02*
G03X17541014Y-22324384I0J116614D01*
G01X17541014Y-18912516D01*
G03X17487900Y-18692086I-53114J103816D01*
G03X17434786Y-18912516I0J-116614D01*
G01X17434786Y-22324384D01*
G03X17487900Y-22544814I53114J-103816D01*
G01X18770928Y-18020555D02*
G03X18970045Y-18144558I113972J-38857D01*
G03X18846043Y-17945441I-85145J85145D01*
G01X18090773Y-17190171D01*
G01X18090773Y-13537017D01*
G03X18037659Y-13297992I-53114J113611D01*
G03X17984545Y-13537017I0J-125414D01*
G01X17984545Y-17212172D01*
G03X18000102Y-17249729I53114J0D01*
G01X18770928Y-18020555D01*
G01X18211800Y-23854518D02*
G03X18211800Y-23583690I0J135414D01*
G03X18211800Y-23854518I0J-135414D01*
G01X19757788Y-21790391D02*
G01X19483556Y-21516159D01*
G03X19235692Y-21483775I-128756J-20730D01*
G01X18316953Y-21483775D01*
G03X18081054Y-21604342I-105153J-85321D01*
G03X18345590Y-21590003I130746J35247D01*
G01X19235692Y-21590003D01*
G03X19446644Y-21629476I119108J53114D01*
G01X19698230Y-21881062D01*
G03X19735787Y-21896619I37557J37557D01*
G01X20627911Y-21896619D01*
G03X20768701Y-21843505I60376J53114D01*
G03X20627911Y-21790391I-80414J0D01*
G01X19757788Y-21790391D01*
G01X18417073Y-13423406D02*
G03X18166245Y-13423406I-125414J0D01*
G03X18417073Y-13423406I125414J0D01*
G01X18460659Y-13297992D02*
G03X18420245Y-13338406I0J-40414D01*
G01X18420245Y-13508406D01*
G03X18460659Y-13548820I40414J0D01*
G01X18630659Y-13548820D01*
G03X18671073Y-13508406I0J40414D01*
G01X18671073Y-13338406D01*
G03X18630659Y-13297992I-40414J0D01*
G01X18460659Y-13297992D01*
G01X18884900Y-16160999D02*
G03X18884900Y-16401826I0J-120414D01*
G03X18884900Y-16160999I0J120414D01*
G01X18884900Y-15906999D02*
G03X18884900Y-16147826I0J-120414D01*
G03X18884900Y-15906999I0J120414D01*
G01X18884900Y-15652999D02*
G03X18884900Y-15893826I0J-120414D01*
G03X18884900Y-15652999I0J120414D01*
G01X18884900Y-15398999D02*
G03X18884900Y-15639826I0J-120414D01*
G03X18884900Y-15398999I0J120414D01*
G01X18884900Y-18954999D02*
G03X18884900Y-19195826I0J-120414D01*
G03X18884900Y-18954999I0J120414D01*
G01X18884900Y-16414999D02*
G03X18884900Y-16655826I0J-120414D01*
G03X18884900Y-16414999I0J120414D01*
G01X18884900Y-17176999D02*
G03X18884900Y-17417826I0J-120414D01*
G03X18884900Y-17176999I0J120414D01*
G01X18884900Y-16668999D02*
G03X18884900Y-16909826I0J-120414D01*
G03X18884900Y-16668999I0J120414D01*
G01X18884900Y-17430999D02*
G03X18884900Y-17671826I0J-120414D01*
G03X18884900Y-17430999I0J120414D01*
G01X18884900Y-17684999D02*
G03X18884900Y-17925826I0J-120414D01*
G03X18884900Y-17684999I0J120414D01*
G01X19077616Y-23225986D02*
G03X18857186Y-23279100I-103816J-53114D01*
G03X19077616Y-23332214I116614J0D01*
G01X19164300Y-23332214D01*
G03X19201857Y-23316657I0J53114D01*
G01X19392357Y-23126157D01*
G03X19407914Y-23088600I-37557J37557D01*
G01X19407914Y-22956019D01*
G03X19354800Y-22706498I-53114J119108D01*
G03X19301686Y-22956019I0J-130414D01*
G01X19301686Y-23066599D01*
G01X19142299Y-23225986D01*
G01X19077616Y-23225986D01*
G01X20189666Y-22885450D02*
G03X19996241Y-22767140I-110966J35852D01*
G03X20114552Y-22960565I82459J-82459D01*
G01X20318244Y-23164257D01*
G03X20355801Y-23179814I37557J37557D01*
G01X20828607Y-23179814D01*
G01X20828607Y-23187279D01*
G03X20869021Y-23227693I40414J0D01*
G01X20990179Y-23227693D01*
G03X21030593Y-23187279I0J40414D01*
G01X21030593Y-23066121D01*
G03X20990179Y-23025707I-40414J0D01*
G01X20869021Y-23025707D01*
G03X20828607Y-23066121I0J-40414D01*
G01X20828607Y-23073586D01*
G01X20377802Y-23073586D01*
G01X20189666Y-22885450D01*
G01X20078700Y-21432987D02*
G03X20078700Y-21666215I0J-116614D01*
G03X20078700Y-21432987I0J116614D01*
G01X21170900Y-18954999D02*
G03X21170900Y-19195826I0J-120414D01*
G03X21170900Y-18954999I0J120414D01*
G01X21170900Y-18700999D02*
G03X21170900Y-18941826I0J-120414D01*
G03X21170900Y-18700999I0J120414D01*
G01X21170900Y-17176999D02*
G03X21170900Y-17417826I0J-120414D01*
G03X21170900Y-17176999I0J120414D01*
G01X21170900Y-18192999D02*
G03X21170900Y-18433826I0J-120414D01*
G03X21170900Y-18192999I0J120414D01*
G01X21170900Y-17938999D02*
G03X21170900Y-18179826I0J-120414D01*
G03X21170900Y-17938999I0J120414D01*
G01X21170900Y-17684999D02*
G03X21170900Y-17925826I0J-120414D01*
G03X21170900Y-17684999I0J120414D01*
G01X21170900Y-17430999D02*
G03X21170900Y-17671826I0J-120414D01*
G03X21170900Y-17430999I0J120414D01*
G01X21170900Y-18446999D02*
G03X21170900Y-18687826I0J-120414D01*
G03X21170900Y-18446999I0J120414D01*
G01X21244179Y-23227693D02*
G03X21284593Y-23187279I0J40414D01*
G01X21284593Y-23066121D01*
G03X21244179Y-23025707I-40414J0D01*
G01X21123021Y-23025707D01*
G03X21082607Y-23066121I0J-40414D01*
G01X21082607Y-23187279D01*
G03X21123021Y-23227693I40414J0D01*
G01X21244179Y-23227693D01*
G01X22164901Y-21954805D02*
G03X22124487Y-21914391I-40414J0D01*
G01X21944487Y-21914391D01*
G03X21904074Y-21954805I0J-40414D01*
G01X21904074Y-22214804D01*
G03X21944487Y-22255218I40414J0D01*
G01X22124487Y-22255218D01*
G03X22164901Y-22214804I0J40414D01*
G01X22164901Y-22166448D01*
G03X22415385Y-22154885I123586J41644D01*
G03X22672926Y-22125795I127128J29090D01*
G01X22672926Y-22045795D01*
G03X22415615Y-22015715I-130414J0D01*
G03X22164901Y-22003161I-127128J-29090D01*
G01X22164901Y-21954805D01*
G01X22222460Y-12237946D02*
G03X22182046Y-12278360I0J-40414D01*
G01X22182046Y-12435840D01*
G03X22222460Y-12476254I40414J0D01*
G01X22379940Y-12476254D01*
G03X22420354Y-12435840I0J40414D01*
G01X22420354Y-12278360D01*
G03X22379940Y-12237946I-40414J0D01*
G01X22222460Y-12237946D01*
G01X22509114Y-23139400D02*
G03X22228287Y-23139400I-140414J0D01*
G03X22509114Y-23139400I140414J0D01*
G01X22921813Y-22235101D02*
G01X22982052Y-22174862D01*
G03X23106054Y-21975745I38857J113972D01*
G03X22906937Y-22099748I-85145J-85145D01*
G01X22831142Y-22175543D01*
G03X22815586Y-22213100I37557J-37557D01*
G01X22815586Y-23009420D01*
G03X22868700Y-23279814I53114J-129980D01*
G03X22921813Y-23009420I0J140414D01*
G01X22921813Y-22235101D01*
G01X23130891Y-21430496D02*
G03X23130891Y-21671323I0J-120414D01*
G03X23130891Y-21430496I0J120414D01*
G01X25855619Y-23088590D02*
G03X25604791Y-23088590I-125414J0D01*
G03X25855619Y-23088590I125414J0D01*
G01X25855619Y-22580590D02*
G03X25604791Y-22580590I-125414J0D01*
G03X25855619Y-22580590I125414J0D01*
G01X25768300Y-20994787D02*
G03X25768300Y-21228014I0J-116614D01*
G03X25768300Y-20994787I0J116614D01*
G01X29233086Y-21631499D02*
G01X28095799Y-22768786D01*
G01X26247516Y-22768786D01*
G01X26102098Y-22623368D01*
G03X25895524Y-22491909I-117893J42778D01*
G03X26026983Y-22698482I88681J-88681D01*
G01X26187958Y-22859457D01*
G03X26225515Y-22875014I37557J37557D01*
G01X28117800Y-22875014D01*
G03X28155357Y-22859457I0J53114D01*
G01X29323757Y-21691057D01*
G01X29323757Y-21691057D01*
G03X29339314Y-21653500I-37557J37557D01*
G01X29339314Y-20532501D01*
G01X29446165Y-20425650D01*
G03X29508161Y-20288539I5135J80250D01*
G03X29371050Y-20350535I-56861J-56861D01*
G01X29248643Y-20472943D01*
G01X29248643Y-20472943D01*
G03X29233086Y-20510500I37557J-37557D01*
G01X29233086Y-21631499D01*
G01X26363619Y-23088590D02*
G03X26112791Y-23088590I-125414J0D01*
G03X26363619Y-23088590I125414J0D01*
G01X26363619Y-22580590D02*
G03X26112791Y-22580590I-125414J0D01*
G03X26363619Y-22580590I125414J0D01*
G01X27127200Y-18159313D02*
G03X27127200Y-17926086I0J116614D01*
G03X27127200Y-18159313I0J-116614D01*
G01X27127200Y-17659314D02*
G03X27127200Y-17426087I0J116614D01*
G03X27127200Y-17659314I0J-116614D01*
G01X27989214Y-15227300D02*
G03X27738386Y-15227300I-125414J0D01*
G03X27989214Y-15227300I125414J0D01*
G01X27989214Y-16497300D02*
G03X27738386Y-16497300I-125414J0D01*
G03X27989214Y-16497300I125414J0D01*
G01X28074798Y-20898815D02*
G03X28074798Y-20577988I0J160414D01*
G03X28074798Y-20898815I0J-160414D01*
G01X28074798Y-21890812D02*
G03X28074798Y-21569985I0J160414D01*
G03X28074798Y-21890812I0J-160414D01*
G01X28243214Y-15227300D02*
G03X27992386Y-15227300I-125414J0D01*
G03X28243214Y-15227300I125414J0D01*
G01X28243214Y-16497300D02*
G03X27992386Y-16497300I-125414J0D01*
G03X28243214Y-16497300I125414J0D01*
G01X28219400Y-18007014D02*
G03X28272514Y-17767989I0J125414D01*
G01X28272514Y-16671701D01*
G01X28329022Y-16615193D01*
G03X28460481Y-16408619I42778J117893D01*
G03X28253907Y-16540078I-88681J-88681D01*
G01X28181843Y-16612143D01*
G01X28181843Y-16612143D01*
G03X28166286Y-16649700I37557J-37557D01*
G01X28166286Y-17767989D01*
G03X28219400Y-18007014I53114J-113611D01*
G01X28751214Y-15227300D02*
G03X28512189Y-15174186I-125414J0D01*
G01X28485411Y-15174186D01*
G03X28246386Y-15227300I-113611J-53114D01*
G03X28485411Y-15280414I125414J0D01*
G01X28512189Y-15280414D01*
G03X28751214Y-15227300I113611J53114D01*
G01X28414802Y-20898815D02*
G03X28414802Y-20577988I0J160414D01*
G03X28414802Y-20898815I0J-160414D01*
G01X28414802Y-21890812D02*
G03X28414802Y-21569985I0J160414D01*
G03X28414802Y-21890812I0J-160414D01*
G01X28473400Y-18007014D02*
G03X28526514Y-17767989I0J125414D01*
G01X28526514Y-16671701D01*
G01X28583022Y-16615193D01*
G03X28714481Y-16408619I42778J117893D01*
G03X28507907Y-16540078I-88681J-88681D01*
G01X28435843Y-16612143D01*
G01X28435843Y-16612143D01*
G03X28420286Y-16649700I37557J-37557D01*
G01X28420286Y-17767989D01*
G03X28473400Y-18007014I53114J-113611D01*
G01X28392077Y-22673903D02*
G03X28620651Y-22726614I120414J212D01*
G01X30223020Y-22726614D01*
G03X30493414Y-22673500I129980J53114D01*
G03X30223020Y-22620387I-140414J0D01*
G01X28620463Y-22620387D01*
G03X28392077Y-22673903I-107973J-53304D01*
G01X28674286Y-15074900D02*
G03X28689843Y-15112457I53114J0D01*
G01X28689843Y-15112457D01*
G01X28761907Y-15184522D01*
G03X28968481Y-15315981I117893J-42778D01*
G03X28837022Y-15109407I-88681J88681D01*
G01X28780514Y-15052899D01*
G01X28780514Y-13631908D01*
G03X28854400Y-13542444I-53114J119108D01*
G03X28928286Y-13631908I127000J29644D01*
G01X28928286Y-15074900D01*
G03X28943843Y-15112457I53114J0D01*
G01X28943843Y-15112457D01*
G01X29015907Y-15184522D01*
G03X29222481Y-15315981I117893J-42778D01*
G03X29091022Y-15109407I-88681J88681D01*
G01X29034514Y-15052899D01*
G01X29034514Y-13631908D01*
G03X29064445Y-13412245I-53114J119108D01*
G03X28854400Y-13483156I-83045J-100555D01*
G03X28644355Y-13412245I-127000J-29644D01*
G03X28674286Y-13631908I83045J-100555D01*
G01X28674286Y-15074900D01*
G01X28727400Y-18007014D02*
G03X28780514Y-17767989I0J125414D01*
G01X28780514Y-16671701D01*
G01X28837022Y-16615193D01*
G03X28968481Y-16408619I42778J117893D01*
G03X28761907Y-16540078I-88681J-88681D01*
G01X28689843Y-16612143D01*
G01X28689843Y-16612143D01*
G03X28674286Y-16649700I37557J-37557D01*
G01X28674286Y-17767989D01*
G03X28727400Y-18007014I53114J-113611D01*
G01X28896400Y-17756186D02*
G03X28855986Y-17796600I0J-40414D01*
G01X28855986Y-17966600D01*
G03X28896400Y-18007014I40414J0D01*
G01X29066400Y-18007014D01*
G03X29106814Y-17966600I0J40414D01*
G01X29106814Y-17796600D01*
G03X29066400Y-17756186I-40414J0D01*
G01X29034514Y-17756186D01*
G01X29034514Y-16671701D01*
G01X29091022Y-16615193D01*
G03X29222481Y-16408619I42778J117893D01*
G03X29015907Y-16540078I-88681J-88681D01*
G01X28943843Y-16612143D01*
G01X28943843Y-16612143D01*
G03X28928286Y-16649700I37557J-37557D01*
G01X28928286Y-17756186D01*
G01X28896400Y-17756186D01*
G01X29100814Y-18543587D02*
G03X28869987Y-18543587I-115414J0D01*
G03X29100814Y-18543587I115414J0D01*
G01X29182286Y-15074900D02*
G03X29197843Y-15112457I53114J0D01*
G01X29197843Y-15112457D01*
G01X29269907Y-15184522D01*
G03X29476481Y-15315981I117893J-42778D01*
G03X29345022Y-15109407I-88681J88681D01*
G01X29288514Y-15052899D01*
G01X29288514Y-13643214D01*
G01X29314140Y-13643214D01*
G03X29354554Y-13602800I0J40414D01*
G01X29354554Y-13422800D01*
G03X29314140Y-13382386I-40414J0D01*
G01X29156660Y-13382386D01*
G03X29116246Y-13422800I0J-40414D01*
G01X29116246Y-13602800D01*
G03X29156660Y-13643214I40414J0D01*
G01X29182286Y-13643214D01*
G01X29182286Y-15074900D01*
G01X29417118Y-12153900D02*
G03X29146290Y-12153900I-135414J0D01*
G03X29417118Y-12153900I135414J0D01*
G01X29513214Y-16497300D02*
G03X29262386Y-16497300I-125414J0D01*
G03X29513214Y-16497300I125414J0D01*
G01X29432286Y-18641121D02*
G03X29485400Y-18859001I53114J-102466D01*
G03X29538513Y-18641121I0J115414D01*
G01X29538513Y-16675701D01*
G01X29591501Y-16622714D01*
G01X29720540Y-16622714D01*
G03X29760954Y-16582300I0J40414D01*
G01X29760954Y-16412300D01*
G03X29720540Y-16371886I-40414J0D01*
G01X29563060Y-16371886D01*
G03X29522646Y-16412300I0J-40414D01*
G01X29522646Y-16541339D01*
G01X29447842Y-16616143D01*
G01X29447842Y-16616143D01*
G03X29432286Y-16653700I37557J-37557D01*
G01X29432286Y-18641121D01*
G01X29563060Y-15101886D02*
G03X29522646Y-15142300I0J-40414D01*
G01X29522646Y-15312300D01*
G03X29563060Y-15352714I40414J0D01*
G01X29720540Y-15352714D01*
G03X29760954Y-15312300I0J40414D01*
G01X29760954Y-15142300D01*
G03X29720540Y-15101886I-40414J0D01*
G01X29563060Y-15101886D01*
G01X30350686Y-20481701D02*
G01X30350686Y-20593677D01*
G03X30403800Y-20884815I53114J-140724D01*
G03X30456914Y-20593677I0J150414D01*
G01X30456914Y-20459700D01*
G03X30441357Y-20422143I-53114J0D01*
G01X30441357Y-20422143D01*
G01X30327057Y-20307843D01*
G03X30289500Y-20292286I-37557J-37557D01*
G01X30184776Y-20292286D01*
G03X30043986Y-20345400I-60376J-53114D01*
G03X30184776Y-20398514I80414J0D01*
G01X30267499Y-20398514D01*
G01X30350686Y-20481701D01*
G01X30353000Y-23033086D02*
G03X30353000Y-23313913I0J-140414D01*
G03X30353000Y-23033086I0J140414D01*
G01X30403800Y-21384814D02*
G03X30403800Y-21083986I0J150414D01*
G03X30403800Y-21384814I0J-150414D01*
G01X30403800Y-21884813D02*
G03X30403800Y-21583985I0J150414D01*
G03X30403800Y-21884813I0J-150414D01*
G01X31076903Y-16168385D02*
G03X31076903Y-16429213I0J-130414D01*
G03X31076903Y-16168385I0J130414D01*
G01X31076903Y-15168387D02*
G03X31076903Y-15429215I0J-130414D01*
G03X31076903Y-15168387I0J130414D01*
G54D11*
G01X30987157Y-16298799D02*
G01X30956649Y-16298799D01*
G01X31166648Y-16298799D02*
G01X31197156Y-16298799D01*
G01X31076903Y-16388545D02*
G01X31076903Y-16419053D01*
G01X31076903Y-16209053D02*
G01X31076903Y-16178545D01*
G01X30513546Y-21234400D02*
G01X30544054Y-21234400D01*
G01X30294054Y-21234400D02*
G01X30263546Y-21234400D01*
G01X30403800Y-21124654D02*
G01X30403800Y-21094146D01*
G01X30403800Y-21344146D02*
G01X30403800Y-21374654D01*
G01X30253254Y-23173499D02*
G01X30222746Y-23173499D01*
G01X30452746Y-23173499D02*
G01X30483254Y-23173499D01*
G01X30353000Y-23273245D02*
G01X30353000Y-23303753D01*
G01X30353000Y-23073754D02*
G01X30353000Y-23043246D01*
G01X29387800Y-16412554D02*
G01X29387800Y-16382046D01*
G01X29387800Y-16582046D02*
G01X29387800Y-16612554D01*
G01X29472546Y-16497300D02*
G01X29503054Y-16497300D01*
G01X12445987Y-21980459D02*
G01X12445987Y-21949951D01*
G01X12445987Y-22239950D02*
G01X12445987Y-22270458D01*
G01X12356241Y-22110205D02*
G01X12325734Y-22110205D01*
G01X13867154Y-12192000D02*
G01X13836646Y-12192000D01*
G01X13996646Y-12192000D02*
G01X14027154Y-12192000D01*
G01X13931900Y-12256746D02*
G01X13931900Y-12287254D01*
G01X13931900Y-12127254D02*
G01X13931900Y-12096746D01*
G01X13081254Y-12321007D02*
G01X13050746Y-12321007D01*
G01X13233146Y-12321007D02*
G01X13263654Y-12321007D01*
G01X13157200Y-12396953D02*
G01X13157200Y-12427461D01*
G01X13157200Y-12245061D02*
G01X13157200Y-12214553D01*
G01X13092854Y-15252700D02*
G01X13062346Y-15252700D01*
G01X13272346Y-15252700D02*
G01X13302854Y-15252700D01*
G01X13182600Y-15162954D02*
G01X13182600Y-15132446D01*
G01X12767996Y-18738346D02*
G01X12767996Y-18768854D01*
G01X12767996Y-18548854D02*
G01X12767996Y-18518346D01*
G01X12862742Y-18643600D02*
G01X12893250Y-18643600D01*
G01X12673250Y-18643600D02*
G01X12642742Y-18643600D01*
G01X25692354Y-21611399D02*
G01X25661846Y-21611399D01*
G01X25844246Y-21611399D02*
G01X25874754Y-21611399D01*
G01X25768300Y-21687345D02*
G01X25768300Y-21717853D01*
G01X27203146Y-17542700D02*
G01X27233654Y-17542700D01*
G01X27051254Y-17542700D02*
G01X27020746Y-17542700D01*
G01X27127200Y-17466754D02*
G01X27127200Y-17436247D01*
G01X27127200Y-17618646D02*
G01X27127200Y-17649154D01*
G01X25730205Y-22495844D02*
G01X25730205Y-22465336D01*
G01X25730205Y-22665336D02*
G01X25730205Y-22695844D01*
G01X25645459Y-22580590D02*
G01X25614951Y-22580590D01*
G01X26238205Y-23003844D02*
G01X26238205Y-22973336D01*
G01X26238205Y-23173336D02*
G01X26238205Y-23203844D01*
G01X26153459Y-23088590D02*
G01X26122951Y-23088590D01*
G01X26322951Y-23088590D02*
G01X26353459Y-23088590D01*
G01X25730205Y-23003844D02*
G01X25730205Y-22973336D01*
G01X25730205Y-23173336D02*
G01X25730205Y-23203844D01*
G01X25645459Y-23088590D02*
G01X25614951Y-23088590D01*
G01X25814951Y-23088590D02*
G01X25845459Y-23088590D01*
G01X27863800Y-16412554D02*
G01X27863800Y-16382046D01*
G01X27863800Y-16582046D02*
G01X27863800Y-16612554D01*
G01X27779054Y-16497300D02*
G01X27748546Y-16497300D01*
G01X22542513Y-22215541D02*
G01X22542513Y-22246049D01*
G01X22542513Y-21956050D02*
G01X22542513Y-21925542D01*
G01X22632259Y-22085795D02*
G01X22662766Y-22085795D01*
G01X21091154Y-18059413D02*
G01X21060646Y-18059413D01*
G01X21250646Y-18059413D02*
G01X21281154Y-18059413D01*
G01X21170900Y-18139159D02*
G01X21170900Y-18169666D01*
G01X21170900Y-17979667D02*
G01X21170900Y-17949159D01*
G01X21091154Y-18821413D02*
G01X21060646Y-18821413D01*
G01X21250646Y-18821413D02*
G01X21281154Y-18821413D01*
G01X21170900Y-18901159D02*
G01X21170900Y-18931666D01*
G01X21170900Y-18741667D02*
G01X21170900Y-18711159D01*
G01X22301200Y-12278614D02*
G01X22301200Y-12248106D01*
G01X22301200Y-12435586D02*
G01X22301200Y-12466094D01*
G01X22222714Y-12357100D02*
G01X22192206Y-12357100D01*
G01X22379686Y-12357100D02*
G01X22410194Y-12357100D01*
G01X21091154Y-15265387D02*
G01X21060646Y-15265387D01*
G01X21170900Y-15345133D02*
G01X21170900Y-15375641D01*
G01X21170900Y-15185641D02*
G01X21170900Y-15155134D01*
G01X18306546Y-23719104D02*
G01X18337054Y-23719104D01*
G01X18117054Y-23719104D02*
G01X18086546Y-23719104D01*
G01X18211800Y-23624358D02*
G01X18211800Y-23593850D01*
G01X18211800Y-23813850D02*
G01X18211800Y-23844358D01*
G01X18805154Y-18821413D02*
G01X18774646Y-18821413D01*
G01X18884900Y-18901159D02*
G01X18884900Y-18931666D01*
G04 Copper End*

G04 Pad Start*
G54D12*
G01X17487900Y-18808700D03*
G01X17487900Y-22428200D03*
G01X18973800Y-23279100D03*
G01X13157200Y-12570993D03*
G54D13*
G01X13157200Y-12321007D03*
G54D14*
G01X28074798Y-21730398D03*
G01X28414802Y-21730398D03*
G01X28414802Y-20738401D03*
G01X28074798Y-20738401D03*
G01X14635302Y-21754401D03*
G01X14295298Y-21754401D03*
G01X14295298Y-22746398D03*
G01X14635302Y-22746398D03*
G54D16*
G01X28727400Y-13512800D03*
G01X28981400Y-13512800D03*
G54D17*
G01X29235400Y-13512800D03*
G54D16*
G01X27127200Y-16179800D03*
G01X27127200Y-15925800D03*
G54D18*
G01X27127200Y-15671800D03*
G54D19*
G01X28981400Y-17881600D03*
G54D20*
G01X28727400Y-17881600D03*
G01X28473400Y-17881600D03*
G01X28219400Y-17881600D03*
G54D21*
G01X13182600Y-15252700D03*
G54D16*
G01X13182600Y-15506700D03*
G01X13182600Y-15760700D03*
G01X13182600Y-16014700D03*
G54D22*
G01X21285200Y-12357100D03*
G01X21539200Y-12357100D03*
G01X21793200Y-12357100D03*
G01X22047200Y-12357100D03*
G54D23*
G01X22301200Y-12357100D03*
G54D19*
G01X18545659Y-13423406D03*
G54D20*
G01X18291659Y-13423406D03*
G01X18037659Y-13423406D03*
G01X17783659Y-13423406D03*
G54D24*
G01X21170900Y-15265387D03*
G54D25*
G01X21170900Y-15519413D03*
G01X21170900Y-15773413D03*
G01X21170900Y-16027413D03*
G01X21170900Y-16281413D03*
G01X21170900Y-16535413D03*
G01X21170900Y-16789413D03*
G01X21170900Y-17043413D03*
G01X21170900Y-17297413D03*
G01X21170900Y-17551413D03*
G01X21170900Y-17805413D03*
G01X21170900Y-18059413D03*
G01X21170900Y-18313413D03*
G01X21170900Y-18567413D03*
G01X21170900Y-18821413D03*
G01X21170900Y-19075413D03*
G54D24*
G01X18884900Y-15265387D03*
G54D25*
G01X18884900Y-15519413D03*
G01X18884900Y-15773413D03*
G01X18884900Y-16027413D03*
G01X18884900Y-16281413D03*
G01X18884900Y-16535413D03*
G01X18884900Y-16789413D03*
G01X18884900Y-17043413D03*
G01X18884900Y-17297413D03*
G01X18884900Y-17551413D03*
G01X18884900Y-17805413D03*
G01X18884900Y-18059413D03*
G01X18884900Y-18313413D03*
G01X18884900Y-18567413D03*
G01X18884900Y-18821413D03*
G01X18884900Y-19075413D03*
G54D26*
G01X13483400Y-23609300D03*
G01X12983401Y-23609300D03*
G01X22868700Y-23139400D03*
G01X22368701Y-23139400D03*
G01X30353000Y-22673500D03*
G01X30353000Y-23173499D03*
G54D27*
G01X13931900Y-12700000D03*
G01X13931900Y-12192000D03*
G54D12*
G01X27127200Y-17542700D03*
G01X27127200Y-18042699D03*
G01X25768300Y-21611399D03*
G01X25768300Y-21111400D03*
G54D25*
G01X23130891Y-21550909D03*
G01X23020909Y-22060891D03*
G54D28*
G01X29485400Y-18743587D03*
G01X28985401Y-18543587D03*
G54D25*
G01X28002509Y-22563709D03*
G01X28512491Y-22673691D03*
G54D29*
G01X12623800Y-20408900D03*
G01X12623800Y-20662900D03*
G01X20929600Y-23126700D03*
G01X21183600Y-23126700D03*
G54D20*
G01X27863800Y-15227300D03*
G01X28117800Y-15227300D03*
G01X28371800Y-15227300D03*
G01X28625800Y-15227300D03*
G01X28879800Y-15227300D03*
G01X29133800Y-15227300D03*
G01X29387800Y-15227300D03*
G54D30*
G01X29641800Y-15227300D03*
G54D20*
G01X27863800Y-16497300D03*
G01X28117800Y-16497300D03*
G01X28371800Y-16497300D03*
G01X28625800Y-16497300D03*
G01X28879800Y-16497300D03*
G01X29133800Y-16497300D03*
G01X29387800Y-16497300D03*
G54D30*
G01X29641800Y-16497300D03*
G54D12*
G01X13561301Y-20523200D03*
G01X14861299Y-20523200D03*
G54D31*
G01X12767996Y-18643600D03*
G01X14918004Y-18643600D03*
G54D12*
G01X20078700Y-22849599D03*
G01X20078700Y-21549601D03*
G54D31*
G01X18211800Y-23719104D03*
G01X18211800Y-21569096D03*
G54D32*
G01X15290800Y-12729693D03*
G01X15290800Y-11679707D03*
G54D31*
G01X29281704Y-12153900D03*
G01X27131696Y-12153900D03*
G54D33*
G01X30403800Y-21734399D03*
G01X30403800Y-21234400D03*
G01X30403800Y-20734401D03*
G54D16*
G01X14886711Y-19685000D03*
G01X13586689Y-19685000D03*
G01X19354800Y-21536889D03*
G01X19354800Y-22836911D03*
G54D20*
G01X26238205Y-22580590D03*
G01X25984205Y-22580590D03*
G01X25730205Y-22580590D03*
G01X25730205Y-23088590D03*
G01X26238205Y-23088590D03*
G54D16*
G01X31076903Y-15298801D03*
G01X31076903Y-15798800D03*
G01X31076903Y-16298799D03*
G54D34*
G01X12700013Y-22111195D03*
G01X12445987Y-22110205D03*
G54D35*
G01X12954013Y-22111195D03*
G54D34*
G01X22288487Y-22084805D03*
G01X22542513Y-22085795D03*
G54D35*
G01X22034487Y-22084805D03*
G54D36*
G01X11334750Y-10661650D03*
G01X11328650Y-24243650D03*
G01X32411150Y-24243650D03*
G01X32416750Y-10661650D03*
G04 Pad End*

G04 Via Start*
G54D37*
G01X20688287Y-21843505D03*
G01X21170900Y-21014004D03*
G01X30124400Y-20345400D03*
G01X29451300Y-20345400D03*
G01X20538014Y-12609286D03*
G01X11821060Y-23675440D03*
G01X11821060Y-22875440D03*
G01X11821060Y-22075440D03*
G01X11821060Y-21275440D03*
G01X11821060Y-20475440D03*
G01X11821060Y-19675440D03*
G01X11821060Y-18875441D03*
G01X11821060Y-18075441D03*
G01X11821060Y-17275441D03*
G01X11821060Y-16475441D03*
G01X11821060Y-15675441D03*
G01X11821060Y-14875441D03*
G01X11821060Y-14075441D03*
G01X11821060Y-13275441D03*
G01X11821060Y-12475441D03*
G01X11821060Y-11675441D03*
G01X12036960Y-11078641D03*
G01X12163860Y-24081840D03*
G01X12201960Y-22938940D03*
G01X12938560Y-21288140D03*
G01X12621060Y-19675440D03*
G01X12621060Y-18075441D03*
G01X12621060Y-17275441D03*
G01X12621060Y-16475441D03*
G01X12621060Y-15675441D03*
G01X12621060Y-14875441D03*
G01X12621060Y-14075441D03*
G01X12621060Y-13275441D03*
G01X12341660Y-12678641D03*
G01X12621060Y-11675441D03*
G01X12621060Y-10875441D03*
G01X13421060Y-22875440D03*
G01X13421060Y-22075440D03*
G01X13421060Y-18875441D03*
G01X13332160Y-18075441D03*
G01X13421060Y-17275441D03*
G01X13421060Y-16475441D03*
G01X13687760Y-14659541D03*
G01X13421060Y-14075441D03*
G01X13421060Y-13275441D03*
G01X13421060Y-11675441D03*
G01X13421060Y-10875441D03*
G01X14221060Y-23675440D03*
G01X14221060Y-19675440D03*
G01X14208360Y-18761141D03*
G01X14221060Y-18075441D03*
G01X14221060Y-17275441D03*
G01X14221060Y-15675441D03*
G01X14221060Y-14875441D03*
G01X14221060Y-14075441D03*
G01X14221060Y-13275441D03*
G01X15491060Y-11230841D03*
G01X14221060Y-11675441D03*
G01X14221060Y-10875441D03*
G01X15021060Y-23675440D03*
G01X15287760Y-22913540D03*
G01X15109960Y-22100840D03*
G01X15021060Y-21275440D03*
G01X15414760Y-19142141D03*
G01X15021060Y-18075441D03*
G01X15008360Y-17148441D03*
G01X15021060Y-15675441D03*
G01X14944860Y-14875441D03*
G01X15021060Y-14075441D03*
G01X15021060Y-13275441D03*
G01X14728960Y-11980141D03*
G01X14678160Y-11230941D03*
G01X15021060Y-10875441D03*
G01X15821060Y-23675440D03*
G01X15821060Y-22875440D03*
G01X15821060Y-22075440D03*
G01X15821060Y-21275440D03*
G01X15821060Y-19675440D03*
G01X15821060Y-18875441D03*
G01X15821060Y-18075441D03*
G01X15744860Y-17123041D03*
G01X15948060Y-14875441D03*
G01X15821060Y-14075441D03*
G01X15821060Y-12475441D03*
G01X15821060Y-10875441D03*
G01X16621059Y-23675440D03*
G01X16621059Y-22875440D03*
G01X16621059Y-22075440D03*
G01X16621059Y-21275440D03*
G01X16621059Y-19675440D03*
G01X16621059Y-18875441D03*
G01X16621059Y-18075441D03*
G01X16621059Y-17275441D03*
G01X16621059Y-15675441D03*
G01X16621059Y-14875441D03*
G01X16621059Y-13275441D03*
G01X16621059Y-12475441D03*
G01X16621059Y-10875441D03*
G01X17421059Y-23675440D03*
G01X17421059Y-22875440D03*
G01X17421059Y-18075441D03*
G01X17421059Y-15675441D03*
G01X17421059Y-14075441D03*
G01X17179759Y-13021441D03*
G01X17421059Y-12475441D03*
G01X17421059Y-11675441D03*
G01X17421059Y-10875441D03*
G01X18221059Y-22875440D03*
G01X18221059Y-22075440D03*
G01X18221059Y-20475440D03*
G01X18221059Y-19675440D03*
G01X18221059Y-19015141D03*
G01X18221059Y-11675441D03*
G01X18221059Y-10875441D03*
G01X19059159Y-24005640D03*
G01X18957559Y-21821440D03*
G01X19021059Y-20475440D03*
G01X19021059Y-19675440D03*
G01X19021059Y-12475441D03*
G01X19021059Y-11675441D03*
G01X19021059Y-10875441D03*
G01X19821059Y-23675440D03*
G01X19846459Y-23231040D03*
G01X19770259Y-22164340D03*
G01X19821059Y-20475440D03*
G01X19821059Y-18875441D03*
G01X19821059Y-18075441D03*
G01X19821059Y-17275441D03*
G01X19821059Y-16475441D03*
G01X19821059Y-12475441D03*
G01X19821059Y-11675441D03*
G01X19821059Y-10875441D03*
G01X20621059Y-23675440D03*
G01X20621059Y-19675440D03*
G01X20621059Y-18875441D03*
G01X20621059Y-18075441D03*
G01X20621059Y-17275441D03*
G01X20621059Y-11675441D03*
G01X20621059Y-10875441D03*
G01X21421059Y-23675440D03*
G01X21370259Y-22621440D03*
G01X21421059Y-20475440D03*
G01X21421059Y-19675440D03*
G01X22017959Y-18456341D03*
G01X22005259Y-17580141D03*
G01X21421059Y-11675441D03*
G01X21421059Y-10875441D03*
G01X22221059Y-23675440D03*
G01X21928959Y-22773840D03*
G01X22221059Y-20475440D03*
G01X22221059Y-19675440D03*
G01X22221059Y-18875441D03*
G01X22221059Y-18075441D03*
G01X22221059Y-17275441D03*
G01X22221059Y-15675441D03*
G01X22208359Y-14951641D03*
G01X22221059Y-14075441D03*
G01X22221059Y-13275441D03*
G01X22221059Y-11675441D03*
G01X22221059Y-10875441D03*
G01X23021059Y-23675440D03*
G01X23236959Y-22862740D03*
G01X23021059Y-20475440D03*
G01X23021059Y-19675440D03*
G01X23021059Y-18875441D03*
G01X23021059Y-18075441D03*
G01X23021059Y-17275441D03*
G01X23021059Y-16475441D03*
G01X23008359Y-14900841D03*
G01X23021059Y-14075441D03*
G01X23021059Y-13275441D03*
G01X23021059Y-12475441D03*
G01X23021059Y-11675441D03*
G01X23021059Y-10875441D03*
G01X23821059Y-23675440D03*
G01X23821059Y-22875440D03*
G01X23821059Y-22075440D03*
G01X23821059Y-20475440D03*
G01X23821059Y-19675440D03*
G01X23821059Y-18875441D03*
G01X23821059Y-18075441D03*
G01X23821059Y-17275441D03*
G01X23821059Y-16475441D03*
G01X23821059Y-15675441D03*
G01X23833759Y-14951641D03*
G01X23821059Y-14075441D03*
G01X23821059Y-13275441D03*
G01X23821059Y-12475441D03*
G01X23821059Y-11675441D03*
G01X23821059Y-10875441D03*
G01X24621059Y-23675440D03*
G01X24621059Y-22875440D03*
G01X24621059Y-22075440D03*
G01X24621059Y-20475440D03*
G01X24621059Y-19675440D03*
G01X24621059Y-18875441D03*
G01X24621059Y-18075441D03*
G01X24621059Y-17275441D03*
G01X24621059Y-16475441D03*
G01X24621059Y-15675441D03*
G01X24621059Y-14875441D03*
G01X24621059Y-14075441D03*
G01X24621059Y-13275441D03*
G01X24621059Y-12475441D03*
G01X24621059Y-11675441D03*
G01X24621059Y-10875441D03*
G01X25421059Y-23675440D03*
G01X25027359Y-23294540D03*
G01X25421059Y-22075440D03*
G01X25421059Y-20475440D03*
G01X25421059Y-19675440D03*
G01X25421059Y-18875441D03*
G01X25421059Y-18075441D03*
G01X25421059Y-17275441D03*
G01X25421059Y-16475441D03*
G01X25421059Y-15675441D03*
G01X25421059Y-14875441D03*
G01X25421059Y-14075441D03*
G01X25421059Y-13275441D03*
G01X25421059Y-12475441D03*
G01X25421059Y-11675441D03*
G01X25421059Y-10875441D03*
G01X26221059Y-23675440D03*
G01X26221059Y-22075440D03*
G01X26221059Y-20475440D03*
G01X26221059Y-19675440D03*
G01X26221059Y-18875441D03*
G01X26221059Y-18075441D03*
G01X26221059Y-17275441D03*
G01X26221059Y-15675441D03*
G01X26221059Y-14875441D03*
G01X26221059Y-14075441D03*
G01X26221059Y-13275441D03*
G01X26221059Y-12475441D03*
G01X26221059Y-11675441D03*
G01X26221059Y-10875441D03*
G01X27021058Y-23675440D03*
G01X27021058Y-22075440D03*
G01X27021058Y-20475440D03*
G01X27021058Y-19675440D03*
G01X27021058Y-18875441D03*
G01X26957558Y-17148441D03*
G01X27021058Y-14875441D03*
G01X27021058Y-14075441D03*
G01X27021058Y-13275441D03*
G01X27021058Y-11675441D03*
G01X27021058Y-10875441D03*
G01X27821058Y-23675440D03*
G01X27046358Y-22481840D03*
G01X27821058Y-19675440D03*
G01X27821058Y-18875441D03*
G01X27821058Y-17275441D03*
G01X27821058Y-15675441D03*
G01X27655958Y-14519841D03*
G01X27821058Y-14075441D03*
G01X27821058Y-13275441D03*
G01X27821058Y-12615141D03*
G01X27821058Y-11675441D03*
G01X27821058Y-10875441D03*
G01X28621058Y-23675440D03*
G01X28544858Y-23269140D03*
G01X28697258Y-21326240D03*
G01X28621058Y-17275441D03*
G01X28621058Y-15675441D03*
G01X28621058Y-14075441D03*
G01X28608358Y-12627841D03*
G01X28621058Y-11675441D03*
G01X28621058Y-10875441D03*
G01X29421058Y-23675440D03*
G01X29421058Y-22875440D03*
G01X29421058Y-22075440D03*
G01X29421058Y-19675440D03*
G01X29421058Y-11675441D03*
G01X29421058Y-10875441D03*
G01X30221058Y-23675440D03*
G01X29852758Y-22964340D03*
G01X30462358Y-20246840D03*
G01X30221058Y-19675440D03*
G01X30221058Y-18875441D03*
G01X30221058Y-18075441D03*
G01X30221058Y-17275441D03*
G01X30221058Y-16475441D03*
G01X30221058Y-15675441D03*
G01X30221058Y-14875441D03*
G01X30221058Y-14075441D03*
G01X30221058Y-13275441D03*
G01X30221058Y-12475441D03*
G01X30221058Y-11675441D03*
G01X30221058Y-10875441D03*
G01X31021058Y-23675440D03*
G01X31021058Y-22875440D03*
G01X31021058Y-22075440D03*
G01X31059158Y-21427840D03*
G01X31021058Y-20475440D03*
G01X31021058Y-19675440D03*
G01X31021058Y-18875441D03*
G01X31021058Y-18075441D03*
G01X31021058Y-17275441D03*
G01X31033758Y-16767541D03*
G01X30868658Y-14621441D03*
G01X31021058Y-14075441D03*
G01X31021058Y-13275441D03*
G01X31021058Y-12475441D03*
G01X31021058Y-11675441D03*
G01X31021058Y-10875441D03*
G01X31821058Y-23675440D03*
G01X31821058Y-22875440D03*
G01X31821058Y-22075440D03*
G01X31821058Y-21275440D03*
G01X31821058Y-20475440D03*
G01X31821058Y-19675440D03*
G01X31821058Y-18875441D03*
G01X31821058Y-18075441D03*
G01X31821058Y-17275441D03*
G01X31821058Y-16475441D03*
G01X31821058Y-14875441D03*
G01X31821058Y-14075441D03*
G01X31821058Y-13275441D03*
G01X31821058Y-12475441D03*
G01X31821058Y-11675441D03*
G01X31478158Y-11167541D03*
G01X32392458Y-23396040D03*
G01X32621058Y-22875440D03*
G01X32621058Y-22075440D03*
G01X32621058Y-21275440D03*
G01X32621058Y-20475440D03*
G01X32621058Y-19675440D03*
G01X32621058Y-18875441D03*
G01X32621058Y-18075441D03*
G01X32621058Y-17275441D03*
G01X32621058Y-16475441D03*
G01X32621058Y-15675441D03*
G01X32621058Y-14875441D03*
G01X32621058Y-14075441D03*
G01X32621058Y-13275441D03*
G01X32621058Y-12475441D03*
G01X32621058Y-11675441D03*
G01X13639800Y-21513800D03*
G01X11417300Y-20091400D03*
G01X12217400Y-17703800D03*
G01X13055600Y-17665700D03*
G01X20231100Y-23342600D03*
G01X19558000Y-23393400D03*
G01X20231100Y-24117300D03*
G01X21877727Y-24117300D03*
G01X26619200Y-22047200D03*
G01X19405600Y-17030700D03*
G01X20726400Y-16548100D03*
G01X22618700Y-12903200D03*
G01X12179300Y-21602700D03*
G01X13855700Y-22199600D03*
G01X12001500Y-22542500D03*
G01X13042900Y-22631400D03*
G04 Via End*

G04 Track Start*
G54D38*
G01X22868700Y-22213100D02*
G01X23020909Y-22060891D01*
G01X30353000Y-22673500D02*
G01X28512681Y-22673500D01*
G01X18244007Y-21536889D02*
G01X18211800Y-21569096D01*
G01X20929600Y-23126700D02*
G01X20355801Y-23126700D01*
G01X20078700Y-22849599D01*
G01X29235400Y-15074900D02*
G01X29387800Y-15227300D01*
G01X28981400Y-15074900D02*
G01X29133800Y-15227300D01*
G01X28727400Y-13512800D02*
G01X28727400Y-15074900D01*
G01X28371800Y-15227300D02*
G01X28625800Y-15227300D01*
G01X12623800Y-20408900D02*
G01X13447001Y-20408900D01*
G01X28981400Y-16649700D02*
G01X29133800Y-16497300D01*
G01X28727400Y-17881600D02*
G01X28727400Y-16649700D01*
G01X28473400Y-17881600D02*
G01X28473400Y-16649700D01*
G01X28219400Y-17881600D02*
G01X28219400Y-16649700D01*
G01X29485400Y-18743587D02*
G01X29485400Y-16653700D01*
G01X12954013Y-22111195D02*
G01X12954013Y-21617699D01*
G01X14886711Y-19685000D01*
G01X14886711Y-18674893D01*
G01X14918004Y-18643600D01*
G01X27127200Y-16179800D02*
G01X27127200Y-15925800D01*
G01X27127200Y-15671800D01*
G01X27127200Y-12158396D02*
G01X27131696Y-12153900D01*
G01X27127200Y-15544800D02*
G01X26009600Y-16662400D01*
G01X20281913Y-16662400D01*
G01X18884900Y-15265387D01*
G01X15295080Y-11683987D02*
G01X15290800Y-11679707D01*
G54D39*
G01X13182600Y-15506700D02*
G01X15824187Y-15506700D01*
G01X18884900Y-18567413D01*
G01X22084902Y-21767414D01*
G01X25284903Y-21767414D01*
G01X25584904Y-21467414D01*
G01X26906215Y-21467414D02*
G01X28002509Y-22563709D01*
G54D38*
G01X13802893Y-12321007D02*
G01X13931900Y-12192000D01*
G01X13157200Y-12321007D02*
G01X13284200Y-12448007D01*
G01X13284200Y-15151100D02*
G01X13182600Y-15252700D01*
G01X22542513Y-22085795D02*
G01X22694913Y-21933395D01*
G01X24955513Y-21933395D01*
G01X25590513Y-22568395D01*
G01X25717513Y-22568395D01*
G01X25730205Y-22580590D02*
G01X25730205Y-23088590D01*
G01X25717513Y-22568395D02*
G01X25717513Y-21662187D01*
G01X26238205Y-23088590D02*
G01X30175205Y-23088590D01*
G01X30251405Y-23164790D01*
G01X30344290Y-23164790D02*
G01X30547490Y-22961590D01*
G01X30547490Y-21378090D02*
G01X30403800Y-21234400D01*
G01X30403800Y-21031200D01*
G01X27127200Y-17754600D01*
G01X27127200Y-17542700D02*
G01X27127200Y-17233900D01*
G01X27863800Y-16497300D02*
G01X27990800Y-16370300D01*
G01X29260800Y-16370300D01*
G01X29387800Y-16497300D01*
G01X18037659Y-13423406D02*
G01X18037659Y-17212172D01*
G01X18884900Y-18059413D01*
G01X17783659Y-13423406D02*
G01X17783659Y-17212172D01*
G01X18884900Y-18313413D01*
G01X21285200Y-16421113D02*
G01X21170900Y-16535413D01*
G01X19354800Y-21536889D02*
G01X18244007Y-21536889D01*
G01X19429171Y-21536889D02*
G01X19354800Y-21536889D01*
G01X19354800Y-22836911D02*
G01X19354800Y-23088600D01*
G01X19164300Y-23279100D01*
G01X18973800Y-23279100D01*
G01X17487900Y-22428200D02*
G01X17487900Y-18808700D01*
G01X30403800Y-20734401D02*
G01X30403800Y-20459700D01*
G01X30289500Y-20345400D01*
G01X30124400Y-20345400D01*
G01X25984205Y-22580590D02*
G01X26225515Y-22821900D01*
G01X28117800Y-22821900D01*
G01X27245100Y-16228636D02*
G01X27245100Y-16150813D01*
G01X18884900Y-17043413D02*
G01X19011900Y-16916413D01*
G01X26557323Y-16916413D02*
G01X27245100Y-16228636D01*
G01X27245100Y-16150813D02*
G01X27406613Y-15989300D01*
G01X30149800Y-15989300D02*
G01X30340300Y-15798800D01*
G01X30335601Y-16298799D02*
G01X30264100Y-16370300D01*
G01X29514800Y-16370300D01*
G01X27406613Y-15989300D02*
G01X30149800Y-15989300D01*
G54D39*
G01X25584904Y-21467414D02*
G01X26906215Y-21467414D01*
G54D38*
G01X18884900Y-15265387D02*
G01X18884900Y-13546607D01*
G01X21285200Y-12357100D02*
G01X21285200Y-16421113D01*
G01X30340300Y-15798800D02*
G01X31076903Y-15798800D01*
G01X19011900Y-16916413D02*
G01X26557323Y-16916413D01*
G01X31076903Y-16298799D02*
G01X30335601Y-16298799D01*
G01X29514800Y-16370300D02*
G01X29387800Y-16497300D01*
G01X27127200Y-17233900D02*
G01X27863800Y-16497300D01*
G01X27127200Y-17754600D02*
G01X27127200Y-17542700D01*
G01X30547490Y-22961590D02*
G01X30547490Y-21378090D01*
G01X30344290Y-23164790D02*
G01X30353000Y-23173499D01*
G01X30251405Y-23164790D02*
G01X30344290Y-23164790D01*
G01X25717513Y-21662187D02*
G01X25768300Y-21611399D01*
G01X25730205Y-23088590D02*
G01X26238205Y-23088590D01*
G01X25717513Y-22568395D02*
G01X25730205Y-22580590D01*
G01X13284200Y-12448007D02*
G01X13284200Y-15151100D01*
G01X13157200Y-12321007D02*
G01X13802893Y-12321007D01*
G01X27127200Y-15544800D02*
G01X27127200Y-12158396D01*
G01X27127200Y-15671800D02*
G01X27127200Y-15544800D01*
G01X29485400Y-16653700D02*
G01X29641800Y-16497300D01*
G01X28219400Y-16649700D02*
G01X28371800Y-16497300D01*
G01X28473400Y-16649700D02*
G01X28625800Y-16497300D01*
G01X28727400Y-16649700D02*
G01X28879800Y-16497300D01*
G01X28981400Y-17881600D02*
G01X28981400Y-16649700D01*
G01X13447001Y-20408900D02*
G01X13561301Y-20523200D01*
G01X28727400Y-15074900D02*
G01X28879800Y-15227300D01*
G01X28981400Y-13512800D02*
G01X28981400Y-15074900D01*
G01X29235400Y-13512800D02*
G01X29235400Y-15074900D01*
G01X22868700Y-23139400D02*
G01X22868700Y-22213100D01*
G01X22047200Y-12357100D02*
G01X21894800Y-12204700D01*
G01X20226807Y-12204700D02*
G01X18884900Y-13546607D01*
G01X21894800Y-12204700D02*
G01X20226807Y-12204700D01*
G01X20688287Y-21843505D02*
G01X19735787Y-21843505D01*
G01X19429171Y-21536889D01*
G01X18884900Y-13546607D02*
G01X18884900Y-13271500D01*
G01X17297387Y-11683987D01*
G01X15295080Y-11683987D01*
G01X22372422Y-21915704D02*
G01X22542513Y-22085795D01*
G01X21920200Y-21915704D02*
G01X22372422Y-21915704D01*
G01X21742400Y-22093504D02*
G01X21920200Y-21915704D01*
G01X21183600Y-22093504D02*
G01X21742400Y-22093504D01*
G01X21183600Y-21026704D02*
G01X21170900Y-21014004D01*
G01X21183600Y-22093504D02*
G01X21183600Y-21026704D01*
G01X18186400Y-23744504D02*
G01X18211800Y-23719104D01*
G01X12937287Y-23744504D02*
G01X18186400Y-23744504D01*
G01X12445987Y-23253205D02*
G01X12937287Y-23744504D01*
G01X12445987Y-22110205D02*
G01X12445987Y-23253205D01*
G01X12445987Y-18965608D02*
G01X12445987Y-22110205D01*
G01X12767996Y-18643600D02*
G01X12445987Y-18965608D01*
G01X13182600Y-15252700D02*
G01X12767996Y-15667304D01*
G01X12767996Y-18643600D01*
G01X28117800Y-22821900D02*
G01X29286200Y-21653500D01*
G01X29286200Y-20510500D02*
G01X29451300Y-20345400D01*
G01X29286200Y-21653500D02*
G01X29286200Y-20510500D01*
G01X18211800Y-23719104D02*
G01X18215495Y-23719104D01*
G01X19770259Y-22164340D01*
G01X21112764Y-22164340D01*
G01X21183600Y-22093504D01*
G04 Track End*

M02*

