;TYPE=PLATED
;Layer: PTH_Through_Via
;EasyEDA Pro v2.2.47.7, 2026-06-05 17:07:56
;Gerber Generator version 0.3
M48
METRIC,LZ,0000.00000
;Hole size 1 = 0.40000 METRIC
T01C0.40000
;Hole size 2 = 0.40000 METRIC
T02C0.40000
%
G05
G90
T01
X-91.19591Y-4.70135
X-37.234Y-2.58501
X-44.84091Y-13.08335
X-59.44159Y22.4334
X-33.53791Y18.79377
X-25.40991Y19.30177
T02
X-88.40577Y-52.73263
X-88.40577Y-47.65263
X-88.40577Y-42.57263
X-88.40577Y-37.49263
X-88.40577Y8.22737
X-88.40577Y13.30737
X-88.40577Y18.38737
X-83.32577Y-17.17263
X-82.69077Y-7.01263
X-83.32577Y8.22737
X-78.24577Y-32.41263
X-78.24577Y-22.25263
X-78.24577Y-17.17263
X-73.16577Y-17.17263
X-73.16577Y-1.93263
X-73.16577Y3.14737
X-68.08577Y-32.41263
X-63.00577Y-32.41263
X-63.00577Y-27.33263
X-57.92577Y-57.81263
X-57.92577Y-52.73263
X-57.92577Y-47.65263
X-57.92577Y-42.57263
X-57.92577Y-12.09263
X-57.92577Y28.54737
X-52.84577Y-52.73263
X-52.84577Y-47.65263
X-47.76577Y-52.73263
X-47.76577Y-47.65263
X-47.76577Y-27.33263
X-47.76577Y-17.17263
X-47.76577Y-12.09263
X-47.76577Y-7.01263
X-42.68577Y-27.33263
X-42.68577Y-17.17263
X-42.68577Y-12.09263
X-42.68577Y-7.01263
X-37.60577Y-52.73263
X-37.60577Y-27.33263
X-37.60577Y-17.17263
X-37.60577Y-12.09263
X-37.60577Y-7.01263
X-37.60577Y23.46737
X-37.60577Y28.54737
X-32.52577Y-32.41263
X-27.44577Y-32.41263
X-22.36577Y-37.49263
X-22.36577Y-32.41263
X-22.36577Y-27.33263
X-22.36577Y-17.17263
X-22.36577Y-12.09263
X-22.36577Y-7.01263
X-22.36577Y-1.93263
X-22.36577Y3.14737
X-22.36577Y28.54737
X-17.28577Y-37.49263
X-17.28577Y-32.41263
X-17.28577Y-22.25263
X-17.28577Y-12.09263
X-17.28577Y-7.01263
X-17.28577Y-1.93263
X-17.28577Y3.14737
X-17.28577Y28.54737
X-11.18977Y-60.60663
X-12.20577Y-37.49263
X-12.20577Y-32.41263
X-12.20577Y-12.09263
X-12.20577Y-7.01263
X-12.20577Y-1.93263
X-6.10977Y-60.60663
X-7.12577Y-37.49263
X-7.12577Y-32.41263
X-7.12577Y-22.25263
X-7.12577Y-12.09263
X-7.12577Y-7.01263
X-7.12577Y8.22737
X-2.04577Y8.22737
X-2.04577Y23.46737
X-2.04577Y28.54737
X3.03423Y8.22737
X3.03423Y23.46737
X3.03423Y28.54737
X8.11423Y-27.71363
X8.11423Y-17.17263
X8.11423Y8.22737
X8.11423Y23.46737
X8.11423Y28.54737
X13.19423Y-57.81263
X13.19423Y-52.73263
X13.19423Y-47.65263
X13.19423Y-12.09263
X13.19423Y8.22737
X18.27423Y-57.81263
X18.27423Y8.22737
X23.35423Y-52.73263
X23.35423Y-12.09263
X23.35423Y9.24337
X-47.76577Y-3.63885
X-42.672Y-3.683
X-48.006Y2.286
X-42.672Y2.286
X-83.693Y18.415
X-68.072Y-61.722
X-61.468Y-61.722
X-39.243Y-61.341
M30