;TYPE=PLATED
;Layer: PTH_Through
;EasyEDA Pro v2.2.47.7, 2026-06-05 17:07:56
;Gerber Generator version 0.3
M48
METRIC,LZ,0000.00000
;Hole size 1 = 0.40000 METRIC
T01C0.40000
;Hole size 2 = 0.40000 METRIC
T02C0.40000
;Hole size 3 = 0.70002 METRIC
T03C0.70002
;Hole size 4 = 0.80000 METRIC
T04C0.80000
;Hole size 5 = 0.81280 METRIC
T05C0.81280
;Hole size 6 = 0.90002 METRIC
T06C0.90002
;Hole size 7 = 0.91440 METRIC
T07C0.91440
;Hole size 8 = 1.00000 METRIC
T08C1.00000
;Hole size 9 = 1.02001 METRIC
T09C1.02001
;Hole size 10 = 1.10002 METRIC
T10C1.10002
;Hole size 11 = 1.20000 METRIC
T11C1.20000
;Hole size 12 = 1.40000 METRIC
T12C1.40000
;Hole size 13 = 1.64998 METRIC
T13C1.64998
;Hole size 14 = 3.20040 METRIC
T14C3.20040
%
G05
G90
T01
X-91.19591Y-4.70135
X-37.234Y-2.58501
X-44.84091Y-13.08335
X-59.44159Y22.4334
X-33.53791Y18.79377
X-25.40991Y19.30177
T02
X-88.40577Y-52.73263
X-88.40577Y-47.65263
X-88.40577Y-42.57263
X-88.40577Y-37.49263
X-88.40577Y8.22737
X-88.40577Y13.30737
X-88.40577Y18.38737
X-83.32577Y-17.17263
X-82.69077Y-7.01263
X-83.32577Y8.22737
X-78.24577Y-32.41263
X-78.24577Y-22.25263
X-78.24577Y-17.17263
X-73.16577Y-17.17263
X-73.16577Y-1.93263
X-73.16577Y3.14737
X-68.08577Y-32.41263
X-63.00577Y-32.41263
X-63.00577Y-27.33263
X-57.92577Y-57.81263
X-57.92577Y-52.73263
X-57.92577Y-47.65263
X-57.92577Y-42.57263
X-57.92577Y-12.09263
X-57.92577Y28.54737
X-52.84577Y-52.73263
X-52.84577Y-47.65263
X-47.76577Y-52.73263
X-47.76577Y-47.65263
X-47.76577Y-27.33263
X-47.76577Y-17.17263
X-47.76577Y-12.09263
X-47.76577Y-7.01263
X-42.68577Y-27.33263
X-42.68577Y-17.17263
X-42.68577Y-12.09263
X-42.68577Y-7.01263
X-37.60577Y-52.73263
X-37.60577Y-27.33263
X-37.60577Y-17.17263
X-37.60577Y-12.09263
X-37.60577Y-7.01263
X-37.60577Y23.46737
X-37.60577Y28.54737
X-32.52577Y-32.41263
X-27.44577Y-32.41263
X-22.36577Y-37.49263
X-22.36577Y-32.41263
X-22.36577Y-27.33263
X-22.36577Y-17.17263
X-22.36577Y-12.09263
X-22.36577Y-7.01263
X-22.36577Y-1.93263
X-22.36577Y3.14737
X-22.36577Y28.54737
X-17.28577Y-37.49263
X-17.28577Y-32.41263
X-17.28577Y-22.25263
X-17.28577Y-12.09263
X-17.28577Y-7.01263
X-17.28577Y-1.93263
X-17.28577Y3.14737
X-17.28577Y28.54737
X-11.18977Y-60.60663
X-12.20577Y-37.49263
X-12.20577Y-32.41263
X-12.20577Y-12.09263
X-12.20577Y-7.01263
X-12.20577Y-1.93263
X-6.10977Y-60.60663
X-7.12577Y-37.49263
X-7.12577Y-32.41263
X-7.12577Y-22.25263
X-7.12577Y-12.09263
X-7.12577Y-7.01263
X-7.12577Y8.22737
X-2.04577Y8.22737
X-2.04577Y23.46737
X-2.04577Y28.54737
X3.03423Y8.22737
X3.03423Y23.46737
X3.03423Y28.54737
X8.11423Y-27.71363
X8.11423Y-17.17263
X8.11423Y8.22737
X8.11423Y23.46737
X8.11423Y28.54737
X13.19423Y-57.81263
X13.19423Y-52.73263
X13.19423Y-47.65263
X13.19423Y-12.09263
X13.19423Y8.22737
X18.27423Y-57.81263
X18.27423Y8.22737
X23.35423Y-52.73263
X23.35423Y-12.09263
X23.35423Y9.24337
X-47.76577Y-3.63885
X-42.672Y-3.683
X-48.006Y2.286
X-42.672Y2.286
X-83.693Y18.415
X-68.072Y-61.722
X-61.468Y-61.722
X-39.243Y-61.341
T03
X-63.12891Y-17.06323
X-63.12891Y-6.56322
T04
X-75.57491Y-6.47923
X-75.57491Y-11.55923
X-80.09715Y14.22408
X-75.09721Y14.22408
X-69.21492Y17.10515
X-69.21492Y12.10521
X-64.00792Y16.97815
X-64.00792Y11.97821
X-58.92792Y15.58115
X-58.92792Y10.58121
X-77.597Y18.14121
X-77.597Y28.34079
X-73.406Y18.14121
X-73.406Y28.34079
X-68.961Y18.77621
X-68.961Y28.97579
X-65.024Y18.77621
X-65.024Y28.97579
T05
X-79.63891Y-41.53123
X-79.63891Y-44.07123
X-33.28391Y-56.89823
X-30.74391Y-56.89823
T06
X-30.36278Y9.77677
X-30.36278Y7.23677
X-30.36278Y4.69677
X-30.36278Y2.15677
X-30.36278Y-0.38323
X-30.36278Y-2.92323
X-30.36278Y-5.46323
X-30.36278Y-8.00323
X-30.36278Y-10.54323
X-30.36278Y-13.08323
X-30.36278Y-15.62323
X-30.36278Y-18.16323
X-30.36278Y-20.70323
X-30.36278Y-23.24323
X-30.36278Y-25.78323
X-30.36278Y-28.32323
X-53.22278Y9.77677
X-53.22278Y7.23677
X-53.22278Y4.69677
X-53.22278Y2.15677
X-53.22278Y-0.38323
X-53.22278Y-2.92323
X-53.22278Y-5.46323
X-53.22278Y-8.00323
X-53.22278Y-10.54323
X-53.22278Y-13.08323
X-53.22278Y-15.62323
X-53.22278Y-18.16323
X-53.22278Y-20.70323
X-53.22278Y-23.24323
X-53.22278Y-25.78323
X-53.22278Y-28.32323
X-15.84289Y-45.07732
X-16.94292Y-50.17713
X2.7683Y-19.727
X0.76815Y-24.72719
X0.48819Y-46.95021
X5.588Y-48.05024
T07
X-86.11591Y1.92284
X-86.11591Y4.42284
X-18.25775Y-17.78225
X-13.25776Y-17.78225
X-18.13075Y-27.56125
X-13.13076Y-27.56125
X-79.66182Y-37.21323
X-66.66189Y-37.21323
X-36.96691Y-47.01514
X-36.96691Y-34.01521
T08
X-79.248Y4.615
X-79.248Y-5.885
X-67.945Y-1.354
X-67.945Y-11.854
X-62.357Y8.425
X-62.357Y-2.075
X-58.166Y7.917
X-58.166Y-2.583
T09
X-24.13991Y24.00077
X-26.67991Y24.00077
X-29.21991Y24.00077
X-31.75991Y24.00077
X-34.29991Y24.00077
T10
X7.22909Y-10.03523
X4.68909Y-10.03523
X2.14909Y-10.03523
X-0.39091Y-10.03523
X-5.34391Y14.85677
X-2.80391Y14.85677
X-0.26391Y14.85677
X2.27609Y14.85677
X4.81609Y14.85677
X7.35609Y14.85677
X9.89609Y14.85677
X12.43609Y14.85677
X-5.334Y2.159
X-2.794Y2.159
X-0.254Y2.159
X2.286Y2.159
X4.826Y2.159
X7.366Y2.159
X9.906Y2.159
X12.446Y2.159
X-5.97891Y-49.15123
X-8.51891Y-49.15123
X-11.05891Y-49.15123
X-11.05891Y-54.23123
X-5.97891Y-54.23123
X-73.28891Y9.39577
X-70.74891Y9.39577
X-68.20891Y9.39577
X-65.66891Y9.39577
X-51.69891Y25.65177
X-49.15891Y25.65177
X-46.61891Y25.65177
X-44.07891Y25.65177
T11
X-10.80491Y19.93677
X-10.80491Y22.47677
X-10.80491Y25.01677
X-10.80491Y6.09377
X-10.80491Y8.63377
X-10.80491Y11.17377
X-88.27491Y-4.06623
X-88.27491Y-6.60623
X-88.27491Y-9.14623
X-88.27491Y-11.68623
X-77.13891Y-58.16823
X-82.1389Y-58.16823
X-20.62391Y-58.54923
X-25.6239Y-58.54923
X5.41109Y-58.67623
X0.4111Y-58.67623
X-88.22985Y-21.33823
X-66.72984Y-21.33823
X-51.69891Y-60.79017
X-51.69891Y-39.29016
X19.29409Y17.98672
X19.29409Y-3.51329
X-72.25Y-31.24423
X-85.24982Y-31.24423
X-42.80891Y-43.54031
X-42.80891Y-56.54014
X18.65909Y-16.84624
X18.65909Y-21.84623
X18.65909Y-26.84622
X-79.63878Y-49.66418
X-82.17878Y-49.65417
X-77.09878Y-49.66418
X-29.09278Y-47.50518
X-31.63278Y-47.49517
X-26.55278Y-47.50518
T12
X18.796Y-47.67199
X18.796Y-42.672
X18.796Y-37.67201
T13
X0.87198Y-36.52923
X0.87198Y-39.92922
X10.79195Y-39.92922
X10.79195Y-36.52923
X-66.63591Y-45.08011
X-70.0359Y-45.08011
X-70.0359Y-55.00008
X-66.63591Y-55.00008
T14
X-90.4875Y26.7081
X-90.4875Y-60.0075
X25.1841Y-60.0075
X25.1841Y26.7081
M30