G04 Layer: BottomSilkscreenLayer*
G04 EasyEDA Pro v2.2.47.7, 2026-06-05 17:07:56*
G04 Gerber Generator version 0.3*
G04 Scale: 100 percent, Rotated: No, Reflected: No*
G04 Dimensions in millimeters*
G04 Leading zeros omitted, absolute positions, 4 integers and 5 decimals*
G04 Generated by one-click*
G04 Object Configs: Pad,Via,Track,Text,Image,Dimension,BoardOutline,BoardCutout,CopperFilled,SolidRegion,FPCStiffener,Line,PlaneZone,ComponentProperty,ComponentSilkscreen,TearDrop*
G04 Layer Configs: 1,2,3,4,5,6,7,8,9,10,11,13,14,56*
G04 Copper Areas: 0*
%FSLAX45Y45*%
%MOMM*%
%ADD10C,0.203*%
%ADD11C,0.1541*%
G75*


G04 Text Start*
G54D10*
G01X2136140Y2799080D02*
G01X2065020Y2612390D01*
G01X1993900Y2799080D02*
G01X2065020Y2612390D01*
G01X1877568Y2799080D02*
G01X1904238Y2790190D01*
G01X1922018Y2763520D01*
G01X1930908Y2719070D01*
G01X1930908Y2692400D01*
G01X1922018Y2647950D01*
G01X1904238Y2621280D01*
G01X1877568Y2612390D01*
G01X1859788Y2612390D01*
G01X1833118Y2621280D01*
G01X1815338Y2647950D01*
G01X1806448Y2692400D01*
G01X1806448Y2719070D01*
G01X1815338Y2763520D01*
G01X1833118Y2790190D01*
G01X1859788Y2799080D01*
G01X1877568Y2799080D01*
G01X1734566Y2656840D02*
G01X1743456Y2647950D01*
G01X1734566Y2639060D01*
G01X1725676Y2647950D01*
G01X1734566Y2656840D01*
G01X1644904Y2799080D02*
G01X1547114Y2799080D01*
G01X1600454Y2727960D01*
G01X1573784Y2727960D01*
G01X1556004Y2719070D01*
G01X1547114Y2710180D01*
G01X1538224Y2683510D01*
G01X1538224Y2665730D01*
G01X1547114Y2639060D01*
G01X1564894Y2621280D01*
G01X1591564Y2612390D01*
G01X1618234Y2612390D01*
G01X1644904Y2621280D01*
G01X1653794Y2630170D01*
G01X1662684Y2647950D01*
G04 Text End*

M02*

