G04 Layer: BottomLayer*
G04 EasyEDA Pro v2.2.47.7, 2026-06-05 17:07:56*
G04 Gerber Generator version 0.3*
G04 Scale: 100 percent, Rotated: No, Reflected: No*
G04 Dimensions in millimeters*
G04 Leading zeros omitted, absolute positions, 4 integers and 5 decimals*
G04 Generated by one-click*
G04 Object Configs: Pad,Via,Track,Text,Image,Dimension,BoardOutline,BoardCutout,CopperFilled,SolidRegion,FPCStiffener,Line,PlaneZone,ComponentProperty,ComponentSilkscreen,TearDrop*
G04 Layer Configs: 1,2,3,4,5,6,7,8,9,10,11,13,14,56*
G04 Copper Areas: 110*
%FSLAX45Y45*%
%MOMM*%
%ADD10C,0.2032*%
%ADD11C,0.6*%
%ADD12C,1.524*%
%ADD13R,1.524X1.524*%
%ADD14C,2.4*%
%ADD15C,1.8*%
%ADD16R,1.8X1.5748*%
%ADD17R,1.7083X1.7*%
%ADD18R,1.7X1.7*%
%ADD19C,1.7*%
%ADD20R,1.8X1.8*%
%ADD21C,1.5748*%
%ADD22R,1.5748X1.5748*%
%ADD23R,1.6X1.6*%
%ADD24C,1.6*%
%ADD25C,2.0*%
%ADD26C,1.3*%
%ADD27C,1.5*%
%ADD28R,1.21158X1.21158*%
%ADD29R,1.5748X1.7*%
%ADD30C,1.9*%
%ADD31C,1.4*%
%ADD32C,2.2*%
%ADD33O,1.8X2.59999*%
%ADD34R,1.8X2.59999*%
%ADD35C,1.8796*%
%ADD36C,6.0*%
%ADD37C,0.8*%
%ADD38C,1.0*%
%ADD39C,0.254*%
G75*


G04 Copper Start*
G36*
G01X2355789Y-6299809D02*
G01X-8886129Y-6299809D01*
G01X-8886129Y-6299809D01*
G01X-8856007Y-6281342D01*
G01X-8827961Y-6259852D01*
G01X-8802293Y-6235571D01*
G01X-8779281Y-6208760D01*
G01X-8759172Y-6179708D01*
G01X-8742182Y-6148729D01*
G01X-8728495Y-6116155D01*
G01X-8718258Y-6082338D01*
G01X-8715469Y-6067844D01*
G01X-5304842Y-6067844D01*
G01X-5304842Y-6090209D01*
G01X-5301161Y-6112269D01*
G01X-5293899Y-6133422D01*
G01X-5283254Y-6153091D01*
G01X-5269518Y-6170740D01*
G01X-5253063Y-6185887D01*
G01X-5234340Y-6198120D01*
G01X-5213859Y-6207103D01*
G01X-5192179Y-6212594D01*
G01X-5169891Y-6214440D01*
G01X-5169891Y-6214440D01*
G01X-5147602Y-6212594D01*
G01X-5125922Y-6207103D01*
G01X-5105441Y-6198120D01*
G01X-5086718Y-6185887D01*
G01X-5070263Y-6170740D01*
G01X-5056527Y-6153091D01*
G01X-5045882Y-6133422D01*
G01X-5038620Y-6112269D01*
G01X-5034939Y-6090209D01*
G01X-5034939Y-6067844D01*
G01X-5038620Y-6045785D01*
G01X-5045882Y-6024632D01*
G01X-5056527Y-6004962D01*
G01X-5070263Y-5987313D01*
G01X-5086718Y-5972166D01*
G01X-5105441Y-5959934D01*
G01X-5125922Y-5950950D01*
G01X-5147602Y-5945460D01*
G01X-5169891Y-5943613D01*
G01X-5192179Y-5945460D01*
G01X-5213859Y-5950950D01*
G01X-5234340Y-5959934D01*
G01X-5253063Y-5972166D01*
G01X-5269518Y-5987313D01*
G01X-5283254Y-6004962D01*
G01X-5293899Y-6024632D01*
G01X-5301161Y-6045785D01*
G01X-5304842Y-6067844D01*
G01X-8715469Y-6067844D01*
G01X-8711581Y-6047642D01*
G01X-8708537Y-6012441D01*
G01X-8709158Y-5977114D01*
G01X-8713437Y-5942042D01*
G01X-8721328Y-5907602D01*
G01X-8732747Y-5874166D01*
G01X-8747570Y-5842093D01*
G01X-8762607Y-5816823D01*
G01X-8354304Y-5816823D01*
G01X-8352389Y-5839934D01*
G01X-8346696Y-5862415D01*
G01X-8337380Y-5883652D01*
G01X-8324696Y-5903066D01*
G01X-8308990Y-5920128D01*
G01X-8290689Y-5934372D01*
G01X-8270294Y-5945410D01*
G01X-8248360Y-5952940D01*
G01X-8225485Y-5956757D01*
G01X-8202295Y-5956757D01*
G01X-8179421Y-5952940D01*
G01X-8157487Y-5945410D01*
G01X-8137091Y-5934372D01*
G01X-8118790Y-5920128D01*
G01X-8103084Y-5903066D01*
G01X-8090400Y-5883652D01*
G01X-8081084Y-5862415D01*
G01X-8075391Y-5839934D01*
G01X-8073476Y-5816823D01*
G01X-8073476Y-5816823D01*
G01X-7854305Y-5816823D01*
G01X-7852390Y-5839934D01*
G01X-7846697Y-5862415D01*
G01X-7837381Y-5883652D01*
G01X-7824697Y-5903066D01*
G01X-7808991Y-5920128D01*
G01X-7790690Y-5934372D01*
G01X-7770295Y-5945410D01*
G01X-7748361Y-5952940D01*
G01X-7725486Y-5956757D01*
G01X-7702296Y-5956757D01*
G01X-7679422Y-5952940D01*
G01X-7657488Y-5945410D01*
G01X-7637092Y-5934372D01*
G01X-7618791Y-5920128D01*
G01X-7603085Y-5903066D01*
G01X-7590401Y-5883652D01*
G01X-7581085Y-5862415D01*
G01X-7579188Y-5854923D01*
G01X-2702804Y-5854923D01*
G01X-2700889Y-5878034D01*
G01X-2695196Y-5900515D01*
G01X-2685880Y-5921752D01*
G01X-2673196Y-5941166D01*
G01X-2657490Y-5958228D01*
G01X-2639189Y-5972472D01*
G01X-2618794Y-5983510D01*
G01X-2596860Y-5991040D01*
G01X-2573985Y-5994857D01*
G01X-2550795Y-5994857D01*
G01X-2527921Y-5991040D01*
G01X-2505987Y-5983510D01*
G01X-2485591Y-5972472D01*
G01X-2467290Y-5958228D01*
G01X-2451584Y-5941166D01*
G01X-2438900Y-5921752D01*
G01X-2429584Y-5900515D01*
G01X-2423891Y-5878034D01*
G01X-2421976Y-5854923D01*
G01X-2421976Y-5854923D01*
G01X-2422309Y-5850907D01*
G01X-2202747Y-5850907D01*
G01X-2201542Y-5873710D01*
G01X-2196657Y-5896015D01*
G01X-2188222Y-5917234D01*
G01X-2176458Y-5936805D01*
G01X-2161679Y-5954210D01*
G01X-2161679Y-5954210D01*
G01X-2144273Y-5968990D01*
G01X-2124702Y-5980753D01*
G01X-2103484Y-5989189D01*
G01X-2081178Y-5994074D01*
G01X-2058376Y-5995279D01*
G01X-2035680Y-5992772D01*
G01X-2013690Y-5986620D01*
G01X-1992988Y-5976985D01*
G01X-1974122Y-5964122D01*
G01X-1957590Y-5948372D01*
G01X-1943829Y-5930150D01*
G01X-1933204Y-5909938D01*
G01X-1925995Y-5888272D01*
G01X-1922697Y-5867623D01*
G01X-99304Y-5867623D01*
G01X-97389Y-5890734D01*
G01X-91696Y-5913215D01*
G01X-82380Y-5934452D01*
G01X-69696Y-5953866D01*
G01X-53990Y-5970928D01*
G01X-35689Y-5985172D01*
G01X-15294Y-5996210D01*
G01X6640Y-6003740D01*
G01X29515Y-6007557D01*
G01X52705Y-6007557D01*
G01X75579Y-6003740D01*
G01X97513Y-5996210D01*
G01X117909Y-5985172D01*
G01X136210Y-5970928D01*
G01X151916Y-5953866D01*
G01X164600Y-5934452D01*
G01X173916Y-5913215D01*
G01X179609Y-5890734D01*
G01X181524Y-5867623D01*
G01X181524Y-5867623D01*
G01X400695Y-5867623D01*
G01X402610Y-5890734D01*
G01X408303Y-5913215D01*
G01X417619Y-5934452D01*
G01X430303Y-5953866D01*
G01X446009Y-5970928D01*
G01X464310Y-5985172D01*
G01X484705Y-5996210D01*
G01X506639Y-6003740D01*
G01X529514Y-6007557D01*
G01X552704Y-6007557D01*
G01X575578Y-6003740D01*
G01X597512Y-5996210D01*
G01X617908Y-5985172D01*
G01X636209Y-5970928D01*
G01X651915Y-5953866D01*
G01X664599Y-5934452D01*
G01X673915Y-5913215D01*
G01X679608Y-5890734D01*
G01X681523Y-5867623D01*
G01X681523Y-5867623D01*
G01X679608Y-5844511D01*
G01X673915Y-5822030D01*
G01X664599Y-5800793D01*
G01X651915Y-5781379D01*
G01X636209Y-5764317D01*
G01X617908Y-5750073D01*
G01X597512Y-5739035D01*
G01X575578Y-5731505D01*
G01X552704Y-5727688D01*
G01X529514Y-5727688D01*
G01X506639Y-5731505D01*
G01X484705Y-5739035D01*
G01X464310Y-5750073D01*
G01X446009Y-5764317D01*
G01X430303Y-5781379D01*
G01X417619Y-5800793D01*
G01X408303Y-5822030D01*
G01X402610Y-5844511D01*
G01X400695Y-5867623D01*
G01X181524Y-5867623D01*
G01X179609Y-5844511D01*
G01X173916Y-5822030D01*
G01X164600Y-5800793D01*
G01X151916Y-5781379D01*
G01X136210Y-5764317D01*
G01X117909Y-5750073D01*
G01X97513Y-5739035D01*
G01X75579Y-5731505D01*
G01X52705Y-5727688D01*
G01X29515Y-5727688D01*
G01X6640Y-5731505D01*
G01X-15294Y-5739035D01*
G01X-35689Y-5750073D01*
G01X-53990Y-5764317D01*
G01X-69696Y-5781379D01*
G01X-82380Y-5800793D01*
G01X-91696Y-5822030D01*
G01X-97389Y-5844511D01*
G01X-99304Y-5867623D01*
G01X-1922697Y-5867623D01*
G01X-1922393Y-5865724D01*
G01X-1922494Y-5842890D01*
G01X-1630349Y-5550745D01*
G01X-1619105Y-5537044D01*
G01X-1610750Y-5521413D01*
G01X-1605605Y-5504452D01*
G01X-1603868Y-5486813D01*
G01X-1603868Y-5423112D01*
G01X-1231299Y-5423112D01*
G01X-1229394Y-5444890D01*
G01X-1223736Y-5466006D01*
G01X-1214497Y-5485819D01*
G01X-1201958Y-5503727D01*
G01X-1186500Y-5519185D01*
G01X-1168592Y-5531724D01*
G01X-1148780Y-5540963D01*
G01X-1127663Y-5546621D01*
G01X-1105886Y-5548526D01*
G01X-1084108Y-5546621D01*
G01X-1062991Y-5540963D01*
G01X-1043179Y-5531724D01*
G01X-1025271Y-5519185D01*
G01X-1009813Y-5503727D01*
G01X-997274Y-5485819D01*
G01X-988035Y-5466006D01*
G01X-982377Y-5444890D01*
G01X-980472Y-5423112D01*
G01X-980472Y-5423112D01*
G01X-723299Y-5423112D01*
G01X-721394Y-5444890D01*
G01X-715736Y-5466006D01*
G01X-706497Y-5485819D01*
G01X-693958Y-5503727D01*
G01X-678500Y-5519185D01*
G01X-660592Y-5531724D01*
G01X-640780Y-5540963D01*
G01X-619663Y-5546621D01*
G01X-597886Y-5548526D01*
G01X-576108Y-5546621D01*
G01X-554991Y-5540963D01*
G01X-535179Y-5531724D01*
G01X-517271Y-5519185D01*
G01X-501813Y-5503727D01*
G01X-489274Y-5485819D01*
G01X-480035Y-5466006D01*
G01X-474377Y-5444890D01*
G01X-472472Y-5423112D01*
G01X-472472Y-5423112D01*
G01X-474377Y-5401334D01*
G01X-480035Y-5380218D01*
G01X-489274Y-5360405D01*
G01X-501813Y-5342498D01*
G01X-517271Y-5327040D01*
G01X-535179Y-5314501D01*
G01X-554991Y-5305262D01*
G01X-576108Y-5299604D01*
G01X-597886Y-5297699D01*
G01X-619663Y-5299604D01*
G01X-640780Y-5305262D01*
G01X-660592Y-5314501D01*
G01X-678500Y-5327040D01*
G01X-693958Y-5342498D01*
G01X-706497Y-5360405D01*
G01X-715736Y-5380218D01*
G01X-721394Y-5401334D01*
G01X-723299Y-5423112D01*
G01X-980472Y-5423112D01*
G01X-982377Y-5401334D01*
G01X-988035Y-5380218D01*
G01X-997274Y-5360405D01*
G01X-1009813Y-5342498D01*
G01X-1025271Y-5327040D01*
G01X-1043179Y-5314501D01*
G01X-1062991Y-5305262D01*
G01X-1084108Y-5299604D01*
G01X-1105886Y-5297699D01*
G01X-1127663Y-5299604D01*
G01X-1148780Y-5305262D01*
G01X-1168592Y-5314501D01*
G01X-1186500Y-5327040D01*
G01X-1201958Y-5342498D01*
G01X-1214497Y-5360405D01*
G01X-1223736Y-5380218D01*
G01X-1229394Y-5401334D01*
G01X-1231299Y-5423112D01*
G01X-1603868Y-5423112D01*
G01X-1603868Y-5097242D01*
G01X-1591319Y-5080149D01*
G01X-1581964Y-5061120D01*
G01X-1576091Y-5040745D01*
G01X-1573883Y-5019655D01*
G01X-1575410Y-4998506D01*
G01X-1580622Y-4977952D01*
G01X-1589359Y-4958631D01*
G01X-1601349Y-4941142D01*
G01X-1616222Y-4926028D01*
G01X-1631605Y-4915112D01*
G01X-1231299Y-4915112D01*
G01X-1229394Y-4936890D01*
G01X-1223736Y-4958006D01*
G01X-1214497Y-4977819D01*
G01X-1201958Y-4995727D01*
G01X-1186500Y-5011185D01*
G01X-1168592Y-5023724D01*
G01X-1148780Y-5032963D01*
G01X-1127663Y-5038621D01*
G01X-1105886Y-5040526D01*
G01X-1084108Y-5038621D01*
G01X-1062991Y-5032963D01*
G01X-1043179Y-5023724D01*
G01X-1025271Y-5011185D01*
G01X-1009813Y-4995727D01*
G01X-997274Y-4977819D01*
G01X-988035Y-4958006D01*
G01X-982377Y-4936890D01*
G01X-981201Y-4923445D01*
G01X-977022Y-4923445D01*
G01X-973517Y-4945680D01*
G01X-966093Y-4966931D01*
G01X-954991Y-4986512D01*
G01X-940566Y-5003793D01*
G01X-940566Y-5003793D01*
G01X-923285Y-5018218D01*
G01X-903704Y-5029320D01*
G01X-882453Y-5036744D01*
G01X-860218Y-5040249D01*
G01X-837714Y-5039723D01*
G01X-815667Y-5035182D01*
G01X-794786Y-5026774D01*
G01X-775745Y-5014768D01*
G01X-759157Y-4999552D01*
G01X-745556Y-4981616D01*
G01X-735381Y-4961537D01*
G01X-728958Y-4939963D01*
G01X-726496Y-4917588D01*
G01X-723297Y-4914389D01*
G01X-723297Y-4914389D01*
G01X-721439Y-4936632D01*
G01X-715668Y-4958193D01*
G01X-706166Y-4978390D01*
G01X-693234Y-4996582D01*
G01X-677281Y-5012194D01*
G01X-658814Y-5024731D01*
G01X-638418Y-5033796D01*
G01X-616737Y-5039101D01*
G01X-594459Y-5040479D01*
G01X-572289Y-5037886D01*
G01X-550931Y-5031405D01*
G01X-550931Y-5031405D01*
G01X-531060Y-5021239D01*
G01X-513305Y-5007712D01*
G01X-498229Y-4991252D01*
G01X-486311Y-4972381D01*
G01X-477926Y-4951695D01*
G01X-473341Y-4929850D01*
G01X-472701Y-4907539D01*
G01X-476026Y-4885468D01*
G01X-483211Y-4864335D01*
G01X-494028Y-4844811D01*
G01X-508135Y-4827514D01*
G01X-151907Y-4827514D01*
G01X-75257Y-4904164D01*
G01X-61556Y-4915408D01*
G01X-45925Y-4923763D01*
G01X-28964Y-4928908D01*
G01X-11325Y-4930645D01*
G01X108963Y-4930645D01*
G01X126601Y-4928908D01*
G01X143563Y-4923763D01*
G01X159194Y-4915408D01*
G01X172895Y-4904164D01*
G01X326831Y-4750227D01*
G01X451571Y-4750227D01*
G01X451571Y-4750227D01*
G01X443772Y-4769403D01*
G01X439373Y-4789632D01*
G01X438503Y-4810315D01*
G01X441189Y-4830841D01*
G01X447351Y-4850605D01*
G01X456807Y-4869020D01*
G01X469277Y-4885544D01*
G01X484394Y-4899687D01*
G01X501709Y-4911033D01*
G01X520712Y-4919245D01*
G01X520712Y-4919245D01*
G01X540841Y-4924080D01*
G01X561500Y-4925397D01*
G01X582080Y-4923155D01*
G01X601971Y-4917422D01*
G01X620587Y-4908366D01*
G01X637377Y-4896256D01*
G01X651844Y-4881449D01*
G01X663561Y-4864383D01*
G01X672181Y-4845562D01*
G01X677451Y-4825542D01*
G01X677451Y-4825542D01*
G01X696230Y-4827514D01*
G01X909701Y-4827514D01*
G01X927340Y-4825777D01*
G01X944301Y-4820632D01*
G01X959932Y-4812276D01*
G01X973633Y-4801032D01*
G01X1007467Y-4767199D01*
G01X1729186Y-4767199D01*
G01X1731038Y-4790729D01*
G01X1736548Y-4813679D01*
G01X1745580Y-4835485D01*
G01X1757913Y-4855610D01*
G01X1773241Y-4873558D01*
G01X1791189Y-4888886D01*
G01X1811314Y-4901219D01*
G01X1833120Y-4910251D01*
G01X1856070Y-4915761D01*
G01X1879600Y-4917613D01*
G01X1879600Y-4917613D01*
G01X1903130Y-4915761D01*
G01X1926080Y-4910251D01*
G01X1947886Y-4901219D01*
G01X1968011Y-4888886D01*
G01X1985959Y-4873558D01*
G01X2001287Y-4855610D01*
G01X2013620Y-4835485D01*
G01X2022652Y-4813679D01*
G01X2028162Y-4790729D01*
G01X2030014Y-4767199D01*
G01X2028162Y-4743669D01*
G01X2022652Y-4720719D01*
G01X2013620Y-4698913D01*
G01X2001287Y-4678788D01*
G01X1985959Y-4660840D01*
G01X1968011Y-4645512D01*
G01X1947886Y-4633179D01*
G01X1926080Y-4624147D01*
G01X1903130Y-4618637D01*
G01X1879600Y-4616785D01*
G01X1856070Y-4618637D01*
G01X1833120Y-4624147D01*
G01X1811314Y-4633179D01*
G01X1791189Y-4645512D01*
G01X1773241Y-4660840D01*
G01X1757913Y-4678788D01*
G01X1745580Y-4698913D01*
G01X1736548Y-4720719D01*
G01X1731038Y-4743669D01*
G01X1729186Y-4767199D01*
G01X1007467Y-4767199D01*
G01X1507466Y-4267200D01*
G01X1729186Y-4267200D01*
G01X1731038Y-4290730D01*
G01X1736548Y-4313680D01*
G01X1745580Y-4335486D01*
G01X1757913Y-4355611D01*
G01X1773241Y-4373559D01*
G01X1791189Y-4388887D01*
G01X1811314Y-4401220D01*
G01X1833120Y-4410252D01*
G01X1856070Y-4415762D01*
G01X1879600Y-4417614D01*
G01X1879600Y-4417614D01*
G01X1903130Y-4415762D01*
G01X1926080Y-4410252D01*
G01X1947886Y-4401220D01*
G01X1968011Y-4388887D01*
G01X1985959Y-4373559D01*
G01X2001287Y-4355611D01*
G01X2013620Y-4335486D01*
G01X2022652Y-4313680D01*
G01X2028162Y-4290730D01*
G01X2030014Y-4267200D01*
G01X2028162Y-4243670D01*
G01X2022652Y-4220720D01*
G01X2013620Y-4198914D01*
G01X2001287Y-4178789D01*
G01X1985959Y-4160841D01*
G01X1968011Y-4145513D01*
G01X1947886Y-4133180D01*
G01X1926080Y-4124148D01*
G01X1903130Y-4118638D01*
G01X1879600Y-4116786D01*
G01X1856070Y-4118638D01*
G01X1833120Y-4124148D01*
G01X1811314Y-4133180D01*
G01X1791189Y-4145513D01*
G01X1773241Y-4160841D01*
G01X1757913Y-4178789D01*
G01X1745580Y-4198914D01*
G01X1736548Y-4220720D01*
G01X1731038Y-4243670D01*
G01X1729186Y-4267200D01*
G01X1507466Y-4267200D01*
G01X1858534Y-3916132D01*
G01X1858534Y-3916132D01*
G01X1881935Y-3917597D01*
G01X1905280Y-3915406D01*
G01X1928001Y-3909615D01*
G01X1949546Y-3900362D01*
G01X1969391Y-3887874D01*
G01X1987054Y-3872453D01*
G01X2002106Y-3854475D01*
G01X2014180Y-3834375D01*
G01X2022985Y-3812644D01*
G01X2028305Y-3789808D01*
G01X2030012Y-3766423D01*
G01X2028063Y-3743056D01*
G01X2022507Y-3720277D01*
G01X2013478Y-3698637D01*
G01X2001196Y-3678664D01*
G01X1985959Y-3660842D01*
G01X1985959Y-3660842D01*
G01X1968137Y-3645605D01*
G01X1948164Y-3633323D01*
G01X1926524Y-3624294D01*
G01X1903745Y-3618738D01*
G01X1880378Y-3616789D01*
G01X1856993Y-3618496D01*
G01X1834157Y-3623816D01*
G01X1812426Y-3632621D01*
G01X1792326Y-3644695D01*
G01X1774348Y-3659747D01*
G01X1758927Y-3677410D01*
G01X1746439Y-3697255D01*
G01X1737186Y-3718800D01*
G01X1731395Y-3741521D01*
G01X1729204Y-3764866D01*
G01X1730669Y-3788267D01*
G01X872250Y-4646686D01*
G01X872250Y-4646686D01*
G01X733681Y-4646686D01*
G01X682876Y-4595881D01*
G01X669175Y-4584637D01*
G01X653544Y-4576282D01*
G01X636583Y-4571137D01*
G01X618944Y-4569400D01*
G01X289381Y-4569400D01*
G01X271742Y-4571137D01*
G01X254781Y-4576282D01*
G01X239149Y-4584637D01*
G01X225448Y-4595881D01*
G01X163380Y-4657949D01*
G01X154821Y-4637908D01*
G01X142789Y-4619738D01*
G01X127680Y-4604035D01*
G01X109987Y-4591311D01*
G01X90291Y-4581985D01*
G01X69237Y-4576361D01*
G01X47514Y-4574625D01*
G01X25834Y-4576832D01*
G01X4906Y-4582910D01*
G01X-14583Y-4592661D01*
G01X-31995Y-4605765D01*
G01X-46761Y-4621792D01*
G01X-58396Y-4640219D01*
G01X-66519Y-4660440D01*
G01X-66519Y-4660440D01*
G01X-81546Y-4652888D01*
G01X-97712Y-4648250D01*
G01X-114456Y-4646686D01*
G01X-673873Y-4646686D01*
G01X-691512Y-4648423D01*
G01X-708473Y-4653568D01*
G01X-724104Y-4661924D01*
G01X-737806Y-4673168D01*
G01X-854361Y-4789723D01*
G01X-854361Y-4789723D01*
G01X-876736Y-4792185D01*
G01X-898310Y-4798608D01*
G01X-918389Y-4808783D01*
G01X-936325Y-4822384D01*
G01X-951541Y-4838972D01*
G01X-963547Y-4858013D01*
G01X-971956Y-4878894D01*
G01X-976496Y-4900941D01*
G01X-977022Y-4923445D01*
G01X-981201Y-4923445D01*
G01X-980472Y-4915112D01*
G01X-980472Y-4915112D01*
G01X-982377Y-4893334D01*
G01X-988035Y-4872218D01*
G01X-997274Y-4852405D01*
G01X-1009813Y-4834498D01*
G01X-1025271Y-4819040D01*
G01X-1043179Y-4806501D01*
G01X-1062991Y-4797262D01*
G01X-1084108Y-4791604D01*
G01X-1105886Y-4789699D01*
G01X-1127663Y-4791604D01*
G01X-1148780Y-4797262D01*
G01X-1168592Y-4806501D01*
G01X-1186500Y-4819040D01*
G01X-1201958Y-4834498D01*
G01X-1214497Y-4852405D01*
G01X-1223736Y-4872218D01*
G01X-1229394Y-4893334D01*
G01X-1231299Y-4915112D01*
G01X-1631605Y-4915112D01*
G01X-1633515Y-4913757D01*
G01X-1652692Y-4904710D01*
G01X-1673159Y-4899166D01*
G01X-1694282Y-4897299D01*
G01X-1715404Y-4899166D01*
G01X-1735871Y-4904710D01*
G01X-1755048Y-4913757D01*
G01X-1772341Y-4926028D01*
G01X-1787214Y-4941142D01*
G01X-1799204Y-4958631D01*
G01X-1807941Y-4977952D01*
G01X-1813154Y-4998506D01*
G01X-1814680Y-5019655D01*
G01X-1812472Y-5040745D01*
G01X-1806600Y-5061120D01*
G01X-1797244Y-5080149D01*
G01X-1784696Y-5097242D01*
G01X-1784696Y-5449362D01*
G01X-2050359Y-5715025D01*
G01X-2073192Y-5714925D01*
G01X-2095741Y-5718527D01*
G01X-2117407Y-5725735D01*
G01X-2137618Y-5736361D01*
G01X-2155840Y-5750121D01*
G01X-2171591Y-5766653D01*
G01X-2184454Y-5785520D01*
G01X-2194089Y-5806222D01*
G01X-2200241Y-5828211D01*
G01X-2202747Y-5850907D01*
G01X-2422309Y-5850907D01*
G01X-2423891Y-5831811D01*
G01X-2429584Y-5809330D01*
G01X-2438900Y-5788093D01*
G01X-2451584Y-5768679D01*
G01X-2467290Y-5751617D01*
G01X-2485591Y-5737373D01*
G01X-2505987Y-5726335D01*
G01X-2527921Y-5718805D01*
G01X-2550795Y-5714988D01*
G01X-2573985Y-5714988D01*
G01X-2596860Y-5718805D01*
G01X-2618794Y-5726335D01*
G01X-2639189Y-5737373D01*
G01X-2657490Y-5751617D01*
G01X-2673196Y-5768679D01*
G01X-2685880Y-5788093D01*
G01X-2695196Y-5809330D01*
G01X-2700889Y-5831811D01*
G01X-2702804Y-5854923D01*
G01X-7579188Y-5854923D01*
G01X-7575392Y-5839934D01*
G01X-7573477Y-5816823D01*
G01X-7573477Y-5816823D01*
G01X-7575392Y-5793711D01*
G01X-7581085Y-5771230D01*
G01X-7590401Y-5749993D01*
G01X-7603085Y-5730579D01*
G01X-7618791Y-5713517D01*
G01X-7637092Y-5699273D01*
G01X-7657488Y-5688235D01*
G01X-7679422Y-5680705D01*
G01X-7702296Y-5676888D01*
G01X-7725486Y-5676888D01*
G01X-7748361Y-5680705D01*
G01X-7770295Y-5688235D01*
G01X-7790690Y-5699273D01*
G01X-7808991Y-5713517D01*
G01X-7824697Y-5730579D01*
G01X-7837381Y-5749993D01*
G01X-7846697Y-5771230D01*
G01X-7852390Y-5793711D01*
G01X-7854305Y-5816823D01*
G01X-8073476Y-5816823D01*
G01X-8075391Y-5793711D01*
G01X-8081084Y-5771230D01*
G01X-8090400Y-5749993D01*
G01X-8103084Y-5730579D01*
G01X-8118790Y-5713517D01*
G01X-8137091Y-5699273D01*
G01X-8157487Y-5688235D01*
G01X-8179421Y-5680705D01*
G01X-8202295Y-5676888D01*
G01X-8225485Y-5676888D01*
G01X-8248360Y-5680705D01*
G01X-8270294Y-5688235D01*
G01X-8290689Y-5699273D01*
G01X-8308990Y-5713517D01*
G01X-8324696Y-5730579D01*
G01X-8337380Y-5749993D01*
G01X-8346696Y-5771230D01*
G01X-8352389Y-5793711D01*
G01X-8354304Y-5816823D01*
G01X-8762607Y-5816823D01*
G01X-8765637Y-5811729D01*
G01X-8786755Y-5783402D01*
G01X-8786755Y-5783402D01*
G01X-8810695Y-5757416D01*
G01X-8837199Y-5734052D01*
G01X-8865982Y-5713561D01*
G01X-8896735Y-5696163D01*
G01X-8929125Y-5682047D01*
G01X-8962804Y-5671364D01*
G01X-8997408Y-5664230D01*
G01X-9032566Y-5660721D01*
G01X-9067898Y-5660875D01*
G01X-9103024Y-5664690D01*
G01X-9137565Y-5672126D01*
G01X-9171149Y-5683102D01*
G01X-9203415Y-5697500D01*
G01X-9234015Y-5715165D01*
G01X-9262618Y-5735907D01*
G01X-9288918Y-5759501D01*
G01X-9312631Y-5785695D01*
G01X-9312631Y-5500021D01*
G01X-7164006Y-5500021D01*
G01X-7162032Y-5525115D01*
G01X-7156155Y-5549592D01*
G01X-7146522Y-5572847D01*
G01X-7133370Y-5594310D01*
G01X-7117022Y-5613451D01*
G01X-7097882Y-5629798D01*
G01X-7076419Y-5642951D01*
G01X-7053163Y-5652583D01*
G01X-7028687Y-5658460D01*
G01X-7003593Y-5660435D01*
G01X-6978499Y-5658460D01*
G01X-6954022Y-5652583D01*
G01X-6930767Y-5642951D01*
G01X-6909304Y-5629798D01*
G01X-6890163Y-5613451D01*
G01X-6873815Y-5594310D01*
G01X-6860663Y-5572847D01*
G01X-6851030Y-5549592D01*
G01X-6845154Y-5525115D01*
G01X-6843179Y-5500021D01*
G01X-6824002Y-5500021D01*
G01X-6822027Y-5525115D01*
G01X-6816151Y-5549592D01*
G01X-6806518Y-5572847D01*
G01X-6793366Y-5594310D01*
G01X-6777018Y-5613451D01*
G01X-6757877Y-5629798D01*
G01X-6736415Y-5642951D01*
G01X-6713159Y-5652583D01*
G01X-6688683Y-5658460D01*
G01X-6663588Y-5660435D01*
G01X-6638494Y-5658460D01*
G01X-6614018Y-5652583D01*
G01X-6590762Y-5642951D01*
G01X-6569300Y-5629798D01*
G01X-6550159Y-5613451D01*
G01X-6533811Y-5594310D01*
G01X-6520659Y-5572847D01*
G01X-6511026Y-5549592D01*
G01X-6505150Y-5525115D01*
G01X-6503175Y-5500021D01*
G01X-6505150Y-5474927D01*
G01X-6511026Y-5450450D01*
G01X-6520659Y-5427195D01*
G01X-6533811Y-5405732D01*
G01X-6550159Y-5386591D01*
G01X-6569300Y-5370244D01*
G01X-6590762Y-5357091D01*
G01X-6614018Y-5347459D01*
G01X-6638494Y-5341582D01*
G01X-6663588Y-5339607D01*
G01X-6663588Y-5339607D01*
G01X-6688683Y-5341582D01*
G01X-6713159Y-5347459D01*
G01X-6736415Y-5357091D01*
G01X-6757877Y-5370244D01*
G01X-6777018Y-5386591D01*
G01X-6793366Y-5405732D01*
G01X-6806518Y-5427195D01*
G01X-6816151Y-5450450D01*
G01X-6822027Y-5474927D01*
G01X-6824002Y-5500021D01*
G01X-6843179Y-5500021D01*
G01X-6845154Y-5474927D01*
G01X-6851030Y-5450450D01*
G01X-6860663Y-5427195D01*
G01X-6873815Y-5405732D01*
G01X-6890163Y-5386591D01*
G01X-6909304Y-5370244D01*
G01X-6930767Y-5357091D01*
G01X-6954022Y-5347459D01*
G01X-6978499Y-5341582D01*
G01X-7003593Y-5339607D01*
G01X-7003593Y-5339607D01*
G01X-7028687Y-5341582D01*
G01X-7053163Y-5347459D01*
G01X-7076419Y-5357091D01*
G01X-7097882Y-5370244D01*
G01X-7117022Y-5386591D01*
G01X-7133370Y-5405732D01*
G01X-7146522Y-5427195D01*
G01X-7156155Y-5450450D01*
G01X-7162032Y-5474927D01*
G01X-7164006Y-5500021D01*
G01X-9312631Y-5500021D01*
G01X-9312631Y366071D01*
G01X-8728205Y366071D01*
G01X-8726227Y353582D01*
G01X-8720486Y342316D01*
G01X-8711545Y333375D01*
G01X-8700279Y327635D01*
G01X-8687791Y325657D01*
G01X-8535391Y325657D01*
G01X-8522902Y327635D01*
G01X-8511636Y333375D01*
G01X-8502695Y342316D01*
G01X-8496955Y353582D01*
G01X-8494977Y366071D01*
G01X-8494977Y470810D01*
G01X-8058871Y470810D01*
G01X-8058501Y447865D01*
G01X-8054234Y425318D01*
G01X-8046193Y403825D01*
G01X-8034613Y384014D01*
G01X-8019831Y366462D01*
G01X-8019831Y366462D01*
G01X-8002278Y351680D01*
G01X-7982467Y340100D01*
G01X-7960975Y332059D01*
G01X-7938428Y327791D01*
G01X-7915483Y327422D01*
G01X-7892810Y330961D01*
G01X-7871070Y338307D01*
G01X-7850896Y349243D01*
G01X-7832877Y363452D01*
G01X-7817538Y380520D01*
G01X-7805326Y399948D01*
G01X-7796598Y421171D01*
G01X-7791607Y443569D01*
G01X-7790499Y466489D01*
G01X-7793307Y489264D01*
G01X-7799948Y511230D01*
G01X-7454304Y856874D01*
G01X-7454304Y854578D01*
G01X-7452326Y842089D01*
G01X-7446586Y830823D01*
G01X-7437645Y821882D01*
G01X-7426379Y816142D01*
G01X-7413890Y814164D01*
G01X-7243891Y814164D01*
G01X-7231402Y816142D01*
G01X-7220136Y821882D01*
G01X-7211195Y830823D01*
G01X-7205455Y842089D01*
G01X-7203477Y854578D01*
G01X-7203477Y1024577D01*
G01X-7205455Y1037066D01*
G01X-7211195Y1048332D01*
G01X-7220136Y1057273D01*
G01X-7231402Y1063013D01*
G01X-7243891Y1064991D01*
G01X-7379190Y1064991D01*
G01X-7456587Y1142388D01*
G01X-7456587Y1331345D01*
G01X-7440379Y1342986D01*
G01X-7426655Y1357473D01*
G01X-7415907Y1374287D01*
G01X-7408521Y1392825D01*
G01X-7404760Y1412422D01*
G01X-7404760Y1432378D01*
G01X-7408521Y1451975D01*
G01X-7415907Y1470513D01*
G01X-7426655Y1487327D01*
G01X-7440379Y1501814D01*
G01X-7456587Y1513455D01*
G01X-7456587Y1564094D01*
G01X-7458396Y1577841D01*
G01X-7463702Y1590651D01*
G01X-7472143Y1601651D01*
G01X-7653695Y1783203D01*
G01X-7653695Y1783203D01*
G01X-7649784Y1803620D01*
G01X-7649774Y1817536D01*
G01X-7450960Y1817536D01*
G01X-7449649Y1796789D01*
G01X-7444473Y1776656D01*
G01X-7435615Y1757850D01*
G01X-7423389Y1741037D01*
G01X-7408228Y1726814D01*
G01X-7390670Y1715685D01*
G01X-7371337Y1708044D01*
G01X-7350915Y1704162D01*
G01X-7330127Y1704177D01*
G01X-7309710Y1708089D01*
G01X-6974614Y1372993D01*
G01X-6974614Y1301555D01*
G01X-6990515Y1290182D01*
G01X-7004041Y1276067D01*
G01X-7014729Y1259698D01*
G01X-7022211Y1241636D01*
G01X-7026228Y1222504D01*
G01X-7026644Y1202958D01*
G01X-7023443Y1183672D01*
G01X-7112448Y1094667D01*
G01X-7120889Y1083667D01*
G01X-7126195Y1070857D01*
G01X-7128005Y1057110D01*
G01X-7128005Y1053189D01*
G01X-7146910Y1042251D01*
G01X-7163632Y1028198D01*
G01X-7177662Y1011457D01*
G01X-7188574Y992537D01*
G01X-7196038Y972009D01*
G01X-7199828Y950499D01*
G01X-7199828Y928656D01*
G01X-7196038Y907146D01*
G01X-7188574Y886618D01*
G01X-7177662Y867698D01*
G01X-7163632Y850957D01*
G01X-7146910Y836904D01*
G01X-7128005Y825966D01*
G01X-7128005Y144983D01*
G01X-7128005Y144983D01*
G01X-7126195Y131236D01*
G01X-7120889Y118426D01*
G01X-7112448Y107426D01*
G01X-6919352Y-85670D01*
G01X-6925993Y-107636D01*
G01X-6928801Y-130411D01*
G01X-6927693Y-153331D01*
G01X-6922702Y-175729D01*
G01X-6913974Y-196952D01*
G01X-6901762Y-216380D01*
G01X-6886423Y-233448D01*
G01X-6868404Y-247657D01*
G01X-6848230Y-258593D01*
G01X-6826490Y-265939D01*
G01X-6803817Y-269478D01*
G01X-6780872Y-269109D01*
G01X-6758325Y-264841D01*
G01X-6736833Y-256800D01*
G01X-6717022Y-245220D01*
G01X-6699469Y-230438D01*
G01X-6684687Y-212886D01*
G01X-6673107Y-193075D01*
G01X-6665066Y-171582D01*
G01X-6660799Y-149035D01*
G01X-6660429Y-126090D01*
G01X-6663969Y-103418D01*
G01X-6671314Y-81677D01*
G01X-6682250Y-61504D01*
G01X-6696460Y-43485D01*
G01X-6713527Y-28145D01*
G01X-6732955Y-15934D01*
G01X-6754178Y-7205D01*
G01X-6776576Y-2214D01*
G01X-6799497Y-1106D01*
G01X-6822272Y-3914D01*
G01X-6844237Y-10556D01*
G01X-7021777Y166984D01*
G01X-7021777Y825966D01*
G01X-7002292Y837313D01*
G01X-6985154Y851965D01*
G01X-6970916Y869450D01*
G01X-6960039Y889201D01*
G01X-6952875Y910580D01*
G01X-6949655Y932897D01*
G01X-6950483Y955430D01*
G01X-6955332Y977450D01*
G01X-6964046Y998247D01*
G01X-6976343Y1017146D01*
G01X-6991825Y1033539D01*
G01X-7009992Y1046894D01*
G01X-6948328Y1108558D01*
G01X-6948328Y1108558D01*
G01X-6929704Y1105406D01*
G01X-6910816Y1105629D01*
G01X-6892272Y1109220D01*
G01X-6874666Y1116062D01*
G01X-6858563Y1125937D01*
G01X-6844482Y1138526D01*
G01X-6832873Y1153427D01*
G01X-6824110Y1170160D01*
G01X-6824110Y1170160D01*
G01X-6818474Y1188189D01*
G01X-6816147Y1206934D01*
G01X-6817201Y1225793D01*
G01X-6821605Y1244162D01*
G01X-6829216Y1261449D01*
G01X-6839791Y1277101D01*
G01X-6852988Y1290614D01*
G01X-6868386Y1301555D01*
G01X-6868386Y1394993D01*
G01X-6870196Y1408740D01*
G01X-6875502Y1421550D01*
G01X-6883943Y1432551D01*
G01X-7167773Y1716381D01*
G01X-7026750Y1716381D01*
G01X-7025891Y1695854D01*
G01X-7021068Y1675883D01*
G01X-7012462Y1657227D01*
G01X-7000401Y1640595D01*
G01X-6985343Y1626618D01*
G01X-6967860Y1615827D01*
G01X-6948616Y1608633D01*
G01X-6928342Y1605308D01*
G01X-6907807Y1605979D01*
G01X-6887793Y1610620D01*
G01X-6869060Y1619055D01*
G01X-6852318Y1630964D01*
G01X-6838205Y1645894D01*
G01X-6827255Y1663277D01*
G01X-6819885Y1682455D01*
G01X-6816375Y1702698D01*
G01X-6816859Y1723238D01*
G01X-6620005Y1526383D01*
G01X-6620005Y1215578D01*
G01X-6778113Y1057470D01*
G01X-6798553Y1062986D01*
G01X-6819631Y1064985D01*
G01X-6840744Y1063410D01*
G01X-6861291Y1058306D01*
G01X-6880687Y1049818D01*
G01X-6898379Y1038189D01*
G01X-6913863Y1023749D01*
G01X-6926697Y1006910D01*
G01X-6936515Y988153D01*
G01X-6943039Y968011D01*
G01X-6946081Y947059D01*
G01X-6945556Y925893D01*
G01X-6941477Y905118D01*
G01X-6933962Y885325D01*
G01X-6923225Y867078D01*
G01X-6909572Y850897D01*
G01X-6893391Y837243D01*
G01X-6875143Y826506D01*
G01X-6855350Y818991D01*
G01X-6834575Y814913D01*
G01X-6813409Y814387D01*
G01X-6792457Y817429D01*
G01X-6772315Y823953D01*
G01X-6753558Y833771D01*
G01X-6736719Y846605D01*
G01X-6722280Y862089D01*
G01X-6710650Y879781D01*
G01X-6702162Y899177D01*
G01X-6697058Y919724D01*
G01X-6695483Y940838D01*
G01X-6697482Y961915D01*
G01X-6702998Y982356D01*
G01X-6544890Y1140464D01*
G01X-6489256Y1140464D01*
G01X-6489256Y1140464D01*
G01X-6479283Y1127426D01*
G01X-6467406Y1116095D01*
G01X-6453914Y1106746D01*
G01X-6453914Y994028D01*
G01X-6465022Y1012731D01*
G01X-6479195Y1029233D01*
G01X-6496005Y1043037D01*
G01X-6514949Y1053729D01*
G01X-6535455Y1060988D01*
G01X-6556906Y1064593D01*
G01X-6578658Y1064438D01*
G01X-6600056Y1060526D01*
G01X-6620456Y1052976D01*
G01X-6639245Y1042015D01*
G01X-6655857Y1027972D01*
G01X-6669793Y1011269D01*
G01X-6680633Y992410D01*
G01X-6688051Y971962D01*
G01X-6691824Y950539D01*
G01X-6691839Y928786D01*
G01X-6688095Y907359D01*
G01X-6680705Y886900D01*
G01X-6669891Y868026D01*
G01X-6655978Y851305D01*
G01X-6639385Y837239D01*
G01X-6620611Y826252D01*
G01X-6600221Y818674D01*
G01X-6578829Y814733D01*
G01X-6557077Y814548D01*
G01X-6535620Y818125D01*
G01X-6515105Y825355D01*
G01X-6496147Y836021D01*
G01X-6479317Y849803D01*
G01X-6465122Y866285D01*
G01X-6453988Y884973D01*
G01X-6446251Y905303D01*
G01X-6442143Y926664D01*
G01X-6441788Y948413D01*
G01X-6438357Y944635D01*
G01X-6366611Y872889D01*
G01X-6369872Y850214D01*
G01X-6369234Y827314D01*
G01X-6364716Y804856D01*
G01X-6356450Y783491D01*
G01X-6344675Y763840D01*
G01X-6329733Y746475D01*
G01X-6312060Y731899D01*
G01X-6292167Y720537D01*
G01X-6270634Y712718D01*
G01X-6248086Y708671D01*
G01X-6225178Y708511D01*
G01X-6202576Y712245D01*
G01X-6180936Y719763D01*
G01X-6160887Y730847D01*
G01X-6143013Y745175D01*
G01X-6127831Y762330D01*
G01X-6127831Y762330D01*
G01X-6115783Y781815D01*
G01X-6107330Y802791D01*
G01X-5950535Y802791D01*
G01X-5950535Y780594D01*
G01X-5946882Y758701D01*
G01X-5939674Y737707D01*
G01X-5929110Y718186D01*
G01X-5915477Y700670D01*
G01X-5899146Y685637D01*
G01X-5880564Y673497D01*
G01X-5860238Y664580D01*
G01X-5838721Y659132D01*
G01X-5816600Y657299D01*
G01X-5794479Y659132D01*
G01X-5772962Y664580D01*
G01X-5752636Y673497D01*
G01X-5734054Y685637D01*
G01X-5717723Y700670D01*
G01X-5704090Y718186D01*
G01X-5693526Y737707D01*
G01X-5686318Y758701D01*
G01X-5682665Y780594D01*
G01X-5682665Y802791D01*
G01X-5686318Y824684D01*
G01X-5693526Y845678D01*
G01X-5704090Y865199D01*
G01X-5717723Y882715D01*
G01X-5734054Y897748D01*
G01X-5752636Y909889D01*
G01X-5772962Y918805D01*
G01X-5794479Y924254D01*
G01X-5816600Y926087D01*
G01X-5816600Y926087D01*
G01X-5838721Y924254D01*
G01X-5860238Y918805D01*
G01X-5880564Y909889D01*
G01X-5899146Y897748D01*
G01X-5915477Y882715D01*
G01X-5929110Y865199D01*
G01X-5939674Y845678D01*
G01X-5946882Y824684D01*
G01X-5950535Y802791D01*
G01X-6107330Y802791D01*
G01X-6107220Y803063D01*
G01X-6102390Y825457D01*
G01X-6101434Y848345D01*
G01X-6104378Y871064D01*
G01X-6111139Y892952D01*
G01X-6121518Y913374D01*
G01X-6135215Y931737D01*
G01X-6151832Y947507D01*
G01X-6170886Y960225D01*
G01X-6191823Y969522D01*
G01X-6214035Y975129D01*
G01X-6236876Y976881D01*
G01X-6259684Y974729D01*
G01X-6281794Y968735D01*
G01X-6302565Y959072D01*
G01X-6347686Y1004193D01*
G01X-6347686Y1058101D01*
G01X-5998214Y1058101D01*
G01X-5996188Y1037535D01*
G01X-5990190Y1017760D01*
G01X-5980448Y999536D01*
G01X-5967339Y983562D01*
G01X-5951365Y970452D01*
G01X-5933140Y960711D01*
G01X-5913365Y954712D01*
G01X-5892800Y952687D01*
G01X-5872235Y954712D01*
G01X-5852460Y960711D01*
G01X-5834235Y970452D01*
G01X-5818261Y983562D01*
G01X-5805152Y999536D01*
G01X-5795410Y1017760D01*
G01X-5789412Y1037535D01*
G01X-5787386Y1058101D01*
G01X-5789412Y1078666D01*
G01X-5795410Y1098441D01*
G01X-5805152Y1116665D01*
G01X-5818261Y1132639D01*
G01X-5834235Y1145749D01*
G01X-5852460Y1155490D01*
G01X-5872235Y1161489D01*
G01X-5892800Y1163514D01*
G01X-5892800Y1163514D01*
G01X-5913365Y1161489D01*
G01X-5933140Y1155490D01*
G01X-5951365Y1145749D01*
G01X-5967339Y1132639D01*
G01X-5980448Y1116665D01*
G01X-5990190Y1098441D01*
G01X-5996188Y1078666D01*
G01X-5998214Y1058101D01*
G01X-6347686Y1058101D01*
G01X-6347686Y1106746D01*
G01X-6331835Y1118077D01*
G01X-6318340Y1132131D01*
G01X-6307663Y1148430D01*
G01X-6300167Y1166415D01*
G01X-6296110Y1185472D01*
G01X-6295629Y1204951D01*
G01X-6298741Y1224185D01*
G01X-6305341Y1242518D01*
G01X-6315202Y1259323D01*
G01X-6327987Y1274026D01*
G01X-6327987Y1274026D01*
G01X-6343260Y1286125D01*
G01X-6360499Y1295206D01*
G01X-6379114Y1300960D01*
G01X-6398471Y1303189D01*
G01X-6417907Y1301817D01*
G01X-6436759Y1296892D01*
G01X-6454382Y1288581D01*
G01X-6470174Y1277168D01*
G01X-6483597Y1263044D01*
G01X-6494190Y1246691D01*
G01X-6513777Y1246691D01*
G01X-6513777Y1548384D01*
G01X-6515056Y1558100D01*
G01X-5998214Y1558100D01*
G01X-5996188Y1537534D01*
G01X-5990190Y1517759D01*
G01X-5980448Y1499535D01*
G01X-5967339Y1483561D01*
G01X-5951365Y1470451D01*
G01X-5933140Y1460710D01*
G01X-5913365Y1454711D01*
G01X-5892800Y1452686D01*
G01X-5872235Y1454711D01*
G01X-5852460Y1460710D01*
G01X-5834235Y1470451D01*
G01X-5818261Y1483561D01*
G01X-5805152Y1499535D01*
G01X-5795410Y1517759D01*
G01X-5789412Y1537534D01*
G01X-5787386Y1558100D01*
G01X-5789412Y1578665D01*
G01X-5795410Y1598440D01*
G01X-5805152Y1616664D01*
G01X-5818261Y1632638D01*
G01X-5834235Y1645748D01*
G01X-5852460Y1655489D01*
G01X-5872235Y1661488D01*
G01X-5892800Y1663513D01*
G01X-5892800Y1663513D01*
G01X-5913365Y1661488D01*
G01X-5933140Y1655489D01*
G01X-5951365Y1645748D01*
G01X-5967339Y1632638D01*
G01X-5980448Y1616664D01*
G01X-5990190Y1598440D01*
G01X-5996188Y1578665D01*
G01X-5998214Y1558100D01*
G01X-6515056Y1558100D01*
G01X-6515586Y1562131D01*
G01X-6520893Y1574941D01*
G01X-6529333Y1585941D01*
G01X-6790095Y1846703D01*
G01X-6790095Y1846703D01*
G01X-6786163Y1867339D01*
G01X-6786165Y1868214D01*
G01X-6612415Y1868214D01*
G01X-6608656Y1847580D01*
G01X-6601063Y1828028D01*
G01X-6589910Y1810265D01*
G01X-6575599Y1794931D01*
G01X-6558647Y1782580D01*
G01X-6539665Y1773658D01*
G01X-6519338Y1768487D01*
G01X-6498400Y1767252D01*
G01X-6477607Y1769999D01*
G01X-6477607Y1769999D01*
G01X-6489821Y1754256D01*
G01X-6498855Y1736495D01*
G01X-6504385Y1717352D01*
G01X-6506213Y1697510D01*
G01X-6504276Y1677678D01*
G01X-6498641Y1658566D01*
G01X-6489510Y1640855D01*
G01X-6477209Y1625179D01*
G01X-6462178Y1612098D01*
G01X-6444954Y1602078D01*
G01X-6426152Y1595480D01*
G01X-6406445Y1592537D01*
G01X-6386535Y1593355D01*
G01X-6367136Y1597906D01*
G01X-6348939Y1606025D01*
G01X-6348939Y1606025D01*
G01X-6332595Y1617424D01*
G01X-6318689Y1631695D01*
G01X-6307716Y1648327D01*
G01X-6300070Y1666728D01*
G01X-6296022Y1686239D01*
G01X-6295718Y1706162D01*
G01X-6299170Y1725787D01*
G01X-6306252Y1744412D01*
G01X-6316713Y1761371D01*
G01X-6330178Y1776059D01*
G01X-6346167Y1787951D01*
G01X-6364108Y1796621D01*
G01X-6383359Y1801761D01*
G01X-6403234Y1803185D01*
G01X-6423023Y1800844D01*
G01X-6423023Y1800844D01*
G01X-6409941Y1817240D01*
G01X-6400196Y1835813D01*
G01X-6394140Y1855893D01*
G01X-6391989Y1876757D01*
G01X-6393823Y1897651D01*
G01X-6399575Y1917821D01*
G01X-6409038Y1936540D01*
G01X-6421869Y1953131D01*
G01X-6437607Y1966997D01*
G01X-6455682Y1977637D01*
G01X-6475443Y1984666D01*
G01X-6496177Y1987832D01*
G01X-6517136Y1987019D01*
G01X-6537563Y1982259D01*
G01X-6556721Y1973721D01*
G01X-6556721Y1973721D01*
G01X-6573919Y1961714D01*
G01X-6588536Y1946672D01*
G01X-6600044Y1929137D01*
G01X-6608030Y1909743D01*
G01X-6612203Y1889188D01*
G01X-6612415Y1868214D01*
G01X-6786165Y1868214D01*
G01X-6786211Y1888347D01*
G01X-6790237Y1908965D01*
G01X-6798095Y1928448D01*
G01X-6809500Y1946089D01*
G01X-6824041Y1961252D01*
G01X-6841190Y1973385D01*
G01X-6860327Y1982051D01*
G01X-6880759Y1986936D01*
G01X-6901746Y1987863D01*
G01X-6922528Y1984798D01*
G01X-6942354Y1977852D01*
G01X-6960506Y1967277D01*
G01X-6976326Y1953455D01*
G01X-6989242Y1936887D01*
G01X-6998787Y1918173D01*
G01X-7004614Y1897989D01*
G01X-7006513Y1877068D01*
G01X-7004415Y1856165D01*
G01X-6998396Y1836038D01*
G01X-6988674Y1817416D01*
G01X-6975600Y1800972D01*
G01X-6975600Y1800972D01*
G01X-6992122Y1788759D01*
G01X-7005961Y1773574D01*
G01X-7016591Y1755993D01*
G01X-7023610Y1736684D01*
G01X-7026750Y1716381D01*
G01X-7167773Y1716381D01*
G01X-7234595Y1783203D01*
G01X-7234595Y1783203D01*
G01X-7230684Y1803620D01*
G01X-7230669Y1824408D01*
G01X-7234551Y1844830D01*
G01X-7242192Y1864163D01*
G01X-7253321Y1881721D01*
G01X-7267544Y1896882D01*
G01X-7284356Y1909108D01*
G01X-7303163Y1917967D01*
G01X-7323296Y1923143D01*
G01X-7344043Y1924454D01*
G01X-7364667Y1921852D01*
G01X-7384439Y1915431D01*
G01X-7402656Y1905418D01*
G01X-7418674Y1892168D01*
G01X-7418674Y1892168D01*
G01X-7431925Y1876150D01*
G01X-7441938Y1857932D01*
G01X-7448359Y1838161D01*
G01X-7450960Y1817536D01*
G01X-7649774Y1817536D01*
G01X-7649769Y1824408D01*
G01X-7653651Y1844830D01*
G01X-7661292Y1864163D01*
G01X-7672421Y1881721D01*
G01X-7686644Y1896882D01*
G01X-7703456Y1909108D01*
G01X-7722263Y1917967D01*
G01X-7742396Y1923143D01*
G01X-7763143Y1924454D01*
G01X-7783767Y1921852D01*
G01X-7803539Y1915431D01*
G01X-7821756Y1905418D01*
G01X-7837774Y1892168D01*
G01X-7837774Y1892168D01*
G01X-7851025Y1876150D01*
G01X-7861038Y1857932D01*
G01X-7867459Y1838161D01*
G01X-7870060Y1817536D01*
G01X-7868749Y1796789D01*
G01X-7863573Y1776656D01*
G01X-7854715Y1757850D01*
G01X-7842489Y1741037D01*
G01X-7827328Y1726814D01*
G01X-7809770Y1715685D01*
G01X-7790437Y1708044D01*
G01X-7770015Y1704162D01*
G01X-7749227Y1704177D01*
G01X-7728810Y1708089D01*
G01X-7562814Y1542093D01*
G01X-7562814Y1513455D01*
G01X-7579022Y1501814D01*
G01X-7592746Y1487327D01*
G01X-7603494Y1470513D01*
G01X-7610880Y1451975D01*
G01X-7614641Y1432378D01*
G01X-7614641Y1412422D01*
G01X-7610880Y1392825D01*
G01X-7603494Y1374287D01*
G01X-7592746Y1357473D01*
G01X-7579022Y1342986D01*
G01X-7562814Y1331345D01*
G01X-7562814Y1120387D01*
G01X-7561005Y1106640D01*
G01X-7555699Y1093830D01*
G01X-7547258Y1082830D01*
G01X-7462917Y998490D01*
G01X-7875063Y586344D01*
G01X-7897028Y592986D01*
G01X-7919803Y595794D01*
G01X-7942724Y594686D01*
G01X-7965122Y589695D01*
G01X-7986345Y580966D01*
G01X-8005773Y568755D01*
G01X-8022840Y553415D01*
G01X-8037050Y535396D01*
G01X-8047986Y515223D01*
G01X-8055331Y493482D01*
G01X-8058871Y470810D01*
G01X-8494977Y470810D01*
G01X-8494977Y518471D01*
G01X-8496955Y530959D01*
G01X-8502695Y542226D01*
G01X-8511636Y551166D01*
G01X-8522902Y556907D01*
G01X-8535391Y558885D01*
G01X-8687791Y558885D01*
G01X-8700279Y556907D01*
G01X-8711545Y551166D01*
G01X-8720486Y542226D01*
G01X-8726227Y530959D01*
G01X-8728205Y518471D01*
G01X-8728205Y366071D01*
G01X-8728205Y366071D01*
G01X-9312631Y366071D01*
G01X-9312631Y1422400D01*
G01X-8115113Y1422400D01*
G01X-8113088Y1401835D01*
G01X-8107089Y1382060D01*
G01X-8097348Y1363835D01*
G01X-8084238Y1347861D01*
G01X-8068264Y1334752D01*
G01X-8050040Y1325010D01*
G01X-8030265Y1319012D01*
G01X-8009699Y1316986D01*
G01X-7989134Y1319012D01*
G01X-7969359Y1325010D01*
G01X-7951135Y1334752D01*
G01X-7935161Y1347861D01*
G01X-7922051Y1363835D01*
G01X-7912310Y1382060D01*
G01X-7906311Y1401835D01*
G01X-7904286Y1422400D01*
G01X-7906311Y1442965D01*
G01X-7912310Y1462740D01*
G01X-7922051Y1480965D01*
G01X-7935161Y1496939D01*
G01X-7951135Y1510048D01*
G01X-7969359Y1519790D01*
G01X-7989134Y1525788D01*
G01X-8009699Y1527814D01*
G01X-8030265Y1525788D01*
G01X-8050040Y1519790D01*
G01X-8068264Y1510048D01*
G01X-8084238Y1496939D01*
G01X-8097348Y1480965D01*
G01X-8107089Y1462740D01*
G01X-8113088Y1442965D01*
G01X-8115113Y1422400D01*
G01X-8115113Y1422400D01*
G01X-9312631Y1422400D01*
G01X-9312631Y2455755D01*
G01X-9288706Y2429350D01*
G01X-9262153Y2405591D01*
G01X-9233261Y2384738D01*
G01X-9202348Y2367019D01*
G01X-9169753Y2352628D01*
G01X-9135831Y2341723D01*
G01X-9100956Y2334423D01*
G01X-9065508Y2330809D01*
G01X-9029877Y2330920D01*
G01X-8994453Y2334754D01*
G01X-8959624Y2342271D01*
G01X-8925771Y2353386D01*
G01X-8893265Y2367980D01*
G01X-8862463Y2385891D01*
G01X-8833702Y2406924D01*
G01X-8807297Y2430848D01*
G01X-8807297Y2430848D01*
G01X-8783537Y2457400D01*
G01X-8762683Y2486291D01*
G01X-8744963Y2517204D01*
G01X-8730571Y2549799D01*
G01X-8719665Y2583720D01*
G01X-8712364Y2618595D01*
G01X-8708749Y2654043D01*
G01X-8708859Y2689674D01*
G01X-8712693Y2725098D01*
G01X-8720208Y2759928D01*
G01X-8731323Y2793781D01*
G01X-8745916Y2826287D01*
G01X-8763826Y2857089D01*
G01X-8784858Y2885851D01*
G01X-8808781Y2912257D01*
G01X-8835333Y2936017D01*
G01X-7802190Y2936017D01*
G01X-7802190Y2936017D01*
G01X-7820743Y2926112D01*
G01X-7837082Y2912867D01*
G01X-7850613Y2896765D01*
G01X-7860845Y2878389D01*
G01X-7867407Y2858407D01*
G01X-7870060Y2837542D01*
G01X-7868710Y2816553D01*
G01X-7863403Y2796201D01*
G01X-7854334Y2777225D01*
G01X-7841831Y2760312D01*
G01X-7841831Y2760312D01*
G01X-7826348Y2746077D01*
G01X-7808447Y2735036D01*
G01X-7788777Y2727590D01*
G01X-7768051Y2724009D01*
G01X-7747023Y2724423D01*
G01X-7726454Y2728817D01*
G01X-7707092Y2737031D01*
G01X-7689639Y2748768D01*
G01X-7674728Y2763601D01*
G01X-7662901Y2780993D01*
G01X-7437399Y2780993D01*
G01X-7437399Y2780993D01*
G01X-7426958Y2765306D01*
G01X-7414002Y2751624D01*
G01X-7398907Y2740344D01*
G01X-7382114Y2731794D01*
G01X-7364112Y2726225D01*
G01X-7345426Y2723798D01*
G01X-7326598Y2724584D01*
G01X-7308179Y2728560D01*
G01X-7290704Y2735610D01*
G01X-7274682Y2745529D01*
G01X-7260580Y2758028D01*
G01X-7248809Y2772742D01*
G01X-7239711Y2789244D01*
G01X-7233552Y2807053D01*
G01X-7230511Y2825650D01*
G01X-7230676Y2844493D01*
G01X-6992899Y2844493D01*
G01X-6992899Y2844493D01*
G01X-6981954Y2828179D01*
G01X-6968292Y2814063D01*
G01X-6952344Y2802592D01*
G01X-6934615Y2794128D01*
G01X-6915667Y2788940D01*
G01X-6896100Y2787193D01*
G01X-6876533Y2788940D01*
G01X-6857585Y2794128D01*
G01X-6839856Y2802592D01*
G01X-6823908Y2814063D01*
G01X-6810246Y2828179D01*
G01X-6799301Y2844493D01*
G01X-6599199Y2844493D01*
G01X-6599199Y2844493D01*
G01X-6588882Y2828963D01*
G01X-6576099Y2815390D01*
G01X-6561215Y2804161D01*
G01X-6544654Y2795598D01*
G01X-6526887Y2789942D01*
G01X-6508423Y2787357D01*
G01X-6489786Y2787916D01*
G01X-6471510Y2791602D01*
G01X-5375405Y1695497D01*
G01X-5375405Y1098104D01*
G01X-5402290Y1098104D01*
G01X-5414779Y1096126D01*
G01X-5426045Y1090386D01*
G01X-5434986Y1081445D01*
G01X-5440726Y1070179D01*
G01X-5442704Y1057690D01*
G01X-5442704Y932391D01*
G01X-6452048Y-76953D01*
G01X-6460489Y-87953D01*
G01X-6465795Y-100763D01*
G01X-6467605Y-114510D01*
G01X-6467605Y-554730D01*
G01X-6465795Y-568477D01*
G01X-6460489Y-581287D01*
G01X-6452048Y-592287D01*
G01X-6418895Y-625440D01*
G01X-6422694Y-644739D01*
G01X-6423009Y-664406D01*
G01X-6419828Y-683817D01*
G01X-6413254Y-702355D01*
G01X-6403495Y-719433D01*
G01X-6390860Y-734509D01*
G01X-7497366Y-734509D01*
G01X-7483247Y-722755D01*
G01X-7471382Y-708729D01*
G01X-7462133Y-692856D01*
G01X-7455780Y-675618D01*
G01X-7452516Y-657539D01*
G01X-7452441Y-639168D01*
G01X-7455556Y-621063D01*
G01X-7461767Y-603773D01*
G01X-7470886Y-587825D01*
G01X-7482635Y-573702D01*
G01X-7496658Y-561833D01*
G01X-7512528Y-552579D01*
G01X-7529764Y-546221D01*
G01X-7547842Y-542951D01*
G01X-7566213Y-542870D01*
G01X-7584319Y-545980D01*
G01X-8360140Y229841D01*
G01X-8371140Y238282D01*
G01X-8383950Y243588D01*
G01X-8397697Y245398D01*
G01X-8507775Y245398D01*
G01X-8507775Y245398D01*
G01X-8518813Y262933D01*
G01X-8532781Y278237D01*
G01X-8549236Y290827D01*
G01X-8567660Y300307D01*
G01X-8587471Y306376D01*
G01X-8608044Y308844D01*
G01X-8628728Y307632D01*
G01X-8648871Y302778D01*
G01X-8667838Y294436D01*
G01X-8685028Y282870D01*
G01X-8699900Y268443D01*
G01X-8711985Y251612D01*
G01X-8720900Y232908D01*
G01X-8726364Y212922D01*
G01X-8728205Y192284D01*
G01X-8728205Y192284D01*
G01X-8726364Y171646D01*
G01X-8720900Y151660D01*
G01X-8711985Y132956D01*
G01X-8699900Y116125D01*
G01X-8685028Y101699D01*
G01X-8667838Y90132D01*
G01X-8648871Y81790D01*
G01X-8628728Y76936D01*
G01X-8608044Y75724D01*
G01X-8587471Y78192D01*
G01X-8567660Y84261D01*
G01X-8549236Y93741D01*
G01X-8532781Y106332D01*
G01X-8518813Y121636D01*
G01X-8507775Y139170D01*
G01X-8419698Y139170D01*
G01X-7659433Y-621094D01*
G01X-7659433Y-621094D01*
G01X-7662543Y-639196D01*
G01X-7662463Y-657562D01*
G01X-7659196Y-675636D01*
G01X-7652842Y-692869D01*
G01X-7643594Y-708737D01*
G01X-7631731Y-722758D01*
G01X-7617615Y-734509D01*
G01X-8720026Y-734509D01*
G01X-8709184Y-715498D01*
G01X-8701674Y-694942D01*
G01X-8697706Y-673420D01*
G01X-8697394Y-651537D01*
G01X-8700745Y-629910D01*
G01X-8707665Y-609148D01*
G01X-8717960Y-589836D01*
G01X-8727571Y-577394D01*
G01X-8058735Y-577394D01*
G01X-8058735Y-599591D01*
G01X-8055082Y-621484D01*
G01X-8047874Y-642478D01*
G01X-8037310Y-661999D01*
G01X-8023677Y-679515D01*
G01X-8007346Y-694548D01*
G01X-7988764Y-706689D01*
G01X-7968438Y-715605D01*
G01X-7946921Y-721054D01*
G01X-7924800Y-722887D01*
G01X-7902679Y-721054D01*
G01X-7881162Y-715605D01*
G01X-7860836Y-706689D01*
G01X-7842254Y-694548D01*
G01X-7825923Y-679515D01*
G01X-7812290Y-661999D01*
G01X-7801726Y-642478D01*
G01X-7794518Y-621484D01*
G01X-7790865Y-599591D01*
G01X-7790865Y-577394D01*
G01X-7794518Y-555501D01*
G01X-7801726Y-534507D01*
G01X-7812290Y-514986D01*
G01X-7825923Y-497470D01*
G01X-7842254Y-482437D01*
G01X-7860836Y-470297D01*
G01X-7881162Y-461380D01*
G01X-7902679Y-455932D01*
G01X-7924800Y-454099D01*
G01X-7924800Y-454099D01*
G01X-7946921Y-455932D01*
G01X-7968438Y-461380D01*
G01X-7988764Y-470297D01*
G01X-8007346Y-482437D01*
G01X-8023677Y-497470D01*
G01X-8037310Y-514986D01*
G01X-8047874Y-534507D01*
G01X-8055082Y-555501D01*
G01X-8058735Y-577394D01*
G01X-8727571Y-577394D01*
G01X-8731339Y-572517D01*
G01X-8747426Y-557679D01*
G01X-8765767Y-545740D01*
G01X-8785847Y-537036D01*
G01X-8737491Y-537036D01*
G01X-8725002Y-535058D01*
G01X-8713736Y-529318D01*
G01X-8704795Y-520377D01*
G01X-8699055Y-509111D01*
G01X-8697077Y-496622D01*
G01X-8697077Y-316623D01*
G01X-8699055Y-304134D01*
G01X-8704795Y-292868D01*
G01X-8713736Y-283927D01*
G01X-8725002Y-278187D01*
G01X-8737491Y-276209D01*
G01X-8917490Y-276209D01*
G01X-8929979Y-278187D01*
G01X-8941245Y-283927D01*
G01X-8950186Y-292868D01*
G01X-8955926Y-304134D01*
G01X-8957904Y-316623D01*
G01X-8957904Y-496622D01*
G01X-8955926Y-509111D01*
G01X-8950186Y-520377D01*
G01X-8941245Y-529318D01*
G01X-8929979Y-535058D01*
G01X-8917490Y-537036D01*
G01X-8869134Y-537036D01*
G01X-8869134Y-537036D01*
G01X-8889414Y-545848D01*
G01X-8907915Y-557959D01*
G01X-8924103Y-573022D01*
G01X-8937513Y-590603D01*
G01X-8947761Y-610197D01*
G01X-8954551Y-631240D01*
G01X-8957689Y-653129D01*
G01X-8957083Y-675232D01*
G01X-8952753Y-696916D01*
G01X-8944821Y-717556D01*
G01X-8933516Y-736560D01*
G01X-8919163Y-753380D01*
G01X-8992048Y-826265D01*
G01X-8992777Y-827009D01*
G01X-8992777Y-778086D01*
G01X-8994587Y-764339D01*
G01X-8999893Y-751529D01*
G01X-9008333Y-740529D01*
G01X-9066477Y-682386D01*
G01X-9066477Y-530512D01*
G01X-9054946Y-517963D01*
G01X-9046319Y-503266D01*
G01X-9040983Y-487081D01*
G01X-9039177Y-470135D01*
G01X-9040983Y-453189D01*
G01X-9046319Y-437004D01*
G01X-9054946Y-422308D01*
G01X-9066477Y-409759D01*
G01X-9066477Y-202885D01*
G01X-9068286Y-189138D01*
G01X-9073593Y-176328D01*
G01X-9082033Y-165328D01*
G01X-9093034Y-156887D01*
G01X-9105844Y-151581D01*
G01X-9119591Y-149771D01*
G01X-9133337Y-151581D01*
G01X-9146148Y-156887D01*
G01X-9157148Y-165328D01*
G01X-9165589Y-176328D01*
G01X-9170895Y-189138D01*
G01X-9172705Y-202885D01*
G01X-9172705Y-409759D01*
G01X-9184235Y-422308D01*
G01X-9192862Y-437004D01*
G01X-9198199Y-453189D01*
G01X-9200004Y-470135D01*
G01X-9198199Y-487081D01*
G01X-9192862Y-503266D01*
G01X-9184235Y-517963D01*
G01X-9172705Y-530512D01*
G01X-9172705Y-704386D01*
G01X-9170895Y-718133D01*
G01X-9165589Y-730943D01*
G01X-9157148Y-741943D01*
G01X-9099005Y-800087D01*
G01X-9099005Y-4344175D01*
G01X-9097195Y-4357922D01*
G01X-9091889Y-4370732D01*
G01X-9083448Y-4381733D01*
G01X-8304296Y-5160884D01*
G01X-8293296Y-5169325D01*
G01X-8280486Y-5174631D01*
G01X-8266739Y-5176441D01*
G01X-8169068Y-5176441D01*
G01X-8155321Y-5174631D01*
G01X-8142511Y-5169325D01*
G01X-8131510Y-5160884D01*
G01X-8062446Y-5091820D01*
G01X-8062267Y-5091640D01*
G01X-8045890Y-5107509D01*
G01X-8026998Y-5120279D01*
G01X-8006168Y-5129560D01*
G01X-7984039Y-5135068D01*
G01X-7961290Y-5136633D01*
G01X-7938615Y-5134207D01*
G01X-7916711Y-5127866D01*
G01X-7896248Y-5117803D01*
G01X-7877853Y-5104326D01*
G01X-7862089Y-5087848D01*
G01X-7849440Y-5068875D01*
G01X-7840292Y-5047987D01*
G01X-7840292Y-5096418D01*
G01X-7838314Y-5108906D01*
G01X-7832573Y-5120172D01*
G01X-7823632Y-5129113D01*
G01X-7812366Y-5134853D01*
G01X-7799878Y-5136831D01*
G01X-7619878Y-5136831D01*
G01X-7607389Y-5134853D01*
G01X-7596123Y-5129113D01*
G01X-7587183Y-5120172D01*
G01X-7581442Y-5108906D01*
G01X-7579464Y-5096418D01*
G01X-7579464Y-4911118D01*
G01X-7187422Y-4519076D01*
G01X-7178981Y-4508076D01*
G01X-7178960Y-4508024D01*
G01X-7164006Y-4508024D01*
G01X-7162032Y-4533118D01*
G01X-7156155Y-4557595D01*
G01X-7146522Y-4580850D01*
G01X-7133370Y-4602313D01*
G01X-7117022Y-4621454D01*
G01X-7097882Y-4637801D01*
G01X-7076419Y-4650954D01*
G01X-7053163Y-4660586D01*
G01X-7028687Y-4666463D01*
G01X-7003593Y-4668438D01*
G01X-6978499Y-4666463D01*
G01X-6954022Y-4660586D01*
G01X-6930767Y-4650954D01*
G01X-6909304Y-4637801D01*
G01X-6890163Y-4621454D01*
G01X-6873815Y-4602313D01*
G01X-6860663Y-4580850D01*
G01X-6851030Y-4557595D01*
G01X-6845154Y-4533118D01*
G01X-6843179Y-4508024D01*
G01X-6824002Y-4508024D01*
G01X-6822027Y-4533118D01*
G01X-6816151Y-4557595D01*
G01X-6806518Y-4580850D01*
G01X-6793366Y-4602313D01*
G01X-6777018Y-4621454D01*
G01X-6757877Y-4637801D01*
G01X-6736415Y-4650954D01*
G01X-6713159Y-4660586D01*
G01X-6688683Y-4666463D01*
G01X-6663588Y-4668438D01*
G01X-6638494Y-4666463D01*
G01X-6614018Y-4660586D01*
G01X-6590762Y-4650954D01*
G01X-6569300Y-4637801D01*
G01X-6550159Y-4621454D01*
G01X-6533811Y-4602313D01*
G01X-6520659Y-4580850D01*
G01X-6511026Y-4557595D01*
G01X-6505150Y-4533118D01*
G01X-6503175Y-4508024D01*
G01X-6505150Y-4482930D01*
G01X-6511026Y-4458453D01*
G01X-6520659Y-4435198D01*
G01X-6533811Y-4413735D01*
G01X-6550159Y-4394594D01*
G01X-6569300Y-4378247D01*
G01X-6590762Y-4365094D01*
G01X-6614018Y-4355462D01*
G01X-6638494Y-4349585D01*
G01X-6663588Y-4347610D01*
G01X-6663588Y-4347610D01*
G01X-6688683Y-4349585D01*
G01X-6713159Y-4355462D01*
G01X-6736415Y-4365094D01*
G01X-6757877Y-4378247D01*
G01X-6777018Y-4394594D01*
G01X-6793366Y-4413735D01*
G01X-6806518Y-4435198D01*
G01X-6816151Y-4458453D01*
G01X-6822027Y-4482930D01*
G01X-6824002Y-4508024D01*
G01X-6843179Y-4508024D01*
G01X-6845154Y-4482930D01*
G01X-6851030Y-4458453D01*
G01X-6860663Y-4435198D01*
G01X-6873815Y-4413735D01*
G01X-6890163Y-4394594D01*
G01X-6909304Y-4378247D01*
G01X-6930767Y-4365094D01*
G01X-6954022Y-4355462D01*
G01X-6978499Y-4349585D01*
G01X-7003593Y-4347610D01*
G01X-7003593Y-4347610D01*
G01X-7028687Y-4349585D01*
G01X-7053163Y-4355462D01*
G01X-7076419Y-4365094D01*
G01X-7097882Y-4378247D01*
G01X-7117022Y-4394594D01*
G01X-7133370Y-4413735D01*
G01X-7146522Y-4435198D01*
G01X-7156155Y-4458453D01*
G01X-7162032Y-4482930D01*
G01X-7164006Y-4508024D01*
G01X-7178960Y-4508024D01*
G01X-7173675Y-4495266D01*
G01X-7171865Y-4481519D01*
G01X-7171865Y-3721323D01*
G01X-6782806Y-3721323D01*
G01X-6780820Y-3742750D01*
G01X-6774931Y-3763448D01*
G01X-6765339Y-3782712D01*
G01X-6752371Y-3799885D01*
G01X-6736467Y-3814382D01*
G01X-6718171Y-3825711D01*
G01X-6698105Y-3833485D01*
G01X-6676952Y-3837439D01*
G01X-6655432Y-3837439D01*
G01X-6634279Y-3833485D01*
G01X-6614213Y-3825711D01*
G01X-6595916Y-3814382D01*
G01X-6580013Y-3799885D01*
G01X-6567045Y-3782712D01*
G01X-6557453Y-3763448D01*
G01X-6551564Y-3742750D01*
G01X-6549578Y-3721323D01*
G01X-6549578Y-3721323D01*
G01X-6551564Y-3699895D01*
G01X-6557453Y-3679197D01*
G01X-6567045Y-3659933D01*
G01X-6580013Y-3642760D01*
G01X-6595916Y-3628263D01*
G01X-6614213Y-3616934D01*
G01X-6634279Y-3609160D01*
G01X-6655432Y-3605206D01*
G01X-6676952Y-3605206D01*
G01X-6698105Y-3609160D01*
G01X-6718171Y-3616934D01*
G01X-6736467Y-3628263D01*
G01X-6752371Y-3642760D01*
G01X-6765339Y-3659933D01*
G01X-6774931Y-3679197D01*
G01X-6780820Y-3699895D01*
G01X-6782806Y-3721323D01*
G01X-7171865Y-3721323D01*
G01X-7171865Y-3243530D01*
G01X-7171865Y-3243530D01*
G01X-7154473Y-3234134D01*
G01X-7138701Y-3222217D01*
G01X-7124911Y-3208053D01*
G01X-7113420Y-3191967D01*
G01X-7104493Y-3174330D01*
G01X-7104493Y-3174330D01*
G01X-7098334Y-3155545D01*
G01X-7095084Y-3136046D01*
G01X-7094820Y-3116280D01*
G01X-7097546Y-3096700D01*
G01X-7103200Y-3077758D01*
G01X-6635429Y-2609987D01*
G01X-6626988Y-2598987D01*
G01X-6621682Y-2586177D01*
G01X-6619872Y-2572430D01*
G01X-6619872Y-2258385D01*
G01X-6599433Y-2247518D01*
G01X-6581142Y-2233329D01*
G01X-6565536Y-2216232D01*
G01X-6553070Y-2196726D01*
G01X-6544108Y-2175382D01*
G01X-6538912Y-2152824D01*
G01X-6537635Y-2129710D01*
G01X-6540313Y-2106717D01*
G01X-6546869Y-2084516D01*
G01X-6557109Y-2063755D01*
G01X-6570737Y-2045042D01*
G01X-6587352Y-2028924D01*
G01X-6606470Y-2015871D01*
G01X-6627532Y-2006266D01*
G01X-6649922Y-2000387D01*
G01X-6672986Y-1998409D01*
G01X-6672986Y-1998409D01*
G01X-6696051Y-2000387D01*
G01X-6718441Y-2006266D01*
G01X-6739503Y-2015871D01*
G01X-6758621Y-2028924D01*
G01X-6775236Y-2045042D01*
G01X-6788863Y-2063755D01*
G01X-6799104Y-2084516D01*
G01X-6805660Y-2106717D01*
G01X-6808338Y-2129710D01*
G01X-6807060Y-2152824D01*
G01X-6801865Y-2175382D01*
G01X-6792903Y-2196726D01*
G01X-6780437Y-2216232D01*
G01X-6764831Y-2233329D01*
G01X-6746540Y-2247518D01*
G01X-6726100Y-2258385D01*
G01X-6726100Y-2550429D01*
G01X-7178315Y-3002643D01*
G01X-7178315Y-3002643D01*
G01X-7199790Y-2996465D01*
G01X-7222004Y-2994043D01*
G01X-7244306Y-2995449D01*
G01X-7266041Y-3000642D01*
G01X-7286569Y-3009469D01*
G01X-7305290Y-3021671D01*
G01X-7321653Y-3036890D01*
G01X-7335177Y-3054679D01*
G01X-7345466Y-3074515D01*
G01X-7345466Y-3074515D01*
G01X-7352217Y-3095817D01*
G01X-7355233Y-3117959D01*
G01X-7354424Y-3140291D01*
G01X-7349815Y-3162156D01*
G01X-7341540Y-3182914D01*
G01X-7329844Y-3201955D01*
G01X-7315068Y-3218719D01*
G01X-7297647Y-3232714D01*
G01X-7278093Y-3243530D01*
G01X-7278093Y-4459519D01*
G01X-7614888Y-4796313D01*
G01X-7619878Y-4796004D01*
G01X-7799878Y-4796004D01*
G01X-7812366Y-4797982D01*
G01X-7823632Y-4803722D01*
G01X-7832573Y-4812663D01*
G01X-7838314Y-4823929D01*
G01X-7840292Y-4836418D01*
G01X-7840292Y-4884774D01*
G01X-7840292Y-4884774D01*
G01X-7849491Y-4863781D01*
G01X-7862224Y-4844722D01*
G01X-7878096Y-4828187D01*
G01X-7896618Y-4814686D01*
G01X-7917218Y-4804637D01*
G01X-7939259Y-4798349D01*
G01X-7962061Y-4796017D01*
G01X-7984919Y-4797713D01*
G01X-8007126Y-4803384D01*
G01X-8027998Y-4812856D01*
G01X-8046889Y-4825835D01*
G01X-8046889Y-4501326D01*
G01X-8036182Y-4506381D01*
G01X-8024470Y-4508115D01*
G01X-7903312Y-4508115D01*
G01X-7890823Y-4506137D01*
G01X-7879557Y-4500397D01*
G01X-7870616Y-4491456D01*
G01X-7864876Y-4480190D01*
G01X-7862898Y-4467702D01*
G01X-7862898Y-4346544D01*
G01X-7864876Y-4334055D01*
G01X-7870616Y-4322789D01*
G01X-7879557Y-4313848D01*
G01X-7890823Y-4308108D01*
G01X-7903312Y-4306130D01*
G01X-8024470Y-4306130D01*
G01X-8036182Y-4307864D01*
G01X-8046889Y-4312919D01*
G01X-8046889Y-4247326D01*
G01X-8036182Y-4252381D01*
G01X-8024470Y-4254115D01*
G01X-7903312Y-4254115D01*
G01X-7890823Y-4252137D01*
G01X-7879557Y-4246397D01*
G01X-7870616Y-4237456D01*
G01X-7864876Y-4226190D01*
G01X-7862898Y-4213702D01*
G01X-7862898Y-4092544D01*
G01X-7864876Y-4080055D01*
G01X-7870616Y-4068789D01*
G01X-7879557Y-4059848D01*
G01X-7890823Y-4054108D01*
G01X-7903312Y-4052130D01*
G01X-7910777Y-4052130D01*
G01X-7910777Y-3823930D01*
G01X-7910777Y-3823930D01*
G01X-7894167Y-3813037D01*
G01X-7879647Y-3799484D01*
G01X-7867637Y-3783663D01*
G01X-7858487Y-3766033D01*
G01X-7852462Y-3747106D01*
G01X-7849735Y-3727432D01*
G01X-7850388Y-3707580D01*
G01X-7854400Y-3688126D01*
G01X-7861655Y-3669636D01*
G01X-7871944Y-3652645D01*
G01X-7871944Y-3652645D01*
G01X-7884966Y-3637647D01*
G01X-7900345Y-3625076D01*
G01X-7917634Y-3615298D01*
G01X-7936332Y-3608596D01*
G01X-7955896Y-3605164D01*
G01X-7975758Y-3605102D01*
G01X-7995344Y-3608412D01*
G01X-8014083Y-3614997D01*
G01X-8031433Y-3624668D01*
G01X-8046889Y-3637142D01*
G01X-8046889Y-3549421D01*
G01X-8048699Y-3535674D01*
G01X-8054005Y-3522864D01*
G01X-8062446Y-3511864D01*
G01X-8403223Y-3171087D01*
G01X-8403223Y-3171087D01*
G01X-8397080Y-3149795D01*
G01X-8394631Y-3127769D01*
G01X-8395947Y-3105648D01*
G01X-8400989Y-3084068D01*
G01X-8409612Y-3063653D01*
G01X-8421567Y-3044994D01*
G01X-8436509Y-3028628D01*
G01X-8454006Y-3015027D01*
G01X-8473553Y-3004586D01*
G01X-8494585Y-2997605D01*
G01X-8516496Y-2994286D01*
G01X-8538653Y-2994725D01*
G01X-8560415Y-2998909D01*
G01X-8581155Y-3006717D01*
G01X-8600274Y-3017924D01*
G01X-8617218Y-3032206D01*
G01X-8617218Y-3032206D01*
G01X-8631501Y-3049151D01*
G01X-8642707Y-3068269D01*
G01X-8650516Y-3089009D01*
G01X-8654699Y-3110772D01*
G01X-8655138Y-3132928D01*
G01X-8651819Y-3154839D01*
G01X-8644838Y-3175872D01*
G01X-8634397Y-3195419D01*
G01X-8620797Y-3212916D01*
G01X-8604431Y-3227858D01*
G01X-8585771Y-3239813D01*
G01X-8565357Y-3248436D01*
G01X-8543777Y-3253478D01*
G01X-8521655Y-3254793D01*
G01X-8499630Y-3252344D01*
G01X-8478337Y-3246202D01*
G01X-8153117Y-3571422D01*
G01X-8153117Y-4812244D01*
G01X-8153117Y-4812244D01*
G01X-8173718Y-4802727D01*
G01X-8195656Y-4796925D01*
G01X-8218267Y-4795014D01*
G01X-8240868Y-4797051D01*
G01X-8262773Y-4802976D01*
G01X-8283320Y-4812607D01*
G01X-8301887Y-4825655D01*
G01X-8317910Y-4841723D01*
G01X-8330906Y-4860326D01*
G01X-8340480Y-4880899D01*
G01X-8346343Y-4902821D01*
G01X-8348317Y-4925427D01*
G01X-8348317Y-4966635D01*
G01X-8992777Y-4322175D01*
G01X-8992777Y-2133823D01*
G01X-8958409Y-2133823D01*
G01X-8956562Y-2156111D01*
G01X-8951071Y-2177791D01*
G01X-8942088Y-2198272D01*
G01X-8929855Y-2216995D01*
G01X-8914708Y-2233450D01*
G01X-8897059Y-2247186D01*
G01X-8877390Y-2257831D01*
G01X-8856237Y-2265093D01*
G01X-8834177Y-2268774D01*
G01X-8811812Y-2268774D01*
G01X-8789753Y-2265093D01*
G01X-8768600Y-2257831D01*
G01X-8748930Y-2247186D01*
G01X-8731282Y-2233450D01*
G01X-8716134Y-2216995D01*
G01X-8703902Y-2198272D01*
G01X-8694918Y-2177791D01*
G01X-8689428Y-2156111D01*
G01X-8687581Y-2133823D01*
G01X-8689428Y-2111534D01*
G01X-8694918Y-2089854D01*
G01X-8703902Y-2069373D01*
G01X-8716134Y-2050650D01*
G01X-8731282Y-2034195D01*
G01X-8748930Y-2020459D01*
G01X-8768600Y-2009814D01*
G01X-8789753Y-2002552D01*
G01X-8811812Y-1998871D01*
G01X-8834177Y-1998871D01*
G01X-8856237Y-2002552D01*
G01X-8877390Y-2009814D01*
G01X-8897059Y-2020459D01*
G01X-8914708Y-2034195D01*
G01X-8929855Y-2050650D01*
G01X-8942088Y-2069373D01*
G01X-8951071Y-2089854D01*
G01X-8956562Y-2111534D01*
G01X-8958409Y-2133823D01*
G01X-8958409Y-2133823D01*
G01X-8992777Y-2133823D01*
G01X-8992777Y-1696127D01*
G01X-6422833Y-1696127D01*
G01X-6422833Y-1716503D01*
G01X-6419089Y-1736531D01*
G01X-6411729Y-1755531D01*
G01X-6401003Y-1772854D01*
G01X-6387276Y-1787912D01*
G01X-6371016Y-1800191D01*
G01X-6352777Y-1809273D01*
G01X-6333179Y-1814849D01*
G01X-6312891Y-1816729D01*
G01X-6312891Y-1816729D01*
G01X-6292602Y-1814849D01*
G01X-6273005Y-1809273D01*
G01X-6254765Y-1800191D01*
G01X-6238505Y-1787912D01*
G01X-6224778Y-1772854D01*
G01X-6214052Y-1755531D01*
G01X-6206692Y-1736531D01*
G01X-6202948Y-1716503D01*
G01X-6202948Y-1696127D01*
G01X-6206692Y-1676099D01*
G01X-6214052Y-1657099D01*
G01X-6224778Y-1639776D01*
G01X-6238505Y-1624718D01*
G01X-6254765Y-1612439D01*
G01X-6273005Y-1603357D01*
G01X-6292602Y-1597781D01*
G01X-6312891Y-1595901D01*
G01X-6333179Y-1597781D01*
G01X-6352777Y-1603357D01*
G01X-6371016Y-1612439D01*
G01X-6387276Y-1624718D01*
G01X-6401003Y-1639776D01*
G01X-6411729Y-1657099D01*
G01X-6419089Y-1676099D01*
G01X-6422833Y-1696127D01*
G01X-8992777Y-1696127D01*
G01X-8992777Y-1078436D01*
G01X-8992048Y-1079180D01*
G01X-8949270Y-1121958D01*
G01X-8955489Y-1143640D01*
G01X-8957879Y-1166070D01*
G01X-8956369Y-1188576D01*
G01X-8951003Y-1210485D01*
G01X-8941942Y-1231142D01*
G01X-8929457Y-1249928D01*
G01X-8913921Y-1266282D01*
G01X-8895800Y-1279715D01*
G01X-8875636Y-1289824D01*
G01X-8854031Y-1296307D01*
G01X-8831632Y-1298970D01*
G01X-8809109Y-1297734D01*
G01X-8787136Y-1292636D01*
G01X-8766370Y-1283827D01*
G01X-8747433Y-1271572D01*
G01X-8730891Y-1256237D01*
G01X-8717239Y-1238281D01*
G01X-8706885Y-1218241D01*
G01X-8700139Y-1196717D01*
G01X-8697203Y-1174352D01*
G01X-8697989Y-1155923D01*
G01X-7662904Y-1155923D01*
G01X-7660879Y-1176488D01*
G01X-7654880Y-1196263D01*
G01X-7645139Y-1214487D01*
G01X-7632029Y-1230461D01*
G01X-7616055Y-1243571D01*
G01X-7597831Y-1253312D01*
G01X-7578056Y-1259311D01*
G01X-7557491Y-1261336D01*
G01X-7557491Y-1261336D01*
G01X-7536925Y-1259311D01*
G01X-7517150Y-1253312D01*
G01X-7498926Y-1243571D01*
G01X-7482952Y-1230461D01*
G01X-7469842Y-1214487D01*
G01X-7460101Y-1196263D01*
G01X-7454102Y-1176488D01*
G01X-7453886Y-1174294D01*
G01X-6928435Y-1174294D01*
G01X-6928435Y-1196491D01*
G01X-6924782Y-1218384D01*
G01X-6917574Y-1239378D01*
G01X-6907010Y-1258899D01*
G01X-6893377Y-1276415D01*
G01X-6877046Y-1291448D01*
G01X-6858464Y-1303589D01*
G01X-6838138Y-1312505D01*
G01X-6816621Y-1317954D01*
G01X-6794500Y-1319787D01*
G01X-6772379Y-1317954D01*
G01X-6750862Y-1312505D01*
G01X-6730536Y-1303589D01*
G01X-6711954Y-1291448D01*
G01X-6695623Y-1276415D01*
G01X-6681990Y-1258899D01*
G01X-6671426Y-1239378D01*
G01X-6664218Y-1218384D01*
G01X-6660565Y-1196491D01*
G01X-6660565Y-1174294D01*
G01X-6664218Y-1152401D01*
G01X-6671426Y-1131407D01*
G01X-6681990Y-1111886D01*
G01X-6695623Y-1094370D01*
G01X-6711954Y-1079337D01*
G01X-6730536Y-1067197D01*
G01X-6750862Y-1058280D01*
G01X-6772379Y-1052832D01*
G01X-6794500Y-1050999D01*
G01X-6794500Y-1050999D01*
G01X-6816621Y-1052832D01*
G01X-6838138Y-1058280D01*
G01X-6858464Y-1067197D01*
G01X-6877046Y-1079337D01*
G01X-6893377Y-1094370D01*
G01X-6907010Y-1111886D01*
G01X-6917574Y-1131407D01*
G01X-6924782Y-1152401D01*
G01X-6928435Y-1174294D01*
G01X-7453886Y-1174294D01*
G01X-7452077Y-1155923D01*
G01X-7454102Y-1135357D01*
G01X-7460101Y-1115582D01*
G01X-7469842Y-1097358D01*
G01X-7482952Y-1081384D01*
G01X-7498926Y-1068274D01*
G01X-7517150Y-1058533D01*
G01X-7536925Y-1052534D01*
G01X-7557491Y-1050509D01*
G01X-7578056Y-1052534D01*
G01X-7597831Y-1058533D01*
G01X-7616055Y-1068274D01*
G01X-7632029Y-1081384D01*
G01X-7645139Y-1097358D01*
G01X-7654880Y-1115582D01*
G01X-7660879Y-1135357D01*
G01X-7662904Y-1155923D01*
G01X-8697989Y-1155923D01*
G01X-8698164Y-1151815D01*
G01X-8702995Y-1129782D01*
G01X-8711550Y-1108911D01*
G01X-8723573Y-1089826D01*
G01X-8738706Y-1073098D01*
G01X-8756494Y-1059228D01*
G01X-8776406Y-1048630D01*
G01X-8797847Y-1041623D01*
G01X-8778757Y-1035588D01*
G01X-8760815Y-1026704D01*
G01X-8744445Y-1015177D01*
G01X-8730032Y-1001281D01*
G01X-8717916Y-985342D01*
G01X-8708383Y-967736D01*
G01X-6109691Y-967736D01*
G01X-6095944Y-965927D01*
G01X-6083134Y-960621D01*
G01X-6072133Y-952180D01*
G01X-5439573Y-319619D01*
G01X-5433402Y-338744D01*
G01X-5424137Y-356576D01*
G01X-5412035Y-372619D01*
G01X-5397434Y-386425D01*
G01X-5380740Y-397612D01*
G01X-5362418Y-405866D01*
G01X-5342978Y-410959D01*
G01X-5322963Y-412747D01*
G01X-5302928Y-411182D01*
G01X-5283433Y-406307D01*
G01X-5248405Y-441336D01*
G01X-5248405Y-451255D01*
G01X-5265731Y-440032D01*
G01X-5284719Y-431933D01*
G01X-5304812Y-427197D01*
G01X-5325418Y-425962D01*
G01X-5345932Y-428265D01*
G01X-5365752Y-434038D01*
G01X-5384294Y-443112D01*
G01X-5401014Y-455219D01*
G01X-5415420Y-470005D01*
G01X-5427089Y-487033D01*
G01X-5435678Y-505805D01*
G01X-5440935Y-525768D01*
G01X-5442704Y-546335D01*
G01X-5440935Y-566903D01*
G01X-5435678Y-586865D01*
G01X-5427089Y-605637D01*
G01X-5415420Y-622666D01*
G01X-5401014Y-637451D01*
G01X-5384294Y-649558D01*
G01X-5365752Y-658632D01*
G01X-5345932Y-664405D01*
G01X-5325418Y-666708D01*
G01X-5304812Y-665474D01*
G01X-5284719Y-660737D01*
G01X-5265731Y-652639D01*
G01X-5248405Y-641416D01*
G01X-5248405Y-705255D01*
G01X-5265731Y-694032D01*
G01X-5284719Y-685933D01*
G01X-5304812Y-681197D01*
G01X-5325418Y-679962D01*
G01X-5345932Y-682265D01*
G01X-5365752Y-688038D01*
G01X-5384294Y-697112D01*
G01X-5401014Y-709219D01*
G01X-5415420Y-724005D01*
G01X-5427089Y-741033D01*
G01X-5435678Y-759805D01*
G01X-5440935Y-779768D01*
G01X-5442704Y-800335D01*
G01X-5440935Y-820903D01*
G01X-5435678Y-840865D01*
G01X-5427089Y-859637D01*
G01X-5415420Y-876666D01*
G01X-5401014Y-891451D01*
G01X-5384294Y-903558D01*
G01X-5365752Y-912632D01*
G01X-5345932Y-918405D01*
G01X-5325418Y-920708D01*
G01X-5304812Y-919474D01*
G01X-5284719Y-914737D01*
G01X-5265731Y-906639D01*
G01X-5248405Y-895416D01*
G01X-5248405Y-959255D01*
G01X-5265731Y-948032D01*
G01X-5284719Y-939933D01*
G01X-5304812Y-935197D01*
G01X-5325418Y-933962D01*
G01X-5345932Y-936265D01*
G01X-5365752Y-942038D01*
G01X-5384294Y-951112D01*
G01X-5401014Y-963219D01*
G01X-5415420Y-978005D01*
G01X-5427089Y-995033D01*
G01X-5435678Y-1013805D01*
G01X-5440935Y-1033768D01*
G01X-5442704Y-1054335D01*
G01X-5440935Y-1074903D01*
G01X-5435678Y-1094865D01*
G01X-5427089Y-1113637D01*
G01X-5415420Y-1130666D01*
G01X-5401014Y-1145451D01*
G01X-5384294Y-1157558D01*
G01X-5365752Y-1166632D01*
G01X-5345932Y-1172405D01*
G01X-5325418Y-1174708D01*
G01X-5304812Y-1173474D01*
G01X-5284719Y-1168737D01*
G01X-5265731Y-1160639D01*
G01X-5248405Y-1149416D01*
G01X-5248405Y-1213255D01*
G01X-5265731Y-1202032D01*
G01X-5284719Y-1193933D01*
G01X-5304812Y-1189197D01*
G01X-5325418Y-1187962D01*
G01X-5345932Y-1190265D01*
G01X-5365752Y-1196038D01*
G01X-5384294Y-1205112D01*
G01X-5401014Y-1217219D01*
G01X-5415420Y-1232005D01*
G01X-5427089Y-1249033D01*
G01X-5435678Y-1267805D01*
G01X-5440935Y-1287768D01*
G01X-5442704Y-1308335D01*
G01X-5440935Y-1328903D01*
G01X-5435678Y-1348865D01*
G01X-5427089Y-1367637D01*
G01X-5415420Y-1384666D01*
G01X-5401014Y-1399451D01*
G01X-5384294Y-1411558D01*
G01X-5365752Y-1420632D01*
G01X-5345932Y-1426405D01*
G01X-5325418Y-1428708D01*
G01X-5304812Y-1427474D01*
G01X-5284719Y-1422737D01*
G01X-5265731Y-1414639D01*
G01X-5248405Y-1403416D01*
G01X-5248405Y-1467255D01*
G01X-5265731Y-1456032D01*
G01X-5284719Y-1447933D01*
G01X-5304812Y-1443197D01*
G01X-5325418Y-1441962D01*
G01X-5345932Y-1444265D01*
G01X-5365752Y-1450038D01*
G01X-5384294Y-1459112D01*
G01X-5401014Y-1471219D01*
G01X-5415420Y-1486005D01*
G01X-5427089Y-1503033D01*
G01X-5435678Y-1521805D01*
G01X-5440935Y-1541768D01*
G01X-5442704Y-1562335D01*
G01X-5440935Y-1582903D01*
G01X-5435678Y-1602865D01*
G01X-5427089Y-1621637D01*
G01X-5415420Y-1638666D01*
G01X-5401014Y-1653451D01*
G01X-5384294Y-1665558D01*
G01X-5365752Y-1674632D01*
G01X-5345932Y-1680405D01*
G01X-5325418Y-1682708D01*
G01X-5304812Y-1681474D01*
G01X-5284719Y-1676737D01*
G01X-5265731Y-1668639D01*
G01X-5248405Y-1657416D01*
G01X-5248405Y-1721255D01*
G01X-5265731Y-1710032D01*
G01X-5284719Y-1701933D01*
G01X-5304812Y-1697197D01*
G01X-5325418Y-1695962D01*
G01X-5345932Y-1698265D01*
G01X-5365752Y-1704038D01*
G01X-5384294Y-1713112D01*
G01X-5401014Y-1725219D01*
G01X-5415420Y-1740005D01*
G01X-5427089Y-1757033D01*
G01X-5435678Y-1775805D01*
G01X-5440935Y-1795768D01*
G01X-5442704Y-1816335D01*
G01X-5440935Y-1836903D01*
G01X-5435678Y-1856865D01*
G01X-5427089Y-1875637D01*
G01X-5415420Y-1892666D01*
G01X-5401014Y-1907451D01*
G01X-5384294Y-1919558D01*
G01X-5365752Y-1928632D01*
G01X-5345932Y-1934405D01*
G01X-5325418Y-1936708D01*
G01X-5304812Y-1935474D01*
G01X-5284719Y-1930737D01*
G01X-5265731Y-1922639D01*
G01X-5248405Y-1911416D01*
G01X-5248405Y-1975255D01*
G01X-5265731Y-1964032D01*
G01X-5284719Y-1955933D01*
G01X-5304812Y-1951197D01*
G01X-5325418Y-1949962D01*
G01X-5345932Y-1952265D01*
G01X-5365752Y-1958038D01*
G01X-5384294Y-1967112D01*
G01X-5401014Y-1979219D01*
G01X-5415420Y-1994005D01*
G01X-5427089Y-2011033D01*
G01X-5435678Y-2029805D01*
G01X-5440935Y-2049768D01*
G01X-5442704Y-2070335D01*
G01X-5440935Y-2090903D01*
G01X-5435678Y-2110865D01*
G01X-5427089Y-2129637D01*
G01X-5415420Y-2146666D01*
G01X-5401014Y-2161451D01*
G01X-5384294Y-2173558D01*
G01X-5365752Y-2182632D01*
G01X-5345932Y-2188405D01*
G01X-5325418Y-2190708D01*
G01X-5304812Y-2189474D01*
G01X-5284719Y-2184737D01*
G01X-5265731Y-2176639D01*
G01X-5248405Y-2165416D01*
G01X-5248405Y-2229255D01*
G01X-5265731Y-2218032D01*
G01X-5284719Y-2209933D01*
G01X-5304812Y-2205197D01*
G01X-5325418Y-2203962D01*
G01X-5345932Y-2206265D01*
G01X-5365752Y-2212038D01*
G01X-5384294Y-2221112D01*
G01X-5401014Y-2233219D01*
G01X-5415420Y-2248005D01*
G01X-5427089Y-2265033D01*
G01X-5435678Y-2283805D01*
G01X-5440935Y-2303768D01*
G01X-5442704Y-2324335D01*
G01X-5440935Y-2344903D01*
G01X-5435678Y-2364865D01*
G01X-5427089Y-2383637D01*
G01X-5415420Y-2400666D01*
G01X-5401014Y-2415451D01*
G01X-5384294Y-2427558D01*
G01X-5365752Y-2436632D01*
G01X-5345932Y-2442405D01*
G01X-5325418Y-2444708D01*
G01X-5304812Y-2443474D01*
G01X-5284719Y-2438737D01*
G01X-5265731Y-2430639D01*
G01X-5248405Y-2419416D01*
G01X-5248405Y-2483255D01*
G01X-5265731Y-2472032D01*
G01X-5284719Y-2463933D01*
G01X-5304812Y-2459197D01*
G01X-5325418Y-2457962D01*
G01X-5345932Y-2460265D01*
G01X-5365752Y-2466038D01*
G01X-5384294Y-2475112D01*
G01X-5401014Y-2487219D01*
G01X-5415420Y-2502005D01*
G01X-5427089Y-2519033D01*
G01X-5435678Y-2537805D01*
G01X-5440935Y-2557768D01*
G01X-5442704Y-2578335D01*
G01X-5440935Y-2598903D01*
G01X-5435678Y-2618865D01*
G01X-5427089Y-2637637D01*
G01X-5415420Y-2654666D01*
G01X-5401014Y-2669451D01*
G01X-5384294Y-2681558D01*
G01X-5365752Y-2690632D01*
G01X-5345932Y-2696405D01*
G01X-5325418Y-2698708D01*
G01X-5304812Y-2697474D01*
G01X-5284719Y-2692737D01*
G01X-5265731Y-2684639D01*
G01X-5248405Y-2673416D01*
G01X-5248405Y-2737255D01*
G01X-5265731Y-2726032D01*
G01X-5284719Y-2717933D01*
G01X-5304812Y-2713197D01*
G01X-5325418Y-2711962D01*
G01X-5345932Y-2714265D01*
G01X-5365752Y-2720038D01*
G01X-5384294Y-2729112D01*
G01X-5401014Y-2741219D01*
G01X-5415420Y-2756005D01*
G01X-5427089Y-2773033D01*
G01X-5435678Y-2791805D01*
G01X-5440935Y-2811768D01*
G01X-5442704Y-2832335D01*
G01X-5440935Y-2852903D01*
G01X-5435678Y-2872865D01*
G01X-5427089Y-2891637D01*
G01X-5415420Y-2908666D01*
G01X-5401014Y-2923451D01*
G01X-5384294Y-2935558D01*
G01X-5365752Y-2944632D01*
G01X-5345932Y-2950405D01*
G01X-5325418Y-2952708D01*
G01X-5304812Y-2951474D01*
G01X-5284719Y-2946737D01*
G01X-5265731Y-2938639D01*
G01X-5248405Y-2927416D01*
G01X-5248405Y-3750135D01*
G01X-5334448Y-3836178D01*
G01X-5342889Y-3847178D01*
G01X-5348195Y-3859988D01*
G01X-5350005Y-3873735D01*
G01X-5350005Y-4638034D01*
G01X-5348195Y-4651781D01*
G01X-5342889Y-4664591D01*
G01X-5334448Y-4675591D01*
G01X-4402670Y-5607369D01*
G01X-4408812Y-5628662D01*
G01X-4411261Y-5650687D01*
G01X-4409946Y-5672809D01*
G01X-4404904Y-5694389D01*
G01X-4396281Y-5714803D01*
G01X-4384326Y-5733463D01*
G01X-4369384Y-5749829D01*
G01X-4351887Y-5763429D01*
G01X-4332340Y-5773870D01*
G01X-4311307Y-5780851D01*
G01X-4289396Y-5784170D01*
G01X-4267240Y-5783731D01*
G01X-4245477Y-5779547D01*
G01X-4224737Y-5771739D01*
G01X-4205619Y-5760532D01*
G01X-4188674Y-5746250D01*
G01X-4174392Y-5729305D01*
G01X-4163185Y-5710187D01*
G01X-4155377Y-5689447D01*
G01X-4151193Y-5667685D01*
G01X-4150755Y-5645528D01*
G01X-4154073Y-5623617D01*
G01X-4161054Y-5602585D01*
G01X-4171496Y-5583038D01*
G01X-4185096Y-5565541D01*
G01X-4201462Y-5550599D01*
G01X-4220122Y-5538644D01*
G01X-4240536Y-5530021D01*
G01X-4262116Y-5524979D01*
G01X-4284238Y-5523663D01*
G01X-4306263Y-5526112D01*
G01X-4327555Y-5532255D01*
G01X-5166881Y-4692929D01*
G01X-3812988Y-4692929D01*
G01X-3812672Y-4713647D01*
G01X-3808696Y-4733981D01*
G01X-3801183Y-4753291D01*
G01X-3790372Y-4770966D01*
G01X-3776603Y-4786450D01*
G01X-3760311Y-4799252D01*
G01X-3742011Y-4808968D01*
G01X-3722280Y-4815293D01*
G01X-3701741Y-4818026D01*
G01X-3681043Y-4817081D01*
G01X-3660839Y-4812487D01*
G01X-3381505Y-5091822D01*
G01X-3381505Y-5588830D01*
G01X-3381505Y-5588830D01*
G01X-3388970Y-5588830D01*
G01X-3401458Y-5590808D01*
G01X-3412724Y-5596548D01*
G01X-3421665Y-5605489D01*
G01X-3427406Y-5616755D01*
G01X-3429384Y-5629244D01*
G01X-3429384Y-5750402D01*
G01X-3427406Y-5762890D01*
G01X-3421665Y-5774156D01*
G01X-3412724Y-5783097D01*
G01X-3401458Y-5788837D01*
G01X-3388970Y-5790815D01*
G01X-3267812Y-5790815D01*
G01X-3255323Y-5788837D01*
G01X-3244057Y-5783097D01*
G01X-3235116Y-5774156D01*
G01X-3229376Y-5762890D01*
G01X-3227398Y-5750402D01*
G01X-3227398Y-5629244D01*
G01X-3175384Y-5629244D01*
G01X-3175384Y-5750402D01*
G01X-3173406Y-5762890D01*
G01X-3167665Y-5774156D01*
G01X-3158724Y-5783097D01*
G01X-3147458Y-5788837D01*
G01X-3134970Y-5790815D01*
G01X-3013812Y-5790815D01*
G01X-3013812Y-5790815D01*
G01X-3001323Y-5788837D01*
G01X-2990057Y-5783097D01*
G01X-2981116Y-5774156D01*
G01X-2975376Y-5762890D01*
G01X-2973398Y-5750402D01*
G01X-2973398Y-5629244D01*
G01X-2975376Y-5616755D01*
G01X-2981116Y-5605489D01*
G01X-2990057Y-5596548D01*
G01X-3001323Y-5590808D01*
G01X-3013812Y-5588830D01*
G01X-3134970Y-5588830D01*
G01X-3147458Y-5590808D01*
G01X-3158724Y-5596548D01*
G01X-3167665Y-5605489D01*
G01X-3173406Y-5616755D01*
G01X-3175384Y-5629244D01*
G01X-3227398Y-5629244D01*
G01X-3229376Y-5616755D01*
G01X-3235116Y-5605489D01*
G01X-3244057Y-5596548D01*
G01X-3255323Y-5590808D01*
G01X-3267812Y-5588830D01*
G01X-3275277Y-5588830D01*
G01X-3275277Y-5069821D01*
G01X-3277086Y-5056074D01*
G01X-3282393Y-5043264D01*
G01X-3290833Y-5032264D01*
G01X-3585725Y-4737373D01*
G01X-3585725Y-4737373D01*
G01X-3581131Y-4717169D01*
G01X-3580186Y-4696470D01*
G01X-3582919Y-4675932D01*
G01X-3589244Y-4656201D01*
G01X-3598960Y-4637901D01*
G01X-3611762Y-4621609D01*
G01X-3627245Y-4607840D01*
G01X-3644921Y-4597029D01*
G01X-3664231Y-4589516D01*
G01X-3684565Y-4585539D01*
G01X-3705283Y-4585224D01*
G01X-3725729Y-4588581D01*
G01X-3745258Y-4595502D01*
G01X-3763254Y-4605771D01*
G01X-3779149Y-4619063D01*
G01X-3779149Y-4619063D01*
G01X-3792441Y-4634957D01*
G01X-3802709Y-4652954D01*
G01X-3809631Y-4672483D01*
G01X-3812988Y-4692929D01*
G01X-5166881Y-4692929D01*
G01X-5243777Y-4616033D01*
G01X-5243777Y-4042498D01*
G01X-5226554Y-4052007D01*
G01X-5208136Y-4058919D01*
G01X-5188910Y-4063090D01*
G01X-5169283Y-4064431D01*
G01X-5149669Y-4062914D01*
G01X-5130482Y-4058571D01*
G01X-5130482Y-4058571D01*
G01X-5112126Y-4051494D01*
G01X-5094990Y-4041831D01*
G01X-5079434Y-4029788D01*
G01X-5065788Y-4015618D01*
G01X-5054339Y-3999620D01*
G01X-5045328Y-3982132D01*
G01X-4727884Y-3982132D01*
G01X-4402670Y-4307346D01*
G01X-4402670Y-4307346D01*
G01X-4408849Y-4328821D01*
G01X-4411270Y-4351036D01*
G01X-4409864Y-4373338D01*
G01X-4404672Y-4395072D01*
G01X-4395844Y-4415601D01*
G01X-4383642Y-4434322D01*
G01X-4368423Y-4450685D01*
G01X-4350634Y-4464209D01*
G01X-4330798Y-4474498D01*
G01X-4330798Y-4474498D01*
G01X-4309496Y-4481249D01*
G01X-4287354Y-4484265D01*
G01X-4265022Y-4483456D01*
G01X-4243157Y-4478847D01*
G01X-4222399Y-4470572D01*
G01X-4203359Y-4458875D01*
G01X-4186594Y-4444100D01*
G01X-4172599Y-4426679D01*
G01X-4161783Y-4407125D01*
G01X-3073785Y-4407125D01*
G01X-2900511Y-4580399D01*
G01X-2923386Y-4580869D01*
G01X-2945827Y-4585330D01*
G01X-2967142Y-4593644D01*
G01X-2986677Y-4605555D01*
G01X-3003830Y-4620697D01*
G01X-3018072Y-4638604D01*
G01X-3028965Y-4658724D01*
G01X-3036175Y-4680438D01*
G01X-3036175Y-4680438D01*
G01X-3043008Y-4659161D01*
G01X-3053373Y-4639362D01*
G01X-3066966Y-4621625D01*
G01X-3083388Y-4606468D01*
G01X-3102156Y-4594337D01*
G01X-3122720Y-4585589D01*
G01X-3144475Y-4580480D01*
G01X-3166784Y-4579160D01*
G01X-3188990Y-4581668D01*
G01X-3210442Y-4587931D01*
G01X-3230509Y-4597764D01*
G01X-3248604Y-4610878D01*
G01X-3264193Y-4626890D01*
G01X-3276821Y-4645328D01*
G01X-3286115Y-4665651D01*
G01X-3291802Y-4687262D01*
G01X-3293717Y-4709527D01*
G01X-3293717Y-4789527D01*
G01X-3291813Y-4811733D01*
G01X-3286155Y-4833291D01*
G01X-3276909Y-4853570D01*
G01X-3264345Y-4871979D01*
G01X-3248830Y-4887980D01*
G01X-3230817Y-4901105D01*
G01X-3210832Y-4910972D01*
G01X-3189459Y-4917291D01*
G01X-3167322Y-4919879D01*
G01X-3145068Y-4918660D01*
G01X-3123346Y-4913669D01*
G01X-3102791Y-4905052D01*
G01X-3084004Y-4893061D01*
G01X-3067533Y-4878047D01*
G01X-3053859Y-4860447D01*
G01X-3043381Y-4840775D01*
G01X-3036406Y-4819607D01*
G01X-3036406Y-4819607D01*
G01X-3029512Y-4841030D01*
G01X-3019038Y-4860948D01*
G01X-3005296Y-4878769D01*
G01X-2988694Y-4893962D01*
G01X-2969728Y-4906075D01*
G01X-2948962Y-4914747D01*
G01X-2927014Y-4919720D01*
G01X-2904538Y-4920845D01*
G01X-2882203Y-4918090D01*
G01X-2860674Y-4911536D01*
G01X-2840592Y-4901378D01*
G01X-2822556Y-4887919D01*
G01X-2807102Y-4871560D01*
G01X-2794691Y-4852788D01*
G01X-2785692Y-4832161D01*
G01X-2785692Y-4880518D01*
G01X-2783714Y-4893006D01*
G01X-2777973Y-4904272D01*
G01X-2769032Y-4913213D01*
G01X-2757766Y-4918953D01*
G01X-2745278Y-4920931D01*
G01X-2565278Y-4920931D01*
G01X-2552789Y-4918953D01*
G01X-2541523Y-4913213D01*
G01X-2532583Y-4904272D01*
G01X-2526842Y-4893006D01*
G01X-2524864Y-4880518D01*
G01X-2524864Y-4620518D01*
G01X-2526842Y-4608029D01*
G01X-2532583Y-4596763D01*
G01X-2541523Y-4587822D01*
G01X-2552789Y-4582082D01*
G01X-2565278Y-4580104D01*
G01X-2745278Y-4580104D01*
G01X-2750268Y-4580413D01*
G01X-2822949Y-4507732D01*
G01X-1704713Y-4507732D01*
G01X-1702884Y-4528642D01*
G01X-1697452Y-4548916D01*
G01X-1688581Y-4567939D01*
G01X-1676542Y-4585132D01*
G01X-1661700Y-4599974D01*
G01X-1644506Y-4612013D01*
G01X-1625484Y-4620884D01*
G01X-1605209Y-4626316D01*
G01X-1584300Y-4628146D01*
G01X-1563390Y-4626316D01*
G01X-1543116Y-4620884D01*
G01X-1524093Y-4612013D01*
G01X-1506899Y-4599974D01*
G01X-1492057Y-4585132D01*
G01X-1480018Y-4567939D01*
G01X-1471148Y-4548916D01*
G01X-1465715Y-4528642D01*
G01X-1463886Y-4507732D01*
G01X-1465715Y-4486822D01*
G01X-1471148Y-4466548D01*
G01X-1480018Y-4447525D01*
G01X-1492057Y-4430331D01*
G01X-1506899Y-4415490D01*
G01X-1524093Y-4403451D01*
G01X-1543116Y-4394580D01*
G01X-1563390Y-4389147D01*
G01X-1584300Y-4387318D01*
G01X-1584300Y-4387318D01*
G01X-1605209Y-4389147D01*
G01X-1625484Y-4394580D01*
G01X-1644506Y-4403451D01*
G01X-1661700Y-4415490D01*
G01X-1676542Y-4430331D01*
G01X-1688581Y-4447525D01*
G01X-1697452Y-4466548D01*
G01X-1702884Y-4486822D01*
G01X-1704713Y-4507732D01*
G01X-2822949Y-4507732D01*
G01X-3014227Y-4316454D01*
G01X-3025228Y-4308013D01*
G01X-3038038Y-4302707D01*
G01X-3051785Y-4300897D01*
G01X-4161783Y-4300897D01*
G01X-4161783Y-4300897D01*
G01X-4172383Y-4281665D01*
G01X-4186060Y-4264485D01*
G01X-4202426Y-4249843D01*
G01X-4221017Y-4238154D01*
G01X-4241305Y-4229750D01*
G01X-4262715Y-4224870D01*
G01X-4284641Y-4223651D01*
G01X-4306461Y-4226129D01*
G01X-4327555Y-4232232D01*
G01X-4566863Y-3992925D01*
G01X-73203Y-3992925D01*
G01X-71228Y-4018019D01*
G01X-65352Y-4042495D01*
G01X-55719Y-4065751D01*
G01X-42567Y-4087214D01*
G01X-26219Y-4106354D01*
G01X-7078Y-4122702D01*
G01X14385Y-4135854D01*
G01X37640Y-4145487D01*
G01X62117Y-4151363D01*
G01X87211Y-4153338D01*
G01X112305Y-4151363D01*
G01X136781Y-4145487D01*
G01X160037Y-4135854D01*
G01X181500Y-4122702D01*
G01X200641Y-4106354D01*
G01X216988Y-4087214D01*
G01X230141Y-4065751D01*
G01X239773Y-4042495D01*
G01X245650Y-4018019D01*
G01X247625Y-3992925D01*
G01X918794Y-3992925D01*
G01X920769Y-4018019D01*
G01X926645Y-4042495D01*
G01X936278Y-4065751D01*
G01X949430Y-4087214D01*
G01X965778Y-4106354D01*
G01X984919Y-4122702D01*
G01X1006382Y-4135854D01*
G01X1029637Y-4145487D01*
G01X1054114Y-4151363D01*
G01X1079208Y-4153338D01*
G01X1104302Y-4151363D01*
G01X1128778Y-4145487D01*
G01X1152034Y-4135854D01*
G01X1173497Y-4122702D01*
G01X1192638Y-4106354D01*
G01X1208985Y-4087214D01*
G01X1222138Y-4065751D01*
G01X1231770Y-4042495D01*
G01X1237647Y-4018019D01*
G01X1239622Y-3992925D01*
G01X1237647Y-3967830D01*
G01X1231770Y-3943354D01*
G01X1222138Y-3920098D01*
G01X1208985Y-3898636D01*
G01X1192638Y-3879495D01*
G01X1173497Y-3863147D01*
G01X1152034Y-3849995D01*
G01X1128778Y-3840362D01*
G01X1104302Y-3834486D01*
G01X1079208Y-3832511D01*
G01X1054114Y-3834486D01*
G01X1029637Y-3840362D01*
G01X1006382Y-3849995D01*
G01X984919Y-3863147D01*
G01X965778Y-3879495D01*
G01X949430Y-3898636D01*
G01X936278Y-3920098D01*
G01X926645Y-3943354D01*
G01X920769Y-3967830D01*
G01X918794Y-3992925D01*
G01X918794Y-3992925D01*
G01X247625Y-3992925D01*
G01X245650Y-3967830D01*
G01X239773Y-3943354D01*
G01X230141Y-3920098D01*
G01X216988Y-3898636D01*
G01X200641Y-3879495D01*
G01X181500Y-3863147D01*
G01X160037Y-3849995D01*
G01X136781Y-3840362D01*
G01X112305Y-3834486D01*
G01X87211Y-3832511D01*
G01X62117Y-3834486D01*
G01X37640Y-3840362D01*
G01X14385Y-3849995D01*
G01X-7078Y-3863147D01*
G01X-26219Y-3879495D01*
G01X-42567Y-3898636D01*
G01X-55719Y-3920098D01*
G01X-65352Y-3943354D01*
G01X-71228Y-3967830D01*
G01X-73203Y-3992925D01*
G01X-73203Y-3992925D01*
G01X-4566863Y-3992925D01*
G01X-4668326Y-3891461D01*
G01X-4679326Y-3883020D01*
G01X-4692137Y-3877714D01*
G01X-4705883Y-3875904D01*
G01X-5045328Y-3875904D01*
G01X-5045328Y-3875904D01*
G01X-5055892Y-3855935D01*
G01X-5069628Y-3838000D01*
G01X-5086156Y-3822598D01*
G01X-5105013Y-3810158D01*
G01X-5125677Y-3801026D01*
G01X-5147571Y-3795457D01*
G01X-5147571Y-3795457D01*
G01X-5143543Y-3784104D01*
G01X-5142177Y-3772135D01*
G01X-5142177Y-3652920D01*
G01X-73203Y-3652920D01*
G01X-71228Y-3678015D01*
G01X-65352Y-3702491D01*
G01X-55719Y-3725747D01*
G01X-42567Y-3747209D01*
G01X-26219Y-3766350D01*
G01X-7078Y-3782698D01*
G01X14385Y-3795850D01*
G01X37640Y-3805483D01*
G01X62117Y-3811359D01*
G01X87211Y-3813334D01*
G01X112305Y-3811359D01*
G01X136781Y-3805483D01*
G01X160037Y-3795850D01*
G01X181500Y-3782698D01*
G01X200641Y-3766350D01*
G01X216988Y-3747209D01*
G01X230141Y-3725747D01*
G01X239773Y-3702491D01*
G01X245650Y-3678015D01*
G01X247625Y-3652920D01*
G01X918794Y-3652920D01*
G01X920769Y-3678015D01*
G01X926645Y-3702491D01*
G01X936278Y-3725747D01*
G01X949430Y-3747209D01*
G01X965778Y-3766350D01*
G01X984919Y-3782698D01*
G01X1006382Y-3795850D01*
G01X1029637Y-3805483D01*
G01X1054114Y-3811359D01*
G01X1079208Y-3813334D01*
G01X1104302Y-3811359D01*
G01X1128778Y-3805483D01*
G01X1152034Y-3795850D01*
G01X1173497Y-3782698D01*
G01X1192638Y-3766350D01*
G01X1208985Y-3747209D01*
G01X1222138Y-3725747D01*
G01X1231770Y-3702491D01*
G01X1237647Y-3678015D01*
G01X1239622Y-3652920D01*
G01X1237647Y-3627826D01*
G01X1231770Y-3603350D01*
G01X1222138Y-3580094D01*
G01X1208985Y-3558631D01*
G01X1192638Y-3539491D01*
G01X1173497Y-3523143D01*
G01X1152034Y-3509991D01*
G01X1128778Y-3500358D01*
G01X1104302Y-3494482D01*
G01X1079208Y-3492507D01*
G01X1054114Y-3494482D01*
G01X1029637Y-3500358D01*
G01X1006382Y-3509991D01*
G01X984919Y-3523143D01*
G01X965778Y-3539491D01*
G01X949430Y-3558631D01*
G01X936278Y-3580094D01*
G01X926645Y-3603350D01*
G01X920769Y-3627826D01*
G01X918794Y-3652920D01*
G01X918794Y-3652920D01*
G01X247625Y-3652920D01*
G01X245650Y-3627826D01*
G01X239773Y-3603350D01*
G01X230141Y-3580094D01*
G01X216988Y-3558631D01*
G01X200641Y-3539491D01*
G01X181500Y-3523143D01*
G01X160037Y-3509991D01*
G01X136781Y-3500358D01*
G01X112305Y-3494482D01*
G01X87211Y-3492507D01*
G01X62117Y-3494482D01*
G01X37640Y-3500358D01*
G01X14385Y-3509991D01*
G01X-7078Y-3523143D01*
G01X-26219Y-3539491D01*
G01X-42567Y-3558631D01*
G01X-55719Y-3580094D01*
G01X-65352Y-3603350D01*
G01X-71228Y-3627826D01*
G01X-73203Y-3652920D01*
G01X-73203Y-3652920D01*
G01X-5142177Y-3652920D01*
G01X-5142177Y-3390764D01*
G01X-3812807Y-3390764D01*
G01X-3812807Y-3412284D01*
G01X-3808853Y-3433437D01*
G01X-3801079Y-3453503D01*
G01X-3789751Y-3471799D01*
G01X-3775253Y-3487703D01*
G01X-3758080Y-3500671D01*
G01X-3738816Y-3510263D01*
G01X-3718118Y-3516152D01*
G01X-3696691Y-3518138D01*
G01X-3675263Y-3516152D01*
G01X-3654565Y-3510263D01*
G01X-3635301Y-3500671D01*
G01X-3618128Y-3487703D01*
G01X-3603631Y-3471799D01*
G01X-3592302Y-3453503D01*
G01X-3584528Y-3433437D01*
G01X-3580574Y-3412284D01*
G01X-3580574Y-3390764D01*
G01X-3584528Y-3369611D01*
G01X-3592302Y-3349544D01*
G01X-3603631Y-3331248D01*
G01X-3618128Y-3315345D01*
G01X-3635301Y-3302377D01*
G01X-3654565Y-3292785D01*
G01X-3675263Y-3286895D01*
G01X-3696691Y-3284910D01*
G01X-3696691Y-3284910D01*
G01X-3718118Y-3286895D01*
G01X-3738816Y-3292785D01*
G01X-3758080Y-3302377D01*
G01X-3775253Y-3315345D01*
G01X-3789751Y-3331248D01*
G01X-3801079Y-3349544D01*
G01X-3808853Y-3369611D01*
G01X-3812807Y-3390764D01*
G01X-5142177Y-3390764D01*
G01X-5142177Y-2832335D01*
G01X-3156704Y-2832335D01*
G01X-3154875Y-2853245D01*
G01X-3149443Y-2873519D01*
G01X-3140572Y-2892542D01*
G01X-3128533Y-2909736D01*
G01X-3113691Y-2924578D01*
G01X-3096497Y-2936617D01*
G01X-3077475Y-2945487D01*
G01X-3057200Y-2950920D01*
G01X-3036291Y-2952749D01*
G01X-3015381Y-2950920D01*
G01X-2995107Y-2945487D01*
G01X-2976084Y-2936617D01*
G01X-2958890Y-2924578D01*
G01X-2944048Y-2909736D01*
G01X-2932009Y-2892542D01*
G01X-2923139Y-2873519D01*
G01X-2917706Y-2853245D01*
G01X-2915877Y-2832335D01*
G01X-2917706Y-2811426D01*
G01X-2923139Y-2791151D01*
G01X-2932009Y-2772128D01*
G01X-2943217Y-2756123D01*
G01X-1929704Y-2756123D01*
G01X-1927718Y-2777550D01*
G01X-1921829Y-2798248D01*
G01X-1912237Y-2817512D01*
G01X-1899269Y-2834685D01*
G01X-1883366Y-2849182D01*
G01X-1865069Y-2860511D01*
G01X-1845003Y-2868285D01*
G01X-1823850Y-2872239D01*
G01X-1802330Y-2872239D01*
G01X-1781177Y-2868285D01*
G01X-1761111Y-2860511D01*
G01X-1742815Y-2849182D01*
G01X-1726911Y-2834685D01*
G01X-1713943Y-2817512D01*
G01X-1704351Y-2798248D01*
G01X-1698462Y-2777550D01*
G01X-1696476Y-2756123D01*
G01X-1696476Y-2756123D01*
G01X-1429705Y-2756123D01*
G01X-1427719Y-2777550D01*
G01X-1421830Y-2798248D01*
G01X-1412238Y-2817512D01*
G01X-1399270Y-2834685D01*
G01X-1383367Y-2849182D01*
G01X-1365070Y-2860511D01*
G01X-1345004Y-2868285D01*
G01X-1323851Y-2872239D01*
G01X-1302331Y-2872239D01*
G01X-1281178Y-2868285D01*
G01X-1261112Y-2860511D01*
G01X-1242816Y-2849182D01*
G01X-1226912Y-2834685D01*
G01X-1213944Y-2817512D01*
G01X-1204352Y-2798248D01*
G01X-1198463Y-2777550D01*
G01X-1196477Y-2756123D01*
G01X-1196477Y-2756123D01*
G01X-1198463Y-2734695D01*
G01X-1204352Y-2713997D01*
G01X-1213944Y-2694733D01*
G01X-1221580Y-2684622D01*
G01X1735498Y-2684622D01*
G01X1737479Y-2707268D01*
G01X1743363Y-2729226D01*
G01X1752970Y-2749828D01*
G01X1766009Y-2768450D01*
G01X1782084Y-2784524D01*
G01X1800705Y-2797563D01*
G01X1821308Y-2807170D01*
G01X1843266Y-2813054D01*
G01X1865912Y-2815035D01*
G01X1888558Y-2813054D01*
G01X1910516Y-2807170D01*
G01X1931119Y-2797563D01*
G01X1949740Y-2784524D01*
G01X1965815Y-2768450D01*
G01X1978854Y-2749828D01*
G01X1988461Y-2729226D01*
G01X1994344Y-2707268D01*
G01X1996326Y-2684622D01*
G01X1994344Y-2661975D01*
G01X1988461Y-2640017D01*
G01X1978854Y-2619415D01*
G01X1965815Y-2600793D01*
G01X1949740Y-2584719D01*
G01X1931119Y-2571680D01*
G01X1910516Y-2562073D01*
G01X1888558Y-2556189D01*
G01X1865912Y-2554208D01*
G01X1865912Y-2554208D01*
G01X1843266Y-2556189D01*
G01X1821308Y-2562073D01*
G01X1800705Y-2571680D01*
G01X1782084Y-2584719D01*
G01X1766009Y-2600793D01*
G01X1752970Y-2619415D01*
G01X1743363Y-2640017D01*
G01X1737479Y-2661975D01*
G01X1735498Y-2684622D01*
G01X-1221580Y-2684622D01*
G01X-1226912Y-2677560D01*
G01X-1242816Y-2663063D01*
G01X-1261112Y-2651734D01*
G01X-1281178Y-2643960D01*
G01X-1302331Y-2640006D01*
G01X-1323851Y-2640006D01*
G01X-1345004Y-2643960D01*
G01X-1365070Y-2651734D01*
G01X-1383367Y-2663063D01*
G01X-1399270Y-2677560D01*
G01X-1412238Y-2694733D01*
G01X-1421830Y-2713997D01*
G01X-1427719Y-2734695D01*
G01X-1429705Y-2756123D01*
G01X-1696476Y-2756123D01*
G01X-1698462Y-2734695D01*
G01X-1704351Y-2713997D01*
G01X-1713943Y-2694733D01*
G01X-1726911Y-2677560D01*
G01X-1742815Y-2663063D01*
G01X-1761111Y-2651734D01*
G01X-1781177Y-2643960D01*
G01X-1802330Y-2640006D01*
G01X-1823850Y-2640006D01*
G01X-1845003Y-2643960D01*
G01X-1865069Y-2651734D01*
G01X-1883366Y-2663063D01*
G01X-1899269Y-2677560D01*
G01X-1912237Y-2694733D01*
G01X-1921829Y-2713997D01*
G01X-1927718Y-2734695D01*
G01X-1929704Y-2756123D01*
G01X-2943217Y-2756123D01*
G01X-2944048Y-2754935D01*
G01X-2958890Y-2740093D01*
G01X-2976084Y-2728054D01*
G01X-2995107Y-2719183D01*
G01X-3015381Y-2713751D01*
G01X-3036291Y-2711921D01*
G01X-3036291Y-2711921D01*
G01X-3057200Y-2713751D01*
G01X-3077475Y-2719183D01*
G01X-3096497Y-2728054D01*
G01X-3113691Y-2740093D01*
G01X-3128533Y-2754935D01*
G01X-3140572Y-2772128D01*
G01X-3149443Y-2791151D01*
G01X-3154875Y-2811426D01*
G01X-3156704Y-2832335D01*
G01X-5142177Y-2832335D01*
G01X-5142177Y-2578335D01*
G01X-3156704Y-2578335D01*
G01X-3154875Y-2599245D01*
G01X-3149443Y-2619519D01*
G01X-3140572Y-2638542D01*
G01X-3128533Y-2655736D01*
G01X-3113691Y-2670578D01*
G01X-3096497Y-2682617D01*
G01X-3077475Y-2691487D01*
G01X-3057200Y-2696920D01*
G01X-3036291Y-2698749D01*
G01X-3015381Y-2696920D01*
G01X-2995107Y-2691487D01*
G01X-2976084Y-2682617D01*
G01X-2958890Y-2670578D01*
G01X-2944048Y-2655736D01*
G01X-2932009Y-2638542D01*
G01X-2923139Y-2619519D01*
G01X-2917706Y-2599245D01*
G01X-2915877Y-2578335D01*
G01X-2917706Y-2557426D01*
G01X-2923139Y-2537151D01*
G01X-2932009Y-2518128D01*
G01X-2944048Y-2500935D01*
G01X-2958890Y-2486093D01*
G01X-2976084Y-2474054D01*
G01X-2995107Y-2465183D01*
G01X-3006714Y-2462073D01*
G01X-38125Y-2462073D01*
G01X-38125Y-2483371D01*
G01X-34211Y-2504306D01*
G01X-26517Y-2524166D01*
G01X-15305Y-2542274D01*
G01X-957Y-2558014D01*
G01X16039Y-2570849D01*
G01X35105Y-2580342D01*
G01X55590Y-2586171D01*
G01X76797Y-2588136D01*
G01X98004Y-2586171D01*
G01X118489Y-2580342D01*
G01X137554Y-2570849D01*
G01X154551Y-2558014D01*
G01X168899Y-2542274D01*
G01X180111Y-2524166D01*
G01X187805Y-2504306D01*
G01X191718Y-2483371D01*
G01X191718Y-2462073D01*
G01X187805Y-2441138D01*
G01X180111Y-2421278D01*
G01X168899Y-2403170D01*
G01X154551Y-2387430D01*
G01X137554Y-2374595D01*
G01X118489Y-2365102D01*
G01X98004Y-2359273D01*
G01X76797Y-2357308D01*
G01X76797Y-2357308D01*
G01X55590Y-2359273D01*
G01X35105Y-2365102D01*
G01X16039Y-2374595D01*
G01X-957Y-2387430D01*
G01X-15305Y-2403170D01*
G01X-26517Y-2421278D01*
G01X-34211Y-2441138D01*
G01X-38125Y-2462073D01*
G01X-3006714Y-2462073D01*
G01X-3015381Y-2459751D01*
G01X-3036291Y-2457921D01*
G01X-3036291Y-2457921D01*
G01X-3057200Y-2459751D01*
G01X-3077475Y-2465183D01*
G01X-3096497Y-2474054D01*
G01X-3113691Y-2486093D01*
G01X-3128533Y-2500935D01*
G01X-3140572Y-2518128D01*
G01X-3149443Y-2537151D01*
G01X-3154875Y-2557426D01*
G01X-3156704Y-2578335D01*
G01X-5142177Y-2578335D01*
G01X-5142177Y-2324335D01*
G01X-3156704Y-2324335D01*
G01X-3154875Y-2345245D01*
G01X-3149443Y-2365519D01*
G01X-3140572Y-2384542D01*
G01X-3128533Y-2401736D01*
G01X-3113691Y-2416578D01*
G01X-3096497Y-2428617D01*
G01X-3077475Y-2437487D01*
G01X-3057200Y-2442920D01*
G01X-3036291Y-2444749D01*
G01X-3015381Y-2442920D01*
G01X-2995107Y-2437487D01*
G01X-2976084Y-2428617D01*
G01X-2958890Y-2416578D01*
G01X-2944048Y-2401736D01*
G01X-2932009Y-2384542D01*
G01X-2923139Y-2365519D01*
G01X-2917706Y-2345245D01*
G01X-2915877Y-2324335D01*
G01X-2917706Y-2303426D01*
G01X-2923139Y-2283151D01*
G01X-2932009Y-2264128D01*
G01X-2944048Y-2246935D01*
G01X-2958890Y-2232093D01*
G01X-2976084Y-2220054D01*
G01X-2995107Y-2211183D01*
G01X-3015381Y-2205751D01*
G01X-3036291Y-2203921D01*
G01X-3036291Y-2203921D01*
G01X-3057200Y-2205751D01*
G01X-3077475Y-2211183D01*
G01X-3096497Y-2220054D01*
G01X-3113691Y-2232093D01*
G01X-3128533Y-2246935D01*
G01X-3140572Y-2264128D01*
G01X-3149443Y-2283151D01*
G01X-3154875Y-2303426D01*
G01X-3156704Y-2324335D01*
G01X-5142177Y-2324335D01*
G01X-5142177Y-2070335D01*
G01X-3156704Y-2070335D01*
G01X-3154875Y-2091245D01*
G01X-3149443Y-2111519D01*
G01X-3140572Y-2130542D01*
G01X-3128533Y-2147736D01*
G01X-3113691Y-2162578D01*
G01X-3096497Y-2174617D01*
G01X-3077475Y-2183487D01*
G01X-3057200Y-2188920D01*
G01X-3036291Y-2190749D01*
G01X-3015381Y-2188920D01*
G01X-2999344Y-2184623D01*
G01X1735498Y-2184623D01*
G01X1737479Y-2207269D01*
G01X1743363Y-2229227D01*
G01X1752970Y-2249829D01*
G01X1766009Y-2268451D01*
G01X1782084Y-2284525D01*
G01X1800705Y-2297564D01*
G01X1821308Y-2307171D01*
G01X1843266Y-2313055D01*
G01X1865912Y-2315036D01*
G01X1888558Y-2313055D01*
G01X1910516Y-2307171D01*
G01X1931119Y-2297564D01*
G01X1949740Y-2284525D01*
G01X1965815Y-2268451D01*
G01X1978854Y-2249829D01*
G01X1988461Y-2229227D01*
G01X1994344Y-2207269D01*
G01X1996326Y-2184623D01*
G01X1994344Y-2161976D01*
G01X1988461Y-2140018D01*
G01X1978854Y-2119416D01*
G01X1965815Y-2100794D01*
G01X1949740Y-2084720D01*
G01X1931119Y-2071681D01*
G01X1910516Y-2062074D01*
G01X1888558Y-2056190D01*
G01X1865912Y-2054209D01*
G01X1865912Y-2054209D01*
G01X1843266Y-2056190D01*
G01X1821308Y-2062074D01*
G01X1800705Y-2071681D01*
G01X1782084Y-2084720D01*
G01X1766009Y-2100794D01*
G01X1752970Y-2119416D01*
G01X1743363Y-2140018D01*
G01X1737479Y-2161976D01*
G01X1735498Y-2184623D01*
G01X-2999344Y-2184623D01*
G01X-2995107Y-2183487D01*
G01X-2976084Y-2174617D01*
G01X-2958890Y-2162578D01*
G01X-2944048Y-2147736D01*
G01X-2932009Y-2130542D01*
G01X-2923139Y-2111519D01*
G01X-2917706Y-2091245D01*
G01X-2915877Y-2070335D01*
G01X-2917706Y-2049426D01*
G01X-2923139Y-2029151D01*
G01X-2932009Y-2010128D01*
G01X-2944048Y-1992935D01*
G01X-2958890Y-1978093D01*
G01X-2976084Y-1966054D01*
G01X-2995107Y-1957183D01*
G01X-3015381Y-1951751D01*
G01X-3036291Y-1949921D01*
G01X-3036291Y-1949921D01*
G01X-3057200Y-1951751D01*
G01X-3077475Y-1957183D01*
G01X-3096497Y-1966054D01*
G01X-3113691Y-1978093D01*
G01X-3128533Y-1992935D01*
G01X-3140572Y-2010128D01*
G01X-3149443Y-2029151D01*
G01X-3154875Y-2049426D01*
G01X-3156704Y-2070335D01*
G01X-5142177Y-2070335D01*
G01X-5142177Y-1816335D01*
G01X-3156704Y-1816335D01*
G01X-3154875Y-1837245D01*
G01X-3149443Y-1857519D01*
G01X-3140572Y-1876542D01*
G01X-3128533Y-1893736D01*
G01X-3113691Y-1908578D01*
G01X-3096497Y-1920617D01*
G01X-3077475Y-1929487D01*
G01X-3057200Y-1934920D01*
G01X-3036291Y-1936749D01*
G01X-3015381Y-1934920D01*
G01X-2995107Y-1929487D01*
G01X-2976084Y-1920617D01*
G01X-2958890Y-1908578D01*
G01X-2944048Y-1893736D01*
G01X-2932009Y-1876542D01*
G01X-2923139Y-1857519D01*
G01X-2917706Y-1837245D01*
G01X-2915877Y-1816335D01*
G01X-2917706Y-1795426D01*
G01X-2922316Y-1778223D01*
G01X-1942404Y-1778223D01*
G01X-1940418Y-1799650D01*
G01X-1934529Y-1820348D01*
G01X-1924937Y-1839612D01*
G01X-1911969Y-1856785D01*
G01X-1896066Y-1871282D01*
G01X-1877769Y-1882611D01*
G01X-1857703Y-1890385D01*
G01X-1836550Y-1894339D01*
G01X-1815030Y-1894339D01*
G01X-1793877Y-1890385D01*
G01X-1773811Y-1882611D01*
G01X-1755515Y-1871282D01*
G01X-1739611Y-1856785D01*
G01X-1726643Y-1839612D01*
G01X-1717051Y-1820348D01*
G01X-1711162Y-1799650D01*
G01X-1709176Y-1778223D01*
G01X-1709176Y-1778223D01*
G01X-1442405Y-1778223D01*
G01X-1440419Y-1799650D01*
G01X-1434530Y-1820348D01*
G01X-1424938Y-1839612D01*
G01X-1411970Y-1856785D01*
G01X-1396067Y-1871282D01*
G01X-1377770Y-1882611D01*
G01X-1357704Y-1890385D01*
G01X-1336551Y-1894339D01*
G01X-1315031Y-1894339D01*
G01X-1293878Y-1890385D01*
G01X-1273812Y-1882611D01*
G01X-1255516Y-1871282D01*
G01X-1239612Y-1856785D01*
G01X-1226644Y-1839612D01*
G01X-1217052Y-1820348D01*
G01X-1211163Y-1799650D01*
G01X-1209177Y-1778223D01*
G01X-1209177Y-1778223D01*
G01X-1211163Y-1756795D01*
G01X-1217052Y-1736097D01*
G01X-1226644Y-1716833D01*
G01X-1239612Y-1699660D01*
G01X-1255516Y-1685163D01*
G01X-1273812Y-1673834D01*
G01X-1293878Y-1666060D01*
G01X-1315031Y-1662106D01*
G01X-1336551Y-1662106D01*
G01X-1357704Y-1666060D01*
G01X-1377770Y-1673834D01*
G01X-1396067Y-1685163D01*
G01X-1411970Y-1699660D01*
G01X-1424938Y-1716833D01*
G01X-1434530Y-1736097D01*
G01X-1440419Y-1756795D01*
G01X-1442405Y-1778223D01*
G01X-1709176Y-1778223D01*
G01X-1711162Y-1756795D01*
G01X-1717051Y-1736097D01*
G01X-1726643Y-1716833D01*
G01X-1739611Y-1699660D01*
G01X-1755515Y-1685163D01*
G01X-1773811Y-1673834D01*
G01X-1793877Y-1666060D01*
G01X-1815030Y-1662106D01*
G01X-1836550Y-1662106D01*
G01X-1857703Y-1666060D01*
G01X-1877769Y-1673834D01*
G01X-1896066Y-1685163D01*
G01X-1911969Y-1699660D01*
G01X-1924937Y-1716833D01*
G01X-1934529Y-1736097D01*
G01X-1940418Y-1756795D01*
G01X-1942404Y-1778223D01*
G01X-2922316Y-1778223D01*
G01X-2923139Y-1775151D01*
G01X-2932009Y-1756128D01*
G01X-2944048Y-1738935D01*
G01X-2958890Y-1724093D01*
G01X-2976084Y-1712054D01*
G01X-2995107Y-1703183D01*
G01X-3015381Y-1697751D01*
G01X-3036291Y-1695921D01*
G01X-3036291Y-1695921D01*
G01X-3057200Y-1697751D01*
G01X-3077475Y-1703183D01*
G01X-3096497Y-1712054D01*
G01X-3113691Y-1724093D01*
G01X-3128533Y-1738935D01*
G01X-3140572Y-1756128D01*
G01X-3149443Y-1775151D01*
G01X-3154875Y-1795426D01*
G01X-3156704Y-1816335D01*
G01X-5142177Y-1816335D01*
G01X-5142177Y-1562335D01*
G01X-3156704Y-1562335D01*
G01X-3154875Y-1583245D01*
G01X-3149443Y-1603519D01*
G01X-3140572Y-1622542D01*
G01X-3128533Y-1639736D01*
G01X-3113691Y-1654578D01*
G01X-3096497Y-1666617D01*
G01X-3077475Y-1675487D01*
G01X-3057200Y-1680920D01*
G01X-3036291Y-1682749D01*
G01X-3015381Y-1680920D01*
G01X-2995107Y-1675487D01*
G01X-2976084Y-1666617D01*
G01X-2958890Y-1654578D01*
G01X-2944048Y-1639736D01*
G01X-2932009Y-1622542D01*
G01X-2923139Y-1603519D01*
G01X-2917706Y-1583245D01*
G01X-2915877Y-1562335D01*
G01X-2917706Y-1541426D01*
G01X-2923139Y-1521151D01*
G01X-2932009Y-1502128D01*
G01X-2944048Y-1484935D01*
G01X-2958890Y-1470093D01*
G01X-2976084Y-1458054D01*
G01X-2995107Y-1449183D01*
G01X-3015381Y-1443751D01*
G01X-3036291Y-1441921D01*
G01X-3036291Y-1441921D01*
G01X-3057200Y-1443751D01*
G01X-3077475Y-1449183D01*
G01X-3096497Y-1458054D01*
G01X-3113691Y-1470093D01*
G01X-3128533Y-1484935D01*
G01X-3140572Y-1502128D01*
G01X-3149443Y-1521151D01*
G01X-3154875Y-1541426D01*
G01X-3156704Y-1562335D01*
G01X-5142177Y-1562335D01*
G01X-5142177Y-419335D01*
G01X-5143986Y-405588D01*
G01X-5149293Y-392778D01*
G01X-5157733Y-381778D01*
G01X-5208319Y-331193D01*
G01X-5203343Y-311072D01*
G01X-5201892Y-290396D01*
G01X-5204009Y-269777D01*
G01X-5209629Y-249827D01*
G01X-5218588Y-231136D01*
G01X-3799014Y-231136D01*
G01X-3799014Y-231136D01*
G01X-3802937Y-246658D01*
G01X-3803707Y-262649D01*
G01X-3801293Y-278476D01*
G01X-3795792Y-293511D01*
G01X-3787422Y-307159D01*
G01X-3776514Y-318877D01*
G01X-3776514Y-525644D01*
G01X-4478955Y-1228085D01*
G01X-4478955Y-1228085D01*
G01X-4496593Y-1228899D01*
G01X-4513627Y-1233542D01*
G01X-4529238Y-1241791D01*
G01X-4542672Y-1253248D01*
G01X-4553282Y-1267361D01*
G01X-4560557Y-1283449D01*
G01X-4564145Y-1300736D01*
G01X-4563873Y-1318390D01*
G01X-4559756Y-1335560D01*
G01X-4551990Y-1351416D01*
G01X-4540952Y-1365196D01*
G01X-4540952Y-1365196D01*
G01X-4527172Y-1376235D01*
G01X-4511315Y-1384000D01*
G01X-4494146Y-1388118D01*
G01X-4476492Y-1388389D01*
G01X-4459204Y-1384801D01*
G01X-4443116Y-1377527D01*
G01X-4429004Y-1366917D01*
G01X-4417547Y-1353483D01*
G01X-4409298Y-1337872D01*
G01X-4404655Y-1320837D01*
G01X-4404078Y-1308335D01*
G01X-3156704Y-1308335D01*
G01X-3154875Y-1329245D01*
G01X-3149443Y-1349519D01*
G01X-3140572Y-1368542D01*
G01X-3128533Y-1385736D01*
G01X-3113691Y-1400578D01*
G01X-3096497Y-1412617D01*
G01X-3077475Y-1421487D01*
G01X-3057200Y-1426920D01*
G01X-3036291Y-1428749D01*
G01X-3015381Y-1426920D01*
G01X-2995107Y-1421487D01*
G01X-2976084Y-1412617D01*
G01X-2958890Y-1400578D01*
G01X-2944048Y-1385736D01*
G01X-2932009Y-1368542D01*
G01X-2923139Y-1349519D01*
G01X-2917706Y-1329245D01*
G01X-2915877Y-1308335D01*
G01X-2917706Y-1287426D01*
G01X-2923139Y-1267151D01*
G01X-2932009Y-1248128D01*
G01X-2944048Y-1230935D01*
G01X-2958890Y-1216093D01*
G01X-2976084Y-1204054D01*
G01X-2995107Y-1195183D01*
G01X-3015381Y-1189751D01*
G01X-3036291Y-1187921D01*
G01X-3036291Y-1187921D01*
G01X-3057200Y-1189751D01*
G01X-3077475Y-1195183D01*
G01X-3096497Y-1204054D01*
G01X-3113691Y-1216093D01*
G01X-3128533Y-1230935D01*
G01X-3140572Y-1248128D01*
G01X-3149443Y-1267151D01*
G01X-3154875Y-1287426D01*
G01X-3156704Y-1308335D01*
G01X-4404078Y-1308335D01*
G01X-4403841Y-1303200D01*
G01X-4154976Y-1054335D01*
G01X-3156704Y-1054335D01*
G01X-3154875Y-1075245D01*
G01X-3149443Y-1095519D01*
G01X-3140572Y-1114542D01*
G01X-3128533Y-1131736D01*
G01X-3113691Y-1146578D01*
G01X-3096497Y-1158617D01*
G01X-3077475Y-1167487D01*
G01X-3057200Y-1172920D01*
G01X-3036291Y-1174749D01*
G01X-3015381Y-1172920D01*
G01X-2995107Y-1167487D01*
G01X-2976084Y-1158617D01*
G01X-2958890Y-1146578D01*
G01X-2944048Y-1131736D01*
G01X-2932009Y-1114542D01*
G01X-2923139Y-1095519D01*
G01X-2917706Y-1075245D01*
G01X-2915877Y-1054335D01*
G01X-2917706Y-1033426D01*
G01X-2923139Y-1013151D01*
G01X-2932009Y-994128D01*
G01X-2944048Y-976935D01*
G01X-2958890Y-962093D01*
G01X-2976084Y-950054D01*
G01X-2995107Y-941183D01*
G01X-3015381Y-935751D01*
G01X-3036291Y-933921D01*
G01X-3036291Y-933921D01*
G01X-3057200Y-935751D01*
G01X-3077475Y-941183D01*
G01X-3096497Y-950054D01*
G01X-3113691Y-962093D01*
G01X-3128533Y-976935D01*
G01X-3140572Y-994128D01*
G01X-3149443Y-1013151D01*
G01X-3154875Y-1033426D01*
G01X-3156704Y-1054335D01*
G01X-4154976Y-1054335D01*
G01X-3685843Y-585202D01*
G01X-3677402Y-574201D01*
G01X-3672096Y-561391D01*
G01X-3670286Y-547644D01*
G01X-3670286Y-318877D01*
G01X-3659378Y-307159D01*
G01X-3651007Y-293511D01*
G01X-3645506Y-278476D01*
G01X-3643093Y-262649D01*
G01X-3643863Y-246658D01*
G01X-3647785Y-231136D01*
G01X-3426604Y-231136D01*
G01X-3150262Y-507478D01*
G01X-3155264Y-527765D01*
G01X-3156683Y-548611D01*
G01X-3154477Y-569389D01*
G01X-3148712Y-589473D01*
G01X-3139562Y-608258D01*
G01X-3127303Y-625178D01*
G01X-3112303Y-639724D01*
G01X-3095015Y-651459D01*
G01X-3075958Y-660028D01*
G01X-3055707Y-665173D01*
G01X-3034871Y-666741D01*
G01X-3014078Y-664683D01*
G01X-2993954Y-659061D01*
G01X-2975105Y-650045D01*
G01X-2975105Y-664035D01*
G01X-2997433Y-686363D01*
G01X-3018344Y-681266D01*
G01X-3039829Y-679973D01*
G01X-3061201Y-682526D01*
G01X-3081776Y-688843D01*
G01X-3100899Y-698722D01*
G01X-3117957Y-711847D01*
G01X-3132406Y-727800D01*
G01X-3143784Y-746070D01*
G01X-3151727Y-766074D01*
G01X-3155983Y-787173D01*
G01X-3156414Y-808692D01*
G01X-3153007Y-829944D01*
G01X-3145871Y-850251D01*
G01X-3135234Y-868962D01*
G01X-3121436Y-885481D01*
G01X-3104917Y-899279D01*
G01X-3086206Y-909916D01*
G01X-3065900Y-917052D01*
G01X-3044648Y-920459D01*
G01X-3023128Y-920027D01*
G01X-3002030Y-915772D01*
G01X-2982026Y-907829D01*
G01X-2963756Y-896450D01*
G01X-2947803Y-882002D01*
G01X-2934677Y-864943D01*
G01X-2924798Y-845821D01*
G01X-2918482Y-825245D01*
G01X-2915929Y-803874D01*
G01X-2917222Y-782389D01*
G01X-2922319Y-761478D01*
G01X-2884433Y-723592D01*
G01X-2875993Y-712592D01*
G01X-2870686Y-699782D01*
G01X-2868877Y-686035D01*
G01X-2868877Y215900D01*
G01X-658814Y215900D01*
G01X-656908Y194122D01*
G01X-651250Y173006D01*
G01X-642012Y153193D01*
G01X-629473Y135286D01*
G01X-614014Y119827D01*
G01X-596107Y107288D01*
G01X-576294Y98050D01*
G01X-555178Y92392D01*
G01X-533400Y90486D01*
G01X-511622Y92392D01*
G01X-490506Y98050D01*
G01X-470693Y107288D01*
G01X-452786Y119827D01*
G01X-437327Y135286D01*
G01X-424788Y153193D01*
G01X-415550Y173006D01*
G01X-409892Y194122D01*
G01X-407986Y215900D01*
G01X-407986Y215900D01*
G01X-409892Y237678D01*
G01X-415550Y258794D01*
G01X-424788Y278607D01*
G01X-437327Y296514D01*
G01X-452786Y311973D01*
G01X-470693Y324512D01*
G01X-490506Y333750D01*
G01X-511622Y339408D01*
G01X-533400Y341314D01*
G01X-555178Y339408D01*
G01X-576294Y333750D01*
G01X-596107Y324512D01*
G01X-614014Y311973D01*
G01X-629473Y296514D01*
G01X-642012Y278607D01*
G01X-651250Y258794D01*
G01X-656908Y237678D01*
G01X-658814Y215900D01*
G01X-2868877Y215900D01*
G01X-2868877Y2293416D01*
G01X-2852523Y2303269D01*
G01X-2837953Y2315607D01*
G01X-2825540Y2330113D01*
G01X-1575248Y1079820D01*
G01X-1564248Y1071379D01*
G01X-1551437Y1066073D01*
G01X-1537691Y1064264D01*
G01X-1210904Y1064264D01*
G01X-1210904Y1038637D01*
G01X-1208926Y1026149D01*
G01X-1203186Y1014883D01*
G01X-1194245Y1005942D01*
G01X-1182979Y1000202D01*
G01X-1170490Y998224D01*
G01X-1133605Y998224D01*
G01X-1133605Y982485D01*
G01X-1152390Y972181D01*
G01X-1169235Y958940D01*
G01X-1183684Y943120D01*
G01X-1195348Y925148D01*
G01X-1203912Y905508D01*
G01X-1209144Y884731D01*
G01X-1210904Y863377D01*
G01X-1209144Y842024D01*
G01X-1203912Y821247D01*
G01X-1195348Y801607D01*
G01X-1183684Y783635D01*
G01X-1169235Y767815D01*
G01X-1152390Y754574D01*
G01X-1133605Y744270D01*
G01X-1133605Y728485D01*
G01X-1153646Y717341D01*
G01X-1171426Y702858D01*
G01X-1186394Y685485D01*
G01X-1198087Y665758D01*
G01X-1206145Y644289D01*
G01X-1210317Y621739D01*
G01X-1210475Y598808D01*
G01X-1206615Y576204D01*
G01X-1198854Y554625D01*
G01X-1187434Y534739D01*
G01X-1172707Y517161D01*
G01X-1155129Y502434D01*
G01X-1135243Y491014D01*
G01X-1113664Y483254D01*
G01X-1091060Y479393D01*
G01X-1068129Y479551D01*
G01X-1045580Y483723D01*
G01X-1024110Y491781D01*
G01X-1004384Y503474D01*
G01X-987010Y518442D01*
G01X-972528Y536222D01*
G01X-961383Y556264D01*
G01X-694878Y556264D01*
G01X-397293Y258678D01*
G01X-402928Y237567D01*
G01X-404814Y215799D01*
G01X-402893Y194034D01*
G01X-397224Y172932D01*
G01X-387978Y153135D01*
G01X-375436Y135243D01*
G01X-359980Y119799D01*
G01X-342078Y107272D01*
G01X-322273Y98042D01*
G01X-301167Y92390D01*
G01X-279400Y90486D01*
G01X-257633Y92390D01*
G01X-236527Y98042D01*
G01X-216722Y107272D01*
G01X-198820Y119799D01*
G01X-183364Y135243D01*
G01X-170822Y153135D01*
G01X-161576Y172932D01*
G01X-155907Y194034D01*
G01X-153986Y215799D01*
G01X-155872Y237567D01*
G01X-161507Y258678D01*
G01X-130399Y289786D01*
G01X-126738Y289786D01*
G01X-126738Y289786D01*
G01X-137436Y272260D01*
G01X-145131Y253224D01*
G01X-149617Y233187D01*
G01X-150773Y212687D01*
G01X-148568Y192273D01*
G01X-143062Y172492D01*
G01X-134402Y153875D01*
G01X-122821Y136920D01*
G01X-108628Y122083D01*
G01X-92205Y109760D01*
G01X-92205Y-889911D01*
G01X-110559Y-900465D01*
G01X-126876Y-913955D01*
G01X-140692Y-929998D01*
G01X-151612Y-948136D01*
G01X-159325Y-967853D01*
G01X-163612Y-988587D01*
G01X-164350Y-1009746D01*
G01X-161518Y-1030727D01*
G01X-155197Y-1050934D01*
G01X-145568Y-1069789D01*
G01X-132904Y-1086755D01*
G01X-117566Y-1101350D01*
G01X-99992Y-1113157D01*
G01X-80682Y-1121839D01*
G01X-60187Y-1127149D01*
G01X-39091Y-1128936D01*
G01X-17994Y-1127149D01*
G01X2501Y-1121839D01*
G01X21811Y-1113157D01*
G01X39385Y-1101350D01*
G01X54722Y-1086755D01*
G01X67387Y-1069789D01*
G01X77016Y-1050934D01*
G01X83337Y-1030727D01*
G01X86169Y-1009746D01*
G01X85431Y-988587D01*
G01X81144Y-967853D01*
G01X73430Y-948136D01*
G01X62510Y-929998D01*
G01X48695Y-913955D01*
G01X32377Y-900465D01*
G01X14023Y-889911D01*
G01X14023Y96844D01*
G01X14023Y96844D01*
G01X33708Y105289D01*
G01X51669Y116960D01*
G01X67381Y131518D01*
G01X80387Y148538D01*
G01X90307Y167522D01*
G01X96852Y187917D01*
G01X99831Y209129D01*
G01X99157Y230538D01*
G01X94849Y251521D01*
G01X87033Y271464D01*
G01X75938Y289786D01*
G01X127262Y289786D01*
G01X127262Y289786D01*
G01X116564Y272260D01*
G01X108869Y253224D01*
G01X104383Y233187D01*
G01X103227Y212687D01*
G01X105432Y192273D01*
G01X110938Y172492D01*
G01X119598Y153875D01*
G01X131179Y136920D01*
G01X145372Y122083D01*
G01X161795Y109760D01*
G01X161795Y-889911D01*
G01X143441Y-900465D01*
G01X127124Y-913955D01*
G01X113308Y-929998D01*
G01X102388Y-948136D01*
G01X94675Y-967853D01*
G01X90388Y-988587D01*
G01X89650Y-1009746D01*
G01X92482Y-1030727D01*
G01X98803Y-1050934D01*
G01X108432Y-1069789D01*
G01X121096Y-1086755D01*
G01X136434Y-1101350D01*
G01X154008Y-1113157D01*
G01X173318Y-1121839D01*
G01X193813Y-1127149D01*
G01X214909Y-1128936D01*
G01X236006Y-1127149D01*
G01X256501Y-1121839D01*
G01X275811Y-1113157D01*
G01X293385Y-1101350D01*
G01X308722Y-1086755D01*
G01X321387Y-1069789D01*
G01X331016Y-1050934D01*
G01X337337Y-1030727D01*
G01X340169Y-1009746D01*
G01X339431Y-988587D01*
G01X335144Y-967853D01*
G01X327430Y-948136D01*
G01X316510Y-929998D01*
G01X302695Y-913955D01*
G01X286377Y-900465D01*
G01X268023Y-889911D01*
G01X268023Y96844D01*
G01X268023Y96844D01*
G01X287708Y105289D01*
G01X305669Y116960D01*
G01X321381Y131518D01*
G01X334387Y148538D01*
G01X344307Y167522D01*
G01X350852Y187917D01*
G01X353831Y209129D01*
G01X353157Y230538D01*
G01X348849Y251521D01*
G01X341033Y271464D01*
G01X329938Y289786D01*
G01X381262Y289786D01*
G01X381262Y289786D01*
G01X370564Y272260D01*
G01X362869Y253224D01*
G01X358383Y233187D01*
G01X357227Y212687D01*
G01X359432Y192273D01*
G01X364938Y172492D01*
G01X373598Y153875D01*
G01X385179Y136920D01*
G01X399372Y122083D01*
G01X415795Y109760D01*
G01X415795Y-889911D01*
G01X397441Y-900465D01*
G01X381124Y-913955D01*
G01X367308Y-929998D01*
G01X356388Y-948136D01*
G01X348675Y-967853D01*
G01X344388Y-988587D01*
G01X343650Y-1009746D01*
G01X346482Y-1030727D01*
G01X352803Y-1050934D01*
G01X362432Y-1069789D01*
G01X375096Y-1086755D01*
G01X390434Y-1101350D01*
G01X408008Y-1113157D01*
G01X427318Y-1121839D01*
G01X447813Y-1127149D01*
G01X468909Y-1128936D01*
G01X490006Y-1127149D01*
G01X510501Y-1121839D01*
G01X529811Y-1113157D01*
G01X547385Y-1101350D01*
G01X562722Y-1086755D01*
G01X575387Y-1069789D01*
G01X585016Y-1050934D01*
G01X591337Y-1030727D01*
G01X594169Y-1009746D01*
G01X593431Y-988587D01*
G01X589144Y-967853D01*
G01X581430Y-948136D01*
G01X570510Y-929998D01*
G01X556695Y-913955D01*
G01X540377Y-900465D01*
G01X522023Y-889911D01*
G01X522023Y96844D01*
G01X522023Y96844D01*
G01X541708Y105289D01*
G01X559669Y116960D01*
G01X575381Y131518D01*
G01X588387Y148538D01*
G01X598307Y167522D01*
G01X604852Y187917D01*
G01X607831Y209129D01*
G01X607157Y230538D01*
G01X602849Y251521D01*
G01X595033Y271464D01*
G01X583938Y289786D01*
G01X635262Y289786D01*
G01X635262Y289786D01*
G01X624564Y272260D01*
G01X616869Y253224D01*
G01X612383Y233187D01*
G01X611227Y212687D01*
G01X613432Y192273D01*
G01X618938Y172492D01*
G01X627598Y153875D01*
G01X639179Y136920D01*
G01X653372Y122083D01*
G01X669795Y109760D01*
G01X669795Y-878109D01*
G01X637910Y-878109D01*
G01X625421Y-880087D01*
G01X614155Y-885827D01*
G01X605214Y-894768D01*
G01X599474Y-906034D01*
G01X597496Y-918523D01*
G01X597496Y-1088522D01*
G01X599474Y-1101011D01*
G01X605214Y-1112277D01*
G01X614155Y-1121218D01*
G01X625421Y-1126958D01*
G01X637910Y-1128936D01*
G01X807909Y-1128936D01*
G01X820398Y-1126958D01*
G01X831664Y-1121218D01*
G01X840605Y-1112277D01*
G01X846345Y-1101011D01*
G01X848323Y-1088522D01*
G01X848323Y-918523D01*
G01X846345Y-906034D01*
G01X840605Y-894768D01*
G01X831664Y-885827D01*
G01X820398Y-880087D01*
G01X807909Y-878109D01*
G01X776023Y-878109D01*
G01X776023Y96844D01*
G01X776023Y96844D01*
G01X795708Y105289D01*
G01X813669Y116960D01*
G01X829381Y131518D01*
G01X842387Y148538D01*
G01X852307Y167522D01*
G01X858852Y187917D01*
G01X861831Y209129D01*
G01X861157Y230538D01*
G01X856849Y251521D01*
G01X849033Y271464D01*
G01X837938Y289786D01*
G01X889262Y289786D01*
G01X889262Y289786D01*
G01X878262Y271656D01*
G01X870474Y251932D01*
G01X866120Y231177D01*
G01X865326Y209986D01*
G01X868113Y188964D01*
G01X874402Y168712D01*
G01X884014Y149809D01*
G01X896673Y132796D01*
G01X912017Y118159D01*
G01X929609Y106316D01*
G01X948944Y97606D01*
G01X969470Y92279D01*
G01X990600Y90486D01*
G01X1011730Y92279D01*
G01X1032256Y97606D01*
G01X1051591Y106316D01*
G01X1069183Y118159D01*
G01X1084527Y132796D01*
G01X1097186Y149809D01*
G01X1106798Y168712D01*
G01X1113087Y188964D01*
G01X1115874Y209986D01*
G01X1115080Y231177D01*
G01X1110726Y251932D01*
G01X1102938Y271656D01*
G01X1091938Y289786D01*
G01X1125446Y289786D01*
G01X1125446Y130900D01*
G01X1127424Y118412D01*
G01X1133164Y107145D01*
G01X1142105Y98205D01*
G01X1153371Y92464D01*
G01X1165860Y90486D01*
G01X1191486Y90486D01*
G01X1191486Y-982919D01*
G01X311694Y-1862711D01*
G01X311694Y-1862711D01*
G01X291714Y-1858277D01*
G01X271265Y-1857442D01*
G01X250991Y-1860231D01*
G01X231527Y-1866558D01*
G01X213487Y-1876223D01*
G01X197438Y-1888922D01*
G01X183885Y-1904256D01*
G01X173252Y-1921743D01*
G01X165876Y-1940833D01*
G01X161987Y-1960926D01*
G01X161709Y-1981390D01*
G01X165049Y-2001581D01*
G01X171903Y-2020865D01*
G01X182055Y-2038635D01*
G01X195187Y-2054333D01*
G01X210884Y-2067464D01*
G01X228654Y-2077617D01*
G01X247938Y-2084471D01*
G01X268129Y-2087811D01*
G01X288593Y-2087532D01*
G01X308686Y-2083644D01*
G01X327776Y-2076267D01*
G01X345263Y-2065635D01*
G01X360598Y-2052081D01*
G01X373297Y-2036032D01*
G01X382962Y-2017992D01*
G01X389288Y-1998529D01*
G01X392078Y-1978254D01*
G01X391242Y-1957806D01*
G01X386808Y-1937826D01*
G01X1282157Y-1042477D01*
G01X1290598Y-1031476D01*
G01X1295904Y-1018666D01*
G01X1297714Y-1004920D01*
G01X1297714Y90486D01*
G01X1323340Y90486D01*
G01X1335829Y92464D01*
G01X1347095Y98205D01*
G01X1356036Y107145D01*
G01X1361776Y118412D01*
G01X1363754Y130900D01*
G01X1363754Y289786D01*
G01X1374999Y289786D01*
G01X1876295Y-211510D01*
G01X1876295Y-226764D01*
G01X1856350Y-237313D01*
G01X1838432Y-251027D01*
G01X1823041Y-267526D01*
G01X1810602Y-286351D01*
G01X1801463Y-306981D01*
G01X1795875Y-328842D01*
G01X1793996Y-351327D01*
G01X1795875Y-373812D01*
G01X1801463Y-395672D01*
G01X1810602Y-416302D01*
G01X1823041Y-435128D01*
G01X1838432Y-451626D01*
G01X1856350Y-465341D01*
G01X1876295Y-475889D01*
G01X1876295Y-1554624D01*
G01X1876295Y-1554624D01*
G01X1853460Y-1554806D01*
G01X1831007Y-1558968D01*
G01X1809623Y-1566983D01*
G01X1789966Y-1578605D01*
G01X1772637Y-1593478D01*
G01X1758168Y-1611145D01*
G01X1747003Y-1631066D01*
G01X1739484Y-1652628D01*
G01X1735841Y-1675172D01*
G01X1736187Y-1698005D01*
G01X1740510Y-1720428D01*
G01X1748678Y-1741754D01*
G01X1760440Y-1761327D01*
G01X1775437Y-1778549D01*
G01X1793207Y-1792891D01*
G01X1793207Y-1792891D01*
G01X1813207Y-1803913D01*
G01X1834823Y-1811278D01*
G01X1857392Y-1814759D01*
G01X1880223Y-1814250D01*
G01X1902614Y-1809766D01*
G01X1923881Y-1801446D01*
G01X1943369Y-1789543D01*
G01X1960483Y-1774423D01*
G01X1974697Y-1756550D01*
G01X1985576Y-1736472D01*
G01X1992785Y-1714804D01*
G01X1996105Y-1692210D01*
G01X1995432Y-1669384D01*
G01X1990788Y-1647025D01*
G01X1982316Y-1625819D01*
G01X1982316Y-1625819D01*
G01X1982523Y-1621126D01*
G01X1982523Y-475889D01*
G01X2002469Y-465341D01*
G01X2020387Y-451626D01*
G01X2035778Y-435128D01*
G01X2048216Y-416302D01*
G01X2057356Y-395672D01*
G01X2062943Y-373812D01*
G01X2064823Y-351327D01*
G01X2062943Y-328842D01*
G01X2057356Y-306981D01*
G01X2048216Y-286351D01*
G01X2035778Y-267526D01*
G01X2020387Y-251027D01*
G01X2002469Y-237313D01*
G01X1982523Y-226764D01*
G01X1982523Y-189509D01*
G01X1980714Y-175763D01*
G01X1975407Y-162952D01*
G01X1966967Y-151952D01*
G01X1434557Y380457D01*
G01X1423557Y388898D01*
G01X1410747Y394204D01*
G01X1397000Y396014D01*
G01X-152400Y396014D01*
G01X-166147Y394204D01*
G01X-178957Y388898D01*
G01X-189957Y380457D01*
G01X-236622Y333793D01*
G01X-257683Y339419D01*
G01X-279400Y341314D01*
G01X-301117Y339419D01*
G01X-322178Y333793D01*
G01X-635320Y646935D01*
G01X-646321Y655376D01*
G01X-659131Y660682D01*
G01X-672877Y662491D01*
G01X-961383Y662491D01*
G01X-970403Y679295D01*
G01X-981778Y694604D01*
G01X-995264Y708090D01*
G01X-1010573Y719465D01*
G01X-1027377Y728485D01*
G01X-1027377Y744270D01*
G01X-1008591Y754574D01*
G01X-991747Y767815D01*
G01X-977297Y783635D01*
G01X-965633Y801607D01*
G01X-957069Y821247D01*
G01X-951837Y842024D01*
G01X-950077Y863377D01*
G01X-951837Y884731D01*
G01X-957069Y905508D01*
G01X-965633Y925148D01*
G01X-977297Y943120D01*
G01X-991747Y958940D01*
G01X-1008591Y972181D01*
G01X-1027377Y982485D01*
G01X-1027377Y998224D01*
G01X-990491Y998224D01*
G01X-978002Y1000202D01*
G01X-966736Y1005942D01*
G01X-957795Y1014883D01*
G01X-952055Y1026149D01*
G01X-950077Y1038637D01*
G01X-950077Y1196117D01*
G01X-952055Y1208606D01*
G01X-957795Y1219872D01*
G01X-966736Y1228813D01*
G01X-978002Y1234553D01*
G01X-990491Y1236531D01*
G01X-1170490Y1236531D01*
G01X-1182979Y1234553D01*
G01X-1194245Y1228813D01*
G01X-1203186Y1219872D01*
G01X-1208926Y1208606D01*
G01X-1210904Y1196117D01*
G01X-1210904Y1170491D01*
G01X-1515690Y1170491D01*
G01X-1830876Y1485677D01*
G01X-659804Y1485677D01*
G01X-657899Y1463900D01*
G01X-652241Y1442783D01*
G01X-643002Y1422971D01*
G01X-630463Y1405063D01*
G01X-615005Y1389605D01*
G01X-597097Y1377066D01*
G01X-577285Y1367827D01*
G01X-556168Y1362169D01*
G01X-534391Y1360264D01*
G01X-512613Y1362169D01*
G01X-491497Y1367827D01*
G01X-471684Y1377066D01*
G01X-453776Y1389605D01*
G01X-438318Y1405063D01*
G01X-425779Y1422971D01*
G01X-416540Y1442783D01*
G01X-410882Y1463900D01*
G01X-408977Y1485677D01*
G01X-408977Y1485677D01*
G01X-405804Y1485677D01*
G01X-403899Y1463900D01*
G01X-398241Y1442783D01*
G01X-389002Y1422971D01*
G01X-376463Y1405063D01*
G01X-361005Y1389605D01*
G01X-343097Y1377066D01*
G01X-323285Y1367827D01*
G01X-302168Y1362169D01*
G01X-280391Y1360264D01*
G01X-258613Y1362169D01*
G01X-237497Y1367827D01*
G01X-217684Y1377066D01*
G01X-199776Y1389605D01*
G01X-184318Y1405063D01*
G01X-171779Y1422971D01*
G01X-162540Y1442783D01*
G01X-156882Y1463900D01*
G01X-154977Y1485677D01*
G01X-151804Y1485677D01*
G01X-150017Y1464581D01*
G01X-144707Y1444086D01*
G01X-136025Y1424776D01*
G01X-124218Y1407202D01*
G01X-109624Y1391864D01*
G01X-92657Y1379200D01*
G01X-73802Y1369571D01*
G01X-53595Y1363250D01*
G01X-32614Y1360418D01*
G01X-11455Y1361156D01*
G01X9279Y1365443D01*
G01X28995Y1373156D01*
G01X47134Y1384076D01*
G01X63177Y1397892D01*
G01X76667Y1414209D01*
G01X87221Y1432564D01*
G01X113998Y1432564D01*
G01X124552Y1414209D01*
G01X138042Y1397892D01*
G01X154085Y1384076D01*
G01X172223Y1373156D01*
G01X191940Y1365443D01*
G01X212673Y1361156D01*
G01X233832Y1360418D01*
G01X254814Y1363250D01*
G01X275020Y1369571D01*
G01X293876Y1379200D01*
G01X310842Y1391864D01*
G01X325437Y1407202D01*
G01X337244Y1424776D01*
G01X345926Y1444086D01*
G01X351236Y1464581D01*
G01X353023Y1485677D01*
G01X353023Y1485677D01*
G01X351236Y1506774D01*
G01X345926Y1527269D01*
G01X337244Y1546579D01*
G01X325437Y1564153D01*
G01X310842Y1579491D01*
G01X293876Y1592155D01*
G01X275020Y1601784D01*
G01X254814Y1608105D01*
G01X233832Y1610937D01*
G01X212673Y1610199D01*
G01X191940Y1605912D01*
G01X172223Y1598199D01*
G01X154085Y1587279D01*
G01X138042Y1573463D01*
G01X124552Y1557146D01*
G01X113998Y1538791D01*
G01X87221Y1538791D01*
G01X76667Y1557146D01*
G01X63177Y1573463D01*
G01X47134Y1587279D01*
G01X28995Y1598199D01*
G01X9279Y1605912D01*
G01X-11455Y1610199D01*
G01X-32614Y1610937D01*
G01X-53595Y1608105D01*
G01X-73802Y1601784D01*
G01X-92657Y1592155D01*
G01X-109624Y1579491D01*
G01X-124218Y1564153D01*
G01X-136025Y1546579D01*
G01X-144707Y1527269D01*
G01X-150017Y1506774D01*
G01X-151804Y1485677D01*
G01X-154977Y1485677D01*
G01X-154977Y1485677D01*
G01X-154977Y1485677D01*
G01X-156882Y1507455D01*
G01X-162540Y1528572D01*
G01X-171779Y1548384D01*
G01X-184318Y1566292D01*
G01X-199776Y1581750D01*
G01X-217684Y1594289D01*
G01X-237497Y1603528D01*
G01X-258613Y1609186D01*
G01X-280391Y1611091D01*
G01X-302168Y1609186D01*
G01X-323285Y1603528D01*
G01X-343097Y1594289D01*
G01X-361005Y1581750D01*
G01X-376463Y1566292D01*
G01X-389002Y1548384D01*
G01X-398241Y1528572D01*
G01X-403899Y1507455D01*
G01X-405804Y1485677D01*
G01X-408977Y1485677D01*
G01X-410882Y1507455D01*
G01X-416540Y1528572D01*
G01X-425779Y1548384D01*
G01X-438318Y1566292D01*
G01X-453776Y1581750D01*
G01X-471684Y1594289D01*
G01X-491497Y1603528D01*
G01X-512613Y1609186D01*
G01X-534391Y1611091D01*
G01X-556168Y1609186D01*
G01X-577285Y1603528D01*
G01X-597097Y1594289D01*
G01X-615005Y1581750D01*
G01X-630463Y1566292D01*
G01X-643002Y1548384D01*
G01X-652241Y1528572D01*
G01X-657899Y1507455D01*
G01X-659804Y1485677D01*
G01X-1830876Y1485677D01*
G01X-2337174Y1991976D01*
G01X-1210893Y1991976D01*
G01X-1208742Y1970026D01*
G01X-1202922Y1948752D01*
G01X-1193601Y1928764D01*
G01X-1181045Y1910632D01*
G01X-1165613Y1894875D01*
G01X-1147747Y1881944D01*
G01X-1127957Y1872209D01*
G01X-1106810Y1865947D01*
G01X-1084909Y1863339D01*
G01X-1062883Y1864458D01*
G01X-1041360Y1869273D01*
G01X-1020956Y1877646D01*
G01X-1002255Y1889337D01*
G01X-985791Y1904012D01*
G01X-972036Y1921252D01*
G01X-961383Y1940564D01*
G01X-48391Y1940564D01*
G01X363717Y1528456D01*
G01X363717Y1528456D01*
G01X358201Y1508015D01*
G01X356202Y1486938D01*
G01X357777Y1465824D01*
G01X362881Y1445277D01*
G01X371369Y1425881D01*
G01X382998Y1408189D01*
G01X397438Y1392705D01*
G01X414277Y1379871D01*
G01X433034Y1370053D01*
G01X453176Y1363529D01*
G01X474128Y1360487D01*
G01X495293Y1361013D01*
G01X516069Y1365091D01*
G01X535862Y1372606D01*
G01X554109Y1383343D01*
G01X570290Y1396997D01*
G01X583944Y1413178D01*
G01X594681Y1431425D01*
G01X602196Y1451218D01*
G01X606274Y1471993D01*
G01X606614Y1485677D01*
G01X610196Y1485677D01*
G01X612101Y1463900D01*
G01X617759Y1442783D01*
G01X626998Y1422971D01*
G01X639537Y1405063D01*
G01X654995Y1389605D01*
G01X672903Y1377066D01*
G01X692715Y1367827D01*
G01X713832Y1362169D01*
G01X735609Y1360264D01*
G01X757387Y1362169D01*
G01X778503Y1367827D01*
G01X798316Y1377066D01*
G01X816224Y1389605D01*
G01X831682Y1405063D01*
G01X844221Y1422971D01*
G01X853460Y1442783D01*
G01X859118Y1463900D01*
G01X861023Y1485677D01*
G01X861023Y1485677D01*
G01X859118Y1507455D01*
G01X853460Y1528572D01*
G01X844221Y1548384D01*
G01X831682Y1566292D01*
G01X816224Y1581750D01*
G01X798316Y1594289D01*
G01X778503Y1603528D01*
G01X757387Y1609186D01*
G01X735609Y1611091D01*
G01X713832Y1609186D01*
G01X692715Y1603528D01*
G01X672903Y1594289D01*
G01X654995Y1581750D01*
G01X639537Y1566292D01*
G01X626998Y1548384D01*
G01X617759Y1528572D01*
G01X612101Y1507455D01*
G01X610196Y1485677D01*
G01X606614Y1485677D01*
G01X606800Y1493159D01*
G01X603757Y1514111D01*
G01X597234Y1534253D01*
G01X587415Y1553010D01*
G01X574581Y1569849D01*
G01X559098Y1584289D01*
G01X541406Y1595918D01*
G01X522010Y1604406D01*
G01X501463Y1609510D01*
G01X480349Y1611085D01*
G01X459272Y1609086D01*
G01X438831Y1603570D01*
G01X11167Y2031235D01*
G01X166Y2039676D01*
G01X-12644Y2044982D01*
G01X-26391Y2046791D01*
G01X-961383Y2046791D01*
G01X-970916Y2064397D01*
G01X-983032Y2080336D01*
G01X-997445Y2094232D01*
G01X-1013815Y2105759D01*
G01X-1031757Y2114643D01*
G01X-1050847Y2120677D01*
G01X-1050847Y2120677D01*
G01X-1029631Y2127590D01*
G01X-1009903Y2138018D01*
G01X-992242Y2151657D01*
G01X-977165Y2168106D01*
G01X-965113Y2186885D01*
G01X-956438Y2207444D01*
G01X-951395Y2229181D01*
G01X-950132Y2251459D01*
G01X-952684Y2273626D01*
G01X-958979Y2295034D01*
G01X-968831Y2315056D01*
G01X-981951Y2333104D01*
G01X-997957Y2348652D01*
G01X-1016378Y2361244D01*
G01X-1036677Y2370511D01*
G01X-1058258Y2376182D01*
G01X-1080491Y2378091D01*
G01X-1080491Y2378091D01*
G01X-1102723Y2376182D01*
G01X-1124304Y2370511D01*
G01X-1144603Y2361244D01*
G01X-1163024Y2348652D01*
G01X-1179030Y2333104D01*
G01X-1192151Y2315056D01*
G01X-1202002Y2295034D01*
G01X-1208297Y2273626D01*
G01X-1210850Y2251459D01*
G01X-1209586Y2229181D01*
G01X-1204543Y2207444D01*
G01X-1195868Y2186885D01*
G01X-1183816Y2168106D01*
G01X-1168739Y2151657D01*
G01X-1151078Y2138018D01*
G01X-1131351Y2127590D01*
G01X-1110134Y2120677D01*
G01X-1110134Y2120677D01*
G01X-1131111Y2113866D01*
G01X-1150640Y2103617D01*
G01X-1168163Y2090224D01*
G01X-1183178Y2074070D01*
G01X-1195257Y2055617D01*
G01X-1204053Y2035392D01*
G01X-1209315Y2013974D01*
G01X-1210893Y1991976D01*
G01X-2337174Y1991976D01*
G01X-2631763Y2286564D01*
G01X-2612883Y2294433D01*
G01X-2595626Y2305415D01*
G01X-2580502Y2319186D01*
G01X-2567957Y2335341D01*
G01X-2558359Y2353403D01*
G01X-2551991Y2372841D01*
G01X-2549042Y2393082D01*
G01X-2549232Y2400077D01*
G01X-2533145Y2400077D01*
G01X-2531334Y2379387D01*
G01X-2525959Y2359324D01*
G01X-2517181Y2340501D01*
G01X-2505268Y2323487D01*
G01X-2490581Y2308800D01*
G01X-2473568Y2296887D01*
G01X-2454744Y2288109D01*
G01X-2434681Y2282734D01*
G01X-2413991Y2280924D01*
G01X-2393300Y2282734D01*
G01X-2373238Y2288109D01*
G01X-2354414Y2296887D01*
G01X-2337400Y2308800D01*
G01X-2322713Y2323487D01*
G01X-2310800Y2340501D01*
G01X-2302023Y2359324D01*
G01X-2296647Y2379387D01*
G01X-2294837Y2400077D01*
G01X-2296647Y2420768D01*
G01X-2302023Y2440831D01*
G01X-2310800Y2459654D01*
G01X-2322713Y2476668D01*
G01X-2337400Y2491355D01*
G01X-2354414Y2503268D01*
G01X-2373238Y2512046D01*
G01X-2393300Y2517421D01*
G01X-2413991Y2519231D01*
G01X-2434681Y2517421D01*
G01X-2454744Y2512046D01*
G01X-2473568Y2503268D01*
G01X-2490581Y2491355D01*
G01X-2505268Y2476668D01*
G01X-2517181Y2459654D01*
G01X-2525959Y2440831D01*
G01X-2531334Y2420768D01*
G01X-2533145Y2400077D01*
G01X-2533145Y2400077D01*
G01X-2549232Y2400077D01*
G01X-2549598Y2413529D01*
G01X-2553643Y2433579D01*
G01X-2561058Y2452642D01*
G01X-2571624Y2470156D01*
G01X-2571624Y2470156D01*
G01X-2585029Y2485606D01*
G01X-2600879Y2498534D01*
G01X-2618707Y2508562D01*
G01X-2637987Y2515392D01*
G01X-2658152Y2518825D01*
G01X-2678606Y2518758D01*
G01X-2698747Y2515193D01*
G01X-2717982Y2508237D01*
G01X-2735744Y2498093D01*
G01X-2751510Y2485061D01*
G01X-2764814Y2469525D01*
G01X-2770133Y2475735D01*
G01X-2846333Y2551935D01*
G01X-2857334Y2560376D01*
G01X-2870144Y2565682D01*
G01X-2883891Y2567491D01*
G01X-3061691Y2567491D01*
G01X-3075437Y2565682D01*
G01X-3088248Y2560376D01*
G01X-3099248Y2551935D01*
G01X-3138127Y2513055D01*
G01X-3157855Y2517843D01*
G01X-3178110Y2519213D01*
G01X-3198303Y2517124D01*
G01X-3217848Y2511637D01*
G01X-3236178Y2502913D01*
G01X-3252762Y2491203D01*
G01X-3267116Y2476848D01*
G01X-3278826Y2460265D01*
G01X-3287551Y2441935D01*
G01X-3293037Y2422390D01*
G01X-3295126Y2402197D01*
G01X-3293756Y2381942D01*
G01X-3288969Y2362214D01*
G01X-3310837Y2340346D01*
G01X-3310837Y2478817D01*
G01X-3312815Y2491306D01*
G01X-3318555Y2502572D01*
G01X-3327496Y2511513D01*
G01X-3338762Y2517253D01*
G01X-3351251Y2519231D01*
G01X-3508731Y2519231D01*
G01X-3521219Y2517253D01*
G01X-3532485Y2511513D01*
G01X-3541426Y2502572D01*
G01X-3547167Y2491306D01*
G01X-3549145Y2478817D01*
G01X-3549145Y2321337D01*
G01X-3547167Y2308849D01*
G01X-3541426Y2297583D01*
G01X-3532485Y2288642D01*
G01X-3521219Y2282902D01*
G01X-3508731Y2280924D01*
G01X-3370259Y2280924D01*
G01X-4620378Y1030804D01*
G01X-5201877Y1030804D01*
G01X-5201877Y1057690D01*
G01X-5203855Y1070179D01*
G01X-5209595Y1081445D01*
G01X-5218536Y1090386D01*
G01X-5229802Y1096126D01*
G01X-5242291Y1098104D01*
G01X-5269177Y1098104D01*
G01X-5269177Y1717497D01*
G01X-5270986Y1731244D01*
G01X-5276293Y1744054D01*
G01X-5284733Y1755054D01*
G01X-6179856Y2650177D01*
G01X-5295304Y2650177D01*
G01X-5295304Y2480178D01*
G01X-5293326Y2467689D01*
G01X-5287586Y2456423D01*
G01X-5278645Y2447482D01*
G01X-5267379Y2441742D01*
G01X-5254890Y2439764D01*
G01X-5084891Y2439764D01*
G01X-5084891Y2439764D01*
G01X-5072402Y2441742D01*
G01X-5061136Y2447482D01*
G01X-5052195Y2456423D01*
G01X-5046455Y2467689D01*
G01X-5044477Y2480178D01*
G01X-5044477Y2565177D01*
G01X-5041304Y2565177D01*
G01X-5039399Y2543400D01*
G01X-5033741Y2522283D01*
G01X-5024502Y2502471D01*
G01X-5011963Y2484563D01*
G01X-4996505Y2469105D01*
G01X-4978597Y2456566D01*
G01X-4958785Y2447327D01*
G01X-4937668Y2441669D01*
G01X-4915891Y2439764D01*
G01X-4894113Y2441669D01*
G01X-4872997Y2447327D01*
G01X-4853184Y2456566D01*
G01X-4835276Y2469105D01*
G01X-4819818Y2484563D01*
G01X-4807279Y2502471D01*
G01X-4798040Y2522283D01*
G01X-4792382Y2543400D01*
G01X-4790477Y2565177D01*
G01X-4787304Y2565177D01*
G01X-4785399Y2543400D01*
G01X-4779741Y2522283D01*
G01X-4770502Y2502471D01*
G01X-4757963Y2484563D01*
G01X-4742505Y2469105D01*
G01X-4724597Y2456566D01*
G01X-4704785Y2447327D01*
G01X-4683668Y2441669D01*
G01X-4661891Y2439764D01*
G01X-4640113Y2441669D01*
G01X-4618997Y2447327D01*
G01X-4599184Y2456566D01*
G01X-4581276Y2469105D01*
G01X-4565818Y2484563D01*
G01X-4553279Y2502471D01*
G01X-4544040Y2522283D01*
G01X-4538382Y2543400D01*
G01X-4536477Y2565177D01*
G01X-4533304Y2565177D01*
G01X-4531399Y2543400D01*
G01X-4525741Y2522283D01*
G01X-4516502Y2502471D01*
G01X-4503963Y2484563D01*
G01X-4488505Y2469105D01*
G01X-4470597Y2456566D01*
G01X-4450785Y2447327D01*
G01X-4429668Y2441669D01*
G01X-4407891Y2439764D01*
G01X-4386113Y2441669D01*
G01X-4364997Y2447327D01*
G01X-4345184Y2456566D01*
G01X-4327276Y2469105D01*
G01X-4311818Y2484563D01*
G01X-4299279Y2502471D01*
G01X-4290040Y2522283D01*
G01X-4284382Y2543400D01*
G01X-4282477Y2565177D01*
G01X-4283810Y2580417D01*
G01X-1210904Y2580417D01*
G01X-1210904Y2422937D01*
G01X-1208926Y2410449D01*
G01X-1203186Y2399183D01*
G01X-1194245Y2390242D01*
G01X-1182979Y2384502D01*
G01X-1170490Y2382524D01*
G01X-990491Y2382524D01*
G01X-978002Y2384502D01*
G01X-966736Y2390242D01*
G01X-957795Y2399183D01*
G01X-952055Y2410449D01*
G01X-950077Y2422937D01*
G01X-950077Y2448564D01*
G01X-48391Y2448564D01*
G01X871717Y1528456D01*
G01X871717Y1528456D01*
G01X866201Y1508015D01*
G01X864202Y1486938D01*
G01X865777Y1465824D01*
G01X870881Y1445277D01*
G01X879369Y1425881D01*
G01X890998Y1408189D01*
G01X905438Y1392705D01*
G01X922277Y1379871D01*
G01X941034Y1370053D01*
G01X961176Y1363529D01*
G01X982128Y1360487D01*
G01X1003293Y1361013D01*
G01X1024069Y1365091D01*
G01X1043862Y1372606D01*
G01X1062109Y1383343D01*
G01X1078290Y1396997D01*
G01X1081396Y1400678D01*
G01X1124455Y1400678D01*
G01X1126433Y1388189D01*
G01X1132174Y1376923D01*
G01X1141115Y1367982D01*
G01X1152381Y1362242D01*
G01X1164869Y1360264D01*
G01X1322349Y1360264D01*
G01X1334838Y1362242D01*
G01X1346104Y1367982D01*
G01X1355045Y1376923D01*
G01X1360785Y1388189D01*
G01X1362763Y1400678D01*
G01X1362763Y1570677D01*
G01X1360785Y1583166D01*
G01X1355045Y1594432D01*
G01X1346104Y1603373D01*
G01X1334838Y1609113D01*
G01X1322349Y1611091D01*
G01X1164869Y1611091D01*
G01X1164869Y1611091D01*
G01X1152381Y1609113D01*
G01X1141115Y1603373D01*
G01X1132174Y1594432D01*
G01X1126433Y1583166D01*
G01X1124455Y1570677D01*
G01X1124455Y1400678D01*
G01X1081396Y1400678D01*
G01X1091944Y1413178D01*
G01X1102681Y1431425D01*
G01X1110196Y1451218D01*
G01X1114274Y1471993D01*
G01X1114800Y1493159D01*
G01X1111757Y1514111D01*
G01X1105234Y1534253D01*
G01X1095415Y1553010D01*
G01X1082581Y1569849D01*
G01X1067098Y1584289D01*
G01X1049406Y1595918D01*
G01X1030010Y1604406D01*
G01X1009463Y1609510D01*
G01X988349Y1611085D01*
G01X967272Y1609086D01*
G01X946831Y1603570D01*
G01X740537Y1809864D01*
G01X1794458Y1809864D01*
G01X1794458Y1787499D01*
G01X1798139Y1765440D01*
G01X1805401Y1744287D01*
G01X1816046Y1724617D01*
G01X1829782Y1706968D01*
G01X1846237Y1691821D01*
G01X1864960Y1679589D01*
G01X1885441Y1670605D01*
G01X1907121Y1665115D01*
G01X1929409Y1663268D01*
G01X1951698Y1665115D01*
G01X1973378Y1670605D01*
G01X1993859Y1679589D01*
G01X2012582Y1691821D01*
G01X2029037Y1706968D01*
G01X2042773Y1724617D01*
G01X2053418Y1744287D01*
G01X2060680Y1765440D01*
G01X2064361Y1787499D01*
G01X2064361Y1809864D01*
G01X2060680Y1831924D01*
G01X2053418Y1853077D01*
G01X2042773Y1872746D01*
G01X2029037Y1890395D01*
G01X2012582Y1905542D01*
G01X1993859Y1917775D01*
G01X1973378Y1926758D01*
G01X1951698Y1932249D01*
G01X1929409Y1934095D01*
G01X1929409Y1934095D01*
G01X1907121Y1932249D01*
G01X1885441Y1926758D01*
G01X1864960Y1917775D01*
G01X1846237Y1905542D01*
G01X1829782Y1890395D01*
G01X1816046Y1872746D01*
G01X1805401Y1853077D01*
G01X1798139Y1831924D01*
G01X1794458Y1809864D01*
G01X740537Y1809864D01*
G01X11167Y2539235D01*
G01X166Y2547676D01*
G01X-12644Y2552982D01*
G01X-26391Y2554791D01*
G01X-950077Y2554791D01*
G01X-950077Y2580417D01*
G01X-952055Y2592906D01*
G01X-957795Y2604172D01*
G01X-966736Y2613113D01*
G01X-978002Y2618853D01*
G01X-990491Y2620831D01*
G01X-1170490Y2620831D01*
G01X-1182979Y2618853D01*
G01X-1194245Y2613113D01*
G01X-1203186Y2604172D01*
G01X-1208926Y2592906D01*
G01X-1210904Y2580417D01*
G01X-4283810Y2580417D01*
G01X-4284382Y2586955D01*
G01X-4290040Y2608072D01*
G01X-4299279Y2627884D01*
G01X-4311818Y2645792D01*
G01X-4327276Y2661250D01*
G01X-4345184Y2673789D01*
G01X-4364997Y2683028D01*
G01X-4386113Y2688686D01*
G01X-4407891Y2690591D01*
G01X-4429668Y2688686D01*
G01X-4450785Y2683028D01*
G01X-4470597Y2673789D01*
G01X-4488505Y2661250D01*
G01X-4503963Y2645792D01*
G01X-4516502Y2627884D01*
G01X-4525741Y2608072D01*
G01X-4531399Y2586955D01*
G01X-4533304Y2565177D01*
G01X-4533304Y2565177D01*
G01X-4536477Y2565177D01*
G01X-4538382Y2586955D01*
G01X-4544040Y2608072D01*
G01X-4553279Y2627884D01*
G01X-4565818Y2645792D01*
G01X-4581276Y2661250D01*
G01X-4599184Y2673789D01*
G01X-4618997Y2683028D01*
G01X-4640113Y2688686D01*
G01X-4661891Y2690591D01*
G01X-4683668Y2688686D01*
G01X-4704785Y2683028D01*
G01X-4724597Y2673789D01*
G01X-4742505Y2661250D01*
G01X-4757963Y2645792D01*
G01X-4770502Y2627884D01*
G01X-4779741Y2608072D01*
G01X-4785399Y2586955D01*
G01X-4787304Y2565177D01*
G01X-4787304Y2565177D01*
G01X-4790477Y2565177D01*
G01X-4792382Y2586955D01*
G01X-4798040Y2608072D01*
G01X-4807279Y2627884D01*
G01X-4819818Y2645792D01*
G01X-4835276Y2661250D01*
G01X-4853184Y2673789D01*
G01X-4872997Y2683028D01*
G01X-4894113Y2688686D01*
G01X-4915891Y2690591D01*
G01X-4937668Y2688686D01*
G01X-4958785Y2683028D01*
G01X-4978597Y2673789D01*
G01X-4996505Y2661250D01*
G01X-5011963Y2645792D01*
G01X-5024502Y2627884D01*
G01X-5033741Y2608072D01*
G01X-5039399Y2586955D01*
G01X-5041304Y2565177D01*
G01X-5041304Y2565177D01*
G01X-5044477Y2565177D01*
G01X-5044477Y2650177D01*
G01X-5046455Y2662666D01*
G01X-5052195Y2673932D01*
G01X-5061136Y2682873D01*
G01X-5072402Y2688613D01*
G01X-5084891Y2690591D01*
G01X-5254890Y2690591D01*
G01X-5267379Y2688613D01*
G01X-5278645Y2682873D01*
G01X-5287586Y2673932D01*
G01X-5293326Y2662666D01*
G01X-5295304Y2650177D01*
G01X-6179856Y2650177D01*
G01X-6396395Y2866716D01*
G01X-6396395Y2866716D01*
G01X-6392832Y2883968D01*
G01X-6392057Y2901567D01*
G01X-6394092Y2919066D01*
G01X-6398883Y2936017D01*
G01X2304993Y2936017D01*
G01X2304993Y2936017D01*
G01X2277449Y2911267D01*
G01X2252757Y2883671D01*
G01X2231208Y2853557D01*
G01X2213057Y2821280D01*
G01X2198520Y2787222D01*
G01X2187768Y2751787D01*
G01X2180928Y2715394D01*
G01X2178082Y2678473D01*
G01X2179263Y2641462D01*
G01X2184458Y2604797D01*
G01X2193604Y2568914D01*
G01X2206594Y2534237D01*
G01X2223273Y2501176D01*
G01X2243445Y2470122D01*
G01X2266870Y2441443D01*
G01X2293272Y2415478D01*
G01X2293272Y2415478D01*
G01X2322338Y2392534D01*
G01X2353725Y2372883D01*
G01X2387060Y2356758D01*
G01X2421949Y2344349D01*
G01X2457980Y2335803D01*
G01X2494726Y2331221D01*
G01X2531752Y2330658D01*
G01X2568620Y2334119D01*
G01X2604894Y2341565D01*
G01X2640145Y2352907D01*
G01X2673955Y2368011D01*
G01X2705924Y2386697D01*
G01X2735675Y2408746D01*
G01X2762855Y2433896D01*
G01X2787142Y2461849D01*
G01X2808249Y2492275D01*
G01X2808249Y-5822215D01*
G01X2808249Y-5822215D01*
G01X2787376Y-5792090D01*
G01X2763385Y-5764384D01*
G01X2736555Y-5739418D01*
G01X2707196Y-5717481D01*
G01X2675650Y-5698827D01*
G01X2642280Y-5683673D01*
G01X2607475Y-5672194D01*
G01X2571637Y-5664523D01*
G01X2535183Y-5660749D01*
G01X2498534Y-5660917D01*
G01X2462115Y-5665023D01*
G01X2426349Y-5673021D01*
G01X2391650Y-5684817D01*
G01X2358420Y-5700276D01*
G01X2327045Y-5719217D01*
G01X2297888Y-5741421D01*
G01X2271286Y-5766631D01*
G01X2271286Y-5766631D01*
G01X2247550Y-5794555D01*
G01X2226952Y-5824869D01*
G01X2209733Y-5857221D01*
G01X2196092Y-5891238D01*
G01X2186187Y-5926523D01*
G01X2180133Y-5962669D01*
G01X2177999Y-5999256D01*
G01X2179812Y-6035861D01*
G01X2185548Y-6072058D01*
G01X2195143Y-6107429D01*
G01X2208486Y-6141564D01*
G01X2225420Y-6174066D01*
G01X2245750Y-6204560D01*
G01X2269241Y-6232691D01*
G01X2295620Y-6258133D01*
G01X2324581Y-6280593D01*
G01X2355789Y-6299809D01*
G37*
G36*
G01X-5242291Y857276D02*
G01X-5229802Y859254D01*
G01X-5218536Y864995D01*
G01X-5209595Y873936D01*
G01X-5203855Y885202D01*
G01X-5201877Y897690D01*
G01X-5201877Y924576D01*
G01X-4598378Y924576D01*
G01X-4584631Y926386D01*
G01X-4571821Y931692D01*
G01X-4560821Y940133D01*
G01X-3213854Y2287100D01*
G01X-3213854Y2287100D01*
G01X-3194126Y2282312D01*
G01X-3173872Y2280942D01*
G01X-3153679Y2283031D01*
G01X-3134133Y2288518D01*
G01X-3115803Y2297242D01*
G01X-3099220Y2308952D01*
G01X-3084865Y2323307D01*
G01X-3073155Y2339890D01*
G01X-3064431Y2358220D01*
G01X-3058944Y2377765D01*
G01X-3056856Y2397958D01*
G01X-3058225Y2418213D01*
G01X-3063013Y2437941D01*
G01X-3039690Y2461264D01*
G01X-3024235Y2461264D01*
G01X-3033667Y2441623D01*
G01X-3039365Y2420592D01*
G01X-3041138Y2398876D01*
G01X-3038928Y2377200D01*
G01X-3032807Y2356289D01*
G01X-3022981Y2336842D01*
G01X-3009777Y2319510D01*
G01X-2993639Y2304871D01*
G01X-2975105Y2293416D01*
G01X-2975105Y1098104D01*
G01X-3116290Y1098104D01*
G01X-3128779Y1096126D01*
G01X-3140045Y1090386D01*
G01X-3148986Y1081445D01*
G01X-3154726Y1070179D01*
G01X-3156704Y1057690D01*
G01X-3156704Y897690D01*
G01X-3154726Y885202D01*
G01X-3148986Y873936D01*
G01X-3140045Y864995D01*
G01X-3128779Y859254D01*
G01X-3116290Y857276D01*
G01X-2975105Y857276D01*
G01X-2975105Y827375D01*
G01X-2975105Y827375D01*
G01X-2994132Y836457D01*
G01X-3014451Y842082D01*
G01X-3035440Y844076D01*
G01X-3056455Y842378D01*
G01X-3076852Y837041D01*
G01X-3096006Y828228D01*
G01X-3113329Y816210D01*
G01X-3128290Y801354D01*
G01X-3140430Y784117D01*
G01X-3149378Y765026D01*
G01X-3154859Y744667D01*
G01X-3156704Y723665D01*
G01X-3156704Y723665D01*
G01X-3154859Y702662D01*
G01X-3149378Y682303D01*
G01X-3140430Y663213D01*
G01X-3128290Y645975D01*
G01X-3113329Y631120D01*
G01X-3096006Y619101D01*
G01X-3076852Y610288D01*
G01X-3056455Y604951D01*
G01X-3035440Y603254D01*
G01X-3014451Y605248D01*
G01X-2994132Y610873D01*
G01X-2975105Y619955D01*
G01X-2975105Y573375D01*
G01X-2975105Y573375D01*
G01X-2994132Y582457D01*
G01X-3014451Y588082D01*
G01X-3035440Y590076D01*
G01X-3056455Y588378D01*
G01X-3076852Y583041D01*
G01X-3096006Y574228D01*
G01X-3113329Y562210D01*
G01X-3128290Y547354D01*
G01X-3140430Y530117D01*
G01X-3149378Y511026D01*
G01X-3154859Y490667D01*
G01X-3156704Y469665D01*
G01X-3156704Y469665D01*
G01X-3154859Y448662D01*
G01X-3149378Y428303D01*
G01X-3140430Y409213D01*
G01X-3128290Y391975D01*
G01X-3113329Y377120D01*
G01X-3096006Y365101D01*
G01X-3076852Y356288D01*
G01X-3056455Y350951D01*
G01X-3035440Y349254D01*
G01X-3014451Y351248D01*
G01X-2994132Y356873D01*
G01X-2975105Y365955D01*
G01X-2975105Y319375D01*
G01X-2975105Y319375D01*
G01X-2994132Y328457D01*
G01X-3014451Y334082D01*
G01X-3035440Y336076D01*
G01X-3056455Y334378D01*
G01X-3076852Y329041D01*
G01X-3096006Y320228D01*
G01X-3113329Y308210D01*
G01X-3128290Y293354D01*
G01X-3140430Y276117D01*
G01X-3149378Y257026D01*
G01X-3154859Y236667D01*
G01X-3156704Y215665D01*
G01X-3156704Y215665D01*
G01X-3154859Y194662D01*
G01X-3149378Y174303D01*
G01X-3140430Y155213D01*
G01X-3128290Y137975D01*
G01X-3113329Y123120D01*
G01X-3096006Y111101D01*
G01X-3076852Y102288D01*
G01X-3056455Y96951D01*
G01X-3035440Y95254D01*
G01X-3014451Y97248D01*
G01X-2994132Y102873D01*
G01X-2975105Y111955D01*
G01X-2975105Y65375D01*
G01X-2993794Y74330D01*
G01X-3013741Y79948D01*
G01X-3034357Y82063D01*
G01X-3055030Y80611D01*
G01X-3075148Y75637D01*
G01X-3379733Y380222D01*
G01X-3390734Y388663D01*
G01X-3403544Y393969D01*
G01X-3417291Y395779D01*
G01X-5227210Y395779D01*
G01X-5227210Y395779D01*
G01X-5215987Y413105D01*
G01X-5207888Y432093D01*
G01X-5203152Y452186D01*
G01X-5201917Y472792D01*
G01X-5204221Y493307D01*
G01X-5209994Y513126D01*
G01X-5219067Y531668D01*
G01X-5231175Y548388D01*
G01X-5245960Y562794D01*
G01X-5262989Y574464D01*
G01X-5281760Y583053D01*
G01X-5301723Y588309D01*
G01X-5322291Y590079D01*
G01X-5322291Y590079D01*
G01X-5342858Y588309D01*
G01X-5362821Y583053D01*
G01X-5381592Y574464D01*
G01X-5398621Y562794D01*
G01X-5413406Y548388D01*
G01X-5425514Y531668D01*
G01X-5434588Y513126D01*
G01X-5440361Y493307D01*
G01X-5442664Y472792D01*
G01X-5441429Y452186D01*
G01X-5436693Y432093D01*
G01X-5428594Y413105D01*
G01X-5417371Y395779D01*
G01X-5736343Y395779D01*
G01X-5750090Y393969D01*
G01X-5762900Y388663D01*
G01X-5773900Y380222D01*
G01X-6227473Y-73351D01*
G01X-6227473Y-73351D01*
G01X-6248780Y-73737D01*
G01X-6269759Y-77486D01*
G01X-6289881Y-84504D01*
G01X-6308641Y-94615D01*
G01X-6325566Y-107564D01*
G01X-6340233Y-123026D01*
G01X-6352270Y-140611D01*
G01X-6361377Y-159878D01*
G01X-6361377Y-136510D01*
G01X-5501202Y723665D01*
G01X-5442704Y723665D01*
G01X-5440875Y702755D01*
G01X-5435443Y682481D01*
G01X-5426572Y663458D01*
G01X-5414533Y646264D01*
G01X-5399691Y631422D01*
G01X-5382497Y619383D01*
G01X-5363475Y610513D01*
G01X-5343200Y605080D01*
G01X-5322291Y603251D01*
G01X-5301381Y605080D01*
G01X-5281107Y610513D01*
G01X-5262084Y619383D01*
G01X-5244890Y631422D01*
G01X-5230048Y646264D01*
G01X-5218009Y663458D01*
G01X-5209139Y682481D01*
G01X-5203706Y702755D01*
G01X-5201877Y723665D01*
G01X-5203706Y744574D01*
G01X-5209139Y764849D01*
G01X-5218009Y783872D01*
G01X-5230048Y801065D01*
G01X-5244890Y815907D01*
G01X-5262084Y827946D01*
G01X-5281107Y836817D01*
G01X-5301381Y842249D01*
G01X-5322291Y844079D01*
G01X-5322291Y844079D01*
G01X-5343200Y842249D01*
G01X-5363475Y836817D01*
G01X-5382497Y827946D01*
G01X-5399691Y815907D01*
G01X-5414533Y801065D01*
G01X-5426572Y783872D01*
G01X-5435443Y764849D01*
G01X-5440875Y744574D01*
G01X-5442704Y723665D01*
G01X-5501202Y723665D01*
G01X-5367590Y857276D01*
G01X-5242291Y857276D01*
G37*
G36*
G01X-2975105Y-188625D02*
G01X-2993794Y-179670D01*
G01X-3013741Y-174052D01*
G01X-3034357Y-171937D01*
G01X-3055030Y-173389D01*
G01X-3075148Y-178363D01*
G01X-3367046Y113535D01*
G01X-3378046Y121976D01*
G01X-3390856Y127282D01*
G01X-3404603Y129091D01*
G01X-5238598Y129091D01*
G01X-5238598Y129091D01*
G01X-5224250Y145754D01*
G01X-5213171Y164749D01*
G01X-5205732Y185441D01*
G01X-5202179Y207141D01*
G01X-5202631Y229125D01*
G01X-5207074Y250660D01*
G01X-5215359Y271029D01*
G01X-5227210Y289551D01*
G01X-3439291Y289551D01*
G01X-3150262Y522D01*
G01X-3155264Y-19765D01*
G01X-3156683Y-40611D01*
G01X-3154477Y-61389D01*
G01X-3148712Y-81473D01*
G01X-3139562Y-100258D01*
G01X-3127303Y-117178D01*
G01X-3112303Y-131724D01*
G01X-3095015Y-143459D01*
G01X-3075958Y-152028D01*
G01X-3055707Y-157173D01*
G01X-3034871Y-158741D01*
G01X-3014078Y-156683D01*
G01X-2993954Y-151061D01*
G01X-2975105Y-142045D01*
G01X-2975105Y-188625D01*
G37*
G54D10*
G01X2355789Y-6299809D02*
G01X-8886129Y-6299809D01*
G03X-8786755Y-5783402I-162621J299059D01*
G03X-9312631Y-5785695I-261995J-217348D01*
G01X-9312631Y2455755D01*
G03X-8807297Y2430848I263881J215055D01*
G03X-8835333Y2936017I-241453J239962D01*
G01X-7802190Y2936017D01*
G03X-7841831Y2760312I42490J-101911D01*
G03X-7662901Y2780993I82131J73795D01*
G01X-7437399Y2780993D01*
G03X-7308179Y2728560I96799J53114D01*
G03X-7230676Y2844493I-32421J105547D01*
G01X-6992899Y2844493D01*
G03X-6896100Y2787193I96799J53114D01*
G03X-6799301Y2844493I0J110414D01*
G01X-6599199Y2844493D01*
G03X-6471510Y2791602I96799J53114D01*
G01X-5375405Y1695497D01*
G01X-5375405Y1098104D01*
G01X-5402290Y1098104D01*
G03X-5442704Y1057690I0J-40414D01*
G01X-5442704Y932391D01*
G01X-6452048Y-76953D01*
G03X-6467605Y-114510I37557J-37557D01*
G01X-6467605Y-554730D01*
G03X-6452048Y-592287I53114J0D01*
G01X-6418895Y-625440D01*
G03X-6390860Y-734509I106005J-30890D01*
G01X-7497366Y-734509D01*
G03X-7461767Y-603773I-60124J86586D01*
G03X-7584319Y-545980I-95723J-44149D01*
G01X-8360140Y229841D01*
G03X-8397697Y245398I-37557J-37557D01*
G01X-8507775Y245398D01*
G03X-8728205Y192284I-103816J-53114D01*
G03X-8507775Y139170I116614J0D01*
G01X-8419698Y139170D01*
G01X-7659433Y-621094D01*
G03X-7617615Y-734509I101943J-26828D01*
G01X-8720026Y-734509D01*
G03X-8785847Y-537036I-107464J73886D01*
G01X-8737491Y-537036D01*
G03X-8697077Y-496622I0J40414D01*
G01X-8697077Y-316623D01*
G03X-8737491Y-276209I-40414J0D01*
G01X-8917490Y-276209D01*
G03X-8957904Y-316623I0J-40414D01*
G01X-8957904Y-496622D01*
G03X-8917490Y-537036I40414J0D01*
G01X-8869134Y-537036D01*
G03X-8919163Y-753380I41644J-123586D01*
G01X-8992048Y-826265D01*
G01X-8992777Y-827009D01*
G01X-8992777Y-778086D01*
G03X-9008333Y-740529I-53114J0D01*
G01X-9066477Y-682386D01*
G01X-9066477Y-530512D01*
G03X-9066477Y-409759I-53114J60376D01*
G01X-9066477Y-202885D01*
G03X-9172705Y-202885I-53114J0D01*
G01X-9172705Y-409759D01*
G03X-9172705Y-530512I53114J-60376D01*
G01X-9172705Y-704386D01*
G03X-9157148Y-741943I53114J0D01*
G01X-9099005Y-800087D01*
G01X-9099005Y-4344175D01*
G03X-9083448Y-4381733I53114J0D01*
G01X-8304296Y-5160884D01*
G03X-8266739Y-5176441I37557J37557D01*
G01X-8169068Y-5176441D01*
G03X-8131510Y-5160884I0J53114D01*
G01X-8062446Y-5091820D01*
G01X-8062267Y-5091640D01*
G03X-7840292Y-5047987I98509J85278D01*
G01X-7840292Y-5096418D01*
G03X-7799878Y-5136831I40414J0D01*
G01X-7619878Y-5136831D01*
G03X-7579464Y-5096418I0J40414D01*
G01X-7579464Y-4911118D01*
G01X-7187422Y-4519076D01*
G03X-7171865Y-4481519I-37557J37557D01*
G01X-7171865Y-3243530D01*
G03X-7104493Y-3174330I-53114J119108D01*
G03X-7103200Y-3077758I-120487J49907D01*
G01X-6635429Y-2609987D01*
G03X-6619872Y-2572430I-37557J37557D01*
G01X-6619872Y-2258385D01*
G03X-6672986Y-1998409I-53114J124562D01*
G03X-6726100Y-2258385I0J-135414D01*
G01X-6726100Y-2550429D01*
G01X-7178315Y-3002643D01*
G03X-7345466Y-3074515I-46665J-121779D01*
G03X-7278093Y-3243530I120487J-49907D01*
G01X-7278093Y-4459519D01*
G01X-7614888Y-4796313D01*
G03X-7619878Y-4796004I-4990J-40105D01*
G01X-7799878Y-4796004D01*
G03X-7840292Y-4836418I0J-40414D01*
G01X-7840292Y-4884774D01*
G03X-8046889Y-4825835I-123586J-41644D01*
G01X-8046889Y-4501326D01*
G03X-8024470Y-4508115I22420J33625D01*
G01X-7903312Y-4508115D01*
G03X-7862898Y-4467702I0J40414D01*
G01X-7862898Y-4346544D01*
G03X-7903312Y-4306130I-40414J0D01*
G01X-8024470Y-4306130D01*
G03X-8046889Y-4312919I0J-40414D01*
G01X-8046889Y-4247326D01*
G03X-8024470Y-4254115I22420J33625D01*
G01X-7903312Y-4254115D01*
G03X-7862898Y-4213702I0J40414D01*
G01X-7862898Y-4092544D01*
G03X-7903312Y-4052130I-40414J0D01*
G01X-7910777Y-4052130D01*
G01X-7910777Y-3823930D01*
G03X-7871944Y-3652645I-55413J102607D01*
G03X-8046889Y-3637142I-94246J-68677D01*
G01X-8046889Y-3549421D01*
G03X-8062446Y-3511864I-53114J0D01*
G01X-8403223Y-3171087D01*
G03X-8617218Y-3032206I-121779J46665D01*
G03X-8478337Y-3246202I92216J-92216D01*
G01X-8153117Y-3571422D01*
G01X-8153117Y-4812244D01*
G03X-8348317Y-4925427I-64786J-113184D01*
G01X-8348317Y-4966635D01*
G01X-8992777Y-4322175D01*
G01X-8992777Y-1078436D01*
G01X-8992048Y-1079180D01*
G01X-8949270Y-1121958D01*
G03X-8766370Y-1283827I121779J-46665D01*
G03X-8797847Y-1041623I-61120J115204D01*
G03X-8708383Y-967736I-29644J127000D01*
G01X-6109691Y-967736D01*
G03X-6072133Y-952180I0J53114D01*
G01X-5439573Y-319619D01*
G03X-5283433Y-406307I117282J27284D01*
G01X-5248405Y-441336D01*
G01X-5248405Y-451255D01*
G03X-5442704Y-546335I-73886J-95081D01*
G03X-5248405Y-641416I120414J0D01*
G01X-5248405Y-705255D01*
G03X-5442704Y-800335I-73886J-95081D01*
G03X-5248405Y-895416I120414J0D01*
G01X-5248405Y-959255D01*
G03X-5442704Y-1054335I-73886J-95081D01*
G03X-5248405Y-1149416I120414J0D01*
G01X-5248405Y-1213255D01*
G03X-5442704Y-1308335I-73886J-95081D01*
G03X-5248405Y-1403416I120414J0D01*
G01X-5248405Y-1467255D01*
G03X-5442704Y-1562335I-73886J-95081D01*
G03X-5248405Y-1657416I120414J0D01*
G01X-5248405Y-1721255D01*
G03X-5442704Y-1816335I-73886J-95081D01*
G03X-5248405Y-1911416I120414J0D01*
G01X-5248405Y-1975255D01*
G03X-5442704Y-2070335I-73886J-95081D01*
G03X-5248405Y-2165416I120414J0D01*
G01X-5248405Y-2229255D01*
G03X-5442704Y-2324335I-73886J-95081D01*
G03X-5248405Y-2419416I120414J0D01*
G01X-5248405Y-2483255D01*
G03X-5442704Y-2578335I-73886J-95081D01*
G03X-5248405Y-2673416I120414J0D01*
G01X-5248405Y-2737255D01*
G03X-5442704Y-2832335I-73886J-95081D01*
G03X-5248405Y-2927416I120414J0D01*
G01X-5248405Y-3750135D01*
G01X-5334448Y-3836178D01*
G03X-5350005Y-3873735I37557J-37557D01*
G01X-5350005Y-4638034D01*
G03X-5334448Y-4675591I53114J0D01*
G01X-4402670Y-5607369D01*
G03X-4188674Y-5746250I121779J-46665D01*
G03X-4327555Y-5532255I-92216J92216D01*
G01X-5243777Y-4616033D01*
G01X-5243777Y-4042498D01*
G03X-5130482Y-4058571I73886J113480D01*
G03X-5045328Y-3982132I-39409J129552D01*
G01X-4727884Y-3982132D01*
G01X-4402670Y-4307346D01*
G03X-4330798Y-4474498I121779J-46665D01*
G03X-4161783Y-4407125I49907J120487D01*
G01X-3073785Y-4407125D01*
G01X-2900511Y-4580399D01*
G03X-3036175Y-4680438I-8767J-130119D01*
G03X-3293717Y-4709527I-127128J-29090D01*
G01X-3293717Y-4789527D01*
G03X-3036406Y-4819607I130414J0D01*
G03X-2785692Y-4832161I127128J29090D01*
G01X-2785692Y-4880518D01*
G03X-2745278Y-4920931I40414J0D01*
G01X-2565278Y-4920931D01*
G03X-2524864Y-4880518I0J40414D01*
G01X-2524864Y-4620518D01*
G03X-2565278Y-4580104I-40414J0D01*
G01X-2745278Y-4580104D01*
G03X-2750268Y-4580413I0J-40414D01*
G01X-3014227Y-4316454D01*
G03X-3051785Y-4300897I-37557J-37557D01*
G01X-4161783Y-4300897D01*
G03X-4327555Y-4232232I-119108J-53114D01*
G01X-4668326Y-3891461D01*
G03X-4705883Y-3875904I-37557J-37557D01*
G01X-5045328Y-3875904D01*
G03X-5147571Y-3795457I-124562J-53114D01*
G03X-5142177Y-3772135I-47720J23321D01*
G01X-5142177Y-419335D01*
G03X-5157733Y-381778I-53114J0D01*
G01X-5208319Y-331193D01*
G03X-5218588Y-231136I-113972J38857D01*
G01X-3799014Y-231136D01*
G03X-3776514Y-318877I75615J-27364D01*
G01X-3776514Y-525644D01*
G01X-4478955Y-1228085D01*
G03X-4540952Y-1365196I-5135J-80250D01*
G03X-4403841Y-1303200I56861J56861D01*
G01X-3685843Y-585202D01*
G03X-3670286Y-547644I-37557J37557D01*
G01X-3670286Y-318877D01*
G03X-3647785Y-231136I-53114J60376D01*
G01X-3426604Y-231136D01*
G01X-3150262Y-507478D01*
G03X-2975105Y-650045I113972J-38857D01*
G01X-2975105Y-664035D01*
G01X-2997433Y-686363D01*
G03X-3121436Y-885481I-38857J-113972D01*
G03X-2922319Y-761478I85145J85145D01*
G01X-2884433Y-723592D01*
G03X-2868877Y-686035I-37557J37557D01*
G01X-2868877Y2293416D01*
G03X-2825540Y2330113I-53114J106661D01*
G01X-1575248Y1079820D01*
G03X-1537691Y1064264I37557J37557D01*
G01X-1210904Y1064264D01*
G01X-1210904Y1038637D01*
G03X-1170490Y998224I40414J0D01*
G01X-1133605Y998224D01*
G01X-1133605Y982485D01*
G03X-1133605Y744270I53114J-119108D01*
G01X-1133605Y728485D01*
G03X-1172707Y517161I53114J-119108D01*
G03X-961383Y556264I92216J92216D01*
G01X-694878Y556264D01*
G01X-397293Y258678D01*
G03X-279400Y90486I117893J-42778D01*
G03X-161507Y258678I0J125414D01*
G01X-130399Y289786D01*
G01X-126738Y289786D01*
G03X-92205Y109760I101338J-73886D01*
G01X-92205Y-889911D01*
G03X-39091Y-1128936I53114J-113611D01*
G03X14023Y-889911I0J125414D01*
G01X14023Y96844D01*
G03X75938Y289786I-39423J119056D01*
G01X127262Y289786D01*
G03X161795Y109760I101338J-73886D01*
G01X161795Y-889911D01*
G03X214909Y-1128936I53114J-113611D01*
G03X268023Y-889911I0J125414D01*
G01X268023Y96844D01*
G03X329938Y289786I-39423J119056D01*
G01X381262Y289786D01*
G03X415795Y109760I101338J-73886D01*
G01X415795Y-889911D01*
G03X468909Y-1128936I53114J-113611D01*
G03X522023Y-889911I0J125414D01*
G01X522023Y96844D01*
G03X583938Y289786I-39423J119056D01*
G01X635262Y289786D01*
G03X669795Y109760I101338J-73886D01*
G01X669795Y-878109D01*
G01X637910Y-878109D01*
G03X597496Y-918523I0J-40414D01*
G01X597496Y-1088522D01*
G03X637910Y-1128936I40414J0D01*
G01X807909Y-1128936D01*
G03X848323Y-1088522I0J40414D01*
G01X848323Y-918523D01*
G03X807909Y-878109I-40414J0D01*
G01X776023Y-878109D01*
G01X776023Y96844D01*
G03X837938Y289786I-39423J119056D01*
G01X889262Y289786D01*
G03X990600Y90486I101338J-73886D01*
G03X1091938Y289786I0J125414D01*
G01X1125446Y289786D01*
G01X1125446Y130900D01*
G03X1165860Y90486I40414J0D01*
G01X1191486Y90486D01*
G01X1191486Y-982919D01*
G01X311694Y-1862711D01*
G01X311694Y-1862711D01*
G03X195187Y-2054333I-34897J-110012D01*
G03X386808Y-1937826I81610J81610D01*
G01X386808Y-1937826D01*
G01X1282157Y-1042477D01*
G03X1297714Y-1004920I-37557J37557D01*
G01X1297714Y90486D01*
G01X1323340Y90486D01*
G03X1363754Y130900I0J40414D01*
G01X1363754Y289786D01*
G01X1374999Y289786D01*
G01X1876295Y-211510D01*
G01X1876295Y-226764D01*
G03X1876295Y-475889I53114J-124562D01*
G01X1876295Y-1554624D01*
G03X1793207Y-1792891I-10384J-130000D01*
G03X1982316Y-1625819I72705J108267D01*
G03X1982523Y-1621126I-52906J4693D01*
G01X1982523Y-475889D01*
G03X1982523Y-226764I-53114J124562D01*
G01X1982523Y-189509D01*
G03X1966967Y-151952I-53114J0D01*
G01X1966967Y-151952D01*
G01X1434557Y380457D01*
G03X1397000Y396014I-37557J-37557D01*
G01X-152400Y396014D01*
G03X-189957Y380457I0J-53114D01*
G01X-236622Y333793D01*
G03X-322178Y333793I-42778J-117893D01*
G01X-635320Y646935D01*
G03X-672877Y662491I-37557J-37557D01*
G01X-961383Y662491D01*
G03X-1027377Y728485I-119108J-53114D01*
G01X-1027377Y744270D01*
G03X-1027377Y982485I-53114J119108D01*
G01X-1027377Y998224D01*
G01X-990491Y998224D01*
G03X-950077Y1038637I0J40414D01*
G01X-950077Y1196117D01*
G03X-990491Y1236531I-40414J0D01*
G01X-1170490Y1236531D01*
G03X-1210904Y1196117I0J-40414D01*
G01X-1210904Y1170491D01*
G01X-1515690Y1170491D01*
G01X-2631763Y2286564D01*
G03X-2571624Y2470156I-36228J113513D01*
G03X-2764814Y2469525I-96367J-70079D01*
G03X-2770133Y2475735I-42877J-31347D01*
G01X-2846333Y2551935D01*
G03X-2883891Y2567491I-37557J-37557D01*
G01X-3061691Y2567491D01*
G03X-3099248Y2551935I0J-53114D01*
G01X-3138127Y2513055D01*
G03X-3288969Y2362214I-37863J-112978D01*
G01X-3310837Y2340346D01*
G01X-3310837Y2478817D01*
G03X-3351251Y2519231I-40414J0D01*
G01X-3508731Y2519231D01*
G03X-3549145Y2478817I0J-40414D01*
G01X-3549145Y2321337D01*
G03X-3508731Y2280924I40414J0D01*
G01X-3370259Y2280924D01*
G01X-4620378Y1030804D01*
G01X-5201877Y1030804D01*
G01X-5201877Y1057690D01*
G03X-5242291Y1098104I-40414J0D01*
G01X-5269177Y1098104D01*
G01X-5269177Y1717497D01*
G03X-5284733Y1755054I-53114J0D01*
G01X-6396395Y2866716D01*
G03X-6398883Y2936017I-106005J30890D01*
G01X2304993Y2936017D01*
G03X2293272Y2415478I213417J-265207D01*
G03X2808249Y2492275I225138J255332D01*
G01X2808249Y-5822215D01*
G03X2271286Y-5766631I-289839J-178535D01*
G03X2355789Y-6299809I247124J-234119D01*
G01X-8958409Y-2133823D02*
G03X-8687581Y-2133823I135414J0D01*
G03X-8958409Y-2133823I-135414J0D01*
G01X-8728205Y366071D02*
G03X-8687791Y325657I40414J0D01*
G01X-8535391Y325657D01*
G03X-8494977Y366071I0J40414D01*
G01X-8494977Y518471D01*
G03X-8535391Y558885I-40414J0D01*
G01X-8687791Y558885D01*
G03X-8728205Y518471I0J-40414D01*
G01X-8728205Y366071D01*
G01X-8073476Y-5816823D02*
G03X-8354304Y-5816823I-140414J0D01*
G03X-8073476Y-5816823I140414J0D01*
G01X-8115113Y1422400D02*
G03X-7904286Y1422400I105414J0D01*
G03X-8115113Y1422400I-105414J0D01*
G01X-8019831Y366462D02*
G03X-7799948Y511230I95031J95031D01*
G01X-7454304Y856874D01*
G01X-7454304Y854578D01*
G03X-7413890Y814164I40414J0D01*
G01X-7243891Y814164D01*
G03X-7203477Y854578I0J40414D01*
G01X-7203477Y1024577D01*
G03X-7243891Y1064991I-40414J0D01*
G01X-7379190Y1064991D01*
G01X-7456587Y1142388D01*
G01X-7456587Y1331345D01*
G03X-7456587Y1513455I-53114J91055D01*
G01X-7456587Y1564094D01*
G03X-7472143Y1601651I-53114J0D01*
G01X-7653695Y1783203D01*
G03X-7837774Y1892168I-106005J30890D01*
G03X-7728810Y1708089I78074J-78074D01*
G01X-7562814Y1542093D01*
G01X-7562814Y1513455D01*
G03X-7562814Y1331345I53114J-91055D01*
G01X-7562814Y1120387D01*
G03X-7547258Y1082830I53114J0D01*
G01X-7462917Y998490D01*
G01X-7875063Y586344D01*
G03X-8019831Y366462I-49737J-124852D01*
G01X-7924800Y-454099D02*
G03X-7924800Y-722887I0J-134394D01*
G03X-7924800Y-454099I0J134394D01*
G01X-7573477Y-5816823D02*
G03X-7854305Y-5816823I-140414J0D01*
G03X-7573477Y-5816823I140414J0D01*
G01X-7557491Y-1261336D02*
G03X-7557491Y-1050509I0J105414D01*
G03X-7557491Y-1261336I0J-105414D01*
G01X-7128005Y144983D02*
G03X-7112448Y107426I53114J0D01*
G01X-6919352Y-85670D01*
G03X-6699469Y-230438I124852J-49737D01*
G03X-6844237Y-10556I-95031J95031D01*
G01X-7021777Y166984D01*
G01X-7021777Y825966D01*
G03X-7009992Y1046894I-53114J113611D01*
G01X-6948328Y1108558D01*
G03X-6824110Y1170160I26828J101943D01*
G03X-6868386Y1301555I-97390J40340D01*
G01X-6868386Y1394993D01*
G03X-6883943Y1432551I-53114J0D01*
G01X-7234595Y1783203D01*
G03X-7418674Y1892168I-106005J30890D01*
G03X-7309710Y1708089I78074J-78074D01*
G01X-6974614Y1372993D01*
G01X-6974614Y1301555D01*
G03X-7023443Y1183672I53114J-91055D01*
G01X-7112448Y1094667D01*
G03X-7128005Y1057110I37557J-37557D01*
G01X-7128005Y1053189D01*
G03X-7128005Y825966I53114J-113611D01*
G01X-7128005Y144983D01*
G01X-7003593Y-5339607D02*
G03X-7003593Y-5660435I0J-160414D01*
G03X-7003593Y-5339607I0J160414D01*
G01X-7003593Y-4347610D02*
G03X-7003593Y-4668438I0J-160414D01*
G03X-7003593Y-4347610I0J160414D01*
G01X-6127831Y762330D02*
G03X-6302565Y959072I-107869J80162D01*
G01X-6347686Y1004193D01*
G01X-6347686Y1106746D01*
G03X-6327987Y1274026I-53114J91055D01*
G03X-6494190Y1246691I-72813J-76225D01*
G01X-6513777Y1246691D01*
G01X-6513777Y1548384D01*
G03X-6529333Y1585941I-53114J0D01*
G01X-6790095Y1846703D01*
G03X-6922528Y1984798I-106005J30890D01*
G03X-6975600Y1800972I26428J-107204D01*
G03X-6967860Y1615827I54100J-90472D01*
G03X-6816859Y1723238I46360J94672D01*
G01X-6620005Y1526383D01*
G01X-6620005Y1215578D01*
G01X-6778113Y1057470D01*
G03X-6909572Y850897I-42778J-117893D01*
G03X-6702998Y982356I88681J88681D01*
G01X-6544890Y1140464D01*
G01X-6489256Y1140464D01*
G03X-6453914Y1106746I88456J57337D01*
G01X-6453914Y994028D01*
G03X-6688095Y907359I-112977J-54451D01*
G03X-6441788Y948413I121205J32219D01*
G03X-6438357Y944635I40988J33779D01*
G01X-6366611Y872889D01*
G03X-6127831Y762330I130911J-30397D01*
G01X-6794500Y-1050999D02*
G03X-6794500Y-1319787I0J-134394D01*
G03X-6794500Y-1050999I0J134394D01*
G01X-6663588Y-5339607D02*
G03X-6663588Y-5660435I0J-160414D01*
G03X-6663588Y-5339607I0J160414D01*
G01X-6663588Y-4347610D02*
G03X-6663588Y-4668438I0J-160414D01*
G03X-6663588Y-4347610I0J160414D01*
G01X-6549578Y-3721323D02*
G03X-6782806Y-3721323I-116614J0D01*
G03X-6549578Y-3721323I116614J0D01*
G01X-6348939Y1606025D02*
G03X-6423023Y1800844I-51861J91774D01*
G03X-6556721Y1973721I-79377J76749D01*
G03X-6477607Y1769999I54321J-96127D01*
G03X-6348939Y1606025I76807J-72200D01*
G01X-6312891Y-1816729D02*
G03X-6312891Y-1595901I0J110414D01*
G03X-6312891Y-1816729I0J-110414D01*
G01X-5892800Y1663513D02*
G03X-5892800Y1452686I0J-105414D01*
G03X-5892800Y1663513I0J105414D01*
G01X-5892800Y1163514D02*
G03X-5892800Y952687I0J-105414D01*
G03X-5892800Y1163514I0J105414D01*
G01X-5816600Y926087D02*
G03X-5816600Y657299I0J-134394D01*
G03X-5816600Y926087I0J134394D01*
G01X-5169891Y-6214440D02*
G03X-5169891Y-5943613I0J135414D01*
G03X-5169891Y-6214440I0J-135414D01*
G01X-5084891Y2439764D02*
G03X-5044477Y2480178I0J40414D01*
G01X-5044477Y2650177D01*
G03X-5084891Y2690591I-40414J0D01*
G01X-5254890Y2690591D01*
G03X-5295304Y2650177I0J-40414D01*
G01X-5295304Y2480178D01*
G03X-5254890Y2439764I40414J0D01*
G01X-5084891Y2439764D01*
G01X-5041304Y2565177D02*
G03X-4790477Y2565177I125414J0D01*
G03X-5041304Y2565177I-125414J0D01*
G01X-4787304Y2565177D02*
G03X-4536477Y2565177I125414J0D01*
G03X-4787304Y2565177I-125414J0D01*
G01X-4533304Y2565177D02*
G03X-4282477Y2565177I125414J0D01*
G03X-4533304Y2565177I-125414J0D01*
G01X-3381505Y-5588830D02*
G01X-3388970Y-5588830D01*
G03X-3429384Y-5629244I0J-40414D01*
G01X-3429384Y-5750402D01*
G03X-3388970Y-5790815I40414J0D01*
G01X-3267812Y-5790815D01*
G03X-3227398Y-5750402I0J40414D01*
G01X-3227398Y-5629244D01*
G03X-3267812Y-5588830I-40414J0D01*
G01X-3275277Y-5588830D01*
G01X-3275277Y-5069821D01*
G03X-3290833Y-5032264I-53114J0D01*
G01X-3585725Y-4737373D01*
G03X-3779149Y-4619063I-110966J35852D01*
G03X-3660839Y-4812487I82459J-82459D01*
G01X-3381505Y-5091822D01*
G01X-3381505Y-5588830D01*
G01X-3696691Y-3284910D02*
G03X-3696691Y-3518138I0J-116614D01*
G03X-3696691Y-3284910I0J116614D01*
G01X-3013812Y-5790815D02*
G03X-2973398Y-5750402I0J40414D01*
G01X-2973398Y-5629244D01*
G03X-3013812Y-5588830I-40414J0D01*
G01X-3134970Y-5588830D01*
G03X-3175384Y-5629244I0J-40414D01*
G01X-3175384Y-5750402D01*
G03X-3134970Y-5790815I40414J0D01*
G01X-3013812Y-5790815D01*
G01X-3036291Y-2203921D02*
G03X-3036291Y-2444749I0J-120414D01*
G03X-3036291Y-2203921I0J120414D01*
G01X-3036291Y-2711921D02*
G03X-3036291Y-2952749I0J-120414D01*
G03X-3036291Y-2711921I0J120414D01*
G01X-3036291Y-2457921D02*
G03X-3036291Y-2698749I0J-120414D01*
G03X-3036291Y-2457921I0J120414D01*
G01X-3036291Y-933921D02*
G03X-3036291Y-1174749I0J-120414D01*
G03X-3036291Y-933921I0J120414D01*
G01X-3036291Y-1441921D02*
G03X-3036291Y-1682749I0J-120414D01*
G03X-3036291Y-1441921I0J120414D01*
G01X-3036291Y-1187921D02*
G03X-3036291Y-1428749I0J-120414D01*
G03X-3036291Y-1187921I0J120414D01*
G01X-3036291Y-1949921D02*
G03X-3036291Y-2190749I0J-120414D01*
G03X-3036291Y-1949921I0J120414D01*
G01X-3036291Y-1695921D02*
G03X-3036291Y-1936749I0J-120414D01*
G03X-3036291Y-1695921I0J120414D01*
G01X-2421976Y-5854923D02*
G03X-2702804Y-5854923I-140414J0D01*
G03X-2421976Y-5854923I140414J0D01*
G01X-2533145Y2400077D02*
G03X-2294837Y2400077I119154J0D01*
G03X-2533145Y2400077I-119154J0D01*
G01X-2161679Y-5954210D02*
G03X-1922494Y-5842890I99288J99288D01*
G01X-1630349Y-5550745D01*
G03X-1603868Y-5486813I-63932J63932D01*
G01X-1603868Y-5097242D01*
G03X-1694282Y-4897299I-90414J79529D01*
G03X-1784696Y-5097242I0J-120414D01*
G01X-1784696Y-5449362D01*
G01X-2050359Y-5715025D01*
G03X-2161679Y-5954210I-12033J-139897D01*
G01X-1709176Y-1778223D02*
G03X-1942404Y-1778223I-116614J0D01*
G03X-1709176Y-1778223I116614J0D01*
G01X-1696476Y-2756123D02*
G03X-1929704Y-2756123I-116614J0D01*
G03X-1696476Y-2756123I116614J0D01*
G01X-1584300Y-4387318D02*
G03X-1584300Y-4628146I0J-120414D01*
G03X-1584300Y-4387318I0J120414D01*
G01X-1209177Y-1778223D02*
G03X-1442405Y-1778223I-116614J0D01*
G03X-1209177Y-1778223I116614J0D01*
G01X-1196477Y-2756123D02*
G03X-1429705Y-2756123I-116614J0D01*
G03X-1196477Y-2756123I116614J0D01*
G01X-980472Y-4915112D02*
G03X-1231299Y-4915112I-125414J0D01*
G03X-980472Y-4915112I125414J0D01*
G01X-980472Y-5423112D02*
G03X-1231299Y-5423112I-125414J0D01*
G03X-980472Y-5423112I125414J0D01*
G01X363717Y1528456D02*
G03X570290Y1396997I117893J-42778D01*
G03X438831Y1603570I-88681J88681D01*
G01X11167Y2031235D01*
G03X-26391Y2046791I-37557J-37557D01*
G01X-961383Y2046791D01*
G03X-1050847Y2120677I-119108J-53114D01*
G03X-1080491Y2378091I-29644J127000D01*
G03X-1110134Y2120677I0J-130414D01*
G03X-1181045Y1910632I29644J-127000D01*
G03X-961383Y1940564I100555J83045D01*
G01X-48391Y1940564D01*
G01X363717Y1528456D01*
G01X871717Y1528456D02*
G03X1078290Y1396997I117893J-42778D01*
G03X946831Y1603570I-88681J88681D01*
G01X11167Y2539235D01*
G03X-26391Y2554791I-37557J-37557D01*
G01X-950077Y2554791D01*
G01X-950077Y2580417D01*
G03X-990491Y2620831I-40414J0D01*
G01X-1170490Y2620831D01*
G03X-1210904Y2580417I0J-40414D01*
G01X-1210904Y2422937D01*
G03X-1170490Y2382524I40414J0D01*
G01X-990491Y2382524D01*
G03X-950077Y2422937I0J40414D01*
G01X-950077Y2448564D01*
G01X-48391Y2448564D01*
G01X871717Y1528456D01*
G01X872250Y-4646686D02*
G01X733681Y-4646686D01*
G01X682876Y-4595881D01*
G03X618944Y-4569400I-63932J-63932D01*
G01X289381Y-4569400D01*
G03X225448Y-4595881I0J-90414D01*
G01X163380Y-4657949D01*
G03X-66519Y-4660440I-114562J-37082D01*
G03X-114456Y-4646686I-47937J-76660D01*
G01X-673873Y-4646686D01*
G03X-737806Y-4673168I0J-90414D01*
G01X-854361Y-4789723D01*
G03X-940566Y-5003793I2475J-125389D01*
G03X-726496Y-4917588I88681J88681D01*
G01X-723297Y-4914389D01*
G03X-550931Y-5031405I125412J-724D01*
G03X-508135Y-4827514I-46955J116292D01*
G01X-151907Y-4827514D01*
G01X-75257Y-4904164D01*
G03X-11325Y-4930645I63932J63932D01*
G01X108963Y-4930645D01*
G03X172895Y-4904164I0J90414D01*
G01X326831Y-4750227D01*
G01X451571Y-4750227D01*
G03X520712Y-4919245I107229J-54786D01*
G03X677451Y-4825542I38088J114231D01*
G03X696230Y-4827514I18779J88442D01*
G01X909701Y-4827514D01*
G03X973633Y-4801032I0J90414D01*
G01X1858534Y-3916132D01*
G03X1985959Y-3660842I21066J148931D01*
G03X1730669Y-3788267I-106359J-106359D01*
G01X872250Y-4646686D01*
G01X-472472Y-5423112D02*
G03X-723299Y-5423112I-125414J0D01*
G03X-472472Y-5423112I125414J0D01*
G01X-408977Y1485677D02*
G03X-659804Y1485677I-125414J0D01*
G03X-408977Y1485677I125414J0D01*
G01X-407986Y215900D02*
G03X-658814Y215900I-125414J0D01*
G03X-407986Y215900I125414J0D01*
G01X-154977Y1485677D02*
G03X-405804Y1485677I-125414J0D01*
G03X-154977Y1485677I125414J0D01*
G01X353023Y1485677D02*
G03X113998Y1538791I-125414J0D01*
G01X87221Y1538791D01*
G03X-151804Y1485677I-113611J-53114D01*
G03X87221Y1432564I125414J0D01*
G01X113998Y1432564D01*
G03X353023Y1485677I113611J53114D01*
G01X181524Y-5867623D02*
G03X-99304Y-5867623I-140414J0D01*
G03X181524Y-5867623I140414J0D01*
G01X-73203Y-3652920D02*
G03X247625Y-3652920I160414J0D01*
G03X-73203Y-3652920I-160414J0D01*
G01X-73203Y-3992925D02*
G03X247625Y-3992925I160414J0D01*
G03X-73203Y-3992925I-160414J0D01*
G01X76797Y-2357308D02*
G03X76797Y-2588136I0J-115414D01*
G03X76797Y-2357308I0J115414D01*
G01X681523Y-5867623D02*
G03X400695Y-5867623I-140414J0D01*
G03X681523Y-5867623I140414J0D01*
G01X861023Y1485677D02*
G03X610196Y1485677I-125414J0D01*
G03X861023Y1485677I125414J0D01*
G01X918794Y-3992925D02*
G03X1239622Y-3992925I160414J0D01*
G03X918794Y-3992925I-160414J0D01*
G01X918794Y-3652920D02*
G03X1239622Y-3652920I160414J0D01*
G03X918794Y-3652920I-160414J0D01*
G01X1164869Y1611091D02*
G03X1124455Y1570677I0J-40414D01*
G01X1124455Y1400678D01*
G03X1164869Y1360264I40414J0D01*
G01X1322349Y1360264D01*
G03X1362763Y1400678I0J40414D01*
G01X1362763Y1570677D01*
G03X1322349Y1611091I-40414J0D01*
G01X1164869Y1611091D01*
G01X1879600Y-4917613D02*
G03X1879600Y-4616785I0J150414D01*
G03X1879600Y-4917613I0J-150414D01*
G01X1879600Y-4417614D02*
G03X1879600Y-4116786I0J150414D01*
G03X1879600Y-4417614I0J-150414D01*
G01X1865912Y-2054209D02*
G03X1865912Y-2315036I0J-130414D01*
G03X1865912Y-2054209I0J130414D01*
G01X1865912Y-2554208D02*
G03X1865912Y-2815035I0J-130414D01*
G03X1865912Y-2554208I0J130414D01*
G01X1929409Y1934095D02*
G03X1929409Y1663268I0J-135414D01*
G03X1929409Y1934095I0J135414D01*
G01X-5242291Y857276D02*
G03X-5201877Y897690I0J40414D01*
G01X-5201877Y924576D01*
G01X-4598378Y924576D01*
G03X-4560821Y940133I0J53114D01*
G01X-3213854Y2287100D01*
G03X-3063013Y2437941I37863J112978D01*
G01X-3039690Y2461264D01*
G01X-3024235Y2461264D01*
G03X-2975105Y2293416I102244J-61186D01*
G01X-2975105Y1098104D01*
G01X-3116290Y1098104D01*
G03X-3156704Y1057690I0J-40414D01*
G01X-3156704Y897690D01*
G03X-3116290Y857276I40414J0D01*
G01X-2975105Y857276D01*
G01X-2975105Y827375D01*
G03X-3156704Y723665I-61186J-103710D01*
G03X-2975105Y619955I120414J0D01*
G01X-2975105Y573375D01*
G03X-3156704Y469665I-61186J-103710D01*
G03X-2975105Y365955I120414J0D01*
G01X-2975105Y319375D01*
G03X-3156704Y215665I-61186J-103710D01*
G03X-2975105Y111955I120414J0D01*
G01X-2975105Y65375D01*
G03X-3075148Y75637I-61186J-103710D01*
G01X-3379733Y380222D01*
G03X-3417291Y395779I-37557J-37557D01*
G01X-5227210Y395779D01*
G03X-5322291Y590079I-95081J73886D01*
G03X-5417371Y395779I0J-120414D01*
G01X-5736343Y395779D01*
G03X-5773900Y380222I0J-53114D01*
G01X-6227473Y-73351D01*
G03X-6361377Y-159878I-8227J-134142D01*
G01X-6361377Y-136510D01*
G01X-5367590Y857276D01*
G01X-5242291Y857276D01*
G01X-5322291Y844079D02*
G03X-5322291Y603251I0J-120414D01*
G03X-5322291Y844079I0J120414D01*
G01X-2975105Y-188625D02*
G03X-3075148Y-178363I-61186J-103710D01*
G01X-3367046Y113535D01*
G03X-3404603Y129091I-37557J-37557D01*
G01X-5238598Y129091D01*
G03X-5227210Y289551I-83693J86573D01*
G01X-3439291Y289551D01*
G01X-3150262Y522D01*
G03X-2975105Y-142045I113972J-38857D01*
G01X-2975105Y-188625D01*
G54D11*
G01X-3036291Y1057436D02*
G01X-3036291Y1087944D01*
G01X-3036291Y897944D02*
G01X-3036291Y867436D01*
G01X-3116036Y977690D02*
G01X-3146544Y977690D01*
G01X-5169891Y-6173773D02*
G01X-5169891Y-6204280D01*
G01X-5169891Y-5984281D02*
G01X-5169891Y-5953773D01*
G01X-5264636Y-6079027D02*
G01X-5295144Y-6079027D01*
G01X-5075145Y-6079027D02*
G01X-5044637Y-6079027D01*
G01X-3508477Y2400077D02*
G01X-3538985Y2400077D01*
G01X-3351505Y2400077D02*
G01X-3320997Y2400077D01*
G01X-3429991Y2478563D02*
G01X-3429991Y2509071D01*
G01X-3429991Y2321591D02*
G01X-3429991Y2291084D01*
G01X-5000636Y2565177D02*
G01X-5031144Y2565177D01*
G01X-4831145Y2565177D02*
G01X-4800637Y2565177D01*
G01X-4915891Y2649923D02*
G01X-4915891Y2680431D01*
G01X-4915891Y2480432D02*
G01X-4915891Y2449924D01*
G01X-4492636Y2565177D02*
G01X-4523144Y2565177D01*
G01X-4323145Y2565177D02*
G01X-4292637Y2565177D01*
G01X-4407891Y2649923D02*
G01X-4407891Y2680431D01*
G01X-4407891Y2480432D02*
G01X-4407891Y2449924D01*
G01X-5254636Y2565177D02*
G01X-5285144Y2565177D01*
G01X-5085145Y2565177D02*
G01X-5054637Y2565177D01*
G01X-5169891Y2649923D02*
G01X-5169891Y2680431D01*
G01X-5169891Y2480432D02*
G01X-5169891Y2449924D01*
G01X-4746636Y2565177D02*
G01X-4777144Y2565177D01*
G01X-4577145Y2565177D02*
G01X-4546637Y2565177D01*
G01X-4661891Y2649923D02*
G01X-4661891Y2680431D01*
G01X-4661891Y2480432D02*
G01X-4661891Y2449924D01*
G01X-3253049Y-4749527D02*
G01X-3283557Y-4749527D01*
G01X-3163303Y-4879273D02*
G01X-3163303Y-4909781D01*
G01X-3163303Y-4619781D02*
G01X-3163303Y-4589274D01*
G01X-3036291Y-2498589D02*
G01X-3036291Y-2468081D01*
G01X-3036291Y-2658081D02*
G01X-3036291Y-2688589D01*
G01X-2956545Y-2578335D02*
G01X-2926037Y-2578335D01*
G01X-3116036Y-2578335D02*
G01X-3146544Y-2578335D01*
G01X-3036291Y-1736589D02*
G01X-3036291Y-1706081D01*
G01X-3036291Y-1896081D02*
G01X-3036291Y-1926589D01*
G01X-2956545Y-1816335D02*
G01X-2926037Y-1816335D01*
G01X-3116036Y-1816335D02*
G01X-3146544Y-1816335D01*
G01X-1749844Y-1778223D02*
G01X-1719336Y-1778223D01*
G01X-1901736Y-1778223D02*
G01X-1932244Y-1778223D01*
G01X-1825790Y-1854169D02*
G01X-1825790Y-1884676D01*
G01X-1825790Y-1702277D02*
G01X-1825790Y-1671769D01*
G01X-1737144Y-2756123D02*
G01X-1706636Y-2756123D01*
G01X-1889036Y-2756123D02*
G01X-1919544Y-2756123D01*
G01X-1813090Y-2832069D02*
G01X-1813090Y-2862576D01*
G01X-1813090Y-2680177D02*
G01X-1813090Y-2649669D01*
G01X-8074445Y1422400D02*
G01X-8104953Y1422400D01*
G01X-7944954Y1422400D02*
G01X-7914446Y1422400D01*
G01X-8009699Y1487146D02*
G01X-8009699Y1517654D01*
G01X-8009699Y1357654D02*
G01X-8009699Y1327146D01*
G01X-5892800Y1622845D02*
G01X-5892800Y1653353D01*
G01X-5892800Y1493354D02*
G01X-5892800Y1462846D01*
G01X-5828054Y1558100D02*
G01X-5797546Y1558100D01*
G01X-5957546Y1558100D02*
G01X-5988054Y1558100D01*
G01X-6400800Y1762545D02*
G01X-6400800Y1793053D01*
G01X-6400800Y1633054D02*
G01X-6400800Y1602546D01*
G01X-6336054Y1697800D02*
G01X-6305546Y1697800D01*
G01X-6465546Y1697800D02*
G01X-6496054Y1697800D01*
G01X-6921500Y1645754D02*
G01X-6921500Y1615246D01*
G01X-6986246Y1710500D02*
G01X-7016754Y1710500D01*
G01X-8217903Y-4835681D02*
G01X-8217903Y-4805174D01*
G01X-8827491Y-316877D02*
G01X-8827491Y-286369D01*
G01X-8737745Y-406623D02*
G01X-8707237Y-406623D01*
G01X-8917236Y-406623D02*
G01X-8947744Y-406623D01*
G01X-5322291Y-2498589D02*
G01X-5322291Y-2468081D01*
G01X-5322291Y-2658081D02*
G01X-5322291Y-2688589D01*
G01X-5402036Y-2578335D02*
G01X-5432544Y-2578335D01*
G01X-8917741Y-2133823D02*
G01X-8948249Y-2133823D01*
G01X-8728249Y-2133823D02*
G01X-8697741Y-2133823D01*
G01X-8822995Y-2039077D02*
G01X-8822995Y-2008569D01*
G01X-8822995Y-2228568D02*
G01X-8822995Y-2259076D01*
G01X-7557491Y-1220668D02*
G01X-7557491Y-1251176D01*
G01X-7557491Y-1091177D02*
G01X-7557491Y-1060669D01*
G01X-7622236Y-1155923D02*
G01X-7652744Y-1155923D01*
G01X-7492745Y-1155923D02*
G01X-7462237Y-1155923D01*
G01X-8611591Y518217D02*
G01X-8611591Y548725D01*
G01X-8611591Y366325D02*
G01X-8611591Y335817D01*
G01X-8535645Y442271D02*
G01X-8505137Y442271D01*
G01X-8687537Y442271D02*
G01X-8718045Y442271D01*
G01X-1021140Y-5423112D02*
G01X-990632Y-5423112D01*
G01X-1190631Y-5423112D02*
G01X-1221139Y-5423112D01*
G01X-1105886Y-5507858D02*
G01X-1105886Y-5538366D01*
G01X-1105886Y-5338367D02*
G01X-1105886Y-5307859D01*
G01X-1190631Y-4915112D02*
G01X-1221139Y-4915112D01*
G01X-1105886Y-4999858D02*
G01X-1105886Y-5030366D01*
G01X-1105886Y-4830367D02*
G01X-1105886Y-4799859D01*
G01X-513140Y-5423112D02*
G01X-482632Y-5423112D01*
G01X-682631Y-5423112D02*
G01X-713139Y-5423112D01*
G01X-597886Y-5507858D02*
G01X-597886Y-5538366D01*
G01X-597886Y-5338367D02*
G01X-597886Y-5307859D01*
G01X-618146Y215900D02*
G01X-648654Y215900D01*
G01X-533400Y131154D02*
G01X-533400Y100646D01*
G01X-533400Y300646D02*
G01X-533400Y331154D01*
G01X140856Y-5867623D02*
G01X171364Y-5867623D01*
G01X-58636Y-5867623D02*
G01X-89144Y-5867623D01*
G01X41110Y-5967368D02*
G01X41110Y-5997876D01*
G01X41110Y-5767877D02*
G01X41110Y-5737369D01*
G01X1075346Y215900D02*
G01X1105854Y215900D01*
G01X990600Y131154D02*
G01X990600Y100646D01*
G01X1865912Y-2594876D02*
G01X1865912Y-2564368D01*
G01X1865912Y-2774367D02*
G01X1865912Y-2804875D01*
G01X1955658Y-2684622D02*
G01X1986166Y-2684622D01*
G01X1776166Y-2684622D02*
G01X1745658Y-2684622D01*
G01X1879600Y-4376946D02*
G01X1879600Y-4407454D01*
G01X1879600Y-4157454D02*
G01X1879600Y-4126946D01*
G01X1769854Y-4267200D02*
G01X1739346Y-4267200D01*
G01X1989346Y-4267200D02*
G01X2019854Y-4267200D01*
G04 Copper End*

G04 Pad Start*
G54D12*
G01X-8611591Y192284D03*
G54D13*
G01X-8611591Y442271D03*
G54D14*
G01X87211Y-3652920D03*
G01X87211Y-3992925D03*
G01X1079208Y-3992925D03*
G01X1079208Y-3652920D03*
G01X-6663588Y-4508024D03*
G01X-7003593Y-4508024D03*
G01X-7003593Y-5500021D03*
G01X-6663588Y-5500021D03*
G54D15*
G01X-1080491Y1993677D03*
G01X-1080491Y2247677D03*
G54D16*
G01X-1080491Y2501677D03*
G54D15*
G01X-1080491Y609377D03*
G01X-1080491Y863377D03*
G54D16*
G01X-1080491Y1117377D03*
G54D18*
G01X722909Y-1003523D03*
G54D19*
G01X468909Y-1003523D03*
G01X214909Y-1003523D03*
G01X-39091Y-1003523D03*
G54D20*
G01X-8827491Y-406623D03*
G54D15*
G01X-8827491Y-660623D03*
G01X-8827491Y-914623D03*
G01X-8827491Y-1168623D03*
G54D21*
G01X-2413991Y2400077D03*
G01X-2667991Y2400077D03*
G01X-2921991Y2400077D03*
G01X-3175991Y2400077D03*
G54D22*
G01X-3429991Y2400077D03*
G54D23*
G01X-3036291Y977690D03*
G54D24*
G01X-3036291Y723665D03*
G01X-3036291Y469665D03*
G01X-3036291Y215665D03*
G01X-3036291Y-38335D03*
G01X-3036291Y-292335D03*
G01X-3036291Y-546335D03*
G01X-3036291Y-800335D03*
G01X-3036291Y-1054335D03*
G01X-3036291Y-1308335D03*
G01X-3036291Y-1562335D03*
G01X-3036291Y-1816335D03*
G01X-3036291Y-2070335D03*
G01X-3036291Y-2324335D03*
G01X-3036291Y-2578335D03*
G01X-3036291Y-2832335D03*
G54D23*
G01X-5322291Y977690D03*
G54D24*
G01X-5322291Y723665D03*
G01X-5322291Y469665D03*
G01X-5322291Y215665D03*
G01X-5322291Y-38335D03*
G01X-5322291Y-292335D03*
G01X-5322291Y-546335D03*
G01X-5322291Y-800335D03*
G01X-5322291Y-1054335D03*
G01X-5322291Y-1308335D03*
G01X-5322291Y-1562335D03*
G01X-5322291Y-1816335D03*
G01X-5322291Y-2070335D03*
G01X-5322291Y-2324335D03*
G01X-5322291Y-2578335D03*
G01X-5322291Y-2832335D03*
G54D25*
G01X-7713891Y-5816823D03*
G01X-8213890Y-5816823D03*
G01X-2062391Y-5854923D03*
G01X-2562390Y-5854923D03*
G01X541109Y-5867623D03*
G01X41110Y-5867623D03*
G54D26*
G01X-7557491Y-647923D03*
G01X-7557491Y-1155923D03*
G54D12*
G01X-1825790Y-1778223D03*
G01X-1325791Y-1778223D03*
G01X-1813090Y-2756123D03*
G01X-1313091Y-2756123D03*
G54D24*
G01X-1584300Y-4507732D03*
G01X-1694282Y-5017713D03*
G54D27*
G01X276797Y-1972723D03*
G01X76797Y-2472722D03*
G54D24*
G01X48819Y-4695032D03*
G01X558800Y-4805014D03*
G54D28*
G01X-7963891Y-4153123D03*
G01X-7963891Y-4407123D03*
G01X-3328391Y-5689823D03*
G01X-3074391Y-5689823D03*
G54D19*
G01X-534391Y1485677D03*
G01X-280391Y1485677D03*
G01X-26391Y1485677D03*
G01X227609Y1485677D03*
G01X481609Y1485677D03*
G01X735609Y1485677D03*
G01X989609Y1485677D03*
G54D29*
G01X1243609Y1485677D03*
G54D19*
G01X-533400Y215900D03*
G01X-279400Y215900D03*
G01X-25400Y215900D03*
G01X228600Y215900D03*
G01X482600Y215900D03*
G01X736600Y215900D03*
G01X990600Y215900D03*
G54D29*
G01X1244600Y215900D03*
G54D12*
G01X-7966189Y-3721323D03*
G01X-6666192Y-3721323D03*
G54D30*
G01X-8822995Y-2133823D03*
G01X-6672986Y-2133823D03*
G54D12*
G01X-3696691Y-4701521D03*
G01X-3696691Y-3401524D03*
G54D30*
G01X-5169891Y-6079027D03*
G01X-5169891Y-3929018D03*
G54D31*
G01X-6312891Y-1706315D03*
G01X-6312891Y-656330D03*
G54D30*
G01X1929409Y1798682D03*
G01X1929409Y-351327D03*
G54D32*
G01X1879600Y-4767199D03*
G01X1879600Y-4267200D03*
G01X1879600Y-3767201D03*
G54D15*
G01X-7224979Y-3124423D03*
G01X-8525002Y-3124423D03*
G01X-4280891Y-4354011D03*
G01X-4280891Y-5654034D03*
G54D19*
G01X-597886Y-4915112D03*
G01X-851886Y-4915112D03*
G01X-1105886Y-4915112D03*
G01X-1105886Y-5423112D03*
G01X-597886Y-5423112D03*
G54D15*
G01X1865912Y-1684624D03*
G01X1865912Y-2184623D03*
G01X1865912Y-2684622D03*
G54D33*
G01X-7963878Y-4966418D03*
G01X-8217903Y-4965427D03*
G54D34*
G01X-7709878Y-4966418D03*
G54D33*
G01X-2909278Y-4750518D03*
G01X-3163303Y-4749527D03*
G54D34*
G01X-2655278Y-4750518D03*
G54D18*
G01X-7328891Y939577D03*
G54D19*
G01X-7074891Y939577D03*
G01X-6820891Y939577D03*
G01X-6566891Y939577D03*
G54D26*
G01X-8009699Y1422400D03*
G01X-7509700Y1422400D03*
G01X-6921500Y1710500D03*
G01X-6921500Y1210501D03*
G01X-6400800Y1697800D03*
G01X-6400800Y1197801D03*
G01X-5892800Y1558100D03*
G01X-5892800Y1058101D03*
G54D18*
G01X-5169891Y2565177D03*
G54D19*
G01X-4915891Y2565177D03*
G01X-4661891Y2565177D03*
G01X-4407891Y2565177D03*
G54D31*
G01X-7759700Y1814093D03*
G01X-7759700Y2834107D03*
G01X-7340600Y1814093D03*
G01X-7340600Y2834107D03*
G01X-6896100Y1877593D03*
G01X-6896100Y2897607D03*
G01X-6502400Y1877593D03*
G01X-6502400Y2897607D03*
G54D35*
G01X-7924800Y461493D03*
G01X-7924800Y-588493D03*
G01X-6794500Y-135407D03*
G01X-6794500Y-1185393D03*
G01X-6235700Y842493D03*
G01X-6235700Y-207493D03*
G01X-5816600Y791693D03*
G01X-5816600Y-258293D03*
G54D36*
G01X-9048750Y2670810D03*
G01X-9048750Y-6000750D03*
G01X2518410Y-6000750D03*
G01X2518410Y2670810D03*
G04 Pad End*

G04 Via Start*
G54D37*
G01X-9119591Y-470135D03*
G01X-3723400Y-258501D03*
G01X-4484091Y-1308335D03*
G01X-5944159Y2243340D03*
G01X-3353791Y1879377D03*
G01X-2540991Y1930177D03*
G01X-8840577Y-5273263D03*
G01X-8840577Y-4765263D03*
G01X-8840577Y-4257263D03*
G01X-8840577Y-3749263D03*
G01X-8840577Y822737D03*
G01X-8840577Y1330737D03*
G01X-8840577Y1838737D03*
G01X-8332577Y-1717263D03*
G01X-8269077Y-701263D03*
G01X-8332577Y822737D03*
G01X-7824577Y-3241263D03*
G01X-7824577Y-2225263D03*
G01X-7824577Y-1717263D03*
G01X-7316577Y-1717263D03*
G01X-7316577Y-193263D03*
G01X-7316577Y314737D03*
G01X-6808577Y-3241263D03*
G01X-6300577Y-3241263D03*
G01X-6300577Y-2733263D03*
G01X-5792577Y-5781263D03*
G01X-5792577Y-5273263D03*
G01X-5792577Y-4765263D03*
G01X-5792577Y-4257263D03*
G01X-5792577Y-1209263D03*
G01X-5792577Y2854737D03*
G01X-5284577Y-5273263D03*
G01X-5284577Y-4765263D03*
G01X-4776577Y-5273263D03*
G01X-4776577Y-4765263D03*
G01X-4776577Y-2733263D03*
G01X-4776577Y-1717263D03*
G01X-4776577Y-1209263D03*
G01X-4776577Y-701263D03*
G01X-4268577Y-2733263D03*
G01X-4268577Y-1717263D03*
G01X-4268577Y-1209263D03*
G01X-4268577Y-701263D03*
G01X-3760577Y-5273263D03*
G01X-3760577Y-2733263D03*
G01X-3760577Y-1717263D03*
G01X-3760577Y-1209263D03*
G01X-3760577Y-701263D03*
G01X-3760577Y2346737D03*
G01X-3760577Y2854737D03*
G01X-3252577Y-3241263D03*
G01X-2744577Y-3241263D03*
G01X-2236577Y-3749263D03*
G01X-2236577Y-3241263D03*
G01X-2236577Y-2733263D03*
G01X-2236577Y-1717263D03*
G01X-2236577Y-1209263D03*
G01X-2236577Y-701263D03*
G01X-2236577Y-193263D03*
G01X-2236577Y314737D03*
G01X-2236577Y2854737D03*
G01X-1728577Y-3749263D03*
G01X-1728577Y-3241263D03*
G01X-1728577Y-2225263D03*
G01X-1728577Y-1209263D03*
G01X-1728577Y-701263D03*
G01X-1728577Y-193263D03*
G01X-1728577Y314737D03*
G01X-1728577Y2854737D03*
G01X-1118977Y-6060663D03*
G01X-1220577Y-3749263D03*
G01X-1220577Y-3241263D03*
G01X-1220577Y-1209263D03*
G01X-1220577Y-701263D03*
G01X-1220577Y-193263D03*
G01X-610977Y-6060663D03*
G01X-712577Y-3749263D03*
G01X-712577Y-3241263D03*
G01X-712577Y-2225263D03*
G01X-712577Y-1209263D03*
G01X-712577Y-701263D03*
G01X-712577Y822737D03*
G01X-204577Y822737D03*
G01X-204577Y2346737D03*
G01X-204577Y2854737D03*
G01X303423Y822737D03*
G01X303423Y2346737D03*
G01X303423Y2854737D03*
G01X811423Y-2771363D03*
G01X811423Y-1717263D03*
G01X811423Y822737D03*
G01X811423Y2346737D03*
G01X811423Y2854737D03*
G01X1319423Y-5781263D03*
G01X1319423Y-5273263D03*
G01X1319423Y-4765263D03*
G01X1319423Y-1209263D03*
G01X1319423Y822737D03*
G01X1827423Y-5781263D03*
G01X1827423Y822737D03*
G01X2335423Y-5273263D03*
G01X2335423Y-1209263D03*
G01X2335423Y924337D03*
G01X-4776577Y-363885D03*
G01X-4267200Y-368300D03*
G01X-4800600Y228600D03*
G01X-4267200Y228600D03*
G01X-8369300Y1841500D03*
G01X-6807200Y-6172200D03*
G01X-6146800Y-6172200D03*
G01X-3924300Y-6134100D03*
G04 Via End*

G04 Track Start*
G54D38*
G01X-2062391Y-5854923D02*
G01X-1694282Y-5486813D01*
G01X-1694282Y-5017713D01*
G01X1879600Y-3767201D02*
G01X909701Y-4737100D01*
G01X696230Y-4737100D01*
G01X618944Y-4659814D01*
G01X108963Y-4840231D02*
G01X-11325Y-4840231D01*
G01X-114456Y-4737100D01*
G01X618944Y-4659814D02*
G01X289381Y-4659814D01*
G01X108963Y-4840231D01*
G01X-673873Y-4737100D02*
G01X-851886Y-4915112D01*
G01X-114456Y-4737100D02*
G01X-673873Y-4737100D01*
G54D39*
G01X-5169891Y-3929018D02*
G01X-4705883Y-3929018D01*
G01X-4280891Y-4354011D01*
G01X-3051785Y-4354011D01*
G01X-2655278Y-4750518D01*
G01X-1080491Y2501677D02*
G01X-26391Y2501677D01*
G01X989609Y1485677D01*
G01X-1080491Y1993677D02*
G01X-26391Y1993677D01*
G01X481609Y1485677D01*
G01X-3328391Y-5689823D02*
G01X-3328391Y-5069821D01*
G01X-3696691Y-4701521D01*
G01X-26391Y1485677D02*
G01X227609Y1485677D01*
G01X-7509700Y1120387D02*
G01X-7509700Y1422400D01*
G01X-7509700Y1564094D01*
G01X-7759700Y1814093D01*
G01X-7074891Y939577D02*
G01X-7074891Y1057110D01*
G01X-6921500Y1210501D01*
G01X-6921500Y1394993D01*
G01X-7340600Y1814093D01*
G01X-7074891Y939577D02*
G01X-7074891Y144983D01*
G01X-6794500Y-135407D01*
G01X-6820891Y939577D02*
G01X-6566891Y1193577D01*
G01X-6405023Y1193577D01*
G01X-6400800Y1197801D01*
G01X-6400800Y982193D01*
G01X-6566891Y1193577D02*
G01X-6566891Y1548384D01*
G01X-6896100Y1877593D01*
G01X-7963891Y-4153123D02*
G01X-7963891Y-3723621D01*
G01X-7966189Y-3721323D01*
G01X722909Y-1003523D02*
G01X722909Y202209D01*
G01X736600Y215900D01*
G01X468909Y-1003523D02*
G01X468909Y202209D01*
G01X482600Y215900D01*
G01X214909Y-1003523D02*
G01X214909Y202209D01*
G01X228600Y215900D01*
G01X-39091Y-1003523D02*
G01X-39091Y202209D01*
G01X-25400Y215900D01*
G01X276797Y-1972723D02*
G01X1244600Y-1004920D01*
G01X1244600Y215900D01*
G01X-6672986Y-2133823D02*
G01X-6672986Y-2572430D01*
G01X-7224979Y-3124423D01*
G01X-7224979Y-4481519D01*
G01X-7709878Y-4966418D01*
G01X-1080491Y609377D02*
G01X-1080491Y863377D01*
G01X-1080491Y1117377D01*
G01X-1080491Y609377D02*
G01X-672877Y609377D01*
G01X-279400Y215900D01*
G01X-152400Y342900D01*
G01X1929409Y-351327D02*
G01X1929409Y-1621126D01*
G01X1865912Y-1684624D01*
G01X-1080491Y1117377D02*
G01X-1537691Y1117377D01*
G01X-2807691Y2387377D01*
G01X-2807691Y2438177D01*
G01X-2883891Y2514377D01*
G01X-3061691Y2514377D01*
G01X-3175991Y2400077D01*
G01X-4598378Y977690D01*
G01X-5322291Y977690D01*
G01X-6414491Y-114510D01*
G01X-6414491Y-554730D01*
G01X-6312891Y-656330D01*
G01X-5322291Y977690D02*
G01X-5322291Y1717497D01*
G01X-6502400Y2897607D01*
G01X-6896100Y2897607D01*
G01X-7277100Y2897607D01*
G01X-7340600Y2834107D01*
G01X-7759700Y2834107D01*
G01X-5322291Y-292335D02*
G01X-5195291Y-419335D01*
G01X-5195291Y-3772135D01*
G01X-5296891Y-3873735D01*
G01X-5296891Y-4638034D01*
G01X-4280891Y-5654034D01*
G01X-8827491Y-1168623D02*
G01X-8954491Y-1041623D01*
G01X-8954491Y-863823D01*
G01X-8878291Y-787623D01*
G01X-6160491Y-787623D01*
G01X-5449291Y-76423D01*
G01X-5449291Y-223D01*
G01X-5373091Y75977D01*
G01X-3404603Y75977D01*
G01X-3036291Y-292335D01*
G01X-8827491Y-914623D02*
G01X-6109691Y-914623D01*
G01X-5373091Y-178023D01*
G01X-3404603Y-178023D01*
G01X-3036291Y-546335D01*
G01X-2921991Y2400077D02*
G01X-2921991Y-686035D01*
G01X-3036291Y-800335D01*
G01X-3036291Y-38335D02*
G01X-3417291Y342665D01*
G01X-5736343Y342665D01*
G01X-8611591Y192284D02*
G01X-8397697Y192284D01*
G01X-7557491Y-647923D01*
G01X-8611591Y442271D02*
G01X-8827491Y226371D01*
G01X-8827491Y-406623D01*
G01X-8611591Y442271D02*
G01X-8611591Y820509D01*
G01X-8009699Y1422400D01*
G01X-8009699Y1710500D01*
G01X-7806499Y1913700D01*
G01X-7298499Y1913700D01*
G01X-7095299Y1710500D01*
G01X-7019099Y1710500D02*
G01X-7019099Y1913700D01*
G01X-6942899Y1989900D01*
G01X-6866699Y1989900D01*
G01X-6574599Y1697800D01*
G01X-6400800Y1697800D01*
G01X-6146800Y1697800D01*
G01X-6019800Y1570800D01*
G01X-5905500Y1570800D01*
G01X-5892800Y1558100D01*
G01X-8827491Y-406623D02*
G01X-9005291Y-584423D01*
G01X-9005291Y-1951527D01*
G01X-8822995Y-2133823D01*
G01X-864591Y215677D02*
G01X-533623Y215677D01*
G01X-864591Y215677D02*
G01X-864591Y-817023D01*
G01X-1825790Y-1778223D01*
G01X-1825790Y-2743423D02*
G01X-1813090Y-2756123D01*
G01X-3023578Y-1803623D02*
G01X-3036291Y-1816335D01*
G01X-2994190Y-1803623D02*
G01X-2917990Y-1879823D01*
G01X-2917990Y-2460035D01*
G01X-3036291Y-2578335D01*
G01X-1813090Y-2756123D02*
G01X-1813090Y-4153123D01*
G01X-2524290Y-4864323D01*
G01X-2524290Y-4889723D01*
G01X-2549690Y-4915123D01*
G01X-2997708Y-4915123D01*
G01X-3163303Y-4749527D01*
G01X-2524290Y-4889723D02*
G01X-1131275Y-4889723D01*
G01X-1105886Y-4915112D01*
G01X-1105886Y-5423112D01*
G01X-597886Y-5423112D01*
G01X-403400Y-5423112D01*
G01X41110Y-5867623D01*
G01X-3163303Y-4749527D02*
G01X-3315703Y-4597127D01*
G01X-3747503Y-4597127D01*
G01X-4153903Y-5003527D01*
G01X-4153903Y-5698039D01*
G01X-4534891Y-6079027D01*
G01X-5169891Y-6079027D01*
G01X41110Y-5867623D02*
G01X168110Y-5867623D01*
G01X1768310Y-4267423D01*
G01X1869910Y-4267423D01*
G01X1879600Y-4267200D01*
G01X1869910Y-4267423D02*
G01X2022310Y-4115023D01*
G01X2022310Y-2841019D01*
G01X1865912Y-2684622D01*
G01X-8822995Y-2133823D02*
G01X-8822995Y-4360336D01*
G01X-8217903Y-4965427D01*
G01X-7095299Y1710500D02*
G01X-7019099Y1710500D01*
G01X-6921500Y1710500D01*
G01X-1825790Y-1778223D02*
G01X-1825790Y-1803623D01*
G01X-1825790Y-2743423D01*
G01X-1825790Y-1803623D02*
G01X-2994190Y-1803623D01*
G01X-3023578Y-1803623D01*
G01X-5905500Y1570800D02*
G01X-5905500Y2204681D01*
G01X-5944159Y2243340D01*
G01X-152400Y342900D02*
G01X1397000Y342900D01*
G01X1929409Y-189509D01*
G01X1929409Y-351327D01*
G01X-7379691Y990377D02*
G01X-7395915Y990377D01*
G01X-7886700Y499593D01*
G01X-7886700Y448793D01*
G01X-7379691Y990377D02*
G01X-7509700Y1120387D01*
G01X-7328891Y939577D02*
G01X-7379691Y990377D01*
G01X-3723400Y-258501D02*
G01X-3723400Y-547644D01*
G01X-4484091Y-1308335D01*
G01X-5736343Y342665D02*
G01X-6235700Y-156693D01*
G01X-6235700Y-207493D01*
G01X-6400800Y982193D02*
G01X-6261100Y842493D01*
G01X-6235700Y842493D01*
G01X-3353791Y1879377D02*
G01X-3353791Y1295190D01*
G01X-3036291Y977690D01*
G01X-2540991Y1930177D02*
G01X-2540991Y1892077D01*
G01X-864591Y215677D01*
G01X-8266739Y-5123327D02*
G01X-8169068Y-5123327D01*
G01X-8100003Y-5054263D01*
G01X-9045891Y-4344175D02*
G01X-8266739Y-5123327D01*
G01X-8100003Y-5054263D02*
G01X-8100003Y-3549421D01*
G01X-8525002Y-3124423D01*
G01X-9045891Y-778086D02*
G01X-9045891Y-4344175D01*
G01X-9119591Y-470135D02*
G01X-9119591Y-704386D01*
G01X-9045891Y-778086D01*
G01X-9119591Y-470135D02*
G01X-9119591Y-202885D01*
G04 Track End*

M02*

