G04 Layer: TopSilkscreenLayer*
G04 EasyEDA Pro v2.2.47.7, 2026-06-05 17:07:56*
G04 Gerber Generator version 0.3*
G04 Scale: 100 percent, Rotated: No, Reflected: No*
G04 Dimensions in millimeters*
G04 Leading zeros omitted, absolute positions, 4 integers and 5 decimals*
G04 Generated by one-click*
G04 Object Configs: Pad,Via,Track,Text,Image,Dimension,BoardOutline,BoardCutout,CopperFilled,SolidRegion,FPCStiffener,Line,PlaneZone,ComponentProperty,ComponentSilkscreen,TearDrop*
G04 Layer Configs: 1,2,3,4,5,6,7,8,9,10,11,13,14,56*
G04 Copper Areas: 0*
%FSLAX45Y45*%
%MOMM*%
%ADD10C,0.2032*%
%ADD11C,0.203*%
%ADD12C,0.1524*%
%ADD13C,0.254*%
%ADD14C,0.4*%
%ADD15C,0.9826*%
G75*


G04 Text Start*
G54D10*
G01X2405380Y-5057140D02*
G01X2396490Y-5039360D01*
G01X2369820Y-5012690D01*
G01X2556510Y-5012690D01*
G01X2414270Y-4940808D02*
G01X2405380Y-4940808D01*
G01X2387600Y-4931918D01*
G01X2378710Y-4923028D01*
G01X2369820Y-4905248D01*
G01X2369820Y-4869688D01*
G01X2378710Y-4851908D01*
G01X2387600Y-4843018D01*
G01X2405380Y-4834128D01*
G01X2423160Y-4834128D01*
G01X2440940Y-4843018D01*
G01X2467610Y-4860798D01*
G01X2556510Y-4949698D01*
G01X2556510Y-4825238D01*
G01X2369820Y-4762246D02*
G01X2556510Y-4691126D01*
G01X2369820Y-4620006D02*
G01X2556510Y-4691126D01*
G01X1838960Y-3144520D02*
G01X1838960Y-3331210D01*
G01X1838960Y-3144520D02*
G01X1918970Y-3144520D01*
G01X1945640Y-3153410D01*
G01X1954530Y-3162300D01*
G01X1963420Y-3180080D01*
G01X1963420Y-3206750D01*
G01X1954530Y-3224530D01*
G01X1945640Y-3233420D01*
G01X1918970Y-3242310D01*
G01X1838960Y-3242310D01*
G01X2150872Y-3171190D02*
G01X2133092Y-3153410D01*
G01X2106422Y-3144520D01*
G01X2070862Y-3144520D01*
G01X2044192Y-3153410D01*
G01X2026412Y-3171190D01*
G01X2026412Y-3188970D01*
G01X2035302Y-3206750D01*
G01X2044192Y-3215640D01*
G01X2061972Y-3224530D01*
G01X2115312Y-3242310D01*
G01X2133092Y-3251200D01*
G01X2141982Y-3260090D01*
G01X2150872Y-3277870D01*
G01X2150872Y-3304540D01*
G01X2133092Y-3322320D01*
G01X2106422Y-3331210D01*
G01X2070862Y-3331210D01*
G01X2044192Y-3322320D01*
G01X2026412Y-3304540D01*
G01X2213864Y-3393440D02*
G01X2373884Y-3393440D01*
G01X2490216Y-3144520D02*
G01X2472436Y-3153410D01*
G01X2454656Y-3171190D01*
G01X2445766Y-3188970D01*
G01X2436876Y-3215640D01*
G01X2436876Y-3260090D01*
G01X2445766Y-3286760D01*
G01X2454656Y-3304540D01*
G01X2472436Y-3322320D01*
G01X2490216Y-3331210D01*
G01X2525776Y-3331210D01*
G01X2543556Y-3322320D01*
G01X2561336Y-3304540D01*
G01X2570226Y-3286760D01*
G01X2579116Y-3260090D01*
G01X2579116Y-3215640D01*
G01X2570226Y-3188970D01*
G01X2561336Y-3171190D01*
G01X2543556Y-3153410D01*
G01X2525776Y-3144520D01*
G01X2490216Y-3144520D01*
G01X2642108Y-3144520D02*
G01X2642108Y-3331210D01*
G01X2642108Y-3144520D02*
G01X2766568Y-3331210D01*
G01X2766568Y-3144520D02*
G01X2766568Y-3331210D01*
G01X484149Y-5202143D02*
G01X395249Y-5202143D01*
G01X386359Y-5282153D01*
G01X395249Y-5273263D01*
G01X421919Y-5264373D01*
G01X448589Y-5264373D01*
G01X475259Y-5273263D01*
G01X493039Y-5291043D01*
G01X501929Y-5317713D01*
G01X501929Y-5335493D01*
G01X493039Y-5362163D01*
G01X475259Y-5379943D01*
G01X448589Y-5388833D01*
G01X421919Y-5388833D01*
G01X395249Y-5379943D01*
G01X386359Y-5371053D01*
G01X377469Y-5353273D01*
G01X564921Y-5202143D02*
G01X636041Y-5388833D01*
G01X707161Y-5202143D02*
G01X636041Y-5388833D01*
G01X-136881Y-5233893D02*
G01X-145771Y-5216113D01*
G01X-163551Y-5198333D01*
G01X-181331Y-5189443D01*
G01X-216891Y-5189443D01*
G01X-234671Y-5198333D01*
G01X-252451Y-5216113D01*
G01X-261341Y-5233893D01*
G01X-270231Y-5260563D01*
G01X-270231Y-5305013D01*
G01X-261341Y-5331683D01*
G01X-252451Y-5349463D01*
G01X-234671Y-5367243D01*
G01X-216891Y-5376133D01*
G01X-181331Y-5376133D01*
G01X-163551Y-5367243D01*
G01X-145771Y-5349463D01*
G01X-136881Y-5331683D01*
G01X-136881Y-5305013D01*
G01X-181331Y-5305013D02*
G01X-136881Y-5305013D01*
G01X-73889Y-5189443D02*
G01X-73889Y-5376133D01*
G01X-73889Y-5189443D02*
G01X50571Y-5376133D01*
G01X50571Y-5189443D02*
G01X50571Y-5376133D01*
G01X113563Y-5189443D02*
G01X113563Y-5376133D01*
G01X113563Y-5189443D02*
G01X175793Y-5189443D01*
G01X202463Y-5198333D01*
G01X220243Y-5216113D01*
G01X229133Y-5233893D01*
G01X238023Y-5260563D01*
G01X238023Y-5305013D01*
G01X229133Y-5331683D01*
G01X220243Y-5349463D01*
G01X202463Y-5367243D01*
G01X175793Y-5376133D01*
G01X113563Y-5376133D01*
G01X-780771Y-4377913D02*
G01X-798551Y-4360133D01*
G01X-825221Y-4351243D01*
G01X-860781Y-4351243D01*
G01X-887451Y-4360133D01*
G01X-905231Y-4377913D01*
G01X-905231Y-4395693D01*
G01X-896341Y-4413473D01*
G01X-887451Y-4422363D01*
G01X-869671Y-4431253D01*
G01X-816331Y-4449033D01*
G01X-798551Y-4457923D01*
G01X-789661Y-4466813D01*
G01X-780771Y-4484593D01*
G01X-780771Y-4511263D01*
G01X-798551Y-4529043D01*
G01X-825221Y-4537933D01*
G01X-860781Y-4537933D01*
G01X-887451Y-4529043D01*
G01X-905231Y-4511263D01*
G01X-717779Y-4351243D02*
G01X-673329Y-4537933D01*
G01X-628879Y-4351243D02*
G01X-673329Y-4537933D01*
G01X-628879Y-4351243D02*
G01X-584429Y-4537933D01*
G01X-539979Y-4351243D02*
G01X-584429Y-4537933D01*
G01X-8068031Y-1491203D02*
G01X-8050251Y-1482313D01*
G01X-8023581Y-1455643D01*
G01X-8023581Y-1642333D01*
G01X-7907249Y-1455643D02*
G01X-7933919Y-1464533D01*
G01X-7951699Y-1491203D01*
G01X-7960589Y-1535653D01*
G01X-7960589Y-1562323D01*
G01X-7951699Y-1606773D01*
G01X-7933919Y-1633443D01*
G01X-7907249Y-1642333D01*
G01X-7889469Y-1642333D01*
G01X-7862799Y-1633443D01*
G01X-7845019Y-1606773D01*
G01X-7836129Y-1562323D01*
G01X-7836129Y-1535653D01*
G01X-7845019Y-1491203D01*
G01X-7862799Y-1464533D01*
G01X-7889469Y-1455643D01*
G01X-7907249Y-1455643D01*
G01X-7773137Y-1455643D02*
G01X-7773137Y-1642333D01*
G01X-7648677Y-1455643D02*
G01X-7773137Y-1580103D01*
G01X-7728687Y-1535653D02*
G01X-7648677Y-1642333D01*
G01X-7585685Y-1642333D02*
G01X-7523455Y-1642333D01*
G01X-7541235Y-1615663D01*
G01X-7559015Y-1588993D01*
G01X-7567905Y-1562323D01*
G01X-7567905Y-1535653D01*
G01X-7559015Y-1508983D01*
G01X-7550125Y-1491203D01*
G01X-7532345Y-1473423D01*
G01X-7514565Y-1464533D01*
G01X-7479005Y-1464533D01*
G01X-7461225Y-1473423D01*
G01X-7443445Y-1491203D01*
G01X-7434555Y-1508983D01*
G01X-7425665Y-1535653D01*
G01X-7425665Y-1562323D01*
G01X-7434555Y-1588993D01*
G01X-7452335Y-1615663D01*
G01X-7470115Y-1642333D01*
G01X-7407885Y-1642333D01*
G01X-7105371Y-696183D02*
G01X-7096481Y-713963D01*
G01X-7069811Y-740633D01*
G01X-7256501Y-740633D01*
G01X-7069811Y-856965D02*
G01X-7078701Y-830295D01*
G01X-7105371Y-812515D01*
G01X-7149821Y-803625D01*
G01X-7176491Y-803625D01*
G01X-7220941Y-812515D01*
G01X-7247611Y-830295D01*
G01X-7256501Y-856965D01*
G01X-7256501Y-874745D01*
G01X-7247611Y-901415D01*
G01X-7220941Y-919195D01*
G01X-7176491Y-928085D01*
G01X-7149821Y-928085D01*
G01X-7105371Y-919195D01*
G01X-7078701Y-901415D01*
G01X-7069811Y-874745D01*
G01X-7069811Y-856965D01*
G01X-7132041Y-991077D02*
G01X-7220941Y-991077D01*
G01X-7247611Y-999967D01*
G01X-7256501Y-1017747D01*
G01X-7256501Y-1044417D01*
G01X-7247611Y-1062197D01*
G01X-7220941Y-1088867D01*
G01X-7132041Y-1088867D02*
G01X-7256501Y-1088867D01*
G01X-7069811Y-1151859D02*
G01X-7256501Y-1151859D01*
G01X-7069811Y-1151859D02*
G01X-7069811Y-1267429D01*
G01X-7158711Y-1151859D02*
G01X-7158711Y-1222979D01*
G01X-5926811Y-962883D02*
G01X-6051271Y-873983D01*
G01X-6051271Y-1007333D01*
G01X-5926811Y-962883D02*
G01X-6113501Y-962883D01*
G01X-6069051Y-1079215D02*
G01X-6077941Y-1070325D01*
G01X-6086831Y-1079215D01*
G01X-6077941Y-1088105D01*
G01X-6069051Y-1079215D01*
G01X-5926811Y-1195547D02*
G01X-5935701Y-1168877D01*
G01X-5953481Y-1159987D01*
G01X-5971261Y-1159987D01*
G01X-5989041Y-1168877D01*
G01X-5997931Y-1186657D01*
G01X-6006821Y-1222217D01*
G01X-6015711Y-1248887D01*
G01X-6033491Y-1266667D01*
G01X-6051271Y-1275557D01*
G01X-6077941Y-1275557D01*
G01X-6095721Y-1266667D01*
G01X-6104611Y-1257777D01*
G01X-6113501Y-1231107D01*
G01X-6113501Y-1195547D01*
G01X-6104611Y-1168877D01*
G01X-6095721Y-1159987D01*
G01X-6077941Y-1151097D01*
G01X-6051271Y-1151097D01*
G01X-6033491Y-1159987D01*
G01X-6015711Y-1177767D01*
G01X-6006821Y-1204437D01*
G01X-5997931Y-1239997D01*
G01X-5989041Y-1257777D01*
G01X-5971261Y-1266667D01*
G01X-5953481Y-1266667D01*
G01X-5935701Y-1257777D01*
G01X-5926811Y-1231107D01*
G01X-5926811Y-1195547D01*
G01X-5926811Y-1338549D02*
G01X-6113501Y-1338549D01*
G01X-5926811Y-1463009D02*
G01X-6051271Y-1338549D01*
G01X-6006821Y-1382999D02*
G01X-6113501Y-1463009D01*
G01X-8144231Y-2659603D02*
G01X-8126451Y-2650713D01*
G01X-8099781Y-2624043D01*
G01X-8099781Y-2810733D01*
G01X-7983449Y-2624043D02*
G01X-8010119Y-2632933D01*
G01X-8027899Y-2659603D01*
G01X-8036789Y-2704053D01*
G01X-8036789Y-2730723D01*
G01X-8027899Y-2775173D01*
G01X-8010119Y-2801843D01*
G01X-7983449Y-2810733D01*
G01X-7965669Y-2810733D01*
G01X-7938999Y-2801843D01*
G01X-7921219Y-2775173D01*
G01X-7912329Y-2730723D01*
G01X-7912329Y-2704053D01*
G01X-7921219Y-2659603D01*
G01X-7938999Y-2632933D01*
G01X-7965669Y-2624043D01*
G01X-7983449Y-2624043D01*
G01X-7849337Y-2810733D02*
G01X-7787107Y-2810733D01*
G01X-7804887Y-2784063D01*
G01X-7822667Y-2757393D01*
G01X-7831557Y-2730723D01*
G01X-7831557Y-2704053D01*
G01X-7822667Y-2677383D01*
G01X-7813777Y-2659603D01*
G01X-7795997Y-2641823D01*
G01X-7778217Y-2632933D01*
G01X-7742657Y-2632933D01*
G01X-7724877Y-2641823D01*
G01X-7707097Y-2659603D01*
G01X-7698207Y-2677383D01*
G01X-7689317Y-2704053D01*
G01X-7689317Y-2730723D01*
G01X-7698207Y-2757393D01*
G01X-7715987Y-2784063D01*
G01X-7733767Y-2810733D01*
G01X-7671537Y-2810733D01*
G01X-7139686Y189230D02*
G01X-7021830Y189230D01*
G01X-7139686Y149860D02*
G01X-7139686Y228346D01*
G01X-7139686Y275590D02*
G01X-7021830Y275590D01*
G01X-7139686Y275590D02*
G01X-7139686Y348488D01*
G01X-7083552Y275590D02*
G01X-7083552Y320548D01*
G01X-7021830Y275590D02*
G01X-7021830Y348488D01*
G01X-7139686Y395732D02*
G01X-7021830Y395732D01*
G01X-7139686Y395732D02*
G01X-7021830Y440690D01*
G01X-7139686Y485648D02*
G01X-7021830Y440690D01*
G01X-7139686Y485648D02*
G01X-7021830Y485648D01*
G01X-7139686Y532892D02*
G01X-7021830Y532892D01*
G01X-7139686Y532892D02*
G01X-7139686Y583438D01*
G01X-7134098Y600202D01*
G01X-7128510Y605790D01*
G01X-7117334Y611632D01*
G01X-7100316Y611632D01*
G01X-7089140Y605790D01*
G01X-7083552Y600202D01*
G01X-7077964Y583438D01*
G01X-7077964Y532892D01*
G01X-7122922Y709422D02*
G01X-7021830Y709422D01*
G01X-7072376Y658876D02*
G01X-7072376Y759968D01*
G01X-6911086Y176530D02*
G01X-6793230Y176530D01*
G01X-6911086Y137160D02*
G01X-6911086Y215646D01*
G01X-6911086Y262890D02*
G01X-6793230Y262890D01*
G01X-6911086Y262890D02*
G01X-6911086Y335788D01*
G01X-6854952Y262890D02*
G01X-6854952Y307848D01*
G01X-6793230Y262890D02*
G01X-6793230Y335788D01*
G01X-6911086Y383032D02*
G01X-6793230Y383032D01*
G01X-6911086Y383032D02*
G01X-6793230Y427990D01*
G01X-6911086Y472948D02*
G01X-6793230Y427990D01*
G01X-6911086Y472948D02*
G01X-6793230Y472948D01*
G01X-6911086Y520192D02*
G01X-6793230Y520192D01*
G01X-6911086Y520192D02*
G01X-6911086Y570738D01*
G01X-6905498Y587502D01*
G01X-6899910Y593090D01*
G01X-6888734Y598932D01*
G01X-6871716Y598932D01*
G01X-6860540Y593090D01*
G01X-6854952Y587502D01*
G01X-6849364Y570738D01*
G01X-6849364Y520192D01*
G01X-6843776Y646176D02*
G01X-6843776Y747268D01*
G01X2495829Y878617D02*
G01X2504719Y860837D01*
G01X2531389Y834167D01*
G01X2344699Y834167D01*
G01X2531389Y717835D02*
G01X2522499Y744505D01*
G01X2495829Y762285D01*
G01X2451379Y771175D01*
G01X2424709Y771175D01*
G01X2380259Y762285D01*
G01X2353589Y744505D01*
G01X2344699Y717835D01*
G01X2344699Y700055D01*
G01X2353589Y673385D01*
G01X2380259Y655605D01*
G01X2424709Y646715D01*
G01X2451379Y646715D01*
G01X2495829Y655605D01*
G01X2522499Y673385D01*
G01X2531389Y700055D01*
G01X2531389Y717835D01*
G01X2531389Y583723D02*
G01X2344699Y583723D01*
G01X2531389Y459263D02*
G01X2406929Y583723D01*
G01X2451379Y539273D02*
G01X2344699Y459263D01*
G01X2344699Y396271D02*
G01X2344699Y334041D01*
G01X2371369Y351821D01*
G01X2398039Y369601D01*
G01X2424709Y378491D01*
G01X2451379Y378491D01*
G01X2478049Y369601D01*
G01X2495829Y360711D01*
G01X2513609Y342931D01*
G01X2522499Y325151D01*
G01X2522499Y289591D01*
G01X2513609Y271811D01*
G01X2495829Y254031D01*
G01X2478049Y245141D01*
G01X2451379Y236251D01*
G01X2424709Y236251D01*
G01X2398039Y245141D01*
G01X2371369Y262921D01*
G01X2344699Y280701D01*
G01X2344699Y218471D01*
G01X-4707611Y-5044663D02*
G01X-4716501Y-5026883D01*
G01X-4743171Y-5000213D01*
G01X-4556481Y-5000213D01*
G01X-4743171Y-4883881D02*
G01X-4734281Y-4910551D01*
G01X-4707611Y-4928331D01*
G01X-4663161Y-4937221D01*
G01X-4636491Y-4937221D01*
G01X-4592041Y-4928331D01*
G01X-4565371Y-4910551D01*
G01X-4556481Y-4883881D01*
G01X-4556481Y-4866101D01*
G01X-4565371Y-4839431D01*
G01X-4592041Y-4821651D01*
G01X-4636491Y-4812761D01*
G01X-4663161Y-4812761D01*
G01X-4707611Y-4821651D01*
G01X-4734281Y-4839431D01*
G01X-4743171Y-4866101D01*
G01X-4743171Y-4883881D01*
G01X-4556481Y-4749769D02*
G01X-4556481Y-4687539D01*
G01X-4583151Y-4705319D01*
G01X-4609821Y-4723099D01*
G01X-4636491Y-4731989D01*
G01X-4663161Y-4731989D01*
G01X-4689831Y-4723099D01*
G01X-4707611Y-4714209D01*
G01X-4725391Y-4696429D01*
G01X-4734281Y-4678649D01*
G01X-4734281Y-4643089D01*
G01X-4725391Y-4625309D01*
G01X-4707611Y-4607529D01*
G01X-4689831Y-4598639D01*
G01X-4663161Y-4589749D01*
G01X-4636491Y-4589749D01*
G01X-4609821Y-4598639D01*
G01X-4583151Y-4616419D01*
G01X-4556481Y-4634199D01*
G01X-4556481Y-4571969D01*
G01X-5710911Y-4803363D02*
G01X-5719801Y-4785583D01*
G01X-5746471Y-4758913D01*
G01X-5559781Y-4758913D01*
G01X-5746471Y-4642581D02*
G01X-5737581Y-4669251D01*
G01X-5710911Y-4687031D01*
G01X-5666461Y-4695921D01*
G01X-5639791Y-4695921D01*
G01X-5595341Y-4687031D01*
G01X-5568671Y-4669251D01*
G01X-5559781Y-4642581D01*
G01X-5559781Y-4624801D01*
G01X-5568671Y-4598131D01*
G01X-5595341Y-4580351D01*
G01X-5639791Y-4571461D01*
G01X-5666461Y-4571461D01*
G01X-5710911Y-4580351D01*
G01X-5737581Y-4598131D01*
G01X-5746471Y-4624801D01*
G01X-5746471Y-4642581D01*
G01X-5746471Y-4508469D02*
G01X-5559781Y-4508469D01*
G01X-5746471Y-4384009D02*
G01X-5622011Y-4508469D01*
G01X-5666461Y-4464019D02*
G01X-5559781Y-4384009D01*
G01X-5559781Y-4321017D02*
G01X-5559781Y-4258787D01*
G01X-5586451Y-4276567D01*
G01X-5613121Y-4294347D01*
G01X-5639791Y-4303237D01*
G01X-5666461Y-4303237D01*
G01X-5693131Y-4294347D01*
G01X-5710911Y-4285457D01*
G01X-5728691Y-4267677D01*
G01X-5737581Y-4249897D01*
G01X-5737581Y-4214337D01*
G01X-5728691Y-4196557D01*
G01X-5710911Y-4178777D01*
G01X-5693131Y-4169887D01*
G01X-5666461Y-4160997D01*
G01X-5639791Y-4160997D01*
G01X-5613121Y-4169887D01*
G01X-5586451Y-4187667D01*
G01X-5559781Y-4205447D01*
G01X-5559781Y-4143217D01*
G01X-7533640Y-3421380D02*
G01X-7515860Y-3412490D01*
G01X-7489190Y-3385820D01*
G01X-7489190Y-3572510D01*
G01X-7417308Y-3528060D02*
G01X-7426198Y-3536950D01*
G01X-7417308Y-3545840D01*
G01X-7408418Y-3536950D01*
G01X-7417308Y-3528060D01*
G01X-7300976Y-3385820D02*
G01X-7327646Y-3394710D01*
G01X-7336536Y-3412490D01*
G01X-7336536Y-3430270D01*
G01X-7327646Y-3448050D01*
G01X-7309866Y-3456940D01*
G01X-7274306Y-3465830D01*
G01X-7247636Y-3474720D01*
G01X-7229856Y-3492500D01*
G01X-7220966Y-3510280D01*
G01X-7220966Y-3536950D01*
G01X-7229856Y-3554730D01*
G01X-7238746Y-3563620D01*
G01X-7265416Y-3572510D01*
G01X-7300976Y-3572510D01*
G01X-7327646Y-3563620D01*
G01X-7336536Y-3554730D01*
G01X-7345426Y-3536950D01*
G01X-7345426Y-3510280D01*
G01X-7336536Y-3492500D01*
G01X-7318756Y-3474720D01*
G01X-7292086Y-3465830D01*
G01X-7256526Y-3456940D01*
G01X-7238746Y-3448050D01*
G01X-7229856Y-3430270D01*
G01X-7229856Y-3412490D01*
G01X-7238746Y-3394710D01*
G01X-7265416Y-3385820D01*
G01X-7300976Y-3385820D01*
G01X-7157974Y-3385820D02*
G01X-7157974Y-3572510D01*
G01X-7033514Y-3385820D02*
G01X-7157974Y-3510280D01*
G01X-7113524Y-3465830D02*
G01X-7033514Y-3572510D01*
G01X-6970522Y-3572510D02*
G01X-6908292Y-3572510D01*
G01X-6926072Y-3545840D01*
G01X-6943852Y-3519170D01*
G01X-6952742Y-3492500D01*
G01X-6952742Y-3465830D01*
G01X-6943852Y-3439160D01*
G01X-6934962Y-3421380D01*
G01X-6917182Y-3403600D01*
G01X-6899402Y-3394710D01*
G01X-6863842Y-3394710D01*
G01X-6846062Y-3403600D01*
G01X-6828282Y-3421380D01*
G01X-6819392Y-3439160D01*
G01X-6810502Y-3465830D01*
G01X-6810502Y-3492500D01*
G01X-6819392Y-3519170D01*
G01X-6837172Y-3545840D01*
G01X-6854952Y-3572510D01*
G01X-6792722Y-3572510D01*
G01X-3206471Y-3629883D02*
G01X-3197581Y-3647663D01*
G01X-3170911Y-3674333D01*
G01X-3357601Y-3674333D01*
G01X-3313151Y-3746215D02*
G01X-3322041Y-3737325D01*
G01X-3330931Y-3746215D01*
G01X-3322041Y-3755105D01*
G01X-3313151Y-3746215D01*
G01X-3170911Y-3862547D02*
G01X-3179801Y-3835877D01*
G01X-3197581Y-3826987D01*
G01X-3215361Y-3826987D01*
G01X-3233141Y-3835877D01*
G01X-3242031Y-3853657D01*
G01X-3250921Y-3889217D01*
G01X-3259811Y-3915887D01*
G01X-3277591Y-3933667D01*
G01X-3295371Y-3942557D01*
G01X-3322041Y-3942557D01*
G01X-3339821Y-3933667D01*
G01X-3348711Y-3924777D01*
G01X-3357601Y-3898107D01*
G01X-3357601Y-3862547D01*
G01X-3348711Y-3835877D01*
G01X-3339821Y-3826987D01*
G01X-3322041Y-3818097D01*
G01X-3295371Y-3818097D01*
G01X-3277591Y-3826987D01*
G01X-3259811Y-3844767D01*
G01X-3250921Y-3871437D01*
G01X-3242031Y-3906997D01*
G01X-3233141Y-3924777D01*
G01X-3215361Y-3933667D01*
G01X-3197581Y-3933667D01*
G01X-3179801Y-3924777D01*
G01X-3170911Y-3898107D01*
G01X-3170911Y-3862547D01*
G01X-3170911Y-4005549D02*
G01X-3357601Y-4005549D01*
G01X-3170911Y-4130009D02*
G01X-3295371Y-4005549D01*
G01X-3250921Y-4049999D02*
G01X-3357601Y-4130009D01*
G01X-3357601Y-4193001D02*
G01X-3357601Y-4255231D01*
G01X-3330931Y-4237451D01*
G01X-3304261Y-4219671D01*
G01X-3277591Y-4210781D01*
G01X-3250921Y-4210781D01*
G01X-3224251Y-4219671D01*
G01X-3206471Y-4228561D01*
G01X-3188691Y-4246341D01*
G01X-3179801Y-4264121D01*
G01X-3179801Y-4299681D01*
G01X-3188691Y-4317461D01*
G01X-3206471Y-4335241D01*
G01X-3224251Y-4344131D01*
G01X-3250921Y-4353021D01*
G01X-3277591Y-4353021D01*
G01X-3304261Y-4344131D01*
G01X-3330931Y-4326351D01*
G01X-3357601Y-4308571D01*
G01X-3357601Y-4370801D01*
G01X-6244311Y-4480783D02*
G01X-6431001Y-4480783D01*
G01X-6244311Y-4480783D02*
G01X-6244311Y-4596353D01*
G01X-6333211Y-4480783D02*
G01X-6333211Y-4551903D01*
G01X-6306541Y-4659345D02*
G01X-6395441Y-4659345D01*
G01X-6422111Y-4668235D01*
G01X-6431001Y-4686015D01*
G01X-6431001Y-4712685D01*
G01X-6422111Y-4730465D01*
G01X-6395441Y-4757135D01*
G01X-6306541Y-4757135D02*
G01X-6431001Y-4757135D01*
G01X-6333211Y-4917917D02*
G01X-6315431Y-4909027D01*
G01X-6306541Y-4882357D01*
G01X-6306541Y-4855687D01*
G01X-6315431Y-4829017D01*
G01X-6333211Y-4820127D01*
G01X-6350991Y-4829017D01*
G01X-6359881Y-4846797D01*
G01X-6368771Y-4891247D01*
G01X-6377661Y-4909027D01*
G01X-6395441Y-4917917D01*
G01X-6404331Y-4917917D01*
G01X-6422111Y-4909027D01*
G01X-6431001Y-4882357D01*
G01X-6431001Y-4855687D01*
G01X-6422111Y-4829017D01*
G01X-6404331Y-4820127D01*
G01X-6359881Y-4980909D02*
G01X-6359881Y-5087589D01*
G01X-6342101Y-5087589D01*
G01X-6324321Y-5078699D01*
G01X-6315431Y-5069809D01*
G01X-6306541Y-5052029D01*
G01X-6306541Y-5025359D01*
G01X-6315431Y-5007579D01*
G01X-6333211Y-4989799D01*
G01X-6359881Y-4980909D01*
G01X-6377661Y-4980909D01*
G01X-6404331Y-4989799D01*
G01X-6422111Y-5007579D01*
G01X-6431001Y-5025359D01*
G01X-6431001Y-5052029D01*
G01X-6422111Y-5069809D01*
G01X-6404331Y-5087589D01*
G01X-6333211Y-5248371D02*
G01X-6315431Y-5239481D01*
G01X-6306541Y-5212811D01*
G01X-6306541Y-5186141D01*
G01X-6315431Y-5159471D01*
G01X-6333211Y-5150581D01*
G01X-6350991Y-5159471D01*
G01X-6359881Y-5177251D01*
G01X-6368771Y-5221701D01*
G01X-6377661Y-5239481D01*
G01X-6395441Y-5248371D01*
G01X-6404331Y-5248371D01*
G01X-6422111Y-5239481D01*
G01X-6431001Y-5212811D01*
G01X-6431001Y-5186141D01*
G01X-6422111Y-5159471D01*
G01X-6404331Y-5150581D01*
G01X250469Y-4249643D02*
G01X250469Y-4436333D01*
G01X250469Y-4249643D02*
G01X366039Y-4249643D01*
G01X250469Y-4338543D02*
G01X321589Y-4338543D01*
G01X429031Y-4311873D02*
G01X429031Y-4400773D01*
G01X437921Y-4427443D01*
G01X455701Y-4436333D01*
G01X482371Y-4436333D01*
G01X500151Y-4427443D01*
G01X526821Y-4400773D01*
G01X526821Y-4311873D02*
G01X526821Y-4436333D01*
G01X687603Y-4338543D02*
G01X678713Y-4320763D01*
G01X652043Y-4311873D01*
G01X625373Y-4311873D01*
G01X598703Y-4320763D01*
G01X589813Y-4338543D01*
G01X598703Y-4356323D01*
G01X616483Y-4365213D01*
G01X660933Y-4374103D01*
G01X678713Y-4382993D01*
G01X687603Y-4400773D01*
G01X687603Y-4409663D01*
G01X678713Y-4427443D01*
G01X652043Y-4436333D01*
G01X625373Y-4436333D01*
G01X598703Y-4427443D01*
G01X589813Y-4409663D01*
G01X750595Y-4365213D02*
G01X857275Y-4365213D01*
G01X857275Y-4347433D01*
G01X848385Y-4329653D01*
G01X839495Y-4320763D01*
G01X821715Y-4311873D01*
G01X795045Y-4311873D01*
G01X777265Y-4320763D01*
G01X759485Y-4338543D01*
G01X750595Y-4365213D01*
G01X750595Y-4382993D01*
G01X759485Y-4409663D01*
G01X777265Y-4427443D01*
G01X795045Y-4436333D01*
G01X821715Y-4436333D01*
G01X839495Y-4427443D01*
G01X857275Y-4409663D01*
G01X1018057Y-4338543D02*
G01X1009167Y-4320763D01*
G01X982497Y-4311873D01*
G01X955827Y-4311873D01*
G01X929157Y-4320763D01*
G01X920267Y-4338543D01*
G01X929157Y-4356323D01*
G01X946937Y-4365213D01*
G01X991387Y-4374103D01*
G01X1009167Y-4382993D01*
G01X1018057Y-4400773D01*
G01X1018057Y-4409663D01*
G01X1009167Y-4427443D01*
G01X982497Y-4436333D01*
G01X955827Y-4436333D01*
G01X929157Y-4427443D01*
G01X920267Y-4409663D01*
G01X-1972031Y-1008603D02*
G01X-1954251Y-999713D01*
G01X-1927581Y-973043D01*
G01X-1927581Y-1159733D01*
G01X-1811249Y-973043D02*
G01X-1837919Y-981933D01*
G01X-1855699Y-1008603D01*
G01X-1864589Y-1053053D01*
G01X-1864589Y-1079723D01*
G01X-1855699Y-1124173D01*
G01X-1837919Y-1150843D01*
G01X-1811249Y-1159733D01*
G01X-1793469Y-1159733D01*
G01X-1766799Y-1150843D01*
G01X-1749019Y-1124173D01*
G01X-1740129Y-1079723D01*
G01X-1740129Y-1053053D01*
G01X-1749019Y-1008603D01*
G01X-1766799Y-981933D01*
G01X-1793469Y-973043D01*
G01X-1811249Y-973043D01*
G01X-1623797Y-973043D02*
G01X-1650467Y-981933D01*
G01X-1668247Y-1008603D01*
G01X-1677137Y-1053053D01*
G01X-1677137Y-1079723D01*
G01X-1668247Y-1124173D01*
G01X-1650467Y-1150843D01*
G01X-1623797Y-1159733D01*
G01X-1606017Y-1159733D01*
G01X-1579347Y-1150843D01*
G01X-1561567Y-1124173D01*
G01X-1552677Y-1079723D01*
G01X-1552677Y-1053053D01*
G01X-1561567Y-1008603D01*
G01X-1579347Y-981933D01*
G01X-1606017Y-973043D01*
G01X-1623797Y-973043D01*
G01X-1489685Y-1035273D02*
G01X-1489685Y-1124173D01*
G01X-1480795Y-1150843D01*
G01X-1463015Y-1159733D01*
G01X-1436345Y-1159733D01*
G01X-1418565Y-1150843D01*
G01X-1391895Y-1124173D01*
G01X-1391895Y-1035273D02*
G01X-1391895Y-1159733D01*
G01X-1328903Y-973043D02*
G01X-1328903Y-1159733D01*
G01X-1328903Y-973043D02*
G01X-1213333Y-973043D01*
G01X-1328903Y-1061943D02*
G01X-1257783Y-1061943D01*
G01X-8346415Y-528543D02*
G01X-8435315Y-528543D01*
G01X-8444205Y-608553D01*
G01X-8435315Y-599663D01*
G01X-8408645Y-590773D01*
G01X-8381975Y-590773D01*
G01X-8355305Y-599663D01*
G01X-8337525Y-617443D01*
G01X-8328635Y-644113D01*
G01X-8328635Y-661893D01*
G01X-8337525Y-688563D01*
G01X-8355305Y-706343D01*
G01X-8381975Y-715233D01*
G01X-8408645Y-715233D01*
G01X-8435315Y-706343D01*
G01X-8444205Y-697453D01*
G01X-8453095Y-679673D01*
G01X-8265643Y-528543D02*
G01X-8194523Y-715233D01*
G01X-8123403Y-528543D02*
G01X-8194523Y-715233D01*
G01X-8430235Y-847313D02*
G01X-8448015Y-829533D01*
G01X-8474685Y-820643D01*
G01X-8510245Y-820643D01*
G01X-8536915Y-829533D01*
G01X-8554695Y-847313D01*
G01X-8554695Y-865093D01*
G01X-8545805Y-882873D01*
G01X-8536915Y-891763D01*
G01X-8519135Y-900653D01*
G01X-8465795Y-918433D01*
G01X-8448015Y-927323D01*
G01X-8439125Y-936213D01*
G01X-8430235Y-953993D01*
G01X-8430235Y-980663D01*
G01X-8448015Y-998443D01*
G01X-8474685Y-1007333D01*
G01X-8510245Y-1007333D01*
G01X-8536915Y-998443D01*
G01X-8554695Y-980663D01*
G01X-8367243Y-820643D02*
G01X-8367243Y-1007333D01*
G01X-8367243Y-820643D02*
G01X-8305013Y-820643D01*
G01X-8278343Y-829533D01*
G01X-8260563Y-847313D01*
G01X-8251673Y-865093D01*
G01X-8242783Y-891763D01*
G01X-8242783Y-936213D01*
G01X-8251673Y-962883D01*
G01X-8260563Y-980663D01*
G01X-8278343Y-998443D01*
G01X-8305013Y-1007333D01*
G01X-8367243Y-1007333D01*
G01X-8108671Y-820643D02*
G01X-8179791Y-1007333D01*
G01X-8108671Y-820643D02*
G01X-8037551Y-1007333D01*
G01X-8153121Y-945103D02*
G01X-8064221Y-945103D01*
G01X-8432267Y-1152113D02*
G01X-8450047Y-1134333D01*
G01X-8476717Y-1125443D01*
G01X-8512277Y-1125443D01*
G01X-8538947Y-1134333D01*
G01X-8556727Y-1152113D01*
G01X-8556727Y-1169893D01*
G01X-8547837Y-1187673D01*
G01X-8538947Y-1196563D01*
G01X-8521167Y-1205453D01*
G01X-8467827Y-1223233D01*
G01X-8450047Y-1232123D01*
G01X-8441157Y-1241013D01*
G01X-8432267Y-1258793D01*
G01X-8432267Y-1285463D01*
G01X-8450047Y-1303243D01*
G01X-8476717Y-1312133D01*
G01X-8512277Y-1312133D01*
G01X-8538947Y-1303243D01*
G01X-8556727Y-1285463D01*
G01X-8235925Y-1169893D02*
G01X-8244815Y-1152113D01*
G01X-8262595Y-1134333D01*
G01X-8280375Y-1125443D01*
G01X-8315935Y-1125443D01*
G01X-8333715Y-1134333D01*
G01X-8351495Y-1152113D01*
G01X-8360385Y-1169893D01*
G01X-8369275Y-1196563D01*
G01X-8369275Y-1241013D01*
G01X-8360385Y-1267683D01*
G01X-8351495Y-1285463D01*
G01X-8333715Y-1303243D01*
G01X-8315935Y-1312133D01*
G01X-8280375Y-1312133D01*
G01X-8262595Y-1303243D01*
G01X-8244815Y-1285463D01*
G01X-8235925Y-1267683D01*
G01X-8172933Y-1125443D02*
G01X-8172933Y-1312133D01*
G01X-8172933Y-1312133D02*
G01X-8066253Y-1312133D01*
G01X-8446745Y-268193D02*
G01X-8455635Y-250413D01*
G01X-8473415Y-232633D01*
G01X-8491195Y-223743D01*
G01X-8526755Y-223743D01*
G01X-8544535Y-232633D01*
G01X-8562315Y-250413D01*
G01X-8571205Y-268193D01*
G01X-8580095Y-294863D01*
G01X-8580095Y-339313D01*
G01X-8571205Y-365983D01*
G01X-8562315Y-383763D01*
G01X-8544535Y-401543D01*
G01X-8526755Y-410433D01*
G01X-8491195Y-410433D01*
G01X-8473415Y-401543D01*
G01X-8455635Y-383763D01*
G01X-8446745Y-365983D01*
G01X-8446745Y-339313D01*
G01X-8491195Y-339313D02*
G01X-8446745Y-339313D01*
G01X-8383753Y-223743D02*
G01X-8383753Y-410433D01*
G01X-8383753Y-223743D02*
G01X-8259293Y-410433D01*
G01X-8259293Y-223743D02*
G01X-8259293Y-410433D01*
G01X-8196301Y-223743D02*
G01X-8196301Y-410433D01*
G01X-8196301Y-223743D02*
G01X-8134071Y-223743D01*
G01X-8107401Y-232633D01*
G01X-8089621Y-250413D01*
G01X-8080731Y-268193D01*
G01X-8071841Y-294863D01*
G01X-8071841Y-339313D01*
G01X-8080731Y-365983D01*
G01X-8089621Y-383763D01*
G01X-8107401Y-401543D01*
G01X-8134071Y-410433D01*
G01X-8196301Y-410433D01*
G01X2414270Y-4403090D02*
G01X2396490Y-4411980D01*
G01X2378710Y-4429760D01*
G01X2369820Y-4447540D01*
G01X2369820Y-4483100D01*
G01X2378710Y-4500880D01*
G01X2396490Y-4518660D01*
G01X2414270Y-4527550D01*
G01X2440940Y-4536440D01*
G01X2485390Y-4536440D01*
G01X2512060Y-4527550D01*
G01X2529840Y-4518660D01*
G01X2547620Y-4500880D01*
G01X2556510Y-4483100D01*
G01X2556510Y-4447540D01*
G01X2547620Y-4429760D01*
G01X2529840Y-4411980D01*
G01X2512060Y-4403090D01*
G01X2485390Y-4403090D01*
G01X2485390Y-4447540D02*
G01X2485390Y-4403090D01*
G01X2369820Y-4340098D02*
G01X2556510Y-4340098D01*
G01X2369820Y-4340098D02*
G01X2556510Y-4215638D01*
G01X2369820Y-4215638D02*
G01X2556510Y-4215638D01*
G01X2369820Y-4152646D02*
G01X2556510Y-4152646D01*
G01X2369820Y-4152646D02*
G01X2369820Y-4090416D01*
G01X2378710Y-4063746D01*
G01X2396490Y-4045966D01*
G01X2414270Y-4037076D01*
G01X2440940Y-4028186D01*
G01X2485390Y-4028186D01*
G01X2512060Y-4037076D01*
G01X2529840Y-4045966D01*
G01X2547620Y-4063746D01*
G01X2556510Y-4090416D01*
G01X2556510Y-4152646D01*
G54D11*
G01X-5014951Y1058957D02*
G01X-4917161Y1058957D01*
G01X-4970501Y987837D01*
G01X-4943831Y987837D01*
G01X-4926051Y978947D01*
G01X-4917161Y970057D01*
G01X-4908271Y943387D01*
G01X-4908271Y925607D01*
G01X-4917161Y898937D01*
G01X-4934941Y881157D01*
G01X-4961611Y872267D01*
G01X-4988281Y872267D01*
G01X-5014951Y881157D01*
G01X-5023841Y890047D01*
G01X-5032731Y907827D01*
G01X-4845279Y1058957D02*
G01X-4774159Y872267D01*
G01X-4703039Y1058957D02*
G01X-4774159Y872267D01*
G01X-4622267Y1058957D02*
G01X-4524477Y1058957D01*
G01X-4577817Y987837D01*
G01X-4551147Y987837D01*
G01X-4533367Y978947D01*
G01X-4524477Y970057D01*
G01X-4515587Y943387D01*
G01X-4515587Y925607D01*
G01X-4524477Y898937D01*
G01X-4542257Y881157D01*
G01X-4568927Y872267D01*
G01X-4595597Y872267D01*
G01X-4622267Y881157D01*
G01X-4631157Y890047D01*
G01X-4640047Y907827D01*
G01X-5013681Y-2528793D02*
G01X-5022571Y-2511013D01*
G01X-5040351Y-2493233D01*
G01X-5058131Y-2484343D01*
G01X-5093691Y-2484343D01*
G01X-5111471Y-2493233D01*
G01X-5129251Y-2511013D01*
G01X-5138141Y-2528793D01*
G01X-5147031Y-2555463D01*
G01X-5147031Y-2599913D01*
G01X-5138141Y-2626583D01*
G01X-5129251Y-2644363D01*
G01X-5111471Y-2662143D01*
G01X-5093691Y-2671033D01*
G01X-5058131Y-2671033D01*
G01X-5040351Y-2662143D01*
G01X-5022571Y-2644363D01*
G01X-5013681Y-2626583D01*
G01X-5013681Y-2599913D01*
G01X-5058131Y-2599913D02*
G01X-5013681Y-2599913D01*
G01X-4950689Y-2484343D02*
G01X-4950689Y-2671033D01*
G01X-4950689Y-2484343D02*
G01X-4826229Y-2671033D01*
G01X-4826229Y-2484343D02*
G01X-4826229Y-2671033D01*
G01X-4763237Y-2484343D02*
G01X-4763237Y-2671033D01*
G01X-4763237Y-2484343D02*
G01X-4701007Y-2484343D01*
G01X-4674337Y-2493233D01*
G01X-4656557Y-2511013D01*
G01X-4647667Y-2528793D01*
G01X-4638777Y-2555463D01*
G01X-4638777Y-2599913D01*
G01X-4647667Y-2626583D01*
G01X-4656557Y-2644363D01*
G01X-4674337Y-2662143D01*
G01X-4701007Y-2671033D01*
G01X-4763237Y-2671033D01*
G01X-3591281Y-2516093D02*
G01X-3600171Y-2498313D01*
G01X-3617951Y-2480533D01*
G01X-3635731Y-2471643D01*
G01X-3671291Y-2471643D01*
G01X-3689071Y-2480533D01*
G01X-3706851Y-2498313D01*
G01X-3715741Y-2516093D01*
G01X-3724631Y-2542763D01*
G01X-3724631Y-2587213D01*
G01X-3715741Y-2613883D01*
G01X-3706851Y-2631663D01*
G01X-3689071Y-2649443D01*
G01X-3671291Y-2658333D01*
G01X-3635731Y-2658333D01*
G01X-3617951Y-2649443D01*
G01X-3600171Y-2631663D01*
G01X-3591281Y-2613883D01*
G01X-3591281Y-2587213D01*
G01X-3635731Y-2587213D02*
G01X-3591281Y-2587213D01*
G01X-3528289Y-2471643D02*
G01X-3528289Y-2658333D01*
G01X-3528289Y-2471643D02*
G01X-3403829Y-2658333D01*
G01X-3403829Y-2471643D02*
G01X-3403829Y-2658333D01*
G01X-3340837Y-2471643D02*
G01X-3340837Y-2658333D01*
G01X-3340837Y-2471643D02*
G01X-3278607Y-2471643D01*
G01X-3251937Y-2480533D01*
G01X-3234157Y-2498313D01*
G01X-3225267Y-2516093D01*
G01X-3216377Y-2542763D01*
G01X-3216377Y-2587213D01*
G01X-3225267Y-2613883D01*
G01X-3234157Y-2631663D01*
G01X-3251937Y-2649443D01*
G01X-3278607Y-2658333D01*
G01X-3340837Y-2658333D01*
G01X-3642081Y1027207D02*
G01X-3650971Y1044987D01*
G01X-3668751Y1062767D01*
G01X-3686531Y1071657D01*
G01X-3722091Y1071657D01*
G01X-3739871Y1062767D01*
G01X-3757651Y1044987D01*
G01X-3766541Y1027207D01*
G01X-3775431Y1000537D01*
G01X-3775431Y956087D01*
G01X-3766541Y929417D01*
G01X-3757651Y911637D01*
G01X-3739871Y893857D01*
G01X-3722091Y884967D01*
G01X-3686531Y884967D01*
G01X-3668751Y893857D01*
G01X-3650971Y911637D01*
G01X-3642081Y929417D01*
G01X-3642081Y956087D01*
G01X-3686531Y956087D02*
G01X-3642081Y956087D01*
G01X-3579089Y1071657D02*
G01X-3579089Y884967D01*
G01X-3579089Y1071657D02*
G01X-3454629Y884967D01*
G01X-3454629Y1071657D02*
G01X-3454629Y884967D01*
G01X-3391637Y1071657D02*
G01X-3391637Y884967D01*
G01X-3391637Y1071657D02*
G01X-3329407Y1071657D01*
G01X-3302737Y1062767D01*
G01X-3284957Y1044987D01*
G01X-3276067Y1027207D01*
G01X-3267177Y1000537D01*
G01X-3267177Y956087D01*
G01X-3276067Y929417D01*
G01X-3284957Y911637D01*
G01X-3302737Y893857D01*
G01X-3329407Y884967D01*
G01X-3391637Y884967D01*
G01X-3591281Y-1792193D02*
G01X-3600171Y-1774413D01*
G01X-3617951Y-1756633D01*
G01X-3635731Y-1747743D01*
G01X-3671291Y-1747743D01*
G01X-3689071Y-1756633D01*
G01X-3706851Y-1774413D01*
G01X-3715741Y-1792193D01*
G01X-3724631Y-1818863D01*
G01X-3724631Y-1863313D01*
G01X-3715741Y-1889983D01*
G01X-3706851Y-1907763D01*
G01X-3689071Y-1925543D01*
G01X-3671291Y-1934433D01*
G01X-3635731Y-1934433D01*
G01X-3617951Y-1925543D01*
G01X-3600171Y-1907763D01*
G01X-3591281Y-1889983D01*
G01X-3591281Y-1863313D01*
G01X-3635731Y-1863313D02*
G01X-3591281Y-1863313D01*
G01X-3528289Y-1747743D02*
G01X-3528289Y-1934433D01*
G01X-3528289Y-1747743D02*
G01X-3403829Y-1934433D01*
G01X-3403829Y-1747743D02*
G01X-3403829Y-1934433D01*
G01X-3340837Y-1747743D02*
G01X-3340837Y-1934433D01*
G01X-3340837Y-1747743D02*
G01X-3278607Y-1747743D01*
G01X-3251937Y-1756633D01*
G01X-3234157Y-1774413D01*
G01X-3225267Y-1792193D01*
G01X-3216377Y-1818863D01*
G01X-3216377Y-1863313D01*
G01X-3225267Y-1889983D01*
G01X-3234157Y-1907763D01*
G01X-3251937Y-1925543D01*
G01X-3278607Y-1934433D01*
G01X-3340837Y-1934433D01*
G01X-5040351Y-2230343D02*
G01X-5129251Y-2230343D01*
G01X-5138141Y-2310353D01*
G01X-5129251Y-2301463D01*
G01X-5102581Y-2292573D01*
G01X-5075911Y-2292573D01*
G01X-5049241Y-2301463D01*
G01X-5031461Y-2319243D01*
G01X-5022571Y-2345913D01*
G01X-5022571Y-2363693D01*
G01X-5031461Y-2390363D01*
G01X-5049241Y-2408143D01*
G01X-5075911Y-2417033D01*
G01X-5102581Y-2417033D01*
G01X-5129251Y-2408143D01*
G01X-5138141Y-2399253D01*
G01X-5147031Y-2381473D01*
G01X-4959579Y-2230343D02*
G01X-4888459Y-2417033D01*
G01X-4817339Y-2230343D02*
G01X-4888459Y-2417033D01*
G01X-1839951Y1274857D02*
G01X-1742161Y1274857D01*
G01X-1795501Y1203737D01*
G01X-1768831Y1203737D01*
G01X-1751051Y1194847D01*
G01X-1742161Y1185957D01*
G01X-1733271Y1159287D01*
G01X-1733271Y1141507D01*
G01X-1742161Y1114837D01*
G01X-1759941Y1097057D01*
G01X-1786611Y1088167D01*
G01X-1813281Y1088167D01*
G01X-1839951Y1097057D01*
G01X-1848841Y1105947D01*
G01X-1857731Y1123727D01*
G01X-1670279Y1274857D02*
G01X-1599159Y1088167D01*
G01X-1528039Y1274857D02*
G01X-1599159Y1088167D01*
G01X-1447267Y1274857D02*
G01X-1349477Y1274857D01*
G01X-1402817Y1203737D01*
G01X-1376147Y1203737D01*
G01X-1358367Y1194847D01*
G01X-1349477Y1185957D01*
G01X-1340587Y1159287D01*
G01X-1340587Y1141507D01*
G01X-1349477Y1114837D01*
G01X-1367257Y1097057D01*
G01X-1393927Y1088167D01*
G01X-1420597Y1088167D01*
G01X-1447267Y1097057D01*
G01X-1456157Y1105947D01*
G01X-1465047Y1123727D01*
G01X-1841978Y970057D02*
G01X-1744188Y970057D01*
G01X-1797528Y898937D01*
G01X-1770858Y898937D01*
G01X-1753078Y890047D01*
G01X-1744188Y881157D01*
G01X-1735298Y854487D01*
G01X-1735298Y836707D01*
G01X-1744188Y810037D01*
G01X-1761968Y792257D01*
G01X-1788638Y783367D01*
G01X-1815308Y783367D01*
G01X-1841978Y792257D01*
G01X-1850868Y801147D01*
G01X-1859758Y818927D01*
G01X-1672306Y970057D02*
G01X-1601186Y783367D01*
G01X-1530066Y970057D02*
G01X-1601186Y783367D01*
G01X-1449294Y970057D02*
G01X-1351504Y970057D01*
G01X-1404844Y898937D01*
G01X-1378174Y898937D01*
G01X-1360394Y890047D01*
G01X-1351504Y881157D01*
G01X-1342614Y854487D01*
G01X-1342614Y836707D01*
G01X-1351504Y810037D01*
G01X-1369284Y792257D01*
G01X-1395954Y783367D01*
G01X-1422624Y783367D01*
G01X-1449294Y792257D01*
G01X-1458184Y801147D01*
G01X-1467074Y818927D01*
G01X-1841978Y665257D02*
G01X-1744188Y665257D01*
G01X-1797528Y594137D01*
G01X-1770858Y594137D01*
G01X-1753078Y585247D01*
G01X-1744188Y576357D01*
G01X-1735298Y549687D01*
G01X-1735298Y531907D01*
G01X-1744188Y505237D01*
G01X-1761968Y487457D01*
G01X-1788638Y478567D01*
G01X-1815308Y478567D01*
G01X-1841978Y487457D01*
G01X-1850868Y496347D01*
G01X-1859758Y514127D01*
G01X-1672306Y665257D02*
G01X-1601186Y478567D01*
G01X-1530066Y665257D02*
G01X-1601186Y478567D01*
G01X-1449294Y665257D02*
G01X-1351504Y665257D01*
G01X-1404844Y594137D01*
G01X-1378174Y594137D01*
G01X-1360394Y585247D01*
G01X-1351504Y576357D01*
G01X-1342614Y549687D01*
G01X-1342614Y531907D01*
G01X-1351504Y505237D01*
G01X-1369284Y487457D01*
G01X-1395954Y478567D01*
G01X-1422624Y478567D01*
G01X-1449294Y487457D01*
G01X-1458184Y496347D01*
G01X-1467074Y514127D01*
G01X-1718153Y2608236D02*
G01X-1718153Y2421546D01*
G01X-1718153Y2608236D02*
G01X-1647033Y2421546D01*
G01X-1575913Y2608236D02*
G01X-1647033Y2421546D01*
G01X-1575913Y2608236D02*
G01X-1575913Y2421546D01*
G01X-1388461Y2581566D02*
G01X-1406241Y2599346D01*
G01X-1432911Y2608236D01*
G01X-1468471Y2608236D01*
G01X-1495141Y2599346D01*
G01X-1512921Y2581566D01*
G01X-1512921Y2563786D01*
G01X-1504031Y2546006D01*
G01X-1495141Y2537116D01*
G01X-1477361Y2528226D01*
G01X-1424021Y2510446D01*
G01X-1406241Y2501556D01*
G01X-1397351Y2492666D01*
G01X-1388461Y2474886D01*
G01X-1388461Y2448216D01*
G01X-1406241Y2430436D01*
G01X-1432911Y2421546D01*
G01X-1468471Y2421546D01*
G01X-1495141Y2430436D01*
G01X-1512921Y2448216D01*
G01X-1325469Y2572676D02*
G01X-1307689Y2581566D01*
G01X-1281019Y2608236D01*
G01X-1281019Y2421546D01*
G01X-1807053Y2341536D02*
G01X-1807053Y2154846D01*
G01X-1807053Y2341536D02*
G01X-1735933Y2154846D01*
G01X-1664813Y2341536D02*
G01X-1735933Y2154846D01*
G01X-1664813Y2341536D02*
G01X-1664813Y2154846D01*
G01X-1477361Y2314866D02*
G01X-1495141Y2332646D01*
G01X-1521811Y2341536D01*
G01X-1557371Y2341536D01*
G01X-1584041Y2332646D01*
G01X-1601821Y2314866D01*
G01X-1601821Y2297086D01*
G01X-1592931Y2279306D01*
G01X-1584041Y2270416D01*
G01X-1566261Y2261526D01*
G01X-1512921Y2243746D01*
G01X-1495141Y2234856D01*
G01X-1486251Y2225966D01*
G01X-1477361Y2208186D01*
G01X-1477361Y2181516D01*
G01X-1495141Y2163736D01*
G01X-1521811Y2154846D01*
G01X-1557371Y2154846D01*
G01X-1584041Y2163736D01*
G01X-1601821Y2181516D01*
G01X-1405479Y2297086D02*
G01X-1405479Y2305976D01*
G01X-1396589Y2323756D01*
G01X-1387699Y2332646D01*
G01X-1369919Y2341536D01*
G01X-1334359Y2341536D01*
G01X-1316579Y2332646D01*
G01X-1307689Y2323756D01*
G01X-1298799Y2305976D01*
G01X-1298799Y2288196D01*
G01X-1307689Y2270416D01*
G01X-1325469Y2243746D01*
G01X-1414369Y2154846D01*
G01X-1289909Y2154846D01*
G01X-1641953Y2087536D02*
G01X-1641953Y1900846D01*
G01X-1641953Y2087536D02*
G01X-1517493Y1900846D01*
G01X-1517493Y2087536D02*
G01X-1517493Y1900846D01*
G01X-1321151Y2043086D02*
G01X-1330041Y2060866D01*
G01X-1347821Y2078646D01*
G01X-1365601Y2087536D01*
G01X-1401161Y2087536D01*
G01X-1418941Y2078646D01*
G01X-1436721Y2060866D01*
G01X-1445611Y2043086D01*
G01X-1454501Y2016416D01*
G01X-1454501Y1971966D01*
G01X-1445611Y1945296D01*
G01X-1436721Y1927516D01*
G01X-1418941Y1909736D01*
G01X-1401161Y1900846D01*
G01X-1365601Y1900846D01*
G01X-1347821Y1909736D01*
G01X-1330041Y1927516D01*
G01X-1321151Y1945296D01*
G01X-535661Y-105633D02*
G01X-517881Y-96743D01*
G01X-500101Y-78963D01*
G01X-491211Y-61183D01*
G01X-491211Y-25623D01*
G01X-500101Y-7843D01*
G01X-517881Y9937D01*
G01X-535661Y18827D01*
G01X-562331Y27717D01*
G01X-606781Y27717D01*
G01X-633451Y18827D01*
G01X-651231Y9937D01*
G01X-669011Y-7843D01*
G01X-677901Y-25623D01*
G01X-677901Y-61183D01*
G01X-669011Y-78963D01*
G01X-651231Y-96743D01*
G01X-633451Y-105633D01*
G01X-606781Y-105633D01*
G01X-606781Y-61183D02*
G01X-606781Y-105633D01*
G01X-491211Y-168625D02*
G01X-677901Y-168625D01*
G01X-491211Y-168625D02*
G01X-677901Y-293085D01*
G01X-491211Y-293085D02*
G01X-677901Y-293085D01*
G01X-491211Y-356077D02*
G01X-677901Y-356077D01*
G01X-491211Y-356077D02*
G01X-491211Y-418307D01*
G01X-500101Y-444977D01*
G01X-517881Y-462757D01*
G01X-535661Y-471647D01*
G01X-562331Y-480537D01*
G01X-606781Y-480537D01*
G01X-633451Y-471647D01*
G01X-651231Y-462757D01*
G01X-669011Y-444977D01*
G01X-677901Y-418307D01*
G01X-677901Y-356077D01*
G01X1039139Y-133451D02*
G01X1056919Y-124561D01*
G01X1074699Y-106781D01*
G01X1083589Y-89001D01*
G01X1083589Y-53441D01*
G01X1074699Y-35661D01*
G01X1056919Y-17881D01*
G01X1039139Y-8991D01*
G01X1012469Y-101D01*
G01X968019Y-101D01*
G01X941349Y-8991D01*
G01X923569Y-17881D01*
G01X905789Y-35661D01*
G01X896899Y-53441D01*
G01X896899Y-89001D01*
G01X905789Y-106781D01*
G01X923569Y-124561D01*
G01X941349Y-133451D01*
G01X968019Y-133451D01*
G01X968019Y-89001D02*
G01X968019Y-133451D01*
G01X1083589Y-196443D02*
G01X896899Y-196443D01*
G01X1083589Y-196443D02*
G01X896899Y-320903D01*
G01X1083589Y-320903D02*
G01X896899Y-320903D01*
G01X1083589Y-383895D02*
G01X896899Y-383895D01*
G01X1083589Y-383895D02*
G01X1083589Y-446125D01*
G01X1074699Y-472795D01*
G01X1056919Y-490575D01*
G01X1039139Y-499465D01*
G01X1012469Y-508355D01*
G01X968019Y-508355D01*
G01X941349Y-499465D01*
G01X923569Y-490575D01*
G01X905789Y-472795D01*
G01X896899Y-446125D01*
G01X896899Y-383895D01*
G01X794029Y-101D02*
G01X802919Y-17881D01*
G01X829589Y-44551D01*
G01X642899Y-44551D01*
G01X829589Y-107543D02*
G01X642899Y-107543D01*
G01X829589Y-107543D02*
G01X829589Y-187553D01*
G01X820699Y-214223D01*
G01X811809Y-223113D01*
G01X794029Y-232003D01*
G01X776249Y-232003D01*
G01X758469Y-223113D01*
G01X749579Y-214223D01*
G01X740689Y-187553D01*
G01X740689Y-107543D02*
G01X740689Y-187553D01*
G01X731799Y-214223D01*
G01X722909Y-223113D01*
G01X705129Y-232003D01*
G01X678459Y-232003D01*
G01X660679Y-223113D01*
G01X651789Y-214223D01*
G01X642899Y-187553D01*
G01X642899Y-107543D01*
G01X540029Y15017D02*
G01X548919Y-2763D01*
G01X575589Y-29433D01*
G01X388899Y-29433D01*
G01X575589Y-163545D02*
G01X388899Y-92425D01*
G01X575589Y-163545D02*
G01X388899Y-234665D01*
G01X451129Y-119095D02*
G01X451129Y-207995D01*
G01X264439Y6127D02*
G01X273329Y6127D01*
G01X291109Y-2763D01*
G01X299999Y-11653D01*
G01X308889Y-29433D01*
G01X308889Y-64993D01*
G01X299999Y-82773D01*
G01X291109Y-91663D01*
G01X273329Y-100553D01*
G01X255549Y-100553D01*
G01X237769Y-91663D01*
G01X211099Y-73883D01*
G01X122199Y15017D01*
G01X122199Y-109443D01*
G01X308889Y-243555D02*
G01X122199Y-172435D01*
G01X308889Y-243555D02*
G01X122199Y-314675D01*
G01X184429Y-199105D02*
G01X184429Y-288005D01*
G01X10439Y16409D02*
G01X19329Y16409D01*
G01X37109Y7519D01*
G01X45999Y-1371D01*
G01X54889Y-19151D01*
G01X54889Y-54711D01*
G01X45999Y-72491D01*
G01X37109Y-81381D01*
G01X19329Y-90271D01*
G01X1549Y-90271D01*
G01X-16231Y-81381D01*
G01X-42901Y-63601D01*
G01X-131801Y25299D01*
G01X-131801Y-99161D01*
G01X54889Y-162153D02*
G01X-131801Y-162153D01*
G01X54889Y-162153D02*
G01X54889Y-242163D01*
G01X45999Y-268833D01*
G01X37109Y-277723D01*
G01X19329Y-286613D01*
G01X1549Y-286613D01*
G01X-16231Y-277723D01*
G01X-25121Y-268833D01*
G01X-34011Y-242163D01*
G01X-34011Y-162153D02*
G01X-34011Y-242163D01*
G01X-42901Y-268833D01*
G01X-51791Y-277723D01*
G01X-69571Y-286613D01*
G01X-96241Y-286613D01*
G01X-114021Y-277723D01*
G01X-122911Y-268833D01*
G01X-131801Y-242163D01*
G01X-131801Y-162153D01*
G01X-211811Y9937D02*
G01X-211811Y-87853D01*
G01X-282931Y-34513D01*
G01X-282931Y-61183D01*
G01X-291821Y-78963D01*
G01X-300711Y-87853D01*
G01X-327381Y-96743D01*
G01X-345161Y-96743D01*
G01X-371831Y-87853D01*
G01X-389611Y-70073D01*
G01X-398501Y-43403D01*
G01X-398501Y-16733D01*
G01X-389611Y9937D01*
G01X-380721Y18827D01*
G01X-362941Y27717D01*
G01X-211811Y-159735D02*
G01X-398501Y-230855D01*
G01X-211811Y-301975D02*
G01X-398501Y-230855D01*
G01X-211811Y-382747D02*
G01X-211811Y-480537D01*
G01X-282931Y-427197D01*
G01X-282931Y-453867D01*
G01X-291821Y-471647D01*
G01X-300711Y-480537D01*
G01X-327381Y-489427D01*
G01X-345161Y-489427D01*
G01X-371831Y-480537D01*
G01X-389611Y-462757D01*
G01X-398501Y-436087D01*
G01X-398501Y-409417D01*
G01X-389611Y-382747D01*
G01X-380721Y-373857D01*
G01X-362941Y-364967D01*
G01X296189Y2174017D02*
G01X109499Y2174017D01*
G01X296189Y2174017D02*
G01X296189Y2094007D01*
G01X287299Y2067337D01*
G01X278409Y2058447D01*
G01X260629Y2049557D01*
G01X233959Y2049557D01*
G01X216179Y2058447D01*
G01X207289Y2067337D01*
G01X198399Y2094007D01*
G01X198399Y2174017D01*
G01X296189Y1986565D02*
G01X109499Y1986565D01*
G01X296189Y1986565D02*
G01X296189Y1924335D01*
G01X287299Y1897665D01*
G01X269519Y1879885D01*
G01X251739Y1870995D01*
G01X225069Y1862105D01*
G01X180619Y1862105D01*
G01X153949Y1870995D01*
G01X136169Y1879885D01*
G01X118389Y1897665D01*
G01X109499Y1924335D01*
G01X109499Y1986565D01*
G01X296189Y1799113D02*
G01X109499Y1799113D01*
G01X296189Y1799113D02*
G01X109499Y1674653D01*
G01X296189Y1674653D02*
G01X109499Y1674653D01*
G01X-14961Y2040667D02*
G01X2819Y2049557D01*
G01X20599Y2067337D01*
G01X29489Y2085117D01*
G01X29489Y2120677D01*
G01X20599Y2138457D01*
G01X2819Y2156237D01*
G01X-14961Y2165127D01*
G01X-41631Y2174017D01*
G01X-86081Y2174017D01*
G01X-112751Y2165127D01*
G01X-130531Y2156237D01*
G01X-148311Y2138457D01*
G01X-157201Y2120677D01*
G01X-157201Y2085117D01*
G01X-148311Y2067337D01*
G01X-130531Y2049557D01*
G01X-112751Y2040667D01*
G01X29489Y1977675D02*
G01X-157201Y1977675D01*
G01X-157201Y1977675D02*
G01X-157201Y1870995D01*
G01X29489Y1808003D02*
G01X-157201Y1808003D01*
G01X29489Y1683543D02*
G01X-94971Y1808003D01*
G01X-50521Y1763553D02*
G01X-157201Y1683543D01*
G01X-263881Y2227357D02*
G01X-246101Y2245137D01*
G01X-237211Y2271807D01*
G01X-237211Y2307367D01*
G01X-246101Y2334037D01*
G01X-263881Y2351817D01*
G01X-281661Y2351817D01*
G01X-299441Y2342927D01*
G01X-308331Y2334037D01*
G01X-317221Y2316257D01*
G01X-335001Y2262917D01*
G01X-343891Y2245137D01*
G01X-352781Y2236247D01*
G01X-370561Y2227357D01*
G01X-397231Y2227357D01*
G01X-415011Y2245137D01*
G01X-423901Y2271807D01*
G01X-423901Y2307367D01*
G01X-415011Y2334037D01*
G01X-397231Y2351817D01*
G01X-237211Y2102135D02*
G01X-423901Y2102135D01*
G01X-237211Y2164365D02*
G01X-237211Y2039905D01*
G01X-237211Y1976913D02*
G01X-423901Y1976913D01*
G01X-237211Y1976913D02*
G01X-237211Y1861343D01*
G01X-326111Y1976913D02*
G01X-326111Y1905793D01*
G01X-423901Y1976913D02*
G01X-423901Y1861343D01*
G01X-237211Y1798351D02*
G01X-423901Y1798351D01*
G01X-237211Y1798351D02*
G01X-237211Y1718341D01*
G01X-246101Y1691671D01*
G01X-254991Y1682781D01*
G01X-272771Y1673891D01*
G01X-299441Y1673891D01*
G01X-317221Y1682781D01*
G01X-326111Y1691671D01*
G01X-335001Y1718341D01*
G01X-335001Y1798351D01*
G01X-491211Y2059717D02*
G01X-677901Y2059717D01*
G01X-491211Y2059717D02*
G01X-491211Y1997487D01*
G01X-500101Y1970817D01*
G01X-517881Y1953037D01*
G01X-535661Y1944147D01*
G01X-562331Y1935257D01*
G01X-606781Y1935257D01*
G01X-633451Y1944147D01*
G01X-651231Y1953037D01*
G01X-669011Y1970817D01*
G01X-677901Y1997487D01*
G01X-677901Y2059717D01*
G01X-491211Y1872265D02*
G01X-677901Y1872265D01*
G01X-491211Y1809273D02*
G01X-677901Y1809273D01*
G01X-491211Y1809273D02*
G01X-491211Y1729263D01*
G01X-500101Y1702593D01*
G01X-508991Y1693703D01*
G01X-526771Y1684813D01*
G01X-544551Y1684813D01*
G01X-562331Y1693703D01*
G01X-571221Y1702593D01*
G01X-580111Y1729263D01*
G01X-580111Y1809273D01*
G01X-580111Y1747043D02*
G01X-677901Y1684813D01*
G01X1362989Y2796317D02*
G01X1176299Y2796317D01*
G01X1362989Y2796317D02*
G01X1362989Y2680747D01*
G01X1274089Y2796317D02*
G01X1274089Y2725197D01*
G01X1176299Y2796317D02*
G01X1176299Y2680747D01*
G01X1362989Y2617755D02*
G01X1176299Y2617755D01*
G01X1362989Y2617755D02*
G01X1176299Y2493295D01*
G01X1362989Y2493295D02*
G01X1176299Y2493295D01*
G01X1362989Y2359183D02*
G01X1176299Y2430303D01*
G01X1362989Y2359183D02*
G01X1176299Y2288063D01*
G01X1238529Y2403633D02*
G01X1238529Y2314733D01*
G01X1362989Y2225071D02*
G01X1176299Y2225071D01*
G01X1362989Y2225071D02*
G01X1362989Y2145061D01*
G01X1354099Y2118391D01*
G01X1345209Y2109501D01*
G01X1327429Y2100611D01*
G01X1309649Y2100611D01*
G01X1291869Y2109501D01*
G01X1282979Y2118391D01*
G01X1274089Y2145061D01*
G01X1274089Y2225071D02*
G01X1274089Y2145061D01*
G01X1265199Y2118391D01*
G01X1256309Y2109501D01*
G01X1238529Y2100611D01*
G01X1211859Y2100611D01*
G01X1194079Y2109501D01*
G01X1185189Y2118391D01*
G01X1176299Y2145061D01*
G01X1176299Y2225071D01*
G01X1362989Y2037619D02*
G01X1176299Y2037619D01*
G01X1176299Y2037619D02*
G01X1176299Y1930939D01*
G01X1362989Y1867947D02*
G01X1176299Y1867947D01*
G01X1362989Y1867947D02*
G01X1362989Y1752377D01*
G01X1274089Y1867947D02*
G01X1274089Y1796827D01*
G01X1176299Y1867947D02*
G01X1176299Y1752377D01*
G01X649249Y-1519143D02*
G01X747039Y-1519143D01*
G01X693699Y-1590263D01*
G01X720369Y-1590263D01*
G01X738149Y-1599153D01*
G01X747039Y-1608043D01*
G01X755929Y-1634713D01*
G01X755929Y-1652493D01*
G01X747039Y-1679163D01*
G01X729259Y-1696943D01*
G01X702589Y-1705833D01*
G01X675919Y-1705833D01*
G01X649249Y-1696943D01*
G01X640359Y-1688053D01*
G01X631469Y-1670273D01*
G01X818921Y-1519143D02*
G01X890041Y-1705833D01*
G01X961161Y-1519143D02*
G01X890041Y-1705833D01*
G01X1041933Y-1519143D02*
G01X1139723Y-1519143D01*
G01X1086383Y-1590263D01*
G01X1113053Y-1590263D01*
G01X1130833Y-1599153D01*
G01X1139723Y-1608043D01*
G01X1148613Y-1634713D01*
G01X1148613Y-1652493D01*
G01X1139723Y-1679163D01*
G01X1121943Y-1696943D01*
G01X1095273Y-1705833D01*
G01X1068603Y-1705833D01*
G01X1041933Y-1696943D01*
G01X1033043Y-1688053D01*
G01X1024153Y-1670273D01*
G01X777519Y-2566893D02*
G01X768629Y-2549113D01*
G01X750849Y-2531333D01*
G01X733069Y-2522443D01*
G01X697509Y-2522443D01*
G01X679729Y-2531333D01*
G01X661949Y-2549113D01*
G01X653059Y-2566893D01*
G01X644169Y-2593563D01*
G01X644169Y-2638013D01*
G01X653059Y-2664683D01*
G01X661949Y-2682463D01*
G01X679729Y-2700243D01*
G01X697509Y-2709133D01*
G01X733069Y-2709133D01*
G01X750849Y-2700243D01*
G01X768629Y-2682463D01*
G01X777519Y-2664683D01*
G01X777519Y-2638013D01*
G01X733069Y-2638013D02*
G01X777519Y-2638013D01*
G01X840511Y-2522443D02*
G01X840511Y-2709133D01*
G01X840511Y-2522443D02*
G01X964971Y-2709133D01*
G01X964971Y-2522443D02*
G01X964971Y-2709133D01*
G01X1027963Y-2522443D02*
G01X1027963Y-2709133D01*
G01X1027963Y-2522443D02*
G01X1090193Y-2522443D01*
G01X1116863Y-2531333D01*
G01X1134643Y-2549113D01*
G01X1143533Y-2566893D01*
G01X1152423Y-2593563D01*
G01X1152423Y-2638013D01*
G01X1143533Y-2664683D01*
G01X1134643Y-2682463D01*
G01X1116863Y-2700243D01*
G01X1090193Y-2709133D01*
G01X1027963Y-2709133D01*
G01X612419Y-2046193D02*
G01X603529Y-2028413D01*
G01X585749Y-2010633D01*
G01X567969Y-2001743D01*
G01X532409Y-2001743D01*
G01X514629Y-2010633D01*
G01X496849Y-2028413D01*
G01X487959Y-2046193D01*
G01X479069Y-2072863D01*
G01X479069Y-2117313D01*
G01X487959Y-2143983D01*
G01X496849Y-2161763D01*
G01X514629Y-2179543D01*
G01X532409Y-2188433D01*
G01X567969Y-2188433D01*
G01X585749Y-2179543D01*
G01X603529Y-2161763D01*
G01X612419Y-2143983D01*
G01X612419Y-2117313D01*
G01X567969Y-2117313D02*
G01X612419Y-2117313D01*
G01X675411Y-2001743D02*
G01X675411Y-2188433D01*
G01X675411Y-2001743D02*
G01X755421Y-2001743D01*
G01X782091Y-2010633D01*
G01X790981Y-2019523D01*
G01X799871Y-2037303D01*
G01X799871Y-2063973D01*
G01X790981Y-2081753D01*
G01X782091Y-2090643D01*
G01X755421Y-2099533D01*
G01X675411Y-2099533D01*
G01X862863Y-2001743D02*
G01X862863Y-2188433D01*
G01X979195Y-2001743D02*
G01X961415Y-2010633D01*
G01X943635Y-2028413D01*
G01X934745Y-2046193D01*
G01X925855Y-2072863D01*
G01X925855Y-2117313D01*
G01X934745Y-2143983D01*
G01X943635Y-2161763D01*
G01X961415Y-2179543D01*
G01X979195Y-2188433D01*
G01X1014755Y-2188433D01*
G01X1032535Y-2179543D01*
G01X1050315Y-2161763D01*
G01X1059205Y-2143983D01*
G01X1068095Y-2117313D01*
G01X1068095Y-2072863D01*
G01X1059205Y-2046193D01*
G01X1050315Y-2028413D01*
G01X1032535Y-2010633D01*
G01X1014755Y-2001743D01*
G01X979195Y-2001743D01*
G01X1131087Y-2037303D02*
G01X1148867Y-2028413D01*
G01X1175537Y-2001743D01*
G01X1175537Y-2188433D01*
G54D10*
G01X-2207235Y-5158963D02*
G01X-2214347Y-5144739D01*
G01X-2228825Y-5130261D01*
G01X-2243049Y-5123149D01*
G01X-2271751Y-5123149D01*
G01X-2286229Y-5130261D01*
G01X-2300453Y-5144739D01*
G01X-2307819Y-5158963D01*
G01X-2314931Y-5180553D01*
G01X-2314931Y-5216367D01*
G01X-2307819Y-5237957D01*
G01X-2300453Y-5252181D01*
G01X-2286229Y-5266659D01*
G01X-2271751Y-5273771D01*
G01X-2243049Y-5273771D01*
G01X-2228825Y-5266659D01*
G01X-2214347Y-5252181D01*
G01X-2207235Y-5237957D01*
G01X-2207235Y-5216367D01*
G01X-2243049Y-5216367D02*
G01X-2207235Y-5216367D01*
G01X-2152371Y-5123149D02*
G01X-2152371Y-5273771D01*
G01X-2152371Y-5123149D02*
G01X-2052041Y-5273771D01*
G01X-2052041Y-5123149D02*
G01X-2052041Y-5273771D01*
G01X-1997177Y-5123149D02*
G01X-1997177Y-5273771D01*
G01X-1997177Y-5123149D02*
G01X-1947139Y-5123149D01*
G01X-1925549Y-5130261D01*
G01X-1911071Y-5144739D01*
G01X-1903959Y-5158963D01*
G01X-1896847Y-5180553D01*
G01X-1896847Y-5216367D01*
G01X-1903959Y-5237957D01*
G01X-1911071Y-5252181D01*
G01X-1925549Y-5266659D01*
G01X-1947139Y-5273771D01*
G01X-1997177Y-5273771D01*
G54D11*
G01X-3381731Y2849657D02*
G01X-3381731Y2662967D01*
G01X-3381731Y2849657D02*
G01X-3301721Y2849657D01*
G01X-3275051Y2840767D01*
G01X-3266161Y2831877D01*
G01X-3257271Y2814097D01*
G01X-3257271Y2796317D01*
G01X-3266161Y2778537D01*
G01X-3275051Y2769647D01*
G01X-3301721Y2760757D01*
G01X-3381731Y2760757D01*
G01X-3319501Y2760757D02*
G01X-3257271Y2662967D01*
G01X-3149829Y2787427D02*
G01X-3167609Y2778537D01*
G01X-3185389Y2760757D01*
G01X-3194279Y2734087D01*
G01X-3194279Y2716307D01*
G01X-3185389Y2689637D01*
G01X-3167609Y2671857D01*
G01X-3149829Y2662967D01*
G01X-3123159Y2662967D01*
G01X-3105379Y2671857D01*
G01X-3087599Y2689637D01*
G01X-3078709Y2716307D01*
G01X-3078709Y2734087D01*
G01X-3087599Y2760757D01*
G01X-3105379Y2778537D01*
G01X-3123159Y2787427D01*
G01X-3149829Y2787427D01*
G01X-2989047Y2849657D02*
G01X-2989047Y2698527D01*
G01X-2980157Y2671857D01*
G01X-2962377Y2662967D01*
G01X-2944597Y2662967D01*
G01X-3015717Y2787427D02*
G01X-2953487Y2787427D01*
G01X-2774925Y2787427D02*
G01X-2774925Y2662967D01*
G01X-2774925Y2760757D02*
G01X-2792705Y2778537D01*
G01X-2810485Y2787427D01*
G01X-2837155Y2787427D01*
G01X-2854935Y2778537D01*
G01X-2872715Y2760757D01*
G01X-2881605Y2734087D01*
G01X-2881605Y2716307D01*
G01X-2872715Y2689637D01*
G01X-2854935Y2671857D01*
G01X-2837155Y2662967D01*
G01X-2810485Y2662967D01*
G01X-2792705Y2671857D01*
G01X-2774925Y2689637D01*
G01X-2711933Y2787427D02*
G01X-2711933Y2662967D01*
G01X-2711933Y2734087D02*
G01X-2703043Y2760757D01*
G01X-2685263Y2778537D01*
G01X-2667483Y2787427D01*
G01X-2640813Y2787427D01*
G01X-2568931Y2787427D02*
G01X-2515591Y2662967D01*
G01X-2462251Y2787427D02*
G01X-2515591Y2662967D01*
G01X-2533371Y2627407D01*
G01X-2551151Y2609627D01*
G01X-2568931Y2600737D01*
G01X-2577821Y2600737D01*
G54D10*
G01X-8232140Y1043686D02*
G01X-8232140Y925830D01*
G01X-8232140Y1043686D02*
G01X-8181594Y1043686D01*
G01X-8164830Y1038098D01*
G01X-8159242Y1032510D01*
G01X-8153654Y1021334D01*
G01X-8153654Y1009904D01*
G01X-8159242Y998728D01*
G01X-8164830Y993140D01*
G01X-8181594Y987552D01*
G01X-8232140Y987552D02*
G01X-8181594Y987552D01*
G01X-8164830Y981964D01*
G01X-8159242Y976376D01*
G01X-8153654Y964946D01*
G01X-8153654Y948182D01*
G01X-8159242Y937006D01*
G01X-8164830Y931418D01*
G01X-8181594Y925830D01*
G01X-8232140Y925830D01*
G01X-8106410Y1004316D02*
G01X-8106410Y948182D01*
G01X-8100822Y931418D01*
G01X-8089646Y925830D01*
G01X-8072628Y925830D01*
G01X-8061452Y931418D01*
G01X-8044688Y948182D01*
G01X-8044688Y1004316D02*
G01X-8044688Y925830D01*
G01X-7980680Y1043686D02*
G01X-7980680Y948182D01*
G01X-7974838Y931418D01*
G01X-7963662Y925830D01*
G01X-7952486Y925830D01*
G01X-7997444Y1004316D02*
G01X-7958074Y1004316D01*
G01X-7888478Y1043686D02*
G01X-7888478Y948182D01*
G01X-7882636Y931418D01*
G01X-7871460Y925830D01*
G01X-7860284Y925830D01*
G01X-7905242Y1004316D02*
G01X-7865872Y1004316D01*
G01X-7784846Y1004316D02*
G01X-7796276Y998728D01*
G01X-7807452Y987552D01*
G01X-7813040Y970788D01*
G01X-7813040Y959358D01*
G01X-7807452Y942594D01*
G01X-7796276Y931418D01*
G01X-7784846Y925830D01*
G01X-7768082Y925830D01*
G01X-7756906Y931418D01*
G01X-7745730Y942594D01*
G01X-7740142Y959358D01*
G01X-7740142Y970788D01*
G01X-7745730Y987552D01*
G01X-7756906Y998728D01*
G01X-7768082Y1004316D01*
G01X-7784846Y1004316D01*
G01X-7692898Y1004316D02*
G01X-7692898Y925830D01*
G01X-7692898Y981964D02*
G01X-7676134Y998728D01*
G01X-7664704Y1004316D01*
G01X-7647940Y1004316D01*
G01X-7636764Y998728D01*
G01X-7631176Y981964D01*
G01X-7631176Y925830D01*
G01X-7522210Y987552D02*
G01X-7527798Y998728D01*
G01X-7544562Y1004316D01*
G01X-7561326Y1004316D01*
G01X-7578344Y998728D01*
G01X-7583932Y987552D01*
G01X-7578344Y976376D01*
G01X-7567168Y970788D01*
G01X-7538974Y964946D01*
G01X-7527798Y959358D01*
G01X-7522210Y948182D01*
G01X-7522210Y942594D01*
G01X-7527798Y931418D01*
G01X-7544562Y925830D01*
G01X-7561326Y925830D01*
G01X-7578344Y931418D01*
G01X-7583932Y942594D01*
G01X-5045431Y2897663D02*
G01X-5045431Y2779807D01*
G01X-5045431Y2897663D02*
G01X-4994885Y2897663D01*
G01X-4978121Y2892075D01*
G01X-4972533Y2886487D01*
G01X-4966945Y2875311D01*
G01X-4966945Y2863881D01*
G01X-4972533Y2852705D01*
G01X-4978121Y2847117D01*
G01X-4994885Y2841529D01*
G01X-5045431Y2841529D02*
G01X-4994885Y2841529D01*
G01X-4978121Y2835941D01*
G01X-4972533Y2830353D01*
G01X-4966945Y2818923D01*
G01X-4966945Y2802159D01*
G01X-4972533Y2790983D01*
G01X-4978121Y2785395D01*
G01X-4994885Y2779807D01*
G01X-5045431Y2779807D01*
G01X-4902937Y2897663D02*
G01X-4902937Y2802159D01*
G01X-4897095Y2785395D01*
G01X-4885919Y2779807D01*
G01X-4874743Y2779807D01*
G01X-4919701Y2858293D02*
G01X-4880331Y2858293D01*
G01X-4827499Y2858293D02*
G01X-4827499Y2779807D01*
G01X-4827499Y2835941D02*
G01X-4810735Y2852705D01*
G01X-4799305Y2858293D01*
G01X-4782541Y2858293D01*
G01X-4771365Y2852705D01*
G01X-4765777Y2835941D01*
G01X-4765777Y2779807D01*
G01X-4508475Y2869469D02*
G01X-4514063Y2880899D01*
G01X-4525239Y2892075D01*
G01X-4536669Y2897663D01*
G01X-4559021Y2897663D01*
G01X-4570197Y2892075D01*
G01X-4581373Y2880899D01*
G01X-4587215Y2869469D01*
G01X-4592803Y2852705D01*
G01X-4592803Y2824765D01*
G01X-4587215Y2807747D01*
G01X-4581373Y2796571D01*
G01X-4570197Y2785395D01*
G01X-4559021Y2779807D01*
G01X-4536669Y2779807D01*
G01X-4525239Y2785395D01*
G01X-4514063Y2796571D01*
G01X-4508475Y2807747D01*
G01X-4508475Y2824765D01*
G01X-4536669Y2824765D02*
G01X-4508475Y2824765D01*
G01X-4461231Y2897663D02*
G01X-4461231Y2779807D01*
G01X-4461231Y2897663D02*
G01X-4382491Y2779807D01*
G01X-4382491Y2897663D02*
G01X-4382491Y2779807D01*
G01X-4335247Y2897663D02*
G01X-4335247Y2779807D01*
G01X-4335247Y2897663D02*
G01X-4295877Y2897663D01*
G01X-4279113Y2892075D01*
G01X-4267937Y2880899D01*
G01X-4262349Y2869469D01*
G01X-4256507Y2852705D01*
G01X-4256507Y2824765D01*
G01X-4262349Y2807747D01*
G01X-4267937Y2796571D01*
G01X-4279113Y2785395D01*
G01X-4295877Y2779807D01*
G01X-4335247Y2779807D01*
G01X-6627622Y-114554D02*
G01X-6638798Y-125730D01*
G01X-6644386Y-142494D01*
G01X-6644386Y-164846D01*
G01X-6638798Y-181864D01*
G01X-6627622Y-193040D01*
G01X-6616192Y-193040D01*
G01X-6605016Y-187452D01*
G01X-6599428Y-181864D01*
G01X-6593840Y-170688D01*
G01X-6582664Y-136906D01*
G01X-6577076Y-125730D01*
G01X-6571488Y-120142D01*
G01X-6560058Y-114554D01*
G01X-6543294Y-114554D01*
G01X-6532118Y-125730D01*
G01X-6526530Y-142494D01*
G01X-6526530Y-164846D01*
G01X-6532118Y-181864D01*
G01X-6543294Y-193040D01*
G01X-6605016Y-67310D02*
G01X-6487160Y-67310D01*
G01X-6588252Y-67310D02*
G01X-6599428Y-56134D01*
G01X-6605016Y-44704D01*
G01X-6605016Y-27940D01*
G01X-6599428Y-16764D01*
G01X-6588252Y-5588D01*
G01X-6571488Y0D01*
G01X-6560058Y0D01*
G01X-6543294Y-5588D01*
G01X-6532118Y-16764D01*
G01X-6526530Y-27940D01*
G01X-6526530Y-44704D01*
G01X-6532118Y-56134D01*
G01X-6543294Y-67310D01*
G01X-6605016Y114554D02*
G01X-6526530Y114554D01*
G01X-6588252Y114554D02*
G01X-6599428Y103378D01*
G01X-6605016Y92202D01*
G01X-6605016Y75438D01*
G01X-6599428Y64008D01*
G01X-6588252Y52832D01*
G01X-6571488Y47244D01*
G01X-6560058Y47244D01*
G01X-6543294Y52832D01*
G01X-6532118Y64008D01*
G01X-6526530Y75438D01*
G01X-6526530Y92202D01*
G01X-6532118Y103378D01*
G01X-6543294Y114554D01*
G01X-6605016Y161798D02*
G01X-6526530Y161798D01*
G01X-6571488Y161798D02*
G01X-6588252Y167386D01*
G01X-6599428Y178562D01*
G01X-6605016Y189992D01*
G01X-6605016Y206756D01*
G01X-6571488Y254000D02*
G01X-6571488Y321310D01*
G01X-6582664Y321310D01*
G01X-6593840Y315722D01*
G01X-6599428Y310134D01*
G01X-6605016Y298958D01*
G01X-6605016Y282194D01*
G01X-6599428Y270764D01*
G01X-6588252Y259588D01*
G01X-6571488Y254000D01*
G01X-6560058Y254000D01*
G01X-6543294Y259588D01*
G01X-6532118Y270764D01*
G01X-6526530Y282194D01*
G01X-6526530Y298958D01*
G01X-6532118Y310134D01*
G01X-6543294Y321310D01*
G01X-6644386Y494284D02*
G01X-6526530Y494284D01*
G01X-6644386Y494284D02*
G01X-6644386Y544830D01*
G01X-6638798Y561848D01*
G01X-6633210Y567436D01*
G01X-6622034Y573024D01*
G01X-6610604Y573024D01*
G01X-6599428Y567436D01*
G01X-6593840Y561848D01*
G01X-6588252Y544830D01*
G01X-6588252Y494284D02*
G01X-6588252Y544830D01*
G01X-6582664Y561848D01*
G01X-6577076Y567436D01*
G01X-6565646Y573024D01*
G01X-6548882Y573024D01*
G01X-6537706Y567436D01*
G01X-6532118Y561848D01*
G01X-6526530Y544830D01*
G01X-6526530Y494284D01*
G01X-6644386Y637032D02*
G01X-6548882Y637032D01*
G01X-6532118Y642874D01*
G01X-6526530Y654050D01*
G01X-6526530Y665226D01*
G01X-6605016Y620268D02*
G01X-6605016Y659638D01*
G01X-6605016Y712470D02*
G01X-6526530Y712470D01*
G01X-6582664Y712470D02*
G01X-6599428Y729234D01*
G01X-6605016Y740664D01*
G01X-6605016Y757428D01*
G01X-6599428Y768604D01*
G01X-6582664Y774192D01*
G01X-6526530Y774192D01*
G01X-8255254Y684022D02*
G01X-8266430Y695198D01*
G01X-8283194Y700786D01*
G01X-8305546Y700786D01*
G01X-8322564Y695198D01*
G01X-8333740Y684022D01*
G01X-8333740Y672592D01*
G01X-8328152Y661416D01*
G01X-8322564Y655828D01*
G01X-8311388Y650240D01*
G01X-8277606Y639064D01*
G01X-8266430Y633476D01*
G01X-8260842Y627888D01*
G01X-8255254Y616458D01*
G01X-8255254Y599694D01*
G01X-8266430Y588518D01*
G01X-8283194Y582930D01*
G01X-8305546Y582930D01*
G01X-8322564Y588518D01*
G01X-8333740Y599694D01*
G01X-8168640Y700786D02*
G01X-8168640Y582930D01*
G01X-8208010Y700786D02*
G01X-8129270Y700786D01*
G01X-8037068Y700786D02*
G01X-8082026Y582930D01*
G01X-8037068Y700786D02*
G01X-7992110Y582930D01*
G01X-8065262Y622046D02*
G01X-8009128Y622046D01*
G01X-7944866Y700786D02*
G01X-7944866Y582930D01*
G01X-7944866Y700786D02*
G01X-7894320Y700786D01*
G01X-7877556Y695198D01*
G01X-7871968Y689610D01*
G01X-7866126Y678434D01*
G01X-7866126Y667004D01*
G01X-7871968Y655828D01*
G01X-7877556Y650240D01*
G01X-7894320Y644652D01*
G01X-7944866Y644652D01*
G01X-7905496Y644652D02*
G01X-7866126Y582930D01*
G01X-7779512Y700786D02*
G01X-7779512Y582930D01*
G01X-7818882Y700786D02*
G01X-7740142Y700786D01*
G01X-7591806Y723138D02*
G01X-7692898Y543560D01*
G01X-7544562Y700786D02*
G01X-7544562Y582930D01*
G01X-7544562Y700786D02*
G01X-7471664Y700786D01*
G01X-7544562Y644652D02*
G01X-7499604Y644652D01*
G01X-7544562Y582930D02*
G01X-7471664Y582930D01*
G01X-7424420Y700786D02*
G01X-7424420Y582930D01*
G01X-7424420Y700786D02*
G01X-7345680Y582930D01*
G01X-7345680Y700786D02*
G01X-7345680Y582930D01*
G01X-7298436Y700786D02*
G01X-7298436Y582930D01*
G01X-7298436Y700786D02*
G01X-7259066Y700786D01*
G01X-7242302Y695198D01*
G01X-7231126Y684022D01*
G01X-7225538Y672592D01*
G01X-7219696Y655828D01*
G01X-7219696Y627888D01*
G01X-7225538Y610870D01*
G01X-7231126Y599694D01*
G01X-7242302Y588518D01*
G01X-7259066Y582930D01*
G01X-7298436Y582930D01*
G54D12*
G01X-9242298Y840740D02*
G01X-9245346Y847090D01*
G01X-9251696Y853186D01*
G01X-9257792Y856234D01*
G01X-9270238Y856234D01*
G01X-9276334Y853186D01*
G01X-9282684Y847090D01*
G01X-9285732Y840740D01*
G01X-9288780Y831596D01*
G01X-9288780Y816102D01*
G01X-9285732Y806704D01*
G01X-9282684Y800608D01*
G01X-9276334Y794258D01*
G01X-9270238Y791210D01*
G01X-9257792Y791210D01*
G01X-9251696Y794258D01*
G01X-9245346Y800608D01*
G01X-9242298Y806704D01*
G01X-9212072Y856234D02*
G01X-9212072Y791210D01*
G01X-9212072Y856234D02*
G01X-9168892Y791210D01*
G01X-9168892Y856234D02*
G01X-9168892Y791210D01*
G01X-9135618Y840740D02*
G01X-9135618Y843788D01*
G01X-9132570Y850138D01*
G01X-9129522Y853186D01*
G01X-9123426Y856234D01*
G01X-9110980Y856234D01*
G01X-9104630Y853186D01*
G01X-9101582Y850138D01*
G01X-9098534Y843788D01*
G01X-9098534Y837692D01*
G01X-9101582Y831596D01*
G01X-9107932Y822198D01*
G01X-9138666Y791210D01*
G01X-9095486Y791210D01*
G01X-221882Y-3366789D02*
G01X-221882Y-3431813D01*
G01X-221882Y-3366789D02*
G01X-181750Y-3366789D01*
G01X-221882Y-3397777D02*
G01X-196990Y-3397777D01*
G01X-151524Y-3366789D02*
G01X-151524Y-3431813D01*
G01X-108344Y-3366789D02*
G01X-108344Y-3431813D01*
G01X-151524Y-3397777D02*
G01X-108344Y-3397777D01*
G01X-78118Y-3379235D02*
G01X-72022Y-3375933D01*
G01X-62878Y-3366789D01*
G01X-62878Y-3431813D01*
G01X-6377457Y-4198931D02*
G01X-6442481Y-4198931D01*
G01X-6377457Y-4198931D02*
G01X-6377457Y-4239063D01*
G01X-6408445Y-4198931D02*
G01X-6408445Y-4223823D01*
G01X-6377457Y-4269289D02*
G01X-6442481Y-4269289D01*
G01X-6377457Y-4312469D02*
G01X-6442481Y-4312469D01*
G01X-6408445Y-4269289D02*
G01X-6408445Y-4312469D01*
G01X-6392951Y-4345743D02*
G01X-6389903Y-4345743D01*
G01X-6383553Y-4348791D01*
G01X-6380505Y-4351839D01*
G01X-6377457Y-4357935D01*
G01X-6377457Y-4370381D01*
G01X-6380505Y-4376731D01*
G01X-6383553Y-4379779D01*
G01X-6389903Y-4382827D01*
G01X-6395999Y-4382827D01*
G01X-6402095Y-4379779D01*
G01X-6411493Y-4373429D01*
G01X-6442481Y-4342695D01*
G01X-6442481Y-4385875D01*
G01X-836397Y2631217D02*
G01X-901421Y2631217D01*
G01X-836397Y2587783D02*
G01X-901421Y2587783D01*
G01X-867385Y2631217D02*
G01X-867385Y2587783D01*
G01X-836397Y2542317D02*
G01X-839445Y2551461D01*
G01X-845541Y2554509D01*
G01X-851891Y2554509D01*
G01X-857987Y2551461D01*
G01X-861035Y2545365D01*
G01X-864083Y2532919D01*
G01X-867385Y2523521D01*
G01X-873481Y2517425D01*
G01X-879577Y2514377D01*
G01X-888975Y2514377D01*
G01X-895071Y2517425D01*
G01X-898373Y2520473D01*
G01X-901421Y2529871D01*
G01X-901421Y2542317D01*
G01X-898373Y2551461D01*
G01X-895071Y2554509D01*
G01X-888975Y2557557D01*
G01X-879577Y2557557D01*
G01X-873481Y2554509D01*
G01X-867385Y2548413D01*
G01X-864083Y2539015D01*
G01X-861035Y2526823D01*
G01X-857987Y2520473D01*
G01X-851891Y2517425D01*
G01X-845541Y2517425D01*
G01X-839445Y2520473D01*
G01X-836397Y2529871D01*
G01X-836397Y2542317D01*
G01X-1187171Y1351311D02*
G01X-1187171Y1286287D01*
G01X-1143737Y1351311D02*
G01X-1143737Y1286287D01*
G01X-1187171Y1320323D02*
G01X-1143737Y1320323D01*
G01X-1073379Y1329721D02*
G01X-1076427Y1320323D01*
G01X-1082777Y1314227D01*
G01X-1091921Y1311179D01*
G01X-1094969Y1311179D01*
G01X-1104367Y1314227D01*
G01X-1110463Y1320323D01*
G01X-1113511Y1329721D01*
G01X-1113511Y1332769D01*
G01X-1110463Y1342167D01*
G01X-1104367Y1348263D01*
G01X-1094969Y1351311D01*
G01X-1091921Y1351311D01*
G01X-1082777Y1348263D01*
G01X-1076427Y1342167D01*
G01X-1073379Y1329721D01*
G01X-1073379Y1314227D01*
G01X-1076427Y1298733D01*
G01X-1082777Y1289335D01*
G01X-1091921Y1286287D01*
G01X-1098271Y1286287D01*
G01X-1107415Y1289335D01*
G01X-1110463Y1295685D01*
G01X679729Y-744189D02*
G01X679729Y-809213D01*
G01X723163Y-744189D02*
G01X723163Y-809213D01*
G01X679729Y-775177D02*
G01X723163Y-775177D01*
G01X753389Y-756635D02*
G01X759485Y-753333D01*
G01X768629Y-744189D01*
G01X768629Y-809213D01*
G01X817397Y-744189D02*
G01X807999Y-747237D01*
G01X801903Y-756635D01*
G01X798855Y-771875D01*
G01X798855Y-781273D01*
G01X801903Y-796767D01*
G01X807999Y-806165D01*
G01X817397Y-809213D01*
G01X823493Y-809213D01*
G01X832891Y-806165D01*
G01X838987Y-796767D01*
G01X842035Y-781273D01*
G01X842035Y-771875D01*
G01X838987Y-756635D01*
G01X832891Y-747237D01*
G01X823493Y-744189D01*
G01X817397Y-744189D01*
G01X-8946871Y-134589D02*
G01X-8946871Y-199613D01*
G01X-8903437Y-134589D02*
G01X-8903437Y-199613D01*
G01X-8946871Y-165577D02*
G01X-8903437Y-165577D01*
G01X-8873211Y-147035D02*
G01X-8867115Y-143733D01*
G01X-8857971Y-134589D01*
G01X-8857971Y-199613D01*
G01X-8827745Y-147035D02*
G01X-8821649Y-143733D01*
G01X-8812505Y-134589D01*
G01X-8812505Y-199613D01*
G01X-3574517Y2240311D02*
G01X-3574517Y2175287D01*
G01X-3531083Y2240311D02*
G01X-3531083Y2175287D01*
G01X-3574517Y2209323D02*
G01X-3531083Y2209323D01*
G01X-3500857Y2227865D02*
G01X-3494761Y2231167D01*
G01X-3485617Y2240311D01*
G01X-3485617Y2175287D01*
G01X-3452343Y2224817D02*
G01X-3452343Y2227865D01*
G01X-3449295Y2234215D01*
G01X-3446247Y2237263D01*
G01X-3440151Y2240311D01*
G01X-3427705Y2240311D01*
G01X-3421355Y2237263D01*
G01X-3418307Y2234215D01*
G01X-3415259Y2227865D01*
G01X-3415259Y2221769D01*
G01X-3418307Y2215673D01*
G01X-3424657Y2206275D01*
G01X-3455391Y2175287D01*
G01X-3412211Y2175287D01*
G01X-2792171Y1130319D02*
G01X-2857195Y1130319D01*
G01X-2792171Y1130319D02*
G01X-2792171Y1102379D01*
G01X-2795219Y1093235D01*
G01X-2798267Y1090187D01*
G01X-2804617Y1086885D01*
G01X-2813761Y1086885D01*
G01X-2819857Y1090187D01*
G01X-2823159Y1093235D01*
G01X-2826207Y1102379D01*
G01X-2826207Y1130319D01*
G01X-2792171Y1050563D02*
G01X-2792171Y1016527D01*
G01X-2816809Y1035069D01*
G01X-2816809Y1025925D01*
G01X-2819857Y1019575D01*
G01X-2823159Y1016527D01*
G01X-2832303Y1013479D01*
G01X-2838653Y1013479D01*
G01X-2847797Y1016527D01*
G01X-2854147Y1022623D01*
G01X-2857195Y1032021D01*
G01X-2857195Y1041419D01*
G01X-2854147Y1050563D01*
G01X-2850845Y1053611D01*
G01X-2844749Y1056659D01*
G01X-5088357Y1135157D02*
G01X-5153381Y1135157D01*
G01X-5088357Y1135157D02*
G01X-5088357Y1107217D01*
G01X-5091405Y1098073D01*
G01X-5094453Y1095025D01*
G01X-5100803Y1091723D01*
G01X-5109947Y1091723D01*
G01X-5116043Y1095025D01*
G01X-5119345Y1098073D01*
G01X-5122393Y1107217D01*
G01X-5122393Y1135157D01*
G01X-5088357Y1030763D02*
G01X-5131537Y1061497D01*
G01X-5131537Y1015269D01*
G01X-5088357Y1030763D02*
G01X-5153381Y1030763D01*
G01X-7575271Y-6205189D02*
G01X-7575271Y-6270213D01*
G01X-7575271Y-6205189D02*
G01X-7547331Y-6205189D01*
G01X-7538187Y-6208237D01*
G01X-7535139Y-6211285D01*
G01X-7531837Y-6217635D01*
G01X-7531837Y-6226779D01*
G01X-7535139Y-6232875D01*
G01X-7538187Y-6236177D01*
G01X-7547331Y-6239225D01*
G01X-7575271Y-6239225D01*
G01X-7464527Y-6205189D02*
G01X-7495515Y-6205189D01*
G01X-7498563Y-6232875D01*
G01X-7495515Y-6229827D01*
G01X-7486371Y-6226779D01*
G01X-7476973Y-6226779D01*
G01X-7467575Y-6229827D01*
G01X-7461479Y-6236177D01*
G01X-7458431Y-6245321D01*
G01X-7458431Y-6251671D01*
G01X-7461479Y-6260815D01*
G01X-7467575Y-6267165D01*
G01X-7476973Y-6270213D01*
G01X-7486371Y-6270213D01*
G01X-7495515Y-6267165D01*
G01X-7498563Y-6263863D01*
G01X-7501611Y-6257767D01*
G01X-1923771Y-5341589D02*
G01X-1923771Y-5406613D01*
G01X-1923771Y-5341589D02*
G01X-1895831Y-5341589D01*
G01X-1886687Y-5344637D01*
G01X-1883639Y-5347685D01*
G01X-1880337Y-5354035D01*
G01X-1880337Y-5363179D01*
G01X-1883639Y-5369275D01*
G01X-1886687Y-5372577D01*
G01X-1895831Y-5375625D01*
G01X-1923771Y-5375625D01*
G01X-1813027Y-5350733D02*
G01X-1816075Y-5344637D01*
G01X-1825473Y-5341589D01*
G01X-1831569Y-5341589D01*
G01X-1840967Y-5344637D01*
G01X-1847063Y-5354035D01*
G01X-1850111Y-5369275D01*
G01X-1850111Y-5384769D01*
G01X-1847063Y-5397215D01*
G01X-1840967Y-5403565D01*
G01X-1831569Y-5406613D01*
G01X-1828521Y-5406613D01*
G01X-1819377Y-5403565D01*
G01X-1813027Y-5397215D01*
G01X-1809979Y-5388071D01*
G01X-1809979Y-5384769D01*
G01X-1813027Y-5375625D01*
G01X-1819377Y-5369275D01*
G01X-1828521Y-5366227D01*
G01X-1831569Y-5366227D01*
G01X-1840967Y-5369275D01*
G01X-1847063Y-5375625D01*
G01X-1850111Y-5384769D01*
G01X796191Y-6347256D02*
G01X796191Y-6282232D01*
G01X796191Y-6347256D02*
G01X768251Y-6347256D01*
G01X759107Y-6344208D01*
G01X756059Y-6341160D01*
G01X752757Y-6334810D01*
G01X752757Y-6325666D01*
G01X756059Y-6319570D01*
G01X759107Y-6316268D01*
G01X768251Y-6313220D01*
G01X796191Y-6313220D01*
G01X707291Y-6347256D02*
G01X716435Y-6344208D01*
G01X719483Y-6338112D01*
G01X719483Y-6331762D01*
G01X716435Y-6325666D01*
G01X710339Y-6322618D01*
G01X697893Y-6319570D01*
G01X688495Y-6316268D01*
G01X682399Y-6310172D01*
G01X679351Y-6304076D01*
G01X679351Y-6294678D01*
G01X682399Y-6288582D01*
G01X685447Y-6285280D01*
G01X694845Y-6282232D01*
G01X707291Y-6282232D01*
G01X716435Y-6285280D01*
G01X719483Y-6288582D01*
G01X722531Y-6294678D01*
G01X722531Y-6304076D01*
G01X719483Y-6310172D01*
G01X713387Y-6316268D01*
G01X703989Y-6319570D01*
G01X691797Y-6322618D01*
G01X685447Y-6325666D01*
G01X682399Y-6331762D01*
G01X682399Y-6338112D01*
G01X685447Y-6344208D01*
G01X694845Y-6347256D01*
G01X707291Y-6347256D01*
G01X-7852131Y-1166820D02*
G01X-7858481Y-1169868D01*
G01X-7864577Y-1176218D01*
G01X-7867625Y-1182314D01*
G01X-7867625Y-1194760D01*
G01X-7864577Y-1200856D01*
G01X-7858481Y-1207206D01*
G01X-7852131Y-1210254D01*
G01X-7842987Y-1213302D01*
G01X-7827493Y-1213302D01*
G01X-7818095Y-1210254D01*
G01X-7811999Y-1207206D01*
G01X-7805649Y-1200856D01*
G01X-7802601Y-1194760D01*
G01X-7802601Y-1182314D01*
G01X-7805649Y-1176218D01*
G01X-7811999Y-1169868D01*
G01X-7818095Y-1166820D01*
G01X-7867625Y-1093414D02*
G01X-7802601Y-1124402D01*
G01X-7867625Y-1136594D02*
G01X-7867625Y-1093414D01*
G01X-1229589Y-1280383D02*
G01X-1232637Y-1274033D01*
G01X-1238987Y-1267937D01*
G01X-1245083Y-1264889D01*
G01X-1257529Y-1264889D01*
G01X-1263625Y-1267937D01*
G01X-1269975Y-1274033D01*
G01X-1273023Y-1280383D01*
G01X-1276071Y-1289527D01*
G01X-1276071Y-1305021D01*
G01X-1273023Y-1314419D01*
G01X-1269975Y-1320515D01*
G01X-1263625Y-1326865D01*
G01X-1257529Y-1329913D01*
G01X-1245083Y-1329913D01*
G01X-1238987Y-1326865D01*
G01X-1232637Y-1320515D01*
G01X-1229589Y-1314419D01*
G01X-1184123Y-1264889D02*
G01X-1193267Y-1267937D01*
G01X-1196315Y-1274033D01*
G01X-1196315Y-1280383D01*
G01X-1193267Y-1286479D01*
G01X-1187171Y-1289527D01*
G01X-1174725Y-1292575D01*
G01X-1165327Y-1295877D01*
G01X-1159231Y-1301973D01*
G01X-1156183Y-1308069D01*
G01X-1156183Y-1317467D01*
G01X-1159231Y-1323563D01*
G01X-1162279Y-1326865D01*
G01X-1171677Y-1329913D01*
G01X-1184123Y-1329913D01*
G01X-1193267Y-1326865D01*
G01X-1196315Y-1323563D01*
G01X-1199363Y-1317467D01*
G01X-1199363Y-1308069D01*
G01X-1196315Y-1301973D01*
G01X-1190219Y-1295877D01*
G01X-1180821Y-1292575D01*
G01X-1168629Y-1289527D01*
G01X-1162279Y-1286479D01*
G01X-1159231Y-1280383D01*
G01X-1159231Y-1274033D01*
G01X-1162279Y-1267937D01*
G01X-1171677Y-1264889D01*
G01X-1184123Y-1264889D01*
G01X-1204189Y-2321783D02*
G01X-1207237Y-2315433D01*
G01X-1213587Y-2309337D01*
G01X-1219683Y-2306289D01*
G01X-1232129Y-2306289D01*
G01X-1238225Y-2309337D01*
G01X-1244575Y-2315433D01*
G01X-1247623Y-2321783D01*
G01X-1250671Y-2330927D01*
G01X-1250671Y-2346421D01*
G01X-1247623Y-2355819D01*
G01X-1244575Y-2361915D01*
G01X-1238225Y-2368265D01*
G01X-1232129Y-2371313D01*
G01X-1219683Y-2371313D01*
G01X-1213587Y-2368265D01*
G01X-1207237Y-2361915D01*
G01X-1204189Y-2355819D01*
G01X-1133831Y-2327879D02*
G01X-1136879Y-2337277D01*
G01X-1143229Y-2343373D01*
G01X-1152373Y-2346421D01*
G01X-1155421Y-2346421D01*
G01X-1164819Y-2343373D01*
G01X-1170915Y-2337277D01*
G01X-1173963Y-2327879D01*
G01X-1173963Y-2324831D01*
G01X-1170915Y-2315433D01*
G01X-1164819Y-2309337D01*
G01X-1155421Y-2306289D01*
G01X-1152373Y-2306289D01*
G01X-1143229Y-2309337D01*
G01X-1136879Y-2315433D01*
G01X-1133831Y-2327879D01*
G01X-1133831Y-2343373D01*
G01X-1136879Y-2358867D01*
G01X-1143229Y-2368265D01*
G01X-1152373Y-2371313D01*
G01X-1158723Y-2371313D01*
G01X-1167867Y-2368265D01*
G01X-1170915Y-2361915D01*
G01X-1369657Y-4307641D02*
G01X-1434681Y-4307641D01*
G01X-1369657Y-4307641D02*
G01X-1369657Y-4347773D01*
G01X-1400645Y-4307641D02*
G01X-1400645Y-4332533D01*
G01X-1385151Y-4381047D02*
G01X-1382103Y-4381047D01*
G01X-1375753Y-4384095D01*
G01X-1372705Y-4387143D01*
G01X-1369657Y-4393239D01*
G01X-1369657Y-4405685D01*
G01X-1372705Y-4412035D01*
G01X-1375753Y-4415083D01*
G01X-1382103Y-4418131D01*
G01X-1388199Y-4418131D01*
G01X-1394295Y-4415083D01*
G01X-1403693Y-4408733D01*
G01X-1434681Y-4377999D01*
G01X-1434681Y-4421179D01*
G01X-107925Y-1592803D02*
G01X-42901Y-1592803D01*
G01X-107925Y-1592803D02*
G01X-107925Y-1552671D01*
G01X-76937Y-1592803D02*
G01X-76937Y-1567911D01*
G01X-107925Y-1516349D02*
G01X-107925Y-1482313D01*
G01X-83287Y-1500855D01*
G01X-83287Y-1491711D01*
G01X-80239Y-1485361D01*
G01X-76937Y-1482313D01*
G01X-67793Y-1479265D01*
G01X-61443Y-1479265D01*
G01X-52299Y-1482313D01*
G01X-45949Y-1488409D01*
G01X-42901Y-1497807D01*
G01X-42901Y-1507205D01*
G01X-45949Y-1516349D01*
G01X-49251Y-1519397D01*
G01X-55347Y-1522445D01*
G01X82829Y-4477989D02*
G01X82829Y-4543013D01*
G01X82829Y-4477989D02*
G01X122961Y-4477989D01*
G01X82829Y-4508977D02*
G01X107721Y-4508977D01*
G01X183921Y-4477989D02*
G01X153187Y-4521169D01*
G01X199415Y-4521169D01*
G01X183921Y-4477989D02*
G01X183921Y-4543013D01*
G01X-8352257Y-4148043D02*
G01X-8417281Y-4148043D01*
G01X-8417281Y-4148043D02*
G01X-8417281Y-4185127D01*
G01X-8352257Y-4215353D02*
G01X-8417281Y-4215353D01*
G01X-8352257Y-4215353D02*
G01X-8352257Y-4255485D01*
G01X-8383245Y-4215353D02*
G01X-8383245Y-4239991D01*
G01X-8417281Y-4215353D02*
G01X-8417281Y-4255485D01*
G01X-8352257Y-4285711D02*
G01X-8417281Y-4285711D01*
G01X-8352257Y-4285711D02*
G01X-8352257Y-4307301D01*
G01X-8355305Y-4316445D01*
G01X-8361401Y-4322795D01*
G01X-8367751Y-4325843D01*
G01X-8376895Y-4328891D01*
G01X-8392389Y-4328891D01*
G01X-8401787Y-4325843D01*
G01X-8407883Y-4322795D01*
G01X-8414233Y-4316445D01*
G01X-8417281Y-4307301D01*
G01X-8417281Y-4285711D01*
G01X-8352257Y-4396201D02*
G01X-8352257Y-4365213D01*
G01X-8379943Y-4362165D01*
G01X-8376895Y-4365213D01*
G01X-8373847Y-4374357D01*
G01X-8373847Y-4383755D01*
G01X-8376895Y-4393153D01*
G01X-8383245Y-4399249D01*
G01X-8392389Y-4402297D01*
G01X-8398739Y-4402297D01*
G01X-8407883Y-4399249D01*
G01X-8414233Y-4393153D01*
G01X-8417281Y-4383755D01*
G01X-8417281Y-4374357D01*
G01X-8414233Y-4365213D01*
G01X-8410931Y-4362165D01*
G01X-8404835Y-4359117D01*
G01X-3523971Y-5252689D02*
G01X-3523971Y-5317713D01*
G01X-3523971Y-5317713D02*
G01X-3486887Y-5317713D01*
G01X-3456661Y-5252689D02*
G01X-3456661Y-5317713D01*
G01X-3456661Y-5252689D02*
G01X-3416529Y-5252689D01*
G01X-3456661Y-5283677D02*
G01X-3432023Y-5283677D01*
G01X-3456661Y-5317713D02*
G01X-3416529Y-5317713D01*
G01X-3386303Y-5252689D02*
G01X-3386303Y-5317713D01*
G01X-3386303Y-5252689D02*
G01X-3364713Y-5252689D01*
G01X-3355569Y-5255737D01*
G01X-3349219Y-5261833D01*
G01X-3346171Y-5268183D01*
G01X-3343123Y-5277327D01*
G01X-3343123Y-5292821D01*
G01X-3346171Y-5302219D01*
G01X-3349219Y-5308315D01*
G01X-3355569Y-5314665D01*
G01X-3364713Y-5317713D01*
G01X-3386303Y-5317713D01*
G01X-3275813Y-5261833D02*
G01X-3278861Y-5255737D01*
G01X-3288259Y-5252689D01*
G01X-3294355Y-5252689D01*
G01X-3303753Y-5255737D01*
G01X-3309849Y-5265135D01*
G01X-3312897Y-5280375D01*
G01X-3312897Y-5295869D01*
G01X-3309849Y-5308315D01*
G01X-3303753Y-5314665D01*
G01X-3294355Y-5317713D01*
G01X-3291307Y-5317713D01*
G01X-3282163Y-5314665D01*
G01X-3275813Y-5308315D01*
G01X-3272765Y-5299171D01*
G01X-3272765Y-5295869D01*
G01X-3275813Y-5286725D01*
G01X-3282163Y-5280375D01*
G01X-3291307Y-5277327D01*
G01X-3294355Y-5277327D01*
G01X-3303753Y-5280375D01*
G01X-3309849Y-5286725D01*
G01X-3312897Y-5295869D01*
G01X1276629Y1706911D02*
G01X1276629Y1641887D01*
G01X1276629Y1706911D02*
G01X1304569Y1706911D01*
G01X1313713Y1703863D01*
G01X1316761Y1700815D01*
G01X1320063Y1694465D01*
G01X1320063Y1685321D01*
G01X1316761Y1679225D01*
G01X1313713Y1675923D01*
G01X1304569Y1672875D01*
G01X1276629Y1672875D01*
G01X1390421Y1685321D02*
G01X1387373Y1675923D01*
G01X1381023Y1669827D01*
G01X1371879Y1666779D01*
G01X1368831Y1666779D01*
G01X1359433Y1669827D01*
G01X1353337Y1675923D01*
G01X1350289Y1685321D01*
G01X1350289Y1688369D01*
G01X1353337Y1697767D01*
G01X1359433Y1703863D01*
G01X1368831Y1706911D01*
G01X1371879Y1706911D01*
G01X1381023Y1703863D01*
G01X1387373Y1697767D01*
G01X1390421Y1685321D01*
G01X1390421Y1669827D01*
G01X1387373Y1654333D01*
G01X1381023Y1644935D01*
G01X1371879Y1641887D01*
G01X1365529Y1641887D01*
G01X1356385Y1644935D01*
G01X1353337Y1651285D01*
G01X1226820Y449834D02*
G01X1226820Y384810D01*
G01X1226820Y449834D02*
G01X1254760Y449834D01*
G01X1263904Y446786D01*
G01X1266952Y443738D01*
G01X1270254Y437388D01*
G01X1270254Y428244D01*
G01X1266952Y422148D01*
G01X1263904Y418846D01*
G01X1254760Y415798D01*
G01X1226820Y415798D01*
G01X1300480Y437388D02*
G01X1306576Y440690D01*
G01X1315720Y449834D01*
G01X1315720Y384810D01*
G01X1364488Y449834D02*
G01X1355090Y446786D01*
G01X1348994Y437388D01*
G01X1345946Y422148D01*
G01X1345946Y412750D01*
G01X1348994Y397256D01*
G01X1355090Y387858D01*
G01X1364488Y384810D01*
G01X1370584Y384810D01*
G01X1379982Y387858D01*
G01X1386078Y397256D01*
G01X1389126Y412750D01*
G01X1389126Y422148D01*
G01X1386078Y437388D01*
G01X1379982Y446786D01*
G01X1370584Y449834D01*
G01X1364488Y449834D01*
G01X-7740371Y-3423889D02*
G01X-7740371Y-3488913D01*
G01X-7740371Y-3423889D02*
G01X-7712431Y-3423889D01*
G01X-7703287Y-3426937D01*
G01X-7700239Y-3429985D01*
G01X-7696937Y-3436335D01*
G01X-7696937Y-3442431D01*
G01X-7700239Y-3448527D01*
G01X-7703287Y-3451575D01*
G01X-7712431Y-3454877D01*
G01X-7740371Y-3454877D01*
G01X-7718781Y-3454877D02*
G01X-7696937Y-3488913D01*
G01X-7666711Y-3436335D02*
G01X-7660615Y-3433033D01*
G01X-7651471Y-3423889D01*
G01X-7651471Y-3488913D01*
G01X-7590511Y-3423889D02*
G01X-7621245Y-3467069D01*
G01X-7575017Y-3467069D01*
G01X-7590511Y-3423889D02*
G01X-7590511Y-3488913D01*
G01X-8629371Y-1709389D02*
G01X-8629371Y-1774413D01*
G01X-8629371Y-1709389D02*
G01X-8601431Y-1709389D01*
G01X-8592287Y-1712437D01*
G01X-8589239Y-1715485D01*
G01X-8585937Y-1721835D01*
G01X-8585937Y-1727931D01*
G01X-8589239Y-1734027D01*
G01X-8592287Y-1737075D01*
G01X-8601431Y-1740377D01*
G01X-8629371Y-1740377D01*
G01X-8607781Y-1740377D02*
G01X-8585937Y-1774413D01*
G01X-8555711Y-1721835D02*
G01X-8549615Y-1718533D01*
G01X-8540471Y-1709389D01*
G01X-8540471Y-1774413D01*
G01X-8473161Y-1709389D02*
G01X-8504149Y-1709389D01*
G01X-8507197Y-1737075D01*
G01X-8504149Y-1734027D01*
G01X-8495005Y-1730979D01*
G01X-8485607Y-1730979D01*
G01X-8476209Y-1734027D01*
G01X-8470113Y-1740377D01*
G01X-8467065Y-1749521D01*
G01X-8467065Y-1755871D01*
G01X-8470113Y-1765015D01*
G01X-8476209Y-1771365D01*
G01X-8485607Y-1774413D01*
G01X-8495005Y-1774413D01*
G01X-8504149Y-1771365D01*
G01X-8507197Y-1768063D01*
G01X-8510245Y-1761967D01*
G01X-3881857Y-3728943D02*
G01X-3946881Y-3728943D01*
G01X-3881857Y-3728943D02*
G01X-3881857Y-3756883D01*
G01X-3884905Y-3766027D01*
G01X-3887953Y-3769075D01*
G01X-3894303Y-3772377D01*
G01X-3900399Y-3772377D01*
G01X-3906495Y-3769075D01*
G01X-3909543Y-3766027D01*
G01X-3912845Y-3756883D01*
G01X-3912845Y-3728943D01*
G01X-3912845Y-3750533D02*
G01X-3946881Y-3772377D01*
G01X-3894303Y-3802603D02*
G01X-3891001Y-3808699D01*
G01X-3881857Y-3817843D01*
G01X-3946881Y-3817843D01*
G01X-3891001Y-3885153D02*
G01X-3884905Y-3882105D01*
G01X-3881857Y-3872707D01*
G01X-3881857Y-3866611D01*
G01X-3884905Y-3857213D01*
G01X-3894303Y-3851117D01*
G01X-3909543Y-3848069D01*
G01X-3925037Y-3848069D01*
G01X-3937483Y-3851117D01*
G01X-3943833Y-3857213D01*
G01X-3946881Y-3866611D01*
G01X-3946881Y-3869659D01*
G01X-3943833Y-3878803D01*
G01X-3937483Y-3885153D01*
G01X-3928339Y-3888201D01*
G01X-3925037Y-3888201D01*
G01X-3915893Y-3885153D01*
G01X-3909543Y-3878803D01*
G01X-3906495Y-3869659D01*
G01X-3906495Y-3866611D01*
G01X-3909543Y-3857213D01*
G01X-3915893Y-3851117D01*
G01X-3925037Y-3848069D01*
G01X-5619725Y-5872703D02*
G01X-5554701Y-5872703D01*
G01X-5619725Y-5872703D02*
G01X-5619725Y-5844763D01*
G01X-5616677Y-5835619D01*
G01X-5613629Y-5832571D01*
G01X-5607279Y-5829269D01*
G01X-5601183Y-5829269D01*
G01X-5595087Y-5832571D01*
G01X-5592039Y-5835619D01*
G01X-5588737Y-5844763D01*
G01X-5588737Y-5872703D01*
G01X-5588737Y-5851113D02*
G01X-5554701Y-5829269D01*
G01X-5607279Y-5799043D02*
G01X-5610581Y-5792947D01*
G01X-5619725Y-5783803D01*
G01X-5554701Y-5783803D01*
G01X-5619725Y-5710397D02*
G01X-5554701Y-5741385D01*
G01X-5619725Y-5753577D02*
G01X-5619725Y-5710397D01*
G01X-6547526Y-1768695D02*
G01X-6482502Y-1768695D01*
G01X-6547526Y-1768695D02*
G01X-6547526Y-1740755D01*
G01X-6544478Y-1731611D01*
G01X-6541430Y-1728563D01*
G01X-6535080Y-1725261D01*
G01X-6528984Y-1725261D01*
G01X-6522888Y-1728563D01*
G01X-6519840Y-1731611D01*
G01X-6516538Y-1740755D01*
G01X-6516538Y-1768695D01*
G01X-6516538Y-1747105D02*
G01X-6482502Y-1725261D01*
G01X-6535080Y-1695035D02*
G01X-6538382Y-1688939D01*
G01X-6547526Y-1679795D01*
G01X-6482502Y-1679795D01*
G01X-6547526Y-1634329D02*
G01X-6544478Y-1643473D01*
G01X-6538382Y-1646521D01*
G01X-6532032Y-1646521D01*
G01X-6525936Y-1643473D01*
G01X-6522888Y-1637377D01*
G01X-6519840Y-1624931D01*
G01X-6516538Y-1615533D01*
G01X-6510442Y-1609437D01*
G01X-6504346Y-1606389D01*
G01X-6494948Y-1606389D01*
G01X-6488852Y-1609437D01*
G01X-6485550Y-1612485D01*
G01X-6482502Y-1621883D01*
G01X-6482502Y-1634329D01*
G01X-6485550Y-1643473D01*
G01X-6488852Y-1646521D01*
G01X-6494948Y-1649569D01*
G01X-6504346Y-1649569D01*
G01X-6510442Y-1646521D01*
G01X-6516538Y-1640425D01*
G01X-6519840Y-1631027D01*
G01X-6522888Y-1618835D01*
G01X-6525936Y-1612485D01*
G01X-6532032Y-1609437D01*
G01X-6538382Y-1609437D01*
G01X-6544478Y-1612485D01*
G01X-6547526Y-1621883D01*
G01X-6547526Y-1634329D01*
G01X2330475Y1429797D02*
G01X2395499Y1429797D01*
G01X2330475Y1429797D02*
G01X2330475Y1457737D01*
G01X2333523Y1466881D01*
G01X2336571Y1469929D01*
G01X2342921Y1473231D01*
G01X2349017Y1473231D01*
G01X2355113Y1469929D01*
G01X2358161Y1466881D01*
G01X2361463Y1457737D01*
G01X2361463Y1429797D01*
G01X2361463Y1451387D02*
G01X2395499Y1473231D01*
G01X2342921Y1503457D02*
G01X2339619Y1509553D01*
G01X2330475Y1518697D01*
G01X2395499Y1518697D01*
G01X2352065Y1589055D02*
G01X2361463Y1586007D01*
G01X2367559Y1579657D01*
G01X2370607Y1570513D01*
G01X2370607Y1567465D01*
G01X2367559Y1558067D01*
G01X2361463Y1551971D01*
G01X2352065Y1548923D01*
G01X2349017Y1548923D01*
G01X2339619Y1551971D01*
G01X2333523Y1558067D01*
G01X2330475Y1567465D01*
G01X2330475Y1570513D01*
G01X2333523Y1579657D01*
G01X2339619Y1586007D01*
G01X2352065Y1589055D01*
G01X2367559Y1589055D01*
G01X2383053Y1586007D01*
G01X2392451Y1579657D01*
G01X2395499Y1570513D01*
G01X2395499Y1564163D01*
G01X2392451Y1555019D01*
G01X2386101Y1551971D01*
G01X1357427Y-5028535D02*
G01X1403909Y-5028535D01*
G01X1413053Y-5025487D01*
G01X1419403Y-5019137D01*
G01X1422451Y-5009993D01*
G01X1422451Y-5003643D01*
G01X1419403Y-4994499D01*
G01X1413053Y-4988403D01*
G01X1403909Y-4985101D01*
G01X1357427Y-4985101D01*
G01X1379017Y-4914743D02*
G01X1388415Y-4917791D01*
G01X1394511Y-4924141D01*
G01X1397559Y-4933285D01*
G01X1397559Y-4936333D01*
G01X1394511Y-4945731D01*
G01X1388415Y-4951827D01*
G01X1379017Y-4954875D01*
G01X1375969Y-4954875D01*
G01X1366571Y-4951827D01*
G01X1360475Y-4945731D01*
G01X1357427Y-4936333D01*
G01X1357427Y-4933285D01*
G01X1360475Y-4924141D01*
G01X1366571Y-4917791D01*
G01X1379017Y-4914743D01*
G01X1394511Y-4914743D01*
G01X1410005Y-4917791D01*
G01X1419403Y-4924141D01*
G01X1422451Y-4933285D01*
G01X1422451Y-4939635D01*
G01X1419403Y-4948779D01*
G01X1413053Y-4951827D01*
G01X-7575271Y-2814289D02*
G01X-7575271Y-2860771D01*
G01X-7572223Y-2869915D01*
G01X-7565873Y-2876265D01*
G01X-7556729Y-2879313D01*
G01X-7550379Y-2879313D01*
G01X-7541235Y-2876265D01*
G01X-7535139Y-2869915D01*
G01X-7531837Y-2860771D01*
G01X-7531837Y-2814289D01*
G01X-7501611Y-2826735D02*
G01X-7495515Y-2823433D01*
G01X-7486371Y-2814289D01*
G01X-7486371Y-2879313D01*
G01X-7437603Y-2814289D02*
G01X-7447001Y-2817337D01*
G01X-7453097Y-2826735D01*
G01X-7456145Y-2841975D01*
G01X-7456145Y-2851373D01*
G01X-7453097Y-2866867D01*
G01X-7447001Y-2876265D01*
G01X-7437603Y-2879313D01*
G01X-7431507Y-2879313D01*
G01X-7422109Y-2876265D01*
G01X-7416013Y-2866867D01*
G01X-7412965Y-2851373D01*
G01X-7412965Y-2841975D01*
G01X-7416013Y-2826735D01*
G01X-7422109Y-2817337D01*
G01X-7431507Y-2814289D01*
G01X-7437603Y-2814289D01*
G01X-4616425Y-5453603D02*
G01X-4569943Y-5453603D01*
G01X-4560799Y-5450555D01*
G01X-4554449Y-5444205D01*
G01X-4551401Y-5435061D01*
G01X-4551401Y-5428711D01*
G01X-4554449Y-5419567D01*
G01X-4560799Y-5413471D01*
G01X-4569943Y-5410169D01*
G01X-4616425Y-5410169D01*
G01X-4603979Y-5379943D02*
G01X-4607281Y-5373847D01*
G01X-4616425Y-5364703D01*
G01X-4551401Y-5364703D01*
G01X-4603979Y-5334477D02*
G01X-4607281Y-5328381D01*
G01X-4616425Y-5319237D01*
G01X-4551401Y-5319237D01*
G01X-1231077Y-4726083D02*
G01X-1237427Y-4719987D01*
G01X-1246571Y-4716939D01*
G01X-1259017Y-4716939D01*
G01X-1268415Y-4719987D01*
G01X-1274511Y-4726083D01*
G01X-1274511Y-4732433D01*
G01X-1271463Y-4738529D01*
G01X-1268415Y-4741577D01*
G01X-1262065Y-4744625D01*
G01X-1243523Y-4750975D01*
G01X-1237427Y-4754023D01*
G01X-1234379Y-4757071D01*
G01X-1231077Y-4763421D01*
G01X-1231077Y-4772565D01*
G01X-1237427Y-4778915D01*
G01X-1246571Y-4781963D01*
G01X-1259017Y-4781963D01*
G01X-1268415Y-4778915D01*
G01X-1274511Y-4772565D01*
G01X-1200851Y-4716939D02*
G01X-1185611Y-4781963D01*
G01X-1170117Y-4716939D02*
G01X-1185611Y-4781963D01*
G01X-1170117Y-4716939D02*
G01X-1154623Y-4781963D01*
G01X-1139129Y-4716939D02*
G01X-1154623Y-4781963D01*
G01X-1065723Y-4716939D02*
G01X-1096711Y-4781963D01*
G01X-1108903Y-4716939D02*
G01X-1065723Y-4716939D01*
G01X2417343Y-1303243D02*
G01X2352319Y-1303243D01*
G01X2417343Y-1303243D02*
G01X2417343Y-1331183D01*
G01X2414295Y-1340327D01*
G01X2411247Y-1343375D01*
G01X2404897Y-1346677D01*
G01X2398801Y-1346677D01*
G01X2392705Y-1343375D01*
G01X2389657Y-1340327D01*
G01X2386355Y-1331183D01*
G01X2386355Y-1303243D01*
G01X2386355Y-1324833D02*
G01X2352319Y-1346677D01*
G01X2404897Y-1376903D02*
G01X2408199Y-1382999D01*
G01X2417343Y-1392143D01*
G01X2352319Y-1392143D01*
G01X2417343Y-1428465D02*
G01X2417343Y-1462501D01*
G01X2392705Y-1443959D01*
G01X2392705Y-1453103D01*
G01X2389657Y-1459453D01*
G01X2386355Y-1462501D01*
G01X2377211Y-1465549D01*
G01X2370861Y-1465549D01*
G01X2361717Y-1462501D01*
G01X2355367Y-1456405D01*
G01X2352319Y-1447007D01*
G01X2352319Y-1437609D01*
G01X2355367Y-1428465D01*
G01X2358669Y-1425417D01*
G01X2364765Y-1422369D01*
G01X-7544029Y-4706589D02*
G01X-7550125Y-4709637D01*
G01X-7556475Y-4715733D01*
G01X-7559523Y-4722083D01*
G01X-7562571Y-4731227D01*
G01X-7562571Y-4746721D01*
G01X-7559523Y-4756119D01*
G01X-7556475Y-4762215D01*
G01X-7550125Y-4768565D01*
G01X-7544029Y-4771613D01*
G01X-7531583Y-4771613D01*
G01X-7525487Y-4768565D01*
G01X-7519137Y-4762215D01*
G01X-7516089Y-4756119D01*
G01X-7513041Y-4746721D01*
G01X-7513041Y-4731227D01*
G01X-7516089Y-4722083D01*
G01X-7519137Y-4715733D01*
G01X-7525487Y-4709637D01*
G01X-7531583Y-4706589D01*
G01X-7544029Y-4706589D01*
G01X-7534631Y-4759167D02*
G01X-7516089Y-4777709D01*
G01X-7445731Y-4706589D02*
G01X-7476719Y-4706589D01*
G01X-7479767Y-4734275D01*
G01X-7476719Y-4731227D01*
G01X-7467575Y-4728179D01*
G01X-7458177Y-4728179D01*
G01X-7448779Y-4731227D01*
G01X-7442683Y-4737577D01*
G01X-7439635Y-4746721D01*
G01X-7439635Y-4753071D01*
G01X-7442683Y-4762215D01*
G01X-7448779Y-4768565D01*
G01X-7458177Y-4771613D01*
G01X-7467575Y-4771613D01*
G01X-7476719Y-4768565D01*
G01X-7479767Y-4765263D01*
G01X-7482815Y-4759167D01*
G01X-2475443Y-5104891D02*
G01X-2481539Y-5107939D01*
G01X-2487889Y-5114035D01*
G01X-2490937Y-5120385D01*
G01X-2493985Y-5129529D01*
G01X-2493985Y-5145023D01*
G01X-2490937Y-5154421D01*
G01X-2487889Y-5160517D01*
G01X-2481539Y-5166867D01*
G01X-2475443Y-5169915D01*
G01X-2462997Y-5169915D01*
G01X-2456901Y-5166867D01*
G01X-2450551Y-5160517D01*
G01X-2447503Y-5154421D01*
G01X-2444455Y-5145023D01*
G01X-2444455Y-5129529D01*
G01X-2447503Y-5120385D01*
G01X-2450551Y-5114035D01*
G01X-2456901Y-5107939D01*
G01X-2462997Y-5104891D01*
G01X-2475443Y-5104891D01*
G01X-2466045Y-5157469D02*
G01X-2447503Y-5176011D01*
G01X-2377145Y-5114035D02*
G01X-2380193Y-5107939D01*
G01X-2389591Y-5104891D01*
G01X-2395687Y-5104891D01*
G01X-2405085Y-5107939D01*
G01X-2411181Y-5117337D01*
G01X-2414229Y-5132577D01*
G01X-2414229Y-5148071D01*
G01X-2411181Y-5160517D01*
G01X-2405085Y-5166867D01*
G01X-2395687Y-5169915D01*
G01X-2392639Y-5169915D01*
G01X-2383495Y-5166867D01*
G01X-2377145Y-5160517D01*
G01X-2374097Y-5151373D01*
G01X-2374097Y-5148071D01*
G01X-2377145Y-5138927D01*
G01X-2383495Y-5132577D01*
G01X-2392639Y-5129529D01*
G01X-2395687Y-5129529D01*
G01X-2405085Y-5132577D01*
G01X-2411181Y-5138927D01*
G01X-2414229Y-5148071D01*
G01X-8010398Y1729740D02*
G01X-8013446Y1736090D01*
G01X-8019796Y1742186D01*
G01X-8025892Y1745234D01*
G01X-8038338Y1745234D01*
G01X-8044434Y1742186D01*
G01X-8050784Y1736090D01*
G01X-8053832Y1729740D01*
G01X-8056880Y1720596D01*
G01X-8056880Y1705102D01*
G01X-8053832Y1695704D01*
G01X-8050784Y1689608D01*
G01X-8044434Y1683258D01*
G01X-8038338Y1680210D01*
G01X-8025892Y1680210D01*
G01X-8019796Y1683258D01*
G01X-8013446Y1689608D01*
G01X-8010398Y1695704D01*
G01X-7980172Y1732788D02*
G01X-7974076Y1736090D01*
G01X-7964932Y1745234D01*
G01X-7964932Y1680210D01*
G01X-7916164Y1745234D02*
G01X-7925562Y1742186D01*
G01X-7931658Y1732788D01*
G01X-7934706Y1717548D01*
G01X-7934706Y1708150D01*
G01X-7931658Y1692656D01*
G01X-7925562Y1683258D01*
G01X-7916164Y1680210D01*
G01X-7910068Y1680210D01*
G01X-7900670Y1683258D01*
G01X-7894574Y1692656D01*
G01X-7891526Y1708150D01*
G01X-7891526Y1717548D01*
G01X-7894574Y1732788D01*
G01X-7900670Y1742186D01*
G01X-7910068Y1745234D01*
G01X-7916164Y1745234D01*
G01X-6652260Y1698498D02*
G01X-6645910Y1701546D01*
G01X-6639814Y1707896D01*
G01X-6636766Y1713992D01*
G01X-6636766Y1726438D01*
G01X-6639814Y1732534D01*
G01X-6645910Y1738884D01*
G01X-6652260Y1741932D01*
G01X-6661404Y1744980D01*
G01X-6676898Y1744980D01*
G01X-6686296Y1741932D01*
G01X-6692392Y1738884D01*
G01X-6698742Y1732534D01*
G01X-6701790Y1726438D01*
G01X-6701790Y1713992D01*
G01X-6698742Y1707896D01*
G01X-6692392Y1701546D01*
G01X-6686296Y1698498D01*
G01X-6649212Y1668272D02*
G01X-6645910Y1662176D01*
G01X-6636766Y1653032D01*
G01X-6701790Y1653032D01*
G01X-6649212Y1622806D02*
G01X-6645910Y1616710D01*
G01X-6636766Y1607566D01*
G01X-6701790Y1607566D01*
G01X-6118860Y1685798D02*
G01X-6112510Y1688846D01*
G01X-6106414Y1695196D01*
G01X-6103366Y1701292D01*
G01X-6103366Y1713738D01*
G01X-6106414Y1719834D01*
G01X-6112510Y1726184D01*
G01X-6118860Y1729232D01*
G01X-6128004Y1732280D01*
G01X-6143498Y1732280D01*
G01X-6152896Y1729232D01*
G01X-6158992Y1726184D01*
G01X-6165342Y1719834D01*
G01X-6168390Y1713738D01*
G01X-6168390Y1701292D01*
G01X-6165342Y1695196D01*
G01X-6158992Y1688846D01*
G01X-6152896Y1685798D01*
G01X-6115812Y1655572D02*
G01X-6112510Y1649476D01*
G01X-6103366Y1640332D01*
G01X-6168390Y1640332D01*
G01X-6118860Y1607058D02*
G01X-6115812Y1607058D01*
G01X-6109462Y1604010D01*
G01X-6106414Y1600962D01*
G01X-6103366Y1594866D01*
G01X-6103366Y1582420D01*
G01X-6106414Y1576070D01*
G01X-6109462Y1573022D01*
G01X-6115812Y1569974D01*
G01X-6121908Y1569974D01*
G01X-6128004Y1573022D01*
G01X-6137402Y1579372D01*
G01X-6168390Y1610106D01*
G01X-6168390Y1566926D01*
G01X-5608660Y1568997D02*
G01X-5602310Y1572045D01*
G01X-5596214Y1578395D01*
G01X-5593166Y1584491D01*
G01X-5593166Y1596937D01*
G01X-5596214Y1603033D01*
G01X-5602310Y1609383D01*
G01X-5608660Y1612431D01*
G01X-5617804Y1615479D01*
G01X-5633298Y1615479D01*
G01X-5642696Y1612431D01*
G01X-5648792Y1609383D01*
G01X-5655142Y1603033D01*
G01X-5658190Y1596937D01*
G01X-5658190Y1584491D01*
G01X-5655142Y1578395D01*
G01X-5648792Y1572045D01*
G01X-5642696Y1568997D01*
G01X-5605612Y1538771D02*
G01X-5602310Y1532675D01*
G01X-5593166Y1523531D01*
G01X-5658190Y1523531D01*
G01X-5593166Y1487209D02*
G01X-5593166Y1453173D01*
G01X-5617804Y1471715D01*
G01X-5617804Y1462571D01*
G01X-5620852Y1456221D01*
G01X-5624154Y1453173D01*
G01X-5633298Y1450125D01*
G01X-5639648Y1450125D01*
G01X-5648792Y1453173D01*
G01X-5655142Y1459269D01*
G01X-5658190Y1468667D01*
G01X-5658190Y1478065D01*
G01X-5655142Y1487209D01*
G01X-5651840Y1490257D01*
G01X-5645744Y1493305D01*
G01X-5322971Y2811811D02*
G01X-5322971Y2746787D01*
G01X-5279537Y2811811D02*
G01X-5279537Y2746787D01*
G01X-5322971Y2780823D02*
G01X-5279537Y2780823D01*
G01X-5249311Y2799365D02*
G01X-5243215Y2802667D01*
G01X-5234071Y2811811D01*
G01X-5234071Y2746787D01*
G01X-5166761Y2802667D02*
G01X-5169809Y2808763D01*
G01X-5179207Y2811811D01*
G01X-5185303Y2811811D01*
G01X-5194701Y2808763D01*
G01X-5200797Y2799365D01*
G01X-5203845Y2784125D01*
G01X-5203845Y2768631D01*
G01X-5200797Y2756185D01*
G01X-5194701Y2749835D01*
G01X-5185303Y2746787D01*
G01X-5182255Y2746787D01*
G01X-5173111Y2749835D01*
G01X-5166761Y2756185D01*
G01X-5163713Y2765329D01*
G01X-5163713Y2768631D01*
G01X-5166761Y2777775D01*
G01X-5173111Y2784125D01*
G01X-5182255Y2787173D01*
G01X-5185303Y2787173D01*
G01X-5194701Y2784125D01*
G01X-5200797Y2777775D01*
G01X-5203845Y2768631D01*
G01X-8014335Y1751714D02*
G01X-7949311Y1751714D01*
G01X-8014335Y1751714D02*
G01X-8014335Y1779654D01*
G01X-8011287Y1788798D01*
G01X-8008239Y1791846D01*
G01X-8001889Y1795148D01*
G01X-7995793Y1795148D01*
G01X-7989697Y1791846D01*
G01X-7986649Y1788798D01*
G01X-7983347Y1779654D01*
G01X-7983347Y1751714D01*
G01X-7983347Y1773304D02*
G01X-7949311Y1795148D01*
G01X-7998841Y1828422D02*
G01X-8001889Y1828422D01*
G01X-8008239Y1831470D01*
G01X-8011287Y1834518D01*
G01X-8014335Y1840614D01*
G01X-8014335Y1853060D01*
G01X-8011287Y1859410D01*
G01X-8008239Y1862458D01*
G01X-8001889Y1865506D01*
G01X-7995793Y1865506D01*
G01X-7989697Y1862458D01*
G01X-7980299Y1856108D01*
G01X-7949311Y1825374D01*
G01X-7949311Y1868554D01*
G01X-8014335Y1914020D02*
G01X-8011287Y1904876D01*
G01X-8005191Y1901828D01*
G01X-7998841Y1901828D01*
G01X-7992745Y1904876D01*
G01X-7989697Y1910972D01*
G01X-7986649Y1923418D01*
G01X-7983347Y1932816D01*
G01X-7977251Y1938912D01*
G01X-7971155Y1941960D01*
G01X-7961757Y1941960D01*
G01X-7955661Y1938912D01*
G01X-7952359Y1935864D01*
G01X-7949311Y1926466D01*
G01X-7949311Y1914020D01*
G01X-7952359Y1904876D01*
G01X-7955661Y1901828D01*
G01X-7961757Y1898780D01*
G01X-7971155Y1898780D01*
G01X-7977251Y1901828D01*
G01X-7983347Y1907924D01*
G01X-7986649Y1917322D01*
G01X-7989697Y1929514D01*
G01X-7992745Y1935864D01*
G01X-7998841Y1938912D01*
G01X-8005191Y1938912D01*
G01X-8011287Y1935864D01*
G01X-8014335Y1926466D01*
G01X-8014335Y1914020D01*
G01X-7595235Y1751714D02*
G01X-7530211Y1751714D01*
G01X-7595235Y1751714D02*
G01X-7595235Y1779654D01*
G01X-7592187Y1788798D01*
G01X-7589139Y1791846D01*
G01X-7582789Y1795148D01*
G01X-7576693Y1795148D01*
G01X-7570597Y1791846D01*
G01X-7567549Y1788798D01*
G01X-7564247Y1779654D01*
G01X-7564247Y1751714D01*
G01X-7564247Y1773304D02*
G01X-7530211Y1795148D01*
G01X-7579741Y1828422D02*
G01X-7582789Y1828422D01*
G01X-7589139Y1831470D01*
G01X-7592187Y1834518D01*
G01X-7595235Y1840614D01*
G01X-7595235Y1853060D01*
G01X-7592187Y1859410D01*
G01X-7589139Y1862458D01*
G01X-7582789Y1865506D01*
G01X-7576693Y1865506D01*
G01X-7570597Y1862458D01*
G01X-7561199Y1856108D01*
G01X-7530211Y1825374D01*
G01X-7530211Y1868554D01*
G01X-7573645Y1938912D02*
G01X-7564247Y1935864D01*
G01X-7558151Y1929514D01*
G01X-7555103Y1920370D01*
G01X-7555103Y1917322D01*
G01X-7558151Y1907924D01*
G01X-7564247Y1901828D01*
G01X-7573645Y1898780D01*
G01X-7576693Y1898780D01*
G01X-7586091Y1901828D01*
G01X-7592187Y1907924D01*
G01X-7595235Y1917322D01*
G01X-7595235Y1920370D01*
G01X-7592187Y1929514D01*
G01X-7586091Y1935864D01*
G01X-7573645Y1938912D01*
G01X-7558151Y1938912D01*
G01X-7542657Y1935864D01*
G01X-7533259Y1929514D01*
G01X-7530211Y1920370D01*
G01X-7530211Y1914020D01*
G01X-7533259Y1904876D01*
G01X-7539609Y1901828D01*
G01X-7150735Y1815214D02*
G01X-7085711Y1815214D01*
G01X-7150735Y1815214D02*
G01X-7150735Y1843154D01*
G01X-7147687Y1852298D01*
G01X-7144639Y1855346D01*
G01X-7138289Y1858648D01*
G01X-7132193Y1858648D01*
G01X-7126097Y1855346D01*
G01X-7123049Y1852298D01*
G01X-7119747Y1843154D01*
G01X-7119747Y1815214D01*
G01X-7119747Y1836804D02*
G01X-7085711Y1858648D01*
G01X-7150735Y1894970D02*
G01X-7150735Y1929006D01*
G01X-7126097Y1910464D01*
G01X-7126097Y1919608D01*
G01X-7123049Y1925958D01*
G01X-7119747Y1929006D01*
G01X-7110603Y1932054D01*
G01X-7104253Y1932054D01*
G01X-7095109Y1929006D01*
G01X-7088759Y1922910D01*
G01X-7085711Y1913512D01*
G01X-7085711Y1904114D01*
G01X-7088759Y1894970D01*
G01X-7092061Y1891922D01*
G01X-7098157Y1888874D01*
G01X-7150735Y1980822D02*
G01X-7147687Y1971424D01*
G01X-7138289Y1965328D01*
G01X-7123049Y1962280D01*
G01X-7113651Y1962280D01*
G01X-7098157Y1965328D01*
G01X-7088759Y1971424D01*
G01X-7085711Y1980822D01*
G01X-7085711Y1986918D01*
G01X-7088759Y1996316D01*
G01X-7098157Y2002412D01*
G01X-7113651Y2005460D01*
G01X-7123049Y2005460D01*
G01X-7138289Y2002412D01*
G01X-7147687Y1996316D01*
G01X-7150735Y1986918D01*
G01X-7150735Y1980822D01*
G01X-6757035Y1815214D02*
G01X-6692011Y1815214D01*
G01X-6757035Y1815214D02*
G01X-6757035Y1843154D01*
G01X-6753987Y1852298D01*
G01X-6750939Y1855346D01*
G01X-6744589Y1858648D01*
G01X-6738493Y1858648D01*
G01X-6732397Y1855346D01*
G01X-6729349Y1852298D01*
G01X-6726047Y1843154D01*
G01X-6726047Y1815214D01*
G01X-6726047Y1836804D02*
G01X-6692011Y1858648D01*
G01X-6757035Y1894970D02*
G01X-6757035Y1929006D01*
G01X-6732397Y1910464D01*
G01X-6732397Y1919608D01*
G01X-6729349Y1925958D01*
G01X-6726047Y1929006D01*
G01X-6716903Y1932054D01*
G01X-6710553Y1932054D01*
G01X-6701409Y1929006D01*
G01X-6695059Y1922910D01*
G01X-6692011Y1913512D01*
G01X-6692011Y1904114D01*
G01X-6695059Y1894970D01*
G01X-6698361Y1891922D01*
G01X-6704457Y1888874D01*
G01X-6744589Y1962280D02*
G01X-6747891Y1968376D01*
G01X-6757035Y1977520D01*
G01X-6692011Y1977520D01*
G01X-7680165Y547853D02*
G01X-7726647Y547853D01*
G01X-7735791Y544805D01*
G01X-7742141Y538455D01*
G01X-7745189Y529311D01*
G01X-7745189Y522961D01*
G01X-7742141Y513817D01*
G01X-7735791Y507721D01*
G01X-7726647Y504419D01*
G01X-7680165Y504419D01*
G01X-7692611Y474193D02*
G01X-7689309Y468097D01*
G01X-7680165Y458953D01*
G01X-7745189Y458953D01*
G01X-7695659Y425679D02*
G01X-7692611Y425679D01*
G01X-7686261Y422631D01*
G01X-7683213Y419583D01*
G01X-7680165Y413487D01*
G01X-7680165Y401041D01*
G01X-7683213Y394691D01*
G01X-7686261Y391643D01*
G01X-7692611Y388595D01*
G01X-7698707Y388595D01*
G01X-7704803Y391643D01*
G01X-7714201Y397993D01*
G01X-7745189Y428727D01*
G01X-7745189Y385547D01*
G01X-6549865Y-49047D02*
G01X-6596347Y-49047D01*
G01X-6605491Y-52095D01*
G01X-6611841Y-58445D01*
G01X-6614889Y-67589D01*
G01X-6614889Y-73939D01*
G01X-6611841Y-83083D01*
G01X-6605491Y-89179D01*
G01X-6596347Y-92481D01*
G01X-6549865Y-92481D01*
G01X-6562311Y-122707D02*
G01X-6559009Y-128803D01*
G01X-6549865Y-137947D01*
G01X-6614889Y-137947D01*
G01X-6549865Y-174269D02*
G01X-6549865Y-208305D01*
G01X-6574503Y-189763D01*
G01X-6574503Y-198907D01*
G01X-6577551Y-205257D01*
G01X-6580853Y-208305D01*
G01X-6589997Y-211353D01*
G01X-6596347Y-211353D01*
G01X-6605491Y-208305D01*
G01X-6611841Y-202209D01*
G01X-6614889Y-192811D01*
G01X-6614889Y-183413D01*
G01X-6611841Y-174269D01*
G01X-6608539Y-171221D01*
G01X-6602443Y-168173D01*
G01X-5571965Y878053D02*
G01X-5618447Y878053D01*
G01X-5627591Y875005D01*
G01X-5633941Y868655D01*
G01X-5636989Y859511D01*
G01X-5636989Y853161D01*
G01X-5633941Y844017D01*
G01X-5627591Y837921D01*
G01X-5618447Y834619D01*
G01X-5571965Y834619D01*
G01X-5584411Y804393D02*
G01X-5581109Y798297D01*
G01X-5571965Y789153D01*
G01X-5636989Y789153D01*
G01X-5571965Y721843D02*
G01X-5571965Y752831D01*
G01X-5599651Y755879D01*
G01X-5596603Y752831D01*
G01X-5593555Y743687D01*
G01X-5593555Y734289D01*
G01X-5596603Y724891D01*
G01X-5602953Y718795D01*
G01X-5612097Y715747D01*
G01X-5618447Y715747D01*
G01X-5627591Y718795D01*
G01X-5633941Y724891D01*
G01X-5636989Y734289D01*
G01X-5636989Y743687D01*
G01X-5633941Y752831D01*
G01X-5630639Y755879D01*
G01X-5624543Y758927D01*
G01X-7481971Y1186211D02*
G01X-7481971Y1121187D01*
G01X-7438537Y1186211D02*
G01X-7438537Y1121187D01*
G01X-7481971Y1155223D02*
G01X-7438537Y1155223D01*
G01X-7408311Y1173765D02*
G01X-7402215Y1177067D01*
G01X-7393071Y1186211D01*
G01X-7393071Y1121187D01*
G01X-7332111Y1186211D02*
G01X-7362845Y1143031D01*
G01X-7316617Y1143031D01*
G01X-7332111Y1186211D02*
G01X-7332111Y1121187D01*
G01X-5991065Y928853D02*
G01X-6037547Y928853D01*
G01X-6046691Y925805D01*
G01X-6053041Y919455D01*
G01X-6056089Y910311D01*
G01X-6056089Y903961D01*
G01X-6053041Y894817D01*
G01X-6046691Y888721D01*
G01X-6037547Y885419D01*
G01X-5991065Y885419D01*
G01X-6003511Y855193D02*
G01X-6000209Y849097D01*
G01X-5991065Y839953D01*
G01X-6056089Y839953D01*
G01X-5991065Y778993D02*
G01X-6034245Y809727D01*
G01X-6034245Y763499D01*
G01X-5991065Y778993D02*
G01X-6056089Y778993D01*
G04 Text End*

G04 PolygonModel Start*
G54D13*
G01X-8611591Y92970D02*
G01X-8611591Y-57718D01*
G01X-8611591Y-57718D02*
G01X-9343588Y-57718D01*
G01X-9343588Y-57718D02*
G01X-9343588Y692283D01*
G01X-9343588Y692283D02*
G01X-8611591Y692283D01*
G01X-8611591Y692283D02*
G01X-8611591Y541600D01*
G54D10*
G01X-953491Y2438177D02*
G01X-953491Y2628677D01*
G01X-953491Y2628677D02*
G01X-1207491Y2628677D01*
G01X-1207491Y2628677D02*
G01X-1207491Y1866677D01*
G01X-1207491Y1866677D02*
G01X-953491Y1866677D01*
G54D11*
G01X-953491Y1866677D02*
G01X-953491Y2438177D01*
G54D10*
G01X-953491Y1053877D02*
G01X-953491Y1244377D01*
G01X-953491Y1244377D02*
G01X-1207491Y1244377D01*
G01X-1207491Y1244377D02*
G01X-1207491Y482377D01*
G01X-1207491Y482377D02*
G01X-953491Y482377D01*
G54D11*
G01X-953491Y482377D02*
G01X-953491Y1053877D01*
G54D13*
G01X593557Y-1130523D02*
G01X-166091Y-1130523D01*
G01X-166091Y-1130523D02*
G01X-166091Y-876523D01*
G01X-166091Y-876523D02*
G01X849909Y-876523D01*
G01X849909Y-876523D02*
G01X849909Y-1130523D01*
G01X849909Y-1130523D02*
G01X593557Y-1130523D01*
G01X593557Y-1130523D02*
G01X593557Y-876523D01*
G01X-8705494Y-254626D02*
G01X-8705494Y-1320621D01*
G01X-8705494Y-1320619D02*
G01X-8949487Y-1320621D01*
G01X-8949487Y-1320621D02*
G01X-8949487Y-254626D01*
G01X-8949487Y-254626D02*
G01X-8705494Y-254624D01*
G01X-2261992Y2527077D02*
G01X-3581992Y2527077D01*
G01X-3581992Y2527077D02*
G01X-3581992Y2273077D01*
G01X-3581992Y2273077D02*
G01X-2261989Y2273077D01*
G01X-2261989Y2273077D02*
G01X-2261989Y2527077D01*
G01X-3298147Y2527077D02*
G01X-3298147Y2273077D01*
G54D10*
G01X-2909265Y-2959335D02*
G01X-2909265Y-2977369D01*
G01X-2909265Y-2977369D02*
G01X-3163265Y-2977369D01*
G01X-3163265Y-2977369D02*
G01X-3163265Y1127779D01*
G01X-3163265Y1127779D02*
G01X-2909265Y1127779D01*
G01X-2909265Y1127779D02*
G01X-2909265Y914165D01*
G54D11*
G01X-2909278Y-2959323D02*
G01X-2909278Y914177D01*
G54D10*
G01X-5195265Y-2959335D02*
G01X-5195265Y-2977369D01*
G01X-5195265Y-2977369D02*
G01X-5449265Y-2977369D01*
G01X-5449265Y-2977369D02*
G01X-5449265Y1127779D01*
G01X-5449265Y1127779D02*
G01X-5195265Y1127779D01*
G01X-5195265Y1127779D02*
G01X-5195265Y914165D01*
G54D11*
G01X-5195278Y-2959323D02*
G01X-5195278Y914177D01*
G54D13*
G01X-8091589Y-6176741D02*
G01X-8091589Y-5985733D01*
G01X-8091589Y-5985733D02*
G01X-8121053Y-5956523D01*
G01X-8121053Y-5956523D02*
G01X-8289963Y-5956523D01*
G01X-8289963Y-5956523D02*
G01X-8324253Y-5990559D01*
G01X-8324253Y-5990559D02*
G01X-8324253Y-6176741D01*
G01X-7591590Y-6176741D02*
G01X-7591590Y-5985733D01*
G01X-7591590Y-5985733D02*
G01X-7621054Y-5956523D01*
G01X-7621054Y-5956523D02*
G01X-7789964Y-5956523D01*
G01X-7789964Y-5956523D02*
G01X-7824254Y-5990559D01*
G01X-7824254Y-5990559D02*
G01X-7824254Y-6176741D01*
G01X-8463890Y-6176822D02*
G01X-8463890Y-5416818D01*
G01X-7463889Y-6176822D02*
G01X-8463890Y-6176822D01*
G01X-7463889Y-5622144D02*
G01X-8463890Y-5622144D01*
G01X-7463889Y-5416818D02*
G01X-8463890Y-5416818D01*
G01X-7463889Y-6176822D02*
G01X-7463889Y-5416818D01*
G36*
G01X-8463890Y-5581822D02*
G01X-8523889Y-5596823D01*
G01X-8523889Y-5516823D01*
G01X-8463890Y-5531824D01*
G01X-8463890Y-5581822D01*
G37*
G01X-2440089Y-6214841D02*
G01X-2440089Y-6023833D01*
G01X-2440089Y-6023833D02*
G01X-2469553Y-5994623D01*
G01X-2469553Y-5994623D02*
G01X-2638463Y-5994623D01*
G01X-2638463Y-5994623D02*
G01X-2672753Y-6028659D01*
G01X-2672753Y-6028659D02*
G01X-2672753Y-6214841D01*
G01X-1940090Y-6214841D02*
G01X-1940090Y-6023833D01*
G01X-1940090Y-6023833D02*
G01X-1969554Y-5994623D01*
G01X-1969554Y-5994623D02*
G01X-2138464Y-5994623D01*
G01X-2138464Y-5994623D02*
G01X-2172754Y-6028659D01*
G01X-2172754Y-6028659D02*
G01X-2172754Y-6214841D01*
G01X-2812390Y-6214922D02*
G01X-2812390Y-5454918D01*
G01X-1812389Y-6214922D02*
G01X-2812390Y-6214922D01*
G01X-1812389Y-5660244D02*
G01X-2812390Y-5660244D01*
G01X-1812389Y-5454918D02*
G01X-2812390Y-5454918D01*
G01X-1812389Y-6214922D02*
G01X-1812389Y-5454918D01*
G36*
G01X-2812390Y-5619922D02*
G01X-2872389Y-5634923D01*
G01X-2872389Y-5554923D01*
G01X-2812390Y-5569924D01*
G01X-2812390Y-5619922D01*
G37*
G01X163411Y-6227541D02*
G01X163411Y-6036533D01*
G01X163411Y-6036533D02*
G01X133947Y-6007323D01*
G01X133947Y-6007323D02*
G01X-34963Y-6007323D01*
G01X-34963Y-6007323D02*
G01X-69253Y-6041359D01*
G01X-69253Y-6041359D02*
G01X-69253Y-6227541D01*
G01X663410Y-6227541D02*
G01X663410Y-6036533D01*
G01X663410Y-6036533D02*
G01X633946Y-6007323D01*
G01X633946Y-6007323D02*
G01X465036Y-6007323D01*
G01X465036Y-6007323D02*
G01X430746Y-6041359D01*
G01X430746Y-6041359D02*
G01X430746Y-6227541D01*
G01X-208890Y-6227622D02*
G01X-208890Y-5467618D01*
G01X791111Y-6227622D02*
G01X-208890Y-6227622D01*
G01X791111Y-5672944D02*
G01X-208890Y-5672944D01*
G01X791111Y-5467618D02*
G01X-208890Y-5467618D01*
G01X791111Y-6227622D02*
G01X791111Y-5467618D01*
G36*
G01X-208890Y-5632622D02*
G01X-268889Y-5647623D01*
G01X-268889Y-5567623D01*
G01X-208890Y-5582624D01*
G01X-208890Y-5632622D01*
G37*
G01X-7645603Y-647923D02*
G01X-7747991Y-647923D01*
G01X-7747991Y-647923D02*
G01X-7747991Y-1155923D01*
G01X-7469375Y-1155923D02*
G01X-7366991Y-1155923D01*
G01X-7366991Y-1155923D02*
G01X-7366991Y-647923D01*
G01X-7366991Y-647923D02*
G01X-7469375Y-647923D01*
G01X-7747991Y-1155923D02*
G01X-7645603Y-1155923D01*
G01X-1333210Y-1921733D02*
G01X-1208745Y-1921733D01*
G01X-1270975Y-1854425D02*
G01X-1270975Y-1989045D01*
G01X-1320510Y-2899633D02*
G01X-1196045Y-2899633D01*
G01X-1258275Y-2832325D02*
G01X-1258275Y-2966945D01*
G01X-1789290Y-4939550D02*
G01X-1789290Y-5095877D01*
G01X-1489291Y-4585895D02*
G01X-1489291Y-4429568D01*
G01X-1489291Y-5212724D02*
G01X-1789290Y-5212724D01*
G01X-1789290Y-4312721D02*
G01X-1489291Y-4312721D01*
G01X-1489291Y-4312721D02*
G01X-1489291Y-4429568D01*
G01X-1489291Y-4585895D02*
G01X-1489291Y-5212724D01*
G01X-1789290Y-4312721D02*
G01X-1789290Y-4939550D01*
G01X-1789290Y-5095877D02*
G01X-1789290Y-5212724D01*
G01X-1639291Y-4617846D02*
G01X-1639291Y-4648423D01*
G01X-1639291Y-4907599D02*
G01X-1639291Y-4877023D01*
G01X-1639291Y-4648423D02*
G02X-1639291Y-4762723I0J-57150D01*
G01X-1639291Y-4877023D02*
G02X-1639291Y-4762723I0J57150D01*
G01X326822Y-2982724D02*
G01X26822Y-2982724D01*
G01X26822Y-1462724D02*
G01X326822Y-1462721D01*
G01X326822Y-1462721D02*
G01X326822Y-1882586D01*
G01X326822Y-2062860D02*
G01X326822Y-2982724D01*
G01X26822Y-1462724D02*
G01X26822Y-2382572D01*
G01X26822Y-2562872D02*
G01X26822Y-2982724D01*
G01X176809Y-1997064D02*
G01X176809Y-2095723D01*
G01X176809Y-2448381D02*
G01X176809Y-2349723D01*
G01X176809Y-2095723D02*
G02X176809Y-2222723I0J-63500D01*
G01X176809Y-2349723D02*
G02X176771Y-2222634I382J63545D01*
G01X480637Y-4900022D02*
G01X636963Y-4900022D01*
G01X126982Y-4600023D02*
G01X-29345Y-4600023D01*
G01X753811Y-4600023D02*
G01X753811Y-4900022D01*
G01X-146192Y-4900022D02*
G01X-146192Y-4600023D01*
G01X-146192Y-4600023D02*
G01X-29345Y-4600023D01*
G01X126982Y-4600023D02*
G01X753811Y-4600023D01*
G01X-146192Y-4900022D02*
G01X480637Y-4900022D01*
G01X636963Y-4900022D02*
G01X753811Y-4900022D01*
G01X158933Y-4750023D02*
G01X189509Y-4750023D01*
G01X448686Y-4750023D02*
G01X418109Y-4750023D01*
G01X189509Y-4750023D02*
G02X303809Y-4750023I57150J0D01*
G01X418109Y-4750023D02*
G02X303809Y-4750023I-57150J0D01*
G01X-8154391Y-4534123D02*
G01X-7773391Y-4534123D01*
G01X-7836891Y-4153123D02*
G01X-7836891Y-4254723D01*
G01X-7786091Y-4203923D02*
G01X-7880198Y-4203923D01*
G01X-8154390Y-4534122D02*
G02X-7773391Y-4534122I190500J254000D01*
G01X-2947391Y-5880323D02*
G01X-2947391Y-5499323D01*
G01X-3328391Y-5562823D02*
G01X-3226791Y-5562823D01*
G01X-3277591Y-5512023D02*
G01X-3277591Y-5606130D01*
G01X-2947391Y-5880322D02*
G02X-2947391Y-5499323I-254000J190500D01*
G01X1116609Y1371377D02*
G01X1116609Y1599977D01*
G01X1394612Y1365688D02*
G01X-685394Y1365688D01*
G01X-685394Y1605692D01*
G01X1394612Y1605692D01*
G01X1394612Y1365688D01*
G01X1117600Y101600D02*
G01X1117600Y330200D01*
G01X1395603Y95910D02*
G01X-684403Y95910D01*
G01X-684403Y335915D01*
G01X1395603Y335915D01*
G01X1395603Y95910D01*
G01X-7773378Y-3721323D02*
G01X-7849578Y-3721323D01*
G01X-6858978Y-3721323D02*
G01X-6782778Y-3721323D01*
G01X-6866191Y-3886321D02*
G01X-7766190Y-3886321D01*
G01X-7766190Y-3556324D01*
G01X-6866191Y-3556324D01*
G01X-6866191Y-3886321D01*
G01X-6872989Y-1808824D02*
G01X-6872989Y-2458823D01*
G01X-8622985Y-1808824D02*
G01X-8622985Y-2458823D01*
G01X-8622985Y-1808824D02*
G01X-6872989Y-1808824D01*
G01X-8622985Y-2458823D02*
G01X-6872989Y-2458823D01*
G01X-3696691Y-4508710D02*
G01X-3696691Y-4584910D01*
G01X-3696691Y-3594310D02*
G01X-3696691Y-3518110D01*
G01X-3531692Y-3601523D02*
G01X-3531692Y-4501522D01*
G01X-3861689Y-4501522D01*
G01X-3861689Y-3601523D01*
G01X-3531692Y-3601523D01*
G01X-5494889Y-4129020D02*
G01X-4844890Y-4129020D01*
G01X-5494889Y-5879017D02*
G01X-4844890Y-5879017D01*
G01X-5494889Y-5879017D02*
G01X-5494889Y-4129020D01*
G01X-4844890Y-5879017D02*
G01X-4844890Y-4129020D01*
G01X-6312891Y-1613201D02*
G01X-6312891Y-1506323D01*
G01X-6312487Y-856322D02*
G01X-6312487Y-749444D01*
G01X-6197890Y-1506323D02*
G01X-6427892Y-1506323D01*
G01X-6427892Y-1506323D02*
G01X-6427892Y-856322D01*
G01X-6424889Y-856322D02*
G01X-6200892Y-856322D01*
G01X-6197890Y-856322D02*
G01X-6197890Y-1506323D01*
G01X2254407Y-151325D02*
G01X1604409Y-151325D01*
G01X2254407Y1598672D02*
G01X1604409Y1598672D01*
G01X2254407Y1598672D02*
G01X2254407Y-151325D01*
G01X1604409Y1598672D02*
G01X1604409Y-151325D01*
G01X1479601Y-5017201D02*
G01X1479601Y-3517199D01*
G01X1479601Y-3517199D02*
G01X2249599Y-3517199D01*
G01X1479601Y-5017201D02*
G01X2249599Y-5017201D01*
G01X2249599Y-5017201D02*
G01X2249599Y-3517199D01*
G01X1659545Y-5017201D02*
G01X1659545Y-3517199D01*
G01X2064062Y-5017201D02*
G01X2064062Y-3517199D01*
G01X1610439Y-3517199D02*
G01X1610439Y-3454400D01*
G01X1610439Y-3454400D02*
G01X1714500Y-3454400D01*
G01X1714500Y-3454400D02*
G01X1714500Y-3517199D01*
G01X-8344992Y-2924423D02*
G01X-7404989Y-2924423D01*
G01X-7404989Y-3324422D01*
G01X-8344992Y-3324422D01*
G01X-8344992Y-2924423D01*
G01X-4480890Y-5474024D02*
G01X-4480890Y-4534021D01*
G01X-4080891Y-4534021D01*
G01X-4080891Y-5474024D01*
G01X-4480890Y-5474024D01*
G01X-973887Y-6921121D02*
G01X-946589Y-6383126D01*
G01X-724891Y-6909023D02*
G01X-754278Y-6383126D01*
G01X-551891Y-6383126D02*
G01X-1151890Y-6383126D01*
G01X-551891Y-5823122D02*
G01X-551891Y-6383126D01*
G01X-1151890Y-5823122D02*
G01X-1151890Y-6383126D01*
G01X-1207087Y-4953123D02*
G01X-1266891Y-4953123D01*
G01X-953087Y-4953123D02*
G01X-1004694Y-4953123D01*
G01X-699087Y-4953123D02*
G01X-750694Y-4953123D01*
G01X-436890Y-4953123D02*
G01X-496694Y-4953123D01*
G01X-1266891Y-5823122D02*
G01X-1266891Y-4953123D01*
G01X-436890Y-5823122D02*
G01X-436890Y-4953123D01*
G01X-436890Y-5823122D02*
G01X-1266891Y-5823122D01*
G01X-973889Y-6921118D02*
G03X-727730Y-6909343I123456J-1983D01*
G01X2245909Y-2559623D02*
G01X2895907Y-2559623D01*
G01X4245905Y-1884623D02*
G01X4245905Y-2484622D01*
G01X2895907Y-1884623D02*
G01X4245905Y-1884623D01*
G01X2895907Y-2484622D02*
G01X4245905Y-2484622D01*
G01X2895907Y-1809625D02*
G01X2895907Y-2559623D01*
G01X2245909Y-1809625D02*
G01X2895907Y-1809625D01*
G01X2245909Y-1334624D02*
G01X2245909Y-3034621D01*
G01X1295911Y-1334624D02*
G01X2245909Y-1334624D01*
G01X1295911Y-3034621D02*
G01X1295911Y-1334624D01*
G01X2245909Y-3034621D02*
G01X1295911Y-3034621D01*
G01X-7433777Y-5275325D02*
G01X-8493978Y-5275325D01*
G01X-8493978Y-5275325D02*
G01X-8493978Y-4795516D01*
G01X-8493978Y-4795516D02*
G01X-7433777Y-4795516D01*
G01X-7433777Y-4795516D02*
G01X-7433777Y-5274817D01*
G01X-7433777Y-5274817D02*
G01X-7433777Y-5275325D01*
G01X-8493874Y-5215409D02*
G01X-7433881Y-5215409D01*
G54D14*
G01X-7686881Y-4732918D02*
G03X-7687008Y-4692918I-127J20000D01*
G03X-7687135Y-4732918I0J-20000D01*
G54D13*
G01X-2379177Y-5059425D02*
G01X-3439378Y-5059425D01*
G01X-3439378Y-5059425D02*
G01X-3439378Y-4579616D01*
G01X-3439378Y-4579616D02*
G01X-2379177Y-4579616D01*
G01X-2379177Y-4579616D02*
G01X-2379177Y-5058917D01*
G01X-2379177Y-5058917D02*
G01X-2379177Y-5059425D01*
G01X-3439274Y-4999509D02*
G01X-2379281Y-4999509D01*
G54D14*
G01X-2632281Y-4517018D02*
G03X-2632408Y-4477018I-127J20000D01*
G03X-2632535Y-4517018I0J-20000D01*
G54D13*
G01X-6418890Y1066577D02*
G01X-6418890Y812577D01*
G01X-7476891Y1066577D02*
G01X-6418890Y1066577D01*
G01X-7199539Y1066577D02*
G01X-7199539Y812577D01*
G01X-7476891Y812577D02*
G01X-6418890Y812577D01*
G01X-7476891Y1066577D02*
G01X-7476891Y812577D01*
G01X-8049712Y1500881D02*
G01X-8049712Y1503299D01*
G01X-7469713Y1343919D02*
G01X-7469713Y1242400D01*
G01X-7469713Y1242400D02*
G01X-8049712Y1242400D01*
G01X-8049712Y1242400D02*
G01X-8049712Y1343919D01*
G01X-8049712Y1500881D02*
G01X-8049712Y1602400D01*
G01X-8049712Y1602400D02*
G01X-7469713Y1602400D01*
G01X-7469713Y1602400D02*
G01X-7469713Y1500881D01*
G01X-6843019Y1750512D02*
G01X-6840601Y1750512D01*
G01X-6999981Y1170513D02*
G01X-7101500Y1170513D01*
G01X-7101500Y1170513D02*
G01X-7101500Y1750512D01*
G01X-7101500Y1750512D02*
G01X-6999981Y1750512D01*
G01X-6843019Y1750512D02*
G01X-6741500Y1750512D01*
G01X-6741500Y1750512D02*
G01X-6741500Y1170513D01*
G01X-6741500Y1170513D02*
G01X-6843019Y1170513D01*
G01X-6322319Y1737812D02*
G01X-6319901Y1737812D01*
G01X-6479281Y1157813D02*
G01X-6580800Y1157813D01*
G01X-6580800Y1157813D02*
G01X-6580800Y1737812D01*
G01X-6580800Y1737812D02*
G01X-6479281Y1737812D01*
G01X-6322319Y1737812D02*
G01X-6220800Y1737812D01*
G01X-6220800Y1737812D02*
G01X-6220800Y1157813D01*
G01X-6220800Y1157813D02*
G01X-6322319Y1157813D01*
G01X-5814319Y1598112D02*
G01X-5811901Y1598112D01*
G01X-5971281Y1018113D02*
G01X-6072800Y1018113D01*
G01X-6072800Y1018113D02*
G01X-6072800Y1598112D01*
G01X-6072800Y1598112D02*
G01X-5971281Y1598112D01*
G01X-5814319Y1598112D02*
G01X-5712800Y1598112D01*
G01X-5712800Y1598112D02*
G01X-5712800Y1018113D01*
G01X-5712800Y1018113D02*
G01X-5814319Y1018113D01*
G01X-4259890Y2692177D02*
G01X-4259890Y2438177D01*
G01X-5317891Y2692177D02*
G01X-4259890Y2692177D01*
G01X-5040539Y2692177D02*
G01X-5040539Y2438177D01*
G01X-5317891Y2438177D02*
G01X-4259890Y2438177D01*
G01X-5317891Y2692177D02*
G01X-5317891Y2438177D01*
G01X-7894698Y2014101D02*
G01X-7894701Y2634099D01*
G01X-7624702Y2014101D02*
G01X-7624699Y2634099D01*
G01X-7624702Y2634099D02*
G01X-7894701Y2634099D01*
G01X-7624699Y2014101D02*
G01X-7894698Y2014101D01*
G01X-7475598Y2014101D02*
G01X-7475601Y2634099D01*
G01X-7205602Y2014101D02*
G01X-7205599Y2634099D01*
G01X-7205602Y2634099D02*
G01X-7475601Y2634099D01*
G01X-7205599Y2014101D02*
G01X-7475598Y2014101D01*
G01X-7031098Y2077601D02*
G01X-7031101Y2697599D01*
G01X-6761102Y2077601D02*
G01X-6761099Y2697599D01*
G01X-6761102Y2697599D02*
G01X-7031101Y2697599D01*
G01X-6761099Y2077601D02*
G01X-7031098Y2077601D01*
G01X-6637398Y2077601D02*
G01X-6637401Y2697599D01*
G01X-6367402Y2077601D02*
G01X-6367399Y2697599D01*
G01X-6367402Y2697599D02*
G01X-6637401Y2697599D01*
G01X-6367399Y2077601D02*
G01X-6637398Y2077601D01*
G01X-8049801Y-388501D02*
G01X-7799799Y-388501D01*
G01X-7799799Y261501D02*
G01X-7799799Y-388501D01*
G01X-8049801Y-388501D02*
G01X-8049801Y261501D01*
G01X-8049801Y261501D02*
G01X-7799799Y261501D01*
G01X-6919501Y-985401D02*
G01X-6669499Y-985401D01*
G01X-6669499Y-335399D02*
G01X-6669499Y-985401D01*
G01X-6919501Y-985401D02*
G01X-6919501Y-335399D01*
G01X-6919501Y-335399D02*
G01X-6669499Y-335399D01*
G01X-6360701Y-7501D02*
G01X-6110699Y-7501D01*
G01X-6110699Y642501D02*
G01X-6110699Y-7501D01*
G01X-6360701Y-7501D02*
G01X-6360701Y642501D01*
G01X-6360701Y642501D02*
G01X-6110699Y642501D01*
G01X-5941601Y-58301D02*
G01X-5691599Y-58301D01*
G01X-5691599Y591701D02*
G01X-5691599Y-58301D01*
G01X-5941601Y-58301D02*
G01X-5941601Y591701D01*
G01X-5941601Y591701D02*
G01X-5691599Y591701D01*
G01X-8858250Y2848610D02*
G01X-9226550Y2480310D01*
G01X-9239250Y2848610D02*
G01X-8870950Y2480310D01*
G01X-8858250Y-5822950D02*
G01X-9226550Y-6191250D01*
G01X-9239250Y-5822950D02*
G01X-8870950Y-6191250D01*
G01X2708910Y-5822950D02*
G01X2340610Y-6191250D01*
G01X2327910Y-5822950D02*
G01X2696210Y-6191250D01*
G01X2708910Y2848610D02*
G01X2340610Y2480310D01*
G01X2327910Y2848610D02*
G01X2696210Y2480310D01*

G04 Rect Start*
G01X-9329141Y428529D02*
G01X-8986241Y428529D01*
G01X-8986241Y238029D01*
G01X-9329141Y238029D01*
G01X-9329141Y428529D01*
G01X-216802Y-4159422D02*
G01X-216802Y-3486423D01*
G01X1383195Y-3486423D01*
G01X1383195Y-4159422D01*
G01X-216802Y-4159422D01*
G01X-7170090Y-4204011D02*
G01X-6497091Y-4204011D01*
G01X-6497091Y-5804008D01*
G01X-7170090Y-5804008D01*
G01X-7170090Y-4204011D01*
G04 Rect End*

G04 Circle Start*
G01X-2001558Y-1778223D02*
G03X-1149998Y-1778223I425780J0D01*
G03X-2001558Y-1778223I-425780J0D01*
G01X-1988858Y-2756123D02*
G03X-1137298Y-2756123I425780J0D01*
G03X-1988858Y-2756123I-425780J0D01*
G01X-8217891Y-4280123D02*
G03X-7709891Y-4280123I254000J0D01*
G03X-8217891Y-4280123I-254000J0D01*
G01X-3455391Y-5689823D02*
G03X-2947391Y-5689823I254000J0D01*
G03X-3455391Y-5689823I-254000J0D01*
G01X-9315450Y2670810D02*
G03X-8782050Y2670810I266700J0D01*
G03X-9315450Y2670810I-266700J0D01*
G01X-9315450Y-6000750D02*
G03X-8782050Y-6000750I266700J0D01*
G03X-9315450Y-6000750I-266700J0D01*
G01X2251710Y-6000750D02*
G03X2785110Y-6000750I266700J0D01*
G03X2251710Y-6000750I-266700J0D01*
G01X2251710Y2670810D02*
G03X2785110Y2670810I266700J0D01*
G03X2251710Y2670810I-266700J0D01*
G04 Circle End*

M02*

